/* XPM */
static char * enemy33_xpm[] = {
"64 64 29 1",
" 	c #F8C984",
".	c #F8CD8F",
"+	c #F1B183",
"@	c #F8D4A0",
"#	c #F4BB83",
"$	c #F8CB8A",
"%	c #F8CF93",
"&	c #2F2F2E",
"*	c #983636",
"=	c #7E3030",
"-	c #B0B0B0",
";	c #FFFFFF",
">	c #804020",
",	c #A06040",
"'	c #F2B683",
")	c #F6C384",
"!	c #6F4827",
"~	c #443122",
"{	c #50565D",
"]	c #9299A4",
"^	c #D4D4D7",
"/	c #DAA935",
"(	c #C0942D",
"_	c #7E8590",
":	c #285DAA",
"<	c #F8D197",
"[	c #2D6AC5",
"}	c #F8D39E",
"|	c #255190",
"                                                                ",
"                                                                ",
"                       ..                                       ",
"                                                                ",
"                                                                ",
"         +++                           @@@@                     ",
"        +++++                          @@@@                     ",
"       +++++++                         @@@@                     ",
"       +++++++#                        @@@@                     ",
"       +++++++#                                                 ",
"       +++++++                                                  ",
"        #++++                                                   ",
"         +++                                                    ",
"                                                                ",
"                                                  $             ",
"                                                  %             ",
"                                                                ",
"                                                                ",
"                                                                ",
"                                                                ",
"                                                                ",
"                                                         @@@    ",
"                                                        @@@@@   ",
"      $                              &&&&              @@@@@@@  ",
"      $                          &&&&****&&&           @@@@@@@  ",
"                               &&*****===***&           @@@@@   ",
"                           &  &*******==&=*==&           @@@    ",
"                          &-&&******===&-&*===&                 ",
"                          &-;&*=&&&&&=&;-&=====&                ",
"                          &-;&&&>>>>>&&;-&======&               ",
"                          &-&>>,,,,,,>&;-&=======&              ",
"                          @&>,,,,,,,,&;;-&&&=====&              ",
"                          @&,,,,>,,,>;;;->>>&====&              ",
"                          &>,>,>,,>>,>;->>>>&====&&             ",
"                          &->,>>,>--&>>>>>&&=====&>&            ",
"    '+)                   &;-&>>&;;-&>>>>&======&>>>&           ",
"   '+++                  &>&&>>>>&&&>>>>>&======&>,,>&          ",
"   +&&&                 &>,,,,,,,>>>>>>>&======&>,,,,&          ",
"   )&!~&&&&&            &>,,,,,,>>>>>>>&=======&>,,,,&          ",
"     &&!{{{{&&&         &>&&&&&>>>>>>>&========&>,,,,&          ",
"     &]]]]]]{{{&&&&     &&&&&&&&>>>>>&========&>>,,,,&          ",
"     &^^^^^^]]]{{{{&&&&&&&/&&&(&>>>&&=========&>>,,,,&          ",
"  &&&^^^^^^^^^^]]]!!&,,,>&/&&&(&&&&===========&>>>,,>&#         ",
" &^^^^^^^^^^^^^^^^&&&,,>>&&//(&====*=========&>>>>>>&++         ",
"  &^^^^^^^^^^^^^&&  &,>>>>&&&&&&&***========&&>>,,,>&++         ",
"  &;^^^^^^^^^^^^&   &>>>>>&&&&!!!&&&&*===&&&>&&,,,,,&++         ",
"   &;;^^^^^^^^^^^&   &&&&&   &&&~!!!!&&&&>>>>>&,,,,,&+          ",
"    &&;;^^^^^^;;;&            &&&&&~!!!!&&>>>&>,,,,,&           ",
"      &&;;;;;;&&&&            &&&*&&&&&~!!&&&>>,,,,&            ",
"        &&&&&&                 &>&>>>>>&&!!!&&>>,,,&            ",
"                               &>,,>>>,,,&&&&>>,,,,&            ",
"                                &,>>>>>,,,>>&>>,,,>&&&          ",
"                                &>,&&&&,,>>&&>>>>>&!!!&         ",
"                                 &&___]&&&&]&&&&&& &&&          ",
"                                &]____]__]]&&&&&                ",
"     @@@@                       &&&___]&&&&:&>,,&               ",
"    <@@@@@                    &&&[[&&&&::::&>>,,,&              ",
"   }@@@@@@@                  &,,,&[[[[[::::&>>,,,&              ",
"    @@@@@@<                  &,,,&:[[[[::::&&>>,,,&             ",
"     @@@@                   &>,,,&::[[:::::&|&>>,,&             ",
"      @@<                   &>>>>>&::[::::&&|&>>>>&             ",
"                            &&&&&>&:::::::&&&&&&&&&             ",
"                            &&&&&&&&&&&&&&&   &&&&&             ",
"                                                                "};
