/* XPM */
static char *enemy_19[] = {
/* columns rows colors chars-per-pixel */
"55 55 217 2 ",
"   c #2E282C",
".  c #3A2A2A",
"X  c #342E33",
"o  c #352D39",
"O  c #27353E",
"+  c #3C323B",
"@  c #571C1B",
"#  c #66201E",
"$  c #6F201E",
"%  c #72211E",
"&  c #7A221E",
"*  c #542B2D",
"=  c #5C2928",
"-  c #422B32",
";  c #4D2C30",
":  c #44343B",
">  c #483338",
",  c #58353A",
"<  c #672626",
"1  c #7D2623",
"2  c #782726",
"3  c #6A322E",
"4  c #6D3435",
"5  c #793938",
"6  c #2C3C46",
"7  c #3B3443",
"8  c #433C44",
"9  c #493A46",
"0  c #443E4A",
"q  c #503C44",
"w  c #6C3E40",
"e  c #723F40",
"r  c #36404C",
"t  c #364959",
"y  c #394F62",
"u  c #375165",
"i  c #375A71",
"p  c #3A627D",
"a  c #44434D",
"s  c #4D4849",
"d  c #5D4E4A",
"f  c #4C4554",
"g  c #444857",
"h  c #554554",
"j  c #544A54",
"k  c #544D5A",
"l  c #5C4C5C",
"z  c #41505A",
"x  c #595557",
"c  c #5A525B",
"v  c #6C494A",
"b  c #6C4A54",
"n  c #675856",
"m  c #63535D",
"M  c #6B5C5A",
"N  c #755858",
"B  c #6C625F",
"V  c #71615B",
"C  c #47596B",
"Z  c #585666",
"A  c #5C5A64",
"S  c #445D75",
"D  c #4B5E73",
"F  c #625B64",
"G  c #685967",
"H  c #765D61",
"J  c #6F5D71",
"K  c #725F74",
"L  c #5C6269",
"P  c #44637D",
"I  c #4B6479",
"U  c #54677A",
"Y  c #6D6664",
"T  c #67636B",
"R  c #786660",
"E  c #736966",
"W  c #7C6A64",
"Q  c #766C6C",
"!  c #796E6A",
"~  c #646B77",
"^  c #736D71",
"/  c #7B687D",
"(  c #6B727B",
")  c #777479",
"_  c #832624",
"`  c #892A28",
"'  c #942C2A",
"]  c #9D2F2D",
"[  c #853637",
"{  c #893E3D",
"}  c #923B3A",
"|  c #9D3A38",
" . c #A02F2D",
".. c #A4312F",
"X. c #A53331",
"o. c #A93633",
"O. c #A83936",
"+. c #AC3D3B",
"@. c #874646",
"#. c #964846",
"$. c #915858",
"%. c #AC4442",
"&. c #B5514F",
"*. c #9E6061",
"=. c #80706A",
"-. c #8B746D",
";. c #816672",
":. c #857977",
">. c #8B7A73",
",. c #927A72",
"<. c #9E757B",
"1. c #8F837E",
"2. c #95827B",
"3. c #3C6683",
"4. c #3F7597",
"5. c #4A6881",
"6. c #446D8B",
"7. c #546A81",
"8. c #4D738C",
"9. c #597487",
"0. c #457494",
"q. c #4A7899",
"w. c #527695",
"e. c #537993",
"r. c #736D87",
"t. c #637887",
"y. c #6B7B8C",
"u. c #737A83",
"i. c #826D86",
"p. c #8A788A",
"a. c #8F7A90",
"s. c #957D95",
"d. c #A37D82",
"f. c #79848C",
"g. c #6B8395",
"h. c #76869A",
"j. c #4784A9",
"k. c #5283A5",
"l. c #5088AC",
"z. c #5A8BA9",
"x. c #478BB4",
"c. c #4C8BB2",
"v. c #538EB3",
"b. c #4790BA",
"n. c #4D91BB",
"m. c #5594BD",
"M. c #5994B9",
"N. c #6088A1",
"B. c #6D8FA9",
"V. c #768EA1",
"C. c #6591AF",
"Z. c #7A96AB",
"A. c #6B95B3",
"S. c #699BBA",
"D. c #779EB7",
"F. c #4C95C0",
"G. c #4F99C6",
"H. c #4F9CC9",
"J. c #5499C4",
"K. c #599BC3",
"L. c #549ECA",
"P. c #53A0CE",
"I. c #5DA2CA",
"U. c #4FA3D4",
"Y. c #53A4D4",
"T. c #57A7D5",
"R. c #55AADC",
"E. c #5BADDC",
"W. c #65A1C5",
"Q. c #6DA1C5",
"!. c #64A5CB",
"~. c #55AEE2",
"^. c #58AEE1",
"/. c #56B1E5",
"(. c #58B1E6",
"). c #57B4EA",
"_. c #59B6EC",
"`. c #59B8EF",
"'. c #57B8F0",
"]. c #5CBCF4",
"[. c #5DBFF8",
"{. c #5DC0FA",
"}. c #83878D",
"|. c #968A88",
" X c #878A92",
".X c #9B8699",
"XX c #9D9498",
"oX c #A7938A",
"OX c #B0958C",
"+X c #A08D9D",
"@X c #A79B96",
"#X c #B39794",
"$X c #ADA19D",
"%X c #B6A29A",
"&X c #869AA8",
"*X c #9C9CA4",
"=X c #9590A9",
"-X c #AE9FA2",
";X c #99A1A8",
":X c #8AA4B3",
">X c #99ADB7",
",X c #ABA2A6",
"<X c #B4A4A1",
"1X c #BDACB8",
"2X c #C39D9D",
"3X c #C8ACA2",
"4X c #D2A7A5",
"5X c #D6B8AD",
"6X c #CCB2B8",
"7X c #DAC2B7",
"8X c #E1C6BA",
"9X c #C8BAC3",
"0X c #CDC2C6",
"qX c #D9CCCA",
"wX c #E3CDC2",
"eX c #EAD5C9",
"rX c #F1DCD0",
/* pixels */
"].].].].].].].].].].].].].].].].].].].].].].].].].].].].].].].].].].].].].].`.].].].].].].].].].].].].].].].].",
"].].].].].].].].].].].].].].].].].].].].].].].].].].].].].].].`.].].].].].].].].].].].].].].].].].].].].].].].",
"].].].].].].].].].].].].].].].].].].].].].].].].].].].].].].].].].].].].].].].].].].].].].].].].].].].].].].].",
"].].].].].].].].].].].].].].].].].].].].].].].].].].].].].].].].].].].].].].].].].].].].].].].].].].].].].].].",
"].].].].].].].].].].].].].].].].].].].].].].].].].].].].].].].].].].].].].].].].].].].].].].].].].].].].].].].",
"].].].].].].].].].].].].].].].].].].].].].].].].].].].].].].].].].].].].].].].].].].].].].].].].].].].].].].].",
"].].].].].].].].].].].].].].].].].].].].].].].].].].].].].].].].].].].].].].].].].].].].].].].].].].].].].].].",
"].].].].].].].].].].].].].].].].].].].].].].].].].].].].].].].].].].].].].].].].].].].].].].].].].].].].].].].",
"].].].].].].].].].].].].].].].].].].].].].].].].].].].].].].].].].].].].].].].].].].].].].].].].].].].].].].].",
"].].].].].].].].].].].].].].].].].].].].].].].].].].].].].].].].].].].].].].].].].].].].].].].].].].].].].].].",
"].].].].].].].].].].].].].].`.].].].].].].].].].].].].].].].].`.].].].].].].].].].].].].].].].].].].].].].].].",
"].].].].].].].].].].].].].].].].].].].].].].].].].].].].].].].].].].].].].].].].].].].].].].].].].].].].].].].",
"].].].].].].].`.].].].].].].].].].].].].].].].].].].].].].].].].].].].].].].].].].].].].].].].].].].].].].].`.",
"].].].].].].].].].].].].].].].].].].].].].].].].].[.R.U.].].].].].].].].[.].[.].].].].].].].].].].].].].].].].",
"].].].].].].].].].].].].].].].].].].].].].].].].Y.L.y t _.[.].].].{.].R.Y.Y./.'.].].].].].].].].].].].].].].].",
"].].].].].].].].].].].].].].].].].].].].].~.H.w.b w . O v.m.m.S.K.K.A.+X-X,X*X&XW.~.].].].].].].].].].].].].].",
"].].].].].].].].].].].].].].].].].].].].(.I j - = < *   H <.<.d.oXOX2X4X4X4X4X4X<X Xv._.].].].].].].].].].].].",
"].].].].].].].].].].].].].].].].].].].].].Y.v.I 3 5 . 6 S.Q.Q.Q.B.$XwXqX*XB.A.B.Z.V.D j.].].].].].].].].].].].",
"].].].].].].].].].].].].].].].].].].].].].].[.J.v [   u `.].]./.>XwXrXrXeX>X(.].].'.)./.].].].].].].].].].].].",
"].].].].].].].].].].].].]._.].].].].].].].].].k.#.{ : x.].`.].k.oX8X8X5X8X7XS.].].].[.].].].].].].].].].].].].",
"].].].].].].].].].].].].].].].].].].].].].].].q.v w P R.].c.P.9.! >.W 2.3X5XZ.'.].].].].].].].].].].].].].].].",
"].].].].].].].].].].].].].].].].].].].].].].]._.9.1.E.{./.g.N.}.oX>.s ,.-.OXA.].].].].].].].].].].].].'.].].].",
"].].].].].].].].].].].].].].].].].].].].].].].].M.oXD.)./.y.c |.3XOXoX-.n ^ R.].].].].].].].].].].].].].].].].",
"].].].].].].].].].].].].].].].].].].].].].].].].J.f.|.&XS.~ 7 M V d M s S L.[.].[.].].].].].].].].].].].].].].",
"].].].].].].].].].].].].].].].].].].].].].].].].].R.J.z.}.=.4 ,.,.n ) k L 7.v./.^.`.].].].].].].].].].].].].].",
"].].].].].].].].].].].].].].].].].].].].].].].].].].{.].P.d 3 * d M k o 7 f Z y.w.^.[.].[.].].].].].].].].].].",
"].].`.].].].].].].].].].].].].].].].].].].].].].].].].]._.C n ! M n F 7 7 7 A y.K._.E.E.).].[.'.].].].].].].].",
"].].].].].].].].].].].].].].].].].].].].].].].].].].].].J.L :.<XY c ^ A A / y.j.q.D 7.r.y.C.~.].].].].].].].].",
"].].].].].].].].].].].].].].].].].].].].{.(.{.].{.{.{.{.e.R %X@XE Y n d 5 $./ 0 q G J i.s.+X=X(.[.].].].].].].",
"].].].].].].].].].].].].].].].].].].].].{.{.{.(.).).{.T.L 2.3X1.Q Q Y < ..[ 9 q q 0 G K r.a.6XD.'.].'.].].].].",
"].].].].].].].].].].].].].].].].].].].].{.(.{.).{.{.{.P.^ R W >.E M 9.C _ = 9 o 9 J i.s.s.s..XV.`.].].].].].].",
"].].].].].].].].].].].].].].].].].].].].{.(.{.{.{.).{.~.~ : . W ,.d w.U.> - o 9 l K i.s.1X9X,X&X'.].].].].].].",
"].].].].].].].].].].].].].].].].].].].].].].].].].].].].l.j.p x B s b.{.4.X + 8 l J p.1XqX0X,X!.].].].].].].].",
"].].].].].].].].].].].].].].].].].].].].].].].].].].].].(.!.I.L L v.R.{.(.u : 8 m K a.9X9X*XA.].].].].].].].].",
"].].].].].].].].].].].].].].].].].].].].].].].].].].]._.g.oX@X! u.z.V.(.{.x.> d m r.a.|.<.~ ).[.].].].].].].].",
"].].`.].].].].].].].].].].].].].].].].].].].].[.].].].(.( R M d E 1.u.~.]./.f & [ $.*.#.X.} w.'.].].].].].].].",
"].].].].].].].].].].].].].].].].].].].].].].~.L.].].{.`.9.N x t s 2.E W.{.{.j.$ ` #.&.} ` o.{ l.].].].].].].].",
"].].].].].].].].].].].].].].].].].].].].R.z.h.n._.(.T.M.( V ! :.-.-.1.Z./.{.T.> 2 5 @.} 2  .+.e G.[.].].].].].",
"].].].].].].].].].].].].].].].].].].].`.e.H ( g.h.}.|.@X$XXXx C x x @XI.{.).{.S % '  .+.} 2 ..O.G ).].].].].].",
"].].].].].].].].].].].].].].].].].].[.L.G n |.$X;X:XQ.!.E.R.K.^.U.f.$XR.{.{.{.j.= ' ....%.2 ` o.#.q.].].].].].",
"].].].].].].].].].].].].].].].].].].].e.N > c z._.`.].].].{.{.].^. X*X_.].].[.~.9 _  ...+.} $  .o.b ~.].].].].",
"].].].].].].].].].].].].].].].].].].].n.N q 7 y R.].].].].].`.{.L.|.D.'.].].].].g & ' ....%.< ` X.} l.[.].].].",
"].].].].].].].].].].].].].].].].].].].].k.c 0 o p /.{.].].].].].z.#XQ.'.].].].].5.% ` ....+.} # ] ] w.[.].].].",
"].].].].].].].].].].].].].].].].].].].].R.I j 8 f 0.`.].].]./.k.u.@XT.[.].].].[.6.$ _  ...O.%.# _ 4 F.[.].].].",
"].].].].].].].].].].].].].].].].].].].].{.c.Z k c Z c.{.].].(.f.XX! 8.~.].].].].0.$ 1 ' ..X.%.[ @ 6.].].].].].",
"].].].].].].].].].].].].].].].].].].].].]./.9.^ A x u /.].].`.U m ;.N P ).].].].6.$ 1 ` ....%.| o R.].].].].].",
"].].].].].].].].].].].].].].].].].].].].].`.P s X + z P.`.].`.k.> , N r G.].].].S % _ ` .. .o.%.Z '.].].].].].",
"].].].].].].].].].].]._.].].].].].].].].].M.a X X t J.].{.`.{.(.S + 8 Q t.F.].'.C & 2 _  .X._ | k ).].].].].].",
"].].].].].].].].].].].].].].].].].].].].E.U s   r P.{.{.`.{.].].R.5.8 9 G S Y.'.f 1 1 $ ' ' - = 3.'.].].].].].",
"].].].].].].].].].].].].].].].].].].].].].L r p T.].{.`.{.`.].].]./.0.0 k G U b.> _ 1 - ` ' 6 3.(.].].].].].].",
"].].].].].].]._.].].].].].].].].].].].].{.T.R.{.].].].].`.].].].].[.'.0.T F c i * _ % 6.h , q.'.].].].].].].].",
"].].].].].].].].].].].].].].].].].].].].`.`.{.{.].].].].].].].].].'.[.(.5.X 8 6 @ $ ; H.F.U.].].].].].].].].].",
"].].].].].].].].].].].].].].].].].].].].{.`.{.`.].].].].].].].].{.`.{.`.n.7 j + y q.J.].].].].].].].].].].].].",
"].].].].].].].].].].].].].].].].].].].].`.{.`.{.].].].].].].].].`.{.`.{.n.a r z T.{.{.`.].].].].].].].].].].].",
"].].].].].].].].].].].].].].].].].].].].].].{.`.].].].].].].].].{.`.{.{.R.q.j.m.`.].].].].].{.`.].].].].].].]."
};
