/* XPM */
static char *enemy_6[] = {
/* columns rows colors chars-per-pixel */
"55 55 204 2 ",
"   c #2A0F0D",
".  c #3A0B06",
"X  c #350C09",
"o  c #3D0E0A",
"O  c #3C130E",
"+  c #2D1818",
"@  c #361413",
"#  c #3B1916",
"$  c #3D1C18",
"%  c #3D1F23",
"&  c #3B272B",
"*  c #2C2836",
"=  c #332C32",
"-  c #372D38",
";  c #293037",
":  c #3B323A",
">  c #3A3439",
",  c #430E0A",
"<  c #4A0F0C",
"1  c #44110C",
"2  c #4C120E",
"3  c #51130D",
"4  c #51190D",
"5  c #421613",
"6  c #4C1512",
"7  c #4D1914",
"8  c #451C18",
"9  c #511511",
"0  c #43211D",
"q  c #442622",
"w  c #562A28",
"e  c #52302D",
"r  c #462C33",
"t  c #4D3935",
"y  c #473739",
"u  c #553434",
"i  c #593D3D",
"p  c #662A29",
"a  c #782523",
"s  c #66302E",
"d  c #6C3A38",
"f  c #793837",
"g  c #50423F",
"h  c #2C3E4B",
"j  c #3C3744",
"k  c #333B46",
"l  c #3D3945",
"z  c #433A44",
"x  c #443C4A",
"c  c #4D3C48",
"v  c #563C44",
"b  c #613F48",
"n  c #3C404E",
"m  c #3A4656",
"M  c #3D4E60",
"N  c #3B5468",
"B  c #395E78",
"V  c #3B617B",
"C  c #484249",
"Z  c #4C424C",
"A  c #594747",
"S  c #5B4B47",
"D  c #5D504C",
"F  c #494753",
"G  c #424B5A",
"H  c #544553",
"J  c #524A53",
"K  c #584A55",
"L  c #5A4E5C",
"P  c #41505F",
"I  c #595359",
"U  c #5A525B",
"Y  c #654747",
"T  c #66534F",
"R  c #76534E",
"E  c #6C5352",
"W  c #6C5B56",
"Q  c #775857",
"!  c #6E615D",
"~  c #4A5363",
"^  c #435769",
"/  c #5C5462",
"(  c #5C5D6D",
")  c #425D73",
"_  c #4B5F70",
"`  c #665867",
"'  c #735C61",
"]  c #47647D",
"[  c #536275",
"{  c #5C6778",
"}  c #686469",
"|  c #6A646C",
" . c #756563",
".. c #796662",
"X. c #7C6B66",
"o. c #75686A",
"O. c #7F736E",
"+. c #6B6977",
"@. c #786479",
"#. c #74747C",
"$. c #853838",
"%. c #983837",
"&. c #A13532",
"*. c #B0403D",
"=. c #884649",
"-. c #944847",
";. c #8D5254",
":. c #A84443",
">. c #B24C4A",
",. c #83615A",
"<. c #836461",
"1. c #856B64",
"2. c #836F69",
"3. c #83726C",
"4. c #8C746E",
"5. c #876B7C",
"6. c #877877",
"7. c #8C7A75",
"8. c #957A74",
"9. c #96817A",
"0. c #9D837C",
"q. c #3A6886",
"w. c #416A86",
"e. c #4C6C86",
"r. c #406C89",
"t. c #47708D",
"y. c #5B738B",
"u. c #477796",
"i. c #517692",
"p. c #577B94",
"a. c #737388",
"s. c #737D88",
"d. c #4D7FA3",
"f. c #887688",
"g. c #9A7E87",
"h. c #8E7893",
"j. c #917C92",
"k. c #A57C81",
"l. c #718197",
"z. c #4A84A8",
"x. c #4C85A9",
"c. c #5584A6",
"v. c #4E8DB4",
"b. c #4C92BC",
"n. c #5595BC",
"m. c #6F8EA7",
"M. c #7B97AE",
"N. c #638FB0",
"B. c #699BBB",
"V. c #6CA0BE",
"C. c #4F9CCA",
"Z. c #549AC5",
"A. c #5C9AC3",
"S. c #539ECB",
"D. c #53A1CF",
"F. c #5EA5CF",
"G. c #53A4D4",
"H. c #59A5D3",
"J. c #5AA8D6",
"K. c #54AADC",
"L. c #5AABDA",
"P. c #63A2C7",
"I. c #66A4C9",
"U. c #74A4C0",
"Y. c #56AFE3",
"T. c #59AFE2",
"R. c #56B1E6",
"E. c #58B1E5",
"W. c #56B4EA",
"Q. c #59B6EC",
"!. c #5AB8EF",
"~. c #5CBCF4",
"^. c #5CBFF8",
"/. c #5DC0FA",
"(. c #878486",
"). c #9A8C87",
"_. c #8B8795",
"`. c #8D959C",
"'. c #93959E",
"]. c #9B929C",
"[. c #A38D85",
"{. c #A69188",
"}. c #AA9189",
"|. c #A18D9F",
" X c #A6979A",
".X c #B69B98",
"XX c #BBA49A",
"oX c #8393A6",
"OX c #A19BA2",
"+X c #96A2B3",
"@X c #A7A1A7",
"#X c #B6A6AA",
"$X c #B8A8B4",
"%X c #B7B4B2",
"&X c #C5A49D",
"*X c #CCAEAA",
"=X c #D8AEAB",
"-X c #CCC5BF",
";X c #DEC5BA",
":X c #E2C5BA",
">X c #C8BAC1",
",X c #D5CCC4",
"<X c #D9CED1",
"1X c #EDD5C9",
/* pixels */
"~.~.~.~.~.~.~.~.~.~.~.~.~.~.~.~.~.~.~.~.~.~.~.~.~.~.~.~.~.~.~.~.~.~.~.~.~.~.~.~.~.~.~.~.~.~.~.~.~.~.~.~.~.~.~.",
"~.~.~.~.~.~.~.~.~.~.~.~.~.~.~.~.~.~.~.~.~.~.~.~.~.~.~.~.~.~.~.~.~.~.~.~.~.~.~.~.~.~.~.~.~.~.~.~.~.~.~.~.~.~.~.",
"~.~.~.~.~.~.~.~.~.~.~.~.~.~.~.~.~.~.~.~.~.~.~.~.~.~.~.~.~.~.~.~.~.~.~.~.~.~.~.~.~.~.~.~.~.~.~.~.~.~.~.~.~.~.~.",
"~.~.~.~.~.~.~.~.~.~.~.~.~.~.~.~.~.~.~.~.~.~.~.~.~.~.~.~.~.~.~.~.~.~.~.~.~.~.~.~.~.~.~.~.~.~.~.~.~.~.~.~.~.~.~.",
"~.~.~.~.~.~.~.~.~.~.~.~.~.~.~.~.~.~.~.~.~.~.~.~.~.~.~.~.~.~.~.~.~.~.~.~.~.~.~.~.~.~.~.~.~.~.~.~.~.~.~.~.~.~.~.",
"~.~.~.~.~.~.~.~.~.~.~.~.~.~.~.~.~.~.~.~.~.~.~.~.~.~.~.~.~.~.~.~.~.~.~.~.~.~.~.~.~.~.~.~.~.~.~.~.~.~.~.~.~.~.~.",
"~.~.~.~.~.~.~.~.~.~.~.~.~.~.~.~.~.~.~.~.~.~.~.~.~.~.~.~.~.~.~.~.~.~.~.~.~.~.~.~.~.~.~.~.~.~.~.~.~.~.~.~.~.~.~.",
"~.~.~.~.~.~.~.~.~.~.~.~.~.~.~.~.~.~.~.~.~.~.~.~.~.~.~.~.~.~.~.~.~.~.~.~.~.~.~.~.~.~.~.~.~.~.~.~.~.~.~.~.~.~.~.",
"~.~.~.~.~.~.~.~.~.~.~.~.~.~.!.~.~.~.~.~.~.~.~.~.~.~.~.~.~.~.~.~.~.~.~.~.~.~.~.~.~.~.~.~.~.~.~.~.~.~.~.~.~.~.~.",
"~.~.~.~.~.~.~.~.~.~.~.~.~.~.~.~.~.~.~.~.~.~.~.~.~.~.~.~.~.~.~.~.~.~.~.~.~.~.~.~.~.~.~.~.~.~.~.~.~.~.~.~.~.~.~.",
"~.~.~.~.~.~.~.~.~.~.~.~.~.~.~.~.~.~.~.~.~.~.~.~.~.~.~.~.~.~.~.~.~.~.~.~.~.~.~.~.~.~.~.~.~.~.~.~.~.~.~.~.~.~.~.",
"~.~.~.~.~.~.~.~.~.~.~.~.~.~.~.~.~.~.~.~.~.~.~.~.~.~.~.~.~.~.~.~.~.~.~.~.~.~.~.~.~.~.~.~.~.~.~.~.~.~.~.~.~.~.~.",
"~.~.~.~.~.~.~.~.~.~.~.~.~.~.~.~.~.~.~.~.~.~.~.!.~.~.~.~.~.~.~.~.~.~.~.~.~.~.~.~.~.~.~.~.~.~.~.~.~.~.~.~.~.~.~.",
"~.~.~.~.~.~.~.~.~.~.~.~.~.~.~.~.~.~.~.~.~.~.~.~.~.~.~.~.~.~.~.~.~.~.~.~.~.~.~.~.~.~.~.~.~.~.~.~.~.~.~.~.~.~.~.",
"~.~.~.~.~.~.~.~.~.~.~.~.~.~.~.~.~.~.~.~.~.~.~.~.~.~.~.~.~.~.~.~.~.~.~.~.~.~.~.~.~.~.~.~.~.~.~.~.~.~.~.~.~.~.~.",
"~.~.~.~.~.~.~.~.~.~.~.~.~.~.~.~.~.~.~.~.~.~.~.~.~.~.~.~.~.~.~.~.~.~.~.~.~.~.~.~.~.~.Q.~.~.~.~.~.~.~.~.~.~.~.~.",
"~.~.~.~.~.~.~.~.~.~.~.~.~.~././.~.~.~.~./.Q./.!./.Q.Q./.Q.~.~.~.~.~.~.~.~.~.~.~.~.~.~.~.~.~.~.~.~.~.~.~.~.~.~.",
"~.~.~.~.~.~.~.~.~.~.~.~.~.~.E.Q.~.~.~.~.!./.!./././././.~.~.~.~.~.~.~.~.~.~.~.~.~.~.~.~.~.~.~.~.~.~.~.~.~.~.~.",
"~.~.~.~.~.~.~.~.~.~.~.~.~.~././.~.~.~.~./.!././.Q././.Q.~.~.~.~.~.~.~.~.~.~.~.~.~.~.~.~.~.~.~.~.~.~.~.~.~.~.~.",
"~.~.~.~.~.~.~.~.~.~.~.~.~.~.E./.~.~.~.~./.L.P.I.L.!.Q./.~.~.~.~.~.~.~.~.~.~.~.~.~.~.~.~.~.~.~.~.~.~.~.~.~.~.~.",
"~.~.~.~.~.~.~.~.~.~.~.~./.E././.~.~.~.Q.U.,X,X;X%XV.Y./.~.~.~.~.~.~.~.~.~.~.~.~.~.~.~.~.~.~.~.~.~.~.~.~.~.~.~.",
"~.~.~.~.~.~.~.~.~.~.~.~./.E./.Q.~.~./.F.,X1X1X:X:XXXn./.~.~.~.~.~.~.~.~.~.~.~.~.~.~.~.~.~.~.~.~.~.~.~.~.~.~.~.",
"~.!.~.~.~.~.~.~.~.~.~.~./././.E.~.~.~.U.-X:X:X}.&XXXl./././.~.~.~.~.~.~.~.~.~.~.~.~.~.~.~.~.~.~.~.~.~.~.~.~.~.",
"~.~.~.~.~.~.~.~.~.~.~.~./.E././.~.~.~.m.XX#X! 1.1.,.c.n.n.L./.~.~.~.~.~.~.~.~.~.~.~.~.~.~.~.~.~.~.~.~.~.~.~.~.",
"~.~.~.~.~.~.~.~././.E.E././.Q././.E./.z.D {.S 7.9.g e +.+.[ i.Z.~.~.~.~.~.~.~.~.~.~.~.~.~.~.~.~.~.~.~.~.~.~.~.",
"~.~.~.~.~.~.~.~./.E./././.Q./././././.H.l.{.XX9.T q f o.l l K ( d.Z.S.~.~.~.~.~.~.~.~.~.~.~.~.~.~.~.~.~.~.~.~.",
"~.~.~.~.~.~.~.~./././.E././.Q.E.E./././.V.XX{.y g R $.o.l * * x +.s.D.^.~.~.~.~.~.~.~.~.~.~.~.~.~.~.~.~.~.~.~.",
"~.~.~.~.~.~.~.~.E./././.E./././././././.E.{ I S W Y d  .` U U } a.c.F.I.F.H.Q.~.~.~.~.~.~.~.~.~.~.~.~.~.~.~.~.",
"~.~.~.~.~.~.~.~./.Q././.E./.E./.E.E././.K.[ 6.0.T 3.D W o.o.d C j.'.OX$X].f.l.n.R.~.~.~.~.~.~.~.~.~.~.~.~.~.~.",
"~.~.~.~.~.~.~.~./.E./.E././././././.E./.z./ z y D  X). .o.X.d ;.@X>X<X<X#Xf.@./ c.Q.~.~.~.~.~.~.~.~.~.~.~.~.~.",
"~.~.~.~.~.~.~.~./././.E./.E./.E./.E././.i.K ; F ! {.XXO.! W E (.|.*X*X$Xh.@.` c Z v.~.~.~.~.~.~.~.~.~.~.~.~.~.",
"~.~.~.~.~.~.~.~./.E././././.Q././././.Q.i.I U | D 9.XX9.). .T #X|.j._.h.a.` L c > [ ~.~.~.~.~.~.~.~.~.~.~.~.~.",
"~.~.~.~.~.~.~.~.~.~.~.~.~.~.~.~.~.~.~.v.s.a.c.9.y 3.D g 4.3.g  X).@.j.f.a.L c - r ^ Q.~.~.~.~.~.~.~.~.~.~.~.~.",
"~.~.~.~.~.!.~.~.~.~.~.~.~.~.~.~.~.~.~.D.C.K.R.'.q g t @ g C 0 g |.j.` U L x r z j r.~.~.~.~.~.~.~.~.~.~.~.~.~.",
"Q./.E.L././.!./.~.~.~.~.~.~.~.~.~.~.~.~.^.^.E.oXu X # 0 w ..X W Q f.f.` H c c : N Y.~.~.~.~.~.~.~.~.~.~.~.~.~.",
"/./.K._ c.J.Q.!.~.~.~.~.~.~.~.~.~.~.~.~.^.!.I.).0 # 7.0...3.W 3.5 O r v b c G u.Y.~.~.~.~.~.~.~.~.~.~.~.~.~.~.",
"/.Q./.v.9. XM.B.L.Q.^.^.~./.!./.~.~.~.!.b.Z.oXW X 0 1.! S S 9.3.8 . X w f Y H.^.~.~.~.~.~.~.~.~.~.~.~.~.~.~.~.",
"Q././.Q.F.@X=X&X.X+XU.L.E././.!.~.^.!.D.c Y R + . O T T e g 1.3. .5 o o a %.y.~.~.~.~.~.~.~.~.~.~.~.~.~.~.~.~.",
"/./.Q././.H.M.XX=X=X=X.XOXm.V.T.~.~.B k f -.f   . O W ,.X.3.X.1.4.1 , o 3 &.%.d.~.~.~.~.~.~.~.~.~.~.~.~.~.~.~.",
"Q././.Q./.Q./.D.N.'.oXoX_.k.8.).s.c.; & -.=.~   O 1..Xg $ $ $ 1.8.2 1 , , a &.=.G.~.~.~.~.~.~.~.~.~.~.~.~.~.~.",
"~.~.~.~.~.~.~.~.^.E.Q.Q.E.D.N.a.5.c & d p i q.# 1.[.w , 1 , , Q g.< < < o 6 &.&.a.R.~.~.~.~.~.~.~.~.~.~.~.~.~.",
"~.~.~.~.~.~.~.~.~.~.~.~.^.^.^.^.G.h + d s e > 8.8.7 , < 2 2 1 R 8.< < 2 + 5 a >.-.Z.~.~.~.~.~.~.~.~.~.~.~.~.~.",
"~.~.~.~.~.~.~.~.~.~.~.~.~.~.^.^.Y.h h K Y Y {.4.9 o o 2 2 2 2 R [.9 9 2 * % 3 :.>.a.!.~.~.~.~.~.~.~.~.~.~.~.~.",
"~.~.~.~.~.~.~.~.~.~.~.~.~.~.~.^.~.Z.z.| E 6.).9 2 = & 3 3 2 2 ,.}.9 9 9 - l < $.>.' Y.~.~.~.~.~.~.~.~.~.~.~.~.",
"~.~.Q.~.~.~.~.~.~.~.~.~.~.~.~.~.~.^.v.Q A I w 2 3 m l 9 5 5 u 6.2.7 7 2 z u.5 p =.x K.~.~.~.~.~.~.~.~.~.~.~.~.",
"~.~.~.~.~.~.~.~.~.~.~.~.~.~.~.~.~.~.C.' Y l y 4 3 G r.5 M B S ].5.Y & # z G.q.e.;.u.!.~.~.~.~.~.~.~.~.~.~.~.~.",
"~.~.~.~.~.~.~.~.~.~.~.~.~.~.~.~.~.~.!.{ A l y # 4 l G.> ] R.e.S E <.K h N W.^.A.;.d.~.~.~.~.~.~.~.~.~.~.~.~.~.",
"~.~.~.~.~.~.~.~.~.~.~.~.~.~.~.~.~.~.~.u.L x * ; > t.~.z.q.~.K.~ r v K s.t.K.^.D.;.A.~.~.~.~.~.~.~.~.~.~.~.~.~.",
"~.~.~.~.~.~.~.~.~.~.~.~.~.~.~.~.~.~.^.d.H x l q.K.!./.!.!./.~.H.) l - L ` w.K.K.e.Q./.!.~.~.~.~.~.~.~.~.~.~.~.",
"~.~.~.~.~.~.~.~.~.~.~.~.~.~.~.~.~.~.^.v.| F L q./.!.!./.~.!.~.~.Q.x.G x / | [ S.R.~.!./.~.~.~.~.~.~.~.~.~.~.~.",
"~.~.~.~.~.~.~.~.~.~.~.~.~.~.~.~.~.~.!.d.+.| | _ E./.~.~.~.~.~.~.~.^.G.r.} U H u.^.~.!./.~.~.~.~.~.~.~.~.~.~.~.",
"~.~.~.~.~.~.~.~.~.~.~.~.~.~.~.~.~.T.p.F l : c ^ T.~.~.!.~.~.~.~.~.~.~.Y.e.> z ] Q.~.^.!.~.~.~.~.~.~.~.~.~.~.~.",
"~.~.~.~.~.~.~.~.~.~.~.~.~.~.~.~.!.e.C * = = l ^ Y.^.!./.~./.~./.!./.!./.D.F J m H./.Q./.~.~.~.~.~.~.~.~.~.~.~.",
"~.~.~.~.~.~.~.~.~.~.~.~.~.~.~.~.R.V l k m q.Z.G.^.~./.!.!.Q.^.Q./.!./.!.K.m n ~ D.~./.!.~.~.~.~.~.~.~.~.~.~.~.",
"~.~.~.~.~.~.~.~.~.~.~.~.~.~.~.~./.T.D.C.K.!.^.^.~.~.~.~.~.~.~.^.!.^././.!.v.v.K.Q.~.~.~.~.~.^.~.~.~.~.~.~.~.~."
};
