/* XPM */
static char *enemy_17[] = {
/* columns rows colors chars-per-pixel */
"55 55 203 2 ",
"   c #350905",
".  c #340906",
"X  c #3B0C07",
"o  c #3C0E09",
"O  c #39100D",
"+  c #2E1414",
"@  c #3B1714",
"#  c #3E261F",
"$  c #2D1C21",
"%  c #3C1F20",
"&  c #352425",
"*  c #3C2729",
"=  c #242D34",
"-  c #382E36",
";  c #353238",
":  c #3D323A",
">  c #400C07",
",  c #430E0A",
"<  c #4C0F0C",
"1  c #46110C",
"2  c #4B120E",
"3  c #50140F",
"4  c #431411",
"5  c #4B1510",
"6  c #4A1916",
"7  c #411C1C",
"8  c #501510",
"9  c #591A17",
"0  c #681D1A",
"q  c #45211D",
"w  c #462726",
"e  c #572B28",
"r  c #5A2B29",
"t  c #412B30",
"y  c #4C3433",
"u  c #463739",
"i  c #593834",
"p  c #782522",
"a  c #643736",
"s  c #7B3435",
"d  c #5A423E",
"f  c #2E3745",
"g  c #3B3A44",
"h  c #433B44",
"j  c #4B3C46",
"k  c #463B49",
"l  c #4C3E4A",
"z  c #344556",
"x  c #374C60",
"c  c #3D5264",
"v  c #3A5C74",
"b  c #3D6178",
"n  c #474148",
"m  c #43424C",
"M  c #5D4B46",
"N  c #55484B",
"B  c #5F554F",
"V  c #474854",
"C  c #534553",
"Z  c #574951",
"A  c #544C5A",
"S  c #5B4B59",
"D  c #50515A",
"F  c #66464B",
"G  c #644C4A",
"H  c #6E4B4A",
"J  c #754C4A",
"K  c #65534E",
"L  c #77524D",
"P  c #685757",
"I  c #765B57",
"U  c #6D605C",
"Y  c #78635E",
"T  c #495768",
"R  c #575A66",
"E  c #51566B",
"W  c #425D75",
"Q  c #625363",
"!  c #645B66",
"~  c #695C63",
"^  c #6B596D",
"/  c #765C67",
"(  c #6C5D71",
")  c #5F6068",
"_  c #4C6479",
"`  c #566578",
"'  c #6A6469",
"]  c #746462",
"[  c #7B6964",
"{  c #776A6E",
"}  c #7A6C6C",
"|  c #6E6470",
" . c #636975",
".. c #756375",
"X. c #737479",
"o. c #8C2825",
"O. c #992C29",
"+. c #913937",
"@. c #A3312F",
"#. c #A93937",
"$. c #863E42",
"%. c #934543",
"&. c #844D51",
"*. c #82595C",
"=. c #A74645",
"-. c #B14845",
";. c #B85250",
":. c #83655F",
">. c #875D66",
",. c #866564",
"<. c #856D69",
"1. c #90696F",
"2. c #85726C",
"3. c #8C746E",
"4. c #877776",
"5. c #977B77",
"6. c #97827A",
"7. c #9B837C",
"8. c #A2887F",
"9. c #3C6987",
"0. c #3C6F8F",
"q. c #3F7090",
"w. c #436885",
"e. c #586881",
"r. c #517085",
"t. c #55748B",
"y. c #457595",
"u. c #4C7794",
"i. c #467A9C",
"p. c #5A7794",
"a. c #636B83",
"s. c #65788A",
"d. c #767A88",
"f. c #487EA0",
"g. c #816B83",
"h. c #89768A",
"j. c #927C98",
"k. c #79838C",
"l. c #6A8495",
"z. c #4A84A7",
"x. c #4585AC",
"c. c #4A85AB",
"v. c #5A8CAD",
"b. c #468BB4",
"n. c #4C8EB6",
"m. c #508DB3",
"M. c #4791BC",
"N. c #4B91BB",
"B. c #5C95B9",
"V. c #7599AF",
"C. c #6797B7",
"Z. c #78A0B6",
"A. c #4E96C2",
"S. c #4D99C6",
"D. c #539BC6",
"F. c #559AC5",
"G. c #549DCA",
"H. c #4FA0CF",
"J. c #53A0CF",
"K. c #5CA4CE",
"L. c #4EA4D5",
"P. c #53A3D3",
"I. c #57A7D7",
"U. c #54A9DB",
"Y. c #5AACDC",
"T. c #60A5CD",
"R. c #55AEE2",
"E. c #56B1E6",
"W. c #58B2E6",
"Q. c #57B3E9",
"!. c #58B5EC",
"~. c #59B8EF",
"^. c #5CBCF4",
"/. c #5CBFF8",
"(. c #5DC0F9",
"). c #868689",
"_. c #978886",
"`. c #8E8D91",
"'. c #968494",
"]. c #9B839B",
"[. c #9B9395",
"{. c #A68785",
"}. c #A7918A",
"|. c #AB948C",
" X c #A49696",
".X c #B39B93",
"XX c #BDA399",
"oX c #889CA9",
"OX c #A997A6",
"+X c #98AFBA",
"@X c #B3A7AC",
"#X c #AFA3B1",
"$X c #B9B7B5",
"%X c #C4A89E",
"&X c #D1B5AA",
"*X c #C4B5BE",
"=X c #E8CBBF",
"-X c #CDC6C6",
";X c #D4C9C8",
":X c #D9CED1",
">X c #E8CEC2",
",X c #EED5C9",
"<X c #F2DED1",
/* pixels */
"^.^.^.^.^.^.^.^.^.^.^.^.^.^.^.^.^.^.^.^.^.^.^.^.^.^.^.^.^.^.^.^.^.^.^.^.^.^.^.^.^.^.^.^.^.^.^.^.^.^.^.^.^.^.^.",
"^.^.^.^.^.^.^.^.^.~.^.^.^.^.^.^.^.^.^.^.^.^.^.^.^.^.^.^.^.^.^.^.^.^.^.^.^.^.^.^.^.^.^.^.^.^.^.^.^.^.^.^.^.^.^.",
"^.^.^.^.^.^.^.^.^.^.^.^.^.^.^.^.^.^.^.^.^.^.^.^.^.^.^.^.^.^.^.^.^.^.^.^.^.^.^.^.^.^.^.^.^.^.^.^.^.^.^.^.^.^.^.",
"^.^.^.^.^.^.^.^.^.^.^.^.^.^.^.^.^.^.^.^.^.^.^.^.^.^.^.^.^.^.^.^.^.^.^.^.^.^.^.^.^.^.^.^.^.^.^.^.^.^.^.^.^.^.^.",
"^.^.^.^.^.^.^.^.^.^.^.^.^.^.^.^.^.^.^.^.^.^.^.^.^.^.^.^.^.^.^.^.^.^.^.^.^.^.^.^.^.^.^.^.^.^.^.^.^.^.^.^.^.^.^.",
"^.^.^.^.^.^.^.^.^.^.^.^.^.^.^.^.^.^.^.^.^.^.^.^.^.^.^.^.^.^.^.^.^.^.^.^.^.^.^.^.^.^.^.^.^.^.^.^.^.^.^.^.^.^.^.",
"^.^.^.^.^.^.^.^.^.^.^.^.^.^.^.^.^.^.^.^.^.^.^.^.^.^.^.^.^.^.^.^.^.^.^.^.^.^.^.^.^.^.^.^.^.^.^.^.^.^.^.^.~.^.^.",
"^.^.^.^.^.^.^.^.^.^.^.^.^.^.^.^.^.^.^.^.^.^.^.^.^.^.~.^.^.^.^.^.^.^.^.^.^.^.^.^.^.^.^.^.^.^.^.^.^.^.^.^.^.^.^.",
"^.^.^.^.^.^.^.^.^.^.^.^.^.^.^.^.^.^.^.^.^.^.^.^.^.^.^.^.^.^.^.^.^.^.^.^.^.^.^.^.^.^.^.^.^.^.^.^.^.^.^.^.^.^.^.",
"^.^.^.^.^.^.^.^.^.^.^.^.^.^.^.^.^.^.^.^.^.^.^.^.^.^.^.^.^.^.^.^.^.^.^.^.^.^.^.^.^.^.^.^.^.^.^.^.^.^.^.^.^.^.^.",
"^.^.^.^.^.^.^.^.^.^.^.^.^.^.^.^.^.^.^.^.^.^.^.^.^.^.^.^.^.^.^.^.^.^.^.^.^.^.^.^.^.^.^.^.^.^.^.^.^.^.^.^.^.^.^.",
"^.^.^.^.^.^.^.^.^.^.^.^.^.^.^.^.^.^.^.^.^.^.^.^.^.^.^.^.^.^.^.^.^.^.^.^.^.^.^.^.^.^.^.^.^.^.^.^.^.^.^.^.^.^.^.",
"^.^.^.^.^.^.^.^.^.^.^.^.^.^.^.^.^.^.^.^.^.^.^.^.^.^.^.^.^.^.^.^.^.^.^.^.^.^.^.^.^.^.^.^.^.^.^.^.^.^.^.^.^.^.^.",
"^.^.^.^.^.^.^.^.^.^.^.^.^.^.^.^.^.^.^.^.^.^.^.^.^.^.^.^.^.^.^.^.^.^.^.^.^.^.^.^.^.^.^.^.^.^.^.^.^.^.^.^.^.^.^.",
"^.^.^.^.^.^.^.^.^.^.^.^.^.^.^.^.^.^.^.^.^.^.^.^.^.^.^.^.^.^.^.^.^.^.^.^.^.^.^.^.^.^.^.^.^.^.^.^.^.^.^.^.^.^.^.",
"^.^.^.^.^.^.^.^.^.^.^.^.^.^.^.^.^.^.^.^.^.^.^.^.^.^.^.^.^.^.^.^.^.^.^.^.^.^.^.^.^.^.^.^.^.^.^.^.^.^.^.^.^.^.^.",
"^.^.^.^.^.^.^.^.^.^.^.^.^.^.^.^.^.^.^.^.(.W.K.K.Y.(.(.~.(.~.(.~.^.^.^.^.^.^.^.^.^.^.^.^.^.^.^.^.^.^.^.^.^.^.^.",
"^.^.^.^.^.^.^.^.^.^.^.^.^.^.^.^.^.^.^.^.I.+X-X-X$XZ.R.(.~.(.~.(.^.^.^.^.^.^.^.^.^.^.^.^.^.^.^.^.^.^.^.^.^.^.^.",
"^.^.^.^.^.^.^.^.^.^.^.^.^.^.^.^.^.^.^.!.+X<X<X>X=X&XV.(.~.(.(.(.^.^.^.^.^.^.^.^.^.^.^.^.^.^.^.^.^.^.^.^.^.^.^.",
"^.^.^.^.^.^.^.^.^.^.^.^.^.^.^.^.^.^.^.Y.$X,X=XXX%X&X).Y.(.~.(.!.^.^.^.^.^.^.^.^.^.^.^.^.^.^.^.^.^.^.^.^.^.^.^.",
"^.^.^.^.^.^.^.^.^.^.^.^.^.^.^.^.^.^.^.F. X&X6.[ <.3.X.E.(.~.^.^.^.^.^.^.^.^.^.^.^.^.^.^.^.^.^.^.^.^.^.^.^.^.!.",
"^.^.^.^.^.^.^.^.^.^.^.^.^.^.^.^.^.^./.P.D _.B B }.G t.~.~.~.^.^.^.^.^.^.^.^.^.^.^.^.^.^.^.^.^.^.^.^.^.^.^.^.^.",
"^.^.^.^.^.^.^.^.^.^.^.^.^.^.^./.^./.^.!.k.7.%X|.[ _ U.Q.^.(.^.^.^.^.^.^.^.^.^.^.^.^.^.^.^.^.^.^.^.^.^.^.^.^.^.",
"^.^.^.^.^.^.^.^.^.^.^.^././.~.U.Y.G.S.^.K.|..XM M ) r.k.Z.T.~.^.^.^.^.^.^.^.^.^.^.^.^.^.^.^.^.^.^.^.^.^.^.^.^.",
"^.^.^.^.^.^.~.^.^.^.^.^.I.S.` H F ; f R.!.s.U I K } OX'.@X#XB.~.^.~.^.^.^.^.^.^.^.^.^.^.^.^.^.^.^.^.^.^.^.^.^.",
"^.^.^.^.^.^.^.^.^.^.^.U.` k w r a & = f.z. .5.H U @X*XOXh.'.).u.v.c.^.^.^.^.^.^.^.^.^.^.^.^.^.^.^.^.^.^.^.^.^.",
"^.^.^.^.^.^.^.^.^.^.^.^.D.z.Z s r & u >.1.,.&.i ).-X;XOXj...]...k.F.(.~.^.^.^.^.^.^.^.^.^.^.^.^.^.^.^.^.^.^.^.",
"^.^.^.^.^.^.^.^.^.^.^.^.^./.p.%.$.w w.C.d.5.{.{.@X:X*X].j.^ g.( m.~.^.(.^.^.^.^.^.^.^.^.^.^.^.^.^.^.^.^.^.^.^.",
"^.^.^.^.^.^.^.^.^.^.^.^.^./.J.L %.y M.~.C.).' } OX#Xj.g.g.Q ~ Q v.~.(.~.^.^.^.^.^.^.^.^.^.^.^.^.^.^.^.^.^.^.^.",
"^.^.^.^.^.^.^.^.^.^.^.^.^.^.~._ Q 4.Z.oX`.p.D ' h.g.d.....l S P ' y.~.(.^.^.^.^.^.^.^.^.^.^.^.^.^.^.^.^.^.^.^.",
"^.^.^.^.^.^.^.^.^.^.^.^.^.^.^.!.E.l.|.k.D.L.V { 1.^ ^ Q l h S ~ k.z.W.^.^.^.^.^.^.^.^.^.^.^.^.^.^.^.^.^.^.^.^.",
"^.^.^.^.^.^.^.^.^.^.^.^.^.^.^.^.^.Y.B.U./.M.* 4.S l l l u k l <._.B.^.^.^.^.^.^.^.^.^.^.^.^.^.^.^.^.^.^.^.^.^.",
"^.^.^.^.^.^.^.^.^.^.^.^.^.^.^.^.^.^.(.^.(.9.O y * j - - : : q +.4.Y./.^.^.^.^.^.^.^.^.^.^.^.^.^.^.^.^.^.^.^.^.",
"^.^.^.^.^.^.^.^.^.^.^.^.^.^.^.^.^.^.~.^.W.f   O # * j : ; # O p s F.^.^.^.^.^.^.^.^.^.^.^.^.^.^.^.^.^.^.^.^.^.",
"^.^.^.^.^.^.^.^.^.^.^.^.^.^.^.^.~.^.(.(.n.+ O <.|.[ Y y G G   9 O.` ^.^.^.^.^.^.^.^.^.^.^.^.^.^.^.^.^.^.^.^.^.",
"^.^.^.^.^.^.^.^.^.^.^.^.^.^.^.^.(.~.(.~.z   q 2.Y P P 2.3.w   o o.s D./.^.^.^.^.^.^.^.^.^.^.^.^.^.^.^.^.^.^.^.",
"^.^.^.^.^.^.^.^.^.^.^.^.^.^.^.^.(.~.^.N.+ X @ I B t u Y 3.d o   0 O.` /.^.^.^.^.^.^.~.^.^.^.^.^.^.^.^.^.^.^.^.",
"^.^.^.^.^.^.^.^.^.^.^.^.^.^.^.^.~.(.~.x X , o G Y [ Y 6.[ 2.4 X < O.$.P./.^.^.^.^.^.^.^.^.^.^.^.^.^.^.^.^.^.^.",
"^.^.^.^.^.^.^.^.^.^.^.^.^.^.^.^.~.(.b.@ 1 , H .Xd y d d 6.:.X > X p @.e.^.^.^.^.^.^.^.^.^.^.^.^.^.^.^.^.^.^.^.",
"^.^.^.^.^.^.^.^.^.^.^.^.^.^.^.^.(.W.z , , i |.H 1 , o o 6.I > 1 , 9 @.$.G./.^.^.^.^.^.^.^.^.^.^.^.^.^.^.^.^.^.",
"^.^.^.^.^.^.^.^.^.^.^.^.^.^.^.^.^.x.& 2 e {.L 1 < < 2 1 5.I , , 2 2 +.#.a.^.^.^.^.^.^.^.^.^.^.^.^.^.^.^.^.^.^.",
"^.^.^.^.^.^.^.^.^.^.^.^.^.^.^.^.R._ H r }.X.4 2 5 5 2 5 8.L < 2   4 p -.&.I.^.^.^.^.^.^.^.^.^.^.^.^.^.^.^.^.^.",
"^.^.^.^.^.^.^.^.^.^.^.^.^.^.^.^.z.~ ] 8.).9.4 5 5 8 5 6 |.J < 2 $ 4 9 -.=.v.^.^.^.^.^.^.^.^.^.^.^.^.^.^.^.^.^.",
"^.^.^.^.^.^.^.^.^.^.^.^.^.^.^.W.T I ~ _.r.q.5 6 7 8 9 r .Xa < 2 f % 8 =.-.a.^.^.^.^.^.^.^.^.^.^.^.^.^.^.^.^.^.",
"^.^.^.^.^.^.^.^.^.^.^.^.^.^.^.c.u *.j N i.M.@ c 9.1 5 { [.F 5 2 x t 6 $.;./ ^.^.^.^.^.^.^.^.^.^.^.^.^.^.^.^.^.",
"^.^.^.^.^.^.^.^.^.^.^.^.^.^.~.T # *.t n u.H.* f.U.b c R d.1.F * c.k 8 $.$./ !.^.^.^.^.^.^.^.^.^.^.^.^.^.^.^.^.",
"^.^.^.^.^.^.^.^.^.^.^.^.^.^.Q.b w.Q k k b Q.z.P././.~._ y F I g G.w.T &.F w.~.^.^.^.^.^.^.^.^.^.^.^.^.^.^.^.^.",
"^.^.^.^.^.^.^.^.^.^.^.^.^.^.~.Q.P.T C ; 0.^./.^.^.^./.P.V u l ' s.c.R.>.( R.^.^.^.^.^.^.^.^.^.^.^.^.^.^.^.^.^.",
"^.^.^.^.^.^.^.^.^.^.^.^.^.^.^./.U.T n h v ~././.^.^.^./.J.W g h Q E b.*.a.^.^.^.^.^.^.^.^.^.^.^.^.^.^.^.^.^.^.",
"^.^.^.^.^.^.^.^.^.^.^.^.^.^.^./.I. .A A T Q.^.^.^.^.^.^.^.W.u.V A  .R D Y.^.^.^.^.^.^.^.^.^.^.^.^.^.^.^.^.^.^.",
"^.^.^.^.^.^.^.^.^.^.^.^.^.^.^.W.f.R | | T U.^.^.^.^.^.^.^.^.^.c.! ! D _ ^.^.^.^.^.^.^.^.^.^.^.^.^.^.^.^.^.^.^.",
"^.^.^.^.^.^.^.^.^.^.^.^.^.^.D.` k h ; n D P./.^.^.^.^.^.^.^.^.~.i.: h W !.^.^.^.^.^.^.^.^.^.^.^.^.^.^.^.^.^.^.",
"^.^.^.^.^.^.^.^.^.^.^.^.^.R.T h - = ; g c E.^.^.^.^.^.^.^.^.^.(.F.z D T R.^.^.^.^.^.^.^.^.^.^.^.^.^.^.^.^.^.^.",
"^.^.^.^.^.^.^.^.^.^.^.^.^.Q.y.c z c i.A.L.^.^.^.^.~.^.^.^.^.^.(.A.m g V P.^.^.^.^.^.^.^.^.^.^.^.^.^.^.^.^.^.^.",
"^.^.^.^.^.^.^.^.^.^.^.^.^./.^.!.R.!.(.^.^.^.^.^.~.(.^.^.^.^.^.^.W.n.n.D.^.^.^.^.^.^.^.^.^.^.^.^.^.^.^.^.^.^.^."
};
