/* XPM */
static char *enemy_10[] = {
/* columns rows colors chars-per-pixel */
"55 55 218 2 ",
"   c #340A07",
".  c #3B0C07",
"X  c #350D0A",
"o  c #3B0D08",
"O  c #3C110E",
"+  c #2A1F1F",
"@  c #3E1211",
"#  c #361817",
"$  c #39221E",
"%  c #3A2829",
"&  c #2A2C32",
"*  c #362E37",
"=  c #373337",
"-  c #3B333B",
";  c #430F0A",
":  c #490F0C",
">  c #44110C",
",  c #4B110E",
"<  c #51140E",
"1  c #4C1510",
"2  c #431916",
"3  c #451A18",
"4  c #521411",
"5  c #591916",
"6  c #40221F",
"7  c #4B221C",
"8  c #51211D",
"9  c #76211F",
"0  c #452B2A",
"q  c #592A2A",
"w  c #4B322E",
"e  c #483637",
"r  c #563737",
"t  c #6A2826",
"y  c #7C2523",
"u  c #66302F",
"i  c #673534",
"p  c #733B3D",
"a  c #58423E",
"s  c #3F3742",
"d  c #3D3A44",
"f  c #353E4C",
"g  c #433641",
"h  c #433A42",
"j  c #483C49",
"k  c #4C3E50",
"l  c #733E44",
"z  c #33414F",
"x  c #3D424C",
"c  c #3B4958",
"v  c #384F63",
"b  c #3A576B",
"n  c #385B72",
"m  c #3A637E",
"M  c #4B4045",
"N  c #45424C",
"B  c #4C424B",
"V  c #554642",
"C  c #5B4B47",
"Z  c #5C4B4A",
"A  c #4D4452",
"S  c #494B57",
"D  c #544654",
"F  c #524955",
"G  c #574C5B",
"H  c #4F5358",
"J  c #5B5055",
"K  c #5C535C",
"L  c #674845",
"P  c #634D4B",
"I  c #754649",
"U  c #65524E",
"Y  c #794E52",
"T  c #6C5553",
"R  c #665759",
"E  c #6C5E5B",
"W  c #7B5759",
"Q  c #6E615D",
"!  c #75635D",
"~  c #425265",
"^  c #46586A",
"/  c #42596C",
"(  c #5A5562",
")  c #5E5C64",
"_  c #565B6A",
"`  c #5E5D73",
"'  c #635163",
"]  c #675B67",
"[  c #6F5D72",
"{  c #586167",
"}  c #45637B",
"|  c #536476",
" . c #6A6369",
".. c #7C6363",
"X. c #7A6B65",
"o. c #736A69",
"O. c #626676",
"+. c #786679",
"@. c #747376",
"#. c #7A7375",
"$. c #872927",
"%. c #972B27",
"&. c #813232",
"*. c #963636",
"=. c #A0302D",
"-. c #A63936",
";. c #8E413F",
":. c #864747",
">. c #974847",
",. c #8D5558",
"<. c #A74645",
"1. c #B44947",
"2. c #AE504E",
"3. c #83615D",
"4. c #886861",
"5. c #846E68",
"6. c #85736D",
"7. c #8A746D",
"8. c #847977",
"9. c #8C7B75",
"0. c #947B78",
"q. c #8F807A",
"w. c #96827A",
"e. c #3E6C89",
"r. c #3F7090",
"t. c #466983",
"y. c #4B6B82",
"u. c #426B88",
"i. c #49718D",
"p. c #59728A",
"a. c #467899",
"s. c #567793",
"d. c #647988",
"f. c #787B87",
"g. c #6A7A91",
"h. c #467EA1",
"j. c #8E7586",
"k. c #8B768C",
"l. c #957E99",
"z. c #A37E83",
"x. c #58839C",
"c. c #74818B",
"v. c #638298",
"b. c #778795",
"n. c #4D82A3",
"m. c #4584AA",
"M. c #4987AD",
"N. c #5282A3",
"B. c #538AAE",
"V. c #5C8BAD",
"C. c #548CB3",
"Z. c #568FB6",
"A. c #4D92BC",
"S. c #5395BD",
"D. c #5A96BA",
"F. c #648EAC",
"G. c #6A96B4",
"H. c #639BBE",
"J. c #76A4BE",
"K. c #4A94C0",
"L. c #4F99C5",
"P. c #4E9CCA",
"I. c #569CC6",
"U. c #639DC1",
"Y. c #54A1CE",
"T. c #58A2CE",
"R. c #52A4D4",
"E. c #57A6D5",
"W. c #55AADC",
"Q. c #5AACDC",
"!. c #67A3C7",
"~. c #79A7C3",
"^. c #61ABD8",
"/. c #56AEE2",
"(. c #5AAEE0",
"). c #57B1E5",
"_. c #5AB2E6",
"`. c #57B3E9",
"'. c #59B5EB",
"]. c #59B8EF",
"[. c #5CBCF4",
"{. c #5DBFF8",
"}. c #8B8689",
"|. c #948787",
" X c #9D8A82",
".X c #9E918D",
"XX c #838D9A",
"oX c #9A8797",
"OX c #86919C",
"+X c #9A9397",
"@X c #A68C84",
"#X c #A7948B",
"$X c #AB958D",
"%X c #B18F93",
"&X c #A79693",
"*X c #B59C94",
"=X c #BF999C",
"-X c #AEA29D",
";X c #BAA39C",
":X c #9F88A2",
">X c #979AA5",
",X c #A599A1",
"<X c #86A0B1",
"1X c #9AAAB4",
"2X c #A7A3A4",
"3X c #B3A1A8",
"4X c #B8A6B4",
"5X c #A1B1B8",
"6X c #B6BDBD",
"7X c #C9ABA6",
"8X c #D3ACAA",
"9X c #CEB3A9",
"0X c #D1B6AB",
"qX c #C8B8BA",
"wX c #DCB8B2",
"eX c #D4C8CC",
"rX c #EBD3C7",
"tX c #F4DFD2",
/* pixels */
"[.[.[.[.[.[.[.[.[.[.[.[.[.[.[.[.[.[.[.[.[.[.[.[.[.[.[.[.[.[.[.[.[.[.[.[.[.[.[.[.[.[.[.[.[.[.[.[.[.[.[.[.[.[.[.",
"[.[.[.[.[.[.[.[.[.[.[.[.[.[.[.[.[.[.[.[.[.[.[.[.[.[.[.[.[.[.[.[.[.[.[.[.[.[.[.[.[.[.[.[.[.[.[.[.[.[.[.[.[.[.[.",
"[.[.[.[.[.[.[.[.[.[.[.[.[.[.[.[.[.[.[.[.[.[.[.[.[.[.[.[.[.[.[.[.[.[.[.[.[.[.[.[.[.[.[.[.[.[.[.[.[.[.[.[.[.[.[.",
"[.[.[.[.[.[.[.[.[.[.[.[.[.[.[.[.[.[.[.[.[.[.[.[.[.[.[.[.[.[.[.[.[.[.[.[.[.[.[.[.[.[.[.[.[.[.[.[.[.[.[.[.[.[.[.",
"[.[.[.[.[.[.[.[.[.[.[.[.[.[.[.[.[.[.[.[.[.[.[.[.[.[.[.[.[.[.[.[.[.[.[.[.[.[.[.[.[.[.[.[.[.[.[.[.].[.[.[.[.[.[.",
"[.[.[.[.[.[.[.[.[.].[.[.[.[.[.[.[.[.[.[.[.[.[.[.[.[.[.[.[.[.[.[.[.[.[.[.[.[.[.[.[.[.[.[.[.[.[.[.[.[.[.[.[.[.[.",
"[.[.[.[.[.[.[.[.[.[.[.[.[.[.[.[.[.].[.[.[.[.[.[.[.[.[.[.[.[.[.[.[.[.[.[.[.[.[.[.[.[.].[.[.[.[.[.[.[.[.[.[.[.[.",
"[.[.[.[.[.[.[.[.[.[.[.[.[.[.[.[.[.[.[.[.[.[.[.[.[.[.[.[.[.[.[.[.[.[.[.[.[.[.[.[.[.[.[.[.[.[.[.[.[.[.[.[.[.[.[.",
"[.[.[.[.[.[.[.[.[.[.[.[.[.[.[.[.[.[.[.[.[.[.[.[.[.[.[.[.[.[.[.[.[.[.[.[.[.[.].[.[.[.[.[.[.[.[.[.[.[.[.[.[.[.[.",
"[.[.[.[.[.[.[.[.[.[.[.[.[.[.[.[.[.[.[.[.[.[.[.[.[.[.[.[.[.[.[.[.[.[.[.[.[.[.[.[.[.[.[.].[.[.[.[.[.[.[.[.[.[.[.",
"[.[.[.[.[.[.[.[.[.[.[.[.[.[.[.[.[.[.[.[.[.[.[.[.[.[.[.[.[.[.[.[.[.[.[.[.[.[.[.[.[.[.[.[.[.[.[.[.[.[.[.[.[.[.[.",
"[.[.[.[.[.[.[.[.[.[.[.[.[.[.[.[.[.[.[.[.[.[.[.[.[.[.[.[.[.[.[.[.[.[.[.[.[.[.[.[.[.[.[.[.[.[.[.[.[.[.[.[.[.[.[.",
"[.[.[.[.[.[.[.[.[.[.[.[.[.[.[.[.[.[.[.[.[.[.[.[.[.[.[.[.[.[.[.[.[.[.[.[.[.[.[.[.[.[.[.[.[.[.[.[.[.[.[.[.[.[.[.",
"[.[.[.[.].[.[.[.[.[.[.[.[.[.[.[.[.[.[.[.[.[.[.[.[.[.[.].[.[.[.[.[.[.[.[.[.[.[.[.[.[.[.[.[.[.[.[.[.[.[.[.[.[.[.",
"[.[.[.[.m.P.[.[.[.[.[.[.[.[.[.[.[.[.[.[.[.[.[.[.[.[.[.[.[.[.[.[.[.[.[.[.[.[.[.[.[.[.[.[.[.[.[.[.[.[.[.[.[.[.[.",
"[.[.[._.| S.{.[.[.[.[.[.[.[.[.[.[.[.[.[.[.[.[.[.[.[.[.[.[.[.[.[.[.[.[.[.[.[.[.[.[.[.[.[.[.[.[.[.[.[.[.[.[.[.[.",
"[.[.{.T.|.D.[.[.[.[.[.[.[.[.[.[.[.[.[.[.[.[.[.[.[.[.[.[.[.[.[.[.].{.[.[.[.[.[.[.[.[.[.[.[.[.[.[.[.[.[.[.[.[.[.",
"[.[.[.U.3XG.[.[.[.[.[.[.[.[.[.[.[.[.[.[.[.[.[.[.[.[.[._._._.'.[.{.{.[.[.[.[.[.[.[.[.[.[.[.[.[.[.[.[.[.[.[.[.[.",
"[.[.[.U.8XOX].[.[.[.[.[.[.[.[.[.[.[.[.[.[.[.[.[.[.E.G.g.f.O.| h.).].[.[.[.[.[.[.[.[.[.[.[.[.[.[.[.[.[.[.[.[.[.",
"[.[.[.U.8X&X/.[.[.[.[.[.[.[.[.[.[.[.[.[.{.[.[.].I.>X3XoX8.' j j t.'.[.[.[.[.[.[.[.[.[.[.[.[.[.[.[.[.].[.[.[.[.",
"[.[.{.I.8X=X!.{.[.[.[.[.[.[.[.[.[.]._.Q.`.[.[.U.:XeXeXl.f.' k * g M.[.[.[.[.[.[.[.[.[.[.[.[.[.[.[.[.[.[.[.[.[.",
"[.[.{.T.3X8X~.[.[.[.[.[.[.[.[.[.'.<X6X6X5X!.R.1XqXeXqXl.[ ' k 0 * e.[.[.[.[.[.[.[.[.[.[.[.[.[.[.[.[.[.[.[.[.[.",
"[.[.[._.OXwX<X].[.[.[.[.[.[.[.[.J.rXtXrXrX0Xb.&X4X4Xl.k.+.' g s s h.{.[.[.[.[.[.[.[.[.[.[.[.[.[.[.[.[.[.[.[.[.",
"[.[.[.[.E.,X&X/.[.[.[.[.[.[.[.'.5XrXrX9X9XwX;X|.:Xl.l.k.[ k g g f W.[.[.].[.[.[.[.[.[.[.[.[.[.[.[.[.[.[.[.[.[.",
"[.[.[.[.[.G.%X!.{.[.[.[.[.[.[.Y.|.wX#Xw.7.@Xw.&X4X+.[ ' D k G k M.{.[.[.[.[.[.[.[.[.[.[.[.[.[.[.[.[.[.[.[.[.[.",
"[.[.[.[.[.I.z.G.[.[.[.[.[.[.[.W.H w.C V @XE U H |.:Xl.j.[ G A 8.<X_.[.[.[.[.[.[.[.[.[.[.[.[.[.[.[.[.[.[.[.[.[.",
"[.[.[.[.[._.j.OX].[.[.[.[.[.[.'.b. X;X$X7.e t ! ] k D k K O.b.9.b.'.[.[.[.[.[.[.[.[.[.[.[.[.[.[.[.[.[.[.[.[.[.",
"[.[.[.[.[.[.g.z./.[.[.[.[.[.[.[.H.;X*XZ V L p ,.( * s f o.3.R y.R.{.{.[.[.[.[.[.[.[.[.[.[.[.[.[.[.[.[.[.[.[.[.",
"[.[.[.[.[.[.Z.0.!.[.[.[.[.[.[.[.Q.v.U = C T p L @.G G R q y $.p ` B./.[.{.[.[.[.[.[.[.[.[.[.[.[.[.[.[.[.[.[.[.",
"[.[.[.[.[.].Z.P b n m.L./.{.[.[.{.S.X.q.L C E E E #. .O   ; 4 $.%.$.l ` C.(.[.[.[.[.[.[.[.[.[.[.[.[.[.[.[.[.].",
"[.[.[.[.].e.s + $ + a r m (.!.G.<Xb.q.U r R $X#...X.! w       . 4 9 %.%.*.l p.V.W.[.[.[.[.[.[.[.[.[.[.[.[.[.[.",
"[.[.[.[.{.h.f 0 i p ;.;.T q..Xq.c.F.B.C.y.o.$X;XX.Q T j           o ; 5 $.=.-.*.Y g.^.[.[.[.[.[.[.[.[.[.[.[.[.",
"[.[.[.[.[.].P.l q u l :.T Z.D.I.`.[.[.{./.{ w.7Xq. Xo.a .       . o . . o 4 y *.1.<.3.V.].[.[.[.[.[.[.[.[.[.[.",
"[.[.[.[.[.[.].p.i k A.C.K.{.[.[.[.[.[.[.[.s.X.Q C 6.q.a $     . o . . O ; ; > 5 &.1.2.>.g.].[.[.[.[.[.[.[.[.[.",
"].[.[.[.[.[.{.`./ ^ ].{.[.[.[.[.[.[.[.[.{.W.@.a # w C 0 o O . . . . ; > ; > X > , t >.2.l h.[.[.[.[.[.[.[.[.[.",
"{.[.[.[.[.[.[.[.h.` _.[.[.[.[.[.[.[.[.[.[.[.R.m # $ ! # L C . . . ; ; > , 1 @ & % : 5 *.I h.[.[.[.[.[.[.[.[.[.",
"[.[.[.[.[.[.[.[.'.P.[.[.[.[.[.[.[.[.[.[.[.[.(.XXw.X.6.U 5.w . . > > > , , , , 1 v ~ > ~ ,.+.E.{.[.[.[.[.[.[.[.",
"[.[.[.[.[.[.[.[.[.[.[.[.[.[.[.[.[.[.[.[.[.[.S.X.! U a q.w.7 ; ; > > , , , < < < % P.h.Y.V.,.V.{.[.[.[.[.[.[.[.",
"[.[.[.[.[.[.[.[.[.[.[.[.[.[.[.[.[.[.[.[.[.{.P.E U a % Q 7.a > : > > < , < < 4 1 : ~ ].{.].s.h.{.[.[.[.[.[.[.[.",
"[.[.[.[.[.[.[.[.[.[.[.[.[.[.[.[.[.[.[.[.[.[.D.#.! X.#.q.X.5.> > > < < < , 2 4 6 v / ).{.{.'.E.[.[.[.[.[.[.[.[.",
"[.[.[.[.[.[.[.[.[.[.[.[.[.[.[.[.[.Q._.{.`.V..X2Xd.n d 0 L *X7 , , , 4 4 3 n f g P.[.[.[.[.[.[.[.[.[.[.[.[.[.[.",
"[.[.[.[.[.[.[.[.[.[.[.[.[.[.[.[.E.v.I.Y.b.&X<XQ.[.].m o 3 $XP > 4 4 2 > % h.].).[.[.[.[.[.[.[.[.[.[.[.[.[.[.[.",
"[.[.[.[.[.[.[.[.[.[.[.[.[.[.{.Q.d.f.v.+X2X!.`.[.[.{.A.# : 4.|.- , 1 t.r.h.{.[.[.[.[.[.[.[.[.[.[.[.[.[.[.[.[.[.",
"[.[.[.[.[.[.[.[.[.[.[.[.[.{.{.s.T ] #X1XQ.[.[.[.[.[.'.f : i -XN.f @ ~ '.{.[.[.[.[.[.[.[.[.[.[.[.[.[.[.[.[.[.[.",
"[.[.[.[.[.[.[.[.[.[.[.[.[.[./.O.Y J f.Q.[.[.[.[.[.[.{.a.> 8 *Xd.P.a.* m.{.[.[.[.[.[.[.[.[.[.[.[.[.[.[.[.[.[.[.",
"[.[.[.[.[.[.[.[.[.[.[.[.[.[.`.| Y * S P.{.[.[.[.[.[.[.R.% 7 |.X.} P.R.).[.[.[.[.[.[.[.[.[.[.[.[.[.[.[.[.[.[.[.",
"[.[.[.[.[.[.[.[.[.[.[.[.[.[.{.C.T s j e.[.[.[.[.[.[.[.].v 7 }.}...K m W.{.[.[.[.[.[.[.[.[.[.[.[.[.[.[.[.[.[.[.",
"[.[.[.[.[.[.[.[.[.[.[.[.[.[.[.W._ S s n [.[.[.[.[.[.[.[.A.$ M C T W B x.L.'.[.[.[.[.[.[.[.[.[.[.[.[.[.[.[.[.[.",
"[.[.[.[.[.[.[.[.[.[.[.[.[.[.[.[.t.A d z R.[.[.[.[.[.[.[.].c $ M e g k  ._ h.`.[.[.[.[.[.[.[.[.[.[.[.[.[.[.[.[.",
"[.[.[.[.[.[.[.[.[.[.[.[.[.[.[.[.n.' A H a.{.[.[.[.[.[.[.[.A.= M.a.~ s j ( ] | R.[.[.[.[.[.[.[.[.[.[.[.[.[.[.[.",
"[.[.[.[.[.[.[.[.[.[.[.[.[.[.[.[.n. . . .} ].[.[.[.].[.[.[.].M.`.]._.A.} ) ) S M.{.[.[.[.[.[.[.[.[.[.[.[.[.[.[.",
"[.[.[.[.[.[.[.[.[.[.[.[.[.[.Q.p.N x = B ^ '.[.[.[.[.[.[.[.[.[.[.].{.{._.i.- h i.[.[.[.[.[.[.[.[.[.[.[.[.[.[.[.",
"[.[.[.[.[.[.[.[.[.[.[.[.[.].y.j * & = d / ).[.[.[.[.[.[.[.[.[.[.[.[.[.{.A.N F } ].[.[.[.[.[.[.[.[.[.[.[.[.[.[.",
"[.[.[.[.[.[.[.[.[.[.[.[.[.'.} f f c u.A.W.[.[.[.[.[.[.[.[.[.[.[.[.[.[.{.A.x x y.'.[.[.[.[.[.[.[.[.[.[.[.].[.[.",
"[.[.].[.[.[.[.[.[.[.[.[.[.[._.E.R.).[.{.[.[.[.[.[.[.[.[.[.[.[.[.[.[.[.[.`.P.Y.`.[.[.[.[.[.[.[.[.[.[.[.[.[.[.[."
};
