/* XPM */
static char *enemy_9[] = {
/* columns rows colors chars-per-pixel */
"55 55 206 2 ",
"   c #360B06",
".  c #34110E",
"X  c #3D120D",
"o  c #231E1E",
"O  c #321210",
"+  c #371916",
"@  c #391918",
"#  c #2A2B2F",
"$  c #36272A",
"%  c #3F312F",
"&  c #332B32",
"*  c #3B2E35",
"=  c #342D3B",
"-  c #383137",
";  c #3B343B",
":  c #440E0A",
">  c #490E0B",
",  c #47140E",
"<  c #4B110E",
"1  c #51140D",
"2  c #441410",
"3  c #4D1511",
"4  c #461C17",
"5  c #411C1B",
"6  c #541B16",
"7  c #46211D",
"8  c #53221E",
"9  c #472725",
"0  c #532321",
"q  c #552B29",
"w  c #5A2D2D",
"e  c #57332F",
"r  c #462E33",
"t  c #43353A",
"y  c #523D3E",
"u  c #5A3B3B",
"i  c #642D2C",
"p  c #792D2E",
"a  c #623532",
"s  c #6D3435",
"d  c #713635",
"f  c #7D3432",
"g  c #7C3C3A",
"h  c #4D403C",
"j  c #5C413D",
"k  c #61433E",
"l  c #2D3946",
"z  c #3B3442",
"x  c #3C3A43",
"c  c #3E3A49",
"v  c #433C44",
"b  c #443D4B",
"n  c #493D4B",
"m  c #5C3B42",
"M  c #683E46",
"N  c #773E40",
"B  c #3A444C",
"V  c #384A5C",
"C  c #3D505D",
"Z  c #384E61",
"A  c #385468",
"S  c #3A5D75",
"D  c #3E627A",
"F  c #49444C",
"G  c #5A4641",
"H  c #53494F",
"J  c #5A504F",
"K  c #464857",
"L  c #534654",
"P  c #524B55",
"I  c #564957",
"U  c #5C4C5B",
"Y  c #575459",
"T  c #5A525E",
"R  c #674B49",
"E  c #734946",
"W  c #64524D",
"Q  c #76514D",
"!  c #674E56",
"~  c #665754",
"^  c #6C5555",
"/  c #6B5954",
"(  c #6D5C5C",
")  c #735756",
"_  c #725A5A",
"`  c #6E615D",
"'  c #73625C",
"]  c #7B645E",
"[  c #485463",
"{  c #585866",
"}  c #465F71",
"|  c #655867",
" . c #6B5D6B",
".. c #705A6B",
"X. c #715F72",
"o. c #48657A",
"O. c #55657B",
"+. c #6B6467",
"@. c #64616B",
"#. c #6B656C",
"$. c #746867",
"%. c #7A6A65",
"&. c #656575",
"*. c #786777",
"=. c #97322F",
"-. c #8A3636",
";. c #A93D3B",
":. c #8A3F43",
">. c #954745",
",. c #855057",
"<. c #905659",
"1. c #B44946",
"2. c #B95150",
"3. c #815B61",
"4. c #876963",
"5. c #84736C",
"6. c #89746D",
"7. c #91716B",
"8. c #857776",
"9. c #8C7A74",
"0. c #87767B",
"q. c #937E78",
"w. c #8E807B",
"e. c #98827B",
"r. c #3D6A87",
"t. c #466B86",
"y. c #4D7087",
"u. c #587388",
"i. c #497797",
"p. c #467A9B",
"a. c #517692",
"s. c #577D99",
"d. c #647584",
"f. c #62728B",
"g. c #477FA3",
"h. c #4B7EA1",
"j. c #836D86",
"k. c #89738B",
"l. c #8C7D8B",
"z. c #917789",
"x. c #A57C81",
"c. c #5E8198",
"v. c #678395",
"b. c #798797",
"n. c #79919F",
"m. c #4982A5",
"M. c #4482A8",
"N. c #4885AA",
"B. c #4C88AD",
"V. c #498AB2",
"C. c #4A94BF",
"Z. c #5B95BA",
"A. c #6F94AD",
"S. c #7393AE",
"D. c #6FA2BD",
"F. c #77A2BB",
"G. c #4B98C5",
"H. c #5096C1",
"J. c #509AC6",
"K. c #539ECC",
"L. c #679CC1",
"P. c #5AA2CD",
"I. c #52A3D2",
"U. c #5CA8D4",
"Y. c #54A7D8",
"T. c #55ABDD",
"R. c #5AABDB",
"E. c #68A6C9",
"W. c #55AEE2",
"Q. c #58AEE1",
"!. c #57B0E5",
"~. c #5AB2E5",
"^. c #57B4EA",
"/. c #59B5EB",
"(. c #5AB8EF",
"). c #5CBCF4",
"_. c #5CBFF8",
"`. c #8F868A",
"'. c #998883",
"]. c #9D928F",
"[. c #9B8999",
"{. c #A38A87",
"}. c #A79189",
"|. c #AC958E",
" X c #B2968D",
".X c #A59699",
"XX c #BD9E99",
"oX c #BFA79E",
"OX c #8897AB",
"+X c #869FAE",
"@X c #9498A4",
"#X c #A089A2",
"$X c #A89BA6",
"%X c #A9A3AA",
"&X c #B3A6AC",
"*X c #B7A4B5",
"=X c #C39D9E",
"-X c #C7AAA5",
";X c #DBAAA7",
":X c #D2B4A9",
">X c #CDBFB8",
",X c #D9C2B8",
"<X c #E2C4B8",
"1X c #D1CCCB",
"2X c #E9D3C8",
"3X c #F3DCCF",
/* pixels */
").).).).).).).).).).).).).).).).).).).).).).).).).).).).).).).).).).).).).).).).).).).).).).).).).).).).).).).",
").).).).).).).).).).).).).).).).).).).).).).).).).).).).).).).).).).).).).).).).).).).).).).).).).).).).).).).",
").).).).).).).).).).).).(.).).).).).).).).).).).).).).).).).).).).).).).).).).).).).).).).).).).).).).).).).).",
").).).).).).).).).).).).).).).).).).).).).).).).).).).).).).).).).).).).).).).).).).).).).).).).).).).).).).).",
").).).).).).).).).).).).).).).).).).).).).).).).).).).).).).).).).).).).).).).).).).).).).).).).).).).).).).).",
").).).).).).).).).).).).).).).).).).).).).).).).).).).).).).).).).).).).).).).).).).).).).).).).).).).).).).).",
").).).).).).).).).).).).).).).).).).).).).).).).).).).).).).).).).).).).).).).).).).).).).).).).).).).).).).).",
").).).).).).).).).).).).).).).).).).).).).).).).).).).).).).).).).).).).).).).).).).).).).).).).).).).).).).).",
").).).).).).).).).).).).).).).).).).).).).).).).).).).).).).).).).).).).).).).).).).).).).).).).).).).).).).).",
").).).).).).).).).).).).).).).).).).).).).).).).).).).).).).).).).).).).).).).).).).).).).).).).).).).).).).).",
").).).).).).).).).).).).).).).).).).).).).).).).).).).).).).).).).).).).).).).(.).).).).).).).).).(.).).).).).",
").).).).).).).).).).).).).).).).).).).).).).).).).).).).).).).).).).).).).).).).).).).).).).).).).).).).).).).",
").).).).).).).).).).).).).).).).).).).).).).).).).).).).).).).).).).).).).).).).).).).).).).).).).).).).).).).",
").).).).).).).).).).).).).).).).).).).).).).).).).).).).).).).).).).).).).).).).).).).).).).).).).).).).).).).",
").).).).).).).).).).).).).).).).).).).).).).).).).).).).).).).).).).).).).).).).).).).).).).).).).).).).).).).",
").).).).).).).).).).).).).).).).).).).).).).).).).).).).).).).).).).).).).).).).).).).).).).).).).).).).).).).",
").).).).).).).).).).).).).).).).).).).(.U.D.D.P.^._.).).).).).).).).).).).).).).).).).).).).).).).).).).).).).",
").).).).).).).).).).).).).).).).).).).L.1X3X2X,X+XW.).).).).).).).).).).).).).).).).).).).).).).).).).).).).).",
").).).).).).).).).).).).).).).).).).R.>X3X2X,X<X:XA.(.).).).).).).).).).).).).).).).).).).).).).).).).).).).).",
").).).).).).).).).).).).).(.).).).).U.>X<X<X}. XXXb.(.).).).).).).).).).).).).).).).).).).).).).).(.).).).).).",
").).).).).).).).).).).).).).).).).).Z.e.oXW ' 6.] d.(.).).).).).).).).).).).).).).).).).).).).).).).).).).).).",
").).).).).).).).).).).).).).).).)._.I.Y }.' 5.e.H Z._._.).).).).).).).).).).).).).).).).).).).).).).).).).).).",
").).).).).).).).).).).).).).).).).)./.n.'.-Xw.' a.m.i.I.(.~.).).).).).).).).).).).).).).).).).).).).).).).).).",
").).).).).).).).).).).).).).).).).).).P.|.e.h W H d f k u.c.^.).).).).).).).).).).).).).).).).).).).).).).).).",
").).).).).).).).).).).).).).).).).).).~.d.5.] W Q -.-._ #.&.J.).).).).).).).).).).).).).).).).).).).).).).).).",
").).).).).).).).).).).).).).).).).).).C.@.4.a j E k ) @.= F O.T.).).).).).).).).).).).).).).).).).).).).).).).",
").).).).).).).).).).).).).).).).).).(.a.I w e ' ' j $.{ z = | B._.).).).).).).).).).).).).).).).).).).).).).).",
").).).).).).).).).).).).).).).).).).^.O.n & J w.|./ $.$.K = P a.).).).).).).).).).).).).).).).).).).).).).).).",
").).).).).).).).).).).).).).).).).).I.&.Y +.+.9.-X6.%.` #.{ | &.I.).).).).).).).).).).).).).).).).).).).).).).",
").).).).).).).).).).).).).).).)._.!.a.b.c.v.%.w.-Xw.$.~ ^ ( *.*.y.^.).).).).).).).).).).).).).).).).).).).).).",
").).).(.).).).).).).).).).).).).).).~.~.(.F.%.5.' %.'.`.&X&X&X%X`.Z./.).).).).).).).).).).).).).).).).).).).).",
").).).).).).).).).).).).).).).).).).)._.(.+XW ' % $ 8.].&X1X1X1X.Xk.A.~.).).).).).).).).).).).).).).).).).).).",
").).).).).).).).).).).).).).).).).).).).Q.@Xj @ O . .X.X#X*X*X*Xk.d...f.).).).).).).).).).).).).).).).).).).).",
").).).).).).).).).).).).).).).).).).(./.E.].e @ ) ) .Xl.k.l.z.k.f...L L K.).).).).).).).).).).).).).).).).).).",
").).).).).).).).).).).).).).).).).).m.K #.j   R e.q.0.[.X.k.j.X.| M n b h.).).).).).).).).).).).).).).).).).).",
").).).).).).).).).).).).).).).)._.(.} f >.0   R ' G y k.j.U U ! n n & v h.).).).).).).).).).).).).).).).).).).",
").).).).).).).).).).).).).).).).I.G.U >.k 4   9 ~ / j ( *. .H v v = = b H.).).).).).).).).).).).).).).).).).).",
").).).).).).).).).).).).).).).(.A l ^ g 8 7 9 Q 9.W _ $.y m L I n = r r.(.).).).).).).).).).).).).).).).).).).",
").).).).).).).).).).).).)._.(.~.S o d q p 9 k  XE X X X 7 Q s 5 2 0 =.X.(.).).).).).).).).).).).).).).).).).).",
").).).).).).).).)._.)./.R.L.n.`.J o q d i 2 4.7.2 < , : q |.0 : > 6 ;.:.K.).).).).).).).).).).).).).).).).).).",
").).)._._._.)./.Q.E.F.[.'.x.z.k.K o o 8 : j }.8 > 3 < > w  X0 : : 3 :.;.s._.).).).).).).).).).).).).).).).).).",
").).).(.Q.P.Z.OX*X-X=X[.b.H.Y.I.- + r ( 9 }.k < 1 1 1 > a .X6 X O < =.;.X.(.).).).).).).).).).).).).).).).).).",
").M.y.b.$XXX-X;X;X-XS.Q.).).(.A X 4 R #.9.{.6 : 3 1 < < Q XX6 5 = > -.1...!.).).).).).).).).).).).).).).).).).",
").I.c.b.@X$X%X@XS.J.^.).).).N.$ # 4 ) ! 0./ 4 D * 1 4 v l.8.3 9 V > -.2.,.Y._.).).).).).).).).).).).).).).).).",
").).).^.W.W.T.^.(.).).).).!.B C V.Z _ E P t - T.r.z Z o.`.0.u V r.> p 1.,.T._.).).).).).).).).).).).).).).).).",
").).)._.).).).)._.).).).).W.m.W.).W.@.! ; F S ).).^.^.a.y ) ] [ Z $ N N U ^._.).).).).).).).).).).).).).).).).",
").).).).).).).).).).).).).)._.).).).y.! x b N._.).).).K.b r ^ H p.G.3.X.H.).).).).).).).).).).).).).).).).).(.",
").).).).).).).).).).).).).).).).)._.g.U v l G._.).).).).g.c ; +.f.t.<.f.).).).).).).).).).).).).).).).).).).).",
").).).).).).).).).).).).).).).).)._.m.P b z m.).).).).).(.p.c x | b T U.).).).).).).).).).).).).).).).).).).).",
").).).).).).).).).).).).).).).).)._.B.#.K P i.).).).).).).(.p.F { @.[ I.).).).).).).).).).).).).).).).).).).).",
").).).).).).).).).).).).).).).).).T.y.#.#.#.o.^.).).).).).).).i.#.T Y m.).).).).).).).).).).).).).).).).).).).",
").).).).).).).).).).).).).).).(.B.{ x ; - F t.(.).).).).).).).Q.} * v t.).).).).).).).).).).).).).).).).).).).",
").).).).).).).).).).).).).)._.G.K - & & - B i.).).).).).).).)._.N.F H o./.).).).).).).).).).).).).).).).).).).",
").).).).).).).).).).).).).)._.I.D V V D N.G.T.).).).).).).).)._.V.x x [ Y.).).).).).).).).).).).).).).).).).).",
").).).).).).).).).).).).).).).).(.^.!.)._._.).).).).).).).).).).Y.p.N.K.).).).).).).).).).).).).).).).).).).)."
};
