/* XPM */
static char *enemy_15[] = {
/* columns rows colors chars-per-pixel */
"55 55 202 2 ",
"   c #2C272A",
".  c #352827",
"X  c #322B34",
"o  c #352E3C",
"O  c #3F2F38",
"+  c #3C313A",
"@  c #4A110D",
"#  c #54120B",
"$  c #5B140C",
"%  c #491613",
"&  c #531614",
"*  c #65150C",
"=  c #6A160E",
"-  c #72160D",
";  c #6B1B17",
":  c #451F20",
">  c #412123",
",  c #432A2C",
"<  c #562423",
"1  c #482C32",
"2  c #47373B",
"3  c #44333C",
"4  c #563436",
"5  c #6D2120",
"6  c #7B2523",
"7  c #782726",
"8  c #6A312E",
"9  c #6D3335",
"0  c #7A3838",
"q  c #4B423F",
"w  c #393B45",
"e  c #2C3F50",
"r  c #433A43",
"t  c #423A46",
"y  c #4A3D43",
"u  c #4A3E4A",
"i  c #593C45",
"p  c #6C3E44",
"a  c #2F4654",
"s  c #3B4756",
"d  c #3A556B",
"f  c #3A566A",
"g  c #3F6076",
"h  c #44444B",
"j  c #4C434D",
"k  c #58484B",
"l  c #474B58",
"z  c #524754",
"x  c #524C59",
"c  c #5B4D5A",
"v  c #56545B",
"b  c #664849",
"n  c #73474A",
"m  c #64514D",
"M  c #674D57",
"N  c #6B545A",
"B  c #675959",
"V  c #795656",
"C  c #6A615D",
"Z  c #76625C",
"A  c #494E60",
"S  c #485566",
"D  c #565969",
"F  c #495D74",
"G  c #645464",
"H  c #685A67",
"J  c #6F5C71",
"K  c #5D656E",
"L  c #4F6476",
"P  c #446379",
"I  c #4A637D",
"U  c #546473",
"Y  c #56647C",
"T  c #6D6464",
"R  c #6A656B",
"E  c #756765",
"W  c #7A6D6C",
"Q  c #6A6972",
"!  c #756874",
"~  c #68737D",
"^  c #787375",
"/  c #822625",
"(  c #8E2A29",
")  c #942B2A",
"_  c #992D2C",
"`  c #8B312E",
"'  c #9D312E",
"]  c #883737",
"[  c #843A3A",
"{  c #953230",
"}  c #9A3532",
"|  c #A33532",
" . c #A13A36",
".. c #AB3B37",
"X. c #AD3E3A",
"o. c #AF403B",
"O. c #8A4044",
"+. c #934543",
"@. c #924B4B",
"#. c #985858",
"$. c #826B65",
"%. c #856B6A",
"&. c #86746D",
"*. c #89746D",
"=. c #837574",
"-. c #8B7A74",
";. c #917575",
":. c #98827A",
">. c #396D8D",
",. c #3D7393",
"<. c #476A85",
"1. c #566B84",
"2. c #48708F",
"3. c #57748A",
"4. c #4D7B9C",
"5. c #567A95",
"6. c #7F6C82",
"7. c #697987",
"8. c #7B7D83",
"9. c #6F7D95",
"0. c #846F84",
"q. c #8A7689",
"w. c #927C96",
"e. c #A57F85",
"r. c #5B849D",
"t. c #6F808D",
"y. c #788088",
"u. c #67889D",
"i. c #788899",
"p. c #4D85AB",
"a. c #4E89AE",
"s. c #5786A7",
"d. c #4B8FB9",
"f. c #558FB4",
"g. c #4D92BC",
"h. c #5892B6",
"j. c #5394BA",
"k. c #6790AB",
"l. c #7494AD",
"z. c #7996AB",
"x. c #6D99B6",
"c. c #779EB7",
"v. c #7AA0B8",
"b. c #4D95C1",
"n. c #4B98C5",
"m. c #4F9CCA",
"M. c #5199C5",
"N. c #579AC4",
"B. c #519FCE",
"V. c #639FC6",
"C. c #56A2CF",
"Z. c #5CA1CA",
"A. c #52A5D5",
"S. c #59A6D3",
"D. c #5DA9D6",
"F. c #54A7D8",
"G. c #54A9DB",
"H. c #5AACDC",
"J. c #6EA2C4",
"K. c #61A4CC",
"L. c #55AEE2",
"P. c #58AFE2",
"I. c #56B0E5",
"U. c #58B2E6",
"Y. c #57B4EA",
"T. c #58B5EC",
"R. c #59B8EF",
"E. c #5CBCF4",
"W. c #5CBFF8",
"Q. c #88878B",
"!. c #998788",
"~. c #96879A",
"^. c #89939C",
"/. c #989399",
"(. c #AB8286",
"). c #A7958D",
"_. c #A99692",
"`. c #AC9A93",
"'. c #A49B9A",
"]. c #B79A9D",
"[. c #B7A49D",
"{. c #BCA39A",
"}. c #8598A4",
"|. c #9593A3",
" X c #829DB2",
".X c #AD9AA7",
"XX c #B09FAE",
"oX c #8CABBA",
"OX c #A6A4A6",
"+X c #B4A8AA",
"@X c #BBADB2",
"#X c #B9B8B6",
"$X c #C4A69B",
"%X c #D4A2A1",
"&X c #D6ADAC",
"*X c #CAB1B2",
"=X c #CBC4BE",
"-X c #E5C9BD",
";X c #C7B6C1",
":X c #D3C7CC",
">X c #F0D7CB",
",X c #F0DFD2",
/* pixels */
"E.E.E.E.E.E.E.E.E.E.E.E.E.E.E.E.E.E.E.E.E.E.E.E.E.E.E.E.E.E.E.E.E.E.E.E.E.E.E.E.E.E.E.E.E.E.E.E.E.E.E.E.E.E.E.",
"E.E.E.E.E.E.E.E.E.E.E.E.E.E.E.E.E.E.E.E.E.E.E.E.E.E.E.E.E.E.E.E.E.E.E.E.E.E.E.E.E.E.E.E.E.E.E.E.E.E.E.E.E.E.E.",
"E.E.E.E.E.E.E.E.E.E.E.E.E.E.E.E.E.E.E.E.E.E.E.E.E.E.E.E.E.E.E.E.E.E.E.E.E.E.E.E.E.E.E.E.E.E.E.E.E.E.E.E.E.E.E.",
"E.E.E.E.E.E.E.E.E.E.E.E.E.E.E.E.E.E.E.E.E.E.E.E.E.E.E.E.E.E.E.E.E.E.E.E.E.E.E.E.E.E.E.E.E.E.E.E.E.E.E.E.E.R.E.",
"E.E.E.E.E.E.E.E.E.E.E.E.E.E.E.E.E.E.E.E.E.E.E.E.E.E.E.E.E.E.E.E.E.E.E.E.E.E.E.E.E.E.E.E.E.E.E.E.E.E.E.E.E.E.E.",
"E.E.E.E.E.E.E.E.E.E.E.E.E.E.E.E.E.E.E.E.E.E.E.E.E.E.E.E.E.E.E.E.E.E.E.E.E.E.E.E.E.E.E.E.E.E.E.E.E.E.E.E.E.E.E.",
"E.E.E.E.E.E.E.E.E.E.E.E.E.E.E.E.E.E.E.E.E.E.E.E.E.E.E.E.E.E.E.E.E.E.E.E.E.E.E.E.E.E.E.E.E.E.E.E.E.E.E.E.E.E.E.",
"E.E.E.E.E.E.E.E.E.E.E.E.E.E.E.E.E.E.E.E.E.E.E.E.E.E.E.E.E.E.E.E.E.E.E.E.E.E.E.E.E.E.E.E.E.E.E.E.E.E.E.E.E.E.E.",
"E.E.E.E.E.E.E.E.E.E.E.E.E.E.E.E.E.E.E.E.E.E.E.E.E.E.E.E.E.E.E.E.E.E.E.E.E.E.E.E.E.E.E.E.E.E.E.E.E.E.E.E.E.E.E.",
"E.E.E.E.E.E.E.E.E.E.E.E.E.E.E.E.E.E.E.E.E.E.E.E.E.E.E.E.E.E.E.E.E.E.E.E.E.E.E.E.E.E.E.E.E.E.E.E.E.E.E.E.E.E.E.",
"E.E.E.E.E.E.E.E.E.E.E.E.E.E.E.E.E.E.E.E.E.E.E.E.E.E.E.R.E.E.E.E.E.E.E.E.E.E.E.E.E.E.E.E.E.E.E.E.E.E.E.E.E.E.E.",
"E.E.E.E.E.E.E.E.E.E.E.E.E.E.E.E.E.E.E.E.E.E.E.E.E.E.E.R.E.E.E.E.E.E.E.E.E.E.E.E.E.E.E.E.E.E.E.E.E.E.E.E.E.E.E.",
"E.E.E.E.E.E.E.E.E.E.E.E.R.E.E.E.E.E.E.E.E.E.E.E.E.E.E.E.E.E.E.E.E.E.E.E.E.E.E.E.E.E.E.E.E.E.E.E.E.E.E.E.E.E.E.",
"E.E.E.E.E.E.E.E.E.E.E.E.E.E.E.E.E.E.E.E.E.E.E.E.E.E.E.E.E.E.E.E.E.E.E.E.E.E.E.E.E.E.E.E.E.E.E.E.E.E.E.E.E.E.E.",
"E.E.E.E.E.E.E.E.E.E.E.E.E.E.E.E.E.E.E.E.E.E.E.E.E.R.E.E.E.E.E.E.E.E.E.E.E.E.E.E.E.E.E.E.E.E.E.E.E.E.E.E.E.E.E.",
"E.E.E.E.E.E.E.E.E.E.E.E.E.E.E.E.E.E.E.E.E.E.E.E.E.E.E.E.E.E.E.E.E.E.E.E.E.E.E.E.E.E.E.E.E.E.E.E.E.E.E.E.E.E.E.",
"E.E.E.E.E.E.E.E.E.E.E.E.E.E.E.E.E.E.E.E.E.E.E.E.E.E.E.E.E.E.E.E.E.E.E.R.E.E.W.Y.W.E.E.E.E.E.E.E.E.E.E.E.E.E.E.",
"E.E.E.E.E.E.E.E.E.E.E.E.E.E.E.E.E.E.E.E.E.E.E.E.E.E.E.E.E.E.E.E.E.E.E.b.b.E.W.E.E.E.E.E.E.E.E.E.E.E.E.E.E.E.E.",
"E.E.E.E.E.E.E.E.E.E.E.E.E.E.E.E.E.E.E.E.E.E.E.E.E.E.E.E.E.E.R.E.E.E.R.Y i G.W.W.R.W.E.E.E.E.E.E.E.E.E.E.E.E.E.",
"E.E.E.E.E.E.E.E.E.E.E.E.E.E.E.E.E.E.E.E.E.E.E.E.E.E.E.E.E.E.E.E.E.E.A.p ' 1.W.T.Y.T.E.E.E.E.E.Y.E.E.E.E.E.E.E.",
"E.E.E.E.E.E.E.E.E.E.E.E.E.E.E.E.E.E.E.E.E.E.E.E.E.E.E.E.E.E.E.E.E.E.1.} _ 9 4.1.p G 4.E.W.E.R.>.S.E.E.E.E.E.E.",
"E.E.E.E.E.E.E.E.E.E.E.E.E.E.E.E.E.E.E.E.E.E.E.E.E.E.E.E.E.E.E.W.E.4.] _ ) 5 p  .X.X.] 2.R.W.b.o A.E.E.E.E.E.E.",
"E.E.E.E.E.E.E.E.E.E.E.E.E.E.E.R.D.S.H.T.E.E.E.E.E.E.E.E.E.E.E.S.1.] | / 5 ` ..X.X...X.] 4.L.w : F.E.E.E.E.E.E.",
"E.E.E.E.E.E.E.E.E.E.E.E.E.E.H.oX:X=X#Xc.U.E.E.E.E.E.E.E.E.A.1.n _ ( 6 7  .X...| } } ) _ i A # w U.E.E.E.E.E.E.",
"E.E.E.E.E.E.E.E.E.E.E.E.E.Y.oX,X>X-X-X&Xl.R.E.E.E.E.E.M.Y p ' _ 7 7 } X.| _ ) ) ) ) ) 7 @ # # <.W.E.E.E.E.E.E.",
"E.E.E.E.E.E.E.E.E.E.E.E.E.H.#X>X-X$X$X$Xq.I.E.E.E.A.Y [ ) ) / 7 ] O.O.( ) ) ) ) ) ) ; @ # * < B.W.E.E.E.E.E.E.",
"E.E.E.E.E.E.E.E.E.E.E.E.W.H.+X-X`.*.%.$.Q L.W.R.p.z ] ' } } @.%.G u O i 7 ) ) ) 6 & @ $ = = P E.E.E.E.E.E.E.E.",
"E.E.E.E.E.E.E.E.E.E.E.E.E.G.K :.C q ).m y F 3.<.i =.@.X.X.#.q.0.G u O O 1 / 5 & @ # * - ; S U.E.E.E.E.E.E.E.E.",
"E.E.E.E.E.E.E.E.E.E.E.E.E.R.r.&.{.).*.b 8 ] b c x R +.| #.+XXX0.J c t o + % @ # $ = - < <.T.E.E.E.E.E.E.E.E.E.",
"E.E.E.E.E.E.E.E.E.E.E.E.E.W.H.^.$X:.> q V M z w o R #.+.!.:X;Xw.6.G t 3 + # * = * < A b.E.E.E.E.E.E.E.E.E.E.E.",
"E.E.E.E.E.E.E.E.E.E.E.E.E.E.Y.r.W 4 , m ^ H X o x K 7.q.@X:X;Xw.0.G t u O : 2 A 2.B.T.W.E.E.E.E.E.E.E.E.E.E.E.",
"E.E.E.E.E.E.E.E.E.E.E.E.W.G.3.y.k 4 :.$.k Q x x Q M.I.l.@X;X.Xw.0.c u c , A P.E.W.E.E.E.E.E.E.T.E.E.E.E.E.E.E.",
"E.E.E.E.E.E.E.E.E.E.E.E.E.E.Z.u.U m Z E ).C ^ ~ C f.E.v.)./.w.q.J c G b 0 D T.E.E.E.E.E.E.E.E.E.E.E.E.E.E.E.E.",
"E.E.E.E.E.E.E.E.E.E.E.E.E.E.W.E.K.^ h Z [.).R C m U R.F.^.[.q.=.q.! D N J b.E.E.E.E.E.E.E.E.E.E.E.E.E.E.E.E.E.",
"E.E.E.E.E.E.E.E.E.E.E.E.E.E.E.H.^.u.a.C `.[.:.:.C l A.E.K.oX'.^.w.4.L.L.Y.W.E.E.E.E.E.E.E.E.E.E.E.E.E.E.E.E.E.",
"E.E.E.E.E.E.E.E.E.E.E.E.W.W.U.}.8.A.Y.U :.m m :.&.v M.W.E.I.F.H.Y.E.E.E.E.E.E.E.E.E.E.E.E.E.E.E.R.E.E.E.E.E.E.",
"E.E.E.E.E.E.E.E.E.E.E.R.m.L.v.!.r.R.E.d.W q s h v r.C.H.E.E.E.E.W.E.E.E.E.E.E.E.E.E.E.E.E.E.E.E.E.E.E.E.E.E.E.",
"E.E.E.E.E.E.E.E.E.E.E.M.q v -.r.Y.E.E.E.g.r.S.r.W g.i.k.E.E.E.E.E.E.E.E.E.E.E.E.E.E.E.E.E.E.E.E.E.E.E.E.E.E.E.",
"E.E.E.E.E.E.E.E.E.E.E.D [ +.B a.d.R.E.E.F.i./.^ &.~ -.s.E.E.E.E.E.E.E.E.E.E.E.E.E.E.E.E.E.E.E.E.E.E.E.E.E.E.E.",
"E.E.E.E.E.E.E.E.E.E.F.T +.0 , j r.E.E.E.h.&.Z m m :.-.g.W.E.E.E.E.E.E.E.E.E.E.E.E.E.E.E.E.E.E.E.E.E.E.E.E.E.E.",
"E.E.E.E.E.E.E.E.E.A.a r 9 < 4 2.I.E.E.W.m.C m D l Z W r.E.E.E.E.E.E.E.E.E.E.E.E.E.E.E.E.E.E.E.E.E.E.E.E.E.E.E.",
"E.E.E.E.E.E.E.E.E.R.d . 9 8 N L.W.W.W.Y.h.^ C W =.*.Z Q.U.E.E.E.E.E.E.E.E.E.E.E.E.E.E.E.E.E.E.E.E.E.E.E.E.E.E.",
"E.E.E.E.E.E.E.E.E.H.1.. . k f.n.G.W.G.u.).OX9.g I P 7.[.x.E.E.E.E.E.E.E.E.E.E.E.E.E.E.E.W.R.E.E.E.E.E.E.E.E.E.",
"E.E.E.E.E.E.W.R.Z.!.;.d   d j.9.m.k.Q.'.v.H.T.R.E.W.G.Q.OXH.E.E.E.E.E.E.E.E.E.E.E.E.E.E.E.E.E.E.E.E.E.E.E.E.E.",
"E.E.E.E.E.E.U.l.e.q.h.T.>.g R Q 8.`.oXD.E.E.E.E.E.E.W.h._.c.T.E.E.E.E.E.E.E.E.E.E.E.E.E.E.E.E.E.E.E.E.E.E.E.E.",
"E.E.E.E.E.D.|.(.i.H.W.E.E.5.V T '.v.Y.W.E.E.E.E.E.E.E.U.7.+XK.W.W.E.E.E.E.E.E.E.E.E.E.E.E.E.E.E.E.E.E.E.E.E.E.",
"E.E.W.T.J..X].k.U.E.E.E.R.3.n j D d.E.E.E.E.E.E.E.E.E.W.j.).^.j.b.F.E.E.E.E.E.E.E.E.E.E.E.E.E.E.E.E.E.E.E.E.E.",
"E.E.P. X*X&Xk.R.E.E.E.E.R.5.V 2 + s n.E.E.E.E.E.E.E.E.E.m.8./.W N A ,.P.L.W.E.E.E.E.E.E.E.E.E.E.E.E.E.E.E.E.E.",
"R.V./.%X&X~.F.W.E.E.E.E.E.U.5.c j o e d.E.E.E.E.E.E.E.E.U.9.^ N V M H 7.P M.U.E.E.E.E.E.E.E.E.E.E.E.E.E.E.E.E.",
"z..X&X+X}.F.E.E.E.E.E.E.E.W.E.a.S u z l g.E.E.E.E.E.E.E.E.A.A 1 3 t t x D D L F.W.E.E.E.E.E.E.E.E.E.E.E.E.E.E.",
"_.OX XK.R.E.E.E.E.E.E.E.E.E.E.W.b.D c T L L.W.E.E.E.E.E.E.E.A.a.<.F d u D B j 4.E.E.E.E.E.E.E.E.E.E.E.E.E.E.E.",
"N.P.R.E.E.E.E.E.E.E.E.E.E.E.E.N.F h r h h n.E.E.E.E.E.E.E.E.E.E.E.E.L.m.5.w w F Y.E.E.E.E.E.E.E.E.E.E.E.E.E.E.",
"W.E.E.E.E.E.E.E.E.E.E.E.E.E.L.D 2 . X w d g.W.E.E.E.E.E.E.E.E.E.E.E.E.W.L.S j l M.W.E.E.E.E.E.E.E.E.E.E.E.E.E.",
"E.E.E.E.E.E.E.E.E.E.E.E.E.E.F.d a a d g.U.E.E.E.E.E.E.E.E.E.E.E.E.E.E.E.T.P s P S.E.E.E.E.E.E.E.E.R.E.E.E.E.E.",
"E.E.E.E.E.E.E.E.E.E.E.E.E.E.R.L.A.F.R.E.E.E.E.E.E.E.E.E.E.E.E.E.E.E.E.E.E.F.A.T.E.E.E.E.E.E.E.E.E.E.E.E.E.E.E."
};
