/* XPM */
static char *enemy_32[] = {
/* columns rows colors chars-per-pixel */
"55 55 203 2 ",
"   c #380B06",
".  c #340C0A",
"X  c #3D0E0A",
"o  c #3E120E",
"O  c #2B1414",
"+  c #391815",
"@  c #38201C",
"#  c #351E22",
"$  c #262428",
"%  c #392C2D",
"&  c #2D2635",
"*  c #332D32",
"=  c #3B2E35",
"-  c #322B3A",
";  c #2C333D",
":  c #363135",
">  c #3D333B",
",  c #420E0A",
"<  c #480F0C",
"1  c #44120C",
"2  c #4B120E",
"3  c #52130F",
"4  c #4D1611",
"5  c #461915",
"6  c #44191A",
"7  c #501410",
"8  c #581C1B",
"9  c #472724",
"0  c #452B2B",
"q  c #4B2B2B",
"w  c #562B29",
"e  c #48302D",
"r  c #462E32",
"t  c #453936",
"y  c #483738",
"u  c #53373A",
"i  c #543B3C",
"p  c #642E2D",
"a  c #792926",
"s  c #6C2F33",
"d  c #6B3230",
"f  c #613B3E",
"g  c #733636",
"h  c #55413D",
"j  c #6B413E",
"k  c #3C3542",
"l  c #3D3B43",
"z  c #373C48",
"x  c #313F50",
"c  c #433A44",
"v  c #473945",
"b  c #4A3C43",
"n  c #443C4A",
"m  c #39404F",
"M  c #394554",
"N  c #314F61",
"B  c #3D5365",
"V  c #3B5C74",
"C  c #3D637E",
"Z  c #45414B",
"A  c #4C424C",
"S  c #5C4642",
"D  c #584749",
"F  c #4D4554",
"G  c #464A57",
"H  c #554552",
"J  c #524954",
"K  c #544C59",
"L  c #5C4D5B",
"P  c #4D525C",
"I  c #5B535B",
"U  c #614544",
"Y  c #6B4649",
"T  c #764449",
"R  c #63524D",
"E  c #68504B",
"W  c #655652",
"Q  c #675957",
"!  c #6E5954",
"~  c #65545B",
"^  c #755D57",
"/  c #7C5D5C",
"(  c #6E615D",
")  c #74645E",
"_  c #435364",
"`  c #4B5465",
"'  c #5D5663",
"]  c #59596C",
"[  c #435E72",
"{  c #4C5F70",
"}  c #604F60",
"|  c #675A63",
" . c #6B5A6E",
".. c #715E6F",
"X. c #43627A",
"o. c #586476",
"O. c #65626C",
"+. c #6A636B",
"@. c #6B676A",
"#. c #756767",
"$. c #7B6B65",
"%. c #7C706B",
"&. c #756475",
"*. c #796776",
"=. c #77767B",
"-. c #963B39",
";. c #A43633",
":. c #B2433F",
">. c #823F41",
",. c #884749",
"<. c #954947",
"1. c #885656",
"2. c #915255",
"3. c #A64745",
"4. c #B64E4C",
"5. c #81635D",
"6. c #876B66",
"7. c #85736D",
"8. c #8B756E",
"9. c #92746D",
"0. c #806C70",
"q. c #947A73",
"w. c #987E78",
"e. c #91827C",
"r. c #9C827C",
"t. c #3E6C89",
"y. c #466B86",
"u. c #5C7384",
"i. c #467796",
"p. c #547996",
"a. c #587A97",
"s. c #7F6A82",
"d. c #737984",
"f. c #467EA1",
"g. c #816D85",
"h. c #877A8E",
"j. c #977B86",
"k. c #907A95",
"l. c #57819C",
"z. c #6E8498",
"x. c #4E85AA",
"c. c #4C87AB",
"v. c #458AB1",
"b. c #4C8AB2",
"n. c #528EB7",
"m. c #4D93BD",
"M. c #5092BC",
"N. c #6588A5",
"B. c #6792AD",
"V. c #7592AA",
"C. c #6B99B6",
"Z. c #639ABD",
"A. c #7397B1",
"S. c #4D97C3",
"D. c #4E9CCA",
"F. c #559AC3",
"G. c #5A9BC7",
"H. c #519DCA",
"J. c #50A0CF",
"K. c #5BA3CD",
"L. c #53A4D4",
"P. c #5AA7D5",
"I. c #5BA8D4",
"U. c #55ABDD",
"Y. c #5BACDB",
"T. c #68A4C8",
"R. c #70A6C7",
"E. c #56AEE1",
"W. c #5AAEE1",
"Q. c #56B0E4",
"!. c #59B1E5",
"~. c #57B3E8",
"^. c #58B6EC",
"/. c #5AB8EE",
"(. c #5CBCF4",
"). c #5DBFF8",
"_. c #8C8486",
"`. c #988782",
"'. c #848793",
"]. c #998B94",
"[. c #97979B",
"{. c #A48B86",
"}. c #A9928A",
"|. c #A28B9F",
" X c #A49699",
".X c #B59996",
"XX c #AEA29F",
"oX c #BAA39A",
"OX c #908EA8",
"+X c #9499A6",
"@X c #AA9BA7",
"#X c #B5A2A8",
"$X c #ABAEB2",
"%X c #B9A5B6",
"&X c #D6ACAA",
"*X c #CAB3A9",
"=X c #C8C3BE",
"-X c #DDC2B7",
";X c #E4C5B9",
":X c #C8BBC0",
">X c #D5CCCD",
",X c #EBD2C7",
"<X c #F6E1D4",
/* pixels */
"(.(.(.(.(.(.(.(.(.(.(.(.(.(.(.(.(.(.(.(.(.(.(.(.(.(.(.(.(.(.(.(.(.(.(.(.(.(.(.(.(.(.(.(.(.(.(.(.(.(.(.(.(.(.(.",
"(.(.(.(.(.(.(.(.(.(.(.(.(.(.(.(.(.(.(.(.(.(.(.(.(.(.(.(.(.(.(.(.(.(.(.(.(.(.(.(.(.(.(.(.(.(.(.(.(.(.(.(.(.(.(.",
"(.(.(.(.(.(.(.(.(.(.(.(.(.(.(.(.(.(.(.(.(.(.(.(.(.(.(.(.(.(.(.(.(.(.(.(.(.(.(.(.(.(.(.(.(.(.(.(.(.(.(.(.(.(.(.",
"(.(.(.(.(.(.(.(.(.(.(.(.(.(.(.(.(.(.(.(.(.(.(.(.(.(.(.(.(.(.(.(.(.(.(.(.(.(.(.(.(.(.(.(.(.(.(./.(.(.(.(.(.(.(.",
"(.(.(.(.(.(.(.(.(.(.(.(.(.(.(.(.(.(.(.(.(.(.(.(.(.(.(.(.(.(.(.(.(.(.(.(.(.(.(.(.(.(.(.(.(.(.(.(.(.(.(.(.(.(.(.",
"(.(.(.(.(.(.(.(.(.(.(.(.(.(.(.(.(.(.(.(.(.(.(.(.(.(.(.(.(.(.(.(.(.(.(.(.(.(.(.(.(.(.(.(.(.(.(.(.(.(.(.(.(.(.(.",
"(.(.(.(.(.(.(.(.(.(.(.(.(.(.(.(.(.(.(.(.(.(.(.(.(.(.(.(.(.(.(.(.(.(.(.(.(.(.(.(.(.(.(.(.(.(.(.(.(.(.(.(.(.(.(.",
"(.(.(.(.(.(.(.(.(.(.(.(.(.(.(.(.(.(.(.(.(.(.(.(.(.(.(.(.(.(.(.(.(.(.(.(.(.(.(.(.(.(.(.(.(.(.(.(.(.(.(.(.(.(.(.",
"(.(.(.(.(.(.(.(.(.(.(.(.(.(./.(.(.(.(.(.(.(.(.(.(.(.(.(.(.(.(.(.(.(.(.(.(.(.(.(.(.(.(.(.(.(.(.(.(.(.(.(.(./.(.",
"(.(.(.(.(.(.(.(.(.(.(.(.(.(.(.(.(.(.(.(.(.(.(.(.(.(.(.(.(.(.(.(.(.(.(.(.(.(.(.(.(.(.(.(.(.(.(.(.(.(.(.(.(.(.(.",
"(.(.(.(.(.(.(.(.(.(.(.(.(.(.(.(.(.(.(.(.(.(.(./.(.(.(.(.(.(.(.(.(.(.(.(.(.(.(.(.(.(.(.(.(.(.(.(.(.(.(.(.(.(.(.",
"(.(.(.(.(.(.(.(.(.(.(.(.(.(.(.(.(.(.(.(.(.(.(.(.(.(.(.(.(.(.(.(.(.(.(.(.(.(.(.(.(.(.(.(.(.(.(.(.(.(.(.(.(.(.(.",
"(.(.(.(.(.(.(.(.(.(.(.(.(.(.(.(.(.(.(./.(.(.(.(.(.(.(.(.(.(.(.(.(.(.(.(.(.(.(.(.(.(.(.(.(.(.(.(.(./.(.(.(.(.(.",
"(.(.(.(.(.(.(.(.(.(.(.(.(.(.(.(.(.(.(.(.(.(.(.(.(.(.(.(.(.(.(.(.(.(.(.(.(.(.(.(.(.(.(.(.(.(.(.(.(.(.(.(.(.(.(.",
"(.(.(.(.(.(.(.(.(.(.(.(.(.(.(.(.(.(.(.(.(.(.(.(.(.(.(.(.(.(.(.(.(.(.(.(.(.(.(.(.(.(.(.(.(.(.(.(.(.(.(.(.(.(.(.",
"(.(.(.(.(.(.(.(.(.(.(.(.(.(.(.(.(.(.(.(.(.(.(.(.(.(.(.(.(.(.(.(.(.(.(.(.(.(.(.(.(.(.(.(.(.(.(.(.(.(.(.(.(.(.(.",
"(.(.(.(.(.(.(.(.(.(.(.(.(.(.(.(.(.(.(.(.(.(.(.(.(.(.(.(.(.(.(.(.(.(.(.(.(.(.(.(.(.(.(.(.(.(.(.(.(.(.(.(.(.(.(.",
"(.(.(.(.(.(.(.(.(.(.(.(.(.(.(.(.(.(.(.(.(.(.(.(.(.(.(.(.(.(.(.(.(.(.(.(.(.(.(.(.(.(.(.(.(.(.(.(.(.(.(.(.(.(.(.",
"(.(.(.(.(.(.(.(.(.(.(.(.(.(.(.(.(.(.(.(.(.(.).).(.(.(.(.(.(.(.(.(.(.(.(.(.(.(.(.(.(.(.(.(.(.(.(.(.(.(.(.(.(.(.",
"(.(.(.(.(.(.(.(.(.(.(.(.(.(.(.(.(.(.(.(.(.E.Y.Y.!.(.(.(.(.(.(.(.(.(.(.(.(.(.(.(.(.(.(.(.(.(.(.(.(.(.(.(.(.(.(.",
"(.(.(.(.(.(.(.(.(.(.(.(.(.(.(.(.(.(.(.(.R.$X>X=X$XT./.(.(.(.(.(.(.(.(.(.(.(.(.(.(.(.(.(.(.(.(.(.(.(.(.(.(.(.(.",
"(.(.(.(.(.(.(.(.(.(.(.(.(.(.(.(.(.(.(.I.>X<X,X;X-XXXK.(.(.(.(.(.(.(.(.(.(.(.(.(.(.(.(.(.(.(.(.(.(.(.(.(.(.(.(.",
"(.(.(.(.(.(.(.(.(.(.(.(.(.(.(.(.(.(.(.R.;X,X-X.X*XoXB.).(.(.(.(.(.(.(.(.(.(.(.(.(.(.(.(.(.(.(.(.(.(.(.(.(.(.(.",
"(.(.(.(.(.(.(.(.(.(.(.(.(.(.(.(.(.(.(.A.*X*X7.7.6.6.l.L.~.(.(.).(.(.(.(.(.(.(.(.(.(.(.(.(.(.(.(.(.(.(.(.(.(.(.",
"(.(.(.(.(.(.(.(.(.(.(.(.(.(.(.(.(.(./.l.W {.t 7.e.h b d.u.p.i.L.(.(.(.(.(.(.(.(.(.(.(.(.(.(.(.(.(.(.(.(.(.(.(.",
"(.(.(.(.(.(.(.(.(.(.(.(.(.(.(.(.(.(.).U.=.}.oX`.E 9 g #.n F ' o.x.x.J.(.(.(.(.(.(.(.(.(.(.(.(.(.(.(.(.(.(.(.(.",
"(.(.(.(.(.(.(.(.(.(.(.(.(.(.(.(.(.(.(./.C.oX}.h R j >.@.- - & n =.z.E.(./.(.(.(.(.(.(.(.(.(.(.(.(.(.(.(.(.(.(.",
"(.(.(.(.(.(.(.(.(.(.(.(.(.(.(.(.(.(.(.(.U.=.D R ! h j %.' F L +.d.f.C.V.z.N.Z.!.(.(.(.(.(.(.(.(.(.(.(.(./.(.(.",
"(.(.(.(.(./.(.(.(.(.(.(.(.(.(.(.(.(.(.(.U.o.{.6.h $.S ( @.@.T u h.@X#X:X#Xk.&.o.n.(.(.(.(.(.(.(.(.(.(.(.(.(.(.",
"(.(.(.(.(.(.(.(.(.(.(.(.(.(.(.(.(.(.(.(.x.I t y I  Xe.) $.$.d ,.$X*X>X>X@Xg.&.H J n.(.(.(.(.(.(.(.(.(.(.(.(.(.",
"(.(.(.(.(.(.(.(.(.(.(.(.(.(.(.(.(.(.(.(.p.J * m ) }.oX7.( ! S %.].%X%X@Xh.&.} H > _ W.(.(.(.(.(.(.(.(.(.(.(.(.",
"(.(.(.(.(.(.(.(.(.(.(.(.(.(.(.(.(.(.)./.p.J P @.R r.#Xe.e.( h ].@Xk.k.k.g. .L v = Z L.(.(.(.(.(.(.(.(.(.(.(.(.",
"(.(.(.).(.(.(.(.(.(.(.(.(.(.(.(.(.(.^.x.z.=.z.=.h 7.W R r.7.h #.XX*.g.g.&.} v = v z E.(.(.(.(.(.(.(.(.(.(.(.(.",
"(.(.Q.D.(.(.(.(.(.(.(.(.(.(.(.(.(.(.(.H.M.L.!.'.@ ! t @ h E e + *.|.*.I n v v v - i.(.(.(.(.(.(.(.(.(.(.(.(.(.",
"(.(.E.V N.Y.(.).(.(.(.(.(.(.(.(.(.(.(.).).).!.[.9 + + . e ! . j u L 0...L } n n y.^.(.(.(.(.(.(.(.(.(.(.(.(.(.",
"(.(.(.F._.[.V.T.~.(.(.(.(.(.(.(.(.(.(.(.).(.R.e.+ o / e.( 7.h 8.9 . 8 d f f ` L.(.(.(.(.(.(.(.(.(.(.(.(.(.(.(.",
"(.(.(.(.Z.XX*X.XOXR.E.(.(.(.(.(.(.(.(.!.S.K.[.W   9 8.$.R W e.8.5   , a a ] W.).(.(.(.(.(.(.(.(.(.(.(.(.(.(.(.",
"(.(.(.(.(.I.+X*X&X&X@XOXT.~.(.(.(.(.~.m.y Y  .$   o ^ E e e ) 7.! 1   7 ;.T L.).(.(.(.(.(.(.(.(.(.(.(.(.(.(.(.",
"(.(.(.(.(.(.E.Z.+X#X#X.X}.].A.P.(.Y.N Z >.<.f O     h #.$.7.8.$.9.1 X   a ;. .!.(.(.(.(.(.(.(.(.(.(.(.(.(.(.(.",
"(.(.(.(.(.(.(.(.W.G.P.K.B.h.w.j.z.X.$ w <.T l . o ! oXE e e 9 7.q.X < , < ;.-.a.(.(.(.(.(.(.(.(.(.(.(.(.(.(.(.",
"(.(.(.(.(.(.(.(.(.).(.).(.~.G.N.+.: 0 g p P z o / }.j 1 , , 1 5.j., < < , a :.1.E.(.(.(.(.(.(.(.(.(.(.(.(.(.(.",
"(.(.(.(.(.(.(.(.(.(.(.(.(.(.(.(.v.$ q d p = % 9.w.w , < < 2 , 5.q.< < X   8 3.:.a.(.(.(.(.(.(.(.(.(.(.(.(.(.(.",
"(.(.(.(.(.(.(.(.(.(.(.(.(.(.(.).i.; X.U Y S {.9.8 . 2 2 2 2 2 5.q.< 7 + # < >.4.&./.(.(.(.(.(.(.(.(.(.(.(.(.(.",
"(.(.(.(.(.(.(.(.(.(.(.(.(.(.(.(.!.H.S. .~ `.w.4 5 ; 2 3 3 3 2 6.w.7 4 6 m < a 4.2.L.).(.(.(.(.(.(.(.(.(.(.(.(.",
"(.(.(.(.(.(.(.(.(.(.(.(.(.(.(.(.(.).i.5.S Q w 2 > V 4 4 1 2 w 8.6.3 3 6 t.6 8 4.,.F.).(.(.(.(.(.(.(.(.(.(.(.(.",
"(.(.(.(.(.(.(.(.(.(.(.(.(.(.(.(.(.(.b./ i c e 2 B f.o l V o #.[.#.u 6 q S.v q >.c S.).(.(.(.(.(.(.(.(.(.(.(.(.",
"(.(.(.(.(.(.(.(.(.(.(.(.(.(.(.(.(.(.E.O.H k y 1 C U.% X.Q.t.o.R / 6.b = E.f.n.2.p.(.(.(.(.(.(.(.(.(.(.(.(.(.(.",
"(.(.(.(.(.(.(.(.(.(.(.(.(.(.(.(.(.(.(.y.L n $ M D.(.B C (.).m.A r U L +.p.^.G.2.a.).(.(.(.(.(.(.(.(.(.(.(.(.(.",
"(.(.(.(.(.(.(.(.(.(.(.(.(.(.(.(.(.(.).f.K n k v.).(.~.~.(.(.(.b.G k c } } i.f.| P.(.(.(.(.(.(.(.(.(.(.(.(.(.(.",
"(.(.(.(.(.(.(.(.(.(.(.(.(.(.(.(.(.(.).x.| F F t.(.(.(.(.(.(.(.(.L.i.M n ] +.` i.(.(.(.(.(.(.(.(.(.(.(.(.(.(.(.",
"(.(.(.(.(.(.(.(.(.(.(.(.(.(.(.(.(.(.(.x.@.@.+.X.!.(.(.(.(.(.(.(.).(.D.[ O.| F f.(.(.(.(.(.(.(.(.(.(.(.(.(.(.(.",
"(.(.(.(.(.(.(.(.(.(.(.(.(.(.(.(.(.W.a.F v : A _ E.(.(.(.(.(.(.(.(.(.).E.y.= v [ (.(.(.(.(.(.(.(.(.(.(.(.(.(.(.",
"(.(.(.(.(.(.(.(.(.(.(.(.(.(.(.(./.i.A : * * > B E.(.(.(.(.(.(.(.(.(.(.).D.M J P L.(.(.(.(.(.(.(.(.(.(.(.(.(.(.",
"(.(.(.(.(.(.(.(.(.(.(.(.(.(.(.(.!.X.z ; m t.m.U.(.(.(.(.(.(.(.(.(.(.(.(.Y.G l _ H.(.(.(.(.(.(.(.(.(.(.(.(.(.(.",
"(.(.(.(.(.(.(.(.(.(.(.(.(.(.(.(.(.!.J.D.U.(.).(.(.(.(.(.(.(.(.(.(.(.(.(.^.m.S.E.(.(.(.(.(.(.(.(.(.(.(.(.(.(.(."
};
