/* XPM */
static char *enemy_7[] = {
/* columns rows colors chars-per-pixel */
"55 55 200 2 ",
"   c #340A06",
".  c #350E0B",
"X  c #3C0E0A",
"o  c #34110D",
"O  c #3F140F",
"+  c #3B1512",
"@  c #3E1B18",
"#  c #36201D",
"$  c #3E211F",
"%  c #2C2121",
"&  c #2A2528",
"*  c #392829",
"=  c #352C35",
"-  c #27323B",
";  c #36313A",
":  c #3A333B",
">  c #450F0A",
",  c #4A0F0C",
"<  c #46120D",
"1  c #4C110E",
"2  c #50140C",
"3  c #421613",
"4  c #4C1512",
"5  c #471915",
"6  c #4B1916",
"7  c #411D1B",
"8  c #501510",
"9  c #531916",
"0  c #48201E",
"q  c #492929",
"w  c #562927",
"e  c #5B322E",
"r  c #462D32",
"t  c #42323A",
"y  c #4C3C3D",
"u  c #593735",
"i  c #652826",
"p  c #7E2E2E",
"a  c #683836",
"s  c #743434",
"d  c #7B3C3B",
"f  c #58423D",
"g  c #66423D",
"h  c #2C3844",
"j  c #3C3543",
"k  c #3D3D49",
"l  c #433B44",
"z  c #443C4A",
"x  c #493F4E",
"c  c #713A40",
"v  c #3D404F",
"b  c #2E4453",
"n  c #354959",
"m  c #3A596F",
"M  c #3F647D",
"N  c #47444B",
"B  c #584846",
"V  c #53424F",
"C  c #484755",
"Z  c #544A55",
"A  c #564A58",
"S  c #575459",
"D  c #5A525D",
"F  c #67484A",
"G  c #634E4A",
"H  c #784A4B",
"J  c #68524E",
"K  c #634C53",
"L  c #6A4F50",
"P  c #6B5B56",
"I  c #6A5758",
"U  c #755655",
"Y  c #785957",
"T  c #6F615C",
"R  c #74635D",
"E  c #7D645E",
"W  c #404E60",
"Q  c #495767",
"!  c #5C5765",
"~  c #515669",
"^  c #445E74",
"/  c #635B66",
"(  c #665868",
")  c #6D5C6D",
"_  c #735A69",
"`  c #655F70",
"'  c #715F73",
"]  c #486276",
"[  c #43657B",
"{  c #516678",
"}  c #6C6262",
"|  c #69646C",
" . c #796A65",
".. c #766A69",
"X. c #656B76",
"o. c #786579",
"O. c #6B727C",
"+. c #7B7075",
"@. c #8B3736",
"#. c #903434",
"$. c #A73936",
"%. c #B1413E",
"&. c #8F4644",
"*. c #984544",
"=. c #82565D",
"-. c #AC4A48",
";. c #B24745",
":. c #B7504D",
">. c #856865",
",. c #8C6F69",
"<. c #877774",
"1. c #8A7C79",
"2. c #947876",
"3. c #91837E",
"4. c #9D857D",
"5. c #3F7596",
"6. c #476B84",
"7. c #546E87",
"8. c #457594",
"9. c #4C7595",
"0. c #4A7C9E",
"q. c #557791",
"w. c #7F6B83",
"e. c #647689",
"r. c #457EA2",
"t. c #487EA1",
"y. c #877688",
"u. c #8F768C",
"i. c #A67E82",
"p. c #6F808F",
"a. c #75818F",
"s. c #6D819B",
"d. c #798F9C",
"f. c #4A81A4",
"g. c #4985AB",
"h. c #4A86AB",
"j. c #5182A3",
"k. c #5689AE",
"l. c #458AB3",
"z. c #4B91BB",
"x. c #5293BD",
"c. c #5A95BB",
"v. c #6E90AC",
"b. c #7592AB",
"n. c #679ABA",
"m. c #7AA4BC",
"M. c #4F99C5",
"N. c #4D9BC9",
"B. c #5195C0",
"V. c #529CC9",
"C. c #649EC2",
"Z. c #4FA0CF",
"A. c #5AA1CC",
"S. c #55A5D5",
"D. c #56A7D6",
"F. c #55ABDD",
"G. c #5AABDB",
"H. c #68A8CD",
"J. c #70A5C7",
"K. c #63AAD4",
"L. c #56AFE3",
"P. c #58AEE0",
"I. c #56B1E5",
"U. c #58B1E5",
"Y. c #57B4E9",
"T. c #59B6EC",
"R. c #5AB8EF",
"E. c #5CBCF4",
"W. c #5DBFF8",
"Q. c #84818B",
"!. c #8B8589",
"~. c #968A88",
"^. c #878A99",
"/. c #9A8995",
"(. c #A18C83",
"). c #AB938C",
"_. c #A98A90",
"`. c #AC9A93",
"'. c #A2929C",
"]. c #B59A94",
"[. c #BDA49B",
"{. c #8593A2",
"}. c #A894A6",
"|. c #B29FB0",
" X c #83A1B2",
".X c #AFA2A7",
"XX c #B6A2A9",
"oX c #AFB0B5",
"OX c #B9B8BB",
"+X c #C8AAA3",
"@X c #D3ADA9",
"#X c #D4B8AC",
"$X c #C4BCB7",
"%X c #D6B0B0",
"&X c #E4C9BE",
"*X c #D4C7CD",
"=X c #DFD5CC",
"-X c #DACFD3",
";X c #E8D2C7",
":X c #F3DDD0",
/* pixels */
"E.E.E.E.E.E.E.E.E.E.E.E.E.E.E.E.E.E.E.E.E.E.E.E.E.E.E.E.E.E.E.E.E.E.E.E.E.E.R.E.E.E.E.E.E.E.E.E.E.E.E.E.E.E.E.",
"E.E.E.E.E.E.E.E.E.E.E.E.E.E.E.E.E.R.E.E.E.E.E.E.E.E.E.E.E.E.E.E.E.E.E.E.E.E.E.E.E.E.E.E.E.E.E.E.E.E.E.E.E.E.E.",
"E.E.E.E.E.E.E.E.E.E.E.E.E.E.E.E.E.E.E.E.E.E.E.E.E.E.E.E.E.E.E.E.E.E.E.E.E.E.E.E.E.E.E.E.E.E.E.E.E.E.E.E.E.E.E.",
"E.E.E.E.E.E.E.E.E.E.E.E.E.E.E.E.E.E.E.E.E.E.E.E.E.E.E.E.R.E.E.E.E.E.E.E.E.E.E.E.E.E.E.E.E.E.E.E.E.E.E.E.E.E.E.",
"E.E.E.E.E.E.E.E.E.E.E.E.E.E.E.E.E.E.E.E.E.E.E.E.E.E.E.E.E.E.E.E.E.E.E.E.E.E.E.E.E.E.E.E.E.E.E.E.E.E.E.E.E.E.E.",
"E.E.E.E.E.E.E.E.E.E.E.E.E.E.E.E.E.E.E.E.E.E.E.E.E.E.E.E.E.E.E.E.E.E.E.E.E.E.E.E.E.E.E.E.E.E.E.E.E.E.E.E.E.E.E.",
"E.E.E.E.E.E.E.E.E.E.E.E.E.E.E.E.E.E.E.E.E.E.E.E.E.E.E.E.E.E.E.E.E.E.E.E.E.E.E.E.E.E.E.E.E.E.E.E.E.E.E.E.E.E.E.",
"E.E.E.E.E.E.E.E.E.E.E.E.E.E.E.E.E.E.E.E.E.E.E.E.E.E.E.E.E.E.E.E.E.E.E.R.E.E.E.E.E.E.E.E.E.E.E.E.E.E.E.E.E.E.E.",
"E.E.E.E.E.E.E.E.E.E.E.E.E.E.E.E.E.E.E.E.E.E.E.E.E.E.E.E.E.E.E.E.E.E.E.E.E.E.E.E.E.E.E.E.E.E.E.E.E.E.E.E.E.E.E.",
"E.E.E.E.E.E.E.E.E.E.E.E.E.E.E.E.E.E.E.E.E.E.E.E.E.E.E.E.E.E.E.E.E.E.E.E.E.E.E.E.E.E.E.E.E.E.E.E.E.E.E.E.E.E.E.",
"E.E.E.E.E.E.E.E.E.E.E.E.E.E.E.E.E.E.E.E.E.E.E.E.E.E.E.E.E.E.E.E.E.E.E.E.E.R.E.E.E.E.E.E.E.E.E.E.E.E.E.E.E.E.E.",
"E.E.E.E.E.E.E.E.E.E.E.E.E.E.E.E.E.E.E.E.E.E.E.E.E.E.E.E.E.E.E.E.E.E.E.E.E.E.E.E.E.E.E.E.E.E.E.E.E.E.E.E.E.E.E.",
"E.E.E.E.E.E.E.E.E.E.E.E.E.E.E.E.E.E.E.E.E.E.E.E.E.E.E.E.E.E.E.E.E.E.E.E.E.E.E.E.E.E.E.E.E.E.E.E.E.E.E.E.E.E.E.",
"E.E.E.E.E.E.E.E.E.E.E.E.E.E.E.E.E.E.E.E.E.E.E.E.E.E.E.E.E.E.E.E.E.E.E.E.E.E.E.E.E.E.E.E.E.E.E.E.E.E.E.E.E.E.E.",
"E.E.E.E.E.E.E.E.E.E.E.E.E.E.E.E.E.E.E.E.E.E.E.E.E.E.E.E.E.E.E.E.E.E.E.E.E.E.E.E.E.E.E.E.E.E.E.E.E.E.E.E.E.E.E.",
"E.E.E.E.E.E.E.E.E.E.E.E.E.R.E.E.E.E.E.E.E.E.E.E.E.E.E.E.E.E.E.E.E.E.E.E.E.E.E.E.E.E.E.E.E.E.E.E.E.E.E.E.E.E.E.",
"E.E.E.E.E.E.E.E.E.E.E.E.E.E.E.E.E.E.E.K.H.H.K.R.W.W.E.E.E.E.E.E.E.E.E.E.E.E.E.E.E.E.E.E.E.E.E.E.E.E.E.E.R.E.E.",
"E.E.E.E.E.E.E.E.E.E.E.E.E.E.E.E.E.E.K.OX=X;X$X XP.W.E.E.E.E.E.E.E.E.E.E.E.E.E.E.E.E.E.E.E.E.E.E.E.E.E.E.E.E.E.",
"E.E.E.E.E.E.E.E.E.E.E.E.E.E.E.E.E.I.oX:X&X&X&X#Xb.R.E.E.E.E.E.E.E.E.E.E.E.E.E.E.E.E.E.E.E.E.E.E.E.E.E.E.E.E.E.",
"E.E.E.E.E.E.E.E.E.E.E.E.E.E.E.E.E.G.OX;X&X].[.+X!.Y.E.E.E.E.E.E.E.E.E.E.E.E.E.E.E.E.E.E.E.E.E.E.E.E.E.E.E.E.E.",
"E.E.E.E.E.E.E.E.E.E.E.E.E.E.E.E.E.c.3.[.R R <.,.O.Y.E.E.E.E.E.E.E.E.E.E.E.E.E.E.E.E.E.E.E.E.E.E.E.E.E.E.E.E.E.",
"E.E.E.E.E.E.E.E.E.E.E.E.E.E.E.E.E.S.S (.T  .(.G j.E.E.E.E.E.E.E.E.E.E.E.E.E.E.E.E.E.E.E.E.E.E.E.E.E.E.E.E.E.E.",
"E.E.E.E.E.E.E.E.E.E.R.E.E.E.E.E.E.T.d.(.+X3.T [ q.9.Z.U.F.T.W.E.E.E.E.E.E.E.E.E.E.E.E.E.E.E.E.E.E.E.E.E.E.E.E.",
"E.E.E.E.E.E.E.E.E.E.E.E.E.E.E.E.E.E.A.).4.f J N s p g X.p.S.W.E.E.E.E.E.E.E.E.E.E.E.E.E.E.E.E.E.E.E.E.E.E.E.E.",
"E.E.E.E.E.E.E.E.E.E.E.E.E.E.E.E.E.E.I.e.E R G J @.@.Y ( ! f.E.E.E.E.E.E.E.E.E.E.E.E.E.E.E.E.E.E.E.E.E.E.E.E.E.",
"E.E.E.E.E.E.E.E.E.E.E.E.E.E.E.E.E.E.I.e.,.a f J g P | ; j ` N.E.E.E.E.E.E.E.E.E.E.E.E.E.E.E.E.E.E.E.E.E.E.E.E.",
"E.E.E.E.E.E.E.E.E.E.E.E.E.E.E.E.E.E.x.! a i G ..g R / k = D 9.E.E.E.E.E.E.E.E.E.E.E.E.E.E.E.E.E.E.E.E.E.E.E.E.",
"E.E.E.E.E.E.E.E.E.E.E.E.E.E.E.E.E.E.f.A * f ..`. .R ..! j N 7.E.E.E.E.E.E.E.E.E.E.E.E.E.E.E.E.E.E.E.E.E.E.E.E.",
"E.E.E.E.E.E.E.E.E.E.E.E.E.E.E.E.E.I.7.D S / ..[.~. .T } ( ( e.V.E.E.E.E.E.E.E.E.E.E.E.E.E.E.E.E.E.E.E.E.E.E.E.",
"E.R.E.E.E.E.E.E.E.E.E.E.E.E.E.E.R.f.a.p.p.3.T [.[...R } +.+.<.{ L.E.E.E.E.E.E.E.E.E.E.E.E.E.E.E.E.E.E.E.E.E.E.",
"E.E.E.E.E.E.E.E.E.E.E.E.E.E.E.E.R.Y.F.Y.H...P <.T <./..X$XoX}.Q.c.T.E.E.E.E.E.E.E.E.E.E.E.E.E.E.E.E.E.E.E.E.E.",
"E.E.E.E.E.E.E.E.E.E.E.E.E.E.E.E.E.E.E.E.m.J f P * 3./.XX*X-X*X}.y.v.R.E.E.E.E.E.E.E.E.E.E.E.E.E.E.E.E.E.E.E.E.",
"E.E.E.E.E.E.E.E.E.E.E.E.E.E.E.E.E.E.E.Y.{.J o $ $ .X/./.}.|.}.u.w.' t.W.E.E.E.E.E.E.E.E.E.E.E.E.E.E.E.E.E.E.E.",
"E.E.E.E.E.E.E.E.E.E.E.E.E.E.E.E.E.T.R.K.'.f   w >.'.y.u.u.u.y.' D x ~ P.E.E.E.E.E.E.E.E.E.E.E.E.E.E.E.E.E.E.E.",
"E.E.E.E.E.E.E.E.E.E.E.E.E.E.E.E.W.f.C O.G o . E 2.u./.) y.y.' ( x l x B.W.E.E.E.E.E.E.E.E.E.E.E.E.E.E.E.E.E.E.",
"E.E.E.E.E.E.E.E.E.E.E.E.E.E.E.W.R.~ s &.0   . T J B o.w.V A A N z r z B.W.E.E.E.E.E.E.E.E.E.E.E.E.E.E.E.E.E.E.",
"E.E.E.E.E.E.E.E.E.E.E.E.E.E.R.A.z.G *.d 0     u P P I ) ( V l : r j : B.E.E.E.E.E.E.E.E.E.E.E.E.E.E.E.E.E.E.E.",
"E.E.E.E.E.E.E.E.E.E.E.E.E.E.I.b b L d 0 * 0 < 2. .B J u F V V l = r #.' T.E.E.E.E.E.E.E.E.E.E.E.E.E.E.E.E.E.E.",
"E.E.E.E.E.E.E.E.E.E.E.E.E.Y.G.n % s w e q 6 g `.w X < 5 a Y 7 + > 9 $.#.t.E.E.E.E.E.E.E.E.E.E.E.E.E.E.E.E.E.E.",
"E.E.E.E.E.E.E.E.E.Y.G.C.v.^.1.f % e s i < 5 4.H > < > > a ).5 < > > @.$._ T.E.E.E.E.E.E.E.E.E.E.E.E.E.E.E.E.E.",
"W.W.W.W.R.I.K.J. X}._.i.i.y.s.5.& & 7 5 1 Y 2.4 1 1 1 1 a ).6 ,   > i ;.*.B.W.E.E.E.E.E.E.E.E.E.E.E.E.E.E.E.E.",
"N.B.n.b.{.'.].%X%X/.b.c.Z.I.R.S.h o u J e ).e 1 2 1 1 1 g ).9 4 & 3 9 ;.;.e.E.E.E.E.E.E.E.E.E.E.E.E.E.E.E.E.E.",
"8.X._.[.@X@X+XXX{.S.E.E.W.E.E.Y.m < L | 4.1.+ 1 1 8 1 1 U ].9 , j q 1 *.:.' T.E.E.E.E.E.E.E.E.E.E.E.E.E.E.E.E.",
"E.F.H.n.n.n.C.Z.L.E.E.E.E.E.W.Z.* @ U K 3.X.+ q n 5 1 r ~.<.9 , n j , @.-.=.P.E.E.E.E.E.E.E.E.E.E.E.R.E.E.E.E.",
"E.E.E.E.E.E.E.E.E.E.E.E.E.E.E.M * - U F S ] # W S.k ; v Q.1.F 3 r.6.X a c ! Y.E.E.E.E.E.E.E.E.E.E.E.E.E.E.E.E.",
"E.E.E.E.E.E.E.E.E.E.E.E.E.E.L.: ] l.I F ; N % M E.I.I.0.y L >.l l.M.t._ =.r.E.E.E.E.E.E.E.E.E.E.E.E.E.E.E.E.E.",
"E.E.E.E.E.E.E.E.E.E.E.E.E.E.S.8.U.E.7.A j z 5.I.E.E.E.F.C t J A z.W.E.w.=.G.E.E.E.E.E.E.E.E.E.E.E.E.E.E.E.E.E.",
"E.E.E.E.E.E.E.E.E.E.E.E.E.E.E.E.E.E.0.D z h N.W.E.E.E.E.h.v ; T e.r.T.( e.E.E.E.E.E.E.E.E.E.E.E.E.E.E.E.E.E.E.",
"E.E.E.E.E.E.E.E.E.E.E.E.E.E.E.E.E.E.f.Z z j f.E.E.E.E.E.E.f.k : ( Q M.8.F.E.E.E.E.E.E.E.E.E.E.E.E.E.E.E.E.E.E.",
"E.E.E.E.E.E.E.E.E.E.E.E.E.E.E.E.E.W.h.| C Z 5.E.E.E.E.E.E.E.t.C D ) { N.E.E.E.E.E.E.E.E.E.E.E.E.E.E.E.E.E.E.E.",
"E.E.E.E.E.E.E.E.E.E.E.E.E.E.E.E.E.F.6.| | | [ R.E.E.E.E.E.E.E.9.| ! Z f.W.E.E.E.E.E.E.E.E.E.E.E.E.E.E.E.E.E.E.",
"E.E.E.E.E.E.E.E.E.E.E.E.E.E.E.E.k.~ l : : N [ E.E.E.E.E.E.E.E.L.^ ; l 6.E.E.E.E.E.E.E.E.E.E.E.E.E.E.E.E.E.E.E.",
"E.E.E.E.E.E.E.E.E.E.E.E.E.E.E.N.C : = & : k 8.E.E.E.E.E.E.E.E.W.h.k Z ] E.E.E.E.E.E.E.E.E.E.E.E.E.E.E.E.E.E.E.",
"E.E.E.E.E.E.E.E.E.E.E.E.E.E.E.S.[ n b M h.M.G.E.E.E.E.E.E.E.E.E.h.N l W F.E.E.E.E.E.E.E.E.E.E.E.E.E.E.E.E.E.E.",
"E.E.E.E.E.E.E.E.E.E.E.E.E.E.E.E.E.I.I.E.W.E.E.E.E.E.E.E.E.E.E.E.D.8.f.V.T.E.E.E.E.E.E.E.E.E.E.E.E.E.E.E.E.E.E."
};
