/* XPM */
static char *enemy_28[] = {
/* columns rows colors chars-per-pixel */
"55 55 210 2 ",
"   c #350A06",
".  c #3C0D09",
"X  c #36100D",
"o  c #3C120C",
"O  c #2F1212",
"+  c #3A1614",
"@  c #381917",
"#  c #3B221E",
"$  c #242226",
"%  c #372729",
"&  c #292E35",
"*  c #342D32",
"=  c #352E3C",
"-  c #34323A",
";  c #3C333B",
":  c #3A3539",
">  c #430E0A",
",  c #4A0F0B",
"<  c #46110D",
"1  c #4B120E",
"2  c #481813",
"3  c #431C19",
"4  c #4D1E1A",
"5  c #511511",
"6  c #591E1B",
"7  c #621D1A",
"8  c #4B211D",
"9  c #4B2926",
"0  c #432B2B",
"q  c #572A27",
"w  c #4E312F",
"e  c #59322D",
"r  c #432A30",
"t  c #463437",
"y  c #563739",
"u  c #782826",
"i  c #6A302E",
"p  c #673837",
"a  c #7B383A",
"s  c #52413D",
"d  c #67413D",
"f  c #2B3C46",
"g  c #3B3541",
"h  c #3E3B45",
"j  c #343F4B",
"k  c #433945",
"l  c #4C3D47",
"z  c #423948",
"x  c #5A3F43",
"c  c #603C40",
"v  c #773F40",
"b  c #3B424F",
"n  c #3E4453",
"m  c #3B4A5B",
"M  c #324F62",
"N  c #39556A",
"B  c #3B5B73",
"V  c #39627B",
"C  c #444149",
"Z  c #4C424C",
"A  c #5B4442",
"S  c #5A4A49",
"D  c #5F514C",
"F  c #424B5B",
"G  c #534755",
"H  c #514B54",
"J  c #5C4B54",
"K  c #534B5A",
"L  c #5C4C5C",
"P  c #4F565D",
"I  c #57555A",
"U  c #5A535E",
"Y  c #684946",
"T  c #624249",
"R  c #644D4B",
"E  c #744647",
"W  c #6B534E",
"Q  c #6C5353",
"!  c #665956",
"~  c #6B5954",
"^  c #6B545B",
"/  c #725A57",
"(  c #6E605C",
")  c #74615B",
"_  c #7A625C",
"`  c #4B5566",
"'  c #445A6D",
"]  c #5C5863",
"[  c #665663",
"{  c #6B596C",
"}  c #745B66",
"|  c #436277",
" . c #556577",
".. c #5D707D",
"X. c #676469",
"o. c #6B636C",
"O. c #736464",
"+. c #786566",
"@. c #766965",
"#. c #7A6B66",
"$. c #7C6E6B",
"%. c #78706E",
"&. c #66687F",
"*. c #726D72",
"=. c #786579",
"-. c #6A717A",
";. c #7C7375",
":. c #852C2A",
">. c #9C302F",
",. c #843D3D",
"<. c #8E3C3B",
"1. c #A83A38",
"2. c #894A4B",
"3. c #974744",
"4. c #9C504C",
"5. c #B24846",
"6. c #AE504D",
"7. c #835F61",
"8. c #866B66",
"9. c #85726B",
"0. c #8B746E",
"q. c #90736B",
"w. c #8A7876",
"e. c #927C75",
"r. c #93817B",
"t. c #9D847C",
"y. c #3C6B87",
"u. c #3B7090",
"i. c #476B86",
"p. c #536D87",
"a. c #44718F",
"s. c #4B738E",
"d. c #447392",
"f. c #497A9A",
"g. c #567A97",
"h. c #697788",
"j. c #7B7987",
"k. c #7D7E92",
"l. c #477FA1",
"z. c #876E88",
"x. c #89748D",
"c. c #927C95",
"v. c #A27B82",
"b. c #7C8086",
"n. c #698397",
"m. c #768998",
"M. c #4785AB",
"N. c #5686A6",
"B. c #4D8DB4",
"V. c #4C8FB8",
"C. c #528EB4",
"Z. c #4B92BD",
"A. c #5895BA",
"S. c #638CA7",
"D. c #768DA2",
"F. c #7696AC",
"G. c #6797B8",
"H. c #7C9EB3",
"J. c #4E99C6",
"K. c #4E9DCB",
"L. c #5299C4",
"P. c #5B9BC3",
"I. c #539ECC",
"U. c #649FC3",
"Y. c #4FA0CF",
"T. c #56A0CC",
"R. c #5BA2CC",
"E. c #4FA1D1",
"W. c #52A3D3",
"Q. c #57A7D6",
"!. c #57A8D7",
"~. c #55AADC",
"^. c #5BADDD",
"/. c #6BA5C7",
"(. c #56AEE2",
"). c #56B1E5",
"_. c #58B0E4",
"`. c #57B4E9",
"'. c #59B6EC",
"]. c #59B8EF",
"[. c #5BBDF5",
"{. c #5CBCF4",
"}. c #898585",
"|. c #97888A",
" X c #988796",
".X c #859099",
"XX c #979499",
"oX c #A38D85",
"OX c #AA8886",
"+X c #A49089",
"@X c #AB938B",
"#X c #AE9193",
"$X c #A99999",
"%X c #BCA49B",
"&X c #8B9BAE",
"*X c #AA97A7",
"=X c #8FA3AE",
"-X c #9BA7B2",
";X c #AEABAF",
":X c #B9A8AB",
">X c #C7ABA4",
",X c #D8A8A6",
"<X c #D3B6AA",
"1X c #CEB2B8",
"2X c #DAC3B8",
"3X c #E5C6BA",
"4X c #CBBDC5",
"5X c #CDC2C7",
"6X c #D0C4CA",
"7X c #ECD7CC",
/* pixels */
"{.{.{.{.{.{.{.{.{.{.{.{.{.{.{.{.{.{.{.{.{.{.{.{.{.{.{.{.{.{.{.{.{.{.{.{.{.{.{.{.{.{.{.{.{.{.{.{.{.{.{.{.{.{.{.",
"{.{.{.{.{.{.{.{.{.{.{.{.{.{.{.{.{.{.{.{.{.{.{.{.{.{.{.{.{.{.{.{.{.{.{.{.{.{.{.{.{.{.{.{.{.{.{.{.{.{.{.{.{.{.{.",
"{.{.{.{.{.{.{.{.{.{.{.{.{.{.{.{.{.{.{.{.{.{.{.{.{.{.{.{.{.{.{.{.{.{.{.{.{.{.{.{.{.{.{.{.{.{.{.{.{.{.{.{.{.{.{.",
"{.{.{.{.{.{.{.{.{.{.{.{.{.{.{.{.{.{.{.{.{.{.{.{.{.{.{.{.{.{.{.{.{.{.{.{.{.{.{.{.{.{.{.{.{.{.{.{.{.{.{.{.{.{.{.",
"{.{.{.{.{.{.{.{.{.{.{.{.{.{.{.{.{.{.{.{.{.{.{.{.{.{.{.{.{.{.{.{.{.{.{.{.{.{.{.{.{.{.{.{.{.{.{.{.{.{.{.{.{.{.{.",
"{.{.{.{.{.{.{.{.{.{.{.{.{.{.{.{.{.{.{.{.{.{.{.{.{.{.{.{.{.{.{.{.{.{.{.{.{.{.{.{.{.{.{.{.{.{.{.{.{.{.{.{.{.{.{.",
"{.{.{.{.{.{.{.{.{.{.{.{.{.{.{.{.{.{.{.{.{.{.{.{.{.{.{.{.{.{.{.{.{.{.{.{.{.{.{.{.{.{.{.{.{.{.{.{.{.{.{.{.{.{.{.",
"{.{.{.{.{.{.{.{.{.{.{.{.{.{.{.{.{.{.{.{.].{.{.{.{.{.{.{.{.{.{.{.{.{.{.{.{.{.{.{.{.{.{.{.{.{.{.{.{.{.{.{.{.{.{.",
"{.{.{.{.{.{.{.{.{.{.{.{.{.{.].{.{.{.{.{.{.{.{.{.{.{.{.{.{.{.{.{.{.{.{.{.{.{.{.{.{.{.{.{.{.{.{.{.{.{.{.{.{.{.'.",
"{.{.{.{.{.{.{.{.{.{.{.{.{.{.{.{.{.{.{.{.{.{.{.{.{.{.{.{.{.{.{.{.{.{.{.{.{.{.{.{.{.{.{.{.{.{.{.{.{.{.{.{.{.{.{.",
"{.{.{.{.{.{.{.{.{.{.{.{.{.{.{.{.{.{.{.{.{.{.{.{.{.{.{.{.{.{.{.{.{.{.{.{.{.{.{.{.{.{.{.{.{.{.{.{.{.{.{.{.{.{.{.",
"{.{.{.{.{.{.{.{.{.{.{.{.{.{.{.{.{.{.{.{.{.{.{.{.{.{.{.{.{.{.{.{.{.{.{.{.{.{.{.{.{.{.{.{.{.{.{.{.{.{.{.{.{.{.{.",
"{.{.{.{.{.{.{.{.{.{.{.{.{.{.{.{.{.{.{.{.{.{.{.{.{.{.{.{.{.{.{.{.{.{.{.{.{.{.{.{.{.{.{.{.{.{.{.{.{.{.{.{.{.{.{.",
"{.{.{.{.{.{.{.{.{.{.{.{.{.{.{.{.{.{.{.{.{.{.{.{.{.{.{.{.{.{.{.{.{.{.{.{.{.{.].{.{.{.{.{.{.{.{.{.{.{.{.{.{.{.{.",
"{.{.{.{.{.{.{.{.{.{.{.{.{.{.{.{.{.{.{.{.{.{.{.{.{.{.{.{.{.{.{.{.{.{.{.{.{.{.{.{.{.{.{.{.{.{.{.{.{.{.{.{.{.{.{.",
"{.{.{.{.{.{.{.{.{.{.{.{.{.{.{.{.{.{.{.{.{.{.{.{.{.{.{.{.{.{.{.{.{.{.{.{.{.{.{.{.{.{.{.{.{.{.{.{.{.{.{.{.{.{.{.",
"{.{.{.{.{.{.{.{.{.{.{.{.{.{.{.{.{.{.{.{.{.{.{.{.{.{.{.{.{.{.{.{.{.{.{.{.{.{.{.{.{.{.{.{.{.{.{.{.{.{.{.{.{.{.{.",
"{.{.{.{.{.{.{.{.{.{.{.{.{.{.{.{.{.{.{.{.{.{.{.{.{.{.{.{.{.{.{.{.{.{.{.{.{.{.{.{.{.{.{.{.{.{.{.{.{.{.{.{.{.{.{.",
"{.{.{.{.{.{.{.{.{.{.{.{.{.{.{.{.{.{.{.{.{.{.{.{.{.{.{.{.{.{.{.{.{.{.{.{.{.{.{.{.{.{.{.{.{.{.{.{.{.{.{.{.{.{.{.",
"{.{.{.{.{.{.{.{.{.{.{.{.{.{.{.{.{.{.{.{.{.{.{.{.{.{.{.{.{.{.{.{.{.{.{.{.{.{.{.{.{.{.{.{.{.{.{.{.{.{.{.{.{.{.{.",
"{.{.{.{.{.{.{.{.{.{.{.{.{.{.{.{.{.{.{.{.{.{.{.{.{.{.{.[.{.{.{.{.[.[.{.{.{.{.{.{.{.{.{.{.{.{.{.{.{.{.{.{.{.{.{.",
"{.{.{.{.{.{.'.~.{.{.{.{.{.{.{.{.{.{.{.{.{.{.{.{.{.{.{.{.{.{.{.'.!.!.{._.K.{.{.{.{.{.{.{.{.{.{.{.{.{.{.{.{.{.{.",
"{.{.{.{.{.{.(.' _.{.{.{.{.{.{.{.{.{.{.{.{.{.{.{.{.].S.F.).N.g.p. . .s.h.N.{.{.{.{.{.{.{.{.{.{.{.{.{.{.{.{.{.{.",
"{.{.{.{.{.{.(.&.S.{.{.{.{.{.{.{.{.{.{.]._._.].{.{.L.P }.s.o.o.k z k K j.I.{.{.{.{.{.{.{.{.{.{.{.{.{.{.{.{.{.{.",
"{.{.{.{.{.{.'.F.$XP.[.[.[.[.{.{.].U.^./.-X$XF.R.].p.p ~ E E ] = = h X.N.].].{.{.{.{.{.{.{.{.{.{.{.{.{.{.{.{.{.",
"{.{.{.{.{.{.{.U.>X$XR.[.[.[.{.{.M.! -X7X7X3X2X.Xa.w 7 Y 2.a *.] ] X.;.&XH.G.^.{.{.{.{.{.{.{.{.{.{.{.{.{.{.{.{.",
"{.{.{.{.{.{.{._.-X,XXX^.[.{.{.{.V D 7X7X2X%X@X0.A u 9 ~ A Y ~ X.I g.x. X$X$Xn.Q.].{.{.{.{.{.{.{.{.{.{.{.{.{.{.",
"{.{.{.{.{.{.{.{.P.>X,X-X_.{.{.{.y.#.7X3X>X9.9.! J y S }.#.! ~ ~ T XX;X4X6X5XXXk.G.'.{.{.{.{.{.{.{.{.{.{.{.{.{.",
"{.{.{.{.{.{.{.{.].F.>X1X=X_.{.`...t.2X2XD s +XD I Z @.@X+XO.$.$. X X:X4X4X1Xc.j.o.N.].[.{.{.{.{.{.{.{.{.{.{.{.",
"{.{.{.{.{.{.{.{.[._.D.*X%XH.'.`.m.b.%.9.+Xt.r.-.n. .%.%X%X@.( ( :X Xc.*Xc.x.=.{ J K T.[.{.{.{.{.{.{.{.{.{.{.{.",
"{.{.{.{.{.{.{.{.{.{.].Q..X@XH.{.).(.B.%.t.<X*.Y._.B.( @Xt.r.9.! c.c.j.c.x.j.{ L l k f.[.{.{.{.{.{.{.{.{.{.{.{.",
"{.{.{.{.{.{.{.{.{.{.{.{.(.m.t.G.].[.[.R..X|.A.`._.G.$.( s ) |.D c c.=.{ =.{ L l ; r s.{.{.{.{.{.{.{.{.{.{.{.{.",
"{.{.{.{.{.{.{.{.{.{.{.{.{._.x.v.G.[.E.(.i.u.^.&XD.n.) y # # ~ s 8 T z.{ l k t = t = l.[.[.{.{.{.{.{.{.{.{.{.{.",
"{.{.{.{.{.{.{.{.{.{.{.{.{.{.~.j.w.a.f j c y ;.}...% X X + 3 ( @ # w 0 J L L l k t B ).{.[.[.{.{.{.{.{.{.{.{.{.",
"{.{.{.{.{.{.{.{.{.{.{.{.{.{.[.I.z * % p 3.3.^ J.N   X _ +X#.9.s / Y   q p l n ' l.).{.{.{.{.{.{.{.{.{.{.{.{.{.",
"{.{.{.{.{.{.{.{.{.{.{.{.{.{.'.y.$ 9 i a v [ g.M.O   3 9._ ~ D w.e.9   6 :.p.).].[.[.{.{.{.{.{.{.{.].{.{.{.{.{.",
"{.{.{.{.{.{.{.{.{.{.{.{.{.{.'.B M c i q ' `.W.-   o o ~ ~ w 0 ( 9.+ e t.4.[ {.{.{.{.{.{.{.{.{.{.{.{.{.{.{.{.{.",
"{.{.{.{.{.{.{.{.{.{.{.{.{.{.[.].'.C.[ y ' ~.B . < > o 3 S #.#.r.R X d >X4.,.Q.{.{.{.{.{.{.{.{.{.{.{.{.{.{.{.{.",
"{.{.{.{.{.{.{.{.{.{.{.{.{.{.[.[.{.{.`.V.L b + > < > > 8 _ _ R w + . 8.r.u >.g.{.{.{.{.{.{.{.{.{.{.{.{.{.{.{.{.",
"{.{.{.{.{.{.{.{.{.{.{.{.{.{.{.{.{.{.{.{.y.X , 1 < > q oXoXW 4 > > 2 @XY 7 >.^ '.{.{.{.{.{.{.{.{.{.{.{.{.{.{.{.",
"{.{.{.{.{.{.{.{.{.{.{.{.{.{.{.{.{.{.[.Z.% 2 9 1 O d OX8.4 > , 1 > p #X4 5 1.<.L.[.{.{.{.{.{.{.{.{.{.{.{.{.{.{.",
"{.{.{.{.{.{.{.{.{.{.{.{.{.{.{.{.{.[.W.: 1 / / 3 #.oXd 1 1 1 1 1 > q.q.  1 1.1.g.[.{.{.{.{.{.{.{.{.{.{.{.{.{.{.",
"{.{.{.{.{.{.{.{.{.{.{.{.{.{.{.{.[.'.m o e O.} t.t.q 1 5 5 5 5 , e >Xx O 1 <.5.h.[.{.{.{.{.{.{.{.{.{.{.{.{.{.{.",
"{.{.{.{.{.{.{.{.{.{.{.{.{.{.{.{.[.d.# & W Q %.XX% 5 g 2 5 , 1 5 q.%Xr * , <.5.=.].[.{.{.{.{.{.{.{.{.{.{.{.{.{.",
"{.{.{.{.{.{.{.{.{.{.{.{.{.{.{.{.W.: V u./ A H f.: : Y.- < - * 9 e.OXz n , <.5.} `.{.{.{.{.{.{.{.{.{.{.{.{.{.{.",
"{.{.{.{.{.{.{.{.{.{.{.{.{.{.{.[.W.V.'.T.} A g m - i.{.Z.f.M.h.|.$.S B m , <.6.{ '.{.{.{.{.{.{.{.{.{.{.{.{.{.{.",
"{.{.{.{.{.{.{.{.{.{.{.{.{.{.{.{.[.[.[.W.U G h ` W.).{.[.[.{.g.@.+.7.G $ k 3.c p.{.{.{.{.{.{.{.{.{.{.{.{.{.{.{.",
"{.{.{.{.{.{.{.{.{.{.{.{.{.{.{.{.[.[.[.E.K G - V {.{.{.{.{.{.A.C w R J X.p.2.p.W.[.{.{.{.{.{.{.{.{.{.{.{.{.{.{.",
"{.{.{.{.{.{.{.{.{.{.{.{.{.{.{.{.{.{.[.I.K Z z B ].{.{.{.{.{.{.B.F g h [ { T B.{.{.{.{.{.{.{.{.{.{.{.{.{.{.{.{.",
"{.{.{.{.{.{.{.{.{.{.{.{.{.{.{.{.{.{.{.V.-.G K | '.{.{.{.{.{.{.{.Q.d.z z ` ^  .J.{.{.{.{.{.{.{.{.{.{.{.{.{.{.{.",
"{.{.{.{.{.{.{.{.{.{.{.{.{.{.{.{.{.{.'.s.X.o.o.' '.{.{.{.{.{.{.{.[.{.W.i.] X.H a.{.{.{.{.{.{.{.{.{.{.{.{.{.{.{.",
"{.{.{.{.{.{.{.{.{.{.{.{.{.{.{.{.{.I. .Z : - Z | '.{.{.{.{.{.{.{.[.[.[.`.f.: t ' ].{.{.{.{.{.{.{.{.{.{.{.{.{.{.",
"{.{.{.{.{.{.{.{.{.{.{.{.{.{.{.{.~.` ; * * - b i.{.{.{.{.{.{.{.{.{.{.{.{.!.n H P ^.{.{.{.{.{.{.{.{.{.{.{.{.{.{.",
"{.{.{.{.{.{.{.{.{.{.{.{.{.{.{.{.W.N b b N f.L.~.{.{.{.{.{.{.{.{.{.{.{.[.~.F h m L.{.{.{.{.{.{.{.{.{.{.{.{.{.{.",
"{.{.{.{.{.{.{.{.{.{.{.{.{.{.{.{.{._.~.~.'.[.[.[.{.{.{.{.{.{.{.{.{.{.{.{.'.Z.V.E.].{.{.{.{.{.{.{.{.{.{.{.{.{.{."
};
