/* XPM */
static char *enemy_30[] = {
/* columns rows colors chars-per-pixel */
"55 55 200 2 ",
"   c #2E0907",
".  c #360A06",
"X  c #340D0A",
"o  c #3C0E09",
"O  c #381A17",
"+  c #3E211F",
"@  c #27282B",
"#  c #382426",
"$  c #3D2C2C",
"%  c #342C32",
"&  c #2E333C",
"*  c #363338",
"=  c #3A343C",
"-  c #430F0B",
";  c #4A0F0C",
":  c #45110D",
">  c #4C130E",
",  c #51170F",
"<  c #4D1511",
"1  c #4A1915",
"2  c #481B16",
"3  c #511510",
"4  c #511912",
"5  c #691D1A",
"6  c #41211E",
"7  c #54211E",
"8  c #482826",
"9  c #512D2E",
"0  c #48322E",
"q  c #532E30",
"w  c #43343B",
"e  c #4A353B",
"r  c #473938",
"t  c #583535",
"y  c #53383B",
"u  c #69312F",
"i  c #653837",
"p  c #703633",
"a  c #59403D",
"s  c #3A3643",
"d  c #3A3A43",
"f  c #403746",
"g  c #433C4B",
"h  c #4B3E4B",
"j  c #553C42",
"k  c #763C44",
"l  c #2C404C",
"z  c #36424F",
"x  c #2F4354",
"c  c #37485A",
"v  c #395468",
"b  c #3E5F75",
"n  c #4B434C",
"m  c #584646",
"M  c #55504F",
"N  c #4C4552",
"B  c #424855",
"V  c #514653",
"C  c #554C5A",
"Z  c #5A4B5A",
"A  c #4C515F",
"S  c #59535B",
"D  c #674947",
"F  c #744649",
"G  c #64524D",
"H  c #6D4B54",
"J  c #714950",
"K  c #6B5954",
"L  c #6A5559",
"P  c #765859",
"I  c #715D5A",
"U  c #6D605D",
"Y  c #74625D",
"T  c #7A655F",
"R  c #435364",
"E  c #4C5F6F",
"W  c #5D5562",
"Q  c #585C63",
"!  c #435C73",
"~  c #645363",
"^  c #695A66",
"/  c #625C6B",
"(  c #7B5D61",
")  c #59646F",
"_  c #48667D",
"`  c #546377",
"'  c #68636B",
"]  c #776565",
"[  c #7C6A64",
"{  c #7F716C",
"}  c #666875",
"|  c #746275",
" . c #7B6C72",
".. c #7B677E",
"X. c #71727C",
"o. c #842A28",
"O. c #972C29",
"+. c #8D302E",
"@. c #873737",
"#. c #963837",
"$. c #A93735",
"%. c #974847",
"&. c #8E4B50",
"*. c #825B5B",
"=. c #B54A48",
"-. c #836662",
";. c #876A63",
":. c #856F68",
">. c #916562",
",. c #87746E",
"<. c #8C736D",
"1. c #93756F",
"2. c #897771",
"3. c #957A73",
"4. c #95807A",
"5. c #A2877F",
"6. c #3C6986",
"7. c #456C84",
"8. c #416C8A",
"9. c #4F718B",
"0. c #5E7282",
"q. c #467594",
"w. c #497798",
"e. c #4A7D9F",
"r. c #567894",
"t. c #7E7D90",
"y. c #477EA1",
"u. c #88738D",
"i. c #8A7889",
"p. c #8D7792",
"a. c #7B828A",
"s. c #698293",
"d. c #79879C",
"f. c #4B87AD",
"g. c #5783A3",
"h. c #5385A9",
"j. c #498BB4",
"k. c #548EB7",
"l. c #4B91BB",
"z. c #5993B7",
"x. c #7F8FA5",
"c. c #6890AE",
"v. c #6697B7",
"b. c #7AA1BB",
"n. c #4D99C5",
"m. c #4E9DCB",
"M. c #539AC6",
"N. c #5898C2",
"B. c #539ECB",
"V. c #4FA0CF",
"C. c #55A1CE",
"Z. c #5BA2CC",
"A. c #53A4D5",
"S. c #5BA9D6",
"D. c #54AADC",
"F. c #68A4C9",
"G. c #62A6D0",
"H. c #55AEE2",
"J. c #58AEE0",
"K. c #56B1E6",
"L. c #59B1E5",
"P. c #57B5EB",
"I. c #58B5EB",
"U. c #59B8EF",
"Y. c #5CBCF4",
"T. c #5DBFF8",
"R. c #5CC0FA",
"E. c #8E848C",
"W. c #9B8B88",
"Q. c #898B9E",
"!. c #958690",
"~. c #8C9196",
"^. c #979297",
"/. c #A28B84",
"(. c #AA8E86",
"). c #A3928B",
"_. c #AB958D",
"`. c #A18E99",
"'. c #BA9C9C",
"]. c #B7A399",
"[. c #8E99A8",
"{. c #A189A4",
"}. c #A99AA5",
"|. c #B49EA7",
" X c #92A6B4",
".X c #A4A2A9",
"XX c #B8A4A5",
"oX c #BBAEB3",
"OX c #C79E9E",
"+X c #C4A89E",
"@X c #D2B0AB",
"#X c #C6BBBA",
"$X c #DBC1B6",
"%X c #E4C5B8",
"&X c #C9BAC3",
"*X c #BDC2C1",
"=X c #C5C3C0",
"-X c #D7CCD0",
";X c #EAD3C8",
":X c #F5E0D3",
/* pixels */
"Y.Y.Y.Y.Y.Y.Y.Y.Y.Y.Y.Y.Y.Y.Y.Y.Y.Y.Y.Y.Y.Y.Y.Y.Y.Y.Y.Y.Y.Y.Y.Y.Y.Y.Y.Y.Y.Y.Y.Y.Y.Y.Y.Y.Y.Y.Y.Y.Y.Y.U.Y.Y.Y.Y.",
"Y.Y.Y.Y.Y.Y.Y.Y.Y.Y.Y.Y.Y.Y.Y.Y.Y.Y.Y.Y.Y.Y.Y.Y.Y.Y.Y.Y.Y.Y.Y.Y.Y.Y.U.Y.Y.Y.Y.Y.Y.Y.Y.Y.Y.Y.Y.Y.Y.Y.Y.Y.Y.Y.Y.",
"Y.Y.Y.Y.Y.Y.Y.Y.Y.Y.Y.Y.Y.Y.Y.Y.Y.Y.Y.Y.Y.Y.U.Y.Y.Y.Y.Y.Y.Y.Y.Y.Y.Y.Y.Y.Y.Y.Y.Y.Y.Y.Y.Y.Y.Y.Y.Y.Y.Y.Y.Y.Y.Y.Y.",
"Y.Y.Y.Y.Y.Y.Y.Y.Y.Y.Y.Y.Y.Y.Y.Y.Y.Y.Y.Y.Y.Y.Y.Y.Y.Y.Y.Y.Y.Y.Y.Y.Y.Y.Y.Y.Y.Y.Y.Y.Y.Y.Y.Y.Y.Y.Y.Y.Y.Y.Y.Y.Y.Y.Y.",
"Y.Y.Y.Y.Y.Y.Y.Y.Y.Y.Y.Y.Y.Y.Y.Y.Y.Y.Y.Y.Y.Y.Y.Y.Y.Y.Y.Y.Y.Y.Y.Y.Y.Y.Y.Y.Y.Y.Y.Y.Y.Y.Y.Y.Y.Y.Y.Y.Y.Y.Y.Y.Y.Y.Y.",
"Y.Y.Y.Y.Y.Y.Y.Y.Y.Y.Y.Y.Y.Y.Y.Y.Y.Y.Y.Y.Y.Y.Y.Y.Y.Y.Y.Y.Y.Y.Y.Y.Y.Y.Y.Y.Y.Y.Y.Y.Y.Y.Y.Y.Y.Y.Y.Y.Y.Y.Y.Y.Y.Y.Y.",
"Y.Y.Y.Y.Y.Y.Y.Y.Y.Y.Y.Y.Y.Y.Y.Y.Y.Y.Y.Y.Y.Y.Y.Y.Y.Y.Y.Y.Y.Y.Y.Y.Y.Y.Y.Y.Y.Y.Y.Y.Y.Y.Y.Y.Y.Y.Y.Y.Y.Y.Y.Y.Y.Y.Y.",
"Y.Y.Y.Y.Y.Y.Y.Y.Y.Y.Y.Y.Y.Y.Y.Y.Y.Y.Y.Y.Y.Y.Y.Y.Y.Y.Y.Y.Y.Y.Y.Y.Y.Y.Y.Y.Y.Y.Y.Y.Y.Y.Y.Y.Y.Y.Y.Y.Y.Y.Y.Y.Y.Y.Y.",
"Y.Y.Y.Y.Y.Y.Y.Y.Y.Y.Y.Y.Y.Y.Y.Y.Y.Y.Y.Y.Y.Y.Y.Y.Y.Y.Y.Y.Y.U.Y.Y.Y.Y.Y.Y.Y.Y.Y.Y.Y.Y.Y.Y.Y.Y.Y.Y.Y.Y.Y.Y.Y.Y.Y.",
"Y.Y.Y.Y.Y.Y.Y.Y.Y.Y.Y.Y.Y.Y.Y.Y.Y.Y.Y.Y.Y.Y.Y.Y.Y.Y.Y.Y.Y.Y.Y.Y.Y.Y.Y.Y.Y.Y.Y.Y.Y.Y.Y.Y.Y.Y.Y.Y.Y.Y.Y.Y.Y.Y.U.",
"Y.Y.Y.Y.Y.Y.Y.Y.Y.Y.Y.Y.Y.Y.Y.Y.Y.Y.Y.Y.Y.Y.Y.Y.Y.Y.Y.Y.Y.Y.Y.Y.Y.Y.Y.Y.Y.Y.Y.Y.Y.Y.Y.Y.Y.Y.Y.Y.Y.Y.Y.Y.Y.Y.Y.",
"Y.Y.Y.Y.Y.Y.Y.Y.Y.Y.Y.Y.Y.Y.Y.Y.Y.Y.Y.Y.Y.Y.Y.Y.Y.Y.Y.Y.Y.Y.Y.Y.Y.Y.Y.Y.Y.Y.Y.Y.Y.Y.Y.Y.Y.Y.Y.Y.Y.Y.Y.Y.Y.Y.Y.",
"Y.Y.Y.Y.Y.Y.Y.Y.Y.Y.Y.Y.U.Y.Y.Y.Y.Y.Y.Y.Y.Y.Y.Y.Y.Y.Y.Y.Y.Y.Y.Y.Y.Y.Y.Y.Y.Y.Y.Y.Y.Y.Y.Y.Y.Y.Y.Y.Y.Y.Y.Y.Y.Y.Y.",
"Y.Y.Y.Y.Y.Y.Y.Y.Y.Y.Y.Y.Y.Y.Y.Y.Y.Y.U.Y.Y.Y.Y.Y.Y.Y.Y.Y.Y.Y.Y.Y.Y.Y.Y.Y.Y.Y.Y.Y.Y.Y.Y.Y.Y.Y.Y.Y.Y.Y.Y.Y.Y.Y.Y.",
"Y.Y.Y.Y.Y.Y.Y.Y.Y.Y.Y.Y.Y.T.f.l.T.Y.Y.Y.Y.Y.Y.Y.Y.Y.Y.Y.Y.Y.Y.Y.Y.Y.Y.Y.Y.Y.Y.Y.Y.Y.Y.Y.Y.Y.Y.Y.Y.Y.Y.Y.Y.Y.Y.",
"Y.Y.Y.Y.Y.Y.Y.Y.Y.Y.Y.Y.Y.D.) N.T.Y.Y.Y.Y.Y.Y.Y.Y.Y.Y.Y.Y.Y.Y.Y.Y.Y.Y.Y.Y.Y.Y.Y.Y.Y.Y.Y.Y.Y.Y.Y.Y.Y.Y.Y.Y.Y.Y.",
"Y.Y.Y.Y.Y.Y.Y.Y.Y.Y.Y.Y.Y.v./.Z.Y.Y.Y.Y.U.R.U.R.U.Y.Y.Y.Y.Y.Y.Y.Y.Y.Y.Y.Y.Y.Y.Y.Y.Y.Y.Y.Y.Y.Y.Y.Y.Y.Y.Y.Y.Y.Y.",
"Y.Y.Y.Y.Y.Y.Y.Y.Y.Y.Y.Y.P.[.'.B.T.Y.Y.Y.R.U.R.U.Y.Y.Y.Y.Y.Y.Y.Y.Y.Y.Y.Y.Y.Y.Y.Y.Y.Y.Y.Y.Y.Y.Y.Y.Y.Y.I.Y.Y.Y.Y.",
"Y.Y.Y.Y.Y.Y.Y.Y.Y.Y.Y.T.H..X|.B.T.Y.Y.Y.I.R.R.U.Y.Y.Y.Y.Y.Y.Y.Y.Y.Y.Y.Y.Y.Y.Y.Y.Y.Y.Y.Y.Y.Y.Y.Y.Y.Y.Y.Y.Y.Y.Y.",
"Y.Y.Y.Y.Y.Y.Y.Y.Y.Y.Y.T.A.XXOXG.Y.Y.Y.Y.R.R.U.R.Y.Y.Y.Y.Y.Y.Y.Y.Y.Y.Y.Y.Y.Y.Y.Y.Y.Y.Y.Y.Y.Y.Y.Y.Y.Y.Y.Y.Y.Y.Y.",
"Y.Y.Y.Y.Y.Y.Y.Y.Y.Y.Y.Y.Z.XXOXF.Y.Y.Y.R.U.P.P.R.Y.Y.Y.Y.Y.Y.Y.Y.Y.Y.Y.Y.Y.Y.Y.Y.Y.Y.Y.Y.Y.Y.Y.Y.Y.Y.Y.Y.Y.Y.Y.",
"Y.Y.Y.Y.Y.Y.Y.Y.Y.Y.Y.T.B.|.@Xb.Y.Y.R.G. X X[.Z.R.Y.Y.Y.Y.Y.Y.Y.Y.Y.Y.Y.Y.Y.Y.Y.Y.Y.Y.Y.Y.Y.Y.Y.Y.Y.Y.Y.Y.Y.Y.",
"Y.Y.Y.Y.Y.Y.Y.Y.Y.Y.Y.Y.D.^.@XF.Y.Y.F.=X;X$X@XE.Z.R.Y.Y.Y.U.Y.Y.Y.Y.Y.Y.Y.Y.Y.Y.Y.Y.Y.Y.Y.Y.Y.Y.Y.Y.Y.Y.Y.Y.Y.",
"Y.Y.Y.Y.Y.Y.Y.Y.Y.Y.Y.Y.Y.v.OXb.Y.S.*X:X$X+X(.;.0.R.Y.Y.Y.R.R.L.L.I.Y.Y.Y.Y.Y.Y.Y.Y.Y.Y.Y.Y.Y.Y.Y.Y.Y.Y.Y.Y.Y.",
"Y.Y.Y.Y.Y.Y.Y.Y.Y.Y.Y.Y.Y.S.`.Q.R.F.;X;X$X4.<.Y _ A.7.8.f.h.c. X[.x.S.U.Y.Y.Y.Y.Y.Y.Y.Y.Y.Y.Y.Y.Y.Y.Y.Y.Y.Y.Y.",
"Y.Y.Y.Y.Y.Y.Y.Y.Y.Y.Y.Y.R.J.E.Q.R.S.$X%X].$ 4.<.U c ] V Z ^ {.|.!.}..XB.Y.Y.Y.Y.Y.Y.Y.Y.Y.Y.Y.Y.Y.Y.Y.Y.Y.Y.Y.",
"Y.Y.Y.Y.Y.Y.Y.Y.Y.Y.U.R.R.L.i.Q.R.K.b.].5.4.(.K K t { n % u.!.t.{.&X&XQ.L.Y.Y.Y.Y.Y.Y.Y.Y.Y.Y.Y.Y.Y.Y.Y.Y.Y.Y.",
"Y.Y.Y.Y.Y.Y.Y.Y.Y.Y.Y.U.U.I.a.E.H.R.C.E [ ).+XM G a I S h u.| u.{.&X-X}.Z.Y.Y.Y.Y.Y.Y.Y.Y.Y.Y.Y.Y.Y.Y.Y.Y.Y.Y.",
"Y.Y.Y.Y.Y.Y.Y.Y.U.R.U.R.U.R.d.i.H.R.R.D.s.W.4.Y { K a  .~ | ~ p.u.|.-XoXv.Y.Y.Y.Y.Y.Y.Y.Y.Y.Y.Y.Y.Y.Y.Y.Y.Y.Y.",
"Y.Y.Y.Y.Y.Y.Y.Y.R.U.R.U.U.D.` U l.V.P.R.9.S n 4.U ).{ y j ~ j t.u.u.{.!.c.U.Y.Y.Y.Y.Y.Y.Y.Y.Y.Y.Y.Y.Y.Y.Y.Y.Y.",
"Y.Y.Y.Y.Y.Y.Y.Y.U.R.U.R.j.l @ @ @ l n.z.` N N S U ).}.J j H f ~ | | t.i.c.T.Y.Y.Y.Y.Y.Y.Y.Y.Y.Y.Y.Y.Y.Y.Y.Y.Y.",
"Y.Y.Y.Y.Y.Y.Y.Y.R.U.R.R.n.v 8 t t a z M X.X.a.Q M /.+X,.k h f h Z W H  .N.T.Y.Y.Y.Y.Y.Y.Y.Y.Y.Y.Y.Y.Y.Y.Y.Y.Y.",
"Y.Y.Y.Y.Y.Y.Y.Y.Y.Y.Y.Y.Y.B.k q p %.@.w l.A.~.7.d 4.T Y 4.M d * r n j ` L.Y.Y.Y.Y.Y.Y.Y.Y.Y.Y.Y.Y.Y.Y.Y.Y.Y.Y.",
"Y.Y.Y.Y.Y.Y.Y.Y.Y.Y.Y.Y.Y.L./ u 9 k %.L Z.b.d.6.# Y y + a a % * * = N k.Y.Y.Y.Y.Y.Y.Y.Y.Y.Y.Y.Y.Y.Y.Y.Y.Y.Y.Y.",
"Y.Y.Y.Y.Y.Y.Y.Y.Y.Y.Y.Y.Y.T.B.w q.r.L } ^.^.} x . 6 O . 0 G X * e j f.U.Y.Y.Y.Y.Y.Y.Y.Y.Y.Y.Y.Y.Y.Y.Y.Y.Y.Y.Y.",
"Y.Y.Y.Y.Y.Y.Y.Y.Y.Y.Y.Y.Y.Y.H.S g.P.L.D.s.a.& X X X m Y a 4.0 Y p o.h.Y.Y.Y.Y.Y.Y.Y.Y.Y.Y.Y.Y.Y.Y.Y.Y.Y.Y.Y.Y.",
"Y.Y.Y.Y.Y.Y.Y.Y.Y.Y.Y.Y.Y.Y.Y.f.m.Y.Y.Y.A.x X o X 6 4.<.Y U 4.4.4 O./ U.Y.Y.Y.Y.Y.Y.Y.Y.Y.Y.Y.Y.Y.Y.Y.Y.Y.Y.Y.",
"Y.Y.Y.Y.Y.Y.Y.Y.Y.Y.Y.Y.Y.Y.Y.Y.R.Y.R.H.c X o o o 2 T G 0 0 Y ,.D O.k D.R.Y.Y.Y.Y.Y.Y.Y.Y.Y.Y.Y.Y.Y.Y.Y.Y.Y.Y.",
"Y.Y.Y.Y.Y.Y.Y.Y.Y.Y.Y.Y.Y.Y.Y.Y.R.R.A.c o : : o o o a U U Y 4.[ 2.+.+.N.R.Y.Y.Y.Y.Y.Y.Y.Y.Y.Y.Y.Y.Y.Y.Y.Y.Y.Y.",
"Y.Y.Y.Y.Y.Y.Y.Y.Y.Y.Y.Y.Y.Y.Y.Y.Y.6.% : : : : : : i _.U a a a :.<.5 O.r.Y.Y.Y.Y.Y.Y.Y.Y.Y.Y.Y.Y.Y.Y.Y.Y.Y.Y.Y.",
"Y.Y.Y.Y.Y.Y.Y.Y.Y.Y.Y.Y.Y.Y.Y.m.c O > > > : > : F _.P 1 o o o ;.2.5 $.H L.Y.Y.Y.Y.Y.Y.Y.Y.Y.Y.Y.Y.Y.Y.Y.Y.Y.Y.",
"Y.Y.Y.Y.Y.Y.Y.Y.Y.Y.Y.Y.T.Y.y.$ > , > > L # 2 >.5.i ; ; : ; - -.<.> $.#.k.R.Y.Y.Y.Y.Y.Y.Y.Y.Y.Y.Y.Y.Y.Y.Y.Y.Y.",
"Y.Y.Y.Y.Y.Y.Y.Y.Y.Y.Y.Y.K.b O O 4 3 4 y X.M 5.3.7 > ; > > ; - -.<.> $.$.0.U.Y.Y.Y.Y.Y.Y.Y.Y.Y.Y.Y.Y.Y.Y.Y.Y.Y.",
"Y.Y.Y.Y.Y.Y.Y.Y.Y.Y.Y.L.v # v O 4 3 6 P L W.3.4 > , > > > > < 1.1.- #.=.H H.Y.Y.Y.Y.Y.Y.Y.Y.Y.Y.Y.Y.Y.Y.Y.Y.Y.",
"Y.Y.Y.Y.Y.Y.Y.Y.Y.Y.R.J.f.C.A.v $ z R *.m I 0 # , 3 > 3 3 > 1 4.-.; +.=.&.H.Y.Y.Y.Y.Y.Y.Y.Y.Y.Y.Y.Y.Y.Y.Y.Y.Y.",
"Y.Y.Y.Y.Y.Y.Y.Y.Y.Y.Y.Y.R.R.R.Y.D.I.g.*.w g _ 6.: 1 # , 3 1  .!.~ 8 @.=.&.A.Y.Y.Y.Y.Y.Y.Y.Y.Y.Y.Y.Y.Y.Y.Y.Y.Y.",
"Y.Y.Y.Y.Y.U.Y.Y.Y.Y.Y.Y.Y.Y.U.R.Y.Y.A.^ n s R j.v v c < < < G  .;.P h %.&.z.Y.Y.Y.Y.Y.Y.Y.Y.Y.Y.Y.Y.Y.Y.Y.Y.Y.",
"Y.Y.Y.Y.Y.Y.Y.Y.Y.Y.Y.Y.Y.U.R.U.Y.Y.Y._ Z s x K.Y.Y.6.2 % 1 0 r j H H >.J C.R.Y.Y.Y.Y.Y.Y.Y.Y.Y.Y.Y.Y.Y.Y.Y.Y.",
"Y.Y.Y.Y.Y.Y.Y.Y.Y.Y.Y.Y.Y.Y.Y.Y.Y.Y.R.w.V d d j.R.Y.D.e.l.= q.w.s s f ^ ~ q.H.Y.Y.Y.Y.Y.Y.Y.Y.Y.Y.Y.Y.Y.Y.Y.Y.",
"Y.Y.Y.Y.Y.Y.Y.Y.Y.Y.Y.Y.Y.Y.Y.Y.Y.Y.R.j.' N C 8.Y.U.R.R.Y.A.U.U.n.! h h W ' ` B.Y.Y.Y.Y.Y.Y.Y.Y.Y.Y.Y.Y.Y.Y.Y.",
"Y.Y.Y.Y.Y.Y.Y.Y.Y.Y.Y.Y.Y.Y.Y.Y.Y.Y.Y.f.' ' ' E J.R.Y.Y.Y.Y.Y.Y.T.y.J R ' W N e.Y.Y.Y.Y.Y.Y.Y.Y.Y.Y.Y.Y.Y.Y.Y.",
"Y.Y.Y.Y.Y.Y.Y.Y.Y.Y.Y.Y.Y.Y.Y.Y.Y.L.s.B n = n R D.R.Y.Y.Y.Y.Y.Y.Y.q.h.L.9.* = b Y.Y.Y.Y.Y.Y.Y.Y.Y.Y.Y.Y.Y.Y.Y.",
"Y.Y.Y.Y.Y.Y.Y.Y.Y.Y.Y.Y.Y.Y.Y.Y.Y.w.n * @ % d v D.R.Y.Y.Y.Y.Y.Y.Y.D.Y.R.C.c M A A.Y.Y.Y.Y.Y.Y.Y.Y.Y.Y.Y.Y.Y.Y.",
"Y.Y.Y.Y.Y.Y.Y.Y.Y.Y.Y.Y.Y.Y.Y.Y.P._ d & z _ l.A.U.Y.Y.Y.Y.Y.Y.Y.Y.Y.Y.Y.D.B d R M.Y.Y.Y.Y.Y.Y.Y.Y.Y.Y.Y.Y.Y.Y.",
"Y.Y.Y.Y.Y.Y.Y.Y.Y.Y.Y.Y.Y.Y.Y.Y.Y.K.C.n.D.U.R.Y.Y.Y.Y.Y.Y.Y.Y.Y.Y.Y.Y.Y.I.M.n.D.Y.Y.Y.Y.Y.Y.Y.Y.Y.Y.Y.Y.Y.Y.Y."
};
