/* XPM */
static char *enemy_5[] = {
/* columns rows colors chars-per-pixel */
"55 55 206 2 ",
"   c #1F1A19",
".  c #3B0C09",
"X  c #3C130F",
"o  c #2D1412",
"O  c #3A1B19",
"+  c #2C1D22",
"@  c #2A2A2D",
"#  c #362321",
"$  c #2F2837",
"%  c #342D37",
"&  c #3B2E33",
"*  c #2E313E",
"=  c #343034",
"-  c #37343A",
";  c #3C333B",
":  c #430F0A",
">  c #4A0F0C",
",  c #44110C",
"<  c #4D120E",
"1  c #50190D",
"2  c #461715",
"3  c #4F1410",
"4  c #421913",
"5  c #491814",
"6  c #511410",
"7  c #49221E",
"8  c #52211D",
"9  c #64211F",
"0  c #492621",
"q  c #4C2C2A",
"w  c #552523",
"e  c #532C2E",
"r  c #592A2A",
"t  c #54312C",
"y  c #473437",
"u  c #553838",
"i  c #6B2421",
"p  c #632D2D",
"a  c #732928",
"s  c #62302F",
"d  c #663735",
"f  c #7B3532",
"g  c #7D3D3B",
"h  c #53423E",
"j  c #5F423F",
"k  c #6F403E",
"l  c #3C3543",
"z  c #3A3A45",
"x  c #433C44",
"c  c #443C4A",
"v  c #4A3E4A",
"b  c #613C41",
"n  c #3C464E",
"m  c #374A5B",
"M  c #385165",
"N  c #3E5D73",
"B  c #37647F",
"V  c #3D627B",
"C  c #4A4346",
"Z  c #4B4449",
"A  c #5C4945",
"S  c #584649",
"D  c #5B4C49",
"F  c #4E4453",
"G  c #484854",
"H  c #534B56",
"J  c #584A57",
"K  c #594A5A",
"L  c #4B5058",
"P  c #5A5457",
"I  c #59525E",
"U  c #654A46",
"Y  c #6B4C4B",
"T  c #64534E",
"R  c #72504C",
"E  c #724F56",
"W  c #6B5354",
"Q  c #695A55",
"!  c #685858",
"~  c #745957",
"^  c #6E605C",
"/  c #76635D",
"(  c #495361",
")  c #5B5967",
"_  c #475E72",
"`  c #635363",
"'  c #635D68",
"]  c #6B5A6C",
"[  c #775F68",
"{  c #5A6169",
"}  c #4A6074",
"|  c #45667C",
" . c #586273",
".. c #6D6666",
"X. c #66626A",
"o. c #69646B",
"O. c #736463",
"+. c #7B6A64",
"@. c #7C6E69",
"#. c #786A76",
"$. c #79647B",
"%. c #797275",
"&. c #797379",
"*. c #8B3535",
"=. c #A83633",
"-. c #B03D3A",
";. c #89494D",
":. c #944848",
">. c #864950",
",. c #8A565B",
"<. c #A54B48",
"1. c #B14846",
"2. c #B75150",
"3. c #86615A",
"4. c #866964",
"5. c #84716A",
"6. c #93756E",
"7. c #846F71",
"8. c #827374",
"9. c #8C7A74",
"0. c #897B79",
"q. c #947C74",
"w. c #A27579",
"e. c #94827D",
"r. c #9A847C",
"t. c #3B6683",
"y. c #486B87",
"u. c #586A83",
"i. c #41708F",
"p. c #5A768B",
"a. c #4A7492",
"s. c #477899",
"d. c #507897",
"f. c #557996",
"g. c #677B89",
"h. c #457EA3",
"j. c #487EA1",
"k. c #867389",
"l. c #8C7891",
"z. c #937C93",
"x. c #56819F",
"c. c #748999",
"v. c #4981A5",
"b. c #4A85AA",
"n. c #4C88AD",
"m. c #5488AB",
"M. c #4B8DB5",
"N. c #508BB3",
"B. c #4A91BB",
"V. c #5894B9",
"C. c #6C90AB",
"Z. c #6B98B5",
"A. c #6999BB",
"S. c #75A4BE",
"D. c #4D99C6",
"F. c #4D9CCA",
"G. c #559AC4",
"H. c #529DCB",
"J. c #619EC4",
"K. c #58A2CD",
"L. c #54A4D3",
"P. c #5BA8D6",
"I. c #55AADC",
"U. c #5BA9D8",
"Y. c #65A4C7",
"T. c #76A4C3",
"R. c #60A8D1",
"E. c #57AFE2",
"W. c #58AEE1",
"Q. c #56B1E5",
"!. c #59B2E6",
"~. c #57B3E9",
"^. c #59B5EB",
"/. c #5AB8EF",
"(. c #5CBCF4",
"). c #5DBFF8",
"_. c #988785",
"`. c #858A9E",
"'. c #998B95",
"]. c #979299",
"[. c #A48B83",
"{. c #A49189",
"}. c #AC958C",
"|. c #B39389",
" X c #A59799",
".X c #B49996",
"XX c #BBA49B",
"oX c #9B83A0",
"OX c #8699A5",
"+X c #AD95A2",
"@X c #AB9AA4",
"#X c #97A0B0",
"$X c #B5A4A9",
"%X c #BBA9B8",
"&X c #CBACA6",
"*X c #D3A9A7",
"=X c #CDB0A5",
"-X c #D8BBB4",
";X c #C9C2BD",
":X c #D8C2B7",
">X c #E0C1B6",
",X c #C4B4C0",
"<X c #D3C9CA",
"1X c #D9CED2",
"2X c #EAD6CA",
"3X c #F2DBCF",
/* pixels */
"(.(.(.(.(.(.(.(.(.(.(.(.(.(.(.(.(.(.(.(.(.(.(.(.(.(.(.(.(.(.(.(.(.(.(.(.(.(.(.(.(.(.(.(.(.(.(.(.(.(.(.(.(.(.(.",
"(.(.(.(.(.(.(.(.(.(.(.(.(.(.(.(.(.(.(.(.(.(.(.(.(.(.(.(.(.(.(.(.(.(.(.(.(.(.(.(.(.(.(.(.(.(.(.(.(.(.(.(.(.(.(.",
"(.(.(.(.(.(.(.(.(.(.(.(.(.(.(.(.(.(.(.(.(.(.(.(.(.(.(.(.(.(.(.(.(.(.(.(.(.(.(.(.(.(.(.(.(.(.(.(.(.(.(.(.(.(.(.",
"(.(.(.(.(.(.(.(.(.(.(.(.(.(.(.(.(.(.(.(.(.(.(.(.(.(.(.(.(.(.(.(.(.(.(.(.(.(.(.(.(.(.(.(.(.(.(.(.(.(.(.(.(.(.(.",
"(.(.(.(.(.(.(.(.(.(.(.(.(.(.(.(.(.(.(.(.(.(.(.(.(.(.(.(.(.(.(.(.(.(.(.(.(.(.(.(.(.(.(.(.(.(.(.(.(.(.(.(.(.(.(.",
"(.(.(.(.(.(.(.(.(.(.(.(.(.(.(.(.(.(.(.(.(.(.(.(.(.(.(.(.(.(.(.(.(.(.(.(.(.(.(.(.(.(.(.(.(.(.(.(.(.(.(.(.(.(.(.",
"(.(.(.(.(.(.(.(.(.(.(.(.(.(.(.(.(.(.(.(.(.(.(.(.(.(.(.(.(.(.(.(.(.(.(.(.(.(.(.(.(.(.(.(.(.(.(.(.(.(.(.(.(.(.(.",
"(.(.(.(.(.(.(.(.(.(.(.(.(.(.(.(.(.(.(.(.(.(.(.(.(.(.(.(.(.(.(.(.(.(.(.(.(.(.(.(.(.(.(.(.(.(.(.(.(.(.(.(.(.(.(.",
"(.(.(.(.(.(.(.(.(.(.(.(.(.(./.(.(.(.(.(.(.(.(.(.(.(.(.(.(.(.(.(.(.(.(.(.(.(.(.(.(.(./.(.(.(.(.(.(.(.(.(.(.(.(.",
"(.(.(.(.(.(.(.(.(.(.(.(.(.(.(.(.(.(.(.(.(.(.(.(.(.(.(.(.(.(.(.(.(.(.(.(.(.(.(.(.(.(.(.(.(.(.(.(./.(.(.(.(.(.(.",
"(.(.(.(.(.(.(.(.(.(.(.(.(.(.(.(.(.(.(.(.(.(.(.(.(.(.(.(.(.(.(.(.(.(.(.(.(.(.(.(.(.(.(.(.(.(.(.(.(.(.(.(.(.(.(.",
"(.(.(.(.(.(.(.(.(.(.(.(.(.(.(.(.(.(.(.(.(.(.(.(.(.(.(.(.(.(.(.(.(.(.(.(.(.(.(.(.(.(.(.(.(.(.(.(.(.(.(.(.(.(.(.",
"(.(.(.(.(.(.(.(.(.(.(.(.(.(.(.(.(.(.(.(.(.(.(.(.(.(.(.(.(.(.(.(.(.(.(.(.(.(.(.(.(.(.(.(.(.(.(.(.(.(.(.(.(.(.(.",
"(.(.(.(.(.(.(.(.(.(.(.(.(.(.(.(.(.(.(.(.(.(.(.(.(.(.(.(.(.(.(.(.(.(.(.(.(.(.(.(.(.(.(.(.(.(.(.(.(.(.(.(.(.(.(.",
"(.(.(.(.(.(.(.(.(.(.(.(.(.(.(.(.(.(.(.(.(.(.(.(.(.(.(.(.(.(.(.(.(.(.(.(.(.(.(.(.(.(.(.(.(.(.(.(.(.(.(.(.(.(.(.",
"(.(.(.(.(.(.(.(.(.(.(.(.(.(.(.(.(.(.(.(.(.(.(./.(.(.(.(.(.(.(.(.(.(.(.(.(.(.(.(.(.(.(.(.(.(.(.(.(.(.(.(.(.(.(.",
"(.(.(.(.(.(.(.(.(.(.(.(.(.(.(.(.(.(.(.(.(.R.S.S.K.!.(.(.(.(.(.(.(.(.(.(.(.(.(.(.(.(.(.(.(.(.(.(.(.(.(.(.(.(.(.",
"(.(.(.(.(.(.(.(.(.(.(.(.(.(.(.(.(.(.(.^.S.<X3X2X:XOXE.(.(.(.(.(.(.(.(.(.(.(.(.(.(.(.(.(.(.(.(.(.(.(.(.(.(.(.(.",
"(.(.(.(.(.(.(.(.(.(.(.(.(.(.(.(.(.(.(.R.;X3X>X:X:X=XC./.(.(.(.(.(.(.(.(.(.(.(.(.(.(.(.(.(.(.(.(.(.(.(.(.(.(.(.",
"(.(.(.(.(.(.(.(.(.(.(.(.(.(.(.(.(.(.(.J.:X2X>Xr.}.|.c.~.(.(.(.(.(.(.(.(.(.(.(.(.(.(.(.(.(.(.(.(.(.(.(.(.(.(.(.",
"(.(.(.(.(.(.(.(.(.(.(.(.(.(.(.(.(.(.(.V.{.XXD ^ 9.~ p.(.(.(.(.(.(.(.(.(.(.(.(.(.(.(.(.(.(.(.(.(.(.(.(.(.(.(.(.",
"(.(.(.(.(.(.(.(.(.(.(.(.(.(.(.(.(.(.(.G.P {./ e.q.L K.).(.(.(.(.(.(.(.(.(.(.(.(.(.(.(.(.(.(.(.(.(.(.(.(.(.(.(.",
"(.(.(.(.(.(.(.(.(.(.(.(.(.(.(.(.(.(.(.^.c.r.=X9.T p.N.b.W.(.(.(.(.(.(.(.(.(.(.(.(.(.(.(.(.(.(.(.(.(.(.(.(.(.(.",
"(.(.(.(.(.(.(.(.(.(.(.(.(.(.(.(.(.(.(.(.Y. Xr.h T D d a P x.M.(.(.(.(.(.(.(.(.(.(.(.(.(.(.(.(.(.(.(.(.(.(.(.(.",
"(.(.(.(.(.(.(.(.(.(.(.(.(.(.(.(.(.(.(.).L.{ 5.5.T R *.*.~ %.u.!.(.(.(.(.(.(.(.(.(.(.(.(.(.(.(.(.(.(.(.(.(.(.(.",
"(.(.(.(.(.(.(.(.(.(.(.(.(.(.(.(.(.(.(./.d.! 4.d A Y k ~ ] ; J d./.(.(.(.(.(.(.(.(.(.(.(.(.(.(.(.(.(.(.(.(.(.(.",
"(.(.(.(.(.(.(.(.(.(.(.(.(.(.(.(.(.(.(.I. .c t h @.T D &.G % z ' H.(.(.(.(.(.(.(.(.(.(.(.(.(.(.(.(.(.(.(.(./.(.",
"(.(.(.(.(.(.(.(.(.(.(.(.(.(.(.(.(.(.).L.) l - ^ {.r.Q O.] c $ I v.).(.(.(.(.(.(.(.(.(.(.(.(.(.(.(.(.(.(.(.(.(.",
"(.(.(.(.(.(.(.(.(.(.(.(.(.(.(.(.(.(.(.B.X.P o.^ }. X@.@...o.H I p.W.(.(.(.(.(.(.(.(.(.(.(.(.(.(.(.(.(.(.(.(.(.",
"(.(.(.(.(.(.(.(.(.(.(.(.(.(.(.(.(.).L.p.c.x.g.^ .XXX@.Q ! h P %.&.p.^.(./.(.(.(.(.(.(.(.(.(.(.(.(.(.(.(.(.(.(.",
"(.(.(.(.(.(.(.(.(.(.(.(.(.(.(.(.(.(.(.!.!./.c.@.@.^ e.e.8.'. X X].c.V.!.(.(.(.(.(.(.(.(.(.(.(.(.(.(.(.(.(.(.(.",
"(.(.(.(.(.(.(.(.(.(.(.(.(.(.(.(.(.(.(.(.(.^.OX+.A # h _.'.$X<X1X<X@Xk.C.!.).(.(.(.(.(.(.(.(.(.(.(.(.(.(.(.(.(.",
"(.(.(.(.(.(.(.(.(.(.(.(.(.(.(.(.(.(.(.(.(.U.].A o . O  XoX+X&X,X%Xz.k.] f./.(.(.(.(.(.(.(.(.(.(.(.(.(.(.(.(.(.",
"(.(.(.(.(.(.(.(.(.(.(.(.(.(.(.(.(.(.(.^./.Y._.q U ~ u  X'.k.z.z.l.u.] v v N.(.(.(.(.(.(.(.(.(.(.(.(.(.(.(.(.(.",
"(.(.(.(.(.(.(.(.(.(.(.(.(.(.(.(.(.(.).s.G ..u q e.r.+.%.'.$.l.k.k.] ` v x y.(.(.(.(.(.(.(.(.(.(.(.(.(.(.(.(.(.",
"(.(.(.(.(.(.(.(.(.(.(.(.(.(.(.(.(.(.(._ f :.w e +.T y D z.k.` ` ` v v x y y.(.(.(.(.(.(.(.(.(.(.(.(.(./.(.(.(.",
"(.(.(.(.(.(.(.(.(.(.(.(.(.(.(.(.(.I.D.H :.g 5 O T Q h A 7.$.[ F c & $ y $ j.(.(.(.(.(.(.(.(.(.(.(.(.(.(.(.(.(.",
"(.(.(.(.(.(.(.(.(.(.(.(.(.(.(.(.(.V @ u g w O U 9.Q / 5.~ / U J K v c l t.!.(.(.(.(.(.(.(.(.(.(.(.(.(.(.(.(.(.",
"(.(.(.(.(.(.(.(.(.(.(.(.(.(.(.(.(.t.  s p p q r.6.4 X 4 7 e.k d e w a i./.(.(.(.(.(.(.(.(.(.(.(.(.(.(.(.(.(.(.",
"/.(.(.(.(.(.(.(.(.(.(.).(.^.U.A.c.T @ 7 d s R [.8 , , : 5 }.u , : a =.u.(.(.(.(.(.(.(.(.(.(.(.(.(.(.(.(.(.(.(.",
"(.(.(.(.(.(.(.(.(.(.^.R.T.`.z.w.,.d + # = G [.d > > < > 7 }.r : > i -.E ^.(.(.(.(.(.(.(.(.(.(.(.(.(.(.(.(.(.(.",
"(.(.(.(.(.).(.^.P.T.#X+X.Xz...8 4 1 7 o.| ].3.1 3 3 3 > r .Xr . : 9 1.>.I.(.(.(.(.(.(.(.(.(.(.(.(.(.(.(.(.(.(.",
"(.(./.E.U.G.C.]..X*X-X+XZ.M.& = O 1 j #.e.}.7 O 3 3 6 > k XX0 + : 9 1.;.L.(.(.(.(.(.(.(.(.(.(.(.(.(.(.(.(.(.(.",
"(.).F._ &..X&X=X*X$X].G.^.N n B.M & Y E %./ | B , 3 + u 0.9.4 z 2 i 2.:.K.(.(.(.(.(.(.(.(.(.(.(.(.(.(.(.(.(.(.",
"(.(./.I.G.A.Z.Z.Y.L.Q.(.^.F.~.).(.B.! Y F C D.F.N m M S ].#.u m 2 a 2.>.L.(.(.(.(.(.(.(.(.(.(.(.(.(.(.(.(.(.(.",
"(.(.(.(.(.(.(.(.(.(.(.(.(.).(.(.(.~. .E % G B.).(.(.s.y b ~ [ y . f <.,.W.(.(.(.(.(.(.(.(.(.(.(.(.(.(.(.(.(.(.",
"(.(.(.(.(.(.(.(.(.(.(.(.(.(.(.(.(.(.d.T x c h.(.(.(.~.h.c y W Z ( >.b y.(.(.(.(.(.(.(.(.(.(.(.(.(.(.(.(.(.(.(.",
"(.(.(.(.(.(.(.(.(.(.(.(.(.(.(.(.(.(.j.K c * D.(.(.(.(.(.a.l l ..u.b d.I.(.(.(.(.(.(.(.(.(.(.(.(.(.(.(.(.(.(.(.",
"(.(.(.(.(.(.(.(.(.(.(.(.(.(.(.(.(.(.v.H c l h.(.(.(.(.(.^.s.z c ] v B.).(.(.(.(.(.(.(.(.(.(.(.(.(.(.(.(.(.(.(.",
"(.(.(.(.(.(.(.(.(.(.(.(.(.(.(.(.(.).n.o.G H i.(.(.(.(.(.(./.s.Z I ] } H.).(.(.(.(.(.(.(.(.(.(.(.(.(.(.(.(.(.(.",
"(.(.(.(.(.(.(.(.(.(.(.(.(.(.(.(.(.U.y.o.X.o.| (.(.(.(.(.(.(./.a.o.` H v.).(.(.(.(.(.(.(.(.(.(.(.(.(.(.(.(./.(.",
"(.(.(.(.(.(.(.(.(.(.(.(.(.(.(.(.m.( x ; - Z | /.(.(.(.(.(.(.(.!._ % x y.(.(.(.(.(.(.(.(.(.(.(.(.(.(.(.(.(.(.(.",
"(.(.(.(.(.(.(.(.(.(.(.(.(.(.(.D.G ; @ @ - z a.(.(.(.(.(.(.(.(.).b.C H _ ^.(.(.(.(.(.(.(.(.(.(.).(.(.(.(.(.(.(.",
"(.(.(.(.(.(.(.(.(.(.(.(.(.(.(.L.| m m V b.D.E.(.(.(.(.(.(.(.(.(.M.n ; ( L.).(.(.(.(.(.(.(.(.(.(.(.(.(.(.(.(.(.",
"(.(.(.(.(.(.(.(.(.(.(.(.(.(.(.(./.!.!.(.).).(.(.(.(.(.(.(.(.(.(.L.s.n.H./.(.(.(.(.(.(.(.(.(.(.(.(.(.(.(.(.(.(."
};
