/* XPM */
static char *enemy_23[] = {
/* columns rows colors chars-per-pixel */
"55 55 200 2 ",
"   c #350905",
".  c #3A0C07",
"X  c #320B08",
"o  c #3E0E0A",
"O  c #3E120F",
"+  c #2D1618",
"@  c #3D1513",
"#  c #36191B",
"$  c #392223",
"%  c #382728",
"&  c #272D32",
"*  c #322C30",
"=  c #3A2D33",
"-  c #382F39",
";  c #37323A",
":  c #393338",
">  c #3B323A",
",  c #3E383F",
"<  c #400C07",
"1  c #430E0A",
"2  c #4A0F0B",
"3  c #45110D",
"4  c #4C120E",
"5  c #50120F",
"6  c #4A1915",
"7  c #511511",
"8  c #581A17",
"9  c #6F1F1C",
"0  c #45221E",
"q  c #74201D",
"w  c #462726",
"e  c #582B29",
"r  c #46302D",
"t  c #463437",
"y  c #40393D",
"u  c #573A36",
"i  c #6F2B29",
"p  c #65302F",
"a  c #643A39",
"s  c #7A3839",
"d  c #69413D",
"f  c #2C3C45",
"g  c #363843",
"h  c #3D3A45",
"j  c #453B47",
"k  c #433C45",
"l  c #493A45",
"z  c #503C40",
"x  c #3D464F",
"c  c #384757",
"v  c #3B5266",
"b  c #35536A",
"n  c #3B576D",
"m  c #3D5C72",
"M  c #41424C",
"N  c #4A414A",
"B  c #564342",
"V  c #5E4241",
"C  c #5D4B48",
"Z  c #484857",
"A  c #554A59",
"S  c #5D4C5B",
"D  c #4A5159",
"F  c #575258",
"G  c #6B4946",
"H  c #734E4D",
"J  c #64524D",
"K  c #684C58",
"L  c #665551",
"P  c #6C5353",
"I  c #64565C",
"U  c #695758",
"Y  c #6A5C5B",
"T  c #7B5651",
"R  c #725C5B",
"E  c #7C5A5C",
"W  c #6F605B",
"Q  c #77645E",
"!  c #495464",
"~  c #475769",
"^  c #535666",
"/  c #5C5E68",
"(  c #445D71",
")  c #5E5B70",
"_  c #645A64",
"`  c #695867",
"'  c #775461",
"]  c #615B70",
"[  c #715E73",
"{  c #4F636F",
"}  c #546573",
"|  c #576677",
" . c #6F6161",
".. c #646169",
"X. c #6B646A",
"o. c #7C6B65",
"O. c #796868",
"+. c #6A6A74",
"@. c #766574",
"#. c #6C707B",
"$. c #727076",
"%. c #892A29",
"&. c #982C29",
"*. c #893432",
"=. c #963939",
"-. c #A02D2A",
";. c #AB3A37",
":. c #8A413F",
">. c #AC413D",
",. c #8C4849",
"<. c #974847",
"1. c #8B4C52",
"2. c #875B5B",
"3. c #B64B49",
"4. c #AE504E",
"5. c #866967",
"6. c #82706A",
"7. c #8B736E",
"8. c #94726B",
"9. c #9A6E73",
"0. c #887877",
"q. c #977D76",
"w. c #9D867E",
"e. c #386683",
"r. c #3E6D8A",
"t. c #3F7496",
"y. c #446984",
"u. c #506B84",
"i. c #477492",
"p. c #4C7997",
"a. c #457C9E",
"s. c #557A98",
"d. c #647584",
"f. c #63748C",
"g. c #757E8C",
"h. c #427CA0",
"j. c #826D86",
"k. c #8B788A",
"l. c #937D97",
"z. c #5E859E",
"x. c #6E818F",
"c. c #7C838A",
"v. c #798C97",
"b. c #4882A5",
"n. c #4D87AB",
"m. c #568BAF",
"M. c #488EB7",
"N. c #538DB6",
"B. c #4C93BD",
"V. c #5593BD",
"C. c #6E93AA",
"Z. c #638FB1",
"A. c #4D99C5",
"S. c #4D9AC8",
"D. c #5399C4",
"F. c #559BC6",
"G. c #5EA4CC",
"H. c #4FA1D0",
"J. c #54A5D4",
"K. c #5CA9D4",
"L. c #54A7D9",
"P. c #54AADC",
"I. c #65A2C9",
"U. c #63A9D1",
"Y. c #55AEE2",
"T. c #58AFE2",
"R. c #56B1E6",
"E. c #59B2E6",
"W. c #57B4E9",
"Q. c #59B6EC",
"!. c #5AB8EF",
"~. c #5CBCF4",
"^. c #5DBFF8",
"/. c #5DC0F9",
"(. c #898688",
"). c #988A88",
"_. c #9F908A",
"`. c #988796",
"'. c #97979C",
"]. c #A58D85",
"[. c #AA938B",
"{. c #A99892",
"}. c #B89E95",
"|. c #8D9CA6",
" X c #AA95A9",
".X c #87A2B5",
"XX c #9CADB6",
"oX c #B2A4AB",
"OX c #AFA4B0",
"+X c #BAACB5",
"@X c #B1B0B2",
"#X c #C9ACA1",
"$X c #CCB8AE",
"%X c #E4C9BD",
"&X c #C9BBC2",
"*X c #D6CACA",
"=X c #D9CFCD",
"-X c #E6CCC1",
";X c #EDD3C8",
":X c #F3DDD0",
/* pixels */
"~.~.~.~.~.~.~.~.!.~.~.~.~.~.~.~.~.~.~.~.~.~.~.~.~.~.~.~.~.~.~.~.~.~.~.~.~.~.~.~.~.~.~.~.~.~.~.~.~.~.~.~.~.~.~.",
"~.~.~.~.~.~.~.~.~.~.~.~.~.~.~.~.~.~.~.~.~.~.~.~.!.~.~.~.~.~.~.~.~.~.~.~.~.~.~.~.~.~.~.~.~.~.~.~.~.~.~.~.~.~.~.",
"~.~.~.~.~.~.~.~.~.~.~.~.~.~.~.~.~.~.~.~.~.~.~.~.~.~.~.~.~.~.~.~.~.~.~.~.~.~.~.~.~.~.~.~.~.~.~.~.~.~.~.~.~.~.~.",
"~.~.~.~.~.~.~.~.~.~.~.~.~.~.~.~.~.~.~.~.~.~.~.~.~.~.~.~.~.~.~.~.~.~.~.~.~.~.~.~.~.~.~.~.~.~.~.~.~.~.~.~.~.~.~.",
"~.~.~.~.~.~.~.~.~.~.~.~.~.~.~.~.~.~.~.~.~.~.~.~.~.~.~.~.~.~.~.~.~.~.~.~.~.~.~.!.~.~.~.~.~.~.~.~.~.~.~.~.~.~.~.",
"~.~.~.~.~.~.~.~.~.~.~.~.~.~.~.~.~.~.~.~.~.~.~.~.~.~.~.~.~.~.~.~.~.~.~.~.~.~.~.~.~.~.!.~.~.~.~.~.~.~.~.~.~.~.~.",
"~.~.~.~.~.~.~.~.~.~.~.~.~.~.~.~.~.~.~.~.~.~.~.~.~.~.~.~.~.~.~.~.~.~.~.~.~.~.~.~.~.~.~.~.~.~.~.~.~.~.~.~.~.~.~.",
"~.~.~.~.~.~.~.~.~.~.~.~.~.~.~.~.~.~.~.~.~.~.~.~.~.~.~.~.~.~.~.~.~.~.~.~.~.~.~.~.~.~.~.~.~.~.~.~.~.!.~.~.~.~.~.",
"~.~.~.~.~.~.~.~.~.~.~.~.~.~.~.~.~.~.~.~.~.~.~.~.~.~.~.~.~.~.~.~.~.~.~.~.~.~.~.~.~.~.~.~.~.~.~.~.~.~.~.~.~.~.~.",
"~.~.~.~.~.~.~.~.~.~.~.~.~.~.~.~.~.~.~.~.~.~.~.~.~.~.~.~.~.~.~.~.~.~.~.~.~.~.~.~.~.~.~.~.~.~.~.~.~.~.~.~.~.~.~.",
"~.~.~.~.~.~.~.~.~.~.~.~.~.~.~.~.~.~.~.~.~.~.~.~.~.~.~.~.~.~.~.~.~.~.~.~.~.~.~.~.!.~.~.~.~.~.~.~.~.~.~.~.~.~.~.",
"~.~.~.~.~.~.~.~.~.~.~.~.~.~.~.~.~.~.~.~.~.~.~.~.~.~.~.~.~.~.~.~.~.~.~.~.~.~.~.~.~.~.~.~.~.~.~.~.~.~.~.~.~.~.~.",
"~.~.~.~.~.~.~.~.~.!.~.~.~.~.~.~.~.~.~.~.~.~.~.~.~.~.~.~.~.~.~.~.~.~.~.~.~.~.~.~.~.~.~.~.~.~.~.~.~.~.~.~.~.~.~.",
"~.~.~.~.~.~.~.~.~.~.~.~.~.~.~.~.~.~.~.~.~.~.~.~.~.~.~.~.~.~.~.~.~.~.~.~.~.~.~.~.~.~.~.~.~.~.~.~.~.~.~.~.~.~.~.",
"~.~.~.~.~.~.~.~.~.~.~.~.~.~.~.~.~.~.~.~.~.~.~.~.~.~.~.~.~.~.~.~.~.~.~.~.~.~.~.~.~.~.~.~.~.~.~.~.~.~.~.~.~.~.~.",
"~.~.~.~.~.~.~.~.~.~.~.~.~.~.~.~.~.~.~.~.~.~.~.~.~.~.~.~.~.~.~.~.~.~.~.~.~.~.~.~.~.~.~.~.~.~.~.~.~.~.~.~.~.~.~.",
"~.~.~.~.~.~.~.~.~.~.~.~.~.~.~.~.~.~.~.~./.E.U.U.U././././././.W.~.~.~.~.~.~.~.~.~.~.~.~.~.~.~.~.~.~.~.~.~.~.~.",
"~.~.~.~.~.~.~.~.~.~.~.~.~.~.~.~.~.~.~.~.K.@X=X=X$X|.P./.W./././.~.~.~.~.~.~.~.~.~.~.~.~.~.~.~.~.~.~.~.~.~.~.~.",
"~.~.~.~.~.~.~.~.~.~.~.~.~.~.~.~.~.~.~.E.XX:X;X%X-X$XC./././.W./.~.~.~.~.~.~.~.~.~.~.~.~.~.~.~.~.~.~.~.~.~.~.~.",
"~.~.~.~.~.~.~.~.~.~.~.~.~.~.~.~.~.~.~.K.@X;X-X}.}.#X).R.E./.W./.~.~.~.~.~.~.~.~.~.~.~.~.~.~.~.~.~.~.~.~.~.~.~.",
"~.~.~.~.~.~.~.~.~.~.~.~.~.~.~.~.~.~.^.F.).#Xo.W 6.5.$.Y./.E././.~.~.~.~.~.~.~.~.~.~.~.~.~.~.~.~.~.~.~.~.~.~.~.",
"~.~.~.~.~.~.~.~.~.~.~.~.~.~.~.~.~.~.^.J.D ).W W w.C b./././.E./.~.~.~.~.~.~.~.~.~.~.~.~.~.~.~.~.~.~.~.~.~.~.~.",
"~.~.~.~.~.~.~.~.~.~.~.~.~.~.~.^.~.^.^.!.v.w.#X_.2.} L.Y.W./././.~.~.~.~.~.~.~.~.~.~.~.~.~.~.~.~.~.~.~.~.~.~.~.",
"~.~.~.~.~.~.~.~.~.~.~.~.^.^.E.D.D.M.b.Q.G.{.[.B C } d.c..XI.E./.~.~.~.~.~.~.~.~.~.~.~.~.~.~.~.~.~.~.~.~.~.~.~.",
"~.~.~.~.~.~.~.~.~.~.~.!.D.n.^ d a % f T.Q.d.Q 2.L w.OX(.oXOXZ.!.Q.E.!./.!.~.~.~.~.~.~.~.~.~.~.~.~.~.~.~.~.~.~.",
"~.~.~.~.~.~.~.~.~.~.~.P.} k w e p $ & i.p...8.d W @X&X Xj.k.`.u.m.b./.!.~.~.~.~.~.~.~.~.~.~.~.~.~.~.~.~.~.~.~.",
"~.~.~.~.~.~.~.~.~.~.~.~.P.D.S *.p % y 5.9.9.2.H ).*X*X Xl.[ l.@.x.I.!./.~.~.~.~.~.~.~.~.~.~.~.~.~.~.~.~.~.!.~.",
"~.~.~.~.~.~.~.~.~.~.~.~.~.^.s.,.,.w r.U.f.0.k.).@X*X+Xl.l.[ 6.] B././.!.~.~.~.~.~.~.~.~.~.~.~.~.~.~.~.~.~.~.~.",
"~.~.~.~.~.~.~.~.~.~.~.~.~.~.L.H :.z B.E.C.(.Y O.`. Xl.j.g.S ` ` m.E.~./.~.~.~.~.~.~.~.~.~.~.~.~.~.~.~.~.~.~.~.",
"~.~.~.~.~.~.~.~.~.~.~.~.~.~.!.p.| 0.|.'.c.m.{ X.k.j.d.[ ` l S K X.r.Q./.!.~.~.^.~.~.~.~.~.~.~.~.~.~.~.~.~.~.~.",
"~.~.~.~.~.~.~.~.~.~.~.~.~.~.~.^.!.z._.x.L.!.| @.5.` ` S l j l [ (.M.E.~.^.~.~.~.~.~.~.~.~.~.~.~.~.~.~.~.~.~.~.",
"~.~.~.~.~.~.~.~.~.~.~.~.~.~.~.~.^.E.D.R.^.Y.M 5.S l l l - l l 8.].V.^.~.~.~.~.~.~.~.^.!.~.~.~.~.~.~.~.~.~.~.~.",
"~.~.~.~.~.~.~.~.~.~.~.~.~.~.~.~.~.~.^.~.^.M.+ r $ l t = y = # *.5.P.^.^.~.~.~.~.~.~.~.~.~.~.~.~.~.~.~.~.~.~.~.",
"~.~.~.!.~.~.~.~.~.~.~.~.~.~.~.~.~.~.~.~.Q.b X @ w % N > = $   q %.N.^.~.~.~.~.~.~.~.~.~.~.~.~.~.~.~.~.~.~.~.~.",
"~.~.~.~.~.~.~.~.~.~.~.~.~.~.~.~.~.~.~.^.M.+   7.{.6.o.t L J X 7 &./ Q.^.~.~.~.~.~.~.~.~.~.~.~.~.~.~.~.~.~.~.~.",
"~.~.~.~.~.~.~.~.~.~.~.~.!.~.~.~.~.~.~.W.c   0 o.Q L L 7.7.0   o %.s J.^.~.~.~.~.~.~.~.~.~.~.~.~.~.~.~.~.!.~.~.",
"~.~.~.~.~.~.~.~.~.~.~.~.~.~.~.~.^.!.^.t.X o @ P J r r Q 7.B o . 9 &.s.~.~.~.~.~.~.~.~.~.~.~.~.~.~.~.~.~.~.~.~.",
"~.~.~.~.~.~.~.~.~.~.~.~.~.~.~.~.!.^.H.% 1 1 1 J o.o.o.w.o.7.O . 5 &.K T.~.~.~.~.~.~.~.~.~.~.~.~.~.~.~.~.~.~.~.",
"~.~.~.~.~.~.~.~.~.~.~.~.~.~.~.~./.W.c 1 1 1 T }.u w r r w.2.. 1 2 %.=.N.~.~.~.~.~.~.~.~.~.~.~.~.~.~.~.~.~.~.~.",
"~.~.~.~.~.~.~.~.~.~.~.~.~.~.~.~.^.y.@ 4 2 u [.d . 1 3 3 q.Q < 3 o q ;.K Q.~.~.~.~.~.~.~.~.~.~.~.~.~.~.~.~.~.~.",
"~.~.~.~.~.~.~.~.~.~.~.~.~.~.~.~.M.$ 6 2 e ].H 2 4 4 4 1 q.2.1 1 1 8 ;.=.D.^.~.~.~.~.~.~.~.~.~.~.~.~.~.~.~.~.~.",
"~.~.~.~.~.~.~.~.~.~.~.~.~.~.~.L.: u  .e ].R 4 2 4 4 4 4 q.T 2 1 1 6 =.;.d.~.~.~.~.~.~.~.~.~.~.~.~.~.~.~.~.~.~.",
"~.~.~.~.~.~.~.~.~.~.~.~.~.~.~.( 6 Y ` ).|.> 7 7 5 5 5 6 [.T 2 3 # 1 *.3.' Y.~.~.~.~.~.~.~.~.~.~.~.~.~.~.~.~.~.",
"~.~.~.~.~.~.~.~.~.~.~.~.~.^.B.$ = E U ).C.* 6 = 6 7 4 e {.G 2 $ g 4 *.3.1.J.~.~.~.~.~.~.~.~.~.~.~.~.~.~.~.~.~.",
"~.~.~.~.~.~.~.~.~.~.~.~.~.!.c h ( 2.z / B.; t S.- 3 = #.{.U 6 = v 2 i 3.<.D.~.~.~.~.~.~.~.~.~.~.~.~.~.~.~.~.~.",
"~.~.~.~.~.~.~.~.~.~.~.~.~.L.m D.n.E t j m g m ~.M.i.a.u.@.5.K ! m 1 i 4.<.N.^.~.~.~.~.~.~.~.~.~.~.~.~.~.~.~.~.",
"~.~.~.~.~.~.~.~.~.~.~.~.~.!.!./.F._ j k n H.P.~././.~.i.t V E M b h K 1.Z J.~.~.~.~.~.~.~.~.~.~.~.~.~.~.~.~.~.",
"~.~.~.~.~.~.~.~.~.~.~.~.~.~.~.^.L.! A - e.~.~.~.~.~.~.P.~ - j _ f.h.d.2.D.Q.~.~.~.~.~.~.~.~.~.~.~.!.~.~.~.~.~.",
"~.~.~.~.~.~.~.~.~.~.~.~.~.~.~.~.P.! Z k b !.~.~.~.~.~.~.L.y.h k ` ! P [ T.~.~.~.~.~.~.~.~.~.~.~.~.~.~.~.~.~.~.",
"~.~.~.!.~.~.~.~.~.~.~.~.~.~.~./.J.+.F A ! Y.~.~.~.~.~.~.~.Q.h.x A ] I p.~.~.~.~.~.~.~.~.~.~.~.~.~.~.~.~.~.~.~.",
"~.~.~.~.~.~.~.~.~.~.~.~.~.~.~.E.b./ X.X.~ L.^.~.~.~.~.~.~.~.~.n.) _ F y.~.~.~.~.~.~.~.~.~.~.~.~.~.~.~.~.~.~.~.",
"~.~.~.~.~.~.~.~.~.~.~.~.~.~.F.} M , * N ! L.~.~.~.~.~.~.~.~.~.~.p.; h ( Q.~.~.~.~.~.~.~.~.~.~.~.~.~.~.~.~.~.~.",
"~.~.~.~.~.~.~.~.~.~.~.~.~.R.~ , * * : h v Y.~.~.~.~.~.!.~.~.~.^.A.M Z ~ Y.~.~.~.~.~.~.~.~.~.~.~.~.~.~.~.~.~.~.",
"~.~.~.~.~.~.~.~.~.~.~.~.~.E.i.v c n a.A.J.~.~.~.~.~.~.~.~.~.~.^.F.M h D J.~.~.~.~.~.~.~.~.~.~.~.~.~.~.~.~.~.~.",
"~.~.~.~.~.~.~.~.~.~.~.~.~.~.~.Q.R.Q.~./.~.~.~.~.~.~.~.~.~.~.~.^.Y.N.N.S.!.~.~.~.~.~.~.~.~.~.~.~.~.~.~.~.~.~.~."
};
