/* XPM */
static char * enemy7_xpm[] = {
"64 64 23 1",
" 	c #F8C984",
".	c #F8CD8F",
"+	c #EA3005",
"@	c #F1B183",
"#	c #F8D4A0",
"$	c #F4BB83",
"%	c #FFB300",
"&	c #FFFFFF",
"*	c #F8CB8A",
"=	c #CEDAE8",
"-	c #F8CF93",
";	c #913C1C",
">	c #81251B",
",	c #BCC9D9",
"'	c #4F1813",
")	c #8A8428",
"!	c #6A6521",
"~	c #641E17",
"{	c #2C2A0A",
"]	c #F2B683",
"^	c #F6C384",
"/	c #F8D197",
"(	c #F8D39E",
"                                                                ",
"                                                                ",
"                       ..                                       ",
"                                                                ",
"                                   ++                           ",
"         @@@                      +++  ####                     ",
"        @@@@@                     +    ####                     ",
"       @@@@@@@               ++        ####                     ",
"       @@@@@@@$             ++++       ####                     ",
"       @@@@@@@$            ++++++                               ",
"       @@@@@@@             +%%+++                               ",
"        $@@@@              +%%%++                               ",
"         @@@                +%%+                                ",
"                  %%         %+                                 ",
"                  %%         &                    *             ",
"                       %%  %&=                    -             ",
"                     %%%%%%&==                                  ",
"                    %%;;;;;;;=  &&&                             ",
"                   %;;>>>>;;;;;===&                             ",
"                  %;>>&>>>>>>;;;;=                              ",
"                 %;>>&&&>>>>>>;;;;                              ",
"                %;>&>&&&&&>>>>>>;;  &&                   ###    ",
"                %>&&,&=,&&,>>>>>>>;=&&                  #####   ",
"      *         %&&,&&,,&,,>>>>>>>;;&                  #######  ",
"      *         %&,,&='',,''''&&>>;;=                  #######  ",
"                %,'',',,&',)))=&&>>;;                   #####   ",
"                %&,,&,,&&,))))!===>;;                    ###    ",
"                %&&&&&,&&&)))!!!~>>>;'                          ",
"                 %===&&)=&)!!!!~~~&>>'                          ",
"                  %!)==)!!!!!{))~~=&>'                          ",
"                   %!!!!!{{{!!))~~~>>'                          ",
"                          !!!!!))~~~'                           ",
"                          !!!!!!!~~~'                           ",
"                          {{{!!!!~~'~                           ",
"                          ))){{{{''~~           &               ",
"    ]@^                 ))))))!!!~&~&&          =&'';;          ",
"   ]@@@               ){)))))!!!!~=&;&          =;;'>>;         ",
"   @@@@             ))){))))!!!!!~=>;;'     &  ;;>>'~>>;        ",
"   ^@@@           ))))){)))!!!!!!~>>>>'&&  &=''>>>!~~~>>        ",
"                 )))))){!!!!!!!!~~>>>>';&  =>>){!!   ~~'        ",
"                 )))))!{!!!!!!!~~!)>>>';;'>>))!{!    '~>;  ;;   ",
"                 )))!!!!{!!!!!~~!!!))'>>>>{)!!{ @@@@@''>>;;>>>  ",
"                 !!!!!!!!{!!!!   !!!!{)))){!!! @@@@@@~~~>>>>>~  ",
"                  !!!!!!!!{{{     !!!{!!!!{!  @@@@@@@@@~~>>~~   ",
"                   !!!!!!!!         {!!!!!{   @@@@@@@@@ ~~~~    ",
"                                              @@@@@@@@@         ",
"                                               @@@@@@@          ",
"                                *               @@@@@           ",
"                                                                ",
"                                                                ",
"                                                                ",
"                                                                ",
"                                                                ",
"                                                                ",
"                                                                ",
"     ####                                                       ",
"    /#####                                                      ",
"   (#######                          @@@@                       ",
"    ######/                          @@@@                       ",
"     ####                            @@@@                       ",
"      ##/                             @@]                       ",
"                                                                ",
"                                                                ",
"                                                                "};
