/* XPM */
static char *enemy_18[] = {
/* columns rows colors chars-per-pixel */
"55 55 206 2 ",
"   c #3A0B05",
".  c #38191A",
"X  c #2D1D20",
"o  c #2C2D2F",
"O  c #34242A",
"+  c #392828",
"@  c #362C35",
"#  c #353135",
"$  c #36333D",
"%  c #3C323C",
"&  c #470D07",
"*  c #4B0F09",
"=  c #530F07",
"-  c #43110C",
";  c #4C110A",
":  c #53120C",
">  c #5D120A",
",  c #471916",
"<  c #551B15",
"1  c #591914",
"2  c #64140C",
"3  c #68160E",
"4  c #621710",
"5  c #50211B",
"6  c #69241D",
"7  c #451F20",
"8  c #472527",
"9  c #532925",
"0  c #572C2B",
"q  c #44312E",
"w  c #402B30",
"e  c #4A393B",
"r  c #573738",
"t  c #612922",
"y  c #652A2A",
"u  c #73302B",
"i  c #6B3938",
"p  c #753637",
"a  c #5B423E",
"s  c #71413A",
"d  c #3D3543",
"f  c #3A3D49",
"g  c #473A46",
"h  c #423C45",
"j  c #5D3943",
"k  c #38414A",
"l  c #2A4659",
"z  c #3B4759",
"x  c #394E62",
"c  c #345167",
"v  c #3A5063",
"b  c #385469",
"n  c #385B73",
"m  c #3D607B",
"M  c #46434B",
"N  c #4A434C",
"B  c #584447",
"V  c #5E4D4A",
"C  c #494756",
"Z  c #574954",
"A  c #554A55",
"S  c #534A58",
"D  c #5C4C5C",
"F  c #45505E",
"G  c #5A545C",
"H  c #664847",
"J  c #7A4A47",
"K  c #65534F",
"L  c #6C534E",
"P  c #6F4C51",
"I  c #685657",
"U  c #6C5A5E",
"Y  c #755657",
"T  c #6F605C",
"R  c #74635D",
"E  c #7A645E",
"W  c #424D61",
"Q  c #5E4F60",
"!  c #49596A",
"~  c #5B5867",
"^  c #455E71",
"/  c #565E73",
"(  c #675668",
")  c #6D5B6C",
"_  c #725460",
"`  c #4A6376",
"'  c #596478",
"]  c #6A646C",
"[  c #6A656D",
"{  c #7B6964",
"}  c #756768",
"|  c #7E706C",
" . c #776A76",
".. c #7B657B",
"X. c #76747B",
"o. c #89302F",
"O. c #853636",
"+. c #983532",
"@. c #A73D3B",
"#. c #844644",
"$. c #944746",
"%. c #845E5F",
"&. c #A44544",
"*. c #B44A47",
"=. c #83635C",
"-. c #836A67",
";. c #956C64",
":. c #84746E",
">. c #8B716B",
",. c #847B7B",
"<. c #8C7C79",
"1. c #947C75",
"2. c #8B807C",
"3. c #94817A",
"4. c #99847D",
"5. c #A5867E",
"6. c #3B6987",
"7. c #476883",
"8. c #536780",
"9. c #48728F",
"0. c #58758E",
"q. c #447899",
"w. c #4B7D9C",
"e. c #5C7D93",
"r. c #537C9B",
"t. c #777C89",
"y. c #447DA1",
"u. c #4E7FA0",
"i. c #517FA3",
"p. c #86718A",
"a. c #87778C",
"s. c #9A7B83",
"d. c #5C839C",
"f. c #7A828D",
"g. c #65869E",
"h. c #7B8C9A",
"j. c #4785AA",
"k. c #5889A9",
"l. c #4C8CB4",
"z. c #518FB8",
"x. c #4790BA",
"c. c #4A92BC",
"v. c #5D93B7",
"b. c #5391B9",
"n. c #718CA4",
"m. c #7B94A7",
"M. c #6C98B8",
"N. c #4B95C2",
"B. c #4D99C6",
"V. c #4E9DCC",
"C. c #5399C3",
"Z. c #5B9BC3",
"A. c #579EC9",
"S. c #5BA2CC",
"D. c #4FA1D1",
"F. c #52A3D3",
"G. c #58A8D7",
"H. c #54ABDD",
"J. c #68A4CA",
"K. c #55ADE1",
"L. c #58AFE2",
"P. c #56B1E6",
"I. c #5AB2E5",
"U. c #57B3E9",
"Y. c #59B6EC",
"T. c #59B8EF",
"R. c #57B9F2",
"E. c #5CBCF4",
"W. c #5DBFF8",
"Q. c #5DC0F9",
"!. c #89858B",
"~. c #9D8B83",
"^. c #908D8E",
"/. c #868E97",
"(. c #978996",
"). c #9B849C",
"_. c #89949B",
"`. c #9B9493",
"'. c #92949E",
"]. c #A19089",
"[. c #AC928A",
"{. c #A7979A",
"}. c #B49B96",
"|. c #BDA69D",
" X c #9494A0",
".X c #A28BA4",
"XX c #A595A0",
"oX c #A49AA3",
"OX c #8AA5B8",
"+X c #ABA6A7",
"@X c #BDA5A6",
"#X c #B1A2AA",
"$X c #B6A5B3",
"%X c #B6B5B4",
"&X c #B7BFBF",
"*X c #C39A9B",
"=X c #C1A69C",
"-X c #C6ABA4",
";X c #CBB2A8",
":X c #D1B3B0",
">X c #E0B4B3",
",X c #DDC0B5",
"<X c #C9BBC3",
"1X c #D7CBCF",
"2X c #EBD4C8",
"3X c #EFD7CB",
/* pixels */
"E.E.E.E.E.E.E.E.E.E.E.E.E.E.E.E.E.E.T.E.E.E.E.E.E.E.E.E.E.E.E.E.E.E.E.E.E.E.E.E.E.E.E.E.E.E.E.E.E.E.E.E.E.E.E.",
"E.E.E.E.E.E.E.E.E.E.E.E.E.E.E.E.E.E.E.E.E.E.E.E.E.E.E.E.E.E.E.E.E.E.E.E.E.E.E.E.E.E.E.E.E.E.E.E.E.E.E.E.E.E.E.",
"E.E.E.E.E.E.E.E.E.E.E.E.E.E.E.E.E.E.E.E.E.E.E.E.E.E.E.E.E.E.E.E.E.E.E.E.E.E.E.E.E.E.E.E.E.E.E.E.E.E.E.E.E.E.E.",
"E.E.E.E.E.E.E.E.E.E.E.E.E.E.E.E.E.E.E.E.E.E.E.E.E.E.E.E.E.E.E.E.E.E.E.E.E.E.E.E.E.E.E.E.E.E.E.E.E.E.E.E.E.E.E.",
"E.E.E.E.E.E.E.E.E.E.E.E.E.E.E.E.E.E.E.E.E.E.E.E.E.E.E.E.E.E.E.E.E.E.E.E.E.E.E.E.E.E.E.E.E.E.E.E.E.E.E.E.E.E.E.",
"E.E.E.E.E.E.E.E.E.E.E.E.E.E.E.E.E.E.E.E.E.E.E.E.E.E.E.E.E.E.E.E.E.E.E.E.E.E.E.E.E.E.E.E.E.E.E.E.E.E.E.T.E.E.E.",
"E.E.E.E.E.E.E.E.E.E.E.E.E.E.E.E.E.E.E.E.E.E.E.E.E.E.E.E.E.E.E.E.E.E.E.E.E.E.E.E.E.E.E.E.E.E.E.E.E.E.E.E.E.E.E.",
"E.E.E.E.E.E.E.E.E.E.E.E.E.E.E.E.E.E.E.E.E.E.E.E.E.E.E.E.E.E.E.E.E.E.E.E.E.E.E.E.E.E.E.E.E.E.E.E.E.E.E.E.E.E.E.",
"E.E.E.E.E.E.E.E.E.E.E.E.E.E.E.E.E.E.E.E.E.E.E.E.E.E.E.E.E.E.E.E.E.E.E.E.E.E.E.E.E.E.E.E.E.E.E.E.E.E.E.E.E.E.E.",
"E.E.E.E.E.E.E.E.E.E.E.E.E.E.E.E.E.E.E.E.E.E.E.E.E.E.E.E.E.E.E.E.E.E.E.E.E.E.E.E.E.E.E.E.E.E.E.E.E.E.E.E.E.E.E.",
"E.E.E.E.E.E.E.E.E.E.E.E.E.E.E.E.E.E.E.E.E.E.E.E.E.E.E.E.E.E.E.E.W.W.E.E.E.E.E.E.E.E.E.E.E.E.E.E.E.E.E.E.E.E.E.",
"E.E.E.E.E.E.E.E.E.E.E.E.E.E.E.E.E.E.E.E.E.E.E.E.E.E.E.E.E.E.L.G.A.S.S.H.Y.E.E.E.E.E.E.E.E.E.E.E.E.E.E.E.E.E.E.",
"E.E.E.E.E.E.E.E.E.E.E.E.T.E.E.E.E.E.E.E.W.R.R.E.E.E.W.W.Y.v.'.#X-X-X@XXXt.w.H.E.E.E.E.E.E.E.E.E.E.E.E.E.E.E.E.",
"E.E.E.E.E.E.E.E.E.E.E.E.E.E.E.E.E.E.E.W.D.c c.W.E.Y.G.J.m.@X>X-X*X{. Xm.g.w.F.E.E.E.E.E.E.E.E.E.E.E.E.E.E.E.E.",
"E.E.E.E.E.E.E.E.E.E.E.E.E.E.E.E.E.E.E.F.9.X n Z.e.a.a.s.}.#X XJ.S.G.U.R.R.W.E.E.E.E.E.E.E.E.E.E.E.E.E.E.E.E.E.",
"E.E.E.E.E.E.E.E.E.E.E.E.E.E.E.E.E.R.b.P p O @ -.s.)./.M.J.I.T.W.E.W.E.E.E.E.E.E.E.E.E.E.E.E.E.E.E.E.E.E.E.E.E.",
"E.E.E.E.E.E.E.E.E.E.E.E.E.E.E.E.b.^ e y y r # k.G.G.P.Q.Q.Q.Q.Y.E.E.E.E.E.E.E.E.E.E.E.E.E.E.E.E.E.E.E.T.E.E.E.",
"E.E.E.E.E.E.E.E.E.E.E.E.E.E.E.Y.u.' 7.r s 9 o j.OX&X&XOXF.Q.Q.Q.E.E.E.E.E.E.E.E.E.E.E.E.E.E.E.E.E.E.E.E.E.E.E.",
"E.E.E.E.E.E.E.E.E.E.E.E.E.E.E.E.E.T.Y./ $.u x _.3X3X3X2X+XG.Y.Q.E.E.E.E.E.E.E.E.E.E.E.E.E.E.E.E.E.E.E.E.E.E.E.",
"E.E.E.E.E.E.E.E.E.E.E.E.E.E.E.E.E.E.E./ $.i M %X2X2X:X,X,Xm.Y.Y.E.E.E.E.E.E.E.E.E.E.E.E.E.E.E.E.E.E.E.E.E.E.E.",
"E.E.E.E.E.E.E.E.E.E.E.E.E.E.E.E.E.E.T.i.P ) ` | |.4.3.[.;X/.P.Q.E.E.E.E.E.E.E.E.E.E.E.E.E.E.E.E.E.E.E.E.E.E.E.",
"E.E.E.E.E.E.E.E.E.E.E.E.E.E.E.E.E.E.E.E.e.'.d.| 4.+ :.-.:.g.Y.Q.E.E.E.E.E.E.E.E.E.E.E.E.E.E.E.E.E.E.E.E.E.E.E.",
"E.E.E.E.E.E.E.E.E.E.E.E.E.E.E.E.E.E.E.E.k.`.n.~.=X[.].K a l.Q.Q.E.E.E.E.E.E.E.E.E.E.E.E.E.E.E.E.E.E.E.E.E.E.E.",
"E.E.E.E.E.E.E.E.E.E.E.E.E.E.E.E.E.E.E.E.b.,.h.`.[.I V r 0 r d.I.E.E.E.E.E.E.E.E.E.E.E.E.E.E.E.E.E.E.E.E.E.E.E.",
"E.E.E.E.E.E.E.E.E.E.E.E.E.E.E.E.T.Q.T.Q.P.d.^.d.k # a J O.#.p d.G.E.E.E.E.E.E.E.E.E.E.E.E.E.E.E.E.E.E.E.E.E.E.",
"E.E.E.E.E.E.E.E.E.E.E.E.E.E.E.E.Q.T.Q.Q.Q.U.d.} 4.>.K a L X.S ~ ' j.F.C.I.E.E.E.E.E.E.E.E.E.E.E.E.E.E.E.E.E.E.",
"E.E.E.E.E.E.E.E.E.E.E.E.E.E.E.E.T.Q.Q.T.Q.R.P.! L K | V U ~ # $ g D t.e.L.E.E.E.E.E.E.E.E.E.E.E.E.E.E.E.E.E.E.",
"E.E.E.E.E.E.E.E.E.E.E.E.E.E.E.E.Q.T.T.Q.T.Q.Q.c a | }.| ] ) f g ..).XX/.Z.E.E.E.E.E.E.E.E.E.E.E.E.E.E.E.E.E.E.",
"E.E.E.E.E.E.E.E.E.E.E.E.E.E.E.E.T.E.E.E.Q.Q.N.X V 2.-X2.| | ] oX$X.X<X<XXXM.T.E.E.E.E.E.E.E.E.E.E.E.E.E.E.E.E.",
"E.E.E.E.E.E.E.E.E.E.E.E.E.E.E.E.E.E.E.E.R.Q.m   B ~.-X<.T I } #Xa.s.<X1X1X{.v.E.E.E.E.E.E.E.E.T.E.E.E.E.E.E.E.",
"E.E.E.E.E.E.E.E.E.E.E.E.E.E.E.E.E.E.E.E.Q.U.k   a 1.:.:.].R U (.p.p.s.#X$X).t.A.E.W.E.E.E.E.E.E.E.E.E.E.E.E.E.",
"E.E.E.E.E.E.E.E.E.E.E.E.E.E.E.E.E.E.E.E.R.H.O & 9 { + q { { I ).t.a.a.p.t...:.I 0.G.E.E.E.E.E.E.E.E.E.E.E.E.E.",
"E.E.E.E.E.E.E.E.E.E.E.E.E.E.E.E.E.E.E.E.W.V.. - - 0 . - a a 5 ..) ( .. .) ( G j O._ z.T.W.E.E.E.E.E.E.E.E.E.E.",
"T.E.E.E.E.E.E.E.E.E.E.E.E.E.E.E.E.E.E.E.W.N.. * * - i J a { 5 H ] g Z D Z Z g r : +.#.8.K.E.E.E.E.E.E.E.E.E.E.",
"E.E.E.E.E.E.E.E.E.E.E.E.E.E.E.E.E.E.E.E.W.c.. * : 5 1.~.{ E E s j D g % g % % 0 2 1 +.&.( H.W.E.E.E.E.E.E.E.E.",
"E.E.E.E.E.E.E.E.E.E.E.E.E.E.E.E.E.E.E.E.W.V.. * : < E K q a R Y J g g e % @ e 1 2 2 1 @.&.8.Y.E.E.E.E.E.E.E.E.",
"E.E.E.E.E.E.E.E.E.E.E.E.E.E.E.E.E.E.E.E.W.F.O = : - a U L L 3.{ -.< , 8 @ 8 1 > . 1 = u *.$.N.E.E.E.E.E.E.E.E.",
"E.E.E.E.E.E.E.E.E.E.E.E.E.T.E.E.E.E.E.E.W.U.$ = = 5 3.E L L K E 1.4 3 2 2 2 3 2 g q.7 = @.*.8.E.E.E.E.E.E.E.E.",
"E.E.E.E.E.E.E.E.E.E.E.E.E.E.E.E.E.E.E.E.E.R.z * = =.[.t : : : s }.6 3 3 3 3 3 3 8 F.z.d o.*._ K.E.E.E.E.E.E.E.",
"E.E.E.E.E.E.E.E.E.E.E.E.E.E.E.E.E.E.E.E.E.W.j.- i [.u - 2 4 3 t }.p 3 3 3 3 3 < b K.E.N.p *._ K.E.E.E.E.E.E.E.",
"E.E.E.E.E.E.E.E.E.E.E.E.E.E.E.E.E.E.E.E.Y.l.V.M 5.J > O @ : > : ~.#.2 2 3 3 : n Y.E.W.V.p *.( U.E.E.E.E.E.E.E.",
"E.E.E.E.E.E.E.E.E.E.E.E.E.E.E.E.E.E.E.E.Z.t.k.`.;.> > z B.q.v O <.;.> , > : 6.Y.W.E.W.F.p @.8.R.E.E.E.E.E.E.E.",
"E.E.E.E.E.E.E.E.E.E.E.E.E.E.E.E.E.E.E.E.e.} ,.+Xe 2 8 x.E.Q.E.x.p.1.. n x y.T.W.E.E.E.V.p O.i.W.E.E.E.E.E.E.E.",
"E.E.E.E.E.E.E.E.E.E.E.E.E.E.E.E.E.E.E.F.[ P | m.y., f T.E.E.E.C.!.!.^ F.R.E.E.E.E.E.W.N.y / R.R.E.E.E.E.E.E.E.",
"E.E.E.E.E.E.E.E.E.E.E.E.E.E.E.E.E.E.E.A.U H N r.Y.6.l E.E.E.E.C.[ <.} 7.T.W.R.E.E.E.W.y.x K.E.E.E.E.E.E.E.E.E.",
"E.E.E.E.E.E.E.E.E.E.E.E.E.E.E.E.E.E.E.K.] H % F D.T.B.R.E.E.E.F.M r %.A y.E.E.E.E.E.W.F.K.W.E.E.E.E.E.E.E.E.E.",
"E.E.E.E.E.E.E.E.E.E.E.E.E.E.E.E.E.E.E.U./ Z d M V.Q.Q.E.E.E.E.E.7.w B D 9.Y.E.E.E.E.E.E.E.E.E.E.E.E.E.E.E.E.E.",
"E.E.E.E.E.E.T.E.E.E.E.E.E.E.E.E.E.E.E.H.! S $ c U.Q.E.E.E.E.E.E.F.W % G t.y.R.E.E.E.E.E.E.E.E.E.E.E.E.E.E.E.E.",
"E.E.E.E.E.E.E.E.E.E.E.E.E.E.E.E.E.E.Q.A.W N h c Y.E.E.E.E.E.E.E.E.C.z h ( ! B.E.E.E.E.E.E.E.E.E.E.E.E.E.E.E.E.",
"E.E.E.E.E.E.E.E.E.E.E.E.E.E.E.E.E.E.Q.b.X.A S ! Y.E.E.E.E.E.E.E.E.E.x.C D [ ' V.E.E.E.E.E.E.E.E.E.E.E.E.E.E.E.",
"E.E.E.E.E.E.E.E.E.E.E.E.E.E.E.E.E.E.Y.9.] [ [ ` P.E.E.E.E.E.E.E.E.E.E.w.] G S j.Q.T.E.T.E.E.E.E.E.E.E.E.E.E.E.",
"E.E.E.E.E.E.E.E.E.E.E.E.E.E.E.E.E.M.' M $ # M ` Y.E.E.E.E.E.E.E.E.E.E.L.` @ d ` Q.E.E.Q.E.E.E.E.E.E.E.E.E.E.E.",
"E.E.E.E.E.E.E.E.E.E.E.E.E.E.E.E.G.! e o o # h 9.E.E.E.E.E.E.E.E.T.Q.R.Q.l.h A ^ I.Q.Q.T.Q.T.Q.T.E.E.E.E.E.E.E.",
"E.E.E.E.E.E.E.E.E.E.E.E.E.E.E.E.D.v k k b j.C.H.E.E.E.E.E.E.E.E.Q.T.W.Q.c.M % F G.E.T.Q.T.Q.T.Q.E.E.E.E.E.E.E.",
"E.E.E.E.E.E.E.E.E.E.E.E.E.E.E.E.E.P.H.H.U.Q.E.Q.E.E.E.E.E.E.E.E.T.Q.Q.Q.G.9.j.c.Y.E.E.E.E.E.T.Q.E.E.E.E.E.E.E."
};
