/* XPM */
static char *enemy_14[] = {
/* columns rows colors chars-per-pixel */
"55 55 206 2 ",
"   c #2D0C0B",
".  c #330B07",
"X  c #350906",
"o  c #3C0C07",
"O  c #3D0E0A",
"+  c #36110D",
"@  c #3D110D",
"#  c #3A1614",
"$  c #371A1C",
"%  c #2A1F24",
"&  c #29292F",
"*  c #352525",
"=  c #3C272A",
"-  c #372D35",
";  c #373236",
":  c #3D323A",
">  c #3E393F",
",  c #430E0A",
"<  c #460E0A",
"1  c #45110D",
"2  c #4B110E",
"3  c #51130E",
"4  c #441512",
"5  c #4C1411",
"6  c #471B18",
"7  c #541816",
"8  c #45211D",
"9  c #64221F",
"0  c #482928",
"q  c #572B27",
"w  c #572C2A",
"e  c #44312E",
"r  c #50322F",
"t  c #492F30",
"y  c #443637",
"u  c #553A38",
"i  c #682826",
"p  c #762D2B",
"a  c #68302F",
"s  c #6A3734",
"d  c #7A3A3B",
"f  c #64423C",
"g  c #2F3E4F",
"h  c #3E3642",
"j  c #373B45",
"k  c #423640",
"l  c #433943",
"z  c #483C49",
"x  c #563D44",
"c  c #3F424C",
"v  c #2F4552",
"b  c #384656",
"n  c #354E62",
"m  c #3C5467",
"M  c #3B5B73",
"N  c #37617E",
"B  c #3C627C",
"V  c #494144",
"C  c #42424C",
"Z  c #4C414D",
"A  c #594746",
"S  c #5C4A45",
"D  c #464755",
"F  c #554655",
"G  c #534A53",
"H  c #544B59",
"J  c #5C4C5A",
"K  c #4F5159",
"L  c #654B49",
"P  c #634B4C",
"I  c #764947",
"U  c #64524D",
"Y  c #68534F",
"T  c #6E4E54",
"R  c #704C5A",
"E  c #695A57",
"W  c #64535D",
"Q  c #785753",
"!  c #7B5654",
"~  c #6F605F",
"^  c #73615D",
"/  c #7F645E",
"(  c #4B5262",
")  c #41566B",
"_  c #4A5B6B",
"`  c #505A67",
"'  c #5E5B69",
"]  c #465D71",
"[  c #585F72",
"{  c #665867",
"}  c #735B64",
"|  c #7C5C61",
" . c #6E5C70",
".. c #725F74",
"X. c #5F6068",
"o. c #586777",
"O. c #6D6163",
"+. c #6C656D",
"@. c #796863",
"#. c #7C6C6A",
"$. c #696675",
"%. c #7A6B76",
"&. c #797579",
"*. c #8A2724",
"=. c #9B2C29",
"-. c #93312E",
";. c #8A3536",
":. c #9F3735",
">. c #A6312F",
",. c #A5413F",
"<. c #B0403C",
"1. c #80474F",
"2. c #964745",
"3. c #944C4C",
"4. c #8E5355",
"5. c #A74D4C",
"6. c #B54C4A",
"7. c #B1504F",
"8. c #826667",
"9. c #846F69",
"0. c #89746E",
"q. c #907068",
"w. c #867570",
"e. c #8B7770",
"r. c #937A72",
"t. c #9D7D7B",
"y. c #96817A",
"u. c #9D847C",
"i. c #A0867F",
"p. c #3E7495",
"a. c #3D7CA2",
"s. c #446C88",
"d. c #44718D",
"f. c #567286",
"g. c #50728C",
"h. c #5B738C",
"j. c #477897",
"k. c #557897",
"l. c #5B7B9A",
"z. c #667B89",
"x. c #437FA3",
"c. c #856E87",
"v. c #887986",
"b. c #807D90",
"n. c #927B97",
"m. c #6F828D",
"M. c #6B8192",
"N. c #4782A6",
"B. c #4A82A6",
"V. c #5887AA",
"C. c #468CB6",
"Z. c #4C8DB4",
"A. c #558DB5",
"S. c #4C92BD",
"D. c #5994B7",
"F. c #5694BA",
"G. c #668CA5",
"H. c #6E93AD",
"J. c #7D9FB3",
"K. c #6FA0BC",
"L. c #4E99C5",
"P. c #5195C0",
"I. c #559BC7",
"U. c #549DCA",
"Y. c #58A1CC",
"T. c #52A4D4",
"R. c #58A5D2",
"E. c #52A7D9",
"W. c #55ABDD",
"Q. c #5AACDC",
"!. c #67A2C5",
"~. c #56AEE2",
"^. c #5AAFE0",
"/. c #57B1E6",
"(. c #58B1E5",
"). c #57B3E8",
"_. c #59B5EB",
"`. c #5AB8EF",
"'. c #5CBCF4",
"]. c #5DBFF8",
"[. c #898284",
"{. c #978988",
"}. c #8E8F93",
"|. c #9E9296",
" X c #AE8386",
".X c #A28B84",
"XX c #AB948C",
"oX c #A0869B",
"OX c #AC9C96",
"+X c #B09990",
"@X c #BAA299",
"#X c #9D86A0",
"$X c #A08BA0",
"%X c #A895A6",
"&X c #8DABBA",
"*X c #9EA1B0",
"=X c #ACA7AB",
"-X c #BBADB6",
";X c #BBB4B6",
":X c #C2A79D",
">X c #D1B5AB",
",X c #C9BCC3",
"<X c #BFC3C2",
"1X c #D1C9CB",
"2X c #ECD2C6",
"3X c #EFDDD0",
/* pixels */
"'.'.'.'.'.'.'.'.'.'.'.'.'.'.'.'.'.'.'.'.'.'.'.'.'.'.'.'.'.'.'.'.'.'.'.'.'.'.'.'.'.'.'.'.'.'.'.'.'.'.'.'.'.'.'.",
"'.'.'.'.'.'.'.'.'.'.'.'.'.'.'.'.'.'.'.'.'.'.'.'.'.'.'.'.'.'.'.'.'.'.'.'.'.'.'.'.'.'.'.'.'.'.'.'.'.'.'.'.'.'.'.",
"'.'.'.'.'.'.'.'.'.'.'.'.'.'.'.'.'.'.'.'.'.'.'.'.'.'.'.'.'.'.'.'.'.'.'.'.'.'.'.'.'.'.'.'.'.'.'.'.'.'.'.'.'.'.'.",
"'.'.'.'.'.'.'.'.'.'.'.'.'.'.'.'.'.'.'.'.'.'.'.'.'.'.'.'.'.'.'.'.'.'.'.'.'.'.'.'.'.'.'.'.'.'.'.'.'.'.'.'.'.'.'.",
"'.'.'.'.'.'.'.'.'.'.'.'.'.'.'.'.'.'.'.'.'.'.'.'.'.'.'.'.'.'.'.'.'.'.'.'.'.'.'.'.'.'.'.'.'.'.'.'.'.'.'.'.'.'.'.",
"'.'.'.'.'.'.'.'.'.'.'.'.'.'.'.'.'.'.'.'.'.'.'.'.'.'.'.'.'.'.'.'.'.'.'.'.'.'.'.'.'.'.'.'.'.'.'.'.'.'.'.'.'.'.'.",
"'.'.'.'.'.'.'.'.'.'.'.'.'.'.'.'.'.'.'.'.'.'.'.'.'.'.'.'.'.'.'.'.'.'.'.'.'.'.'.'.'.'.'.'.'.'.'.'.'.'.'.'.'.'.'.",
"'.'.'.'.'.'.'.'.'.'.'.'.'.'.'.'.'.'.'.'.'.'.`.'.'.'.'.'.'.'.'.'.'.'.'.'.'.'.'.'.'.'.'.'.'.'.'.'.'.'.'.'.'.'.'.",
"'.'.'.'.'.'.'.'.'.'.'.'.'.'.`.'.'.'.'.'.'.'.'.'.'.'.'.'.'.'.'.'.'.'.'.'.'.'.'.'.'.'.'.'.'.'.'.'.'.'.'.'.'.'.'.",
"'.'.'.'.'.'.'.'.'.'.'.'.'.'.'.'.'.'.'.'.'.'.'.'.'.'.'.'.'.'.'.'.'.'.'.'.'.'.'.'.'.'.'.'.'.'.'.'.'.'.'.'.'.'.'.",
"'.'.'.'.'.'.'.'.'.'.'.'.'.'.'.'.'.'.'.'.'.'.'.'.'.'.'.'.'.'.'.'.'.'.'.'.`.'.'.'.'.'.'.'.'.'.'.'.'.'.'.'.'.'.'.",
"'.'.'.'.'.'.'.'.'.'.'.'.'.'.'.'.'.'.'.'.'.'.'.'.'.'.'.'.'.'.'.'.'.'.'.'.'.'.'.'.'.'.'.'.'.'.'.'.'.'.'.'.'.'.'.",
"'.'.'.'.'.'.'.'.'.'.'.'.'.'.'.'.'.'.'.'.'.'.'.'.'.'.'.'.'.'.'.'.'.'.'.'.'.'.'.'.'.'.'.'.'.'.'.'.'.'.'.'.'.'.'.",
"'.'.'.'.'.'.'.'.'.'.'.'.'.'.'.'.'.'.'.'.'.'.'.'.'.'.'.'.'.'.'.'.'.'.'.'.'.'.'.'.'.'.'.'.'.'.'.'.'.'.'.'.'.'.'.",
"'.'.'.'.'.'.'.'.'.'.'.'.'.'.'.'.'.'.'.'.'.'.'.'.'.'.'.'.'.'.'.'.'.'.'.'.'.'.'.'.'.'.'.'.'.`.'.'.'.'.'.'.'.'.'.",
"'.'.'.'.'.'.'.'.'.'.'.'.'.'.'.'.'.'.'.'.'.'.'.'.'.'.'.'.'.'.'.'.'.'.'.'.'.'.'.'.'.'.'.'.'.'.'.'.'.'.'.'.'.'.'.",
"'.'.'.'.'.'.'.'.'.'.'.'.'.'.'.'.'.'.'.'.'._.^.^.^.'.'.'.'.'.'.'.'.'.'.'.'.'.'.'.'.'.'.'.'.'.'.'.'.'.'.'.'.'.'.",
"'.'.'.'.'.'.'.'.'.'.'.'.'.'.'.'.'.'.'.'.^.&X<X<X=XK._.'.'.'.'.'.'.'.'.'.'.'.'.'.'.'.'.'.'.'.'.'.'.'.'.'.'.'.'.",
"'.'.'.'.'.'.'.'.'.'.'.'.'.'.'.'.'.'.'._.&X3X3X2X2X>XH.`.'.'.'.'.'.'.'.'.'.'.'.'.'.'.'.'.'.'.'.'.'.'.'.'.'.'.'.",
"'.'.'.'.'.'.'.'.'.'.'.'.'.'.'.'.'.'.'.Q.;X2X2X:X>X>X}.~.'.'.'.'.'.'.'.'.'.'.'.'.'.'.'.'.'.'.'.'.'.'.'.'.'.'.'.",
"'.'.'.'.'.'.'.'.'.'.'.'.'.'.'.'.'.'.'.Y.OX>X{.e.9.r.&.~.'.'.'.'.`.'.'.'.'.'.'.'.'.'.'.'.'.'.'.'.'.'.'.'.'.'.'.",
"'.'.'.'.'.'.'.'.'.'.'.'.'.'.'.'.'.'.'.U.K XXS S .XU f.`.'.'.'.'.'.'.'.'.'.'.'.'.'.'.'.'.'.'.'.'.'.'.'.'.'.'.'.",
"'.'.'.'.'.'.'.'.'.'.'.'.'.'.'.'.'.'.]._.m.y.@XXX9._ E.`.].].'.'.'.'.'.'.'.'.'.'.'.'.'.'.'.'.'.'.'.'.'.'.'.'.'.",
"'.'.'.'.'.'.'.'.'.'.'.'.'.].'.~.(.E.T.'.!.OX@XY S o.j.M.!.W.'.'.'.'.'.'.'.'.'.'.'.'.'.'.'.'.'.'.'.'.'.'.'.'.'.",
"'.'.'.'.'.'.'.'.'.'.'.'.~.T.k.{ W g v ~.).z.E Y Y ~ |.{.-X*XU.'.].].'.'.'.'.'.'.'.'.'.'.'.'.'.'.'.'.'.'.'.'.'.",
"'.'.'.'.'.'.'.'.'.'.'.W.o.C 0 i a * & Z.S.$.i.! Y =X-X%Xv.#Xb.B.D.Z.'.'.'.'.'.'.'.'.'.'.'.'.'.'.'.'.'.'.'.'.'.",
"'.'.'.'.'.'.'.'.'.'.'.'.F.d.x a q * = | #.| I r y.1X1X%Xn.%.oX+.m.D.'.'.'.'.'.'.'.'.'.'.'.'.'.'.'.'.'.'.'.'.'.",
"'.'.'.'.'.'.'.'.'.'.'.'.'.'.h.2.d 0 ) H.v.t. X{.=X1X,X#Xn. .c.$.V.`.'.'.'.'.'.'.'.'.'.'.'.'.'.'.'.'.'.'.'.'.'.",
"'.'.'.'.'.'.`.'.'.'.'.'.'.'.I.I 2.t C.'.D.y.+.#.%X-X$Xc.c.{  .{ D.`.'.'.'.'.'.'.'.'.'.'.'.'.'.'.'.'.'.'.'.'.'.",
"'.'.'.'.'.'.'.'.'.'.'.'.'.'.).o.T #.H.J.}.o.V ~ n.c.c.....z W W +.N.`.'.'.'.'.'.'.'.'.'.'.'.'.'.'.'.'.'.'.'.'.",
"'.'.'.'.'.'.'.'.'.'.'.'.'.'.'./.E.z.OX[.F.a.y #.%... .{ J y F { m.j.(.'.'.'.'.'.'.'.'.'.'.'.'.'.'.'.'.'.'.'.'.",
"'.'.'.'.'.'.'.'.'.'.'.'.'.'.'.'.'.T.G.Y.].N = w.W F F z k z z 8.{.D.'.'.'.'.'.'.'.'.'.'.'.'.'.'.'.'.'.'.'.'.'.",
"'.'.'.'.'.'.'.'.'.'.'.'.'.'.'.'.'.'.'.].`.v + u y z > : ; y 0 3.v.Q.'.'.'.'.'.'.'.'.'.'.'.'.'.'.'.'.'.'.'.'.'.",
"'.'.'.'.'.'.'.'.'.'.'.'.'.'.'.'.'.'.'.'.T.% X . # = y : ; * @ *.d U.'.'.'.'.'.'.'.'.'.'.'.'.'.'.'.`.'.'.'.'.'.",
"'.'.'.'.'.'.'.'.'.'.'.'.'.'.'.'.'.'.'.].a.  + / {.^ O.t A S X 9 =.o.'.'.'.'.'.'.'.'.'.'.'.'.'.'.'.'.'.'.'.'.'.",
"'.'.'.'.'.'.'.'.'.'.'.'.'.'.'.'.'.'.'.'.n X 8 9.8.~ ~ 9.0.q X O *.;.P.'.'.'.'.'.'.'.'.'.'.'.'.'.'.'.'.'.'.'.'.",
"'.'.'.'.'.'.'.'.'.'.'.'.'.'.'.'.'.'.'.T.% o # Q U e e / e.r o . 7 =. .`.'.'.'.'.'.'.'.'.'.'.'.'.'.'.'.'.'.'.'.",
"'.'.'.'.'.'.'.'.'.'.'.'.'.'.'.'.'.'.].p.+ O @ S ^ ^ ^ y.@.e.4 o , *.-.A.'.'.'.'.'.'.'.'.'.'.'.'.'.'.'.'.'.'.'.",
"'.'.'.'.'.'.'.'.'.'.'.'.'.'.'.`.'.'./.j , o f +XL u U A y./ o O O 7 >.R /.'.'.'.'.'.'.'.'.'.'.'.'.'.'.'.'.'.'.",
"'.'.'.'.'.'.'.'.'.'.'.'.'.'.'.'.'.].C.# , w XXQ 1 @ O @ y./ o , , 1 -.:.k.].'.'.'.'.'.'.'.'.'.'.'.'.'.'.'.'.'.",
"'.'.'.'.'.'.'.'.'.'.'.'.'.'.'.'.].^.b , q u.Q < 2 1 2 4 {.! < 1 < < i <.1.R.].'.'.'.'.'.'.'.'.'.'.'.'.'.'.'.'.",
"'.'.'.'.'.'.'.'.'.'.'.'.'.'.'.'.`.G.P q .X~ $ 2 2 2 2 4 i.I < 2 O , 7 ,.,.l.'.'.'.'.'.'.'.'.'.'.'.'.'.'.'.'.'.",
"'.'.'.'.'.'.'.'.'.'.'.'.'.'.'.'.U.$.} .Xq.b - 2 5 5 3 7 XXI 2 2 # $ 2 ;.6.} ).].'.'.'.'.'.'.'.'.'.'.'.'.'.'.'.",
"'.'.'.'.'.'.'.'.'.'.'.'.'.'.'.`.h.Q O..Xq B y 3 4 5 3 w +Xs 3 3 $ j 2 p 6.3.I.].'.'.'.'.'.'.'.'.'.'.'.'.'.'.'.",
"'.'.'.'.'.'.'.'.'.'.'.'.'.'.'.(.' ! Z S 6 N.m 6 B : 5 #.{.f 5 3 6 M 4 9 7.5.V.].'.'.'.'.'.'.'.'.'.'.'.'.'.'.'.",
"'.'.'.'.'.'.'.'.'.'.'.'.'.'.'.'.g.! - Z c T.Z.= T.x.n $.v.8.A 6 h P.$ 6 2.d l.].'.'.'.'.'.'.'.'.'.'.'.'.'.'.'.",
"'.'.'.'.'.'.'.'.'.'.'.'.'.'.'.].s.L z j B '.Q.B E.].(._ y T @.= b /.s.s.3.( P.].'.'.'.`.'.'.'.'.'.'.'.'.'.'.'.",
"'.'.'.'.'.'.'.'.'.'.'.'.'.'.'.'.p.G D ; p.'.'.].'.'.].P.z y z { [ A.'.I.4.h.'.'.'.'.'.'.'.'.'.'.'.'.'.'.'.'.'.",
"'.'.'.'.'.'.'.'.'.'.'.'.'.'.'.].T.( Z h B '.'.'.'.'.'.'.S.) h l  ._ L.I.4.V.].'.'.'.'.'.'.'.'.'.'.'.'.'.'.'.'.",
"'.'.'.'.'.'.'.'.'.'.'.'.'.'.'.'.E.$.H H ) ).'.'.'.'.'.'.'.Q.d.C H { o.d.o._.'.'.'.'.'.'.'.'.'.'.'.'.'.'.'.'.'.",
"'.'.'.'.'.'.'.'.'.'.'.'.'.'.'.).B.X.+.+.` E.].'.'.'.'.'.'.'.'.N.' ' K B W.].'.'.'.'.'.'.'.'.'.'.'.'.'.'.'.'.'.",
"'.'.'.'.'.'.'.'.'.'.'.'.'.'.I.o.C y ; C K E.'.'.'.'.'.'.'.'.'.'.j.h y ] _.'.'.'.'.'.'.'.'.'.'.'.'.'.'.'.'.'.'.",
"'.'.'.'.'.'.'.'.'.'.'.'.].(.] k - & ; j n (.'.'.'.'.'.'.'.'.'.].U.C G ( ~.'.'.'.'.'.'.'.'.'.'.'.'.'.'.'.'.'.'.",
"'.'.'.'.'.'.'.'.'.'.'.'.]._.j.n v m j.S.T.'.'.'.'.'.'.'.'.'.'.].L.C j n T.'.'.'.'.'.'.'.'.'.'.'.'.'.'.'.'.'.`.",
"'.'.'.'.'.'.'.'.'.'.'.'.'.'.'.).^._.'.].'.'.'.'.'.'.'.'.'.'.'.'.(.S.C.U.`.'.'.'.'.'.'.'.'.'.'.'.'.'.'.'.'.'.'."
};
