/* XPM */
static char *enemy_12[] = {
/* columns rows colors chars-per-pixel */
"55 55 209 2 ",
"   c #2B2528",
".  c #382B2D",
"X  c #362E38",
"o  c #2C343E",
"O  c #383436",
"+  c #3D343C",
"@  c #541C1B",
"#  c #61201F",
"$  c #6C201F",
"%  c #77221E",
"&  c #452A2C",
"*  c #5A2729",
"=  c #532D32",
"-  c #5C2D31",
";  c #473337",
":  c #4E343A",
">  c #553636",
",  c #682322",
"<  c #67292C",
"1  c #7D2522",
"2  c #772C2B",
"3  c #7B302F",
"4  c #693938",
"5  c #743A3A",
"6  c #3C3442",
"7  c #373C49",
"8  c #413B44",
"9  c #483C47",
"0  c #4B3E4A",
"q  c #5A3F49",
"w  c #3D4855",
"e  c #3E546B",
"r  c #3B5B73",
"t  c #45424B",
"y  c #4B434C",
"u  c #56474C",
"i  c #5C514D",
"p  c #464754",
"a  c #514554",
"s  c #504850",
"d  c #5B4B5A",
"f  c #4D515A",
"g  c #58545B",
"h  c #664847",
"j  c #7A4347",
"k  c #7B444B",
"l  c #6B4D58",
"z  c #675857",
"x  c #645A56",
"c  c #64525E",
"v  c #6E5B5D",
"b  c #795859",
"n  c #74625D",
"m  c #415263",
"M  c #4A5767",
"N  c #585867",
"B  c #455D74",
"V  c #675766",
"C  c #725E71",
"Z  c #5E626A",
"A  c #4E6274",
"S  c #42627E",
"D  c #556376",
"F  c #686265",
"G  c #6B646C",
"H  c #756267",
"J  c #7D6B64",
"K  c #686674",
"L  c #776678",
"P  c #6F7275",
"I  c #7B7476",
"U  c #822623",
"Y  c #872927",
"T  c #902926",
"R  c #932C2A",
"E  c #9B2E2C",
"W  c #9F302D",
"Q  c #8A3737",
"!  c #9A3A38",
"~  c #A12F2C",
"^  c #A4312F",
"/  c #A53432",
"(  c #A93533",
")  c #A93936",
"_  c #AC3D3B",
"`  c #AA413F",
"'  c #824145",
"]  c #825B5B",
"[  c #A44241",
"{  c #AE4341",
"}  c #B14443",
"|  c #87736D",
" . c #846E73",
".. c #867978",
"X. c #8D827D",
"o. c #938179",
"O. c #3D7292",
"+. c #486A84",
"@. c #566D84",
"#. c #58768B",
"$. c #497798",
"%. c #457A9D",
"&. c #527C99",
"*. c #7E6A81",
"=. c #697382",
"-. c #797A84",
";. c #467EA3",
":. c #537FA1",
">. c #836D85",
",. c #8A768C",
"<. c #927C92",
"1. c #A87E82",
"2. c #5F8299",
"3. c #7F8487",
"4. c #768596",
"5. c #4983A9",
"6. c #5688A8",
"7. c #4A8EB7",
"8. c #4B91BB",
"9. c #5891B4",
"0. c #5393BC",
"q. c #678BA8",
"w. c #6A93AD",
"e. c #7494AA",
"r. c #6B99B7",
"t. c #769BB4",
"y. c #6DA1BE",
"u. c #7DA1BD",
"i. c #4C98C6",
"p. c #4F9DCA",
"a. c #539AC5",
"s. c #599AC2",
"d. c #519DCB",
"f. c #52A0CF",
"g. c #4FA0D0",
"h. c #52A3D3",
"j. c #59A9D7",
"k. c #54AADC",
"l. c #65A6CD",
"z. c #7CA6C3",
"x. c #78A8C6",
"c. c #75AACD",
"v. c #68ADD6",
"b. c #6EADD5",
"n. c #72ACD2",
"m. c #79AED1",
"M. c #6BB1DC",
"N. c #55AEE1",
"B. c #5AAFE1",
"V. c #56B1E5",
"C. c #58B1E5",
"Z. c #57B4EA",
"A. c #59B6EC",
"S. c #57B8EF",
"D. c #5DB8EE",
"F. c #5CBCF4",
"G. c #5DBFF8",
"H. c #65B4E4",
"J. c #68B3E1",
"K. c #62B7E9",
"L. c #60B8EC",
"P. c #74BBE6",
"I. c #878689",
"U. c #978987",
"Y. c #858895",
"T. c #988495",
"R. c #9E9194",
"E. c #9B949A",
"W. c #98989E",
"Q. c #A48F8F",
"!. c #A59087",
"~. c #A4908E",
"^. c #A49091",
"/. c #AA9595",
"(. c #AD9497",
"). c #A79D9A",
"_. c #AE9A99",
"`. c #B49C9A",
"'. c #B5A19E",
"]. c #BEA49A",
"[. c #BAA59E",
"{. c #8A99A8",
"}. c #8C9CAC",
"|. c #9598A3",
" X c #9399A5",
".X c #879EB3",
"XX c #899EB2",
"oX c #A088A5",
"OX c #A49CA2",
"+X c #86A0B6",
"@X c #83A2BB",
"#X c #ABA6A5",
"$X c #B6A1A0",
"%X c #BCA6A5",
"&X c #B7A6B2",
"*X c #B9ACB4",
"=X c #B8B4B1",
"-X c #C2A59F",
";X c #C2ACAB",
":X c #C7B0AF",
">X c #C7B5B5",
",X c #D4BAB5",
"<X c #D3BCBA",
"1X c #E1C4B8",
"2X c #C9B9C4",
"3X c #D7CBC6",
"4X c #D1CBCB",
"5X c #E7CEC3",
"6X c #EAD8CD",
/* pixels */
"F.F.F.F.F.F.F.F.F.F.F.F.F.F.F.F.F.F.F.F.F.F.F.F.F.F.F.F.F.F.F.F.F.F.F.F.F.F.F.F.F.F.F.F.F.F.F.F.F.F.F.F.F.F.F.",
"F.F.F.F.F.F.F.F.F.F.F.F.F.F.F.F.F.F.F.F.F.F.F.F.F.F.F.F.F.F.F.D.D.F.F.F.F.F.F.F.F.F.F.F.F.F.F.F.F.F.F.F.F.F.F.",
"F.F.F.F.F.F.F.F.F.F.F.F.F.F.F.F.F.F.F.F.F.F.F.F.F.F.F.F.F.F.F.F.F.F.F.F.F.F.F.F.F.F.F.F.F.F.F.F.F.F.F.F.F.F.F.",
"F.F.F.F.F.F.F.F.F.F.F.F.F.F.F.F.F.F.F.F.F.F.F.F.F.F.F.F.F.F.F.F.F.F.F.F.F.F.F.F.F.F.F.F.F.F.F.F.F.F.F.F.F.F.F.",
"F.F.F.F.F.F.F.F.F.F.F.F.F.F.F.F.F.F.F.F.F.F.F.F.F.F.F.F.F.F.F.F.F.F.F.F.F.F.F.F.F.F.F.F.F.F.F.F.F.F.F.F.F.F.F.",
"F.F.F.F.F.F.F.F.F.F.F.F.F.F.F.F.F.F.F.F.F.F.F.F.F.F.F.F.F.F.F.F.F.F.F.F.F.F.F.F.F.F.F.F.F.F.F.D.F.D.F.F.F.F.F.",
"F.F.F.F.F.F.F.F.F.F.F.F.F.F.F.F.F.F.F.F.F.F.F.F.F.F.F.F.F.F.F.F.F.F.F.F.F.F.F.F.F.F.F.F.F.F.F.F.F.F.F.F.F.F.F.",
"F.F.F.F.F.F.F.F.F.F.F.F.F.F.F.F.F.F.F.F.F.F.F.F.F.F.F.F.F.F.F.F.F.F.F.F.F.F.F.F.F.F.F.F.F.F.F.F.F.F.F.F.F.F.F.",
"F.F.F.F.F.F.F.F.F.F.F.F.F.F.F.F.F.F.F.F.F.F.F.F.F.F.F.F.F.F.F.F.F.F.F.F.F.F.F.F.F.F.F.F.F.F.F.F.F.F.F.F.F.F.F.",
"F.F.F.F.F.F.F.F.F.F.F.F.F.F.F.F.F.F.F.F.F.F.F.F.F.F.F.F.F.F.F.F.F.F.F.F.F.F.F.F.F.F.F.F.F.F.F.F.F.F.F.F.F.F.F.",
"F.F.F.F.F.F.F.F.F.F.F.F.F.F.F.F.F.F.F.F.F.F.F.F.F.F.F.F.F.F.F.L.F.F.F.F.F.F.F.F.F.F.D.F.F.F.F.F.F.F.F.F.F.F.F.",
"F.F.F.F.F.F.F.F.F.F.F.F.F.F.F.F.F.K.M.M.L.F.F.F.F.F.F.F.F.F.F.F.D.F.F.F.F.F.F.F.F.F.F.F.F.F.F.F.F.F.F.F.F.F.F.",
"F.F.F.F.F.D.F.F.F.F.F.F.F.H.c.+X{.}.@Xn.L.F.F.F.F.F.F.F.F.F.F.F.F.F.F.F.F.F.F.F.F.F.F.F.F.F.F.F.F.F.F.F.F.F.F.",
"F.F.F.F.F.F.F.F.F.F.K.n.}.E.|..Xn.K.F.F.F.F.F.F.F.F.F.F.F.F.F.F.F.F.F.F.F.F.F.F.F.F.F.F.F.F.F.F.F.F.F.F.F.F.F.",
"F.F.F.F.F.F.F.F.K.x.|.^. Xc.K.F.F.F.F.F.F.F.F.F.F.F.F.F.F.F.F.F.F.F.F.F.F.F.F.F.F.F.F.F.F.F.F.F.F.F.F.F.F.F.F.",
"F.F.F.F.F.F.D.c.|.Q.E.x.D.F.F.F.F.F.F.F.F.F.F.F.F.F.F.F.F.F.F.F.F.F.F.F.F.F.F.F.F.F.F.F.F.F.F.F.F.F.F.F.F.F.F.",
"F.F.F.F.G.H.+X^.~.XXM.F.F.F.F.F.F.F.F.F.F.F.F.F.F.F.F.F.F.F.F.F.F.F.F.F.F.F.F.F.F.F.F.F.F.F.F.F.F.F.F.F.F.F.F.",
"F.F.F.F.b.W.~.^.u.S.G.F.F.F.F.F.F.F.F.F.F.F.F.F.F.F.F.F.F.F.F.F.F.F.F.F.F.F.F.F.F.F.F.F.F.F.F.F.F.F.F.F.F.F.F.",
"F.F.G.c.E.!.E.c.G.G.F.F.F.F.F.F.F.F.F.F.F.F.F.F.F.F.F.F.F.F.F.F.F.F.F.F.F.F.F.F.F.F.F.F.F.F.F.F.F.F.F.F.F.F.F.",
"F.F.x.^.^.^.c.F.F.F.G.F.F.F.F.F.F.F.F.F.F.F.F.F.F.F.F.F.F.F.F.F.F.F.F.F.F.F.F.F.F.F.F.F.F.F.F.F.F.F.F.F.F.F.F.",
"F.x.^.^.~.u.G.F.F.F.M.D.F.F.F.F.F.G.G.F.F.F.F.F.F.F.F.F.F.D.F.F.F.F.F.F.F.F.F.F.F.F.D.F.F.F.F.F.F.F.F.F.F.F.F.",
"m.^.^.~.{.F.F.F.M.+Xu.D.F.F.F.S.j.l.l.j.F.F.F.F.F.F.F.F.F.F.F.F.F.F.F.F.F.F.F.F.F.F.F.F.F.F.F.F.F.F.F.F.F.F.F.",
"OX~.~.E.M.G.M.+XW.u.D.G.F.F.S.x.4X6X3X=Xr.D.D.F.F.F.F.F.F.F.F.F.F.F.F.F.F.F.F.F.F.F.F.F.F.F.F.F.F.F.F.F.F.F.F.",
"^.^.~.z.F.x.E.~.u.F.F.F.F.G.l.3X6X5X1X1X[.f.F.F.F.F.F.F.F.F.F.F.F.F.F.F.F.F.F.F.F.F.F.F.F.F.F.F.F.F.F.F.F.F.F.",
"~.^.E.M.@X^.^.@XF.F.F.F.F.F.x.1X1X1Xo.-X`.q.F.F.G.F.F.G.G.G.F.F.F.F.F.F.F.F.F.F.F.F.F.F.F.F.F.F.F.F.F.F.F.F.F.",
"^.~.XXz.^.^. XL.F.F.F.F.F.F.w.[.;Xx | | n 6.F.k.s.f.h.g.g.f.h.k.V.A.F.F.G.G.F.F.F.F.F.F.F.F.F.F.F.D.F.F.F.F.F.",
"~.^. XR.~.R.b.G.F.F.F.F.F.F.5.i !.i o.| > f 2.=.P -.k ' ' ' k k l V D @.:.0.h.A.G.G.F.F.F.F.F.F.F.F.F.F.F.F.F.",
"^.~.^.^.~.XXF.F.F.F.F.F.F.F.j.I.!.-Xo.i 5 5 G t 6 v [ } _ _ ) ) ( ( ( ( ! Q k V &.g.D.F.F.F.F.F.F.F.F.F.F.F.F.",
"^.^.Q.Q.R.b.F.D.F.F.F.F.F.F.S.y.]...> : b j x 6 6 c ! _ { { } { _ ! T R ^ ( ( ( ! j D h.F.F.F.F.F.F.F.F.F.F.F.",
"Q.Q.^.^.}.F.n.b.F.F.F.F.F.F.F.a.v ; & x h 4 F + 6 c Y E ^ ( / ) _ ` ! Q 2 1 Y E ^ ( / N Z.F.F.F.F.F.F.F.F.F.F.",
"^.Q.^.^.c.n.XXL.F.F.F.F.F.F.S.5.i 4 o.| i g ..f 0 M p - 1 T E ^ W / / _ _ ! 2 , 1 T ~ 2 f.F.F.F.F.F.F.F.F.F.F.",
"^.^.^.E.b.|.n.F.F.F.F.F.F.Z.5.I.F 5 x n ~.....C L ;.S.p.$.0 $ Y E E / ^ / ) { [ 3 , , * p.F.F.F.F.F.F.F.F.F.F.",
"Q.^.Q.}..X|.K.F.F.F.F.F.F.A.a.9.6.#.z F !.Q.I x I D Z.G.G.V.5.9 , U R ^ ^ ^ ^ ) } [ 3 @ O.F.F.F.F.F.F.F.F.F.F.",
"^.^.^.{.R.+XJ.D.F.F.F.F.F.F.F.F.A.{.Z x J ~...o.x p k.G.F.F.F.V.%.9 $ U R E ^ ^ / _ } ! u d.F.F.F.F.F.F.D.F.F.",
"^.Q.R. X^.z.t.F.F.F.F.F.F.F.F.F.v.Y.+.f F ..v U.I f 0.G.F.F.F.F.G.k.S * 1 Y E ^ ^ ^ / } [ a N.F.F.F.F.F.F.F.F.",
"^.Q.R.R.^.}.z.F.F.F.F.F.F.F.F.A.@.d 0 c G >. .H x #.h.Z.F.F.F.F.F.F.F.5.= 1 1 Y ^ ^ ^ R 2 = i.G.F.F.F.F.F.F.F.",
"^.^.^.^.^.R.c.F.F.F.F.F.F.F.F.+.8 0 0 q c C T.oXI 8.e.w.D.F.F.F.F.F.F.G.7.= 1 1 U E ^ E & 7 k.F.F.F.F.F.F.F.F.",
"^.^.^.^.^.^.M.F.F.F.F.F.F.k.r + 8 X 0 V *.,.L <.=X#.X.6.F.F.F.F.F.F.F.F.F.;.* 1 1 1 R E 2 e S.F.F.F.F.F.F.F.F.",
"Q.^.^./.^.E.J.F.F.F.F.F.G.0.. ; 6 0 c *.,.<.oXT.E.U...7.F.F.F.F.F.F.F.F.F.F.S $ 1 1 # < Y B F.F.F.F.F.F.F.F.F.",
"Q.Q._.(.Q.E.H.F.F.F.F.F.F.$.= + 6 0 V *.<.&X2X&X^.| | 2.F.F.F.F.F.F.F.F.F.F.V.p 1 U , B +.i.F.F.F.F.F.F.F.F.F.",
"^.^.%X/.Q.oXK.F.F.F.F.A.O.o 5 0 8 a C >.&X4X4X*XR.o.J 3.C.F.F.F.F.F.F.F.F.F.F.i.= 1 % q N.F.F.F.F.F.F.F.F.F.F.",
"Q.^.;X(./.E.H.F.F.F.F.F.O.  4 = u d C ,.&X2XOX4.A e P [.y.F.F.F.F.F.F.F.F.F.F.F.+., U 9 k.F.F.F.F.F.F.F.F.F.F.",
"^./.;X_._.~.M.F.F.F.A.l.@.. * 2 l @.I U.4.e.l.V.V.Z.k.I.#Xj.F.F.F.F.F.F.F.F.F.F.N.0 @ ;.F.F.F.F.F.D.F.F.F.F.F.",
"^._.>X$X%X^.z.F.B.r.Y.1.J o O c #.4.).y.B.F.F.F.F.F.F.0.!.{.Z.F.F.F.F.F.F.F.F.F.F.%.r S.F.F.F.F.F.F.F.F.F.F.F.",
"/.'.<X%X;XQ.|..XR.1.,.q.j.5.V V U.#Xv.S.F.F.F.F.F.F.F.S.2.'.y.F.G.F.F.F.F.F.F.F.F.Z.V.F.F.F.F.F.F.F.F.F.F.F.F.",
"_.$X<X>X:XQ.(.`.Y.9.k.F.G.6.b x I r.G.F.F.F.F.F.F.F.F.G.f.I.W.6.p.N.F.F.F.F.F.F.F.F.F.F.F.F.F.F.F.F.F.F.F.F.F.",
"$X$X<X<X,X;X$Xw.V.F.F.F.F.&.b : 8 B k.F.F.F.F.F.F.F.F.F.F.2.E...V M ;.F.F.F.F.F.F.F.F.F.F.F.F.F.F.F.F.F.F.F.F.",
";X`.<X,X;XOXw.Z.F.F.F.F.F.h.K h O w O.G.F.F.F.F.F.F.F.F.G.s.G v ] v 9 0.p.F.F.F.F.F.F.F.F.F.F.F.F.F.F.F.F.F.F.",
">X XXXt.0.k.F.F.F.F.F.F.F.F.j.D a + o 5.F.F.F.F.F.F.F.F.F.Z.+.; ; 0 d L M 7.B.F.F.F.F.F.F.F.F.F.F.F.F.F.F.F.F.",
"P.D.S.S.F.F.F.F.F.F.F.F.F.F.G.h.B y a p 8.F.F.F.F.F.F.F.F.F.C.5.m 9 6 0 g N A h.F.F.F.F.F.F.F.F.F.F.F.F.D.F.F.",
"F.F.F.F.F.F.F.F.F.F.F.F.F.F.F.G.a.N N F A V.F.F.F.F.F.F.F.F.F.F.Z.p.$.m N F s %.G.F.F.F.F.F.F.F.F.F.F.F.F.F.F.",
"F.F.F.F.F.F.F.F.F.F.F.F.F.F.F.9.M 0 8 y p g.G.F.F.F.F.F.F.F.F.F.G.G.F.N.#.+ 8 B A.F.F.F.F.F.F.F.F.F.F.F.F.F.F.",
"F.F.F.F.F.F.F.F.F.F.F.F.F.F.f.M O   X + e 0.G.F.F.F.F.F.F.F.F.F.F.F.F.G.h.w y f f.G.F.F.F.F.F.F.F.F.F.F.F.F.F.",
"F.F.F.F.F.F.F.F.F.F.F.F.F.F.a.w 7 w r 8.N.D.F.F.F.F.F.F.F.F.F.F.F.F.F.F.N.e w m p.F.F.F.F.F.F.F.F.F.F.F.F.F.F.",
"F.F.F.F.F.F.F.F.F.F.F.F.F.F.D.k.g.k.S.G.F.F.F.F.F.F.F.F.F.F.S.F.F.F.F.F.D.p.0.C.F.F.F.F.F.F.F.F.F.F.F.F.F.F.F."
};
