/* XPM */
static char * enemy36_xpm[] = {
"64 64 22 1",
" 	c #F8C984",
".	c #F8CD8F",
"+	c #F1B183",
"@	c #F8D4A0",
"#	c #F4BB83",
"$	c #F8CB8A",
"%	c #F8CF93",
"&	c #2F2F2E",
"*	c #983636",
"=	c #7E3030",
"-	c #FFFFFF",
";	c #B0B0B0",
">	c #F2B683",
",	c #F6C384",
"'	c #A06040",
")	c #804020",
"!	c #9299A4",
"~	c #285DAA",
"{	c #2F5489",
"]	c #F8D197",
"^	c #255190",
"/	c #F8D39E",
"                                                                ",
"                                                                ",
"                       ..                                       ",
"                                                                ",
"                                                                ",
"         +++                           @@@@                     ",
"        +++++                          @@@@                     ",
"       +++++++                         @@@@                     ",
"       +++++++#                        @@@@                     ",
"       +++++++#                                                 ",
"       +++++++                                                  ",
"        #++++                                                   ",
"         +++                                                    ",
"                                                                ",
"                                                  $             ",
"                                                  %             ",
"                                                                ",
"                                                                ",
"                                                                ",
"                                                                ",
"                           &&&&     &                           ",
"                         &&***=&&& &-&                   @@@    ",
"                       &&********=&;-&                  @@@@@   ",
"      $              &&=**********=&-&                 @@@@@@@  ",
"      $             &=************==&&                 @@@@@@@  ",
"                   &=*************===&                  @@@@@   ",
"                  &=**************====&                  @@@    ",
"                  &**************======&                        ",
"                  &************========&                        ",
"                 &=************========&                        ",
"                 &*************========&                        ",
"                 &************=========&                        ",
"                 &***********=========&                         ",
"                 &**********==========&                         ",
"                 &*********==========&                          ",
"    >+,          &*******============&&                         ",
"   >+++          &**=****===========&''&                        ",
"   ++++          &===***============&'')&                       ",
"   ,+++          &====**============&'))&                       ",
"                  &===*=============&)))&                       ",
"                  &================&))))&                       ",
"                  &===============&))))&        +++++#          ",
"                   &=============&)))&&        +++++++#         ",
"                   &============&'')))&       +++++++++         ",
"                     &=========&''')))&       +++++++++         ",
"                   ---&=====&&&'''))))&       +++++++++         ",
"                 ------&&=&&)''''))))&-------- +++++++          ",
"                -------&'&'')''))))))&-------------++           ",
"                -------&)'')''')))))&----------------           ",
"                --------&'')''))))))&---        ---------       ",
"                  ------&'')'')&&&&&                  ------    ",
"                        &)')'&&!!!!!&                     ----- ",
"                         &&&&!!&&&&&&&                      ----",
"                        &!!!!&&~~~~&)'&                    -----",
"                        &&&&&{{~~~~&)''&                ------- ",
"     @@@@            --&'&~~----~~~&))''&          ---------    ",
"    ]@@@@@             &'&~~{~~~~~&^&---------------            ",
"   /@@@@@@@           &'&~~{{~~~~~&^&&&&&                       ",
"    @@@@@@]           &)&~~{~~~~~&&& ++++                       ",
"     @@@@             &&&~~~~&&&&&   ++++                       ",
"      @@]             &&&&&&&         ++>                       ",
"                                                                ",
"                                                                ",
"                                                                "};
