/* XPM */
static char *enemy_3[] = {
/* columns rows colors chars-per-pixel */
"55 55 215 2 ",
"   c #2D0E0E",
".  c #350A07",
"X  c #390C07",
"o  c #360D0A",
"O  c #3B0D09",
"+  c #3B100C",
"@  c #2C1F1F",
"#  c #3B1513",
"$  c #381A17",
"%  c #372627",
"&  c #3D2A2C",
"*  c #2E2D30",
"=  c #322C32",
"-  c #3A2E34",
";  c #372D39",
":  c #333038",
">  c #3C333B",
",  c #420F0A",
"<  c #4C0E0A",
"1  c #45100C",
"2  c #4B120E",
"3  c #50150E",
"4  c #4E1410",
"5  c #461814",
"6  c #511410",
"7  c #581713",
"8  c #531A13",
"9  c #6A1D1A",
"0  c #44211B",
"q  c #6A201D",
"w  c #442928",
"e  c #572A29",
"r  c #4B3233",
"t  c #4B3A3B",
"y  c #573737",
"u  c #6F2D2B",
"i  c #6A3534",
"p  c #753837",
"a  c #58423E",
"s  c #363944",
"d  c #3D3A43",
"f  c #423641",
"g  c #483B46",
"h  c #4C3E50",
"j  c #34414F",
"k  c #3D424E",
"l  c #384354",
"z  c #3E505D",
"x  c #364E61",
"c  c #375B72",
"v  c #3E637C",
"b  c #45444A",
"n  c #45424C",
"m  c #4B424B",
"M  c #5A4745",
"N  c #5B4C4B",
"B  c #4A4855",
"V  c #544654",
"C  c #524955",
"Z  c #584C5B",
"A  c #4E565C",
"S  c #5C535C",
"D  c #664947",
"F  c #764444",
"G  c #714A48",
"H  c #6B4B50",
"J  c #6B5552",
"K  c #675857",
"L  c #6D5E5B",
"P  c #785858",
"I  c #6E615D",
"U  c #75635D",
"Y  c #435568",
"T  c #42596C",
"R  c #565765",
"E  c #5C5B66",
"W  c #635263",
"Q  c #615B64",
"!  c #6C5B68",
"~  c #745461",
"^  c #6A5D72",
"/  c #586167",
"(  c #476477",
")  c #44637C",
"_  c #536173",
"`  c #546779",
"'  c #69636A",
"]  c #7C6363",
"[  c #746A67",
"{  c #7B6B65",
"}  c #7E716D",
"|  c #636677",
" . c #786679",
".. c #69747E",
"X. c #7A7375",
"o. c #912E2C",
"O. c #9C2C29",
"+. c #833635",
"@. c #923837",
"#. c #AD3B38",
"$. c #8D413F",
"%. c #A5403D",
"&. c #844646",
"*. c #954645",
"=. c #8C5856",
"-. c #A64947",
";. c #B54B49",
":. c #AC5352",
">. c #96615C",
",. c #836E68",
"<. c #85746D",
"1. c #89766E",
"2. c #817674",
"3. c #8B7874",
"4. c #8D7B74",
"5. c #967B78",
"6. c #96837B",
"7. c #3E6986",
"8. c #466983",
"9. c #4B6B82",
"0. c #446E8B",
"q. c #5D6882",
"w. c #48728E",
"e. c #59728C",
"r. c #477999",
"t. c #587894",
"y. c #66768E",
"u. c #627888",
"i. c #787C87",
"p. c #467EA2",
"a. c #537FA0",
"s. c #8E7586",
"d. c #8B778C",
"f. c #957E99",
"g. c #A37E83",
"h. c #58839C",
"j. c #71818B",
"k. c #638398",
"l. c #758595",
"z. c #4885AA",
"x. c #4985AB",
"c. c #5382A3",
"v. c #5888A8",
"b. c #4C8DB6",
"n. c #4A8FB9",
"m. c #538DB3",
"M. c #528FB8",
"N. c #4D93BD",
"B. c #5792B6",
"V. c #5395BC",
"C. c #6890AD",
"Z. c #6B94B2",
"A. c #639BBE",
"S. c #7599B1",
"D. c #78A1B9",
"F. c #4C95C1",
"G. c #4F99C5",
"H. c #4E9CCB",
"J. c #579AC4",
"K. c #539DCA",
"L. c #629EC3",
"P. c #52A0CE",
"I. c #58A2CE",
"U. c #53A3D3",
"Y. c #5BA5D0",
"T. c #5EA9D5",
"R. c #52A7D8",
"E. c #55AADD",
"W. c #5BACDC",
"Q. c #66A3C7",
"!. c #78A7C3",
"~. c #61ABD8",
"^. c #56AEE2",
"/. c #5AAFE1",
"(. c #56B1E6",
"). c #59B1E5",
"_. c #57B3E9",
"`. c #59B5EB",
"'. c #59B8EF",
"]. c #5CBCF4",
"[. c #5DBFF8",
"{. c #5DC0F9",
"}. c #858588",
"|. c #958787",
" X c #9E918D",
".X c #878C95",
"XX c #9A8798",
"oX c #85929D",
"OX c #9B9496",
"+X c #A9958D",
"@X c #AB9992",
"#X c #B79C97",
"$X c #AFA09B",
"%X c #B7A39C",
"&X c #8996A8",
"*X c #949AA6",
"=X c #A699A1",
"-X c #90A0AB",
";X c #88A7B7",
":X c #95A8B5",
">X c #A7A3A4",
",X c #B3A1A8",
"<X c #B8A6B4",
"1X c #B7BEBF",
"2X c #C4A89E",
"3X c #C9ABA6",
"4X c #D3ACAA",
"5X c #CAB5AC",
"6X c #D6B7AD",
"7X c #C5B6BE",
"8X c #D9B8B2",
"9X c #E1C9BE",
"0X c #D4C8CC",
"qX c #EBD1C5",
"wX c #F0DACD",
/* pixels */
"].].].].].].].].].].].].].].].].].].].].].].].].'.].].].].].].].].].].].].].].].].].].].].].].].].].].].].].].",
"].].].].].].].].].].].].].].].].].].].].].].].].].].].].].].].].].].].].].].].].].].].].].].].].].].].].].].].",
"].].].].].].].].].].].].].].].].].].].].].].].].].].].].].].].].].].].].].].].].].].].].].].].].`.].].].].].].",
"].].].].].].].].].].].].].].].].].].].].].].].].].].].].].].].].].].].].].].].].].].].].].].].].].].].].].].].",
"].].].].].].].].].].].].].].].].].].].].].].].].].].].].].].].].].].].].].].].].].].].].].].].].].].].].].].].",
"].].].].].].].].].].].].].].].].].].].].].].].].].].].].].].].].].].].].].].].].].].].].].].].].].].].].].].].",
"].].].].].].].].].].].].].].].].].].].].].].].].].].].].].].].].].].].].].].].].].].].].].].].].].].].].].].].",
"].].].].].].].].].].].].].].].].].].].].].].].].].].].].].].].].].].].].].].].].].].].].].].].].].].].].].].].",
"].].].].].].].].].].].].].].].].].].].].].].].].].].].].].].].].].].].].].].].].].].].].].`.].].].].].].].].].",
"].].].].].].].].].].].].].].].].].].].].].].].].].].].].].].].].].].].].].].].].].].].].].].].].].].].].].].].",
"].].].].].].].].].].].].].].].].].].].].].].].].].].].].].].].].].].].].].].].].].].].].].].].].].].].].].`.].",
"].].].].].].].].].].].].].].'.].].].].].].].].].].].].].].].].].].].].].].].].].].].].].].].].].].].].].].].].",
"].].].].].].].].].].].].].].].].].].].].].].].].].].].].].].].].].].].].].].].].].].].].].].].].].].].].].].].",
"].].].].'.].].].].].].].].].].].].].].].].].].`.].].].].].].].].].].].].].].].].].].].].].].].].].].].].].].].",
"].].].].z.H.].].].].].].].].].].].].].].].].].].].].].].].].].].].].].].].].].].].].].].].].].].].].].].].].].",
"].].].)._ G.].].].].].].].].].].].].].].].].].].].].].].].].].].].].].].].].].].].].].].].].].].].].].].].].].",
"].].[.Q.s.L.].].].].].].].].].].].].].].].].].].].].].].{.].].].].].].].].].].].].].].].].].].].].].].].].].].",
"].].].L.2XZ.].].].].].].].].].].].].].].].].].].].].].`.).).`.].].].].].].].].].].].].].].].].].].].].].].].].",
"].].[.L.4XoX'.].].].].].].].].].].].].].].].].].].T.C.y.i.| ` c.^.].].].].].].].].].].].].].].].].].].].].].].",
"].].[.L.4XXX/.].].].].].].].'.{.].].].].].].].'.A.*X,XXXi.W g f 8._.].].].].].].].].].].].].].].].].].].].].].",
"].].].J.3X#X~.].].].].].{.'.{.'.].]._.'.{.].].Q.XX0X0XXX .W h w f p.].].].].].].].].].].].].].].].].].].].].].",
"].].[.Y.%X4X!.].].].].].'.{.'.{.~.;X:X;XQ._./.*X7X0X7Xf. .W h ; d 0.].].].].].].].[.[.[.[.[.].].].].].].].].].",
"].].].^.&X8X-X'.].].].].{.'.{.T.1XwXwXqX5XS.I.*X<X<Xf.f. .W f ; f p.[.].].].].[.(.K.a.t.a./.[.].].].].].].].].",
"].].].].Y.@X=XW.].].].].'.{._.;XwXqX8X6X6X@Xh.OXXXf.f.s.^ h f h s R.].].].].U.t.~ *.-.*.g 9.J.).].'.].].].].].",
"].].].].].Z.@XL.{.'.{.'.{.'.`.:X9X9X%X4.5.4.v.:X,Xi.^ W V V Z g p.[.[._.M.^ F -.;.;.:.-.=.:.=.| T.].].].].].].",
"].].].].].K.g.S.{.'.'.{.'.{.'.l.%X6.w 1.,.N B R f.XXf.s.! Z B 3.;Xv.q.H o.#.#.#.-.@.+.p ! q.y.e.z.].].].].].].",
"].].].].[.).d.oX'.{.{.'.{.].].h.K +X<.+XL f u U ! h V h R / l.5.>.o.O.O.o.u 9 7 4 2 < # n.].[.].'.].].].].].].",
"].].].].].[.y.g.W.{.'.{.'.].].W..X+X2XJ U L +.P S = s h [ ] &.u q 9 7 < , , , , # w f d F.[.].].].].].].].].].",
"].].].].].[.C.s.Q.{.'.{.{.{.{.{.A.+X1.N J J F G X.Z S S $ O , O . X O O , 1 1   ; x F._.].].].].].].].].].].].",
"].].].[.].'.b.D c c z.N.U.`.{.{.).j.6.U e N L L L X.' # . . . X O O O , 1 1 2 < 2 1 w x K.].].].].].].].].].].",
"].].[.'.[.7.s @ % @ t t ) W.A.S.D.}.6.G i K @X} [ { U w . . . X . O O , 1 2 < 6 6 6 5 - m.].].].].].].].].].].",
"].].'.[.[.p.s w i p *.$.G 6. X6.j.C.B.B.) [ @X%X} L P g o . o X . O , , 1 2 6 6 6 6 - p.].].].].].].].].].].].",
"].].].].].].G.F e u F &.~ m.B.J._.].].{.E./ 6.2X6. X[ a o . X X + , , 1 1 2 4 6 2 2 0 x.{.].].].].].].].].].].",
"].].].].].].'.e.i h M.M.N.].[.[.].].].].].r.{ U M <.2.a $ . o X X + , 1 2 4 6 5 s ) z.'.].].].].].].].].].].].",
"].].].].].].]._.c Y '.].[.].].].].].].].].T...N @ w N w X + X O + , 1 2 2 2 2 8 % N.{.].].].].].].].].].].].].",
"].].].].].].].[.a._ /.].].].].].].].].].].[.U.c.T % U $ D D X + , , 1 2 4 2 3 1 k _.].].].].].].].].].].].].].",
"].].].].].].].].`.K.'.].].].].].].].].].].].W.oXOX[ } N 1.y X + , 1 2 2 4 3 > w.G.].].].].].].].].].].].].].].",
"].].].].].].].].[.].].].].].].].].].].].].].V.,.U J a 6.6.0 X , 1 1 1 1 2 3 & r.U.].].].].].].].].].].].].].].",
"].].].].].].].'.].].].].].].].].].].].].].{.H.Q J A k I ,.a X + 1 1 o : > w & = p.].].].].].].].].].].].].].].",
"].].].].].].].].].].].].].].].].].].].].].].V.} U } 6.<.{ <.$ X 1 2 3 & 7.G.R.E.].].].].].].].].].].].].].].].",
"].].].].].].].].].].].].].].].].].^.^.]._.v. X>Xu.( ) T u.%Xw.= + 3 3 3 5 d U.].].].].].].].].].].].].].].].].",
"].].].].].].].].].].].].].].].].W.k.K.Y.l.@X;XT.'.'.].].B.@XD.H.j + 3 8 8 0 N.{.].].].].].].].].].].].].].].].",
"].].].].].].].].].].].].].].].E.u.X.t. X>XQ.'.].{.].].{.E.}.-X`._.v $ 8 $ > U.{.].].].].].].].].].].].].].].].",
"].].].].].].].].].].].].].].].a.P ! @X:XW.].].].].].].].].k.$XQ.{.{.x.s $ x R.{.].].].].].].].].].].].].].].].",
"].].].].].].].].].].].].].].^.| G S i.W.{.'.].].].].].].].B.#XD.].[.[.E.7.% z ).].].].].].].].].].'.].].].].].",
"].].].].].].].].].].].].].].`._ P > A G.].{.'.].].].].].].V.|.j.z.G._.[.].P.z.R.].].].].].].].].].].].].].].].",
"].].].].].].].].].].].].].].].m.K f g 0.{.'.].].].].].].].J..X|.] S v E.].{.].].].].].].].].].].].].].].].].].",
"].].].].].].].].].].].].].].].W.R B > c ].].].].].].].].]./._ M J =.b h.G.`.].].].].].].].].].].].].].].].].].",
"].].].].'.].].].].].].].].].].].8.C g j U.].].].].].].].].].m.n r d h [ R p._.].].].].].].].].].].].].].].].].",
"].].].].].].].].].].].].].].].].c.E B C p.].].].].].].].].].].Y.w.x d g R Q ` R.].].].].].].].].].].].].].].].",
"].].].].].].].].].].].].].].].].r.' ' ' ) `.].].].].].].].].].].{.^.n.) E Q B z.{.].].].].].].].].].].].].].].",
"].].].].].].].].].].].].].].W.e.n d d b T _.].].].].].].].].].].].[.[.`.w.: g w.].].].].].].].].].].].].].].].",
"].].].].].].].].].].].].].`.9.m : * - d T ).].].'.{.'.].].].].].].].].[.N.b C ) `.].].].].].].].].].].].].].].",
"].].].].].].].].].].].].].`.) s j l 0.F.R.].].].{.'.{.'.].].].].].].].[.V.k k 9.`.].].].].].].].].].].].].].].",
"].].].].].].].].].].].].].].).R.U.(.].{.].].].].'.{.].].].].].].].].].].).G.U.(.].].].].].].].].].].].].].].]."
};
