/* XPM */
static char *enemy_33[] = {
/* columns rows colors chars-per-pixel */
"55 55 200 2 ",
"   c #3E1514",
".  c #2F2A2F",
"X  c #382929",
"o  c #372D33",
"O  c #342E3B",
"+  c #3D323B",
"@  c #4B120C",
"#  c #52120B",
"$  c #5B130B",
"%  c #4C1511",
"&  c #441A18",
"*  c #561816",
"=  c #64140B",
"-  c #6C150D",
";  c #73160D",
":  c #661A17",
">  c #651C1A",
",  c #6F201F",
"<  c #422D2A",
"1  c #432E30",
"2  c #562D32",
"3  c #443639",
"4  c #42333D",
"5  c #553437",
"6  c #752422",
"7  c #762826",
"8  c #73302F",
"9  c #683335",
"0  c #723739",
"q  c #68413E",
"w  c #393B45",
"e  c #2C3F50",
"r  c #453B47",
"t  c #4B3B44",
"y  c #443D4C",
"u  c #683F43",
"i  c #783D42",
"p  c #3C4554",
"a  c #3F4E63",
"s  c #395569",
"d  c #444248",
"f  c #4D424D",
"g  c #564548",
"h  c #4A4351",
"j  c #474954",
"k  c #444A5A",
"l  c #4A4C5B",
"z  c #554554",
"x  c #564B57",
"c  c #5A4D5A",
"v  c #4B505F",
"b  c #57545C",
"n  c #6A494B",
"m  c #76494A",
"M  c #67524E",
"N  c #654C54",
"B  c #7A4D50",
"V  c #675A5A",
"C  c #6B5A59",
"Z  c #7B5758",
"A  c #6A605D",
"S  c #76645E",
"D  c #475768",
"F  c #535765",
"G  c #5D5462",
"H  c #5A5B6A",
"J  c #455C74",
"K  c #655A64",
"L  c #6D5A6C",
"P  c #715E73",
"I  c #45637A",
"U  c #4F6679",
"Y  c #556776",
"T  c #6C6263",
"R  c #67656A",
"E  c #756666",
"W  c #7E6B64",
"Q  c #77706D",
"!  c #776876",
"~  c #7C7578",
"^  c #832625",
"/  c #882927",
"(  c #8C2827",
")  c #942827",
"_  c #942B2A",
"`  c #992F2C",
"'  c #8B312E",
"]  c #9C302E",
"[  c #873838",
"{  c #9A3532",
"}  c #983734",
"|  c #A0312E",
" . c #A23532",
".. c #A63936",
"X. c #A93A36",
"o. c #AC3D3A",
"O. c #B1403B",
"+. c #875857",
"@. c #836C66",
"#. c #86736C",
"$. c #816E7C",
"%. c #8A7771",
"&. c #867974",
"*. c #897A7A",
"=. c #937879",
"-. c #98827A",
";. c #3B6C8B",
":. c #456986",
">. c #576E86",
",. c #567489",
"<. c #497899",
"1. c #527692",
"2. c #547D99",
"3. c #667686",
"4. c #787B86",
"5. c #826D83",
"6. c #86748B",
"7. c #977A88",
"8. c #927D95",
"9. c #A27C83",
"0. c #59829B",
"q. c #6F808D",
"w. c #76889C",
"e. c #4B85AA",
"r. c #5988A5",
"t. c #4589B0",
"y. c #4D8FB9",
"u. c #568FB1",
"i. c #4D92BC",
"p. c #5691B5",
"a. c #5193BC",
"s. c #5B94B8",
"d. c #708FA6",
"f. c #7792A7",
"g. c #6A9AB8",
"h. c #7099B3",
"j. c #7A9EB3",
"k. c #4D95C1",
"l. c #4B98C5",
"z. c #4F9BC9",
"x. c #559AC4",
"c. c #519ECC",
"v. c #55A1CE",
"b. c #5BA3CE",
"n. c #4FA4D4",
"m. c #52A3D3",
"M. c #5DA6D2",
"N. c #56A8D8",
"B. c #54AADC",
"V. c #59ACDC",
"C. c #60A6CF",
"Z. c #74A5C2",
"A. c #60AAD6",
"S. c #55AEE2",
"D. c #59AFE1",
"F. c #56B1E5",
"G. c #5AB2E5",
"H. c #56B4EA",
"J. c #58B6EC",
"K. c #59B8EF",
"L. c #5CBCF4",
"P. c #5DBFF8",
"I. c #5DC0F9",
"U. c #898588",
"Y. c #988986",
"T. c #9F918B",
"R. c #878D99",
"E. c #988695",
"W. c #88959C",
"Q. c #959498",
"!. c #A78B8A",
"~. c #AA948D",
"^. c #AE988F",
"/. c #A39594",
"(. c #AB9891",
"). c #B79A9D",
"_. c #B7A49D",
"`. c #BDA299",
"'. c #808CA2",
"]. c #8D9AAB",
"[. c #A38BA5",
"{. c #A495A4",
"}. c #B99FA5",
"|. c #89A0AF",
" X c #8AA8BA",
".X c #AEA7AA",
"XX c #B3A3A2",
"oX c #B2A5AC",
"OX c #B3AFAE",
"+X c #B9B8B6",
"@X c #C4A69B",
"#X c #CDAFA9",
"$X c #D8ACAA",
"%X c #C3B6BB",
"&X c #CBC4BE",
"*X c #E5C9BD",
"=X c #CABBC4",
"-X c #D4C8CD",
";X c #F0D7CB",
":X c #F0DFD2",
/* pixels */
"L.L.L.L.L.L.L.L.L.L.L.L.L.L.L.L.L.L.L.L.L.L.L.L.L.L.L.L.L.K.L.L.L.L.L.L.L.L.L.L.L.L.L.L.L.L.L.L.L.L.L.L.L.L.L.",
"L.L.L.L.L.L.L.L.L.L.L.L.L.L.L.L.L.L.L.L.L.L.L.L.L.L.L.L.L.L.L.L.L.L.L.L.L.L.L.L.L.L.L.L.L.L.L.L.L.L.L.L.L.L.L.",
"L.L.L.L.L.L.L.L.L.L.L.L.L.L.L.L.L.L.L.L.L.L.L.L.L.L.L.L.L.L.L.L.L.L.L.L.L.L.L.L.L.L.L.L.L.K.L.L.L.L.L.L.L.L.L.",
"L.L.L.L.L.L.L.L.L.L.L.L.L.L.L.L.L.L.L.L.L.L.L.L.L.L.L.L.L.L.L.L.L.L.L.L.L.L.L.L.L.L.L.L.L.L.L.L.L.L.L.L.L.L.L.",
"L.L.L.L.L.L.L.L.L.L.L.L.L.L.L.L.L.L.L.L.L.L.L.L.L.L.L.L.L.L.L.L.L.L.L.L.L.L.L.L.L.L.L.L.L.L.L.L.L.L.L.L.L.L.L.",
"L.L.L.L.L.L.L.L.L.L.L.L.L.L.L.L.L.L.L.L.L.L.L.L.L.L.L.L.L.L.L.L.L.L.L.L.L.L.L.L.L.L.L.L.L.L.L.L.L.L.L.L.L.L.L.",
"L.L.L.L.L.L.L.L.L.L.L.L.L.L.L.L.L.L.L.L.L.L.L.L.L.L.L.L.L.L.L.L.L.L.L.L.L.L.L.L.L.L.L.L.L.L.L.L.L.L.L.L.L.L.L.",
"L.L.L.L.L.L.L.L.L.L.L.L.L.L.L.L.L.L.L.L.L.L.L.L.L.L.L.L.L.L.L.L.L.L.L.L.L.L.L.L.L.L.L.L.L.L.L.L.L.L.L.L.L.L.L.",
"L.L.L.L.L.L.L.L.L.L.L.L.L.L.L.L.L.L.L.L.L.L.L.L.L.L.L.L.L.L.L.L.L.L.L.L.L.L.L.L.L.L.L.L.L.L.L.L.L.L.L.L.L.L.L.",
"L.L.L.L.L.L.L.L.L.L.L.L.L.L.L.L.L.L.L.L.L.L.L.L.L.L.L.L.L.L.L.L.L.L.L.L.L.L.L.L.L.L.L.L.L.L.L.L.L.L.L.L.L.L.L.",
"L.L.L.L.L.L.L.L.L.L.L.L.L.L.L.L.L.L.L.L.L.L.L.L.L.L.L.L.L.L.L.L.L.L.L.L.L.L.L.L.L.L.L.L.L.L.L.L.L.L.L.L.L.L.L.",
"L.L.L.L.L.L.L.L.L.L.K.L.L.L.L.L.L.L.L.L.L.L.L.L.L.L.L.L.L.L.L.L.L.L.L.L.L.L.L.L.L.L.L.L.L.L.L.L.K.L.L.L.L.L.L.",
"L.L.L.L.L.L.L.L.L.L.L.L.L.L.L.L.L.L.L.L.L.L.L.L.L.L.L.L.L.L.L.L.L.L.L.L.L.L.L.L.L.L.L.L.L.L.L.L.L.L.L.L.L.L.L.",
"L.L.L.L.L.L.L.L.L.L.L.L.L.L.L.L.L.L.K.L.L.L.L.L.L.L.L.L.L.L.K.L.L.L.L.L.L.L.L.L.L.L.L.L.L.L.L.L.L.L.L.L.L.L.L.",
"L.L.L.L.L.L.L.L.L.L.L.L.L.L.L.L.L.L.L.L.L.L.L.L.L.L.L.L.L.L.L.L.L.L.L.L.L.L.L.L.L.L.L.L.L.L.L.L.L.L.L.L.L.L.L.",
"L.L.L.L.L.L.L.L.L.L.L.L.L.L.L.L.L.L.L.L.L.L.L.L.L.L.L.L.L.L.L.L.L.L.L.L.L.L.L.L.L.L.L.L.L.L.L.L.L.L.L.L.L.L.L.",
"L.L.L.L.L.L.L.L.L.L.L.L.J.I.I.K.L.L.L.L.L.L.L.L.L.L.L.L.L.L.L.L.L.L.L.L.L.L.L.L.L.L.L.L.L.L.L.L.L.L.L.L.L.L.L.",
"L.L.L.L.L.L.L.L.L.L.L.L.I.J.I.I.L.L.L.L.L.L.L.L.K.L.L.L.L.L.L.L.L.L.L.L.L.L.L.L.L.L.L.L.L.L.L.L.L.L.L.L.L.L.L.",
"L.L.L.L.L.L.L.L.L.L.L.L.I.J.I.K.L.L.L.L.L.L.L.L.L.L.L.L.L.L.L.L.L.L.L.L.L.H.K.L.L.L.L.L.L.L.L.L.L.L.L.L.L.L.L.",
"L.L.L.L.L.L.L.L.L.L.L.L.J.I.K.I.L.L.L.L.L.L.L.L.L.L.L.L.L.L.L.L.L.L.L.L.L.:.k.L.L.L.L.L.L.L.L.L.L.L.L.L.L.L.L.",
"L.L.L.L.L.L.L.L.L.L.L.L.I.K.I.K.L.L.L.L.L.L.L.L.L.L.L.L.L.L.L.L.L.L.L.L.z.0 H K.L.L.L.L.L.L.L.L.L.L.L.L.L.L.L.",
"L.L.L.L.L.L.L.L.L.L.L.L.J.I.K.I.L.L.L.I.L.L.L.L.L.L.L.L.L.L.L.L.L.L.L.S.G | 9 c.I.L.L.L.L.L.L.L.L.L.L.L.L.L.L.",
"L.L.L.L.L.L.L.L.L.L.L.L.J.I.I.I.A.b.V.K.L.L.L.L.L.L.L.L.L.L.L.L.L.K.z.G  .| 7 <.z.2.z.H.L.L.L.L.L.L.L.L.L.L.L.",
"L.L.L.L.L.L.L.L.L.L.L.L.I.I.V. X-X&XOXj.F.I.L.L.L.L.L.L.L.I.L.B.y.>.i  .` ( , 9 [ } [ >.F.L.L.L.G.G.L.L.L.L.L.",
"L.L.L.L.L.L.K.L.L.L.L.L.L.G. X:X:X*X*X#Xd.K.L.L.L.I.K.S.y.1.H i [ { ` ^ , 7 } X.O.O.O.} >.I.L.J.I l.I.K.I.K.I.",
"L.L.L.L.L.L.L.L.L.L.L.L.I.A.+X;X*X`.`.@XU.S.P.P.J.i.>.n ' ` ` ' ^ 6 7 ' { o.o.X.X.....X.i m.K.;.X m.L.I.K.I.K.",
"L.L.L.L.L.L.L.L.L.L.L.L.I.N.OX*X^.#.@.@.! S.S.p.U n ` | ] _ / ' } ..X... .] _ _ _ _ _ ` / :.I @ p J.I.K.L.L.L.",
"L.L.L.L.L.L.L.L.L.L.L.L.I.N.A -.A t ~.M t I 3.R ~ +...X.o.o.o.o...] _ _ ) _ _ _ _ ) _ ( >   # % e.I.K.I.L.L.L.",
"L.L.L.L.L.L.L.L.L.L.L.L.K.I.0.%.`.^.#.M 8 +.b O y B X.X...] ` _ _ _ _ _ _ ) _ _ ( ^ > % @ $ = k J.L.L.L.L.L.L.",
"L.L.L.L.L.L.L.L.K.I.L.L.I.I.V.W.@X-.X g m B x O y u ) ) _ _ _ _ ) ) _ _ ( ^ 6 > % @ @ $ = ; 2 z.L.L.L.L.L.L.L.",
"L.L.L.L.L.L.L.L.I.K.I.K.K.I.I.r.Q 2 < M n q G w y H J t t > > : : : * % % @ @ # $ $ - ; - t a.L.L.L.L.L.L.L.L.",
"L.L.L.L.L.L.L.L.K.I.K.I.J.I.I.0.g 2 -.@.g K 6.F z 2.L.H.n.<.s O & # # $ $ = = = - - > 5 :.V.I.L.L.L.L.L.L.L.L.",
"L.L.L.L.L.L.L.L.L.L.L.L.L.L.b.~ N m E S T.-.~ R ~ e.I.L.L.I.I.G.a.<.I j f f f f k :.e.S.L.L.L.L.L.L.L.L.L.L.L.",
"L.L.L.L.L.L.L.L.L.L.L.L.L.V.0.q.3.Y V A T.Y.Q A A U F.L.L.L.K.L.I.I.L.L.K.K.K.K.L.L.L.L.L.L.L.L.L.L.L.L.L.L.L.",
"L.L.L.L.L.L.L.L.L.L.L.L.L.L.K.H.H.j.R K W T.&.Y.A j m.I.K.L.K.I.L.L.L.L.L.L.L.L.L.L.L.L.L.L.L.L.L.L.L.L.L.L.L.",
"L.L.L.L.L.L.L.L.L.L.L.L.L.L.L.I.G.W.,.F V &.A -.Q b x.I.I.K.I.K.L.L.L.L.L.L.L.L.L.L.L.L.L.L.L.L.L.L.L.L.L.L.K.",
"L.L.L.L.L.L.L.L.L.L.L.L.L.L.L.I.s.L y N L 5.7.$.V e.b.V.I.K.K.I.L.L.L.L.L.L.L.L.L.L.L.L.L.L.L.L.L.L.L.L.L.L.L.",
"L.L.L.L.L.L.L.L.L.L.L.L.L.L.I.n.e r c t z L 5.E./.s.w.d.L.I.I.K.L.L.L.L.L.L.L.L.L.L.L.L.L.L.L.L.L.L.L.L.L.L.L.",
"L.L.L.L.L.L.L.L.L.L.L.L.L.L.l.s 4 r r c P 6.8.5.OXR.%.r.L.I.K.I.L.L.L.L.L.L.L.L.L.L.L.L.L.L.L.L.L.L.L.L.L.L.L.",
"L.L.L.L.L.L.L.L.L.L.L.L.L.K.s o 4 r t P 5.8.[.{.E.U.%.u.I.K.I.K.L.L.L.L.L.L.L.L.L.L.L.L.L.L.L.L.L.L.L.L.L.L.L.",
"L.L.L.L.L.L.L.L.L.L.L.L.I.J.l 1 o t c P 6.[.=X=X.X(.W 0.I.K.I.K.L.L.L.L.L.L.L.L.L.L.L.L.L.L.L.L.L.L.L.L.L.L.L.",
"L.L.L.L.L.L.L.L.L.L.L.L.J.t.t n r y G P 8.=X-X%XT.#.W U.V.I.K.I.L.L.L.L.L.L.L.L.L.L.L.L.L.L.L.L.L.L.L.L.L.L.L.",
"L.L.L.L.L.L.L.L.L.L.L.L.n.p 1 9 t t K ! [.%XoX'.,.I ,._.g.I.I.K.L.L.L.L.L.L.L.L.L.L.L.L.L.L.L.L.L.L.L.L.L.L.L.",
"L.L.L.L.L.L.L.L.L.L.L.L.H.s X 0 9 n *.4.4.w.g.G.K.I.N.U..XN.K.I.L.L.L.L.L.L.L.L.L.L.L.L.L.L.L.L.L.L.L.K.L.L.L.",
"L.L.L.L.L.L.L.L.L.L.J.b.w.K C n +.~.|.M.F.J.K.L.I.I.L.u.~.j.K.I.L.L.L.L.L.L.L.L.L.L.L.L.L.L.L.L.L.L.L.L.L.L.L.",
"L.L.L.L.L.L.L.L.K.C.'.9.=.K Z T T.Z.H.L.I.L.I.L.L.K.L.H.q.XXM.I.L.L.L.L.L.L.L.L.L.L.L.L.L.L.L.L.L.L.L.L.L.L.L.",
"L.L.L.L.L.P.K.A.].!.7.w.b.>.m d b y.L.L.K.L.L.L.L.L.L.I.p.~.'.k.k.B.L.L.L.L.L.L.L.L.L.L.L.L.L.L.L.L.L.L.L.L.L.",
"L.L.L.L.K.M. X}.).w.b.K.L.1.Z 3 w p l.I.L.L.L.L.L.L.L.L.v.6.Q.W V k <.F.F.L.L.L.L.L.L.L.L.L.L.L.L.L.L.L.L.L.L.",
"L.P.J.b.f.).$X#Xh.H.L.L.L.H.2.c y O p y.K.I.K.I.L.L.L.L.G.q.Q C Z N K 3.I z.F.L.I.K.I.K.I.K.L.L.L.L.L.L.L.L.L.",
"D.x.f.).$X$XXXd.D.P.L.L.L.L.K.u.D f h k i.K.I.K.L.L.L.L.I.v.v 1 1 r r x b H U B.I.K.K.I.K.I.L.L.L.L.L.L.L.L.L.",
"J 7._.oX].h.M.J.L.L.L.L.L.L.L.P.a.H b R U F.L.L.I.K.K.I.L.K.B.e.:.J a k F K f <.I.I.J.I.L.L.L.L.L.L.L.L.L.L.L.",
"M.c.M.B.G.L.L.L.L.L.L.L.L.L.L.x.U r w t d l.I.L.I.K.I.K.L.L.I.I.L.K.H.c.1.+ d J G.K.I.I.L.L.L.L.L.L.L.L.L.L.L.",
"L.P.L.P.L.L.L.L.L.L.L.L.L.L.D.J + . . + a i.I.L.K.I.K.I.K.I.K.I.I.I.K.I.S.v j j x.I.I.K.J.I.I.K.L.L.L.L.L.L.L.",
"L.L.L.L.L.L.L.L.L.L.L.L.L.L.B.k p p s y.H.L.L.L.I.K.I.K.I.K.I.K.J.J.I.I.K.I p I b.L.K.I.L.J.I.I.L.L.L.L.L.L.L.",
"L.L.L.L.L.L.L.L.L.L.L.L.L.L.L.D.n.B.K.I.L.L.L.L.K.I.I.K.K.I.I.I.I.K.I.J.I.n.N.I.L.L.L.L.L.L.I.K.L.L.L.L.L.L.L."
};
