/* XPM */
static char *enemy_0[] = {
/* columns rows colors chars-per-pixel */
"55 55 213 2 ",
"   c #2E0F0F",
".  c #340A06",
"X  c #3A0C07",
"o  c #360C09",
"O  c #3B0D08",
"+  c #38110F",
"@  c #2D1D1C",
"#  c #3A1715",
"$  c #3D201C",
"%  c #2E2D2F",
"&  c #382629",
"*  c #352D36",
"=  c #3A2F35",
"-  c #353035",
";  c #3B333B",
":  c #410F0A",
">  c #470D0A",
",  c #45100C",
"<  c #4B120E",
"1  c #49180D",
"2  c #51130E",
"3  c #461513",
"4  c #4E1410",
"5  c #491912",
"6  c #521410",
"7  c #551A15",
"8  c #611B18",
"9  c #771F1E",
"0  c #43221E",
"q  c #4F211E",
"w  c #6B221F",
"e  c #402324",
"r  c #492A28",
"t  c #582A28",
"y  c #57332F",
"u  c #422F37",
"i  c #4A3B3A",
"p  c #692C2B",
"a  c #742928",
"s  c #6A3534",
"d  c #783836",
"f  c #58423E",
"g  c #373B47",
"h  c #3D3A44",
"j  c #423641",
"k  c #473B47",
"l  c #523D49",
"z  c #633C45",
"x  c #34414F",
"c  c #3E434E",
"v  c #354656",
"b  c #364D62",
"n  c #3B5368",
"m  c #375B73",
"M  c #45444A",
"N  c #45424C",
"B  c #594845",
"V  c #5B4A4D",
"C  c #4A4754",
"Z  c #534953",
"A  c #584C5B",
"S  c #4E565C",
"D  c #5A515B",
"F  c #674A47",
"G  c #744745",
"H  c #66524E",
"J  c #634E5E",
"K  c #655757",
"L  c #6A5552",
"P  c #6C5F5B",
"I  c #7C5256",
"U  c #785758",
"Y  c #6F615D",
"T  c #75635D",
"R  c #485566",
"E  c #435A6D",
"W  c #5B5562",
"Q  c #5C5B66",
"!  c #565B6A",
"~  c #635264",
"^  c #6A5968",
"/  c #685E73",
"(  c #586167",
")  c #476579",
"_  c #44637C",
"`  c #536173",
"'  c #546779",
"]  c #6A6369",
"[  c #7C6463",
"{  c #7B6B65",
"}  c #726B6B",
"|  c #766968",
" . c #7E716D",
".. c #656776",
"X. c #786679",
"o. c #69757E",
"O. c #7A7375",
"+. c #8B2824",
"@. c #9A2B28",
"#. c #863534",
"$. c #9A3F3E",
"%. c #A93532",
"&. c #8D413F",
"*. c #884746",
"=. c #964847",
"-. c #995252",
";. c #AA4A48",
":. c #B24643",
">. c #B55251",
",. c #87635F",
"<. c #846E68",
"1. c #87746E",
"2. c #887A75",
"3. c #927B74",
"4. c #967A7A",
"5. c #97837C",
"6. c #A2847C",
"7. c #3E6C8A",
"8. c #466983",
"9. c #466B85",
"0. c #49718D",
"q. c #59728B",
"w. c #497492",
"e. c #44799C",
"r. c #567995",
"t. c #657687",
"y. c #6B748A",
"u. c #787C85",
"i. c #457EA2",
"p. c #8E7586",
"a. c #8B778C",
"s. c #957E99",
"d. c #A37E83",
"f. c #58839C",
"g. c #75818B",
"h. c #638399",
"j. c #748393",
"k. c #4682A7",
"l. c #4A84A8",
"z. c #4986AB",
"x. c #5282A3",
"c. c #588AA9",
"v. c #4C8CB4",
"b. c #4C8FB9",
"n. c #548EB3",
"m. c #528FB8",
"M. c #4D93BD",
"N. c #5693B8",
"B. c #5394BC",
"V. c #618CA8",
"C. c #6C92AE",
"Z. c #6B94B2",
"A. c #639CBE",
"S. c #7599B2",
"D. c #4F99C5",
"F. c #4F9DCC",
"G. c #569BC5",
"H. c #639DC1",
"J. c #4EA0CF",
"K. c #56A2CE",
"L. c #53A4D4",
"P. c #58A7D5",
"I. c #55ABDD",
"U. c #5BADDD",
"Y. c #6BA2C4",
"T. c #62A3CB",
"R. c #76A5C4",
"E. c #61ABD8",
"W. c #56AEE2",
"Q. c #59AFE1",
"!. c #57B1E5",
"~. c #59B2E5",
"^. c #57B3E8",
"/. c #59B5EB",
"(. c #59B8EF",
"). c #57B9F3",
"_. c #5CBCF4",
"`. c #5DBFF8",
"'. c #5DC0F9",
"]. c #88868B",
"[. c #958889",
"{. c #9E918D",
"}. c #858D9A",
"|. c #9A8797",
" X c #87929B",
".X c #9A9497",
"XX c #A8948B",
"oX c #AD928D",
"OX c #A99794",
"+X c #B69C95",
"@X c #B9A39E",
"#X c #9F88A2",
"$X c #8996A8",
"%X c #949AA6",
"&X c #A69AA2",
"*X c #83A5B8",
"=X c #98A5B2",
"-X c #93A8B4",
";X c #A5A3A4",
":X c #B3A1A8",
">X c #B8A6B4",
",X c #A6B5BC",
"<X c #C0A49A",
"1X c #C8ABA5",
"2X c #D3ACAA",
"3X c #D5B6AC",
"4X c #C5B6BE",
"5X c #D6B8B2",
"6X c #D9C5BB",
"7X c #E4C9BE",
"8X c #D4C8CC",
"9X c #EDD4C8",
"0X c #F3DDD1",
/* pixels */
"_._._._._._._._._._._._._._._._._._._._._._._._._._._._._._._._._._._._._._._._._._._._._._._._._._._._._._._.",
"_._._._._._._._._._._._._._._._._._._._._._._._._._._._._._._._._._._._._._._._._._._._._._._._._._._._._._._.",
"_._._._._._._._._._._._._._._._._._._._._._._._._._._._._._._._._._._._._._._._._._._._._._._._._._._._._._._.",
"_._._._._._._._._._._._._._._._._._._._._._._._._._._._._._._._._._._._._._._._._._._._._._._._._._._._._._._.",
"_._._._._._._._._._._._._._._._._._._._._._._._._._._._._._._._._._._._._._._._.)._._._._._._._._._._._._._._.",
"_._._._._._._._._._._._._._._._._._._._._._._._._._._._._._._._._._._._._._._._._._._._._._._._._._._._._._._.",
"_._._._._._._._._._._._._._._._._._._._._._._._._._._._._._._._._._._._._._._._._._._._._._._._._._._._._._._.",
"_._._._._._._._._._._._._._.(._._._._._._._._._.(._._._._._._._._._._._._._._._._._._._._._._._._._._._._._._.",
"_._._._._._._._._._._._._._._._._._._._._._._._._._._._._._._._._._._._._._._._._._._._._._._._._._._._._._._.",
"_._._._._._._._._._._._._._._._._._._._._._._._._._._._._._._._._._._._._._._._._._._._._._._._._._._._._._._.",
"_._._._._._._._._._._._._._._._._._._._._._._._._._._._._._._._._._._._._._._._._._._._._._._./._._._._._._._.",
"_._._._._._._._._._._._._._._._._._._._._._._._._._._._._._._._._._._._._._._._._._._._._._._._._._._._._._._.",
"_._._._._._._._._._._._._._._._._._._._._._._._._._._._._._._._._._._._._._._._._._._._._._._._._._._._._._._.",
"_._._._._._._._._._._._._._._._._._._._._._._._._._._._._._._._._._._._._._._._._._._._._._._._._._._._._._._.",
"_._._._.k.F._._._._._._._._._._._._._._._._._._._._._._._._._._._._._._._._._._._._._._._._._._._._._._._._._.",
"_._._.~.` D._._._._._._._._._._._._._._._._._._._._._._._._._._._._._._._._._._._._._._._._._._._._._._._._._.",
"_._.`.K.].H._._._._._._._._._._._._._._._._._._._._._._._._._._._._._._._._._._._._._._._._._._._._._._._._._.",
"_._._.A.+XZ._._._._._._._._._._._._._._._._._._._._._.(.~.~./.`._._._._._._._._._._._._._._._._._._._._._._._.",
"_._._.Y.2X$X(._._._._._._._._._._._._._._._._._._.P.Z.y.u...` l.W._._._._._._._._._._._._._._._._._._._.(._._.",
"_._._.A.2X#XW._._._._._._._._._._._._._._._._.(.A.%X:X|.y.~ l j 9./._._._._._._._._._._._._._._._._._._._._._.",
"_._.'.A.2X<XT._._._._._.'./._._._.~././.(.'.).T.#X8X8Xs.X.J l ; j z._._._._._._._._._._._._._._._._._._._._._.",
"_._.'.K.:X2XR._._._._._.'./._._.~.-X,X,X*XP.!.%X4X8X4Xs.X.J l = = 7._._._._._._._._._._._._._._._._._._._._._.",
"_._._.!. X5X%X'._._.(._.'.'.'.U.,X0X0X9X7X;XV.;X>X4Xs.s.y.J j h h i.`._._._._._._._._._._._._._._._._._._._._.",
"_._._._.L.&XOXE._._._._./.'.'.K.6X9X6X1X3X3Xu.[.s.s.s.a.^ l j k g I._._._._._._._._._._._._._._._._._._._._._.",
"_._._._._.C.oXT.'.'./.'.'./.'.A.6X7X+X5.3.6.t.=X:XX.X.~ l l J k l._._._._._._._._._._._._._._._._._._._._._._.",
"_._._._._.K.d.S.(.'.'./.'.'.'.V.P 6.% T 3.H V S d.#Xs.a./ A C 2.*X~._._._._._._._._._._._._._._._._._._._._._.",
"_._._._._.^.p.}./.'.'.'./._._.P.} XXXXXX[ r a [ Q k A k D ..j.p.j.W.)._._.).).).(.(.(._.`._._._._._._._._._._.",
"_._._._._.`.y.d.U.'./.'._._._.~.S.XX@XV H L #.I W * g k | <.*.d z J ~ / ../ ^ ~ ^ ^ y.r.B.~._._._._._._._._._.",
"_._._._._._.N.4.K.'./.'.'.'.'.'.K.u.H f H L G G O.A W K q 7 9 +.+.@.@.@.@.%.%.:.:.:.:.;.=.W F.`._._._._._._._.",
"_._._._._._.b.F m m k.B.K.'.'.'.'.f.5.<.y H P Y P O.]   . . o O > > < 6 8 8 w a #.$.;.>.=.z e./._._._._._._._.",
"_._._._.).7.* % & @ i f ) U.T.S.S. X5.F y K OX .| | T r . . o . o X o o O > > O > 4 7 a *.-.-.y./._._._._._._.",
"_._.`.).).i.g r s d &.&.F 5.5.5.g.V.n.v.9.| OX@X{ Y L B o . o X o O O O > > >   & e , > n c...I N._._._._._._.",
"_._._._._._.D.z p p G *.J n.N.G.~.'.'._.U.( 5.1X5.[.{ f   X X X o X : : : > < > & b e.m i.'.).G.x.(._._._._._.",
"_._._._._._.).q.s l m.n.B._.`.`._._.(.'.'.r.{ T B 1.5.f # X . o X X O 1 < < < 2 2 3 9./._._._._._._._._._._._.",
"_._._._._._._./.m E (.`.`._._._._._._._.(.L.o.B @ r B & o + X X X : , , < < < 6 2 6 3 n /._._._._._._._._._._.",
"_._._._._._._._.x.! Q.`._._._._._._._._.'.'.K.w.% $ { # F F X X : : > 1 < < 6 2 6 # n l._._._._._._._._._._._.",
"_._._._._._._._./.G.(._._._._._._._._._.'.'.I. X[.T  .H { f X : : , < < < 2 3 e 5 3 z._._._._._._._._._._._._.",
"_._._._._._._._._.`._._._._._._._._._._.(.'.B.{ T L f 5.5.0 X : > 1 < < 6 6 3 b k.l.)._._._._._._._._._._._._.",
"_._._._._._._._._._._._._._._._.(._.(.'.'.'.K.Y L S M P <.f : : , , 2 < 2 2 1 _ _.`._._._._._._._._._._._._._.",
"_._._._._._._._._._._._._._._._.(.'.'.(.'.(.B.O.T  .2.5.T <.1 : , , 2 2 & n b I.`.`._._._._._._._._._._._._._.",
"_._._._._._._._._._._._._._._._._.I.!._.^.c.{.;Xh.) ) E ' +X7 > + % 5 < & M._._._._._._._._._._._._._._._._._.",
"_._._._._._._._._._._._._._._._.P.h.K.K.j.OX$XP./.(.(.(.N.+XG > < x 0.h & * v._._._._._._._._._._._._._._._._.",
"_._._._._._._._._._._._._._.`.U.t.u.h..X;XY./.'.(.'.'._.I.].3.2 4 3 n F.K.k.W._._._._._._._._._._._._._._._._.",
"_._._._._._._._._._._._._.`.`.r.U ^ XX-XU.'._._.'.(.(.'.'.h.oXt 6 6 1 E _._._._._._._._._._._._._._._._._._._.",
"_._._._._._._._._._._._._.`.W...I Z u.P._._._._.(._._._._.m.+XH < 1 1 _ _._._._._._._._._._._._._._._._._._._.",
"_._._._._._._._._._._._._._.^.` I = S D._._._._._._._._._.B.[.} e @ v F.`._._._._._._._._._._._._._._._._._._.",
"_._._._._._._._._._._._._._._.n.L h k 0._._._._._._._._._.G.].[.[ B m W._._._._._._._._._._._._._._._._._._._.",
"_._._._._._._._._._._._._._._.I.! Z ; m _._._._._._._._._.Q.' B H <.M f.G./._._._._._._._._._._._._._._._._._.",
"_._._._._._._._._._._._._._._._.8.Z h x L._._._._._._._._._.v.N u j k X.W i.^._._._._._._._._._._._._._._._._.",
"_._._._._._._._._._._._._._._._.x.Q C A i._._._._._._._._._._.L.w.R h k W Q 8.L._._._._._._._._._._._._._._._.",
"_._._._._._._._._._._._._._._._.i.] ] ] ) (._._._._._._._._._._.(.W.b._ Q Q Z z.`._._._._._._._._._._._._._._.",
"_._._._._._._._._._._._._.`.P.q.N k ; M E ^._._._._._._._._._._._._._./.0.* k 0._._._._._._._._._._._._._._._.",
"_._._._._._._._._._._._._.(.8.M * % - h E ^._._._._._._._._._._._._.).'.m.N Z ) /.'.)._._._._._._._._._._._._.",
"_._._._._._._._._._._._._.~._ g g v 9.D.L._._._._._._._._._._._._._._.'.B.N c 9./._._._._._._._._._._._._._._.",
"_._._._._._._._._._._._._._.Q.I.L.^._.`._._._._._._._._._._.)._._._.'._.~.D.J.^._._._._._._._._._._._._._._._."
};
