/* XPM */
static char *enemy_22[] = {
/* columns rows colors chars-per-pixel */
"55 55 212 2 ",
"   c #2D0907",
".  c #360905",
"X  c #3B0C07",
"o  c #340D0A",
"O  c #3D0E0A",
"+  c #3D110C",
"@  c #2D1515",
"#  c #261C1D",
"$  c #3C1915",
"%  c #341C1F",
"&  c #3C1D1C",
"*  c #2E2928",
"=  c #362728",
"-  c #2C2A36",
";  c #312B34",
":  c #353033",
">  c #32333B",
",  c #3B333B",
"<  c #430F0A",
"1  c #480F0C",
"2  c #45100C",
"3  c #4B110E",
"4  c #50130F",
"5  c #441612",
"6  c #4B1A15",
"7  c #431D1B",
"8  c #501510",
"9  c #561916",
"0  c #661B18",
"q  c #63211F",
"w  c #451F21",
"e  c #412323",
"r  c #462826",
"t  c #4C2B29",
"y  c #5A2926",
"u  c #48312E",
"i  c #52332F",
"p  c #4A3634",
"a  c #43333C",
"s  c #573231",
"d  c #533639",
"f  c #533D3A",
"g  c #632C2B",
"h  c #732724",
"j  c #663734",
"k  c #7A3C3D",
"l  c #54403D",
"z  c #353B46",
"x  c #3A3A46",
"c  c #463840",
"v  c #423A44",
"b  c #463E4B",
"n  c #4C3E49",
"m  c #523943",
"M  c #683E41",
"N  c #703D40",
"B  c #36404E",
"V  c #2D4150",
"C  c #3C4554",
"Z  c #364A5B",
"A  c #314E61",
"S  c #3E5165",
"D  c #37576C",
"F  c #3D5E75",
"G  c #3A607A",
"H  c #4B454C",
"J  c #5C4541",
"K  c #574548",
"L  c #4C4451",
"P  c #4F4953",
"I  c #444B59",
"U  c #554656",
"Y  c #514954",
"T  c #5B4C56",
"R  c #554D5A",
"E  c #49515E",
"W  c #5B5359",
"Q  c #654342",
"!  c #694A47",
"~  c #754849",
"^  c #64524E",
"/  c #694D52",
"(  c #7C4D55",
")  c #695556",
"_  c #6C5A55",
"`  c #6E5C5A",
"'  c #73625D",
"]  c #79645F",
"[  c #465869",
"{  c #575361",
"}  c #5C5865",
"|  c #445C71",
" . c #675765",
".. c #775762",
"X. c #6D5D71",
"o. c #735F72",
"O. c #5E606C",
"+. c #42647B",
"@. c #556278",
"#. c #686167",
"$. c #6C666C",
"%. c #776867",
"&. c #7C6B65",
"*. c #676877",
"=. c #776776",
"-. c #737577",
";. c #777579",
":. c #932B2A",
">. c #8E3434",
",. c #893939",
"<. c #A12E2C",
"1. c #A93A37",
"2. c #894A4E",
"3. c #984746",
"4. c #815959",
"5. c #915152",
"6. c #AB4D4B",
"7. c #B24846",
"8. c #846662",
"9. c #876962",
"0. c #84726C",
"q. c #89736D",
"w. c #92746E",
"e. c #8B7771",
"r. c #867975",
"t. c #987872",
"y. c #A0757B",
"u. c #948079",
"i. c #9F847C",
"p. c #456B86",
"a. c #527088",
"s. c #427393",
"d. c #497797",
"f. c #4C7B9C",
"g. c #577C97",
"h. c #62798C",
"j. c #777988",
"k. c #417CA0",
"l. c #5D7FA0",
"z. c #826D86",
"x. c #897689",
"c. c #947D98",
"v. c #A67F84",
"b. c #67808E",
"n. c #4887AE",
"m. c #4C88AE",
"M. c #5C84A2",
"N. c #5286A9",
"B. c #4288B1",
"V. c #4B8CB4",
"C. c #4790BB",
"Z. c #4B90BA",
"A. c #5493BC",
"S. c #668AA6",
"D. c #7B8EA2",
"F. c #6E94AA",
"G. c #6C94B1",
"H. c #739BB5",
"J. c #71A2BE",
"K. c #4E96C1",
"L. c #4C98C4",
"P. c #4E9CCA",
"I. c #559CC6",
"U. c #639DC1",
"Y. c #59A3CE",
"T. c #52A3D3",
"R. c #5AA6D2",
"E. c #5CA9D6",
"W. c #54A7D8",
"Q. c #55AADC",
"!. c #59ACDC",
"~. c #67A5C9",
"^. c #55AEE2",
"/. c #5AAEE0",
"(. c #56B1E5",
"). c #59B1E5",
"_. c #57B5EC",
"`. c #59B6EC",
"'. c #59B8EF",
"]. c #5CBCF4",
"[. c #5DBFF8",
"{. c #898285",
"}. c #9E8982",
"|. c #9A898B",
" X c #888A95",
".X c #958895",
"XX c #9A9699",
"oX c #A8948C",
"OX c #AB948C",
"+X c #A08F97",
"@X c #B69B96",
"#X c #B9A299",
"$X c #8293A6",
"%X c #9194A8",
"&X c #A998A5",
"*X c #B19BB0",
"=X c #93ACB7",
"-X c #ABA3A7",
";X c #B6A5A9",
":X c #BCAAB6",
">X c #B9BCBB",
",X c #C5A69C",
"<X c #CEA7A5",
"1X c #C6AEA4",
"2X c #D6AAA8",
"3X c #D4B5AA",
"4X c #C3B6BC",
"5X c #DEC2B7",
"6X c #E2C5B8",
"7X c #D4C7CD",
"8X c #E9D3C7",
"9X c #F5E2D5",
/* pixels */
"].].].].].].].].].].].].].].].].].].].].].].].].].].].].].].].].].].].].].].].].].].].].].].].].].].].].].].].",
"].].].].].].].].].].].].].].].].].].].].].].].].].].].].].].].].].].].].].].].].].].].].].].].].].].].].].].].",
"].].].].].].].].].].].].].].].].].].].].].].].].].].].].].].].].].].'.].].].].].].].].].].].].].].].].].].].].",
"].].].].].].].].].].].].].].].].].].].].].].].].].].].].].].].].].].].].].].].].].].].].].].].].].].].].].].].",
"].].].].].].].].].].].].].].].].].].].].].].].].].].].].].].].].].].].].].].].].].].].].].].].].].].].].].].].",
"].].].].].].].].].].].].].].].].].].].].].].].].].].].].].].].].].].].].].].].].].].].].].].].].].].].].].].].",
"].].].].].].].].].].].].].].].].].].].].].].].].].].].].].].].].].].].].].].].].].].].].].].].].].].].].].'.].",
"].].].].].].].].].].].].].].].].].].].].].].].].].].].].].].].].].].].].].].].].].].].].].].].].].].].].].].].",
"].].].].].].].].].].].].].].].].].].].].].].].].].].].].].].].].].].].].].].].].].].].].].].].].].].].].].].].",
"].].].].].].].].].].].].].].].].].].].].].].].].].].].].].].].`.].].].].].].].].].].].].].].].].].].].].].].].",
"].].].].].].].].].].].].].].].].].].].].].].].].].].].].].].].].].].].].].].].].].].].].].].].].].].].].].].].",
"].].].].].].].].].].].].].].].].].].].].].].].].].].].].].].].].].].].].].].].].].].].].].].].].].].].].].].].",
"].].].].].].].].].].].].].].].].].].].].].].].].].].].].].].].].].].].].].].].].].].].].].].].].].].].].].].].",
"].].].].].].].].].].].].].].].].].].].].].].].].].].].].].].].].].].].].].].].].].].].].].].].].].].].].].].].",
"].].].].].].].].].].].].].].].].].].].].].].].].].].].].].].].].].].].].].].].].].].].].].].].].].].].].].].].",
"].].].].].].].].].].].].].'.].].].].].].].].].].].].].].].].].].].].].].].].].].].].].].].].].].].].].].].].].",
"].].].].].].].].].].].].].].].].].].].].].].].].].].].].].].].].].].].].].].].].].].].].].].].].].].].].].].].",
"].].].].].].].].].].].].].].].].].].].].].].].].].].].].].].].].].].].].].].].].].].].].].].].].].].].].].].].",
"].].].].].].].].].].].].].].].].].].].].].].].].].].].].].].].].].].].].].].].].].].].].].].].].].].].].].].].",
"].].].'.].].].].].].].].].].].].].].].].]._.^.Q._.].].].].].].].].].].].].].].].].].].].].].].].].].].].].].].",
"].].].].].].].].].].].].].].].].].].].'.~.=X>X>X=XE.].].].].].].].].].].].].].].].].].].].].].].].].].].].].].",
"].].].].].].].].].].].].].].].].].].].E.5X9X9X8X5XXXW.].].].].].].].].].].].].].].].].].].].].].].].].].].].].",
"].].].].].].].].].].].].].].].].].].].J.7X6X5X#X3X,XG.].].].].].].].].].].].].].].].].].].].].].].].].].].].].",
"].].].].].].].].].].].].].].'.].].].].H.5X5X}.0.q.w.M._.[.].].].].].].].].].].].].].].].].].].].].].].].].].].",
"].].].].].].].].].].].].].].].].].].].h.' }.= 0.u.l P b.N.N.V.^.[.'.'.].].].].].].].].].].].].].].].].].].].].",
"].].].].].].].].].].].].].].].].].].].Y.-.OXoXoX_ e N -.H R } @.N.g.Q.[.].].].].].].].].].].].].].].].].].].].",
"].].].].].].].].].].].].].].].].].].].`.D.#X@Xl _ M 2.W - - > L j.M.)./.E.E.).].].].].].].].].].].].].].].].].",
"].].].].].].].].].].].].].].].].].].].].Y.-._ ^ ^ Q N $.L H Y $.;.M.D.%X.Xh.j.S.Y.].].].].].].].].].].].].].].",
"].].].].].].].].].].].].].].].].].].].[.Q.-.}.~ l ' l $.$.$.! d x.-X4X7X<Xz.o.U { Z.[.].].].].].].].].].].].].",
"].].].].].].].].].].].].].].].].].].].].V.W , i W oX0.' %.&.y k &X4X7X7X&Xj.X.U a I Q.].].].].].].].].].].].].",
"].].].].].].].].].].].].].].].].].].].].g.U - x ' oX@X&.` ` d _ .X*X*Xc.z.j. .n , a V.[.].].].].].].].].].].].",
"].].].].].].].].].].].].].].].].].].[.`.a.L P #.^ }.1Xr.r.` d &.*Xx.c.c.z. .T c : , n.[.].].].].].].].].].].].",
"].].`.Z._.].].].].].].].].].].].].].].N.b.-.*.;.P u.&.' OX0.l u -Xx.=.o.X.n c v c x W.].].].].].'.].].].].].].",
"].].].G g.Q.].[.].].].].].].].].].].`.I.I.I.E. XZ ] l % l _ l   f |.c.o.} n n n x B.[.].].].].].].].].].].].].",
"].].[.Y.{.XXG.!.].].].].].].].].].].].[.[.[.E..X* & @   u ^ o i r w ( ..T M m S P.].].].].].].].].].].].].].].",
"].].].'.H.-X<X+XH.!.].].].].].].].].].[.[.].J.r.@ o ! ] l u.r q.t . 9 :.g M @.^.[.].].].].].].].].].].].].].].",
"].].].].].J.-X3X<X:X$X~._.].].].].].[./.T.E.XXW o r u.q.' _ u.q.5 . < :.h l.'.].].].].].].].].].].].].].].].].",
"].].].].].'.R.F.;X2X<X&X$X~._.].].'.!.f.p ` $.- X $ ] ^ u u ' q.J O X 0 <.@.'.].].].].].].].].].].].].].].].].",
"].].].].].].].`.I.F.G.$Xv.}. XU.`.L.V a ,.3.n @ X o l ' ' ] u.&.e.5 X 1 :.>.A.].].].].].].].].].].].].].].].].",
"].].].].].].].].].'.].`.R.S.x.t.j.Z # j 3./ = O + j oX' l l l 0.w.< < O h 1...(.].].].].].].].].].].].].].].].",
"].].].].].].].].].].].].].].!.S.P * s j g C % 2 ! oX4.5 O 2 2 9.w.< < < 4 1.>.l.[.'.].].].].].].].].].].].].].",
"].].].].].].].].].].].].].].[.'.D # j g s % 7 9.i.j 2 2 2 2 2 9.w.< 1 O 1 >.7.j.'.[.].].].].].].].].].].].].].",
"].].].].].].].].].].].].].].[.^.A A @.~ Q K i.t.r + 3 3 3 3 2 9.w.1 < @ 1 h 7.2.W.].].].].].].].].].].].].].].",
"].].].].].].].].].].].].].].].].Q.^.Z.` ) |.t.6 z & 8 8 8 8 3 w.y.1 1 z 7 q 6.3.K.].].].].].].].].].].].].].].",
"].].].].].].].].].].].].].].].].].].a.4.H ` y r k.e 8 1 6 8 6 u.4.3 3 x w 9 6.6.l.[.].].].].].].].].].].].].].",
"].].].].].].].].].].].].].].].].].[.d.4.p H e G Z.& : G 5 6 ;.|. .t w s.x 4 3.,.l.].].].].].].].].].].].].].].",
"].].].].].].].].].].].].].].].].].].F Q n x > C.W.% E (.G D } =.8...x B.D b 2.E K.].].].].].].].].].].].].].].",
"].].].].].].].].].].].].].].].].].T.; a R v V (.Q.z s.[.].].f.p d / T h.s.l.5.l.].].].].].].].].].].].].].].'.",
"].].].].].].].].].'.].].].].].].[.I.d.p.U b z C.[.).`.].].]._.a.b x b  .} [ 2.K.[.].].].].].].].].].].].].].].",
"].].].].].].].].].].].].].].].].].].[.V.} L U p.].].].].].].].].L.| x b { #.{ P.].].].].].].].].].].].].].].].",
"].].].].].].].].].].].].].].].].].[.[.m.$. .X.| ^.].].].].].].].].'.L.| $.W P f.[.].].].].].].].].].].].].].].",
"].].].].].].].].].].].].].].'.].]./.g.I v , v [ ^.].].].].].].].].].].(.a.: v F `.].].].].].].].].].].].].].].",
"].].].].].].].].].].].].].].].].].d.H : ; : x S ^.].].].].].].].].].].[.T.C P E T.].].].].].].].].].].].].].].",
"].].].].].].].].].].].].].].].]._.+.B > C F C.T.`.].].].].].].].].].].[.Q.Z x E I.[.].].].].].].].].].].].].].",
"].].].].].].].].].].].].].].].].]./.P.L.W.].[.].].].].].].].].].].].[.].'.Z.A.(.'.].].].].].].].].].].].].].]."
};
