/* XPM */
static char *exit1[] = {
/* columns rows colors chars-per-pixel */
"55 55 200 2 ",
"   c #151314",
".  c #251C1B",
"X  c #291E1D",
"o  c #2B201F",
"O  c #30211F",
"+  c #2D2221",
"@  c #2C2A2D",
"#  c #322524",
"$  c #352625",
"%  c #352827",
"&  c #3A2A27",
"*  c #342B2C",
"=  c #3A2D2C",
"-  c #3D312E",
";  c #232A32",
":  c #2C2C30",
">  c #352F31",
",  c #382F31",
"<  c #353134",
"1  c #3B3333",
"2  c #36353A",
"3  c #3C3639",
"4  c #3E393B",
"5  c #462214",
"6  c #4B2413",
"7  c #4A291D",
"8  c #552A15",
"9  c #542E1B",
"0  c #592E19",
"q  c #57311E",
"w  c #5B311B",
"e  c #683618",
"r  c #6E3B1A",
"t  c #743E1A",
"y  c #482E25",
"u  c #512F20",
"i  c #41312E",
"p  c #4D342B",
"a  c #543324",
"s  c #553729",
"d  c #5A3B2B",
"f  c #433532",
"g  c #443736",
"h  c #453936",
"j  c #4B3A36",
"k  c #423B3B",
"l  c #4A3D3A",
"z  c #523B34",
"x  c #533E38",
"c  c #6F3F20",
"v  c #75401C",
"b  c #7C451D",
"n  c #47403F",
"m  c #4D413E",
"M  c #574037",
"N  c #53423D",
"B  c #734221",
"V  c #764C2E",
"C  c #6D4A33",
"Z  c #724E35",
"A  c #754E35",
"S  c #6F523E",
"D  c #785135",
"F  c #74523A",
"G  c #2B3B47",
"H  c #363B43",
"J  c #3A3D44",
"K  c #383F48",
"L  c #433F41",
"P  c #2E404D",
"I  c #3B4149",
"U  c #3B424B",
"Y  c #3B4855",
"T  c #3C4D5C",
"R  c #3D505F",
"E  c #3D5465",
"W  c #3B566A",
"Q  c #3C586C",
"!  c #355C74",
"~  c #38627C",
"^  c #454244",
"/  c #4C4443",
"(  c #4B4748",
")  c #4D4B4C",
"_  c #524542",
"`  c #594541",
"'  c #524946",
"]  c #5B4A46",
"[  c #534C4B",
"{  c #5A4E4B",
"}  c #56504E",
"|  c #5B514E",
" . c #4A4E54",
".. c #534F50",
"X. c #4A525C",
"o. c #545253",
"O. c #5B5554",
"+. c #5B5757",
"@. c #575658",
"#. c #5C5B5C",
"$. c #685449",
"%. c #765B49",
"&. c #615553",
"*. c #655955",
"=. c #6B5C55",
"-. c #635D5C",
";. c #695E5B",
":. c #64605F",
">. c #6B615E",
",. c #7A6556",
"<. c #76655C",
"1. c #425565",
"2. c #435A6C",
"3. c #485A6A",
"4. c #5E5E62",
"5. c #425E72",
"6. c #615F61",
"7. c #5F6063",
"8. c #436177",
"9. c #4B6376",
"0. c #416278",
"q. c #636263",
"w. c #6A6463",
"e. c #6C6867",
"r. c #64656A",
"t. c #68676A",
"y. c #67696D",
"u. c #6B6A6B",
"i. c #756A68",
"p. c #716D6C",
"a. c #7C716E",
"s. c #676B70",
"d. c #6B6D72",
"f. c #706F71",
"g. c #6E7175",
"h. c #6F7278",
"j. c #737274",
"k. c #797474",
"l. c #727579",
"z. c #797779",
"x. c #77797E",
"c. c #7C797B",
"v. c #80471D",
"b. c #834A1F",
"n. c #8A4E1F",
"m. c #854C20",
"M. c #8A4E20",
"N. c #8C5021",
"B. c #80593C",
"V. c #805C43",
"C. c #816048",
"Z. c #807C7D",
"A. c #83807E",
"S. c #3C6A85",
"D. c #476C85",
"F. c #4B738E",
"G. c #4A7592",
"H. c #4D7D9C",
"J. c #517B97",
"K. c #777B80",
"L. c #7C7E83",
"P. c #817F81",
"I. c #7E8186",
"U. c #7F8388",
"Y. c #4E82A3",
"T. c #4E87AB",
"R. c #4F8AAE",
"E. c #4D8AB0",
"W. c #518DB2",
"Q. c #4F92BC",
"!. c #5090B7",
"~. c #5294BD",
"^. c #5297C0",
"/. c #5599C3",
"(. c #589CC6",
"). c #549ECB",
"_. c #55A1CE",
"`. c #58A1CE",
"'. c #56A5D4",
"]. c #58A6D4",
"[. c #58A8D8",
"{. c #59ABDC",
"}. c #59AFE1",
"|. c #5AB1E5",
" X c #5BB5EA",
".X c #5CB8EE",
"XX c #5CBCF4",
"oX c #5DBFF8",
"OX c #82858A",
"+X c #86878B",
"@X c #878B90",
"#X c #8A8E92",
"$X c #908F90",
"%X c #8C9196",
"&X c #8F9498",
"*X c #95979B",
"=X c #979BA0",
"-X c #9B9EA2",
";X c #9DA1A5",
":X c #A0A4A7",
/* pixels */
"XXXXXXXXXXXXXXXXXXXXXXXXXXXXXXXXXXXXXXXXXXXXXXXXXXXXXXXXXXXXXXXXoX.XoX.XoXXXXXXXXXXXXXXXXXXXXXXXXXXXXXXXXXXXXX",
"XXXXXXXXXXXXXXXXXXXXXXXXXXXXXX.XXXXXoXXXoXXXoXoXXXoXXXXXXXXXXXXXoXoXoXoXoXXXXXXXXX.XXXXXXXXXXXXXXXXXXXXXXXXXXX",
"XXXXXXXXXXXXXXXXXXXXoXoXXXXX X XoX|._.}._.Y.Y.G.D.G.5.5.D.8.8.9.Q D.W.~.`. XoXoXoXoXXXXXXXXXXXXXXXXXXXXXXX XXX",
"XXXXXXXXXXXXXXXXXX.XoXoX XY.T  .3.U 3 U 4 m f m ' 1 { | f N { f | j - k 4 E 9.Y./.'..XXXXXXXXXXXXXXXXXXXXXXXXX",
"XXXXXXXXXX.XXXXXoXoX].G.R , :.>.- [ >.& ( e.} O.q.N :.q.m O.O.N :.m +.e.+.f [ g - k 2.].XXoXXXXXXXXXXXXXXXXXXX",
"XXXXXXXXXXXXXXXX].Y.U N +.j p.t.m [ #.1 ' u.m ' +.m O.#.m :.| m #.m ' q.[ ` q.' q.-.1 2 9.~..XXXXXXXXXXXXXXXXX",
"XXXXXXXXXXXX.XJ.I f - p.e.l ..f.m ^ e.l m 4.m / +.m o.p.m #.| m #.f ) e._ N q.` e.#.j | m 1 8./..XXXXXXXXXXXXX",
"XXXXXXXXXX{.Y.1 :.p.j m #.' j :.m j f.( m #.m k n n } #.m m m k #.i ) #.f @.u.` :.} N u.#.i m > 8. XXXXXXXXXXX",
"XXXXXXXX~.I & = :.#.} f +.:.f o.m = ' ^ f m - m } - 2 ^ - < 3 - ) & h ( i [ { N o.n *.7.' ] e./ # E /.oXXXXXXX",
"XXXXXX'.J | +.- f +.#.N m :.i j [ | :.o.* @ O o @ o + # . o o o % @ 3 -.-.O.k l n f e.#.1 w.#.k & l I `.oXXX.X",
"XXXX XD.- #.u.#.- f #.@.y ' e.OX&X&X%Xj.* : o                   + : k I.%X*X@XP.*.j #.l ` k.( # +.:.- Y |.oXXX",
"XX|.1.g * f +.#.+.i 3 ( w.*X*X&X@X+X@Xj.< : H ! G ! ~ P ! ~ P R < @ 3 OX@X@X#X*X;X%X| & +. .% m k.u.k + 5.|.XX",
"oXH.f e.:.h O n o.[ & a.;X%XI.p.O.N A.j.* @ 0._.W ~.'.W Q.'.W R.U : k OXp.M *.j.OX*X;X*.k 1 i :.q.k - | 1 G.XX",
"XXF.& -.j.q.k # = 3 u.;XOX&.7 5 6 0 c.l.< @ I ~ ; R ~ ; W ~ ; R 2 @ k OX;.8 6 5 p w.#X-X` $ [  .- h :.:.( 4 _.",
"R.4 = $ k o.@.) & m =Xc.z 5 8 v v B c.k.= @ 0. X~ _. X~ '. X~ /.Y @ k OX<.t v r 8 5 ] #X$Xi 3 = N k.f.:.} = Y.",
"J { u.[ & # ^ ) - a.#XM 6 v v.n.b v c.j.1 @ 5._.W Q._.W Q._.W E.I @ k OX<.t n.b.b r 5 &.*X{ O ' q.4.o.n & o 2.",
"- o.u.j.u.l + + i $X6.5 t v.m.m.b B A.j.< @ I 8.; W ~ ; W 8.; E 2 @ 4 U.<.v M.m.b.M.e 7 c.c.# k 1 > & f m ( > ",
"# 3 ) #.#.#.[ - l +Xz e m.m.m.m.b B c.j.* @ 0. X~ _.|.8._. X~ ~.Y @ k I.<.v m.m.b.m.v.0 &.+X# # m | :.u.:.o.= ",
"$ & # $ $ < ^ * ..c.7 m.N.M.v.m.b B c.j.< @ 5._.W !.'.W Q.'.Q R.U @ k OX<.v b.m.b N.N.t p OX1 * +.o.#.) 4 * < ",
"( u.-.[ l = # . -.w.6 M.M.M.m.M.b B c.j.* @ I 9.; E 8.; E 8.; T 2 @ k I.<.t M.m.v.N.m.v y x.k X % * o o # O 2 ",
") u.u.q.6.q.+.# 6.-.6 M.n.M.v.m.v B c.j.< @ 8.|.8.'.|.0._.|.~ /.Y @ k OX<.v n.b.m.M.m.b y j.( $ | >.-.:.p.[ = ",
"- 3 n 4 3 L k X f.-.8 M.b.M.m.m.v B c.j.* @ 2.'.W ~.].Q Q.'.W W.U @ k I.<.v b.b.m.M.n.v.u j.o.o ( ) o.:.-.( * ",
"- m m | _ j $ . d.&.9 m.v.n.b M.b B j.j.* @ I 8.; W 8.; W 8.; X.2 @ k U.<.v n.b.B N.b.v.p g.+.. O O - f f = * ",
"n 7.u.f.6.4.3 X f.6.0 M.v.n.v.m.b B z.j.< @ 9.|.~ _.|.0.`.|.~ ^.I @ k U.<.v n.b.b.n.v.b.a g.O.# } :.j.A.c.q.1 ",
"* 4 4 g 1 f $ o f.6.s D Z F $.%.$.&.x.j.< @ 3.'.W ~.'.W ~.].W W.U @ k U.p.$.%.$.S F Z C M g.@.o ( ( [ #.} ) - ",
"O - m } { +.k o d.r.r.s.g.s.l.d.g.g.I.l.< : U 8.; 1.9.; W 8.; E 2 @ k U.x.s.l.y.x.y.u.d.#.g.+.. & O O = - f o ",
"n @.#.#.@.#.^ o d.r.6.r.r.4.6.#.#.O.x.j.= @ 9. X8.).|.~ '.|.5.^.U @ k U.y.+.#.#.q.#.7.r.@.h.o.o +.q.:.u.u.:.- ",
"o - 4 4 2 1 * o d.6.p 0 9 0 9 0 8 9 j.j.< @ 3.'.W ~.[.W ~.'.Q R.I @ k U.-.8 w 9 9 q 9 q k h.o.o k ) ) o.o.[ = ",
"% h - m N m % o d.r.u t t t e t e e k.l.< @ I 8.; W 8.; W 8.; R 2 @ 3 U.=.e r v r v r e m u.o.o % = O O % O # ",
"n :.:.u.j.j.O.o d.4.a M.b M.b M.b r j.g.* @ 2.|.8._.|.8._.|.0.~.U @ k I.=.v b.n.b M.b b.M g.o.o +.>.:.q.:.:.1 ",
"4 ) ) #.u.q.) o u.q.a M.m.N.b M.b c j.j.< * 2.].W ~.'.W ~.].W R.I @ 3 P.>.v b.N.b N.b b.M d.o.o o.e.4.o.@.o.- ",
"O @ % = - < + o u.4.a m.b.m.b N.b t j.d.= @ J 8.; W 9.; W 8.; E 2 @ f OX=.v b.N.b N.v.b.M d.o.. - 3 1 1 1 > # ",
"m #.{ } } [ n o u.7.q m.b N.b N.t t k.f.< @ 5.|.5._.|.5._.|.5.^.I @ k L.=.b m.M.m.m.B m.z d.... - f j m ' m < ",
"[ e.j.e.7.7.} o u.7.N F Z D C D C C l.d.* @ 2.[.2./.[.Q ^.[.Q E.K : k L.;.C V A Z A C A ` d.o.+ +.q.4.#.f.:.- ",
"4 o.) ^ ^ n 2 o u.s.s.s.g.y.g.g.g.d.K.d.* @ I Q ; 1.5.; E 5.; X.2 @ 3 L.l.s.j.s.g.y.s.g.6.h.o.. * 1 , , h 1 # ",
"% - = % = = O o u.7.#.#.7.#.t.r.6.s.K.j.= @ 2.|.5.).|.S._.}.~ ^.K @ k L.l.6.s.6.r.q.6.6.4.g...X m ' | | +.{ & ",
"} :.c.a.:.:.) o u.#.y 0 q q u a a p j.f.> @ 3.].Q ^.'.Q ^.'.Q R.J @ k L.6.u a a a q 9 8 g s.| # #.u.u.#.q.u.j ",
"n #.u.:.o.) n o u.7.a b v b r v e c f.j.> @ L 5.; W 5.; 1.5.; T 2 : 1 P.*.e t t r t t t j s...X ^ [ ) ) ) ^ $ ",
"# 3 4 3 > O O o u.7.s N.b.n.b N.t c f.d.* @ 2.|.5.). X~ '.|.5.^.K @ 1 K.*.b m.m.v.M.v.m.L d...  o & i i = = $ ",
"# f m | :.:.{ o r.7.d N.b.N.b N.m.c f.y.* @ 1.'.Q ^.[.W ^.[.Q E.J @ 1 K.*.b t m.t M.v.M.x d.[ + *.e.u.p.u.u.3 ",
"..#.q.-.q.y.[ X r.q.d M.m.M.B N.v.t p.u.* @ J 5.; E 5.; W 5.; T < @ = K.*.v.v.n.m.M.m.m.j s.[ + @.#.6.j.j.q.k ",
"3 ^ ( ^ 4 k = . r.7.d N.m.M.b M.v.t f.u.* @ 3.}.5.).}.~ ).|.5.!.K @ = K.=.b.b.n.t M.t m.x s.' . > 1 3 ^ ^ k & ",
"= & = f _ ` h X q.r.-.<.,.,.%.C.%.%.j.u.* @ 1.'.Q ^.'.Q ^.'.W T.H @ i K.>.V.%.V.%.,.<.i.4.s.' . $ = 1 f l N & ",
"#.#.#.-.7.#.+.+ q.s.s.d.h.d.h.d.f.d.K.t.* @ J 5.; E 5.; W 5.; T < @ = K.j.u.h.d.l.g.s.h.6.K.L . O.f.k.f.e.u.' ",
"^ o.o.) ^ ( ( o 6.r.@.#.r.r.d.d.j.K.K.t.# @ 1.}.~ ).}.5._.}.~ !.K @ = K.P.d.K.y.l.6.6.6.@.d.L # k o.4...L L L ",
"# # $ $ & = # . 6.4.p e 9 a s M L | l.6.@ @ 1.'.W ^.[.Q ^.[.Q R.H @ & z.p.L L d s a w 0 L s.k . # $ & = f $ . ",
"+.+.o.' +.#.' + 6.6.d b.b v.r t e e j.6.* @ H 2.; W 5.; W Q ; Y < @ = K.&.e e t r v.t t x d.L # L &.w.f.d.6.i ",
":.f.r.@.@.@...+ 6.6.d n.b.M.B M.t c f.6.# @ 1.}.! ).}.5.).}.5.!.H @ & j.*.b v.m.v.M.v.n.x f.L X ) @.6.-.4.+.L ",
"- 3 1 1 = 1 > + -.7.z b.v.n.b n.b c f.w.# @ 2. XD.'..XD.[..XD.^.K @ & z.*.b b n.v.n.t c L p.L O & = * * = i $ ",
"' ' { m ' { j . -.d.j.a.,.%.F V B c a.6.# : Q }.2.). X1.).|.2.W.J @ & z.*.t c B.$.%.C.Z.j.j.L . L &.&.{ &.6.L ",
":.q.f.t.#.#.( X w.#X%X&X=X=X*X+Xc.w.l.6.# * 2.}.1.(. X3.). XW W.K @ & z.r.i.P.P.*X-X=X*XP.P.L X L d.t.+.4.@.g ",
"* - - > * & + . M w.k.OXOX#X%X&X#X+X@X;.# @ 1..XH.}..XJ.}..XH.(.J @ & z.Z.@X*X*X%X$XP.P.P.;.z X = i i H 1 > O ",
"T T E E E T 2.Y.J.3.) N N ] >.a.L.+X%X;.@ : 1..X XXXXX XXXXX.X[.H * & P.%XP.P.Z.=.] ` L X.9.H.5.H K K H > < 1.",
"XXXXoXXXXXXXXXXXoXXX X[.~.J.9. .L x ] d # > D.XXXXXXXXXXXXXXXX}.1.* O ` L L L ..D.H.(.{..XoXoX.X}..X.X}.].}.XX",
"XXXXXXXXXXXXXXXXXXXXXXoXoXoXXX X[.~.J.3.3.!..XXXXXXXXXXXXXXXXXXX}.H.X.9.J.(.{..XoXoXoXXXXXXXXXXXXXXXXXXXXXXXXX"
};
