/* XPM */
static char * exit2_xpm[] = {
"64 64 290 2",
"  	c #F8C984",
". 	c #DEB986",
"+ 	c #838382",
"@ 	c #7F7F7F",
"# 	c #7E7E7E",
"$ 	c #7B7B7B",
"% 	c #777777",
"& 	c #848484",
"* 	c #828282",
"= 	c #A79580",
"- 	c #F6C784",
"; 	c #C7AB87",
"> 	c #797979",
", 	c #6B6B6B",
"' 	c #717171",
") 	c #6E6E6E",
"! 	c #737373",
"~ 	c #7D7D7D",
"{ 	c #808080",
"] 	c #84827F",
"^ 	c #F4C684",
"/ 	c #C1A37C",
"( 	c #676767",
"_ 	c #555555",
": 	c #636363",
"< 	c #707070",
"[ 	c #7E7B78",
"} 	c #F3C683",
"| 	c #BEA077",
"1 	c #6D6D6D",
"2 	c #585858",
"3 	c #5D5D5D",
"4 	c #747474",
"5 	c #787878",
"6 	c #727272",
"7 	c #757575",
"8 	c #767676",
"9 	c #6F6C69",
"0 	c #F3C583",
"a 	c #575757",
"b 	c #666666",
"c 	c #6C6C6C",
"d 	c #6F6B68",
"e 	c #545454",
"f 	c #626262",
"g 	c #696662",
"h 	c #F3C582",
"i 	c #6F6F6F",
"j 	c #66625E",
"k 	c #6A6A6A",
"l 	c #696969",
"m 	c #606060",
"n 	c #BD9F77",
"o 	c #686868",
"p 	c #616161",
"q 	c #656565",
"r 	c #65615E",
"s 	c #E9BE80",
"t 	c #988266",
"u 	c #585857",
"v 	c #5B5B5B",
"w 	c #5C5C5C",
"x 	c #5A5A5A",
"y 	c #595959",
"z 	c #5F5F5F",
"A 	c #5E5E5E",
"B 	c #7B6E5F",
"C 	c #C09F71",
"D 	c #F7C884",
"E 	c #F2C483",
"F 	c #7A7877",
"G 	c #646464",
"H 	c #B7996F",
"I 	c #F0C382",
"J 	c #737270",
"K 	c #7C7C7C",
"L 	c #7A7A7A",
"M 	c #818181",
"N 	c #B6986E",
"O 	c #6F6E6C",
"P 	c #B6976D",
"Q 	c #535353",
"R 	c #515151",
"S 	c #4A4A4A",
"T 	c #494949",
"U 	c #4B4B4B",
"V 	c #565656",
"W 	c #505050",
"X 	c #4D4D4D",
"Y 	c #6C6B69",
"Z 	c #4E4E4E",
"` 	c #4C4C4C",
" .	c #676563",
"..	c #525252",
"+.	c #F4C683",
"@.	c #8E7A62",
"#.	c #565655",
"$.	c #D4AE77",
"%.	c #D4AD77",
"&.	c #666461",
"*.	c #4F4F4F",
"=.	c #8E7A61",
"-.	c #B29775",
";.	c #B29B7B",
">.	c #B99F7E",
",.	c #F8D4A0",
"'.	c #BAA07F",
").	c #B39C7C",
"!.	c #B3956D",
"~.	c #484848",
"{.	c #4C4B4C",
"].	c #4B4A4C",
"^.	c #38363C",
"/.	c #3C3B3F",
"(.	c #3B3A3E",
"_.	c #3F3E43",
":.	c #BBA181",
"<.	c #4C4B4D",
"[.	c #343239",
"}.	c #3F3D43",
"|.	c #BAA080",
"1.	c #4A4A4C",
"2.	c #4A494B",
"3.	c #B6967E",
"4.	c #F2B683",
"5.	c #B79581",
"6.	c #F1B183",
"7.	c #B6947F",
"8.	c #F6C384",
"9.	c #777677",
"0.	c #B69B78",
"a.	c #B29672",
"b.	c #3F3E41",
"c.	c #36343A",
"d.	c #616162",
"e.	c #B39773",
"f.	c #4B4B4D",
"g.	c #37353B",
"h.	c #36353B",
"i.	c #3F3F41",
"j.	c #3F3F42",
"k.	c #37363C",
"l.	c #B2946C",
"m.	c #B49875",
"n.	c #403F42",
"o.	c #414143",
"p.	c #B2946B",
"q.	c #39373D",
"r.	c #3D3C3F",
"s.	c #3D3B3F",
"t.	c #3A393E",
"u.	c #3A383D",
"v.	c #474748",
"w.	c #484748",
"x.	c #36343B",
"y.	c #48474A",
"z.	c #454546",
"A.	c #464647",
"B.	c #474647",
"C.	c #424143",
"D.	c #4C4C4D",
"E.	c #3E3D40",
"F.	c #35333A",
"G.	c #EBC083",
"H.	c #8C8174",
"I.	c #545455",
"J.	c #39383D",
"K.	c #444445",
"L.	c #434344",
"M.	c #4B4B4C",
"N.	c #444345",
"O.	c #49494B",
"P.	c #464547",
"Q.	c #484849",
"R.	c #454446",
"S.	c #454547",
"T.	c #555557",
"U.	c #A78C69",
"V.	c #8F8477",
"W.	c #434245",
"X.	c #4E4E4D",
"Y.	c #444346",
"Z.	c #434345",
"`.	c #5B5B5D",
" +	c #CAA675",
".+	c #CDAB7C",
"++	c #727271",
"@+	c #4B4A4B",
"#+	c #434244",
"$+	c #484749",
"%+	c #7F7263",
"&+	c #E8BD7E",
"*+	c #8B8074",
"=+	c #474648",
"-+	c #585859",
";+	c #A98E6B",
">+	c #CCAA7C",
",+	c #64605D",
"'+	c #C0A27A",
")+	c #65615D",
"!+	c #BFA178",
"~+	c #605C58",
"{+	c #D1AC79",
"]+	c #666665",
"^+	c #877660",
"/+	c #C6A372",
"(+	c #5B5A58",
"_+	c #9C8465",
":+	c #E1B77B",
"<+	c #7A6D5E",
"[+	c #9B8468",
"}+	c #958064",
"|+	c #7D695D",
"1+	c #8A7264",
"2+	c #86745F",
"3+	c #CCA978",
"4+	c #AE9471",
"5+	c #AE997D",
"6+	c #AC987B",
"7+	c #AC977B",
"8+	c #AB9679",
"9+	c #AB9474",
"0+	c #AB8F6A",
"a+	c #AA8E69",
"b+	c #AC906A",
"c+	c #EEC280",
"d+	c #EBBF7F",
"e+	c #E7BC7E",
"f+	c #96836D",
"g+	c #7C7268",
"h+	c #877A6B",
"i+	c #716C66",
"j+	c #9A8467",
"k+	c #BD9D70",
"l+	c #D9B27B",
"m+	c #C2A277",
"n+	c #9A856C",
"o+	c #C0A074",
"p+	c #C0A075",
"q+	c #BC9174",
"r+	c #DFA67D",
"s+	c #86766C",
"t+	c #7B706A",
"u+	c #615E5B",
"v+	c #D1AC77",
"w+	c #B09571",
"x+	c #AC916C",
"y+	c #EEC180",
"z+	c #CAA778",
"A+	c #6B6B6A",
"B+	c #716960",
"C+	c #9A876F",
"D+	c #B58C71",
"E+	c #B78F75",
"F+	c #957D6F",
"G+	c #676766",
"H+	c #60605F",
"I+	c #C19F71",
"J+	c #F8D197",
"K+	c #D0AC7A",
"L+	c #8C7C6A",
"M+	c #636160",
"N+	c #6B6866",
"O+	c #7F7569",
"P+	c #C3A275",
"Q+	c #A68E6F",
"R+	c #646362",
"S+	c #666462",
"T+	c #B88E73",
"U+	c #C69777",
"V+	c #C29776",
"W+	c #D7B07B",
"X+	c #E9BE7F",
"Y+	c #AF9471",
"Z+	c #696968",
"`+	c #E1B77C",
" @	c #F0C381",
".@	c #DFB67C",
"+@	c #79726B",
"@@	c #756D63",
"#@	c #CEAB79",
"$@	c #BA9B70",
"%@	c #BA9A6F",
"&@	c #C9A674",
"*@	c #E1B87E",
"=@	c #766F67",
"-@	c #937F66",
";@	c #D7B078",
">@	c #F3C682",
",@	c #F5C783",
"  . + @ @ @ @ @ @ @ @ @ @ @ # # $ % & * @ @ @ @ @ @ @ @ @ @ @ @ @ @ @ @ @ @ @ @ @ @ @ @ @ @ @ @ @ @ @ @ @ @ @ @ @ @ @ @ @ @ = - ",
"  ; @ @ @ @ @ @ @ # > , ' ' ) ! ~ & { @ @ @ @ @ @ @ @ @ @ @ @ @ @ @ @ @ @ @ @ @ @ @ @ @ @ @ @ @ @ @ @ @ @ @ @ @ @ @ @ @ @ @ ] ^ ",
"  / # # # # # # # ( _ : < ' # @ # # @ # # # # # # # # @ @ @ @ # # # @ @ @ @ @ # # # # # # # # # # # # # # # # # # # # # # # [ } ",
"  | ' ' ' ' ' ' 1 2 3 ) 4 5 6 ' ' 4 % 6 ' ' ' ' ' ' ' 7 % % 8 ' ' ' 8 ~ # 5 7 ' ' ' ' ' ' ' ' ' 4 ' ' ' ' ' ' ' ' ' ' ' ' ' 9 0 ",
"  | ' ' ' ' ' ' 3 a b c ! ' ' ' ' ' ' ' ' ' ' ' ' ' ' ' ' ' ' ' ' ' ' ' ' ' ' ' ' ' ' ' ' ' ' ' ' ' ' ' ' ' ' ' ' ' ' ' ' ' d 0 ",
"  | ' ' ' ' ' 1 e f , < ' ' ' ' ' ' ' ' ' ' ' ' ' ' ' ' ' ' ' ' ' ' ' ' ' ' ' ' ' ' ' ' ' ' ' ' ' ' ' ' ' ' ' ' ' ' ' ' ' ' d 0 ",
"  | ' ' ' ' ' , 3 c ' ' ' ' ' ' ' ' ' ' ' ' ' ' ' ' ' ' ' ' ' ' ' ' ' ' ' ' ' < ' ' ' ' ' ' ' ' ' ' ' ' ' ' ' ' ' ' ' ' ' ' g h ",
"  | ' ' ' 1 i : c ' ' ' ' ' ' ' ' ' ' ' ' ' ' ' ' ' ' ' ' ' ' ' ' ' ' ' ' ' ' i < ' ' ' ' ' ' ' ' ' < ' ' ' ' ' ' ' ' ' ' i j h ",
"  | ' ' 1 k c 1 ' < ' < < i ) ' ' ' < < ) ) ' ' < ' < ' < 1 ' ' ' ' ' ' ' ' ' , 1 < < < ' 1 ' ' < 1 i < ' ' < ' ' < < ' < , j h ",
"  | 1 c k k l < 1 , c k k c ' ' < ) , , k k c c , c k c k c ) < < i , c 1 < c m k , k , c 1 i c , , c ) i c , c c k , c , k j h ",
"  n o o o o c l o o o o ( l k k o o o o o o o o o o o o o l k l o o o o o o p e m l o o o o o b q q q ( o o o o o o o o o ( r h ",
"  s t u a a a a a a a a a a a a a a a a v w w w w w w w x x x y a x x x v w z m A w w w y a a a a a a a a a a a a a a a a B C D ",
"    E F 5 5 5 5 5 5 5 5 5 5 5 5 5 5 5 ! G : : : : : : : w w w A a A w w p : q q G : : : , > 5 5 5 5 5 5 5 5 5 5 c o i 5 5 H     ",
"    I J { K $ L $ $ 5 > K K $ K ~ $ 5 p f G l l l l l l m p m ( : ( p f G l k k l l l l ( K M M $ $ $ $ K K $ $ > 6 $ $ 6 N     ",
"    I O 1 k i ' i ) ' 7 6 < c 6 6 ' ( 3 f l k k k k k k m f ( k l o f G b k k k k k k k ( < < ' ' ' < i ' ) ) < ' c k i G P     ",
"    I O 1 k , i c , 7 ) ' i k i i 1 ( 3 f k k k k q m p b p ( l l ( f ( : z f o k k k k ( < 1 ' ' < , , c , k c ' , l , G P     ",
"    I O 1 k k 1 , k 1 k ) i k c , k ( 3 f k k o A b k q 2 2 ( o l ( : Q p ( , m : k k k ( < k i ' c k k , , k k c l c k G P     ",
"    I O 1 k k k k k k k k , k k k k ( 3 f k : p b 2 R S T U V f q 3 W T S X Q p b A o k ( < k k , k k k o c k k k o c k G P     ",
"    I Y k k k k k k k k k k k k k k ( 3 f : b m X T T S Z U T ` W S T X Z ` T S a b p o ( i k k k k k l k , k k l , k k : P     ",
"    I  .: : : : : : : : : : : : : : m y m q a S T ` R Q e e W U T X ..e e e R Z S X f p f : : : : : : : z G : : z q : : 3 P     ",
"    +.@.A m m m 3 3 z z m z w w V _ _ e q a S S R e e e e e e e Q e e e ..e _ e R S X b y y A m m m m z w z m z z A w y #.$.    ",
"      %.&.q b b p 3 m z m w w V e e e 2 f X T *.e e e e e e e e e e e e W y V e e R S a p x : b G : b b b q p w w x _ e =.+.    ",
"        -.3 3 3 3 m p p p m 3 : v e _ A X T X e e e e e e e e e e e e e e 2 W a e e R S V v V 3 A m A p p p p A m A x e ;.      ",
"        >.q l ( k 5 L < L ! k o l v v V T S e e e e e e e e e e e e e e e e a _ e e e X X z f o o l 1 L 7 4 L 1 l b ( v ;.,.    ",
"        '.k l k 5 5 6 5 ! ! ! k l G 2 X T *.e e R e e e e e e e e e *.e e e e e e e e Q S a , o k i K 6 8 % ' 7 1 k o o ).,.    ",
"        '.o k 5 > 1 i 4 % 1 ! ' k b Q T S e e e W Q ..e e R e Z e e *.e e W Q e e Q *.R T W c l 1 ~ 4 c < 5 6 i 7 c l b ).      ",
"        >.o 1 > 1 ! < o 6 ( , ' c ( R T U ..` W Z W X ` W Z *.S ` W U ` *.` X ..Z U U U T X k k ! 4 , 8 , c i ( ) ' k G !.      ",
"        '.k ) 5 ( 7 i l < o o ! k k R ~.T T T T T T T T T T T T T T T T T T T T T T T T T {.) k % i , 7 , , ) b i ) k ( !.      ",
"        '., , i ' 1 < % i < 6 , l k ].^././././././././././././././././././././././././.(._.4 k c ' 7 k 7 7 l 7 ' ( k l !.      ",
"        :.6 k ( ! 5 o o o 5 ! ( k 1 <.[.[.[.[.[.[.[.[.[.[.[.[.[.[.[.[.[.[.[.[.[.[.[.[.[.[.}.~ k l c % < ( ( < % c l k ! !.      ",
"        |.8 k l c % < k ' 8 , l k ' 1.[.[.[.[.[.[.[.[.[.[.[.[.[.[.[.[.[.[.[.[.[.[.[.[.[.[._.> < k ( ! 5 k k 5 ! o k < i !.      ",
"        '.4 < k o ! 5 l 5 6 o k < ) 2.[.[.[.[.[.[.[.[.[.[.[.[.[.[.[.[.[.[.[.[.[.[.[.[.[.[._.% 8 k l c % ' < % c l k 8 c !.      ",
"        '.' ! k l c % 8 8 c l k 8 c 2.[.[.[.[.[.[.[.[.[.[.[.[.[.[.[.[.[.[.[.[.[.[.[.[.[.[._.8 ! ) k ( 6 5 5 6 o k < 4 c !.      ",
"        |.) o c L , 6 > 6 ( ! , c l 2.[.[.[.[.[.[.[.[.[.[.[.[.[.[.[.[.[.[.[.[.[.[.[.[.[.[._.8 k l ! 8 c 8 % c c < c , , !.      ",
"        '.l c $ % ' < % c ' % 7 , q 2.[.[.[.[.[.[.[.[.[.[.[.[.[.[.[.[.[.[.[.[.[.[.[.[.[.[._.4 o ! K ! c > 6 c ! 5 < o o !.      ",
"        3.o ) % , l > 4 ( l < 4 c o 1.[.[.[.[.[.[.[.[.[.[.[.[.[.[.[.[.[.[.[.[.[.[.[.[.[.[._.' k % < ( i > 1 l k 6 6 k q !.      ",
"      4.5.' k i i ! 5 1 l < 5 1 l c <.[.[.[.[.[.[.[.[.[.[.[.[.[.[.[.[.[.[.[.[.[.[.[.[.[.[.}.$ k k 6 i 8 8 l c 7 8 o k ' !.      ",
"      6.7.% k l 4 4 i ( i 4 4 l k 6 2.[.[.[.[.[.[.[.[.[.[.[.[.[.[.[.[.[.[.[.[.[.[.[.[.[.[._.> 6 l ) 7 7 o l 4 7 ) l ' ) !.      ",
"      8.7.! ! k o k c l , ( o k 4 1 2.[.[.[.[.[.[.[.[.[.[.[.[.[.[.[.[.[.[.[.[.[.[.[.[.[.[._.% 7 1 l ( 1 o 1 ( ( l 1 7 c !.      ",
"        '.< k k k 7 ! o 6 7 k k i , 2.[.[.[.[.[.[.[.[.[.[.[.[.[.[.[.[.[.[.[.[.[.[.[.[.[.[._.9.1 k k ) 8 1 ) 4 ) k c ' c !.      ",
"        |.1 l k i 8 , o c 8 ) k l ( 2.[.[.[.[.[.[.[.[.[.[.[.[.[.[.[.[.[.[.[.[.[.[.[.[.[.[._.8 l k k 7 6 ( ( 6 7 k k l , !.      ",
"        '.o k k 7 6 ( k ( 6 7 k k q 2.[.[.[.[.[.[.[.[.[.[.[.[.[.[.[.[.[.[.[.[.[.[.[.[.[.[.}.6 l k ) 8 c l l c 8 ) k l ( !.      ",
"        0.o k ) 8 c k c l c 8 ) k ( 2.[.[.[.[.[.[.[.[.[.[.[.[.[.[.[.[.[.[.[.[.[.[.[.[.[.[.^.z k k 7 6 ( , , ( 6 7 k k G !.      ",
"        a.k k 8 6 o 5 K ! ( 6 7 k k ].[.[.[.[.[.[.[.[.[.[.[.[.[.[.[.[.[.[.[.[.[.[.[.[.[.[.^.p k ) 8 c ) K % c c 8 ) k ( !.      ",
"        a.k ) 8 c 4 > < 5 6 c 8 1 k ].[.[.[.[.[.[.[.[.[.[.[.[.[.[.[.[.[.[.[.[.[.[.[.[.[.[.^.f k 7 6 l L 4 4 % k 6 8 k ( !.      ",
"        a.k ) % ( i ) ( i i o % 1 k ].[.[.[.[.[.[.[.[.[.[.[.[./.b.b.b.c.[.[.[.[.[.[.[.[.[.^.d.k 8 ) l ' l k ' l ) 7 k ( !.      ",
"        e.i c i ' 1 ) 5 8 ( i k k c f.[.[.[.[.[.[.g.g.h.[./.b.i.i.j.h.[.[.[.[.[.[.[.[.[.[.k.l k ) < ' , 6 > ) o < o k , l.      ",
"        m.! k o < 5 L 5 o i i o k 1 f.[.[.[.[.c.^.n.n.n.n.i.o.b.b.o.i.i.c.[.[.[.[.[.[.[.[.k.1 , k l 8 8 L ' o 4 l k , 1 p.      ",
"        e.% , k o ) < l c ) o k , ' 2.[.[.[.[.q.r.s./.b.t.u.v.o.w.v.u.k.^.^.x.[.[.[.[.[.[.k.o ! k k l < ) o i l k k ! l p.      ",
"        e.6 7 1 k o o l o o k 1 7 f y.[.[.[.[.[.[.(.n.z.A.B.T C.w.D.v.A.E./.t.(.F.[.[.[.[.k.b 4 ' , l o o o o l , ' 4 f p.      ",
"      G.H.) i ! 4 c l l l c 7 7 1 w I.J.[.[.t.(.o.b.K.z.L.A.M.N.O.K.v.P.N.L.C.Q.R.S.F.[.F.T.o ) ' 4 6 l l k c 4 4 6 k 2 U.D     ",
"    } V.# 5 8 6 7 l l k 1 1 ) ( 3 A c G ^.J.W.P.K.T T T U X.Y.Z R R W *.S T T N.n.Z.L.g.`.~ $ 5 5 5 8 1 1 ) ) 8 k q w 3 l  +    ",
"    .+++5 K K % L K K K K K K 5 % % 5 q @+M.D.v.` ` R W R ` z.R ....W Q W *.U ` #+S.M.$+1 6 $ K K K K K K K ! , 5 % % % ) %+&+  ",
"  +.*+' , ' ' ) 7 ' ' ' ' ' ' ' ' ' c w R K.=+R R *.....R R 2 R R R {.e ..R Q Q *.X A.-+' i 1 ' ' ' ' ' ' ' ) G , 6 ' ' f m ;+D ",
"  >+++) 1 ' < c 1 ' ' ' ' ' ' ' ' ' ' f y X W ....e e e e V y e e e .._ _ e e Q *.` *.1 ' , ' ' ' ' ' ' ' ' ' b ' ' ' ' 1 3 ,+h ",
"  '+' k ' ' ) ) , < ' ' ' ' ' ' ' ' ' , _ ` U U ` R R ..y x 2 y a R ..W x y V Z U U U < < , ' ' ' ' ' ' ' ' ' o i ' ' ' ' A )+h ",
"  !+< , ' ' , ' ) 1 ' ' ' ' ' ' ' ' ' i V X X X w v e ....2 y ......Q Q Q y x x Q ..e ) c < ' ' ' ' ' ' ' ' ' ) i ' ' ' ' l ~+h ",
"  {+]+G q f f q f q q q q q q q G p p m ^+/+(+w A 3 _+:+<+v y 2 [+U.}+x x y _ |+1+A _ f G q q q q q q q q q q q q p p p p w 2++.",
"    3+4+5+6+7+8+8+8+9+0+0+0+0+0+0+a+a+b+c+  d+e+f+( g+h+i+A j+k+l+m+n+o+p+q+r+s+t+f u+v+w+4+4+4+4+4+x+0+0+0+0+0+0+a+a+a+a+b+y+  ",
"          ,.,.,.,.                            D z+A+( ( : B+e+  C+l o l o : D+E+F+G+H+I+                                        ",
"            ,.,.J+                              D K+L+M+m N+O+f+P+Q+R+S+R+3 T+U+V+W+y+h                                         ",
"                                                    h X+Y+Z+b b p `+ @ @.@+@l ( b @@+.                                          ",
"                                                        D #@$@%@&@D       *@n =@-@;@                                            ",
"                                                                              >@,@                                              "};
