/* XPM */
static char * exit3_xpm[] = {
"64 64 317 2",
"  	c #F8C984",
". 	c #F2C584",
"+ 	c #C7AA83",
"@ 	c #C6A881",
"# 	c #C5A881",
"$ 	c #C6A882",
"% 	c #D9B582",
"& 	c #C6AA87",
"* 	c #7F7F7F",
"= 	c #7E7E7E",
"- 	c #7C7C7C",
"; 	c #7D7D7D",
"> 	c #797979",
", 	c #747474",
"' 	c #757575",
") 	c #7A7A7A",
"! 	c #848484",
"~ 	c #808080",
"{ 	c #82817F",
"] 	c #F1C484",
"^ 	c #C2A683",
"/ 	c #707070",
"( 	c #616161",
"_ 	c #5E5E5E",
": 	c #6B6B6B",
"< 	c #6F6F6F",
"[ 	c #807F7E",
"} 	c #F1C483",
"| 	c #BB9E77",
"1 	c #767676",
"2 	c #595959",
"3 	c #6D6D6D",
"4 	c #727272",
"5 	c #787878",
"6 	c #7B7B7B",
"7 	c #777777",
"8 	c #6F6E6D",
"9 	c #F0C382",
"0 	c #717171",
"a 	c #5F5F5F",
"b 	c #555555",
"c 	c #666666",
"d 	c #737373",
"e 	c #6A6968",
"f 	c #6C6C6C",
"g 	c #606060",
"h 	c #6A6A6A",
"i 	c #5A5A5A",
"j 	c #686766",
"k 	c #F0C381",
"l 	c #696969",
"m 	c #6E6E6E",
"n 	c #62605F",
"o 	c #615F5E",
"p 	c #636363",
"q 	c #BB9D76",
"r 	c #5D5D5D",
"s 	c #5C5C5C",
"t 	c #676767",
"u 	c #D5AF7B",
"v 	c #65615E",
"w 	c #5B5B5B",
"x 	c #605F5D",
"y 	c #8E7C65",
"z 	c #F4C682",
"A 	c #E8BD80",
"B 	c #686868",
"C 	c #626262",
"D 	c #565656",
"E 	c #646464",
"F 	c #A88E6B",
"G 	c #F5C783",
"H 	c #EDC181",
"I 	c #656565",
"J 	c #AC906D",
"K 	c #AA8F6B",
"L 	c #585859",
"M 	c #5B5A5B",
"N 	c #4B4A4C",
"O 	c #3F3E42",
"P 	c #35333A",
"Q 	c #505051",
"R 	c #606061",
"S 	c #5A5A5B",
"T 	c #414044",
"U 	c #39373D",
"V 	c #403F43",
"W 	c #565657",
"X 	c #343239",
"Y 	c #3B3A3F",
"Z 	c #454447",
"` 	c #36343A",
" .	c #39383D",
"..	c #4C4B4D",
"+.	c #4D4D4F",
"@.	c #353339",
"#.	c #AA8F6A",
"$.	c #796C5E",
"%.	c #575757",
"&.	c #3C3A3F",
"*.	c #5E5E5F",
"=.	c #C09E70",
"-.	c #C3A172",
";.	c #545454",
">.	c #5D5D5E",
",.	c #38363C",
"'.	c #48484A",
").	c #585858",
"!.	c #756C60",
"~.	c #EFC281",
"{.	c #F7C883",
"].	c #A18B6F",
"^.	c #4B4B4D",
"/.	c #A38F74",
"(.	c #F8D4A0",
"_.	c #B0997C",
":.	c #4A494B",
"<.	c #38373D",
"[.	c #5A595A",
"}.	c #B09A7D",
"|.	c #49484B",
"1.	c #A49076",
"2.	c #474649",
"3.	c #38373C",
"4.	c #676768",
"5.	c #3F3D42",
"6.	c #333138",
"7.	c #636364",
"8.	c #3E3D41",
"9.	c #A48A69",
"0.	c #B19A7E",
"a.	c #323038",
"b.	c #6E6E6F",
"c.	c #B39C81",
"d.	c #747374",
"e.	c #B29B7F",
"f.	c #707071",
"g.	c #6F6F70",
"h.	c #B19B7F",
"i.	c #AD917C",
"j.	c #6C6C6D",
"k.	c #F2B683",
"l.	c #AF9280",
"m.	c #F1B183",
"n.	c #AE907E",
"o.	c #F6C384",
"p.	c #AD8F7E",
"q.	c #6A6A6B",
"r.	c #AB9274",
"s.	c #535354",
"t.	c #A89070",
"u.	c #565556",
"v.	c #555556",
"w.	c #36343B",
"x.	c #3F3F41",
"y.	c #3C3B3F",
"z.	c #AA9273",
"A.	c #37363B",
"B.	c #35343A",
"C.	c #3F3E41",
"D.	c #5C5C5D",
"E.	c #A38967",
"F.	c #3E3D40",
"G.	c #403F42",
"H.	c #434244",
"I.	c #404042",
"J.	c #464647",
"K.	c #414042",
"L.	c #3B3A3E",
"M.	c #A38966",
"N.	c #A99171",
"O.	c #37353B",
"P.	c #3F3F42",
"Q.	c #3D3C40",
"R.	c #444445",
"S.	c #464646",
"T.	c #434345",
"U.	c #494949",
"V.	c #454445",
"W.	c #343339",
"X.	c #A89071",
"Y.	c #414143",
"Z.	c #474748",
"`.	c #414043",
" +	c #464648",
".+	c #464547",
"++	c #3A383D",
"@+	c #D4B182",
"#+	c #797775",
"$+	c #3A383E",
"%+	c #444346",
"&+	c #454547",
"*+	c #484849",
"=+	c #484848",
"-+	c #494849",
";+	c #4E4E4E",
">+	c #4C4C4D",
",+	c #4C4C4C",
"'+	c #4A4A4A",
")+	c #4D4D4D",
"!+	c #4B4B4B",
"~+	c #444446",
"{+	c #5D5C5E",
"]+	c #887763",
"^+	c #ECC082",
"/+	c #777573",
"(+	c #4F4F4F",
"_+	c #505050",
":+	c #424144",
"<+	c #4C4B4F",
"[+	c #B59B79",
"}+	c #474749",
"|+	c #464548",
"1+	c #4E4E4F",
"2+	c #515151",
"3+	c #535353",
"4+	c #666566",
"5+	c #CFAA76",
"6+	c #747371",
"7+	c #897864",
"8+	c #F3C582",
"9+	c #BDA07A",
"0+	c #525252",
"a+	c #5F5E5C",
"b+	c #5E5D5B",
"c+	c #BA9C75",
"d+	c #676057",
"e+	c #5D5853",
"f+	c #75695B",
"g+	c #6F6559",
"h+	c #565655",
"i+	c #E6BC7F",
"j+	c #7D7267",
"k+	c #68615A",
"l+	c #DBB379",
"m+	c #CEA975",
"n+	c #968066",
"o+	c #978166",
"p+	c #64625F",
"q+	c #63605C",
"r+	c #D0AB78",
"s+	c #C8A575",
"t+	c #60605F",
"u+	c #9F8767",
"v+	c #E0B77D",
"w+	c #C6A474",
"x+	c #A08869",
"y+	c #9A8469",
"z+	c #947866",
"A+	c #7F6B60",
"B+	c #B58C71",
"C+	c #646362",
"D+	c #877662",
"E+	c #756E66",
"F+	c #B3956C",
"G+	c #F6C883",
"H+	c #ECC080",
"I+	c #E2B97E",
"J+	c #E2C295",
"K+	c #E2C294",
"L+	c #E1C194",
"M+	c #E1BF8C",
"N+	c #E1B87B",
"O+	c #E1B87C",
"P+	c #E8BD7E",
"Q+	c #E3BA7E",
"R+	c #716E6A",
"S+	c #7E7163",
"T+	c #E2B87C",
"U+	c #96856F",
"V+	c #706C68",
"W+	c #91806C",
"X+	c #98856E",
"Y+	c #96836B",
"Z+	c #B88E73",
"`+	c #BB9176",
" @	c #9D8568",
".@	c #EABF80",
"+@	c #E2B87D",
"@@	c #CEAB7A",
"#@	c #6B6A68",
"$@	c #AA906D",
"%@	c #D6B07A",
"&@	c #99866E",
"*@	c #867164",
"=@	c #E6AA80",
"-@	c #DDA57E",
";@	c #A68570",
">@	c #A68D6C",
",@	c #B5966D",
"'@	c #F8D197",
")@	c #E9BE80",
"!@	c #AD926C",
"~@	c #867664",
"{@	c #7F7468",
"]@	c #AB9170",
"^@	c #BA9B70",
"/@	c #AB906C",
"(@	c #6B6662",
"_@	c #787068",
":@	c #87756B",
"<@	c #907A6B",
"[@	c #EBBF80",
"}@	c #F2C582",
"|@	c #C6A577",
"1@	c #636261",
"2@	c #5F5F5E",
"3@	c #BB9C70",
"4@	c #D8B27C",
"5@	c #736F6B",
"6@	c #696968",
"7@	c #6B665F",
"8@	c #E0B77C",
"9@	c #F7C884",
"0@	c #F1C482",
"a@	c #D7B17B",
"b@	c #BB9B6F",
"  . + @ @ @ @ @ @ @ @ @ @ @ @ @ # # $ @ @ @ @ @ @ @ @ @ @ @ @ @ @ @ @ @ @ @ @ @ @ @ @ @ @ @ @ @ @ @ @ @ @ @ @ @ @ @ @ @ @ %     ",
"  & * * * * * * * * = - ; > , ' ) = ! ~ * * * * * * * * * * * * * * * * * * * * * * * * * * * * * * * * * * * * * * * * * { ]   ",
"  ^ * * * * * * * / ( _ : < > = * * * * * * * * * * * * * * * * * * * * * * * * * * * * * * * * * * * * * * * * * * * * * [ }   ",
"  | 1 1 1 1 1 1 ' 2 2 3 4 1 5 1 1 6 - 1 1 1 1 1 1 1 7 ; ; ; 5 1 1 5 = * = ; 7 1 1 1 1 1 1 1 1 > 7 1 1 1 1 1 1 1 1 1 1 1 1 8 9   ",
"  | 0 0 0 0 0 0 a b c 3 1 d 0 0 0 0 0 0 0 0 0 0 0 0 0 0 0 0 0 0 0 0 d 1 , 0 0 0 0 0 0 0 0 0 0 0 0 0 0 0 0 0 0 0 0 0 0 0 0 e 9   ",
"  | 0 0 0 0 0 f b g h < 0 0 0 0 0 0 0 0 0 0 0 0 0 0 0 0 0 0 0 0 0 0 0 0 0 0 0 0 0 0 0 0 0 0 0 0 0 0 0 0 0 0 0 0 0 0 0 0 0 e 9   ",
"  | 0 0 0 0 0 h i h < 0 0 0 0 0 0 0 0 0 0 0 0 0 0 0 0 0 0 0 0 0 0 0 0 0 0 0 0 0 0 0 0 0 0 0 0 0 0 0 0 0 0 0 0 0 0 0 0 0 0 j k   ",
"  | 0 0 0 < / ( l 0 0 0 0 0 0 0 0 0 0 0 0 0 0 0 0 0 0 0 0 0 0 0 0 0 0 0 0 0 0 m 0 0 0 0 0 0 0 0 0 0 0 0 0 0 0 0 0 0 0 0 / n k   ",
"  | 0 0 < h m h 0 0 0 0 0 / / 0 0 0 0 / / 0 0 0 0 0 0 0 / < 0 0 0 0 0 0 0 0 / 3 0 0 0 0 / / 0 0 < 3 0 0 0 0 0 0 0 0 0 0 3 o k   ",
"  | < m h h l 0 < 3 m : : f 0 0 0 < 3 f h f m m 3 3 3 f : m / 0 0 < 3 m 0 / : p m : f < 3 0 < 3 f m m 0 < 3 m m f 3 m 3 : o k   ",
"  q h h h h m : h h h h l m m f : h h h h h h h h h h h h f 3 : : h h h : h r s h h h h h : l t t t l : h h h h h h h h l o k   ",
"  u v r r r _ r r r r r r r r r r r r r _ _ _ _ _ _ _ _ r r r r r r r r _ r w w _ _ _ r r r r r r r r r r r r r r r r r x y z   ",
"    A f f f f f f f f f f f f f f f f B C C C C C C C ( w w r D s s s s C p p p C C C E f f f f f f f f f f f p C ( f f F G     ",
"    H 1 ! ~ = = = = 6 = * = = * = = 6 g p I t t t t t I g s C a I C g r c B h h t t t c > ! ! * = = = = * = = - 0 = = ) J       ",
"    H f 3 : / 0 / / , 4 , < < ' d / I s E l h h h h h B p C B c B t p ( h h h h h h h l m 0 4 0 0 0 / 0 4 / / 0 3 : 0 c K       ",
"    H f f h f / : 3 1 < 0 3 : 0 / 3 I s I h h h h B C a c C t < t t C ( g I B h h h h l m 3 0 0 0 3 3 f 3 h f 0 f B f E K       ",
"    H f f h h < : : m h / 3 h 3 h h I s I h h t a E B l L C t B l t 2 g : t g C h h h l m f m 0 < h h : : h h f : : : E K       ",
"    H f f h h h h h h h : : h h h h I s I h C C t M N O P Q R c I S T U V W R t a t h l m f : f h h h t 3 h h h B f h E K       ",
"    H : : h h h h h h h h h h h h h I s I C c _ V X X X X X Y Q Z ` X X X X  ...c p t l 3 : h h h h h B f h h h l f h E K       ",
"    H E I I I I I I I I I I I I I I a w g I +. .X X X X X X X X X X X X X X X @.O _ p E E I I I I I I C c I I C c I I a #.      ",
"    k $._ _ _ _ s r _ _ _ _ s w %.%.%.D c +.P X X X X X X X X X X X X X X X X X X &.*.g %.r _ _ _ _ _ s r _ _ r _ s w D =.      ",
"      -.C c t t a _ g a C r s %.;.;.;.r >.,.X X X X X X X X X X X X X X X X X X X X '.I ).p c c E t t c c E r r s %.D !.~.      ",
"      {.].r r r r a g g _ r r g D ;.%.w &.X X X X X X X X X X X X X X X X X X X X X @.^.r b s r a r g g g a r r _ 2 ;./.(.      ",
"        _.E l t l 7 7 < 5 < l B t D r :.X X X X X X X X X X X X X X X X X X X X X X X <.[.g I l B h ' 1 / 5 3 l c c i /.(.(.    ",
"        }.l l h > 5 ' 5 d ' < h l a D U X X X X X X X X X X X X X X X X X X X X X X X X |.t l l : ) 1 1 5 d ' m h l B 1.(.(.    ",
"        }.B h > > f < 7 ' m ' m h C 2.X X X X X X X X X X X X X X X X X X X X X X X X X 3.4.B h ) 5 : < 7 , m ' 3 l B 1.(.      ",
"        _.B < > f , < l d c 3 0 h p 5.X X X X X X X X X X X X X X X X X X X X X X X X X 6.7.l m 5 : ' m h 4 c m 0 h I 1.        ",
"        }.h / 7 t 1 3 B / t h 4 h c 8.X X X X X X X X X X X X X X X X X X X X X X X X X 6.c h 4 ' t 1 f l / c f 0 h B 9.        ",
"        0.: f 0 / : d 7 3 4 / B h t 8.X X X X X X X X X X X X X X X X X X X X X X X X X a.b.h f 0 d h , 7 : d 0 B h h 9.        ",
"        c./ h B , 1 t B h 5 / B h h 8.X X X X X X X X X X X X X X X X X X X X X X X X X a.d.m h B ' ' t B : 5 < B h , 9.        ",
"        e.' h B < 5 f h ' ' l h f : 8.X X X X X X X X X X X X X X X X X X X X X X X X X a.f., h B / 5 : h 1 , B h m 4 9.        ",
"        0.' m h B d 1 h 5 0 B h , t 5.X X X X X X X X X X X X X X X X X X X X X X X X X a.g.1 3 h B , ' f 5 < B h ' m 9.        ",
"        0.4 0 h B < 5 1 , l h f 1 I 5.X X X X X X X X X X X X X X X X X X X X X X X X X a.g.4 / h B / > 7 d B h m ' 3 9.        ",
"        h.3 l 3 ) h d > 0 B d : : E 5.X X X X X X X X X X X X X X X X X X X X X X X X X a.g.f l < ) h , > < h 4 : : 3 9.        ",
"        }.B 3 - ' < ' , h 4 5 d l ( 5.X X X X X X X X X X X X X X X X X X X X X X X X X a.m B < - , < 7 d h 4 5 4 l B 9.        ",
"        i.l / ' l l ) 4 t l 4 4 h E 5.X X X X X X X X X X X X X X X X X X X X X X X X X a.j.l d , B h ) / t h 4 4 h c 9.        ",
"      k.l./ l 0 < ' 5 h : d 5 h h h 8.X X X X X X X X X X X X X X X X X X X X X X X X X a.d m l 4 < ' 7 l f , 7 l h 4 9.        ",
"      m.n.1 h l , , h B 0 4 0 l m : 5.X X X X X X X X X X X X X X X X X X X X X X X X X a.g.1 h h , , l B 4 d < l / 0 9.        ",
"      o.p.d 4 h B f f : h B l : 1 c 5.X X X X X X X X X X X X X X X X X X X X X X X X X a.g.d 0 h t 3 : f l B l f ' 3 9.        ",
"        0.< l h h 1 0 l d , h h < I 5.X X X X X X X X X X X X X X X X X X X X X X X X X a.g.< l h : 1 / h , d h : / 3 9.        ",
"        h.: l h 4 , B B m 1 : h l p 5.X X X X X X X X X X X X X X X X X X X X X X X X X a.g.h h h , d t B < 1 : h B f 9.        ",
"        }.B h : 1 < B h t d , h h C 5.X X X X X X X X X X X X X X X X X X X X X X X X X 6.q.B h : 1 m l h B , 4 h l t 9.        ",
"        r.B h 4 , l f < l m 1 f h E 5.X X X X X X X X X X X X X X X X X X X X X X X X X X s.l h , d B 3 m B < 1 : h I 9.        ",
"        t.h : 1 < : - > d B d , h t 8.X X X X X X X X X X X X X X X X X X X X X X X X X X u.h f 1 m 3 - 7 0 B , 4 h B 9.        ",
"        t.h / ' l 7 1 m 7 0 3 5 h t 8.X X X X X X X X X X X X X X X X X X X X X X X X X X v.h 4 , B 5 ' < 7 < m 7 h B 9.        ",
"        t.h / , t 3 : h / h l , h c 8.X X X X X X X X X X X w.x.x.x.y.X X X X X X X X X X v.h 4 4 t 3 h : / l : d h B 9.        ",
"        z./ : f ' m 0 6 4 t d B h h 8.X X X X X ,.y.y.A.B.x.C.C.C.y.X X X X X X X X X X X D.m f 3 ' 3 d 6 / B 4 B h < E.        ",
"        z.d h B m 5 6 0 B , l h : h 8.X X X X y.F.G.G.H.x.I.J.F.J.K.x.L.X X X X X X X X X s 4 h B / 5 5 / l , B h f < M.        ",
"        N.1 f h B h : t : l h h 0 c 5.X X X X O.O.A.,.P.Q.R.S.T.U.V.Q.Q.Q.Q.W.X X X X X X L 1 : h B : : t : B h h d f E.        ",
"        X.0 ' 0 h h l h l h : , 4 i O X X X X X @.C.T.Y.Y.Z.Z.`. +.+Y.Q.O.O.F.++W.X X X X L 4 ' / h l l h l h f , 4 ( E.        ",
"      @+#+f f m 4 B t t t 3 , m I 2 S $+X ,.%+&+K.Z.*+=+-+;+H.>+,+'+)+!+=+=+~+'+>+O X X {+f f f < 4 B t l 3 1 4 f B D ]+k       ",
"    ^+/+* = - 7 ) 4 4 , ' ' , c C B ' S 8.`. +Y.=+U.'+'+(+*+J.;.;.;._+)+'+U.=+y.G.J.:+<+5 * = = = = 1 ' ' < , 0 l C E 3 J       ",
"    [+0 4 5 5 d > 5 5 5 5 5 5 7 7 7 m s }+|+2.1+(+2+3+(+;+J.;+(+(+>+;+2+(+)+(+,+H.|+Z 4+0 d 5 5 5 5 5 5 5 ' c , > 7 7 : n 5+    ",
"  ^+6+/ f 0 0 3 ' 0 0 0 0 0 0 0 0 0 h s 2+U.;+(+(+_+;.;.;.%.).;.;.3+3+b ;.;.;.(+;+)+;.0 < f 0 0 0 0 0 0 0 / c t 0 0 0 B _ 7+8+  ",
"  9+0 f < 0 < 3 h 0 0 0 0 0 0 0 0 0 / g ;._+2+3+3+;.;.b D s D D b ;._+).D D ;.0+(+,+t 0 f / 0 0 0 0 0 0 0 0 B < 0 0 0 / a a+k   ",
"  9+0 : 0 0 : / f / 0 0 0 0 0 0 0 0 0 E 2+U.U.'+_+(+(+0+b ).b b _+(+0+3+D %.0+)+!+!+c 0 : 0 0 0 0 0 0 0 0 0 3 3 0 0 0 0 C b+k   ",
"  c+3 h m f h m h 3 m m m m m m m m m B d+e+;.2 p r f+g+b i b b %.;.D ;.D 2 2 %.%.b p f : m m m m m m m m m m 3 m m m m h h+k   ",
"  i+j+p C _ a a s ( a a a a a a w ).).k+l+m+n+o+p+q+r+s+t+s s u+v+w+x+y+y+z+A+B+C+%.D+E+p p p p p ( a a a a a a i ).).).D F+G+  ",
"    H+I+J+J+K+L+L+L+M+N+N+N+N+N+O+O+O+P+      Q+R+B c c p S+T+v+U+V+W+X+Y+Z+`+h t p  @.@I+I+I+I+I++@N+N+N+N+N+N+O+O+O+O+O+G+    ",
"          (.(.(.(.                              @@#@l c r $@%@v+&@l h h I *@=@-@;@>@,@                                          ",
"            (.(.'@                                )@!@~@t t t {@]@^@/@/@(@_@:@:@<@[@                                            ",
"                                                      }@|@j 1@2@3@      4@5@6@I 7@8@                                            ",
"                                                        9@9 k k G+        0@a@b@k                                               ",
"                                                                                                                                "};
