/* XPM */
static char *exit2[] = {
/* columns rows colors chars-per-pixel */
"55 55 192 2 ",
"   c #151315",
".  c #151619",
"X  c #19181A",
"o  c #1D1819",
"O  c #231B1B",
"+  c #291E1D",
"@  c #2D201F",
"#  c #32221F",
"$  c #181C20",
"%  c #1B2126",
"&  c #2D2323",
"*  c #28272B",
"=  c #2D2A2E",
"-  c #332624",
";  c #352827",
":  c #392A27",
">  c #302728",
",  c #322C2D",
"<  c #3B2D2B",
"1  c #3D302E",
"2  c #252E36",
"3  c #2D2D30",
"4  c #252F38",
"5  c #322E30",
"6  c #26313A",
"7  c #363337",
"8  c #3B3333",
"9  c #33353B",
"0  c #3A373A",
"q  c #3D383B",
"w  c #4D2A1C",
"e  c #5B2E16",
"r  c #542E1B",
"t  c #633317",
"y  c #6A3818",
"u  c #713A17",
"i  c #723C19",
"p  c #442F28",
"a  c #41312E",
"s  c #4E3328",
"d  c #523223",
"f  c #51362C",
"g  c #433533",
"h  c #443937",
"j  c #4A3A36",
"k  c #433B3B",
"l  c #4B3D3A",
"z  c #523A33",
"x  c #633A23",
"c  c #693D22",
"v  c #77411B",
"b  c #7E451D",
"n  c #4D413E",
"m  c #53433E",
"M  c #59463E",
"N  c #6C4126",
"B  c #6C432A",
"V  c #764625",
"C  c #7A4724",
"Z  c #7C4926",
"A  c #654837",
"S  c #624A3E",
"D  c #694E3E",
"F  c #2B3843",
"G  c #2A3D4A",
"H  c #373C45",
"J  c #3C3D42",
"K  c #443F40",
"L  c #3E4046",
"P  c #3B424C",
"I  c #2E4453",
"U  c #3D4652",
"Y  c #344857",
"T  c #3E4A55",
"R  c #364C5C",
"E  c #394E5D",
"W  c #3F505F",
"Q  c #364F61",
"!  c #394F60",
"~  c #3A5061",
"^  c #395467",
"/  c #33556B",
"(  c #3C5A6E",
")  c #3D5C71",
"_  c #454143",
"`  c #4A4343",
"'  c #484649",
"]  c #4C494B",
"[  c #534642",
"{  c #554946",
"}  c #5C4A44",
"|  c #534C4B",
" . c #5A4E4B",
".. c #55504F",
"X. c #5A514F",
"o. c #444E57",
"O. c #514F51",
"+. c #49525E",
"@. c #545254",
"#. c #5A5454",
"$. c #5C5857",
"%. c #545559",
"&. c #5A5659",
"*. c #57595F",
"=. c #5C5B5B",
"-. c #664D40",
";. c #6C5141",
":. c #645148",
">. c #735644",
",. c #625653",
"<. c #615856",
"1. c #635D5C",
"2. c #6A5E5B",
"3. c #765F52",
"4. c #5F605F",
"5. c #64605F",
"6. c #7A6557",
"7. c #415565",
"8. c #435B6D",
"9. c #4D5E6D",
"0. c #5B5C61",
"q. c #425E72",
"w. c #4F606F",
"e. c #5F6062",
"r. c #5F6268",
"t. c #436176",
"y. c #4E6373",
"u. c #44657C",
"i. c #48667C",
"p. c #47687F",
"a. c #516575",
"s. c #526878",
"d. c #646363",
"f. c #6A6563",
"g. c #6B6867",
"h. c #636468",
"j. c #6B6B6B",
"k. c #716966",
"l. c #776A65",
"z. c #716C6B",
"x. c #72706F",
"c. c #746F70",
"v. c #6F7070",
"b. c #727372",
"n. c #7B7575",
"m. c #787679",
"M. c #7C7A7D",
"N. c #81471C",
"B. c #83481D",
"V. c #817E7C",
"C. c #3C6B87",
"Z. c #426780",
"A. c #466982",
"S. c #496C84",
"D. c #466E89",
"F. c #496E88",
"G. c #4A728C",
"H. c #537289",
"J. c #50758F",
"K. c #497895",
"L. c #7C7E83",
"P. c #4E82A3",
"I. c #4B86AB",
"U. c #4D89AE",
"Y. c #5184A5",
"T. c #528BAE",
"R. c #4E8CB3",
"E. c #528EB3",
"W. c #4F92BB",
"Q. c #5290B7",
"!. c #5294BD",
"~. c #5197C1",
"^. c #5299C4",
"/. c #549DC9",
"(. c #589EC8",
"). c #56A1CE",
"_. c #56A6D5",
"`. c #58A5D4",
"'. c #56A7D8",
"]. c #57A8D9",
"[. c #59ABDC",
"{. c #5AAEE0",
"}. c #5AB2E6",
"|. c #5BB6EB",
" X c #5CB8EE",
".X c #5CBCF4",
"XX c #5DBFF8",
"oX c #86878A",
"OX c #878B90",
"+X c #8C8E92",
"@X c #94989D",
"#X c #979BA0",
/* pixels */
".X.X.X.X.X.X.X.X.X.X.X.X.X.X.X.X.X.X.X.X.X.X.X.X.X.X.X.X.X.X.X.XXX.X.X.X.X.X.X.X.X.X.X.X.X.X.X.X.X.X.X.X.X.X.X",
".X.X.X.X.X.X.X.X.X.X.X.X.X.X.X.X.X.X.X.XXXXXXXXXXXXX.X.XXX.X.X.XXXXXXXXX.X.X.X.X.X.X.X.X.X.X.X.X.X.X.X.X.X.X.X",
".X.X.X.X.X.X.X.X.X.X.X.X.X.X|. X.X_.`.}.Q.P.I.G.G.S.t.t.p.8.p.u.8.K.Q.^.[..XXXXXXXXX.X.X.X.X.X.X.X.X.X.X.X.X.X",
".X.X.X.X.X.X.X.X.X.X.X.X[.i.T o.8.J 0 U q n 1 m n a ,.M a X.j n X.< j k L 7.S.T./.[..X.X.X.X.X.X.X.X.X.X.X.X.X",
".X.X.X.X.X.X.X.XXX.X!.i.P l k.#.< 1...- 1.d.{ 5.4.M d.4.n 4.M ..5.n f.d.[ l [ < 8 L G.|.XXXXXX.X.X.X.X.X.X.X.X",
".X.X.X.X.X.X.X X!.G.k X.{ { z.5.j $...< 5.5.j $...g 4...n g.n ..@.j @.4.K $.4.[ k.X.; U J.{.XXXX.X.X.X.X.X.X.X",
".X.X.X.X.X.X[.q.h 1 ` b.=.j d.d.a @.5.a @.$.g ....n d.5.n d.j | @.a &.f.j #.1.} j...l $.a P K.]..X.X.X.X.X.X.X",
".X.X.X.X X`.t.l x.5.a ..&.h | 5.a #.j.j ..@.g ' n g =.$.g | j ] ..1 &. .g g.$. .4.n X.j.{ g g q P..X.X.X.X.X.X",
".X.X.X{.A.8 - [ 4.=.` j h.| j @.q h @.1 n L 1 | | : H K ; 9 1 n K 5 ' K j *.`  .O.l f.*.l ,.{ : 7 p.{.XX XXX X",
".X.XXXK.> = >  .#.X.$.j X.&.< K 1 - 8 @ & & @ & & @ & & @ @ @ & & + > ; ; 8 a ] k l c.O.p 1.g = = # w. XXX.XXX",
".X.X[.o.> 3 , z.+X1.&.| < k & + @ . . . .                             . o O + ; ; [ 1.g m.OX` = = 1 ; G.XX.X.X",
".X~.K a = 3 5 g.+X+X..' & o X .   . % 6 % I / I / C.I / C.G Q / 4 F 2 $ .     X O > 5 2.@XoXK 3 = 1 ; , P..X.X",
".Xo.{ $.5 3 , 1.2.oX2.+ X     $ I F C.!./ I._.( U.].) U.'./ R.'.( K.^.Y / I .       > oXc.2.K = 3 - l  .0 ).XX",
"}.U j #., 3 7 ,.r } M.O $ G * Y u.6 Q p.6 R u.4 Q u.4 Q u.4 Q u.2 Q C.2 ^ q.2 G G   { n.w -.` 3 * h f.4.8 +. X",
"u.8 - - = 3 5 ,.c w l.0 C.|.A.^..Xp.!..Xp.!..XC.~. Xu.^..XC.~. XZ.~.|.C.^. Xu./.|.Q 5.} e >._ = = n g.4.n 9 ].",
"8 f.f.j = 3 5 ,.Z t :.O.R.{.) U.'.( I.'.( I.'./ U.'.) I.'./ I.'.( U._.( R.'.( R._.7.f.w b >.` 3 = 0 ' 0 - & Y.",
"g 0.b.<., 5 5 ,.Z i z | R u.6 R u.4 R u.4 R u.4 Q u.4 Q u.2 R u.6 Q u.2 Q u.2 R t.9 <.r N.>._ 3 3 - ; n ] j T ",
"- K @.| , 3 5 ,.Z v s <.~. XS.!..Xu.W..Xp.!..Xu.~. Xu.^. XC.~. Xu.^. Xu.^.|.C.^. Xi.} e B.>.` 3 3 h g.g.=._ P ",
"; ; - - = 3 5 ,.Z b w #.U.[.q.U.].) I.'.( I.].) I.'./ U.]./ U.'.( U._.( R.'./ R.'.9.m t B.>._ = = q @.` 8 - W ",
"$.g.<.l = 3 5 ,.C N.w n E i.4 E u.4 Y u.2 R u.6 Q u.6 R u.4 R u.4 R u.4 Q t.4 ~ q.J z t B.>._ = = - @ & - @ 8.",
"=.j.j.@.> 3 5 X.V C w  .!. XS.!. Xp.W.|.p.!. Xu.!. XC.!. Xu.^. Xu.^. XZ.^. Xu.^.|.y.z t B.>.K 3 = 8 5.g.g.n P ",
"8 k k 8 = 3 3 ,.V B.w | T.[.t.T.[.) U.[.) U.[.) U.[.( U.].) R.].) R.]./ R.].) R.].y.K y N.;._ = = 8 @.5.&.g U ",
"l n } [ = * , ,.Z N.d ` o.S.4 E i.2 W i.4 E p.6 E p.2 W i.4 E p.2 E u.2 ~ u.4 ~ i._ ] c B.;.` = = - a g a ; T ",
"] d.b.$., 3 3 ,.V C s &.!.|.S.!. Xp.W.|.p.W.|.p.W. XC.!.|.u.^. Xu.^. Xu.^. Xu.^.|.a.@.c N.;.K = = n n.V.x.$.7 ",
"0 k q 1 , 3 5 &.:.A [ &.T.[.t.T.[.8.I.[.( U.[.) U.[.) U.[.) R.].) R.].( R.].( R._.w.$.M D $._ 3 3 1 ..$.| n 5 ",
": g { m , 3 5 &.%.%.%.] ~ u.4 E p.4 E i.4 W p.4 W p.2 W p.2 E i.4 Q u.2 ~ i.2 ^ i._ @.%.%.4._ * 3 - - < 8 1 7 ",
"] &.=.| 5 3 5 $.@.&.%.%.!. XS.!. Xp.!. Xp.W. XZ.W. XC.~. Xu.^.|.u.^.|.u.^. Xu.^.|.y.@.%.@.=.K 3 3 8 5.v.g.$.8 ",
"> 0 q 8 , 3 5 X.r r [ =.T.[.t.T.[.) U.[.) U.[.) U.[.( U.].) R.].) R.].) R.].( R.].w.%.s e M n 3 3 8 | $...` , ",
"1 g j a , 3 5 X.c y m &.W i.4 W i.4 E i.4 E i.4 R p.4 E p.4 E i.2 E u.2 ~ u.2 ~ t.' %.x v S n 3 = ; # # - - H ",
"%.5.d.#.= 3 5 X.V b M =.!.|.p.!. Xp.!.|.p.!. Xu.!. Xu.~. Xu.^. Xu.^.|.u.^.|.u.^. Xs.@.N b D _ 3 3 8 4.4.5...J ",
"_ ] @..., = 5 #.C b } =.T.{.t.U.[.8.U.[.) U.].) R.].) U.].) U.].) R.].( R.].( R.].w.&.N b D n 3 3 n =.%.%.' 0 ",
"; ; ; : = 7 5 X.C b m @.o.i.4 E p.4 E i.4 E p.4 W p.4 E p.4 E p.2 W p.2 ~ i.2 E i.' @.N b S K 3 3 # 8 8 8 - L ",
"..$.{ n = 5 5 X.C b M *.!.|.S.!. Xi.Q.|.A.Q.|.Z.~.|.Z.~.|.Z.~.|.Z.^.|.u.^.|.u.^.|.a.O.c B.;.K 3 = < l ` { 1 8.",
"=.v.b.#.= = = #.;.>.X.%.T.[.t.T.[.q.U.{.q.U.{.q.U.[.) U.[.q.U.[.( R.[.( R.[.( Q.].9.&.:.>.,.K = = 0 =.d.b.| P ",
"' ..] q = 5 , &.0.*.%.' W i.4 E A.2 E i.2 E i.2 E i.2 Q i.2 ! i.2 Q u.2 Q u.2 ! u.J %.0.0.r.K > 3 ; ; 1 h < 9 ",
": 1 : ; = = , &.%.%.%.%.!. Xp.!.|.A.Q. XZ.~.|.Z.~.|.Z.~.|.Z.~.|.u.^.|.u.^.|.u.^.|.y.O.O.%.e.K 3 3 1 X...,.n q ",
"$.z.M.<.= = 5 ..f r n @.T.[.t.U.[.q.U.[.q.U.{.) U.[.) R.[.) U.[.( R.[.( R.[.( Q.].9.O.s w { K 3 = k 5.4.h.5.0 ",
"O.4.g...= 5 5 X.c v [ @.+.i.4 E i.2 R i.2 R A.4 Q i.2 Q i.2 Q i.2 ! u.2 Q i.2 ! u.K &.x u -.K 5 3 8 ] ] ] k 7 ",
", 0 q 1 = = 5 X.C b } &.!. Xp.!.|.Z.Q.|.A.Q.|.Z.Q.|.Z.~.|.Z.~.|.Z.^.|.Z.^.|.q.^.|.a.&.c N.;.K = = ; a 1 < - H ",
"< j { m , 3 5 X.V b } &.T.[.t.R.{.q.R.{.q.U.{.q.R.{.q.U.[.) R.[.( E.[.( E.[.) W.].9.&.B N.;.K 3 = k k.z.z.<.8 ",
"&.4.d.| = 3 5  .C b } O.E t.4 E q.6 R q.6 ! q.6 Q q.2 R q.2 ! q.2 Q q.2 Q q.2 Q q.K &.c B.;.K 3 = 8 g.b.v.&.< ",
"K ' ' 8 = 3 5 X.C C } @.!.|.p.!.|.A.Q.|.Z.Q.|.Z.~.}.Z.~.|.Z.~.}.q.^.}.Z.^.|.) ^.}.i.&.B B.;.K 3 3 , k K _ K > ",
"< : 1 a > 3 , #.6.l.h.@.E.[.t.T.{.q.R.{.q.U.{.q.U.{.) R.{.) R.{.) W.{.) W.].( R.[.9.*.f.V.2.K = 3 ; g g l l - ",
"=.<.1.{ = 3 5 &.r.0.%.` E t.2 R q.2 R q.2 R q.2 Q q.2 Q q.2 Q q.2 Q q.2 ! q.2 Q q.J O.0.<.h.K 3 3 k c.j.j.j.g ",
"O.@.%.k = 3 , #.%.@.@.O.!.|.p.!.|.Z.Q.}.q.~.|.Z.~.}.Z.~.|.Z.~.}.) ~.}.Z.~.|.Z.^.|.9.O.%.O.0.K = = 8 *.' K ' < ",
"> - - - , 3 5 O.` s [ @.T.[.t.E.{.q.R.{.q.R.{.) U.{.) U.{.) R.[.) W.{.) Q.{.( R.{.9.O.f s X.K = 3 > < p < - & ",
"<.$.| l = 3 , | x u } | E t.4 E q.6 Q q.4 Q q.4 Q q.2 R q.4 ! q.2 Q q.2 Q q.2 ! q.J %.c y S K 5 = g k.c.j.X., ",
"j.v.4.` = 3 ,  .V b M @.!.|.p.Q.}.Z.Q.|.q.W.}.Z.~.|.q.~.}.Z.~.}.) ~.|.q.^.}.q.~.|.9.#.c N.-.K = 3 1 0.d.%.%.< ",
"0 8 7 ; = = , X.V i -.%.(.XXJ./.XXF.^.XXF./.XXD.(.XXF./.XXD.).XXD.)..XD.)..XS.)..XS.X.c B.;.K > = & : < < < # ",
" .} { j = 3 =  .A 3.m.&.E..X9.Q..Xq.Q. Xq.Q..Xq.Q..Xq.Q..Xq.Q. Xq.~..Xq.~.|.q.~.|.9.z.l.;.:.K = 3 a X.X.1.1.< ",
"4.g.b...= 5 = #.L.@X@Xj.E..Xq.Q..X9.~..Xq.Q. Xq.Q..X8.Q. Xq.~. Xq.Q..Xq.~..X8.Q.|.a.oX#X+Xc.K = 3 g 0.0.0.O.< ",
"5 1 1 ; = 3 , d.OX+XM.<.).XXK.[.XXK._.XXK.[.XXK.[.XXK.`.XXK.`.XXK.[.XXK.`.XXK._..XH.k.oX+XL.K = 3 > 8 7 7 , & ",
"E 7.( P = 3 , j.M.,.` J.|..X|..X.X X X.X.X.X.X X X.X X.X.X X.X.X|..X.X|..X.X X.XXX(.%.-.l.oXK = 5 5 H 7 5 H F.",
".X.X.XT.> = = z [ H.`..X.X.X.X.X.X.X.X.XXXXX.X.X.X.X.X.X.X.X.X.X.X.X.X.X.X.X.X.X.XXX XT.+.K 8 = * ! {.{.].{.XX",
".X.X.X^.7.T P a.`..X.X.X.X.X.X.X.X.X.X.X.X.X.X.X.X.X.X.X.X.X.X.X.X.X.X.X.X.X.X.XXXXXXXXX|.K.o.' o.S.|.XX.XXX.X"
};
