/* XPM */
static char * exit1_xpm[] = {
"64 64 358 2",
"  	c #F4C784",
". 	c #A59786",
"+ 	c #7F7F7F",
"@ 	c #7E7E7E",
"# 	c #777777",
"$ 	c #7D7D7D",
"% 	c #858585",
"& 	c #81807F",
"* 	c #DBB582",
"= 	c #F8C984",
"- 	c #F0C485",
"; 	c #858584",
"> 	c #6F6F6F",
", 	c #6E6E6E",
"' 	c #727272",
") 	c #6D6D6D",
"! 	c #797979",
"~ 	c #838383",
"{ 	c #828282",
"] 	c #C2A581",
"^ 	c #EFC383",
"/ 	c #7C7B7A",
"( 	c #787878",
"_ 	c #575757",
": 	c #5A5A5A",
"< 	c #6B6B6B",
"[ 	c #717171",
"} 	c #767676",
"| 	c #808080",
"1 	c #BEA17B",
"2 	c #EFC382",
"3 	c #706F6E",
"4 	c #636363",
"5 	c #565656",
"6 	c #676767",
"7 	c #757575",
"8 	c #737373",
"9 	c #7A7A7A",
"0 	c #7C7C7C",
"a 	c #747474",
"b 	c #BA9C74",
"c 	c #6A6A6A",
"d 	c #545454",
"e 	c #5D5D5D",
"f 	c #6C6C6C",
"g 	c #595959",
"h 	c #696969",
"i 	c #5F5F5F",
"j 	c #656565",
"k 	c #707070",
"l 	c #B89970",
"m 	c #B7986E",
"n 	c #6F6E6D",
"o 	c #606060",
"p 	c #6A6A69",
"q 	c #686868",
"r 	c #585858",
"s 	c #666666",
"t 	c #B6976D",
"u 	c #F5C783",
"v 	c #AF936F",
"w 	c #6E665D",
"x 	c #5C5C5C",
"y 	c #5B5B5B",
"z 	c #867662",
"A 	c #E1B87C",
"B 	c #B59A79",
"C 	c #616161",
"D 	c #5E5E5E",
"E 	c #646464",
"F 	c #6B6A69",
"G 	c #EFC281",
"H 	c #B19674",
"I 	c #818181",
"J 	c #626262",
"K 	c #7B7B7B",
"L 	c #676665",
"M 	c #EEC280",
"N 	c #B09572",
"O 	c #605F5D",
"P 	c #4F4F4F",
"Q 	c #4B4B4B",
"R 	c #494949",
"S 	c #4D4D4D",
"T 	c #555555",
"U 	c #4A4A4A",
"V 	c #586C74",
"W 	c #484747",
"X 	c #4E4E4E",
"Y 	c #494848",
"Z 	c #505050",
"` 	c #AF9471",
" .	c #525252",
"..	c #535353",
"+.	c #63818D",
"@.	c #617D88",
"#.	c #596E77",
"$.	c #556268",
"%.	c #5D5C5A",
"&.	c #C3A172",
"*.	c #4C4C4C",
"=.	c #51504F",
"-.	c #81A3B0",
";.	c #585E61",
">.	c #515151",
",.	c #565454",
"'.	c #6D96A5",
").	c #545252",
"!.	c #7B6D5C",
"~.	c #F2C482",
"{.	c #F0C381",
"].	c #7D7062",
"^.	c #64747A",
"/.	c #76949F",
"(.	c #73939F",
"_.	c #5F6F75",
":.	c #C7A372",
"<.	c #E2B97E",
"[.	c #515150",
"}.	c #8CA9B4",
"|.	c #575D60",
"1.	c #595E60",
"2.	c #8DA9B3",
"3.	c #525151",
"4.	c #EDCB9A",
"5.	c #EBC183",
"6.	c #565E61",
"7.	c #759CAA",
"8.	c #535252",
"9.	c #7DA1AD",
"0.	c #5A6062",
"a.	c #F8D4A0",
"b.	c #668692",
"c.	c #5E7781",
"d.	c #627B85",
"e.	c #748C95",
"f.	c #5B6163",
"g.	c #88A6B1",
"h.	c #4E4D4D",
"i.	c #4C4B4B",
"j.	c #749CAB",
"k.	c #555C5F",
"l.	c #7A9099",
"m.	c #73848B",
"n.	c #70838A",
"o.	c #788E96",
"p.	c #EDC080",
"q.	c #76A1B1",
"r.	c #555454",
"s.	c #85A8B5",
"t.	c #5A6A71",
"u.	c #6C919F",
"v.	c #575656",
"w.	c #7999A5",
"x.	c #5D696E",
"y.	c #EBC083",
"z.	c #82A6B3",
"A.	c #585F62",
"B.	c #535758",
"C.	c #505456",
"D.	c #535759",
"E.	c #525759",
"F.	c #545859",
"G.	c #515556",
"H.	c #5A5D5F",
"I.	c #515557",
"J.	c #555D60",
"K.	c #80A4B2",
"L.	c #565D60",
"M.	c #85A9B5",
"N.	c #8FACB6",
"O.	c #7CA2B0",
"P.	c #81A4B1",
"Q.	c #86A7B3",
"R.	c #7AA1AF",
"S.	c #709CAC",
"T.	c #8AA9B4",
"U.	c #769FAE",
"V.	c #7DA2B0",
"W.	c #8EABB6",
"X.	c #78A2B1",
"Y.	c #565C5F",
"Z.	c #E6AF82",
"`.	c #E5AB82",
" +	c #EABB83",
".+	c #474748",
"++	c #484748",
"@+	c #37353B",
"#+	c #3C3A3F",
"$+	c #3C3B3F",
"%+	c #38363C",
"&+	c #545355",
"*+	c #EABE80",
"=+	c #36353B",
"-+	c #343239",
";+	c #4B4A4C",
">+	c #35333A",
",+	c #39383D",
"'+	c #3A383D",
")+	c #3B3A3E",
"!+	c #403F42",
"~+	c #3E3D41",
"{+	c #39373C",
"]+	c #4C4B4D",
"^+	c #3F3F42",
"/+	c #3D3C40",
"(+	c #3E3D40",
"_+	c #3A393D",
":+	c #4E4E50",
"<+	c #414043",
"[+	c #484848",
"}+	c #4C4C4E",
"|+	c #353339",
"1+	c #3A393E",
"2+	c #454546",
"3+	c #434344",
"4+	c #464647",
"5+	c #4A4A4B",
"6+	c #434345",
"7+	c #37363B",
"8+	c #DDB67F",
"9+	c #3B3A3F",
"0+	c #38373C",
"a+	c #3F3F41",
"b+	c #454445",
"c+	c #3F3E41",
"d+	c #424244",
"e+	c #444446",
"f+	c #434245",
"g+	c #3B393E",
"h+	c #515052",
"i+	c #EDC180",
"j+	c #E0B880",
"k+	c #89847D",
"l+	c #3C3B40",
"m+	c #464548",
"n+	c #444345",
"o+	c #4F4F4E",
"p+	c #454446",
"q+	c #474648",
"r+	c #49494B",
"s+	c #686769",
"t+	c #AE936F",
"u+	c #A28E76",
"v+	c #4F4E50",
"w+	c #49494A",
"x+	c #4A494B",
"y+	c #4B4A4B",
"z+	c #424143",
"A+	c #4A494C",
"B+	c #DEB57B",
"C+	c #424144",
"D+	c #4C4C4D",
"E+	c #636364",
"F+	c #726960",
"G+	c #A38F76",
"H+	c #C19F71",
"I+	c #727271",
"J+	c #737271",
"K+	c #88765F",
"L+	c #585654",
"M+	c #988163",
"N+	c #7C6E5C",
"O+	c #5C5B59",
"P+	c #575655",
"Q+	c #565655",
"R+	c #F7C884",
"S+	c #C9A777",
"T+	c #676563",
"U+	c #636260",
"V+	c #61605E",
"W+	c #5E5D5B",
"X+	c #62615F",
"Y+	c #615F5E",
"Z+	c #5A5957",
"`+	c #927D62",
" @	c #F1C481",
".@	c #D0AB75",
"+@	c #B2946C",
"@@	c #AB906B",
"#@	c #60605F",
"$@	c #706860",
"%@	c #C8A676",
"&@	c #B89A72",
"*@	c #5D5D5C",
"=@	c #5F5E5C",
"-@	c #B6986E",
";@	c #EEC281",
">@	c #C9A676",
",@	c #B4966F",
"'@	c #B39671",
")@	c #AE876E",
"!@	c #947766",
"~@	c #B58D73",
"{@	c #6B6764",
"]@	c #8D7A62",
"^@	c #92806B",
"/@	c #666462",
"(@	c #5F5D5C",
"_@	c #89765F",
":@	c #F0C382",
"<@	c #EFC381",
"[@	c #F0CD9C",
"}@	c #EFCD9B",
"|@	c #F4C682",
"1@	c #D6B07B",
"2@	c #907D67",
"3@	c #DEB67D",
"4@	c #7D746B",
"5@	c #6C6A69",
"6@	c #797169",
"7@	c #7D7469",
"8@	c #7C7267",
"9@	c #9D7F6D",
"0@	c #C39677",
"a@	c #6D6B6A",
"b@	c #756B60",
"c@	c #F1C382",
"d@	c #F3C582",
"e@	c #F8D197",
"f@	c #CDAA7A",
"g@	c #6D6B69",
"h@	c #AC916E",
"i@	c #C7A577",
"j@	c #DDB57D",
"k@	c #A58E70",
"l@	c #887763",
"m@	c #E7AB80",
"n@	c #B79174",
"o@	c #B89A71",
"p@	c #BA9A6E",
"q@	c #F6C883",
"r@	c #EBBF80",
"s@	c #B99A6F",
"t@	c #897865",
"u@	c #6A6968",
"v@	c #726C66",
"w@	c #A68E6F",
"x@	c #C7A473",
"y@	c #756D63",
"z@	c #6E6A67",
"A@	c #787068",
"B@	c #7A7168",
"C@	c #DDB57C",
"D@	c #F5C683",
"E@	c #C5A477",
"F@	c #6D6966",
"G@	c #6A6661",
"H@	c #66625E",
"I@	c #E2B97F",
"J@	c #7E766C",
"K@	c #6E6C6A",
"L@	c #6A655F",
"M@	c #D9B179",
"N@	c #F3C683",
"O@	c #F4C683",
"P@	c #E0B77D",
"Q@	c #BE9D70",
"  . + + + + + + + + + + + @ @ @ # $ % + + + + + + + + + + + + + + + + + + + + + + + + + + + + + + + + + + + + + + + + + + & * = ",
"- ; + + + + + + + $ > , ' > ) ! ~ { + + + + + + + + + + + + + + + + + + + + + + + + + + + + + + + + + + + + + + + + + + + + ] = ",
"^ / @ @ @ @ @ @ ( _ : < [ } | @ @ + + @ @ @ @ @ @ @ @ + + + @ @ @ @ + + + + @ @ @ @ @ @ @ @ @ @ @ @ @ @ @ @ @ @ @ @ @ @ @ @ 1 = ",
"2 3 [ [ [ [ [ [ 4 5 6 [ # 7 [ [ [ # 7 [ [ [ [ [ [ [ ' ( # ( 8 [ [ 8 9 @ 0 # ' [ [ [ [ [ [ [ [ ' a [ [ [ [ [ [ [ [ [ [ [ [ , b = ",
"2 3 [ [ [ [ [ c d e f > ' [ [ [ [ [ [ [ [ [ [ [ [ [ [ [ [ [ [ [ [ [ [ [ [ [ [ [ [ [ [ [ [ [ [ [ [ [ [ [ [ [ [ [ [ [ [ [ [ , b = ",
"2 3 [ [ [ [ [ e g h ) [ [ [ [ [ [ [ [ [ [ [ [ [ [ [ [ [ [ [ [ [ [ [ [ [ [ [ [ [ [ [ [ [ [ [ [ [ [ [ [ [ [ [ [ [ [ [ [ [ [ , b = ",
"2 3 [ [ [ [ [ i j k [ [ [ [ [ [ [ [ [ [ [ [ [ [ [ [ [ [ [ [ [ [ [ [ [ [ [ [ [ k [ [ [ [ [ [ [ [ [ [ [ [ [ [ [ [ [ [ [ [ [ f l = ",
"2 3 [ [ k f f 4 k [ [ [ [ [ [ [ [ [ [ [ [ [ [ [ [ [ [ [ [ [ [ [ [ [ [ [ [ [ [ , [ [ [ [ [ [ [ [ [ k [ [ [ [ [ [ [ [ [ [ [ h m = ",
"2 3 [ k < < f k [ [ [ k k ) [ [ [ [ [ > , [ [ [ [ k [ k > > [ [ [ [ [ [ [ [ > c [ k k [ k , [ [ > f k [ [ [ [ [ [ k [ [ > 6 m = ",
"2 n ) < c h , > f f f c c > [ k k ) < c c < f f f < f < c ) k k k ) < ) k > c o f c c f f k , f c ) ) k ) f f f f < < f < 6 m = ",
"2 p h h h c f h h h h h q < < h h h h h h h h h h h h h h < < h h h h h h q : r q h h h h h h s j j s h h h h h h h h h h j t = ",
"u v w g g g g g g g g g g g g g g g g : x x x x x x x y : : : g : : : : x e i i x x x x g g g g g g g g g g g g g g g g g z A = ",
"= = B 7 a a a a a a a a a a a a a a a q 4 4 4 4 4 4 4 C x x D 5 D x x x 4 E E E 4 4 4 E 8 a a a a a a a a a a k s j ' a F G = = ",
"= = H + I 0 0 0 0 0 ( 0 @ 0 0 + $ 0 8 e 4 s q q q q q j J e E C s E C D q h c c q q q q [ ~ ~ + 0 0 0 0 @ 0 0 0 a ! 0 K L M = = ",
"= = N k c f k [ , , # [ 8 f k a [ , 4 e s c c c c c c s E 4 q h h 6 4 C c c c c c c c c < k [ [ [ [ > k ' , , [ k q > < O M = = ",
"= = N k c c ) > c [ 8 > [ < f k > < 4 e 6 c c c h j i C s 4 6 ) 6 6 C E o J 6 c c c c c < , k [ [ , f < ) c c > > q ) 6 O M = = ",
"= = N k c c < , c f f f [ < c ) c c 4 e 6 c c E i q q j 5 4 6 q q 6 g x h h 4 i h c c c < ) f [ > < c c < c c c ) h < 6 O M = = ",
"= = N k c c c c c c c c < c c c c c 4 e 6 h i j E r P Q R d o s E g S R Q T e 6 i E c c < ) c f < c c q f c c c h c < 6 O M = = ",
"= = N ) c c c c c c c c c c c c c c 4 e j C 6 : Q R R U V W U d X Y Y X S R U Z E E E c < f c c c c c q f c c c q f c q O M = = ",
"= = ` E E E E E E E E E E E E E E E e x o E P U R S  ...+.@.R R R #.$.y d  .S Q Q y E E 4 E E E E E j 4 4 j E 4 J j E C %.M = = ",
"= = &.: D D D D x D D D D e x : _ _ 5 g s P R *. .d d =.-.;.>.T T ,.'.).d d d ..Q U y 4 5 x D D D D D e y i D D i x x r !.~.= = ",
"= = {.].j 6 6 j x i o o o e : 5 d d d J g R U ..d d d ^./.5 >.5 T T (._.d d d d P Q X j r C s 6 E s 6 s s j i e e r _ d :.= = = ",
"= = = <.o e e e e o o i e x e e d d : g U R Z d d d [.}.|.d >...d 5 1.2.3.d d d _ _ Q Z i 5 : e i e i o o i D x i : T d 4.= = = ",
"= = = 5.) 6 6 q ) ( [ 8 } c h h J T D S R X d d d d 6.7.8.d  . .>.T [.9.0.d d d d d ..U r i 4 h 6 h k # , } [ h 6 j o T 4.a.= = ",
"= = = 5.[ h c ) 0 } # # a 7 < c h g _ R U _ d d d ..b.c.>.>.Z Z P >.Z d.e...d d d d d X X j h h c 7 9 7 ( } 7 [ c h h D 4.a.= = ",
"= = = 5.' h ) 0 } < [ ( k [ 7 < q e S R X d d d d f.g.h.g X P P P >._ i.j.k.d d d d d ..*.4 h c a K k ) 7 # , a [ c h i 4.= = = ",
"= = = 5., c 7 # < 7 < k > q > > c e U *...d d d ..l.m.P Z .._ >.P  .r >.n.o...d d d d d X C 6 < ( k k 8 h a q f > f q D p.= = = ",
"= = = 5.[ c ( , , 7 q h ) s k k c o U P d d d d  .q.r.P 5 _ ..T 5 ..>.X Z s.8.d d d d d X J c ) ! q } , 6 , q q 7 f c i p.= = = ",
"= = = 5.' c k [ , ) } } h [ ' 6 c C U ..d d d d t.u.v.>. .Z ..5 d S >.Z d w.x.d d d d d X h c < ' k > ' # ' f k ) h c i p.= = = ",
"= = = y.K c q , ( ) h q > # f h c E *.d d d d ..z.A.B.C.D.C.E.F.E.G.H.I.D.J.K.5 d d d d X f 8 c q a } q c q } 7 q c ' J p.= = = ",
"= = = y.9 ) c q 7 } c c # a 6 c > J P d d d T L.M.N.O.P.Q.R.S.P.S.T.P.U.V.W.X.Y.T d d d X < 7 c h f ( > c , ( ) h c 7 C p.= = = ",
"= = = 5.# a c q , ( , k # f h c 7 D P d d d T y r y _ y y g T D y y _ _ r _ : y T d d d X c 7 , c q a } c } 7 q c , 7 o p.= = = ",
"= = = 5.} 7 ) c q 7 7 # a 6 c > 7 D P d d d d d d d d d d d d d d d d d d d d d d d d d X c ' a c h ) ( 8 ( , h c 7 ' o p.= = = ",
"= = = 5.} f h > ' , ( # f f f , , D P d d d d d d d d d d d d d d d d d d d d d d d d ..U c k h c 7 < a ! 7 6 > c k k o p.= = = ",
"= = = 5.a q > 0 a c ! a < a # f 6 x U d d d d d d d d d d d d d d d d d Z r d d d d d d Q c c c # ! [ > ! , k # 8 c h o p.= = = ",
"= = = 5.> c ! 8 q k ! f c h a a c e U d d d d d d d d d d d d d d d d d Z y d d d d d ..R h q , ! , c } } q c > } ) q D p.= = = ",
"= = = Z.( c > > c 8 } 6 q 8 8 q c 4 U d d d d d d d d d d d d d d d d d 5 ..T T d d d ..R < > < [ < ) # k s c # ) h > C p.= = = ",
"= = = `.9 , q 8 # # < c } # ' h k C U d d d d d d d d d d d d d d d d d d d _ d d d d >.R < } c < # # a 6 k # # < h 7 C p.= = = ",
"= = =  +# a < h c < s f h c h < 7 D U >.d d d .. .d d d d d d d d >. .d d ..d d d ..d X R c 7 k c h c h h c h h h > 7 o p.= = = ",
"= = = 5.} k f c , # ) k ' f c > [ D U *.d ..d ..>.>...d .... .>.d >. ...d P d d d P ..Q R c [ > c c 8 7 h 8 [ c c ' [ o p.= = = ",
"= = = 5.} h c c a 8 6 q a 8 c c f e U R Z X Z S Z X Q X P Z *.U P S S S X Q Z Z S R S R R c > q c f } ) 6 f } ) c c > o p.= = = ",
"= = = 5.8 q c ) } f h q , } f c 6 x .+R R R R R R R R R R R R R R R R R R R R R R R R R ++c h c c 8 a 6 c 6 a a c c h o p.= = = ",
"= = = y.) c c a 8 6 c c 6 a 8 c c e @+#+$+$+$+$+$+$+$+$+$+$+$+$+$+$+$+$+$+$+$+$+$+$+$+$+%+&+6 c f } , q c h ) } ) c q D p.= = = ",
"= = = *+6 c ) } f c K 7 h , } f c i =+-+-+-+-+-+-+-+-+-+-+-+-+-+-+-+-+-+-+-+-+-+-+-+-+-+-+;+h c 8 a 6 ' ( > 6 a a c h D p.= = = ",
"= = = *+q c a 8 q 9 } # a q a 8 c o =+-+-+-+-+-+-+-+-+-+-+-+-+-+-+-+-+-+-+-+-+-+-+-+-+-+-+;+c f } , , 0 8 ( , ) } ) c i p.= = = ",
"= = = *+q c # ) ) a c f 7 c > } c o =+-+-+-+-+-+-+-+-+-+-+-+>+,+,+,+%+-+-+-+-+-+-+-+-+-+-+;+c ) ( q a [ 6 [ a 6 # , c i p.= = = ",
"= = = *+c c 8 ) c ) f 7 ) 6 , f c C =+-+-+-+-+-+-+-+-+-+>+'+)+!+!+~+{+-+-+-+-+-+-+-+-+-+-+]+f f ' f c , k a q c ) c f D p.= = = ",
"= = = *+8 c h , ( [ 0 7 q ' f h c E =+-+-+-+-+-+)+!+!+$+)+!+^+/+^+(+_+%+-+-+-+-+-+-+-+-+-+:+8 c q 7 } ' 0 > h a q c ' y p.= = = ",
"= = = *+k > c q , } 7 h [ ) h c [ o =+-+-+-+>+!+!+!+^+<+'+!+[+<+R !+'+%+-+-+-+-+-+-+-+-+-+}+} c c q a 7 > c 8 q c c } g p.= = = ",
"= = = *+) 7 f c q q 6 6 q h c ) a r =+-+-+-+-+-+|+1+$+2+2+[+3+4+*.5+2+6+!+!+>+7+-+-+-+-+-+]+8 ' c c 6 q 6 q 6 c c ' ' r p.= = = ",
"= = = 8+) ' # ' > c c c c k 8 } h T 9+-+-+-+-+%+0+a+b+c+c+[+.+d+e+f+!+(+g+g+6+~+g+%+-+-+>+h+[ 8 } [ f c c c f [ } a j T i+= = = ",
"= = j+k+8 > < [ c E E s s f ) E x o J l+-+)+m+.+n+R R R U X 6+o+X S P S R R p+q+r+6+%+=+s+( > > > ' c s 6 < } [ q j _ i t+u = = ",
"= u u+( + + K 9 0 K K 0 0 0 ( , , [ ( v+w+5+x+6+R Q S X  .p+y+d d d ..Z S Q R z+c+Q Q A+a $ + + + + $ 0 0 ! f } ' > , [ s B+= = ",
"= 8+[ k k 8 a > # 8 8 8 8 8 8 a a 8 C : d+C+5+ .Z Z ..P X S Z P P Q D+>.P X  .Z 5+e+f+E+[ ) 8 8 8 8 8 8 8 a 6 q # a a > D F+~.= ",
"u G+[ < k [ k ) ' [ [ [ [ [ [ [ [ [ q x X Q P P >...d d d g _ d d d  .T d d d P Q S T k k < [ [ [ [ [ [ [ [ ) s k [ [ k i C H+= ",
"2 I+k f [ [ < ) , [ [ [ [ [ [ [ [ [ k e >.P Z Z ..d d r : x : : T d Z g : : T >.P *.o [ < k [ [ [ [ [ [ [ [ , q ' [ [ [ c e m = ",
"2 J+) , [ > ) [ < [ [ [ [ [ [ [ [ [ [ o P R R *.d P P Z  .r ..>.P P .. .d _ T >.S S C [ < [ [ [ [ [ [ [ [ [ [ c [ [ [ [ , e t = ",
"G F 6 f f j < f j f f f f f f f f f f C K+L+g D 4 e M+N+5 r T 5 O+P+_ d T 5 5 Q+: _ e < q f f f f f f f f f f < f f f f f y t = ",
"R+S+T+T+U+U+V+V+W+X+Y+Y+Y+Y+Y+Y+Z+Z+Z+`+ @.@+@@@#@$@%@&@C *@=@-@;@>@,@'@'@)@!@~@{@g ]@^@T+T+T+T+T+/@Y+Y+Y+Y+Y+Y+(@Z+Z+Z+Z+_@G = ",
"= R+:@:@<@[@}@}@}@G G G G G G G G G G |@= = = 1@F q 6 s 4 2@{.3@4@5@6@7@8@9@0@a@q j b@c@:@:@:@:@:@{.G G G G G G G G G G G d@= = ",
"= = = = = = a.a.e@= = = = = = = = = = = = = = = f@g@h j x h@i@j@k@h c c j l@m@m@n@o@p@q@= = = = = = = = = = = = = = = = = = = = ",
"= = = = = = = = = = = = = = = = = = = = = = = = R+r@s@t@u@6 6 v@w@x@s@s@y@z@A@A@B@C@= = = = = = = = = = = = = = = = = = = = = = ",
"= = = = = = = = = = = = = = = = = = = = = = = = = = = D@E@F@G@H@&.= = = I@J@K@j L@M@= = = = = = = = = = = = = = = = = = = = = = ",
"= = = = = = = = = = = = = = = = = = = = = = = = = = = = R+N@d@d@R+= = = = O@P@Q@{.= = = = = = = = = = = = = = = = = = = = = = = "};
