/* XPM */
static char * exit1_xpm[] = {
"64 64 379 2",
"  	c #F8C984",
". 	c #F2C481",
"+ 	c #BB9764",
"@ 	c #F2C480",
"# 	c #BA9662",
"$ 	c #B69462",
"% 	c #6D6052",
"& 	c #746D63",
"* 	c #B99664",
"= 	c #EFC27F",
"- 	c #B79461",
"; 	c #4C3F2E",
"> 	c #57524B",
", 	c #777066",
"' 	c #59534C",
") 	c #675D50",
"! 	c #5C564E",
"~ 	c #716A60",
"{ 	c #544530",
"] 	c #F4C582",
"^ 	c #6A5E4F",
"/ 	c #282724",
"( 	c #716A61",
"_ 	c #5A544C",
": 	c #4B433B",
"< 	c #564A3A",
"[ 	c #EDC07E",
"} 	c #F1B183",
"| 	c #756E64",
"1 	c #626057",
"2 	c #66645B",
"3 	c #5D5850",
"4 	c #736C62",
"5 	c #322F2C",
"6 	c #5C5246",
"7 	c #3D3730",
"8 	c #665C4F",
"9 	c #B99E78",
"0 	c #F2CE9C",
"a 	c #F8D4A0",
"b 	c #EDAE81",
"c 	c #554632",
"d 	c #65635A",
"e 	c #868478",
"f 	c #828175",
"g 	c #65645A",
"h 	c #4A423A",
"i 	c #605E55",
"j 	c #544838",
"k 	c #F4D09D",
"l 	c #ECAE80",
"m 	c #6C6459",
"n 	c #636159",
"o 	c #858276",
"p 	c #5F5549",
"q 	c #646259",
"r 	c #4C443B",
"s 	c #574C3E",
"t 	c #F3D09D",
"u 	c #6F685C",
"v 	c #5B574F",
"w 	c #61574B",
"x 	c #5D5247",
"y 	c #2D2A26",
"z 	c #5D5246",
"A 	c #5F5448",
"B 	c #4E453A",
"C 	c #B59A75",
"D 	c #BBA079",
"E 	c #58544C",
"F 	c #636158",
"G 	c #605F56",
"H 	c #626158",
"I 	c #5A554E",
"J 	c #6F695F",
"K 	c #514F48",
"L 	c #F4BB83",
"M 	c #6E685A",
"N 	c #838176",
"O 	c #59544D",
"P 	c #817F73",
"Q 	c #5E5449",
"R 	c #494139",
"S 	c #574B3A",
"T 	c #F3C581",
"U 	c #F6C783",
"V 	c #756D5D",
"W 	c #838276",
"X 	c #58534C",
"Y 	c #5A554D",
"Z 	c #726B61",
"` 	c #5F554A",
" .	c #584B3C",
"..	c #BA9765",
"+.	c #504E47",
"@.	c #5B564E",
"#.	c #473F36",
"$.	c #B99764",
"%.	c #6B665B",
"&.	c #807E72",
"*.	c #5D5448",
"=.	c #59544C",
"-.	c #766F65",
";.	c #F2C686",
">.	c #6B6356",
",.	c #67655C",
"'.	c #57524A",
").	c #544734",
"!.	c #6E675A",
"~.	c #827F74",
"{.	c #7F7C71",
"].	c #64625A",
"^.	c #59554D",
"/.	c #7C796F",
"(.	c #4C443C",
"_.	c #594C3C",
":.	c #807D72",
"<.	c #4F483F",
"[.	c #625F56",
"}.	c #7B786E",
"|.	c #515048",
"1.	c #828074",
"2.	c #463E35",
"3.	c #817E73",
"4.	c #61564A",
"5.	c #4A453E",
"6.	c #6A675E",
"7.	c #6B695F",
"8.	c #6A685E",
"9.	c #838175",
"0.	c #69675D",
"a.	c #848276",
"b.	c #484037",
"c.	c #B89562",
"d.	c #656055",
"e.	c #544D44",
"f.	c #7D7A70",
"g.	c #6B6960",
"h.	c #7C796E",
"i.	c #68655C",
"j.	c #594B3B",
"k.	c #63594C",
"l.	c #817D72",
"m.	c #49443D",
"n.	c #544C43",
"o.	c #67635A",
"p.	c #5F503E",
"q.	c #5C5447",
"r.	c #56514A",
"s.	c #615E56",
"t.	c #4B443B",
"u.	c #5A5650",
"v.	c #4B4741",
"w.	c #626058",
"x.	c #5C5245",
"y.	c #434935",
"z.	c #7B796E",
"A.	c #68665D",
"B.	c #F8CB8A",
"C.	c #70695B",
"D.	c #817F74",
"E.	c #605D55",
"F.	c #555049",
"G.	c #50483F",
"H.	c #4C453D",
"I.	c #57564C",
"J.	c #58544D",
"K.	c #676858",
"L.	c #5C5D41",
"M.	c #5A5D4B",
"N.	c #585A4A",
"O.	c #4A4B39",
"P.	c #50493F",
"Q.	c #656259",
"R.	c #7D7A6F",
"S.	c #504539",
"T.	c #706A5C",
"U.	c #7E7B70",
"V.	c #554E45",
"W.	c #7F7D72",
"X.	c #65635B",
"Y.	c #5C5C4E",
"Z.	c #61644C",
"`.	c #4E4E3C",
" +	c #5D5346",
".+	c #5C5146",
"++	c #828075",
"@+	c #494138",
"#+	c #838075",
"$+	c #858277",
"%+	c #60574A",
"&+	c #4D463D",
"*+	c #4A4239",
"=+	c #848075",
"-+	c #574A3B",
";+	c #695E4C",
">+	c #615F57",
",+	c #484038",
"'+	c #605E56",
")+	c #625341",
"!+	c #5C5649",
"~+	c #4A4138",
"{+	c #49443C",
"]+	c #807E73",
"^+	c #484138",
"/+	c #4A433B",
"(+	c #635F57",
"_+	c #4B433A",
":+	c #57514A",
"<+	c #706A60",
"[+	c #4F4335",
"}+	c #676357",
"|+	c #534C43",
"1+	c #65655B",
"2+	c #66645C",
"3+	c #494239",
"4+	c #5D5347",
"5+	c #4F5653",
"6+	c #5C5750",
"7+	c #69665D",
"8+	c #3C362F",
"9+	c #554B3F",
"0+	c #61564B",
"a+	c #4A463E",
"b+	c #66655C",
"c+	c #51533C",
"d+	c #6B685F",
"e+	c #5B554E",
"f+	c #6D6659",
"g+	c #636058",
"h+	c #4C4841",
"i+	c #65665B",
"j+	c #4B453C",
"k+	c #5C5C4D",
"l+	c #706B60",
"m+	c #67645C",
"n+	c #67645B",
"o+	c #6F685B",
"p+	c #58584C",
"q+	c #59574E",
"r+	c #636259",
"s+	c #4C443D",
"t+	c #57534B",
"u+	c #4A463B",
"v+	c #66635A",
"w+	c #564F46",
"x+	c #66665C",
"y+	c #55504A",
"z+	c #5B5045",
"A+	c #473F37",
"B+	c #5D4D38",
"C+	c #565046",
"D+	c #5E5347",
"E+	c #39322C",
"F+	c #4D4132",
"G+	c #F2B683",
"H+	c #F6C384",
"I+	c #50473E",
"J+	c #B99663",
"K+	c #6A655A",
"L+	c #565047",
"M+	c #5C5145",
"N+	c #615F56",
"O+	c #534E47",
"P+	c #52432E",
"Q+	c #818074",
"R+	c #464037",
"S+	c #494338",
"T+	c #2F312A",
"U+	c #58534B",
"V+	c #554F48",
"W+	c #565148",
"X+	c #817E74",
"Y+	c #65645B",
"Z+	c #67665D",
"`+	c #5E5549",
" @	c #4B4839",
".@	c #4A4838",
"+@	c #484338",
"@@	c #5B5145",
"#@	c #4F493F",
"$@	c #626A5B",
"%@	c #5F6B58",
"&@	c #2D4430",
"*@	c #32582B",
"=@	c #5E7940",
"-@	c #617A42",
";@	c #48453B",
">@	c #48533C",
",@	c #5F5A52",
"'@	c #565149",
")@	c #6C6052",
"!@	c #3C3730",
"~@	c #464036",
"{@	c #24542D",
"]@	c #26572E",
"^@	c #31642F",
"/@	c #488233",
"(@	c #86AF49",
"_@	c #83AE48",
":@	c #21302A",
"<@	c #214C2D",
"[@	c #626258",
"}@	c #5A5246",
"|@	c #454035",
"1@	c #2D5F2D",
"2@	c #386E30",
"3@	c #417A31",
"4@	c #5D933A",
"5@	c #77A443",
"6@	c #85AF49",
"7@	c #1C3C2C",
"8@	c #6E685B",
"9@	c #65625A",
"0@	c #49423A",
"a@	c #58524B",
"b@	c #57554A",
"c@	c #3B622D",
"d@	c #468031",
"e@	c #588F38",
"f@	c #90B84E",
"g@	c #A3C556",
"h@	c #313E2D",
"i@	c #182D2B",
"j@	c #EFAF82",
"k@	c #474037",
"l@	c #302E2A",
"m@	c #59594C",
"n@	c #567A33",
"o@	c #8EB54C",
"p@	c #A8CA58",
"q@	c #90AE4E",
"r@	c #23332B",
"s@	c #605F57",
"t@	c #3B352D",
"u@	c #312E2A",
"v@	c #5E5E4C",
"w@	c #7E9745",
"x@	c #A0C154",
"y@	c #2A392C",
"z@	c #25362A",
"A@	c #646359",
"B@	c #E9AB7E",
"C@	c #6D6759",
"D@	c #5C574F",
"E@	c #5D5C4D",
"F@	c #252C2A",
"G@	c #19322B",
"H@	c #5F5E55",
"I@	c #67665C",
"J@	c #685A4F",
"K@	c #B48563",
"L@	c #EBAC80",
"M@	c #69655A",
"N@	c #312E2B",
"O@	c #272623",
"P@	c #6B5D51",
"Q@	c #B38361",
"R@	c #756E65",
"S@	c #3F3932",
"T@	c #4D3D32",
"U@	c #3C3731",
"V@	c #4F4539",
"W@	c #4B4A43",
"X@	c #6F6960",
"Y@	c #2C2925",
"Z@	c #4E4132",
"`@	c #4C4B44",
" #	c #726A5A",
".#	c #565049",
"+#	c #63594B",
"@#	c #59534B",
"##	c #554735",
"$#	c #F8D197",
"%#	c #F8D39E",
"&#	c #5E4C3E",
"*#	c #544235",
"=#	c #BB9865",
"-#	c #BA9763",
"                                                . + + .                                                                         ",
"                                          @ # $ % & & % * = + + .                                                               ",
"                                      @ - ; > & , , , & ' ) & & % * .                                                           ",
"                                  @ - ; > & , , , & ! ! & , , , , ~ { ]                                                         ",
"                              . * ^ / ( , , , & ! ! & , , , , & _ : < [ + + .                                                   ",
"                  } } }   . * % & | 1 2 3 & 4 5 ( , , , , & _ : 6 6 7 8 & & % 9 0 a a                                           ",
"                } } } } b c ( , , | d e f g h i 2 3 & & _ : 6 6 : _ & , , , , ~ j k a                                           ",
"              } } } } } l m 2 3 & | n e e o p q e f g r 6 6 : _ & , , , , & _ : s t a                                           ",
"              } } } } } l u e f 2 v > 2 f o p q e e o w x y ( , , , , & _ : z A B C D .                                         ",
"              } } } } } l u e e e f 2 > E F h F e e o w x G 2 3 & & _ : z A z : ' & & % * .                                     ",
"              } } } } } l u e e e e e H H I J K f e o w x q e f g r z A z : _ & , , , , ~ { ]                                   ",
"                L } } } l M e e e e e 2 N f 2 O O 2 P Q R F e e o w z : _ & , , , , & _ : S T                                   ",
"                  } } } U * V f e e e 2 W e e f 2 O X Y Z d e e o ` y ( , , , , & _ : z A  .=                                   ",
"                            . ..V f e 2 W e e e e f +.@.Z K f e o p G 2 3 & & _ : z A A A #.^ * .                               ",
"                                . $.%.H W e e e e e 2 &.2 O O 2 P *.q e f g r z A A A z : =.-.& % * ;.                          ",
"                                  T >.F ,.f e e e e 2 W e f 2 O X '.1 e e o w A A z : _ & , , , , ~ ).]                         ",
"                                  T !.~.{.].,.f e e 2 W e e e f 2 ^.> 2 f o w z : _ & , , , , & _ : S T                         ",
"                                  T !.~.~.~./.q ,.f 2 W e e e e e H H O O F (._ & , , , , & ' : z A _.T                         ",
"                                  T !.~.~.:.<.[.}.q |.1.e e e e e 2 N f 2 I Z , , , , & _ R 2.A A A _.T                         ",
"                                  T !.~.~.3.4.z 5.6./.7.8.9.e e e 0.a.e e f 2 3 & & _ : z x b.A A A _.T                         ",
"                                U c.d.~.~.3.4.A e.f.g.g.h.i.8.9.e 0.a.e e e e f g r z A A x b.A A A j.T                         ",
"                                T k.@.F {.l.4.x m.:.~.{.n.o.h.i.,.g a.e e e e e o w A A A x b.A z p.c.U           a a a         ",
"                                T q.v r.E s.t.u.v.w.{.l.4.x.y.d z.F A.9.e e e e o w A A A x 2.p.c.@             a a a a a       ",
"            B.                  T C.D.E.F X F.G.H.I.J.K.L.M.N.O.P.Q.R.i.0.f e e o w A A z S.- @               a a a a a a a     ",
"            B.                  T T.W F ~.U.p A V.W.X.Y.Z.`. +A A .+1 ~.{.].d ++o w z @+@+S T                 a a a a a a a     ",
"                                T T.W F ~.3.4.A V.#+$+P %+A A A A x s.~.~.3.Q &+1 *+@+z A _.T                   a a a a a       ",
"                                T T.W F ~.3.4.A V.#+$+=+w A A A A x s.~.~.3.4.A x x A A A -+=                     a a a         ",
"                                ] ;+&.>+~.3.4.A V.#+$+=+w A A A z ,+'+~.~.3.4.A A A A z : > )+]                                 ",
"                                  = !+n ].R.Q ~+{+]+$+=+w A z R ^+/+(+~.~.3.4.A A z _+:+<+_ [+T                                 ",
"                                U c.}+$+~.d _+z |+1+2+:.Q 3+3+z 4+5+6+7+{.l.4.z _+F.F.R 8+z _.T                                 ",
"                                T 9+> d ~.=+0+x a+a.9.b+: z A  +c+F d+3 e+s.t.F.F._+z x b.A _.T                                 ",
"                                T f+d =.=.g+(.u.h+i+9.o w z j+k+l+m+$+~.n+E F._+z A A x b.A _.T                                 ",
"                                T o+$+~.d E F.P.&+p+q+r+s+F.r.t+u+v+$+$+$+3.p A A A A x b.A _.T                                 ",
"                                T o+$+$+$+3.p A w+P x+^.y+: z+A+4+o.$+$+$+=+w A A A A x b.z B+]                                 ",
"                                T o+$+$+$+=+w A C+a.e 1.p A 4+^+D+Q.$+$+$+=+w A A A z b.E+F+=                                   ",
"        G+} H+                  T !.$+$+$+=+w A C+a.e o w A x ^+D+I+v+~.$+=+w A z @+@+6 x -+=                                   ",
"      G+} } }                   U J+K+~.$+=+w A L+a.e o w A 4+^+A M+N+0.2+:.Q @+@+z A z _+O+P+]                                 ",
"      } } } }                     T f+2+2+:.Q ~+5.Q+e o w A 6 R+S+T+Q.e 9.2 _+z A z : U+V+_+S T                                 ",
"      H+} } }                   . c.W+X+D.d _+z V.Y+Z+P `+ @.@+@@@5+6+i.9.o w z : _ ~ ' #.A _.T                                 ",
"                            . * % & & 3 F ~.w A #@$@%@&@*@=@-@;@>@1 0.^.,@q (.F.'@> : z+b.A _.T                                 ",
"                        U c.)@& , , & _ !@3.w A ~@{@]@^@/@(@_@:@<@[@e f 2 =.F._+z+#.A x b.A _.T                                 ",
"                        T }@3 & & _ : z _+3.w A |@1@2@3@4@5@6@:@7@[@e e e 1.p A x b.A x b.A j.T } } } } } L                     ",
"                        = 8@~.9@r z A A 0@{.Q : a@b@c@d@e@f@g@h@i@H e e e o w A x b.A x 2.S.c.j@} } } } } } L                   ",
"                    . * ^ >+$+=+w A 6 k@O+l@=.& , , & m@n@o@p@q@r@s@e e e o w A x b.A M+t@S l } } } } } } } }                   ",
"                U J+^ ~ @.Y d :.Q b.U+r.u@( , , , , & @.> v@w@x@y@z@A@9.e o w A M+2.@+@+4+ .B@} } } } } } } }                   ",
"                T C@d l@( , & D@=.> @.4 ' Y ! & & ! ! & , , & E@F@G@H@I@I@P Q @+b.b.z A A b.J@K@L@} } } } } }                   ",
"              . c.M@W H 2 3 & , , , & @.' & & Y N@( , , , , , , ~ O@F a.++2 _+z A A A A A *+| & P@Q@j@} } }                     ",
"          . * % Z K &.2 e f 2 3 & , , , ( N@Y 4 ' Y ! & , , & ! ! & R@3 q 9.w A A A A A z S@| & _ T@l } }                       ",
"      U J+^ & , , & @.+.f e e f 2 3 4 ! ! & & @.' & & ! Y > @.& , , & _ U@1.w A A A z _+:+<+_ : z V@c..                         ",
"      T C@2 3 & , , & =.v 2 f e e f +.X & , , , ( N@Y & 4 W@3 & & _ : z : 1.w A z : _ X@Y@R z A A ^+Z )@c.U                     ",
"      ] ;+++++2 v > @.& , & I 2 f e 2 &.2 3 4 ! ! & & ! ' r+f g r z A A h :.Q : _ ~ _ : 2.x A z : ' 4 _ Z@T                     ",
"        . ..V ++P `@3 & & ! ! 4 3 2 H W e f +.X & , , , 4 n e o w A z : a@@.Y ~ _ : z A b.z+: _ ~ _ : 6 j.T                     ",
"            . .. #H ++d l@( , , , & @.2 f e 2 &.2 3 & & @.Y 2 P Q : U+' & & _ : z A A z 7 .#<+_ : 6 6 p.c.U                     ",
"                @ * V &.H 2 3 & , , & =.v 2 H W e f d l@( , & D@Y & , ( Y@R z A A z : _ X@Y@R 6 6 p.c.@                         ",
"                    . J++#++++2 v > @.& , & @.2 f e W H 2 3 & , , & _ : 2.x A z : _ ~ _ : 2.z+p.c.@                             ",
"          a a a a       . ..V ++P `@3 & , , & =.v 2 &.2 e f 2 D@@#: z A b.z+: _ ~ _ : 6 6 ##c.@                                 ",
"        $#a a a a a         . .. #H ++2 v > @.& , & @.+.f e e 1.p A A z 7 .#<+_ : 6 6 p.c.@                                     ",
"      %#a a a a a a a           @ * V ++P `@3 & , , , & I 2 f o w z : _ X@Y@R 6 6 p.c.@                                         ",
"        a a a a a a $#              . .. #H ++2 3 & & ! ! 4 3 q (._ ~ _ : 2.z+&#Q@@                                             ",
"          a a a a                       @ * V ++++d l@( , , , | Z _ : 6 6 *#Q@L@}                                               ",
"            a a $#                          . ..V &.H 2 3 & & _ : 6 6 p.c.@ } } G+                                              ",
"                                                . J++#++++g r 6 6 p.c.@                                                         ",
"                                                    . ..V P Q p.c.@                                                             ",
"                                                        . =#-#@                                                                 "};
