/* XPM */
static char *exit3[] = {
/* columns rows colors chars-per-pixel */
"55 55 180 2 ",
"   c #151315",
".  c #1A1516",
"X  c #17181A",
"o  c #1D1818",
"O  c #241C1C",
"+  c #2A1F1E",
"@  c #2C201F",
"#  c #1D1F24",
"$  c #1D252B",
"%  c #2D2222",
"&  c #2C2B2E",
"*  c #332524",
"=  c #382623",
"-  c #352927",
";  c #392927",
":  c #302728",
">  c #352B2C",
",  c #3B2D2C",
"<  c #3D302E",
"1  c #232A32",
"2  c #2D2D30",
"3  c #342F32",
"4  c #2A333B",
"5  c #353135",
"6  c #3B3435",
"7  c #36353A",
"8  c #3C3638",
"9  c #3E393B",
"0  c #4A2517",
"q  c #552E1B",
"w  c #582F19",
"e  c #603217",
"r  c #67371A",
"t  c #693718",
"y  c #6C3A1A",
"u  c #733E1A",
"i  c #4A2D25",
"p  c #512F21",
"a  c #4D3027",
"s  c #40312F",
"d  c #513226",
"f  c #50342A",
"g  c #433532",
"h  c #483733",
"j  c #443937",
"k  c #493A36",
"l  c #443B3B",
"z  c #4A3D3A",
"x  c #523D37",
"c  c #563E38",
"v  c #75411E",
"b  c #7D461E",
"n  c #7F481F",
"m  c #4B413E",
"M  c #51413D",
"N  c #764321",
"B  c #784624",
"V  c #674937",
"C  c #6F4B36",
"Z  c #293A47",
"A  c #353B43",
"S  c #3A3C43",
"D  c #3C434C",
"F  c #2D4859",
"G  c #3C4652",
"H  c #344857",
"J  c #3F4853",
"K  c #3F4D5A",
"L  c #3F505F",
"P  c #315165",
"I  c #3C5365",
"U  c #3C5669",
"Y  c #35586E",
"T  c #3E586B",
"R  c #3A5D74",
"E  c #38627B",
"W  c #444245",
"Q  c #4C4442",
"!  c #4F4847",
"~  c #45464A",
"^  c #494748",
"/  c #4C4A4C",
"(  c #524643",
")  c #524946",
"_  c #594B46",
"`  c #544C4B",
"'  c #5B4D4A",
"]  c #56504E",
"[  c #5B504E",
"{  c #444C56",
"}  c #504E51",
"|  c #4D5057",
" . c #545254",
".. c #5A5453",
"X. c #535459",
"o. c #56585B",
"O. c #5B5B5B",
"+. c #675042",
"@. c #6E5546",
"#. c #62524B",
"$. c #69574E",
"%. c #715442",
"&. c #625654",
"*. c #625957",
"=. c #6E5B52",
"-. c #625D5B",
";. c #6A5E5B",
":. c #68605F",
">. c #7A665A",
",. c #415363",
"<. c #415769",
"1. c #425A6D",
"2. c #565A62",
"3. c #5C5C61",
"4. c #565F68",
"5. c #425E73",
"6. c #5F6060",
"7. c #5A636D",
"8. c #436176",
"9. c #44637A",
"0. c #5B6976",
"q. c #556B7B",
"w. c #5A6E7D",
"e. c #646363",
"r. c #6A6362",
"t. c #676867",
"y. c #6A6867",
"u. c #606369",
"i. c #676868",
"p. c #6C6C6C",
"a. c #756A64",
"s. c #716D6B",
"d. c #6F7070",
"f. c #747273",
"g. c #7B7775",
"h. c #7B7A7C",
"j. c #80481F",
"k. c #827D7D",
"l. c #456982",
"z. c #476E88",
"x. c #486E88",
"c. c #596F80",
"v. c #4A718B",
"b. c #5D7283",
"n. c #51748D",
"m. c #4B7692",
"M. c #4D7C9B",
"N. c #527D9A",
"B. c #617686",
"V. c #657A8A",
"C. c #4E82A3",
"Z. c #5183A4",
"A. c #5187A9",
"S. c #538AAC",
"D. c #4D8EB6",
"F. c #528CB1",
"G. c #4E92BA",
"H. c #5390B7",
"J. c #5294BD",
"K. c #4F96C1",
"L. c #5397C0",
"P. c #5599C2",
"I. c #549ECB",
"U. c #54A0CE",
"Y. c #55A3D2",
"T. c #58A6D4",
"R. c #57A9DB",
"E. c #59ACDD",
"W. c #59AFE1",
"Q. c #5AB2E5",
"!. c #5BB5EA",
"~. c #5BB8EF",
"^. c #5CBCF4",
"/. c #5DBFF8",
"(. c #838386",
"). c #85878C",
"_. c #878B90",
"`. c #8C8F93",
"'. c #8F9397",
"]. c #989BA0",
/* pixels */
"^.^.^.^.^.^.^.^.^.^.^.^.^.^.^.^.^.^.^.^.^.^.^.^.^.^.^.^.^.^.^.^.^.^.^.^.^.^.^.^.^.^.^.^.^.^.^.^.^.^.^.^.^.^.^.",
"^.^.^.^.^.^.^.^.^.^.^.^.^.^.^.^.^.^.^.^./././././.^.^././.^.^.^.^././.^.^.^.^.^.^.^.^.^.^.^.^.^.^.^.^.^.^.^.^.",
"^.^.^.^.^.^.^.^.^.^.^.^.^.^.!.^.!.U.E.E.A.C.C.z.m.9.1.9.9.1.x.5.9.A.H.U.!.^.^.^./.^.^.^.^.^.^.^.^.^.^.^.^.^.^.",
"^.^.^.^.^.^.^.^.^.^./.^.J.,.{ ,.,.j S D l k s _ g M &.m m [ s _ Q , l j J 5.m.P.U.!.^.^.^.^.^.^.^.^.^.^.^.^.^.",
"^.^.^.^.^.^.^.^./.!.Z.<.5 [ s.z j y.j 6 y.*._ e.` *.t.) ) :.m -...( p.-.h ) z , j J H.^.^.^.^.^.^.^.^.^.^.^.^.",
"^.^.^.^.^.^.^.Q.F.<.j &.z -.p.` z -.l j p.] m O.m M 6.m ' r.h o./ z O.O.z e...' p.z 3 U S.~.^.^.^.^.^.^.^.^.^.",
"^.^.^.^.^./.H.{ j - :.p.' z p...g e.[ h O.) l o.M ! p.] ` -.g O.Q z t...k e.' ;.e.Q ( ' 6 ,.S.!.^.^.^.^.^.^.^.",
"^.^.^./.Q.P.S [ f.) j O...g O. .< y.O.g O.) l ^ m m 6.M m } g ..z z O.z Q s.( -.O.k y.:.j k 6 { Y./.^.^.^.^.^.",
"^.^.^.U.K > - *.O.O.h ) t.k ) ` , / / < ^ 9 g  .m 6 S 6 ; 9 , ^ 6 g / g ^ ..x X.^ _ r. .z -.k = ~ Z.^.^.^.^.^.",
"^.^.~.,.: & > *.` .. .k -.( , W - > > @ : @ @ : @ @ @ @ @ @ @ : @ + & * 3 j s / s *.y.k x *., 2 & - A.^.^.^.^.",
"^.^.S., > 2 5 (.)...O.j 6 6 + + o o     .                             . o O + 3 ; O./ k (.(.5 & & ; 5 P./.^.^.",
"^.m.j , & 2 6 h.'.k./ j O o X     X $ 4 1 F P A E E F E Y F Y F 1 Z $ #       o O > > k.'.h.5 2 & , * D T.^.^.",
"I.6 -.) 2 2 8 r.r.`.( O     X Z Y H L.P.1.W.T.E Q.T.8.!.I.E W.U.5.R.D.H z.Z X       m `.r.r.8 & 2 = ` m { ~./.",
"L., ` ) & 2 8 $.0 :.e.  $ 1 # 5.T 1 9.T 1 8.T 1 8.U 1 8.U 1 8.U 1 5.T 1 l.I # 4 1   r.;.0 $.8 & & ) y...> C./.",
"{ , * - & 2 6 =.y d a.A K.P.1.Y.P.L Y.L.L T.J.U Y.J.U Y.J.U T.J.T Y.K.T Y.K.T R.G.A s.f t =.8 2 & ` y.X.< <.^.",
"z p...g & 2 8 =.j.w ;.4.W.T.9.W.T.8.W.T.E Q.T.8.Q.T.8.Q.T.E W.Y.R !.U.5.Q.U.5.!.U.| ;.e j.$.8 2 & j Q 6 @ S T.",
"! t.f.` & 2 6 =.n e ' W 5.T 1 8.T 1 R U 1 E <.1 5.U 1 8.L 1 E L 1 5.U 1 5.U 1 5.U 9 ' e j.=.8 2 & * < m ) , m.",
"> ^ o.Q > 2 8 =.n t c 7.I.J.,.U.J.U U.J.L U.J.U U.G.U U.J.U U.J.U U.G.U U.G.U Y.D.| c y j.=.8 2 & ) p.e.o.6 z.",
"- * * - 2 & 6 =.j.u f 7.Q.T.8.Q.Y.5.W.T.5.W.T.E W.T.E Q.Y.E !.U.R ~.Y.9.!.U.R !.U.X.f u j.$.8 & > m  .l < % M.",
"t.r.] g & 2 5 $.n u a Q 5.T 1 5.U 1 8.U 1 5.U 1 8.U 1 5.L 1 8.U 1 5.U 1 5.U 1 9.U l a u j.$.5 2 & % % % : * S.",
"t.p.t.m & & 5 $.n u i 2.U.J.,.U.J.L U.J.L I.J.U U.H.U U.J.U U.H.U U.G.U U.D.U U.G./ i u j.$.5 2 & m e.s.-.< x.",
"6 l l > & & 5 $.b u i 7.Q.T.9.!.T.8.Q.T.E Q.T.E Q.T.E Q.T.E Q.Y.8.!.Y.R !.Y.E ~.U.X.a u N $.5 & & j O.-.} - m.",
"m M ' j & & 6 $.n v g ` 5.U 1 R T 1 E U 1 8.U 1 8.U 1 R U 1 8.U 1 5.I 1 5.U 1 5.I Q h u j.$.6 & & ; g s s * M.",
"O.i.f.! & 2 6 $.n v z 7.I.J.U I.J.L U.H.L U.J.L U.G.I U.G.U U.G.U I.G.U Y.D.U Y.D.X.m u j.$.8 & & ' (.g.p.m { ",
"9 l l > & & 8 -.+.V ` 0.~.E.q.^.W.9.~.E.9.^.W.9.~.E.9.^.E.9./.E.l.~.R.l.^.R.l.^.R.2.` V +.O.6 2 & j .. .] l D ",
"< l _ l & 2 8 O. .X. .7.Q.T.1.Q.T.1.Q.Y.1.Q.T.1.Q.Y.5.Q.Y.T Q.Y.5.!.I.5.!.I.T ~.I.} X.X.o.6.6 2 > * ; < g * U ",
"] O.O.m & 5 8 -. .X.X.o.E.U.I Q.Y.{ W.U.L W.U.K W.U.L W.U.L Q.U.L Q.P.,.W.I.K W.I.` o.X. .O.6 2 & Q y.s.r.m L ",
"> 9 9 3 & & 6 [ q q ] w.~.E.v.!.W.v.~.E.v.~.W.v.~.E.v.~.E.v.~.E.v.~.W.x.~.E.v.^.E.4.` q w [ 6 2 & j  .X.] 6 G ",
"g 6 k s & & 8 #.y t ] B.~.^.E.^.^.W.^.^.W.^.^.W.^.~.W.^.~.W.^.^.W.^.^.W.^.^.W.^.~.b.` r y #.6 2 & * @ @ - @ 8.",
"-.:.y.) & 2 6 #.b v ` B.~.^.^.^.^.^.^.^.^.^.^.^.^.^.^.^.^.^.^.^.^.^.^.^.^.^.^.^.~.b.' v b #.6 2 & m :.:.:.m 8.",
"~ / ..Q & 2 6 #.b v ] B.~.^.^.^.^.^.^.^.^.^.^.^.^.^.^.^.^.^.^.^.^.^.^.^.^.^.^.^.^.b.` N b #.6 2 & m O.o.o.l 1.",
"> : 3 ; & 2 8 #.b v ] b.~.^.^.^.^.^.^.^.^.^.^.^.^.^.^.^.^.^.^.^.^.^.^.^.^.^.^.^.~.b.` v n #.6 2 & < 6 < > * 9.",
"*...` j & & 6 #.b v ` b.~.^.^.^.^.^.^.^.^.~.^.^.^.^.^.^.^.^.^.^.^.^.^.^.^.^.^.^.~.c.` u j.#.6 & & , z ) ( - Z.",
":.d.d.m & & 6 ..%.@.X.b.~.^.^.^.^.^.^.^.^./.^.^.^.^.^.^.^.^.^.^.^.^.^.^.^.^.^.^.~.c.} @.%.*.5 & & Q 6.y.p.g x.",
"} } ^ 6 & 2 6 6.3.o. .w.~.^.^.^.^.^.^.^.^.^.^.^.^.^.^.^.^.^.^.^.^.^.^.^.^.^.^./.~.c.| 2.2.3.6 2 2 ; , 6 j * 5.",
", < ; * & 2 6 O.o. .} b.~.^.^.^.^.^.^.^.^.^.^.^.^.^.^.^.^./.~.^.^.^.^.^.^.^.^.~.~.c.} X.X.O.8 & & z ' [ ..g 5.",
":.f.g.m & 2 6 [ d d ) b.~.^.^.^.^.^.^.^.^.^.^.^.^.^.^.^.^.^.^.^.^.^././.~./.~./.~.c./ p p [ 6 & & ) 6.6.y.` ,.",
" .:.t.m & 2 6 #.y y ` b.~./.^.^.^.^.^.^.^.^.^.^./.~.^.^.^.^.^.^.^.^.~.^./.~././.~.c.` y y #.6 2 2 j ^ / ~ < U ",
"6 9 8 ; & & 6 [ b v [ b.~.^.^.^.^.^.^.^.^.^.^.^.^.^.^.^.^.^.^.^.~.~./.^.^././.~.~.c.[ N N #.6 & & ; g ; , * 9.",
"< m ' m & 2 8 #.n N [ B.~.^.^.^./.~.^.^.^.^.^.^.^.^.^.^.^.^.^.^././.~./.^.~.~./.~.c.#.N N #.8 2 & ) s.s.p.( K ",
"O.6.6.W & 2 6 #.n v ' b.^.^.^.^.^.^.^.^.^.^.~.^.^.^.^.^.^.^.^.^.^.^.^.^.^.^.^.^.~.c.[ N j.#.8 2 & m d.f.i.` 8 ",
"W ^ ^ < & 2 8 #.j.B ..b.~.^.^.^.^.^.^.^.^.^.^.^.^.^.^.^.^.^.^.^.^.^.^.^.^.^.^.^.~.c.[ B j.#.8 & 2 , l W W 8 7 ",
", ; s , & & 6 *.>.a.e.w.~.^.^.^.^.^.^.^.^.^.^.^.^.^.^.^.^.^.^.^.^.^.^.^.^.^.^.^.~.q.3.a.k.*.5 & & ; g k z g S ",
"-.*.-.z & & 6 3.u.O.} q.^.^.^.^.^.^.^.^.^.^.^.^.^.^.^.^.^.^.^.^.^.^.^.^.^.^.^.^.~.q.} 3.&.3.5 2 & ) f.y.p.-.> ",
"}  . .5 & & 5 O.X.X. .w.~.^.^.^.^.^.^.^.^.^.^.^.^.^.^.^.^.^.^.^.^.^.^.^.^.^.^.^.~.q.} X.} o.6 & & z X.^ W Q > ",
"- - - * 2 2 6 ..k f ` w.~.^.^.^.^.^.^.^.^.^.^.^.^.^.^.^.^.^.^.^.^.^.^.^.^.^.^.^.~.w.} f x [ 6 & 2 = , , > + A ",
"-...) g & & 6 _ y y ` w.~.^.^.^.^.^.^.^.^.^.^.^.^.^.^.^.^.^.^.^.^.^.^.^.^.^.^.^.~.q.` y t _ 5 2 & Q s.s.:.m A ",
"p.p.o.j & 2 < #.B N ` w.~.^.^.^.^.^.^.^.^.^.^.^.^.^.^.^.^.^.^.^.^.^.^.^.^.^.^.^.~.q.' v b #.5 2 & m e.3...} 3 ",
"6 6 > - & & 6 #.u N ' w.~.^.^.^.^.^.^.^.^.^.^.^.^.^.^.^.^.^.^.^.^.^.^.^.^.^.^.^.~.0.[ v v #.5 & & = > > s ; : ",
"_ ' ( 6 & 2 6 [ C a.g.c.~.^.^.^.^.^.^.^.^.^.^.^.^.^.^.^.^.^.^.^.^.^.^.^.^.^.^.^.~.c.f.a.C #.5 2 & z [ &.:.` 6 ",
"e.d.d.m & 2 3 e.(.].'.V.~.^.^.^.^.^.^.^.^.^.^.^.^.^.^.^.^.^.^.^.^.^.^.^.^.^.^.^.~.V.'.].(.u., 2 & Q 3.2.o.^ 3 ",
"> < < - & & 6 f.`._.g.0.~./.^.^.^.^.^.^.^.^.^.^.^.^.^.^.^.^.~.^.^.^.^.^.^.^.^.^.!.0.f._.`.f.5 2 & - 5 g 6 : 7 ",
"L <.U S & & 6 g.g.' / S.^.^.^.^.^.^.^.^.^.^.^.^.^.^.^.^.^.^.^.^.^.^.^.^.^.^.^.^.^.A./ ' k.V.5 2 & 6 A 5 3 G F.",
"^.^.^.l.& & , M / N.W./.^.^.^.^.^.^.^.^.^.^.^.^.^.^.^.^.^.^.^.^.^.^.^.^.^.^.^.^.^.^.W.N.Q c > & : l.!.R.R.!./.",
"^.^.^.Z.K { ~ v.E./.^.^.^.^.^.^.^.^.^.^.^.^.^.^.^.^.^.^.^.^.^.^.^.^.^.^.^.^.^.^.^.^.^.^.E.n.~ J K M./.^.^.^.^."
};
