/* XPM */
static char *exit0[] = {
/* columns rows colors chars-per-pixel */
"55 55 201 2 ",
"   c #231715",
".  c #261816",
"X  c #291916",
"o  c #261A19",
"O  c #2B1D1B",
"+  c #301F1D",
"@  c #2D201F",
"#  c #30211E",
"$  c #2E2221",
"%  c #322524",
"&  c #362827",
"*  c #3B2926",
"=  c #352A2A",
"-  c #3A2D2C",
";  c #3D302E",
":  c #342F31",
">  c #382F31",
",  c #353034",
"<  c #3C3333",
"1  c #36363C",
"2  c #3D3738",
"3  c #3E393B",
"4  c #4A2414",
"5  c #49271A",
"6  c #522713",
"7  c #552A15",
"8  c #5C2E15",
"9  c #522D1B",
"0  c #5A2F18",
"q  c #5E3017",
"w  c #55301E",
"e  c #5C311B",
"r  c #633216",
"t  c #6A3616",
"y  c #6E3917",
"u  c #643519",
"i  c #693718",
"p  c #67381A",
"a  c #6D3A1A",
"s  c #703A17",
"d  c #723D1B",
"f  c #783F19",
"g  c #432B25",
"h  c #4B2D23",
"j  c #412E2A",
"k  c #41312E",
"l  c #4E332A",
"z  c #533323",
"x  c #5E3821",
"c  c #523529",
"v  c #54392D",
"b  c #593B2C",
"n  c #433533",
"m  c #483632",
"M  c #463936",
"N  c #4A3A35",
"B  c #433B3B",
"V  c #4B3D3A",
"C  c #523C34",
"Z  c #513E38",
"A  c #633B23",
"S  c #76411C",
"D  c #7B441D",
"F  c #7F481F",
"G  c #4C413E",
"H  c #5D4233",
"J  c #54423C",
"K  c #5A463D",
"L  c #5D483D",
"P  c #6D4125",
"I  c #62412E",
"U  c #68452F",
"Y  c #724526",
"T  c #7A4B28",
"R  c #644431",
"E  c #694631",
"W  c #6B4832",
"Q  c #634A3C",
"!  c #694F3F",
"~  c #6C513F",
"^  c #363C45",
"/  c #3A3D44",
"(  c #443F40",
")  c #3C434D",
"_  c #3D4A56",
"`  c #3E505F",
"'  c #3E5262",
"]  c #3D5568",
"[  c #444244",
"{  c #4C4443",
"}  c #4F4847",
"|  c #464649",
" . c #494749",
".. c #4D4A4C",
"X. c #514341",
"o. c #594540",
"O. c #544946",
"+. c #5C4A43",
"@. c #534C4B",
"#. c #594D4A",
"$. c #5B514E",
"%. c #454D55",
"&. c #524F51",
"*. c #555354",
"=. c #5A5453",
"-. c #5D5856",
";. c #575658",
":. c #5B5759",
">. c #575858",
",. c #5C5B5C",
"<. c #6E5240",
"1. c #61514E",
"2. c #745641",
"3. c #795A42",
"4. c #615653",
"5. c #635957",
"6. c #615C5C",
"7. c #685E5B",
"8. c #66605F",
"9. c #6E625C",
"0. c #70655E",
"q. c #425464",
"w. c #425A6D",
"e. c #5E5F63",
"r. c #445D71",
"t. c #625F61",
"y. c #5F6061",
"u. c #5F6268",
"i. c #46667D",
"p. c #646364",
"a. c #6B6564",
"s. c #6A6867",
"d. c #64656A",
"f. c #696769",
"g. c #66686D",
"h. c #6C6B6B",
"j. c #716761",
"k. c #736964",
"l. c #716C6C",
"z. c #706F6F",
"x. c #676A71",
"c. c #6B6D72",
"v. c #6D7176",
"b. c #6E7278",
"n. c #747373",
"m. c #7B7674",
"M. c #73767B",
"N. c #797779",
"B. c #75797E",
"V. c #7C7A7C",
"C. c #80471D",
"Z. c #844A1F",
"A. c #8A4E1F",
"S. c #854C20",
"D. c #8A4E20",
"F. c #8E5121",
"G. c #83512A",
"H. c #88552B",
"J. c #925422",
"K. c #975824",
"L. c #985924",
"P. c #807D7B",
"I. c #486D86",
"U. c #4A738F",
"Y. c #4C7997",
"T. c #777B81",
"R. c #7A7D83",
"E. c #817E80",
"W. c #4F809F",
"Q. c #7E8186",
"!. c #7F8389",
"~. c #4E86AA",
"^. c #5085A7",
"/. c #5488AA",
"(. c #528DB2",
"). c #5493BA",
"_. c #5699C3",
"`. c #569ECA",
"'. c #57A1CE",
"]. c #59A9D8",
"[. c #5BAFE0",
"{. c #5BB2E6",
"}. c #5CB5EA",
"|. c #5CB8EE",
" X c #5CBCF4",
".X c #5CBFF8",
"XX c #828386",
"oX c #82868B",
"OX c #85898E",
"+X c #898B8F",
"@X c #868B91",
"#X c #898E93",
"$X c #908F91",
"%X c #8C9196",
"&X c #8E9398",
"*X c #91969B",
"=X c #969699",
"-X c #95999E",
";X c #979BA0",
":X c #9B9EA2",
">X c #9FA1A5",
/* pixels */
" X X X X X X X X X X X X X X X X X X X X X X X X X X X X X X X X|. X X X X X X X X X X X X X X X|. X X X X X X",
" X X X X X X X X X X X X X X X X X X X X X.X.X.X X.X X X X.X X X.X|..X.X.X X X X X X X X X X X X X X X X X X X",
" X X X X X X X X X X X X X.X X}. X|.'.].[.~.~.W.I.U.i.w.i.i.w.i.i.i.^.(.`.{. X.X.X X X X X X X X X X X X X X X",
" X X X X X X X X X X X.X X).' _ q.' 3 ( ) n G n O.G G $.G G $.n O.{ - G 3 ) w.U.).'.{. X X X X X X X X X X X X",
" X X X X X X X X X.X}.~.w.1 #.k.G N 0.G - s.-.L s.$.$.s.O.G 8.J ,.=.J h.7.m O.V ; 3 ) (. X X X X X X X X X X X",
" X X X X X|. X X[.(.r.M -.G -.h.$.G ,.G < g.#.G >.} G y.J @.8.G =.*.M ,.,.V p.:.+.h.G , ' /.}. X X X X X X X X",
" X X X X X X X)._ G & 5.z.$.G s.*.n 8.*.n ,.@.n >.G G z.*.K y.G *.{ M p.-.M p.#.7.p.} J $.- ` ^.{. X X X X X X",
" X X X X X{.`.) #.n.@.n -.>.n -.*.; 8.8.n >.@.G %.G G ,.} G @.; ,.G M ,.{ G z.O.5.>.N a.p.G M 2 _ `. X X X X X",
" X X X X[.' ; $ =.y.>.G } s.G } &.-  .@.- | 2 n *.G : [ 2 = 3 =  .n 2 ..n  .:.V *. .K p.*.m a.*.& ^ W.|. X X X",
" X X X Xw.G 8.G = @.>.$.N ,.G ; B = = > @ = % $ = @ @ @ @ @ @ @ = @ @ = % : 2 k ..n =.h.G $.s...% G - W. X X X",
" X X X(., &.s.p.G * &.,.G - , @ O O .       X .   @   @   @ @             o X @ , & >.*.k m.,.= G s.{ , (. X X",
" X XY.2 ; - @.y.>.G - ..3 @ .   . $ n X.=.t.a.f.s.p.,.G ..y.8.8.f.a.6.=.B - $ .   X = & G ,.2 = h.n...@ ) `. X",
" X].2 5.s.O.% ; &.*.< @ @   @ G v.#X:X:X-X-X*X*X&X%X#X,.s.#X%X&X*X*X-X;X:X=X+Xs.M . . O 2 B % $.s...* O.G ` {.",
".X_., @.v.h.} & = 2 =     2 P.>X-X*X#X+XoXXXV.V.V.oX@Xp.s.@X!.V.V.P.E.OX+X#X*X:X-Xm.-   O % V >.G ; -.s.=.- W.",
"].%.> % < @.>.*.2 @ @   *.:X;X@XP.s.1.C c h 5 5 h N.@X,.d.%Xz.5 5 h h c C 5.l.!.%X>X+X{   O B : ; k.n.p.>.< ` ",
"w.V h.5.; @ 2 ..G @   } :X&XXX9.c 4 7 7 8 i p 8 9 N.%X,.s.#Xa.6 8 t a 7 7 7 5 l s.+X-X=XB   O N ,.p.>.| ; # 1 ",
"/ { p.n.z.@.% % $ . < $X&XXXJ 4 8 s d D D D.D.a x n.@Xt.f.#Xf.0 S F.K.p S Z.r 4 5 1.+X*XoX% O 2 3 - = ; G @.; ",
") =  .:.,.,.*.V @ X l.-XOX+.6 i S.S.D S.D F.D.d w N.@Xt.t.#Xa.0 D J.K.a F J.a p d 4 5.+X-X=.. O G #.,.h.8.-.< ",
": = % % = : ( ( @ = #X&Xz.4 d D.D.D.S.D D J.D.a x N.@X:.t.#Xa.0 F F.K.a D J.d S F.p 5 B.&XV.O @ G >.>.*.G , % ",
"- p.a.=.V < % @ O ( #X#XK 7 S.J.D.D.F.D D J.D.i w N.@Xt.x.#Xz.0 D J.K.p F J.d S F.S 4 5.@X+X< O $ & & @ @ $ @ ",
"B p.h.f.t.t.6.n o =.#XE.c a C.J.D.S.D.S.S.D.D.u 9 N.OXt.f.#Xl.9 D J.J.a Z.J.a S F.D r J +X#X{ @ G y.p.8.l.8.; ",
"= n 3 G 2 ( [ - o 6.#XT.z D C.J.S.S.J.f S.J.D.u h N.OXe.f.#Xl.w S J.J.S Z.J.S S F.F a v oXoXO.# G ..&.,.6.*.- ",
"% G G #.O.V n o o t.#Xn.x D C.J.D S.D.d S.J.S.u z T.#Xt.f.#Xx.w D F.F.S Z.L.S S F.D S v Q.!.*.# # % - ; n ; @ ",
"= >.a.n.t.t. .@ o t.@Xc.A D Z.J.D S.J.f S.J.S.u z N.#Xt.t.#Xf.w S J.J.a Z.L.i S J.D d v Q.!.@.# G -.h.P.P.l.G ",
"% 3 3 B 2 2 - @ o e.OXc.b Y T G.Y T G.A T G.T A l T.@X6.t.#Xx.l Y G.H.P Y H.P P T Y P G Q.!.@.@ G | ..>.>.G G ",
"@ ; M #.#.$.$.@ o e.@XT.t.f.N.t.n.z.h.N.p.n.c.p.c.R.@X:.t.#XM.t.h.n.p.M.h.s.n.p.m.f.8.z.Q.OX@.o @ = % * - G @ ",
"= &.,.,.,.,.*.% O e.OXT.d.x.T.e.T.c.p.R.t.M.M.t.M.T.OX:.t.@XM.t.z.T.y.B.v.d.Q.y.B.z.d.M.Q.!.&.@ G p.,.s.h.s.G ",
"@ - 2 3 1 , < @ o :.#Xv.m c c b c v b c c v c c N T.OX:.t.@Xc.M w v v w c b c c z H z G Q.!.G @ B  . .*.-.&.B ",
"# 2 3 M G G ; @ o :.#Xv.z 8 a f t d f r s f t r c M.OX=.t.@Xx.g i S S 8 S S r r S S r G R.!.@.@ % * $ $ % % @ ",
"; ,.8.8.z.m.a.; O &.#Xc.A d S.K.f D.F.a D.D.D f C T.OX..e.OXx.l F F.J.i F K.S S F.F S H R.!.G @ G s.p.8.8.8.G ",
"- | ..>.g.f.>.; O &.@Xc.R d S.J.d F.F.d D.D.D D H B.oX..:.+Xc.l F F.J.r F J.S S J.S.S H Q.!.G @ G p.p.>.>.>.G ",
"@ = & : - - & @ o @.@Xv.W A S.L.d J.F.d D.A.D C.Z T.oX .:.+Xv.l F F.J.i Z.K.S S K.F S J B.!.[ @ = 3 2 2 = = @ ",
"; 5.*.O.$.*.G & @ | !.b.I S F J.a D.J.d D.D.d T b B.XX .:.@Xv.c S.F.F.r S.J.f a J.S.f o.R.oX( o - n G G G O.# ",
"G ,.z.z.p.,.,.n @ ..@Xv.$.! ~ 3.2.3.3.<.2.2.<.<.5.V.oX( &.@Xc.O.2.3.2.Q 2.3.<.<.3.2.<.=.E.oX( O G y.,.,.s.n.G ",
", ..@.| [ [ [ % .  .@XB.h.v.XXg.R.T.x.OXd.R.T.x.R.R.oX( &.@XB.x.T.oXt.oXb.v.E.g.E.T.x.R.R.E.B O & < - , < G @ ",
"@ ; ; * = - & @ . G @XM.>.>.8.$.t.:.=.t.&.t.t.#.t.T.oX( @.@XM.:.:.t.$.t.:.e.t.&.t.t.&.t.R.E.B O 2 O.$.$.$.$.2 ",
"G 5.n.m.s.8.-.* o [ OXv.l 7 e e 7 0 r 7 e 8 7 0 C T.oXB &.OXc.j 0 0 8 4 r r 9 0 r 0 0 V R.!.( @ @.f.s.y.p.f.$.",
"< *.p.s.>.&.| - . G OXv.H q D A.s Z.S.i S.C.d D Z T.oXB ..@Xc.c C.D.D.0 S.D.a d S.f a +.R.R.n @ 3 @.*. . .| ; ",
"@ , 3 2 - & # @ . G OXv.I r Z.F.f J.J.a J.D.f S.Q B.XXB ..@Xc.b S.F.D.t S.J.D f F.D.f +.R.R.n O @ # ; k ; ; $ ",
"% ; G #.5.8.-.; . G oXv.H p S.F.T D.D.a J.D.f A.Q B.R.M ..@Xc.b S.D.S.t S.J.f d J.S.f +.R.R.< O } a.l.l.z.h.J ",
"G y.6.8.y.f.,.; o G OXv.I p Z.F.T F.F.a J.D.T A.+.T.R.n ..#Xx.b D.D.D.p D.J.D d J.S.f o.E.oX< # ..,.,.g.M.s.@.",
"= [ | | ) 3 < % . B oXv.H p F F.d D.D.i F.S.d D.o.R.R.n ( +Xx.b D.D.S.p S.F.d s D.S.A o.R.R.< O = < < G | [ 2 ",
"@ ; = k N o.G % . B !.M.8.8.k.9.k.j.0.j.j.k.a.t.t.R.@Xn ( $Xc.t.0.k.a.a.j.j.a.7.k.k.7.t.R.T.- o $ ; ; - M G M ",
"O.,.5.,.8.,.6.3 o B @XB.d.v.!.u.R.M.g.+Xt.R.T.d.E.R.P.m ( +XT.z.c.!.e.!.b.c.@Xt.R.T.g.R.R.T.n X { f.m.n.s.s.8.",
"3 @.*.&.| [ ..; X B oXb.} J J J ( Z Z Z Z Z Z Z &.M.E.n ( $Xc.( Z o.Z J Z K J Z K Z Z &.T.R.n O , &.,.;. .[  .",
"@ = % % & - = $ X M OXb.v 7 t y 8 a f 8 s s 8 t Z T.E.k ( @Xx.c s s a 7 s s r r s t 8 K T.R.- . $ $ = - - - O ",
"} 8.>.} $.,.$.; X M oXv.I r Z.A.s D.D.i J.D.d D.o.T.R.k ( +Xc.b A.J.D.r D.J.S.D J.D.a o.R.R.* O n #.p.l.z.p.{ ",
"*.h.v.>.>.;.;.M X N oXv.R t A.F.a D.D.i J.J.d S.Q T.E.k ( #Xc.A A.J.D.0 D.J.C.C.D.D.a K R.T.g O B :.,.p.6.;.%.",
"& 2 2 - = 2 < $ . m oXc.J H I W H W I b W W I W o.T.!.g [ OXh.Z E W E b E W E b E E b o.R.R.* X * - = = = - - ",
"J O.#.} G #.O.% . n oXQ.b.V.XXoX+X+X%X+X+XoXXXB.b.E.!.g V @XR.m.R.P.oX@X#X@X#X$X+XE.T.b.R.R.g X - #.4.$.=.f.#.",
"*.y.h.z.,.>.*.; . n !.OXOX#XOX+XOX+X+X+X@X@X+XoX@X#XR.* N oX+X#X@X#X@X@X@X$X@X#X$X$X$X$X@XE.g X 2 t.c.t.,.:...",
"= ; ; ; < : = @ @ 5 G G G G J { X.X.{ G J J { { [ o.B 5 g [ B [ X.( Z o.( ( o.( ( o.( ( ( ( + + = > > < 1 < = ",
"` ` ] ] ] ` ` U.(././././././././././././././././././././././././././././././././././././././.U.^ ^ _ ^ : : ) ",
" X|..X X X X X X X X.X.X.X.X X X.X.X.X.X.X.X.X.X.X.X X.X.X.X.X.X.X.X X.X.X.X.X.X.X.X.X.X.X.X.X X[.}.|.}.].].|.",
" X X X X X X X X X.X X X X X X X X X X X X X X X X X X X X X X X X X X X X X X X X X X X X X X X X X X X X X X"
};
