/* XPM */
static char * exit0_xpm[] = {
"64 64 350 2",
"  	c #F8C984",
". 	c #F2C481",
"+ 	c #BB9764",
"@ 	c #F2C480",
"# 	c #BA9662",
"$ 	c #B69462",
"% 	c #6D6052",
"& 	c #746D63",
"* 	c #B99664",
"= 	c #EFC27F",
"- 	c #B79461",
"; 	c #4C4030",
"> 	c #57524B",
", 	c #777066",
"' 	c #59534C",
") 	c #675D50",
"! 	c #4C3F2E",
"~ 	c #5C564E",
"{ 	c #716A60",
"] 	c #544530",
"^ 	c #F4C582",
"/ 	c #6A5E4F",
"( 	c #282724",
"_ 	c #716A61",
": 	c #5A544C",
"< 	c #4B433B",
"[ 	c #564A3A",
"} 	c #EDC07E",
"| 	c #F1B183",
"1 	c #756E64",
"2 	c #626057",
"3 	c #66645B",
"4 	c #5D5850",
"5 	c #736C62",
"6 	c #322F2C",
"7 	c #5C5246",
"8 	c #3D3730",
"9 	c #665C4F",
"0 	c #6D6255",
"a 	c #B99E78",
"b 	c #F2CE9C",
"c 	c #554632",
"d 	c #65635A",
"e 	c #868478",
"f 	c #828175",
"g 	c #65645A",
"h 	c #4A423A",
"i 	c #605E55",
"j 	c #544838",
"k 	c #F3C581",
"l 	c #6D6759",
"m 	c #636159",
"n 	c #858276",
"o 	c #5F5549",
"p 	c #646259",
"q 	c #4C443B",
"r 	c #574C3E",
"s 	c #EFB780",
"t 	c #706A5C",
"u 	c #5B574F",
"v 	c #61574B",
"w 	c #5D5247",
"x 	c #2D2A26",
"y 	c #5D5246",
"z 	c #5F5448",
"A 	c #4E453A",
"B 	c #B59261",
"C 	c #58544C",
"D 	c #636158",
"E 	c #605F56",
"F 	c #626158",
"G 	c #5A554E",
"H 	c #6F695F",
"I 	c #514F48",
"J 	c #F4BB83",
"K 	c #6E685A",
"L 	c #838176",
"M 	c #59544D",
"N 	c #817F73",
"O 	c #5E5449",
"P 	c #494139",
"Q 	c #574B3A",
"R 	c #F6C783",
"S 	c #756D5D",
"T 	c #838276",
"U 	c #58534C",
"V 	c #5A554D",
"W 	c #726B61",
"X 	c #5F554A",
"Y 	c #584B3C",
"Z 	c #BA9765",
"` 	c #504E47",
" .	c #5B564E",
"..	c #473F36",
"+.	c #B99764",
"@.	c #6B665B",
"#.	c #807E72",
"$.	c #5D5448",
"%.	c #59544C",
"&.	c #766F65",
"*.	c #6D6152",
"=.	c #6B6356",
"-.	c #67655C",
";.	c #57524A",
">.	c #6E675A",
",.	c #827F74",
"'.	c #7F7C71",
").	c #64625A",
"!.	c #59554D",
"~.	c #7C796F",
"{.	c #4C443C",
"].	c #594C3C",
"^.	c #807D72",
"/.	c #4F483F",
"(.	c #625F56",
"_.	c #7B786E",
":.	c #515048",
"<.	c #817F74",
"[.	c #463E35",
"}.	c #817E73",
"|.	c #61564A",
"1.	c #3F3A33",
"2.	c #626058",
"3.	c #7C796E",
"4.	c #838175",
"5.	c #484037",
"6.	c #B89562",
"7.	c #656055",
"8.	c #544D43",
"9.	c #7D7A6F",
"0.	c #6B6960",
"a.	c #68655C",
"b.	c #6A685E",
"c.	c #69675D",
"d.	c #848276",
"e.	c #594B3B",
"f.	c #63594C",
"g.	c #817D72",
"h.	c #4A453D",
"i.	c #544C43",
"j.	c #67635A",
"k.	c #66645A",
"l.	c #5F503E",
"m.	c #F8D4A0",
"n.	c #5C5447",
"o.	c #56514A",
"p.	c #615E56",
"q.	c #4B443B",
"r.	c #565049",
"s.	c #4F4B44",
"t.	c #5D5347",
"u.	c #544C42",
"v.	c #646158",
"w.	c #6C6A60",
"x.	c #F8CB8A",
"y.	c #70695B",
"z.	c #605D55",
"A.	c #555049",
"B.	c #504A43",
"C.	c #4B443C",
"D.	c #626258",
"E.	c #5D5346",
"F.	c #4E4E3C",
"G.	c #555848",
"H.	c #3B3D34",
"I.	c #656158",
"J.	c #504539",
"K.	c #7E7B70",
"L.	c #4E463D",
"M.	c #57564C",
"N.	c #58544D",
"O.	c #646557",
"P.	c #575940",
"Q.	c #585A4A",
"R.	c #5C5146",
"S.	c #828075",
"T.	c #494138",
"U.	c #554E45",
"V.	c #7F7D72",
"W.	c #65645B",
"X.	c #5C5C4E",
"Y.	c #5D604B",
"Z.	c #4D463D",
"`.	c #4A4239",
" +	c #838075",
".+	c #858277",
"++	c #60564A",
"@+	c #615F56",
"#+	c #574A3B",
"$+	c #695E4C",
"%+	c #615F57",
"&+	c #848075",
"*+	c #625341",
"=+	c #5C5649",
"-+	c #4F473D",
";+	c #4E4942",
">+	c #48423A",
",+	c #4B433A",
"'+	c #57514A",
")+	c #706A60",
"!+	c #4F4335",
"~+	c #676357",
"{+	c #504940",
"]+	c #807E73",
"^+	c #4A4338",
"/+	c #4B4537",
"(+	c #4E5552",
"_+	c #65625A",
":+	c #3C362F",
"<+	c #554B3F",
"[+	c #61564B",
"}+	c #48433C",
"|+	c #64635A",
"1+	c #66645C",
"2+	c #646058",
"3+	c #69655D",
"4+	c #5F5A52",
"5+	c #6D6659",
"6+	c #636058",
"7+	c #514E47",
"8+	c #4F463D",
"9+	c #66635B",
"0+	c #67645B",
"a+	c #6F685B",
"b+	c #4D463E",
"c+	c #50483E",
"d+	c #5E574F",
"e+	c #50483F",
"f+	c #605B53",
"g+	c #625D55",
"h+	c #6B695F",
"i+	c #514940",
"j+	c #5B544C",
"k+	c #66635A",
"l+	c #5D4D38",
"m+	c #565046",
"n+	c #6D6B61",
"o+	c #50473E",
"p+	c #5C5145",
"q+	c #4C443A",
"r+	c #5E5347",
"s+	c #656259",
"t+	c #39322C",
"u+	c #4D4132",
"v+	c #F2B683",
"w+	c #F6C384",
"x+	c #60554A",
"y+	c #4D443B",
"z+	c #B99663",
"A+	c #6A655A",
"B+	c #565047",
"C+	c #4B4339",
"D+	c #625F57",
"E+	c #67645C",
"F+	c #534E47",
"G+	c #52432E",
"H+	c #504C44",
"I+	c #58534B",
"J+	c #554F48",
"K+	c #565148",
"L+	c #817E74",
"M+	c #524B42",
"N+	c #818074",
"O+	c #4A4138",
"P+	c #4D5452",
"Q+	c #5C574F",
"R+	c #68665C",
"S+	c #554F45",
"T+	c #67665D",
"U+	c #5E5549",
"V+	c #4A4438",
"W+	c #494137",
"X+	c #646258",
"Y+	c #565149",
"Z+	c #5B5045",
"`+	c #6C6052",
" @	c #3C3730",
".@	c #585148",
"+@	c #64655A",
"@@	c #565449",
"#@	c #54553B",
"$@	c #544B41",
"%@	c #67655B",
"&@	c #5A5246",
"*@	c #575148",
"=@	c #67695B",
"-@	c #51523E",
";@	c #5E5447",
">@	c #484038",
",@	c #828074",
"'@	c #58483B",
")@	c #ECAE80",
"!@	c #6E685B",
"~@	c #49423A",
"{@	c #615C54",
"]@	c #656058",
"^@	c #4F4439",
"/@	c #B38361",
"(@	c #EFAF82",
"_@	c #474037",
":@	c #302E2A",
"<@	c #746D64",
"[@	c #645F56",
"}@	c #4E453C",
"|@	c #595A3D",
"1@	c #3B352D",
"2@	c #56473A",
"3@	c #312E2A",
"4@	c #635E56",
"5@	c #5D564E",
"6@	c #50483D",
"7@	c #57593C",
"8@	c #34332C",
"9@	c #57483B",
"0@	c #E9AB7E",
"a@	c #5B564D",
"b@	c #35312C",
"c@	c #594F44",
"d@	c #67665C",
"e@	c #685A4F",
"f@	c #B48563",
"g@	c #EBAC80",
"h@	c #69655A",
"i@	c #3F3D38",
"j@	c #716B61",
"k@	c #3B3630",
"l@	c #6B5D51",
"m@	c #312E2B",
"n@	c #756F65",
"o@	c #3F3932",
"p@	c #4D3D32",
"q@	c #3C3731",
"r@	c #4F4539",
"s@	c #4B4A43",
"t@	c #6F6960",
"u@	c #2C2925",
"v@	c #484138",
"w@	c #636259",
"x@	c #4E4132",
"y@	c #4C4B44",
"z@	c #58524B",
"A@	c #726A5A",
"B@	c #63594B",
"C@	c #59534B",
"D@	c #554735",
"E@	c #F8D197",
"F@	c #F8D39E",
"G@	c #544235",
"H@	c #BB9865",
"I@	c #BA9763",
"                                                    . + + .                                                                     ",
"                                              @ # $ % & & % * = + + .                                                           ",
"                                          @ - ; > & , , , & ' ) & & % * .                                                       ",
"                                      @ - ! > & , , , & ~ ~ & , , , , { ] ^                                                     ",
"                                  . * / ( _ , , , & ~ ~ & , , , , & : < [ } + + .                                               ",
"                  | | |       . * % & 1 2 3 4 & 5 6 _ , , , , & : < 7 7 8 9 & & 0 a b                                           ",
"                | | | | |   ^ c _ , , 1 d e f g h i 3 4 & & : < 7 7 < : & , , , , { j ^                                         ",
"              | | | | | | | k l 3 4 & 1 m e e n o p e f g q 7 7 < : & , , , , & : < r k                                         ",
"              | | | | | | | s t e f 3 u > 3 f n o p e e n v w x _ , , , , & : < y z A B + .                                     ",
"              | | | | | | | s t e e e f 3 > C D h D e e n v w E 3 4 & & : < y z y < ' & & % * .                                 ",
"              | | | | | | | k t e e e e e F F G H I f e n v w p e f g q y z y < : & , , , , { ] ^                               ",
"                J | | | |   k K e e e e e 3 L f 3 M M 3 N O P D e e n v y < : & , , , , & : < Q k                               ",
"                  | | |     R * S f e e e 3 T e e f 3 M U V W d e e n X x _ , , , , & : < y z Y =                               ",
"                                . Z S f e 3 T e e e e f `  .W I f e n o E 3 4 & & : < y z z z ../ * .                           ",
"                                    . +.@.F T e e e e e 3 #.3 M M 3 N $.p e f g q y z z z y < %.&.& *.* .                       ",
"                                      k =.D -.f e e e e 3 T e f 3 M U ;.2 e e n v z z y < : & , , , , { ] ^                     ",
"                                      k >.,.'.).-.f e e 3 T e e e f 3 !.> 3 f n v y < : & , , , , & : < Q k                     ",
"                                      k >.,.,.,.~.p -.f 3 T e e e e e F F M M D {.: & , , , , & ' < y z ].k                     ",
"                                      k >.,.,.^./.(._.p :.<.e e e e e 3 L f 3 G W , , , , & : P [.z z z ].k                     ",
"                                      k >.,.,.}.|.y 1.2.3.p -.4.e e e 3 T e e f 3 4 & & : < y w 5.z z z ].k                     ",
"                                    R 6.7.,.,.}.|.z 8.9.0.0.3.a.b.4.e c.d.e e e e f g q y z z w 5.z z z e.k                     ",
"                                    k f. .D '.g.|.y h.^.,.'.i.j.3.a.b.k.d.e e e e e n v z z z w 5.z y l.6.R       m.m.m.        ",
"                                    k n.u o.C p.q.r.s.^.,.}.|.t.u.v.3.D w.4.e e e e n v z z z w [.l.6.@         m.m.m.m.m.      ",
"            x.                      k y.<.z.D U A.B.C.D.'.g.|.E.F.G.H.I.9.a.c.f e e n v z z y J.- @           m.m.m.m.m.m.m.    ",
"            x.                      k t T D ,.K.o z L.M.N.O.P.Q.Q.F.E.R.2 ,.'.).d S.n v y T.T.Q k             m.m.m.m.m.m.m.    ",
"                                    k t T D ,.}.|.z U.V.W.X.Y.F.E.z z w p.,.,.}.O Z.2 `.T.y z ].k               m.m.m.m.m.      ",
"                                    k t T D ,.}.|.z U. +.+N ++z z z z w @+,.,.}.|.z w w z z z #+=                 m.m.m.        ",
"                                    ^ $+#.%+,.}.|.z U. +.+&+v z z z z w (.,.,.}.|.z z z z y < > *+^                             ",
"                                      = =+m ).9.O -+;+ +.+&+v z z z y >+z.,.,.}.|.z z y ,+'+)+: !+k                             ",
"                                    R 6.~+.+,.d ,+w {+]+.+&+v z y ^+/+(+u _+'.g.|.y ,+A.A.P :+y ].k                             ",
"                                    k <+> d ,.&+[+w }+|+1+^.O T.T.y t.2+3+4+M p.q.A.A.,+y w 5.z ].k                             ",
"                                    k 5+d %.%.6+{.V 7+d.4.3 ,+y z w 8+9+.+,.0+C A.,+y z z w 5.z ].k                             ",
"                                    k a+.+,.d C A.B.b+w.4.n v w c+d+)+-..+.+.+}.o z z z z w 5.z ].k                             ",
"                                    k a+.+.+.+}.o z e+f+g+h+i+: j+~ L.k+.+.+.+&+v z z z z w 5.y l+^                             ",
"                                    k a+.+.+.+&+v z m+<.n+g+: o+p+q+r+s+.+.+.+&+v z z z y 5.t+u+=                               ",
"        v+| w+                      k >..+.+.+&+v z m+d.e 4.x+z r+y+r+o+9+,..+&+v z y T.T.7 w #+=                               ",
"      v+| | |                       R z+A+,..+&+v z B+d.e n v z t.C+z w D+b.E+^.O T.T.y z y ,+F+G+^                             ",
"      | | | |                         k 5+1+1+^.O -+H+d.e n v z r+y+r+Z.D e 4.3 ,+y z y < I+J+,+Q k                             ",
"      w+| | |                       . 6.K+L+<.d ,+w M+N+e n v z R.O+c+P+Q+R+4.n v y < : { ' ..z ].k                             ",
"                                . * % & & 4 D ,.v z S+d T+N U+V+W+c+R.X+c. .V D {.A.Y+> < Z+5.z ].k                             ",
"                            R 6.`+& , , & :  @}.v z .@4.+@!.@@#@r+$@r+%@e 4.h+M A.,+Z+..z w 5.z ].k                             ",
"                            k &@4 & & : < y ,+}.v z *@S.f =@-@;@w >@r+%@e e e ,@o z w 5.z w 5.z '@)@| | | J                     ",
"                            = !@,._+q y z z ~@'.O i+{@]@n+,@v z t.T.r+%@e e e n v z w 5.z w [.^@/@(@| | | | J                   ",
"                        . * / %+.+&+v z 7 _@F+:@%.<@, , 1 [@}@y ;@|@r+k+e e e n v z w 5.z p+1@2@)@| | | | | |                   ",
"                    R z+/ {  .V d ^.O 5.I+o.3@_ , , , , 1 4@~ 5@6@7@R.8@a.4.e n v z p+[.T.T.t.9@0@| | | | | |                   ",
"                    k l d :@_ , & Q+%.>  .5 ' V ~ & & Q+4@1 , , & a@b@c@X+c.d@N O T.5.5.y z z 5.e@f@g@| | | |                   ",
"                  . 6.h@T F 3 4 & , , , &  .' & & V i@j@, , , , , , _ k@0+d.S.3 ,+y z z z z z `.1 & l@/@(@|                     ",
"              . * % W I #.3 e f 3 4 & , , , _ m@V 5 %.V ~ & , , & ~ ~ & n@4 p 4.v z z z z z y o@1 & : p@)@                      ",
"          R z+/ & , , &  .` f e e f 3 4 5 ~ ~ & &  .' & & ~ V >  .& , , & : q@,@v z z z y ,+'+)+: < y r@6..                     ",
"          k l 3 4 & , , & %.u 3 f e e f ` U & , , , _ m@V & 5 s@4 & & : < y < ,@v z y < : t@u@P y z z v@W `+6.R                 ",
"          ^ $+S.S.3 u >  .& , & G 3 f e 3 #.3 4 5 ~ ~ & & ~ ' w@f g q y z z h ^.O < : { : < [.w z y < ' 5 : x@k                 ",
"            . Z S S.N y@4 & & ~ ~ 5 4 3 F T e f ` U & , , , 5 m e n v z y < z@ .V { : < y z 5.Z+< : { : < 7 e.k                 ",
"                . Z A@F S.d :@_ , , , &  .3 f e 3 #.3 4 & &  .V 3 N O < I+' & & : < y z z y 8 r.)+: < 7 7 l.6.R                 ",
"                    @ * S #.F 3 4 & , , & %.u 3 F T e f d :@_ , & Q+V & , _ u@P y z z y < : t@u@P 7 7 l.6.@                     ",
"                        . z+B@S.S.3 u >  .& , &  .3 f e T F 3 4 & , , & : < [.w z y < : { : < [.Z+l.6.@                         ",
"          m.m.m.m.          . Z S S.N y@4 & , , & %.u 3 #.3 e f 3 Q+C@< y z 5.Z+< : { : < 7 7 D@6.@                             ",
"        E@m.m.m.m.m.            . Z A@F S.3 u >  .& , &  .` f e e ,@o z z y 8 r.)+: < 7 7 l.6.@                                 ",
"      F@m.m.m.m.m.m.m.              @ * S S.N y@4 & , , , & G 3 f n v y < : t@u@P 7 7 l.6.@                                     ",
"        m.m.m.m.m.m.E@                  . Z A@F S.3 4 & & ~ ~ 5 4 p {.: { : < [.Z+l.6.@                                         ",
"          m.m.m.m.                          @ * S S.S.d :@_ , , , 1 W : < 7 7 G@/@@                                             ",
"            m.m.E@                              . Z S #.F 3 4 & & : < 7 7 l./@g@v+                                              ",
"                                                    . z+B@S.S.g q 7 7 l.6.@                                                     ",
"                                                        . Z S N O l.6.@                                                         ",
"                                                            . H@I@@                                                             "};
