/* XPM */
static char * collectible8_xpm[] = {
"64 64 535 2",
"  	c #5CBCF4",
". 	c #5EBEF4",
"+ 	c #5FBEF5",
"@ 	c #5DBCF4",
"# 	c #5DBDF4",
"$ 	c #61BEF4",
"% 	c #5EBDF4",
"& 	c #60BEF4",
"* 	c #5EBDF3",
"= 	c #5FBDF3",
"- 	c #61BEF2",
"; 	c #67C0F1",
"> 	c #6CC2F0",
", 	c #6EC3F0",
"' 	c #76C5EE",
") 	c #77C5E9",
"! 	c #78C5E8",
"~ 	c #78C6E8",
"{ 	c #79C6E8",
"] 	c #77C5EA",
"^ 	c #70C4EF",
"/ 	c #6AC0F0",
"( 	c #65BFF1",
"_ 	c #62BEF2",
": 	c #6AC1EE",
"< 	c #79C7E7",
"[ 	c #8CCFDD",
"} 	c #A1D7CF",
"| 	c #B2DFC2",
"1 	c #BEE4B7",
"2 	c #CDEAAE",
"3 	c #CEEAA5",
"4 	c #CDEAA3",
"5 	c #D0EBA0",
"6 	c #D3EC9E",
"7 	c #D4EC9F",
"8 	c #D4ECA3",
"9 	c #CBE8AC",
"0 	c #BCE2B7",
"a 	c #A5D9CC",
"b 	c #90D0DA",
"c 	c #7BC7E7",
"d 	c #68C0F2",
"e 	c #5DBCF3",
"f 	c #5BBCF4",
"g 	c #61BDF3",
"h 	c #75C5EC",
"i 	c #93D1DB",
"j 	c #B2DEC3",
"k 	c #C9E8AE",
"l 	c #D8EF9E",
"m 	c #E3F38F",
"n 	c #EAF482",
"o 	c #EEF177",
"p 	c #F4F16D",
"q 	c #F4EE65",
"r 	c #F4ED63",
"s 	c #F4F166",
"t 	c #F5F567",
"u 	c #F6F466",
"v 	c #F7F564",
"w 	c #F1F772",
"x 	c #EBF482",
"y 	c #E3F190",
"z 	c #D4EBA2",
"A 	c #BDE2B7",
"B 	c #9ED4CA",
"C 	c #77C6E2",
"D 	c #5FBDF2",
"E 	c #6FC3EC",
"F 	c #93D1DA",
"G 	c #BAE1BF",
"H 	c #CFEBA9",
"I 	c #E4EF8D",
"J 	c #F1ED70",
"K 	c #F8E759",
"L 	c #FCE14D",
"M 	c #FCDB46",
"N 	c #FDD341",
"O 	c #FDCE3C",
"P 	c #FECB38",
"Q 	c #FECB37",
"R 	c #FDCE3D",
"S 	c #FDD142",
"T 	c #FED340",
"U 	c #FED33B",
"V 	c #FED738",
"W 	c #FFDB3C",
"X 	c #FFE03C",
"Y 	c #FFE743",
"Z 	c #FAED53",
"` 	c #F0EF6A",
" .	c #E1EC86",
"..	c #C8E3A8",
"+.	c #A0D4CB",
"@.	c #75C5E8",
"#.	c #80C9E5",
"$.	c #AADACA",
"%.	c #CDE6A7",
"&.	c #E8EB83",
"*.	c #F0E572",
"=.	c #F9DB60",
"-.	c #FCCF47",
";.	c #FEC331",
">.	c #FEB928",
",.	c #FDB225",
"'.	c #FDAC22",
").	c #FDA81E",
"!.	c #FCA61C",
"~.	c #FBA41C",
"{.	c #FBA61C",
"].	c #FCA91E",
"^.	c #FDAD1F",
"/.	c #FDAF20",
"(.	c #FEB225",
"_.	c #FEB927",
":.	c #FEC22A",
"<.	c #FFCD2F",
"[.	c #FFD836",
"}.	c #FFE140",
"|.	c #F7E755",
"1.	c #DFE684",
"2.	c #B9DCB9",
"3.	c #86CBDE",
"4.	c #61BEF0",
"5.	c #7DC8E4",
"6.	c #B5DCBF",
"7.	c #E0E78C",
"8.	c #F3E169",
"9.	c #F8D15D",
"0.	c #FABE4F",
"a.	c #FCB237",
"b.	c #FEAC23",
"c.	c #FEA91D",
"d.	c #FDA71D",
"e.	c #FCA41B",
"f.	c #FBA01A",
"g.	c #FA9E1A",
"h.	c #F79B18",
"i.	c #F59918",
"j.	c #F79A19",
"k.	c #F69A19",
"l.	c #F69B19",
"m.	c #FCA31B",
"n.	c #FCA81D",
"o.	c #FDAA1E",
"p.	c #FEAA1E",
"q.	c #FEAC1E",
"r.	c #FEB122",
"s.	c #FEB929",
"t.	c #FFCA2E",
"u.	c #FEDB3A",
"v.	c #EFE764",
"w.	c #C5DFA8",
"x.	c #8BCCDB",
"y.	c #61BDF2",
"z.	c #7DC6E5",
"A.	c #B5D8B7",
"B.	c #E1DF7D",
"C.	c #F8D14D",
"D.	c #FEB831",
"E.	c #FEAC2C",
"F.	c #FEAB23",
"G.	c #FEAA1F",
"H.	c #FEA91E",
"I.	c #FEA61B",
"J.	c #FDA31A",
"K.	c #FA9D19",
"L.	c #F38F13",
"M.	c #F18D13",
"N.	c #F29417",
"O.	c #F49718",
"P.	c #F59819",
"Q.	c #F39919",
"R.	c #F29718",
"S.	c #F69515",
"T.	c #F6A11C",
"U.	c #FBAB20",
"V.	c #FEAD20",
"W.	c #FEAB1F",
"X.	c #FEAB20",
"Y.	c #FEB223",
"Z.	c #FDB825",
"`.	c #FECC32",
" +	c #F3E25C",
".+	c #C7DDAD",
"++	c #82C6E5",
"@+	c #5FBDF4",
"#+	c #68BEF0",
"$+	c #AED0C0",
"%+	c #DFCF7D",
"&+	c #F6C142",
"*+	c #FEB227",
"=+	c #FDA41A",
"-+	c #FD9E13",
";+	c #FC9A11",
">+	c #F59112",
",+	c #EC820F",
"'+	c #F18C12",
")+	c #FBA31B",
"!+	c #FCA51C",
"~+	c #FCA41C",
"{+	c #FCA61D",
"]+	c #F79513",
"^+	c #F08F14",
"/+	c #F09719",
"(+	c #F9AF21",
"_+	c #FEB525",
":+	c #FEB023",
"<+	c #FDAB22",
"[+	c #FCA721",
"}+	c #FEAB1E",
"|+	c #FEAE20",
"1+	c #FEC12D",
"2+	c #ECD87F",
"3+	c #BAD9C8",
"4+	c #6CC2F1",
"5+	c #60BDF3",
"6+	c #7EC4E8",
"7+	c #D0C698",
"8+	c #F2B64A",
"9+	c #FCAB22",
"0+	c #FDA61C",
"a+	c #FDAC21",
"b+	c #FDB126",
"c+	c #FDA41C",
"d+	c #FC9C12",
"e+	c #FA9E16",
"f+	c #F7A11B",
"g+	c #FAA31C",
"h+	c #FBA51E",
"i+	c #FDA61D",
"j+	c #FDA51C",
"k+	c #FAA11B",
"l+	c #FBA61D",
"m+	c #FDB022",
"n+	c #FEB92B",
"o+	c #FEBA2D",
"p+	c #FDB428",
"q+	c #FDAB21",
"r+	c #FEAD1E",
"s+	c #FEB01D",
"t+	c #FABF52",
"u+	c #D7CDA7",
"v+	c #82C7E8",
"w+	c #63BEF1",
"x+	c #8EC5DC",
"y+	c #E0B77E",
"z+	c #F9AC2B",
"A+	c #FDAA1F",
"B+	c #FDA81D",
"C+	c #FEB528",
"D+	c #FDB429",
"E+	c #FDAA20",
"F+	c #F9A11B",
"G+	c #F69A18",
"H+	c #FB9C16",
"I+	c #FAA01A",
"J+	c #FCA21B",
"K+	c #FEAF21",
"L+	c #FEB022",
"M+	c #FEB92C",
"N+	c #FEBD31",
"O+	c #FEBB2F",
"P+	c #FEB72B",
"Q+	c #FEAE22",
"R+	c #FDA51A",
"S+	c #FEAA1D",
"T+	c #FEAB1D",
"U+	c #FEAF2B",
"V+	c #E3BD86",
"W+	c #96C7D6",
"X+	c #62BDF2",
"Y+	c #64BDEF",
"Z+	c #93C0CD",
"`+	c #E5AD6D",
" @	c #FBAA20",
".@	c #FEB126",
"+@	c #FEBB2E",
"@@	c #FEB82B",
"#@	c #F99B18",
"$@	c #F79110",
"%@	c #EE8710",
"&@	c #F89C19",
"*@	c #F89B18",
"=@	c #FA9F1A",
"-@	c #FDA91E",
";@	c #FDB024",
">@	c #FEBA2E",
",@	c #FEBC30",
"'@	c #FEB628",
")@	c #FEA81D",
"!@	c #FEA915",
"~@	c #E4B06C",
"{@	c #9BBFC1",
"]@	c #63BCF0",
"^@	c #64BDEE",
"/@	c #93BFC5",
"(@	c #E6AD67",
"_@	c #FCAA1D",
":@	c #FDA61B",
"<@	c #FDA21A",
"[@	c #FDA91F",
"}@	c #FDB529",
"|@	c #F89816",
"1@	c #EF8A12",
"2@	c #F99C19",
"3@	c #F99E19",
"4@	c #F59717",
"5@	c #FD9E15",
"6@	c #FD9E14",
"7@	c #FDA017",
"8@	c #FDA920",
"9@	c #FEB428",
"0@	c #FEBD2F",
"a@	c #FEB72A",
"b@	c #FDA81F",
"c@	c #FEA81C",
"d@	c #FFA815",
"e@	c #E5AE69",
"f@	c #9ABCBE",
"g@	c #63BDF0",
"h@	c #8EC2D2",
"i@	c #E1B274",
"j@	c #FBAA23",
"k@	c #FDA016",
"l@	c #FB9C14",
"m@	c #FEAD21",
"n@	c #FEA81E",
"o@	c #FDA71E",
"p@	c #FCA41D",
"q@	c #FCA31C",
"r@	c #F89E1A",
"s@	c #F9A11C",
"t@	c #FE9F14",
"u@	c #FE9E13",
"v@	c #FD9F15",
"w@	c #FDA91D",
"x@	c #FEB627",
"y@	c #FEBD2E",
"z@	c #FDBD2E",
"A@	c #FC9C14",
"B@	c #FDA318",
"C@	c #E3B37E",
"D@	c #94C3D2",
"E@	c #7DC2E7",
"F@	c #CBB998",
"G@	c #F2AB45",
"H@	c #FC9E12",
"I@	c #FA9611",
"J@	c #FA9A15",
"K@	c #FEB629",
"L@	c #FDAF22",
"M@	c #FDAB20",
"N@	c #FCA620",
"O@	c #FDA117",
"P@	c #FEB527",
"Q@	c #FDBE2E",
"R@	c #FEB62B",
"S@	c #FC9D14",
"T@	c #FB9812",
"U@	c #FD9E16",
"V@	c #F7A83D",
"W@	c #D2B89D",
"X@	c #80C6E8",
"Y@	c #65BDF0",
"Z@	c #9BC0C9",
"`@	c #DCB07C",
" #	c #F9A62C",
".#	c #FB9E18",
"+#	c #F99612",
"@#	c #FB9D16",
"##	c #FDB127",
"$#	c #FEB425",
"%#	c #FEB822",
"&#	c #FEBB24",
"*#	c #FEAE21",
"=#	c #FDB327",
"-#	c #FCA51D",
";#	c #FC9F17",
">#	c #FA9712",
",#	c #FC9F1A",
"'#	c #FC9F2B",
")#	c #E3AC77",
"!#	c #A9BDC3",
"~#	c #65C0F3",
"{#	c #6EBFED",
"]#	c #ABBCBC",
"^#	c #E3B371",
"/#	c #FAA62B",
"(#	c #F5981A",
"_#	c #F49114",
":#	c #F69616",
"<#	c #F99F1B",
"[#	c #FCA61E",
"}#	c #FDB221",
"|#	c #FBB121",
"1#	c #F69917",
"2#	c #F39718",
"3#	c #FBA21B",
"4#	c #FCA11A",
"5#	c #F89713",
"6#	c #F79916",
"7#	c #FAA01B",
"8#	c #F79816",
"9#	c #F29013",
"0#	c #F49519",
"a#	c #FA9C2C",
"b#	c #E4A56A",
"c#	c #AFB5BB",
"d#	c #73C0ED",
"e#	c #78BEE7",
"f#	c #AABFC2",
"g#	c #D8BA87",
"h#	c #F3AF40",
"i#	c #F89F1B",
"j#	c #EF8E13",
"k#	c #EC8B13",
"l#	c #F18E13",
"m#	c #F79514",
"n#	c #FCA31A",
"o#	c #FDAC1F",
"p#	c #FAA71E",
"q#	c #F9AC20",
"r#	c #FCA51A",
"s#	c #F69F1A",
"t#	c #F6A01B",
"u#	c #F8A41D",
"v#	c #FCAE24",
"w#	c #F8A823",
"x#	c #F2991B",
"y#	c #EF8D13",
"z#	c #F08E14",
"A#	c #F79720",
"B#	c #F3A13D",
"C#	c #D9B07F",
"D#	c #A9B8C1",
"E#	c #77BCE8",
"F#	c #5DBDF5",
"G#	c #71BFEA",
"H#	c #98C1D2",
"I#	c #C2C1AC",
"J#	c #DFBA77",
"K#	c #EDA943",
"L#	c #F49C1F",
"M#	c #F08C07",
"N#	c #F38C04",
"O#	c #FB9A10",
"P#	c #FBA118",
"Q#	c #F39A19",
"R#	c #F19D1B",
"S#	c #F7A21A",
"T#	c #F9A01B",
"U#	c #EF9417",
"V#	c #ED931A",
"W#	c #EE9E2F",
"X#	c #F4B250",
"Y#	c #F4AF47",
"Z#	c #F3A028",
"`#	c #F49920",
" $	c #EFA040",
".$	c #DFAF71",
"+$	c #C1B7AB",
"@$	c #99BDD0",
"#$	c #71BEEA",
"$$	c #5CBDF4",
"%$	c #5ABCF5",
"&$	c #60BEF2",
"*$	c #7AC2E5",
"=$	c #A2C3C9",
"-$	c #C4C1AD",
";$	c #DAB88C",
">$	c #DFAB6B",
",$	c #EAA54C",
"'$	c #F7A533",
")$	c #F9A023",
"!$	c #F2930A",
"~$	c #EF8C05",
"{$	c #F79F17",
"]$	c #FDAC18",
"^$	c #FFAD15",
"/$	c #FFA712",
"($	c #FA9A0C",
"_$	c #F08D04",
":$	c #EE9318",
"<$	c #EDA23C",
"[$	c #EFB25F",
"}$	c #EAB466",
"|$	c #E0B273",
"1$	c #D7B58F",
"2$	c #C6BAAA",
"3$	c #A3BDC6",
"4$	c #78C0E4",
"5$	c #5CBDF5",
"6$	c #72C4EC",
"7$	c #90C2D6",
"8$	c #A9C1BF",
"9$	c #C2C0A9",
"0$	c #D3BA98",
"a$	c #DBB38D",
"b$	c #E1AF7D",
"c$	c #DFA674",
"d$	c #E2AC6D",
"e$	c #E5B56B",
"f$	c #E6B465",
"g$	c #E6AD64",
"h$	c #E3A76D",
"i$	c #DFA776",
"j$	c #DEB181",
"k$	c #D5B695",
"l$	c #D0B79E",
"m$	c #C0B8AB",
"n$	c #A7BDC1",
"o$	c #8CC3D8",
"p$	c #73C3EA",
"q$	c #5EBCF3",
"r$	c #62BEF3",
"s$	c #6CC1EE",
"t$	c #76C3E8",
"u$	c #84C4E0",
"v$	c #94C5D4",
"w$	c #97C0CB",
"x$	c #98BEC2",
"y$	c #98BEBF",
"z$	c #9ABBBA",
"A$	c #9ABBB9",
"B$	c #98BEC3",
"C$	c #97C0CD",
"D$	c #91C5D6",
"E$	c #79C3E7",
"F$	c #72C3EA",
"G$	c #6BC0EF",
"H$	c #62BDF3",
"I$	c #60BDF2",
"J$	c #63BCF1",
"                                                                                                                                ",
"                                                                                                                                ",
"                                                                                                                                ",
"                                                                                                                                ",
"                                                                                                                                ",
"                                                                                                                                ",
"                                                                                                                                ",
"                                                                                            . +                                 ",
"                                                                                            @ #                                 ",
"                                                                                                                                ",
"                                                                                                                                ",
"                                                                                                                                ",
"                              # @                                                                                               ",
"                              $ %                                                                                               ",
"                              @                                                                                                 ",
"                                                          & %                                                                   ",
"                                                          % @                                                                   ",
"                                                                                                                                ",
"                                                                                                                                ",
"                                                                                                                                ",
"                                                    @ # % * * * * * *                                                           ",
"                                            @ = - ; > , ' ) ! ~ { { ] ^ / ( _ = @                                               ",
"                                        @ = : < [ } | 1 2 3 4 5 6 7 8 9 0 a b c d = e                                           ",
"                                    f g h i j k l m n o p q r s t u v t w x y z A B C D f                                       ",
"                                  * E F G H I J K L M N O P Q R S T U V W X Y Z `  ...+.@.* f                                   ",
"                                * #.$.%.&.*.=.-.;.>.,.'.).!.~.~.{.].^./.(._.:.<.[.}.|.1.2.3.4.f                                 ",
"                              - 5.6.7.8.9.0.a.b.c.d.e.f.g.h.i.j.k.l.f.m.n.o.p.q.r.s.t.u.v.w.x.y.                                ",
"                            = z.A.B.C.D.E.F.G.H.I.J.K.L.M.N.O.P.Q.R.S.h.T.U.V.W.G.X.Y.Z.`. +.+++@+                              ",
"                            #+$+%+&+*+X.G.p.W.=+-+;+>+,+'+)+!+~+{+m.]+^+/+(+_+:+<+[+G.}+|+1+2+3+4+@                             ",
"                          5+6+7+8+9+c.0+d.a+b+c+d+e+f+g+h+i+j+j+j+0+j+k+l+m+n+o+p+q+d.0+r+s+t+u+v+=                             ",
"                        f w+x+y+z+A+B+=+G.C+D+E+I.F+G+H+I+~+j+J+~+a+K+i+d.L+M+N+O+P+Q+R+S+T+U+V+W+X+                      % &   ",
"                        f Y+Z+`+ @A+0+d..@+@@@Q+p.{+#@$@%@&@I+*@=@-@B+=+j+;@>@N+N+,@'@d.)@p.!@~@{@]@                      # %   ",
"                        f ^@/@(@_@:@<@[@}@,@o+:+p.)@J.|@1@2@3@4@*@J.5@6@7@8@9@o+0@0@a@b@=+c@d@e@f@]@                            ",
"                        f g@h@i@j@k@l@!+(.+@+@9@m@n@o@i+m.p@q@r@s@j+k@t@u@v@w@x@y@z@b+j+A@B@c.C@D@X+                            ",
"                          5+E@F@G@H@I@J@G.K@O+o+(.V.L@M@p.N@b@c.A+M@H.H.0+O@:@P@Q@R@H.S@T@U@V@W@X@=                             ",
"                            Y@Z@`@ #.#+#@#{+##a@$#%#&#-@B+i+0+0+B+B+j+B+H.H.*#P@=#-#;#>#,#'#)#!#~#@                             ",
"                            @ {#]#^#/#(#_#:#<#[#-@}#|#1#2#3#)@H.)@4#5#6#~+E+[@-#7#8#9#0#a#b#c#d##                               ",
"                              # e#f#g#h#i#j#k#l#m#n#o#p#q#r#c@p.)@)+s#t#u#v#w#x#y#z#A#B#C#D#E#F#                                ",
"                                % G#H#I#J#K#L#M#N#O#P#Q#R#S#B+p.)@T#U#V#W#X#Y#Z#`# $.$+$@$#$$$                                  ",
"                                  %$&$*$=$-$;$>$,$'$)$!$~${$]$^$/$($_$:$<$[$}$|$1$2$3$4$- 5$                                    ",
"                                      f % 6$7$8$9$0$a$b$c$d$e$f$g$h$i$j$k$l$m$n$o$p$$                                           ",
"                                          @ q$r$s$t$u$v$w$x$y$z$A$B$C$D$E$F$G$H$q$@                                             ",
"                                                # * I$X+J$]@]@]@]@]@J$X+= * @                                                   ",
"                                                                                                                                ",
"                                                                                                                                ",
"                                                                                                                                ",
"                                                                                                                                ",
"                                                                                                                                ",
"                                                                                                                                ",
"                                                                                                                                ",
"                                                                                                                                ",
"                                                                                                                                ",
"                                                                                                                                ",
"                                                                                                                                ",
"                                                                                                                                ",
"                                                                                                                                ",
"                                                                                                      @                         ",
"                                                                                                      & %                       ",
"                                                                                                      # @                       ",
"                                      # &                                                                                       ",
"                                      @ @+                                                                                      ",
"                                                                                                                                ",
"                                                                                                                                ",
"                                                                                                                                "};
