/* XPM */
static char *collectible4[] = {
/* columns rows colors chars-per-pixel */
"55 55 158 2 ",
"   c #96440D",
".  c #BC560D",
"X  c #D66409",
"o  c #D56F12",
"O  c #D87513",
"+  c #DE7B13",
"@  c #F76E16",
"#  c #F27513",
"$  c #F47912",
"%  c #F2721C",
"&  c #F46D24",
"*  c #F27520",
"=  c #EB7833",
"-  c #E37D4D",
";  c #DE8917",
":  c #D68A1E",
">  c #F5800F",
",  c #EF8A17",
"<  c #E28C1A",
"1  c #F48311",
"2  c #F3801B",
"3  c #EC9219",
"4  c #F79215",
"5  c #F59718",
"6  c #F59C1A",
"7  c #F5A31D",
"8  c #FDA71E",
"9  c #F6A81F",
"0  c #D08B2C",
"q  c #DA9823",
"w  c #DD9F2E",
"e  c #D58134",
"r  c #E5852B",
"t  c #F18923",
"y  c #E79520",
"u  c #EB9D20",
"i  c #EA8638",
"p  c #E99635",
"a  c #DEA930",
"s  c #E6A426",
"d  c #ECA725",
"f  c #E7A22F",
"g  c #E7AA2A",
"h  c #EAAB2C",
"j  c #F1A422",
"k  c #F5AA24",
"l  c #F9AC20",
"z  c #F0A92A",
"x  c #EEB52C",
"c  c #FCB424",
"v  c #FCBA26",
"b  c #F2B429",
"n  c #F4BC2D",
"m  c #FCBD2A",
"M  c #E3A131",
"N  c #EDA934",
"B  c #EBB830",
"V  c #EBB83B",
"C  c #FABC39",
"Z  c #F7C52C",
"A  c #FDC32D",
"S  c #FDC82F",
"D  c #F6C432",
"F  c #FCC631",
"G  c #FDCC32",
"H  c #F7C938",
"J  c #FED335",
"K  c #FED837",
"L  c #FDD33B",
"P  c #FEDA3A",
"I  c #C48944",
"U  c #DA8C43",
"Y  c #DB9558",
"T  c #E08351",
"R  c #EDAE41",
"E  c #E7B141",
"W  c #EDBB49",
"Q  c #EEA355",
"!  c #E7BE51",
"~  c #E8BD5D",
"^  c #CD9C63",
"/  c #C8987F",
"(  c #D1B57A",
")  c #EEAD69",
"_  c #ECC849",
"`  c #F2C642",
"'  c #FECE48",
"]  c #FCD541",
"[  c #FEDB43",
"{  c #FDDD49",
"}  c #EAC459",
"|  c #E5CB5B",
" . c #F9CB5C",
".. c #FAD252",
"X. c #F8D854",
"o. c #FEE245",
"O. c #FDE34C",
"+. c #FEE151",
"@. c #FEE851",
"#. c #FFF055",
"$. c #FEF35A",
"%. c #DFC866",
"&. c #CFC37A",
"*. c #DED076",
"=. c #DCD57C",
"-. c #F2C362",
";. c #E8D067",
":. c #FEDB60",
">. c #E1CF7D",
",. c #EFD276",
"<. c #F4D07A",
"1. c #FEE062",
"2. c #7BB9DC",
"3. c #5CBCF4",
"4. c #59BEF8",
"5. c #6BBEE4",
"6. c #6EBFED",
"7. c #78BEE4",
"8. c #61BEF4",
"9. c #6DC0EC",
"0. c #74C2E7",
"q. c #73C2EC",
"w. c #67C0F3",
"e. c #6AC0F1",
"r. c #9E9799",
"t. c #9A9B9D",
"y. c #B59F9A",
"u. c #B4A29F",
"i. c #9BAAB4",
"p. c #97B6B5",
"a. c #9FB0BB",
"s. c #A8B5B3",
"d. c #C4AA8C",
"f. c #BDC49A",
"g. c #A7C6AA",
"h. c #BDCEA3",
"j. c #B4CBAD",
"k. c #A8CAB6",
"l. c #C7C587",
"z. c #CEC382",
"x. c #D0CF87",
"c. c #C6CC92",
"v. c #C9D498",
"b. c #F1C88E",
"n. c #F5CD9E",
"m. c #FCEBB0",
"M. c #89BAC9",
"N. c #97B8C6",
"B. c #92B7C8",
"V. c #90BBC8",
"C. c #84BFD3",
"Z. c #98C1C3",
"A. c #91C6CB",
"S. c #8AC5D7",
"D. c #82C4DE",
"F. c #88C6D9",
"G. c #A4D2CD",
"H. c #84C6E3",
/* pixels */
"3.3.3.3.3.3.3.3.3.3.3.3.3.3.3.3.3.3.3.3.3.3.3.3.3.3.3.3.3.3.3.3.3.3.3.3.3.3.3.3.3.3.3.3.3.3.3.3.8.3.3.3.3.3.3.",
"3.3.3.3.3.3.3.3.3.8.3.3.3.8.3.3.3.3.3.3.3.3.3.3.3.3.3.3.3.3.3.3.3.3.3.3.3.3.3.3.3.3.3.3.3.3.3.3.3.3.3.3.3.3.3.",
"3.3.3.3.3.3.3.3.3.3.3.3.3.3.3.3.3.3.3.3.3.3.3.3.3.3.3.3.3.3.3.8.3.3.3.3.3.3.3.3.3.3.3.3.3.3.3.3.3.3.3.3.3.3.3.",
"3.3.3.3.3.3.3.3.3.3.3.3.3.3.3.3.3.3.3.3.3.3.3.3.3.3.3.3.3.3.3.3.3.3.3.3.3.3.3.3.3.3.3.3.3.3.3.3.3.3.3.3.3.3.3.",
"3.3.3.3.3.3.3.3.3.3.3.3.3.3.3.3.3.3.3.3.3.3.3.3.3.3.3.3.3.3.3.3.3.3.3.3.3.3.3.3.3.3.3.3.3.3.3.3.3.3.3.3.3.3.3.",
"3.3.3.3.3.3.3.3.3.3.3.3.3.3.3.3.3.3.3.3.3.3.3.3.3.3.3.3.3.3.3.3.3.3.8.8.3.3.3.3.3.3.3.3.3.3.3.3.3.3.3.3.3.3.3.",
"3.3.3.3.3.3.3.3.3.3.3.3.3.3.3.3.3.3.3.3.3.3.3.3.3.3.3.3.3.3.3.3.3.3.3.3.3.3.3.3.3.3.3.3.3.3.3.3.3.3.3.3.3.3.3.",
"3.3.3.3.3.3.3.3.3.3.3.3.3.3.3.3.3.3.3.3.3.3.3.3.3.3.3.3.3.3.3.3.3.3.3.3.3.3.3.3.3.3.3.3.3.3.3.3.3.3.3.3.3.3.3.",
"3.3.3.3.3.3.3.3.3.3.3.3.3.3.3.3.3.3.3.3.3.3.3.3.3.3.3.3.3.3.3.3.3.3.3.3.3.3.3.3.3.3.3.3.3.3.3.3.3.3.3.3.3.3.3.",
"3.3.3.3.3.3.3.3.3.3.3.3.3.3.3.3.3.3.3.3.3.3.3.3.3.3.3.3.3.3.3.3.3.3.3.3.3.3.3.3.3.3.3.3.3.3.3.3.3.3.3.3.3.3.3.",
"3.3.3.3.3.3.3.3.3.3.3.3.3.3.3.3.3.3.3.3.3.3.3.3.3.3.3.3.3.3.3.3.3.3.3.3.3.3.3.3.3.3.3.3.3.3.3.3.3.3.3.3.3.3.3.",
"3.3.3.3.3.3.3.3.3.3.3.3.3.3.3.3.3.3.3.3.3.3.3.3.3.3.3.3.3.3.3.3.3.3.3.3.3.3.3.3.3.3.3.3.3.3.3.3.3.3.3.3.3.3.3.",
"3.3.3.3.3.3.3.3.3.3.3.3.3.3.3.3.3.3.3.3.3.3.3.3.3.3.3.3.3.3.3.3.3.3.3.3.3.3.3.3.3.3.3.3.3.3.3.3.3.3.3.3.3.3.3.",
"3.3.3.3.3.3.3.3.3.3.3.3.3.3.3.3.3.3.3.3.3.3.3.3.3.3.3.3.3.3.3.3.3.3.3.3.3.3.3.3.3.3.3.3.3.3.3.3.3.3.3.3.3.3.3.",
"3.3.3.3.3.3.3.3.3.3.3.3.3.3.3.3.3.3.3.3.3.3.3.3.3.3.3.3.3.3.3.3.3.3.3.3.3.3.3.3.3.3.3.3.3.3.3.3.3.3.3.3.3.3.3.",
"3.3.3.3.3.3.3.3.3.3.3.3.3.3.3.3.3.3.3.3.3.3.3.3.3.3.3.3.3.3.3.3.3.3.3.3.3.3.3.3.3.3.3.3.3.3.3.3.3.3.3.3.3.3.3.",
"3.3.3.3.3.3.3.3.3.3.3.3.3.3.3.3.3.3.3.3.3.3.3.3.3.3.3.3.3.3.3.3.3.3.3.3.3.3.3.3.3.3.3.3.3.3.3.3.3.3.3.3.3.8.3.",
"3.3.3.3.3.3.3.3.3.3.3.3.3.3.3.3.3.3.3.3.3.3.3.3.3.3.3.3.3.3.3.3.3.3.3.3.3.3.3.3.3.3.3.3.3.3.3.3.3.3.3.3.3.3.3.",
"3.3.3.3.3.3.3.3.3.3.3.3.3.3.3.3.3.3.3.3.4.4.8.8.6.7.5.5.5.q.8.3.3.4.3.4.3.3.3.3.3.3.3.3.3.3.3.3.3.3.3.3.3.3.3.",
"3.3.3.3.3.3.3.3.3.3.3.3.3.3.3.3.3.3.3.5.F.k.h.x.*.x.>.| | ;.=.v.j.A.0.4.4.3.3.3.3.3.3.3.3.3.3.3.3.3.3.3.3.3.3.",
"3.3.3.3.3.3.3.3.3.3.3.3.3.3.3.3.8.D.j.x.! N y < ; C ] S A ; ; f -.<.,.c.A.8.4.4.3.3.3.3.3.3.3.3.3.3.3.3.3.3.3.",
"3.3.3.3.3.3.3.3.3.3.3.3.3.3.3.0.j.;.V < + < d n D S G G J D n d 0 I ^ W H &.S.w.3.3.3.3.3.3.3.3.3.3.3.3.3.3.3.",
"3.3.3.3.3.3.3.3.3.3.3.3.3.3.D.l._ j 3 u k F J : . x G S J 6 L J N g q : j m R p.3.3.3.3.3.3.3.3.3.3.3.3.3.3.3.",
"3.3.3.3.3.3.3.3.3.3.3.3.3.7.z.` j 6 m H L J J s : G J S J d c k ] ] L S k k m N Z.3.3.3.3.3.3.3.3.3.3.3.3.3.3.",
"3.3.3.3.3.3.3.3.3.3.3.3.6.f._ Z c D [ $.] J P L P K J J K P G v [ @.O.] A l c 8 ~ 7.3.3.3.3.3.3.3.3.3.3.3.3.3.",
"3.3.3.3.3.3.3.3.3.3.3.3.C.~ J l A P $.$.[ q 0 B n J J J K K P J [ O.@.O.L m c c C Z.3.3.3.3.3.3.3.3.3.3.3.3.3.",
"3.3.3.3.3.3.3.3.3.3.3.4.M.} J S S o.$.$.#.a   . o G D x K z D J G G o.O.{ A m m m g.3.3.3.3.3.3.3.3.3.3.3.3.3.",
"3.3.3.3.3.3.3.3.3.3.3.4.F.| J J F [ $.$.o.P n M h J n b K + X d L G { @.[ m A m F k.3.3.3.3.3.3.3.3.3.3.3.3.3.",
"3.3.3.3.3.3.3.3.3.3.3.4.H.%.P L F G o.$.o.K L X.O.J G S P H w n S v o.[ S A F m ' G.4.4.3.3.3.3.3.3.3.3.3.3.3.",
"3.3.3.3.3.3.3.3.3.3.3.3.e.( d ..L J P [ L G H E m J J J K H B 3 6 c L G S F C 8 ~ H.4.4.3.3.3.3.3.3.3.3.3.3.3.",
"3.3.3.3.3.3.3.3.3.3.3.3.4.V.e b.m.:.J J n Z Z o < J A A L < O 3 c F J J S c 4 & s.4.8.3.3.3.3.3.3.3.3.3.3.3.3.",
"3.3.3.3.3.3.3.3.3.3.3.3.3.3.i.U ) m.m...P P P J D g h b x Z J P L J F c 6 > & y.6.3.3.3.3.3.3.3.3.3.3.3.3.3.3.",
"3.3.3.3.3.3.3.3.3.3.3.3.3.3.3.V.^ r Q p f X.P K J J K [ 1.+.P J S c 4 > @ - i.8.3.3.3.3.3.3.3.3.3.3.3.3.3.3.3.",
"3.3.3.3.3.3.3.3.3.3.3.3.3.3.3.3.9.s.Y t 1 , 6 7 6 9 v  .n.-.z 5 1 $ % T u.7.4.3.3.3.3.3.3.3.3.3.3.3.3.3.3.3.3.",
"3.3.3.3.3.3.3.3.3.3.3.3.3.3.3.3.3.3.q.N.d.Y i * 2 $ # # # # * = U / a.7.4.3.3.3.3.3.3.3.3.3.3.3.3.3.3.3.3.3.3.",
"3.3.3.3.3.3.3.3.3.3.3.3.3.3.3.3.3.3.3.3.4.6.2.B.i.t.r.r.r.i.B.2.6.8.4.4.3.3.3.3.3.3.3.3.3.3.3.3.3.3.3.3.3.3.3.",
"3.3.3.3.3.3.3.3.3.3.3.3.3.3.3.3.3.3.3.3.3.3.3.3.4.4.4.4.4.3.4.4.3.3.3.3.3.3.3.3.3.3.3.3.3.3.3.3.3.3.3.3.3.3.3.",
"3.3.3.3.3.3.3.3.3.3.3.3.3.3.3.3.3.3.3.3.3.3.3.3.3.3.3.3.3.3.3.3.3.3.3.3.3.3.3.3.3.3.3.3.3.3.3.3.3.3.3.3.3.3.3.",
"3.3.3.3.3.3.3.3.3.3.3.3.3.3.3.3.3.3.3.3.3.3.3.3.3.3.3.3.3.3.3.3.3.3.3.3.3.3.3.3.3.3.3.3.3.3.3.3.3.3.3.3.3.3.3.",
"3.3.3.3.3.3.3.3.3.3.3.3.3.3.3.3.3.3.3.3.3.3.3.3.3.3.3.3.3.3.3.3.3.3.3.3.3.3.3.3.3.3.3.3.3.3.3.3.3.3.3.3.3.3.3.",
"3.3.3.3.3.3.3.3.3.3.3.3.3.3.3.3.3.3.3.3.3.3.3.3.3.3.3.3.3.3.3.3.3.3.3.3.3.3.3.3.3.3.3.3.3.3.3.3.3.3.3.3.3.3.3.",
"3.3.3.3.3.3.3.3.3.3.3.3.3.3.3.3.3.3.3.3.3.3.3.3.3.3.3.3.3.3.3.3.3.3.3.3.3.3.3.3.3.3.3.3.3.3.3.3.3.3.3.3.3.3.3.",
"3.3.3.3.3.3.3.3.3.3.3.3.3.3.3.3.3.3.3.3.3.3.3.3.3.3.3.3.3.3.3.3.3.3.3.3.3.3.3.3.3.3.3.3.3.3.3.3.3.3.3.3.3.3.3.",
"3.3.3.3.3.3.3.3.3.3.3.3.3.3.3.3.3.3.3.3.3.3.3.3.3.3.3.3.3.3.3.3.3.3.3.3.3.3.3.3.3.3.3.3.3.3.3.3.3.3.3.3.3.3.3.",
"3.3.3.3.3.3.3.3.3.3.3.3.3.3.3.3.3.3.3.3.3.3.3.3.3.3.3.3.3.3.3.3.3.3.3.3.3.3.3.3.3.3.3.3.3.3.3.3.3.3.3.3.3.3.3.",
"3.3.3.3.3.3.3.3.3.3.3.3.3.3.3.3.3.3.3.3.3.3.3.3.3.3.3.3.3.3.3.3.3.3.3.3.3.3.3.3.3.3.3.3.3.3.8.3.3.3.3.3.3.3.3.",
"3.3.3.3.3.3.3.3.3.3.3.3.3.3.3.3.3.3.3.3.3.3.3.3.3.3.3.3.3.3.3.3.3.3.3.3.3.3.3.3.3.3.3.3.3.3.3.3.3.3.3.3.3.3.3.",
"3.3.3.3.3.3.3.3.3.3.3.3.3.3.3.3.3.8.3.3.3.3.3.3.3.3.3.3.3.3.3.3.3.3.3.3.3.3.3.3.3.3.3.3.3.3.3.3.3.3.3.3.3.3.3.",
"3.3.3.3.3.3.3.3.3.3.3.3.3.3.3.3.3.3.3.3.3.3.3.3.3.3.3.3.3.3.3.3.3.3.3.3.3.3.3.3.3.3.3.3.3.3.3.3.3.3.3.3.3.3.3.",
"3.3.3.3.3.3.3.3.3.3.3.3.3.3.3.3.3.3.3.3.3.3.3.3.3.3.3.3.3.3.3.3.3.3.3.3.3.3.3.3.3.3.3.3.3.3.3.3.3.3.3.3.3.3.3.",
"3.3.3.3.3.3.3.3.3.3.3.3.3.3.3.3.3.3.3.3.3.3.3.3.3.3.3.3.3.3.3.3.3.3.3.3.3.3.3.3.3.3.3.3.3.3.3.3.3.3.3.3.3.3.3.",
"3.3.3.3.3.3.3.3.3.3.3.3.3.3.3.3.3.8.3.3.3.3.3.3.3.3.3.3.3.3.3.3.3.3.3.3.3.3.3.3.3.3.3.3.8.3.3.3.3.3.3.3.3.3.3.",
"3.3.3.3.3.3.3.3.3.3.3.3.3.3.3.3.3.3.3.3.3.3.3.3.3.3.3.3.3.3.3.3.3.3.3.3.3.3.3.3.3.3.3.3.3.3.3.3.3.3.3.3.3.3.3.",
"3.3.3.3.3.3.3.3.3.3.3.3.3.3.3.3.3.3.3.3.3.3.3.3.3.3.3.3.3.3.3.3.3.3.3.3.3.3.3.3.3.3.3.3.3.3.3.3.3.3.3.3.3.3.3.",
"3.3.3.3.3.3.3.3.3.3.3.3.3.3.3.3.3.3.3.3.3.3.3.3.3.3.3.3.3.3.3.3.3.3.3.3.3.3.3.3.3.3.3.3.3.3.3.3.3.3.3.3.3.3.3."
};
