/* XPM */
static char *collectible10[] = {
/* columns rows colors chars-per-pixel */
"55 55 154 2 ",
"   c #F39016",
".  c #FB9613",
"X  c #FC9C16",
"o  c #F49519",
"O  c #F49B1D",
"+  c #FC9F18",
"@  c #FCA41C",
"#  c #FEAB1E",
"$  c #FEB01E",
"%  c #FC9C24",
"&  c #FD9C2B",
"*  c #F59D35",
"=  c #FC9B33",
"-  c #F5A624",
";  c #FCA622",
":  c #F6A926",
">  c #FDAD21",
",  c #F5A429",
"<  c #FEA529",
"1  c #F6AB2C",
"2  c #FCAC28",
"3  c #FEB224",
"4  c #FEB926",
"5  c #FCB42A",
"6  c #FEBB2B",
"7  c #E5A53D",
"8  c #F1AD34",
"9  c #FBB634",
"0  c #FCBD32",
"q  c #F3B13E",
"w  c #FABB39",
"e  c #FDC22E",
"r  c #FEC434",
"t  c #FFCA36",
"y  c #F0C13A",
"u  c #FAC53A",
"i  c #FFCC3B",
"p  c #FFD13E",
"a  c #FED83A",
"s  c #F39D44",
"d  c #DCA653",
"f  c #E4A644",
"g  c #E8AA42",
"h  c #E2A94F",
"j  c #EBAD4B",
"k  c #F7A241",
"l  c #F1A14A",
"z  c #F7AE4B",
"x  c #F5B446",
"c  c #F6BD44",
"v  c #E9A750",
"b  c #E9AA52",
"n  c #EBA658",
"m  c #F0A254",
"M  c #F9B155",
"N  c #F6B950",
"B  c #F4B25B",
"V  c #FAB95B",
"C  c #CEA86D",
"Z  c #D3B16F",
"A  c #D7AA75",
"S  c #D6AF7C",
"D  c #D4B875",
"F  c #DCBD75",
"G  c #DCB47B",
"H  c #E9AC63",
"J  c #E5B564",
"K  c #EEBD6E",
"L  c #F8B365",
"P  c #F1B16B",
"I  c #E4BD76",
"U  c #F5B873",
"Y  c #FBC144",
"T  c #FACA45",
"R  c #FED442",
"E  c #FEDC42",
"W  c #FCD54A",
"Q  c #E5C65E",
"!  c #FCC457",
"~  c #FCC65B",
"^  c #FEE545",
"/  c #FEE941",
"(  c #FEE449",
")  c #FFEE4F",
"_  c #FDEB54",
"`  c #FEF45C",
"'  c #FDC461",
"]  c #F9C46D",
"[  c #F2DE61",
"{  c #F5C77A",
"}  c #FAD97B",
"|  c #FCEB62",
" . c #FBF364",
".. c #F9F872",
"X. c #7EBFDA",
"o. c #5CBCF4",
"O. c #59BDF8",
"+. c #66BFEF",
"@. c #61BEF4",
"#. c #6DC1EC",
"$. c #70C1E4",
"%. c #7EC4E0",
"&. c #71C2EB",
"*. c #78C7ED",
"=. c #64C0F3",
"-. c #6BC2F1",
";. c #A7AF95",
":. c #A6B6A3",
">. c #B3BBA2",
",. c #D4B684",
"<. c #D0BE88",
"1. c #BEC3AC",
"2. c #BAD4A4",
"3. c #ADC5B5",
"4. c #A8C8B7",
"5. c #B9DDB6",
"6. c #B3DEBC",
"7. c #B7E1AF",
"8. c #B8E1AD",
"9. c #B7E1BA",
"0. c #CDC38B",
"q. c #C4C29E",
"w. c #F9C786",
"e. c #DDF08D",
"r. c #D3E793",
"t. c #ECF493",
"y. c #F3DBA2",
"u. c #C9E9BA",
"i. c #83B5C2",
"p. c #88BFCA",
"a. c #81BFDB",
"s. c #A0BCC1",
"d. c #8BC2CA",
"f. c #9BC0C7",
"g. c #9ECFC0",
"h. c #97C7C9",
"j. c #9ED7CA",
"k. c #8BC0D3",
"l. c #84C2DD",
"z. c #89C6DC",
"x. c #9CCDD4",
"c. c #90C8D9",
"v. c #9CCCDA",
"b. c #96D4D4",
"n. c #91D1DD",
"m. c #A4C0C0",
"M. c #AEDECB",
"N. c #81C6E1",
"B. c #89C7E0",
"V. c #88CDE5",
"C. c #D9D9C6",
"Z. c #D6DDC9",
"A. c #C6E0C9",
"S. c #DCE3C6",
/* pixels */
"o.o.o.o.o.o.o.o.o.o.o.o.o.o.o.o.o.o.o.o.o.o.o.o.o.o.o.o.o.o.o.o.o.o.o.o.o.o.o.o.o.o.o.o.o.o.o.o.o.o.o.o.o.o.o.",
"o.o.o.o.o.o.o.o.o.o.o.o.o.o.o.o.o.+.o.o.o.o.o.o.o.o.o.o.o.o.o.o.o.o.o.o.o.o.o.o.o.o.o.o.o.o.o.o.o.o.o.o.o.o.o.",
"o.o.o.o.o.o.o.o.o.o.o.o.o.o.o.o.o.o.o.o.o.o.o.o.o.o.o.o.o.o.o.o.o.o.o.o.o.o.o.o.o.o.o.o.o.o.o.o.o.o.o.o.o.o.o.",
"o.o.o.o.o.o.o.o.o.o.o.o.o.o.o.o.o.o.o.o.o.o.o.o.o.o.o.o.o.o.o.o.o.o.o.o.o.o.o.o.o.o.o.o.o.o.o.o.o.o.o.o.o.o.o.",
"o.o.o.o.o.o.o.o.o.o.o.o.o.o.o.o.o.o.o.o.o.o.o.o.o.o.o.o.o.o.o.o.o.o.o.o.o.o.o.o.o.o.o.o.o.o.o.o.o.o.o.o.o.o.o.",
"o.o.o.o.o.o.o.o.o.o.o.o.o.o.o.o.o.o.o.o.o.o.o.o.o.o.o.o.o.o.o.o.o.o.o.o.o.o.o.o.o.o.o.o.o.o.o.o.o.o.o.o.o.o.o.",
"o.o.o.o.o.o.o.o.o.o.o.o.o.o.o.o.o.o.o.o.o.o.o.o.o.o.o.o.o.o.o.o.o.o.o.o.o.o.o.o.o.o.o.o.o.o.o.o.o.o.o.o.o.o.o.",
"o.o.o.o.o.o.o.o.o.o.o.o.o.o.o.o.o.o.o.o.o.o.o.o.o.o.o.o.o.o.o.o.o.o.o.o.o.o.o.o.o.o.o.o.o.o.o.o.o.o.o.o.o.o.o.",
"o.o.o.o.o.o.o.o.o.o.o.o.o.o.o.o.o.o.o.o.o.o.o.o.o.o.o.o.o.o.o.o.o.o.o.o.o.o.o.o.o.o.o.o.o.o.o.o.o.o.o.o.o.o.o.",
"o.o.o.o.o.o.o.o.o.o.o.o.o.o.o.o.o.o.o.o.o.o.o.o.o.o.o.o.o.o.o.o.o.o.o.o.o.o.o.o.o.o.o.o.o.o.o.o.o.o.o.o.o.o.o.",
"o.o.o.o.o.o.o.o.o.o.o.o.o.o.o.o.o.o.o.o.o.o.o.o.o.o.o.o.o.o.o.o.o.o.o.o.o.o.o.o.o.o.o.o.o.o.o.o.o.o.o.o.o.o.o.",
"o.o.o.o.o.o.o.o.o.o.o.o.o.o.o.o.o.o.o.o.o.o.o.o.o.o.o.o.o.o.o.o.o.o.o.o.o.o.o.o.o.o.o.o.o.o.o.o.o.o.o.o.o.o.o.",
"o.o.o.o.o.o.o.o.o.o.o.o.o.o.o.o.o.o.o.o.o.o.o.o.o.o.o.o.o.o.o.o.o.o.o.o.o.o.o.o.o.o.o.o.o.o.o.o.o.o.o.o.o.o.o.",
"o.o.o.o.o.o.o.o.o.o.o.o.o.o.o.o.o.o.o.o.o.O.o.o.o.o.o.O.o.o.o.o.o.o.o.o.o.o.o.o.o.o.o.o.o.o.o.o.o.o.o.o.o.o.o.",
"o.o.o.o.o.o.o.o.o.o.o.o.o.o.o.o.o.o.o.o.O.o.*.n.M.9.7.8.7.6.h.X.@.o.o.o.o.@.o.o.o.o.o.o.o.o.o.o.o.o.o.o.o.o.o.",
"o.o.o.o.o.o.o.o.o.@.o.o.o.o.o.o.o.o.o.+.n.u.t...` _ ) `  .` _ [ r.j.#.o.o.o.o.o.o.o.o.o.o.o.o.o.o.o.o.o.o.o.o.",
"o.o.o.o.o.o.o.o.o.o.o.o.o.o.o.o.o.o.%.A.t.| R e 4 3 3 3 5 0 t p ^ ` e.b.o.o.o.o.o.o.o.o.o.o.o.o.o.o.o.o.o.o.o.",
"o.o.o.o.o.o.o.o.o.o.o.o.o.o.o.o.o.x.S.y.Y $ # # 3 3 3 4 > > # # $ e ^  .5.@.o.o.o.o.o.o.o.o.o.o.o.o.o.o.o.o.o.",
"o.o.o.o.o.o.o.o.o.o.o.o.o.o.o.@.x.S.{ > # 3 5 3 > - : 4 r 6 4 5 3 # $ 4 t 2.=.O.o.o.o.o.o.o.o.o.o.o.o.o.o.o.o.",
"o.o.o.o.o.o.o.o.o.o.o.o.o.o.o.v.C.B # # 0 0 @ 6 6 e 4 3 6 e 4 @ ; 4 3 # # e 2.=.o.o.o.o.o.o.o.o.o.o.o.o.o.o.o.",
"o.o.o.o.o.o.o.o.o.o.o.o.o.o.V.Z.B # > ~ N - u y 9 # # ; # r w 1 ; @ 3 3 $ $ u g.o.o.o.o.o.o.o.o.o.o.o.o.o.o.o.",
"o.o.o.o.o.o.o.o.o.o.o.o.o.+.A.K # # ' M 8 T 8 c e 3 5 4 3 w x u u t > : 3 # $ Q #.o.o.o.o.o.o.o.o.o.o.o.o.o.o.",
"o.o.o.o.o.o.o.o.o.o.o.o.O.k.I 2 # ! V r W w.z O - $ # # > > 5 ; 6 E t # 3 > # 4 4.O.o.o.o.o.o.o.o.o.o.o.o.o.o.",
"o.o.o.o.o.o.o.o.o.o.o.o.o.>.q # 0 ] r ( } L @ y E 3 # # 3 6 # # e R R r ; 3 # $ F -.o.o.o.o.o.o.o.o.o.o.o.o.o.",
"o.o.o.o.o.o.o.o.o.o.o.o.+.C - > T 9 ^ ( Y ; 3 R p 3 # @ # r 4 # 6 p p i 4 > > # 8 l.o.o.o.o.o.o.o.o.o.o.o.o.o.",
"o.o.o.o.o.o.o.o.o.o.o.o.k.d # 6 5 r ( R 3 > $ 3 0 # # # $ t r 6 t i i p t ; > # < s.o.o.o.o.o.o.o.o.o.o.o.o.o.",
"o.o.o.o.o.o.o.o.o.o.o.O.p.f # 6 > t R i # $ $ $ , : @ @ > r i i T i i R i # > # ; :.o.o.o.o.o.o.o.o.o.o.o.o.o.",
"o.o.o.o.o.o.o.o.o.o.o.o.i.7 # > # r i i 2 # 3 # 9 9 5 5 > 5 4 r i i i R R > ; # @ ;.o.o.o.o.o.o.o.o.o.o.o.o.o.",
"o.o.o.o.o.o.o.o.o.o.o.O.d.g # @ # 0 i t r ; # # # # 3 3 3 t 3 # 6 t i E i # @ @ ; :.O.o.o.o.o.o.o.o.o.o.o.o.o.",
"o.o.o.o.o.o.o.o.o.o.o.o.z.h @ o # 6 t t i t 6 3 # > # # > # # $ # 6 i R r @ . # & s.o.o.o.o.o.o.o.o.o.o.o.o.o.",
"o.o.o.+.o.o.o.o.o.o.o.O.#.Z >   @ 3 t i i i i t 6 > # @ > > 3 # # 6 p p 6 @ . # s a.O.o.o.o.o.o.o.o.o.o.o.o.o.",
"o.o.o.o.o.o.o.o.o.o.o.o.=.>., @ X # 6 i i / / t r 3 # @ > 4 @ # # 6 p i # . X @ A @.o.o.o.o.o.o.o.o.o.o.o.o.o.",
"o.o.o.o.o.o.o.o.o.o.o.o.o.X.h # . @ # r t a a 4 r > # @ ; r 5 @ # 5 i 5 + . @ = m.O.o.o.o.o.o.o.o.o.o.o.o.o.o.",
"o.o.o.o.o.o.o.o.o.o.o.o.o.o.>.1 # X @ 3 6 # ; @ ; # # @ # 5 > # @ 5 t > % ; % S -.o.o.o.o.o.o.o.o.o.o.o.o.o.o.",
"o.o.o.o.o.o.o.o.o.o.o.o.o.o.&.D # # X + @ @ # > X @ # # @ . @ ; - t @ * L & m z.O.o.o.o.o.o.o.o.o.o.o.o.o.o.o.",
"o.o.o.o.o.o.o.o.o.o.o.o.o.o.O.z.J # # . . @ @ + > ; 3 4 # # X > 4 % l U = s f.o.o.o.o.o.o.o.o.o.o.o.o.o.o.o.o.",
"o.o.o.o.o.o.o.o.o.o.o.o.o.o.o.O.B.F > # + . . + @ # # @ # @ X o * P L & n f.o.o.o.o.o.o.o.o.o.o.o.o.o.o.o.o.o.",
"o.o.o.o.o.o.o.o.o.o.o.o.o.o.o.o.o.&.q.x > 4 5 ; 9 O @ @ @ @ o 8 B k = ,.N.O.o.o.o.o.o.o.o.o.o.o.o.o.o.o.o.o.o.",
"o.o.o.o.o.o.o.o.o.o.o.o.o.o.o.o.o.O.@.c.0.x 2 4 6 0 r 6 # 3 5 < k G h.=.O.o.o.o.o.o.o.o.o.o.o.o.o.o.o.o.o.o.o.",
"o.o.o.o.o.o.o.o.o.o.o.o.o.o.o.o.o.o.o.O.=.%.3.<.J b j j v H ,.1.c.=.o.o.o.o.o.o.o.o.o.o.o.o.o.o.o.o.o.o.o.o.o.",
"o.o.o.o.o.o.o.o.o.o.o.o.o.o.o.o.o.o.o.o.o.o.o.@.-.#.$.$.$.#.+.o.o.o.o.o.o.o.o.o.o.o.o.o.o.o.o.o.o.o.o.o.+.o.o.",
"o.o.o.o.o.o.o.o.o.o.o.o.o.o.o.o.o.o.o.o.o.o.o.o.o.o.o.o.o.o.o.o.o.o.o.o.o.o.o.o.o.o.o.o.o.o.o.o.o.o.o.o.o.o.o.",
"o.o.o.o.o.o.o.o.o.o.o.o.o.o.o.o.o.o.o.o.o.o.o.o.o.o.o.o.o.o.o.o.o.o.o.o.o.o.o.o.o.o.o.o.o.o.o.o.o.o.o.o.o.o.o.",
"o.o.o.o.o.o.o.o.o.o.o.o.o.o.o.o.o.o.o.o.o.o.o.o.o.o.o.o.o.o.o.o.o.o.o.o.o.o.o.o.o.o.o.o.o.o.o.o.o.o.o.o.o.o.o.",
"o.o.o.o.o.o.o.o.o.o.o.o.o.o.o.o.o.o.o.o.o.o.o.o.o.o.o.o.o.o.o.o.o.o.o.o.o.o.o.@.o.o.o.o.o.o.o.o.o.o.o.o.o.o.o.",
"o.o.o.o.o.o.o.o.o.o.o.o.o.o.o.o.o.o.o.o.o.o.o.o.o.o.o.o.o.o.o.o.o.o.o.o.o.o.o.o.o.o.o.o.o.o.o.o.o.o.o.o.o.o.o.",
"o.o.o.o.o.o.o.o.o.o.o.o.o.o.o.o.o.o.o.o.o.o.o.o.o.o.o.o.o.o.o.o.o.o.o.o.o.o.o.o.o.o.o.o.@.o.o.o.o.o.o.o.o.o.o.",
"o.o.o.o.o.o.o.o.o.o.o.@.@.o.o.o.o.o.o.o.o.o.o.o.o.o.o.o.o.o.o.o.o.o.o.o.o.o.o.o.o.o.o.o.o.o.o.o.o.o.o.o.o.o.o.",
"o.o.o.o.o.o.o.o.o.o.o.o.o.o.o.o.o.o.o.o.o.o.o.o.o.o.o.o.o.o.o.o.o.o.o.o.o.o.o.o.o.o.o.o.o.o.o.o.o.o.o.o.o.o.o.",
"o.o.o.o.o.o.o.o.o.o.o.o.o.o.o.o.o.o.o.o.o.o.o.o.o.o.o.o.o.o.o.o.o.o.o.o.o.o.o.o.o.o.o.o.o.o.o.o.o.o.o.o.o.o.o.",
"o.o.o.o.o.o.o.o.o.o.o.o.o.o.o.o.o.o.o.o.o.o.o.o.o.o.o.o.o.o.o.o.o.o.o.o.o.o.o.o.o.o.o.o.o.o.o.o.o.o.o.o.o.o.o.",
"o.o.o.o.o.o.o.o.o.o.o.o.o.o.o.o.o.o.o.o.o.o.o.o.o.o.o.o.o.o.o.o.o.o.o.o.o.o.o.o.o.o.o.o.o.o.o.o.o.o.o.o.o.o.o.",
"o.o.o.o.o.o.o.o.o.o.o.o.o.o.o.o.+.o.o.o.o.o.o.o.o.o.o.o.o.o.o.o.o.o.o.o.o.o.o.o.o.o.o.o.o.o.o.o.o.o.o.o.o.o.o.",
"o.o.o.o.o.o.o.o.o.o.o.o.o.o.o.o.o.o.o.o.o.o.o.o.o.o.o.o.o.o.o.o.o.o.o.o.o.o.o.o.o.o.o.o.o.o.o.o.o.o.o.o.o.o.o.",
"o.o.o.o.o.o.o.o.o.o.o.o.o.o.o.o.o.o.o.o.o.o.o.o.o.o.o.o.o.o.o.o.o.o.o.o.o.o.o.o.o.o.o.o.o.o.o.o.o.o.o.o.o.o.o."
};
