/* XPM */
static char *collectible3[] = {
/* columns rows colors chars-per-pixel */
"55 55 169 2 ",
"   c #B36F28",
".  c #CF6E0F",
"X  c #CE6B18",
"o  c #CC7017",
"O  c #D17512",
"+  c #DF7D10",
"@  c #F5790F",
"#  c #F66D1A",
"$  c #F97213",
"%  c #F77C15",
"&  c #E0742F",
"*  c #E17634",
"=  c #E57838",
"-  c #E77B45",
";  c #DC8217",
":  c #F3840E",
">  c #F4880F",
",  c #E28213",
"<  c #E98616",
"1  c #E68B16",
"2  c #F68610",
"3  c #F58E13",
"4  c #F88D15",
"5  c #F49214",
"6  c #F59817",
"7  c #F3971D",
"8  c #F39B1A",
"9  c #F6A21C",
"0  c #FBAB1E",
"q  c #D68520",
"w  c #CD8331",
"e  c #DB9034",
"r  c #E89524",
"t  c #E7993A",
"y  c #DFA930",
"u  c #ECA623",
"i  c #E8A725",
"p  c #EDA528",
"a  c #EBAD29",
"s  c #F1AD25",
"d  c #FCAE26",
"f  c #EFB329",
"g  c #F3B126",
"h  c #F8B426",
"j  c #FCBB26",
"k  c #F6B529",
"l  c #FAB729",
"z  c #F5BD2E",
"x  c #FABC2A",
"c  c #ECAB36",
"v  c #EBB831",
"b  c #F7BC3B",
"n  c #F4C12F",
"m  c #FCC42E",
"M  c #FEC92F",
"N  c #F4C535",
"B  c #F8C331",
"V  c #FCCC33",
"C  c #F4C439",
"Z  c #F8C83B",
"A  c #FECC39",
"S  c #FDD335",
"D  c #FED836",
"F  c #FCD43A",
"G  c #FEDB3B",
"H  c #FEE13E",
"J  c #BB9E6C",
"K  c #CD8546",
"L  c #DD9B4A",
"P  c #C78D57",
"I  c #E4884B",
"U  c #E09953",
"Y  c #D5A55B",
"T  c #DEB652",
"R  c #D48A68",
"E  c #D3976D",
"W  c #D9A372",
"Q  c #E2B36B",
"!  c #EABB7E",
"~  c #E3C44C",
"^  c #EFCC49",
"/  c #F4C344",
"(  c #FACD43",
")  c #EFD24D",
"_  c #F5D546",
"`  c #FCD442",
"'  c #F6DA45",
"]  c #FDDD43",
"[  c #FCD54C",
"{  c #FBDA4C",
"}  c #F7CB5A",
"|  c #E9D757",
" . c #E7D45D",
".. c #FBD556",
"X. c #F0D857",
"o. c #F8D558",
"O. c #FEE342",
"+. c #FEE34B",
"@. c #FDE553",
"#. c #FEEA54",
"$. c #FDE45B",
"%. c #FEEB5B",
"&. c #FEF35C",
"*. c #FEF85F",
"=. c #DBCA67",
"-. c #DFD368",
";. c #CECC7D",
":. c #DAD470",
">. c #F9CF64",
",. c #E5D664",
"<. c #E5DA6D",
"1. c #FCDA66",
"2. c #FADB76",
"3. c #F8D57C",
"4. c #FDEA61",
"5. c #FDE36D",
"6. c #FCED68",
"7. c #FEF564",
"8. c #FEF963",
"9. c #FEF76F",
"0. c #FDE97D",
"q. c #FEFD74",
"w. c #FEFE7A",
"e. c #6FB4DE",
"r. c #79B8D8",
"t. c #5CBCF4",
"y. c #6FB6E0",
"u. c #6CBFEB",
"i. c #73BCE3",
"p. c #62BEF4",
"a. c #6BC1EE",
"s. c #76C2E5",
"d. c #7AC3E2",
"f. c #72C1EB",
"g. c #66C0F3",
"h. c #BC9C8F",
"j. c #B19F9A",
"k. c #B8AE8E",
"l. c #A7A798",
"z. c #B2A895",
"x. c #A6B1A7",
"c. c #A2BCB0",
"v. c #C29F8E",
"b. c #D2B68B",
"n. c #ADCD9D",
"m. c #BDD39D",
"M. c #ADC7A7",
"N. c #A9CAAC",
"B. c #B5CFA2",
"V. c #B5D3AE",
"C. c #A5CDB5",
"Z. c #A5C3B8",
"A. c #A9D1BC",
"S. c #CBD389",
"D. c #D6DA82",
"F. c #EBC89A",
"G. c #FCE38D",
"H. c #FEE993",
"J. c #94B9C7",
"K. c #80B9D8",
"L. c #A6BEC1",
"P. c #82C2CA",
"I. c #8FC8CD",
"U. c #96CCCA",
"Y. c #88C6D3",
"T. c #8DC8D2",
"R. c #88C8D7",
"E. c #83C5DB",
"W. c #A2C9C2",
/* pixels */
"t.t.t.t.t.t.t.t.t.t.t.t.t.t.t.t.t.t.t.t.t.t.t.t.t.t.t.t.t.t.t.t.t.t.t.t.t.t.t.t.t.t.t.t.t.t.t.t.t.t.t.t.t.t.t.",
"t.t.t.t.t.t.t.t.t.t.t.t.t.t.t.t.t.t.t.t.t.t.t.t.t.t.t.t.t.t.t.t.t.t.t.t.t.t.t.t.t.t.t.t.t.t.t.t.t.t.t.t.t.t.t.",
"t.t.t.t.t.t.t.t.t.t.t.t.t.t.t.t.t.t.t.t.t.t.t.t.t.t.t.t.t.t.t.t.t.t.t.t.t.t.t.t.t.t.t.t.t.t.t.t.t.t.t.t.t.t.t.",
"t.t.t.t.t.t.t.t.t.t.t.t.t.t.t.t.t.t.t.t.t.t.t.t.t.t.t.t.t.t.t.t.t.t.t.t.t.t.t.t.t.t.t.t.t.t.t.t.t.t.t.t.t.t.t.",
"t.t.t.t.t.t.t.t.t.t.t.t.t.t.t.t.t.t.t.t.t.t.t.t.t.t.t.t.t.t.p.t.t.t.t.t.t.t.t.t.t.t.t.t.t.t.t.t.t.t.t.t.t.t.t.",
"t.t.t.t.t.t.t.t.t.t.t.t.t.t.t.t.t.t.t.t.t.t.t.t.t.t.t.t.t.t.t.t.t.t.t.t.t.t.t.t.t.t.t.t.t.t.t.t.t.t.t.t.t.t.t.",
"t.t.t.t.t.t.t.t.t.t.t.t.t.t.t.t.t.t.t.t.t.t.t.t.t.t.t.t.t.t.t.t.t.t.t.t.t.t.t.t.t.t.t.t.t.t.t.t.t.t.t.t.t.t.t.",
"t.t.t.t.t.t.t.t.t.t.t.t.t.t.t.t.t.t.t.t.t.t.t.t.t.t.t.t.t.t.t.t.t.t.t.t.t.t.t.t.t.t.t.t.t.t.t.t.t.t.t.t.t.t.t.",
"t.t.t.t.t.t.t.t.t.t.t.t.t.t.p.t.t.t.t.t.t.t.t.t.t.t.t.t.t.t.t.t.t.t.t.t.t.t.t.t.t.t.t.t.t.t.t.t.t.t.t.t.t.t.t.",
"t.t.t.t.t.t.t.t.t.t.t.t.t.t.t.t.t.t.t.t.t.t.t.t.t.t.t.t.t.t.t.t.t.t.t.t.t.t.t.t.t.t.t.t.t.t.t.t.t.t.t.t.t.t.t.",
"t.t.t.t.t.t.t.t.t.t.t.t.t.t.t.t.t.t.t.t.t.t.t.t.t.t.t.t.t.t.t.t.t.t.t.t.t.t.t.t.t.t.t.t.t.t.t.t.t.t.t.t.t.t.t.",
"t.t.t.t.t.t.t.t.t.t.t.t.t.t.t.t.t.t.t.t.t.t.t.t.t.t.t.t.t.t.t.t.t.t.t.t.t.t.t.p.t.t.t.t.t.t.t.t.t.t.t.t.t.t.t.",
"t.t.t.t.t.t.t.t.t.t.t.t.t.t.t.t.t.t.t.t.t.t.t.t.t.t.t.t.t.t.t.t.t.t.t.t.t.t.t.t.t.t.t.t.t.t.t.t.t.t.t.t.t.t.t.",
"t.t.t.t.t.t.t.t.t.t.t.t.t.t.t.t.t.t.t.t.t.t.t.t.t.t.t.t.t.t.t.t.t.t.t.t.t.t.t.t.t.t.t.t.t.t.t.t.t.t.t.t.t.t.t.",
"t.t.t.t.t.t.t.t.t.t.t.t.t.t.t.t.t.t.t.t.t.t.t.t.t.t.t.t.t.t.t.t.t.t.t.t.t.t.t.t.t.t.t.t.t.t.t.t.t.t.t.t.t.t.t.",
"t.t.t.t.t.t.t.t.t.t.t.t.t.t.t.t.t.t.t.t.t.t.t.t.t.t.t.t.t.t.t.t.t.t.t.t.t.t.t.t.t.t.t.t.t.t.t.t.t.t.t.t.t.t.t.",
"t.t.t.t.t.t.t.t.t.t.t.t.t.t.t.t.t.t.t.t.t.a.d.Y.A.N.n.n.n.V.W.E.f.p.t.t.t.t.t.t.t.t.t.t.t.t.t.t.t.t.t.t.t.p.t.",
"t.t.t.t.t.t.t.t.t.t.t.t.t.t.t.t.t.t.t.i.A.S.,.^ C Z z s s k Z ' <.B.E.g.t.t.t.t.t.t.t.t.t.t.t.t.t.t.t.t.t.t.t.",
"t.t.t.t.t.t.t.t.t.t.t.t.t.t.t.t.t.s.C.;.^ s ; + ; s j g f O . O c o.X.S.d.t.t.t.t.t.t.t.t.t.t.t.t.t.t.t.t.t.t.",
"t.t.t.t.t.t.t.t.t.t.t.t.t.t.t.t.T.S.) u , 1 s z M H D D G a z i q K Q o.X.C.p.t.t.t.t.t.t.t.t.t.t.t.t.t.t.t.t.",
"t.t.t.t.t.t.t.t.t.t.t.t.t.t.t.U.:.Z 8 8 k z V F v F S S F } ` V v y   P o.` m.a.t.t.t.t.t.t.t.t.t.t.t.t.t.t.t.",
"t.t.t.t.t.t.t.t.t.t.t.t.t.t.I.-.A s j S A F G i o B S M S r ( [ { ~ v a i n F B.t.t.t.t.t.t.t.t.t.t.t.t.t.t.t.",
"t.t.t.t.t.t.t.t.t.t.t.t.t.d.;._ j x A $.@.O.F b $.] D S F ( 2.3.$.8.#.G x j D { U.t.t.t.t.t.t.t.t.t.t.t.t.t.t.",
"t.t.t.t.t.t.t.t.t.t.t.t.t.M.| V j V #.q.@.H O.O.#.O.F D F #.O.S @.7.7.#.D j m D D.g.t.t.t.t.t.t.t.t.t.t.t.t.t.",
"t.t.t.t.t.t.t.t.t.t.t.t.f.;.' k V ] q.q.$.2.@.O.H O.H H G O.#.*.8.8.8.8.] V j V [ Y.t.t.t.t.t.t.t.t.t.t.t.t.t.",
"t.t.t.t.t.t.t.t.t.t.t.t.R.-.] z G %.q.q.7.Y Y a G H H H G H G O.+.7.8.8.#.D z V A c.t.t.t.t.t.t.t.t.t.t.t.t.t.",
"t.t.t.t.t.t.t.t.t.t.t.t.P. .G F F 7.q.q.w. .w X ; D F V G D S G G ] 7.8.&.F A S A Z.t.t.t.t.t.t.t.t.t.t.t.t.t.",
"t.t.t.t.t.t.t.t.t.t.t.t.Y.,.H { ] 4.w.q.q.q.6.} / H B n F ; e 1.G S %.8.&.F F D V Z.t.t.t.t.t.t.t.t.t.t.t.t.t.",
"t.t.t.t.t.t.t.t.t.t.t.t.E.=.H ] { #.w.w.#.O.O.9.7.O.S S G b c ( G F %.8.+.V F D b W.p.p.t.t.t.t.t.t.t.t.t.t.t.",
"t.t.t.t.t.t.t.t.t.t.t.t.f.J ' H $.5.4.w.#.O.F X.7.G S S D %.6.v V j 7.&.F F G S t K.t.p.t.t.t.t.t.t.t.t.t.t.t.",
"t.t.t.t.t.t.t.t.t.t.t.t.g.l.T +.O.5.1.4.#.O.] ` +.G D S F @.` z 0 Z %.F S F G d W p.t.t.t.t.t.t.t.t.t.t.t.t.t.",
"t.t.t.t.t.t.t.t.t.t.t.t.t.r.b.G.O.G >.1.G H Z ; g G { ..G j 3 6 m ] D M D G m = L.t.t.t.t.t.t.t.t.t.t.t.t.t.t.",
"t.t.t.t.t.t.t.t.t.t.t.t.t.p.x.F.H.] ] [ N M S u k ] ( ( { l 9 l V V V D G m % v.u.t.t.t.t.t.t.t.t.t.t.t.t.t.t.",
"t.t.t.t.t.t.p.t.t.t.t.t.t.t.a.z.! G.@.O.H D S M Z 2.>...0.] V V m S G S d # - u.t.t.t.t.t.t.t.t.t.t.t.t.t.t.t.",
"t.t.t.t.t.t.t.t.t.t.t.t.t.t.t.u.k.t r p Z H H H F V V F [ G F G G V h 4 # R y.t.t.t.t.t.t.t.t.t.t.t.t.t.t.t.t.",
"t.t.t.t.t.t.t.t.t.t.t.t.t.t.t.t.p.c.L 2 > 8 g m S F F ] O.F S l 8 2 $ = j.u.t.t.t.t.t.t.t.t.t.t.t.t.t.t.t.t.t.",
"t.t.t.t.t.t.t.t.t.t.t.t.t.t.t.t.t.t.i.x.U < @ : > 3 5 8 7 3 @ @ # - h.i.p.t.t.t.t.t.t.t.t.t.t.t.t.t.t.t.t.t.t.",
"t.t.t.t.t.t.t.t.t.t.t.t.t.t.t.t.t.t.t.t.f.J.z.E U = * & * I R v.c.i.t.t.t.t.t.t.t.t.t.t.t.t.t.t.t.t.t.t.t.t.t.",
"t.t.t.t.t.t.t.t.t.t.t.t.t.t.t.t.t.t.t.t.t.t.t.a.i.y.e.e.y.u.p.t.t.t.t.t.t.t.t.t.t.t.t.t.t.t.t.t.t.t.t.t.t.t.t.",
"t.t.t.t.t.t.t.t.t.t.t.t.t.t.t.t.t.t.t.t.t.t.t.t.t.t.t.t.t.t.t.t.t.t.t.t.t.t.t.t.t.t.t.t.t.t.t.t.t.t.t.t.t.t.t.",
"t.t.t.t.t.t.t.t.t.t.t.t.t.t.t.t.t.t.t.t.t.t.t.t.t.t.t.t.t.t.t.t.t.t.t.t.t.t.t.t.t.t.t.t.t.t.t.t.t.t.t.t.t.t.t.",
"t.t.t.t.t.t.t.t.t.t.t.t.t.t.t.t.t.t.t.t.t.t.t.t.t.t.t.t.t.t.t.t.t.t.t.t.t.t.p.t.t.t.t.t.t.t.t.t.t.t.t.t.t.t.t.",
"t.t.t.t.t.t.t.t.t.t.t.t.t.t.t.t.t.t.t.t.t.t.t.t.t.t.t.t.t.t.t.t.t.t.t.t.t.t.t.t.t.t.t.t.t.t.t.t.t.t.t.t.t.t.t.",
"t.t.t.t.t.t.t.t.t.t.t.t.t.t.t.t.t.t.t.t.t.t.t.t.t.t.t.t.t.t.t.t.t.t.t.t.t.t.t.t.t.t.t.t.t.t.t.t.t.t.t.t.t.t.t.",
"t.t.t.t.t.t.t.t.t.t.t.t.t.t.t.t.t.t.t.t.t.t.t.t.t.t.t.t.t.t.t.t.t.t.t.t.t.t.t.t.t.t.t.t.t.t.t.t.t.t.t.t.t.t.t.",
"t.t.t.t.t.t.t.t.t.t.t.t.t.t.t.t.t.t.t.t.t.t.t.t.t.t.t.t.t.t.t.t.t.t.t.t.t.t.t.t.t.t.t.t.t.t.t.t.t.t.t.t.t.t.t.",
"t.t.t.t.t.t.t.t.t.t.t.t.t.t.t.t.t.t.t.t.t.t.t.t.t.t.t.t.t.t.t.t.t.t.t.t.t.t.t.t.t.t.t.t.t.t.t.t.t.t.t.t.t.t.t.",
"t.t.t.t.t.t.t.t.t.t.t.t.t.t.t.t.t.t.t.t.t.t.t.t.t.t.t.t.t.t.t.t.t.t.t.t.t.t.t.t.t.t.t.t.t.t.t.t.t.t.t.t.t.t.t.",
"t.t.t.t.t.t.t.t.t.t.t.t.t.t.t.t.t.t.t.t.t.t.t.t.t.t.t.t.t.t.t.t.t.t.t.t.t.t.t.t.t.t.t.t.t.t.t.t.t.t.t.t.t.t.t.",
"t.t.t.t.t.t.t.t.t.t.t.t.t.t.t.t.t.t.t.t.t.t.t.t.t.t.t.t.t.t.t.t.t.t.t.t.t.t.t.t.t.t.t.t.t.t.t.t.t.t.p.t.t.t.t.",
"t.t.t.t.t.t.t.t.t.t.t.t.t.t.t.t.t.t.t.t.t.t.t.t.t.t.t.t.t.t.t.t.t.t.t.t.t.t.t.t.t.t.t.t.t.t.t.t.t.t.t.t.t.t.t.",
"t.t.t.t.t.t.t.t.t.t.t.t.t.t.t.t.t.t.t.t.t.t.t.t.t.t.t.t.t.t.t.t.t.t.t.t.t.t.t.t.t.t.t.t.t.t.t.t.t.t.t.t.t.t.t.",
"t.t.t.t.t.t.t.t.t.t.t.t.t.t.t.t.t.t.t.t.t.t.t.t.t.t.t.t.t.t.t.t.t.t.t.t.t.t.t.t.t.t.t.t.t.t.t.t.t.t.t.t.t.t.t.",
"t.t.t.t.t.t.t.t.t.t.t.t.t.t.t.t.t.t.t.t.t.t.t.t.t.t.t.t.t.t.t.t.t.t.t.t.t.t.t.t.t.t.t.t.t.t.t.t.t.t.t.t.t.t.t.",
"t.t.t.t.t.t.t.t.t.t.t.t.t.t.t.t.t.t.t.t.t.t.t.t.t.t.t.t.t.t.t.t.t.t.t.t.t.t.t.t.t.t.t.t.t.t.t.t.t.t.t.t.t.t.t."
};
