/* XPM */
static char * collectible4_xpm[] = {
"64 64 632 2",
"  	c #5CBCF4",
". 	c #5DBCF4",
"+ 	c #60BEF4",
"@ 	c #5EBDF4",
"# 	c #5FBDF4",
"$ 	c #5DBDF4",
"% 	c #5CBCF5",
"& 	c #5BBCF5",
"* 	c #5EBCF3",
"= 	c #60BCF2",
"- 	c #5FBCF2",
"; 	c #5EBCF2",
"> 	c #5FBDF3",
", 	c #5DBCF3",
"' 	c #5DBEF5",
") 	c #60BFF5",
"! 	c #66BFF2",
"~ 	c #6CBFEF",
"{ 	c #70BFED",
"] 	c #79C0E8",
"^ 	c #7EBFE2",
"/ 	c #7ABFE0",
"( 	c #78BFE0",
"_ 	c #78BFDF",
": 	c #7AC0E1",
"< 	c #7CC2E8",
"[ 	c #70C0ED",
"} 	c #6ABEEF",
"| 	c #67BDF0",
"1 	c #62BEF3",
"2 	c #5EBEF4",
"3 	c #5DBDF5",
"4 	c #5ABDF7",
"5 	c #6ABEE8",
"6 	c #7DC2E0",
"7 	c #93C6D0",
"8 	c #A7C8BD",
"9 	c #B6CAB0",
"0 	c #C3CBA1",
"a 	c #CDCC97",
"b 	c #C7CC9C",
"c 	c #CECC99",
"d 	c #D4CA8C",
"e 	c #D5C883",
"f 	c #D6CA86",
"g 	c #D6CD8F",
"h 	c #CCCF9C",
"i 	c #BECFAB",
"j 	c #AFCAB8",
"k 	c #99C6CA",
"l 	c #82C3DD",
"m 	c #6DC0ED",
"n 	c #5DBEF6",
"o 	c #5BBEF6",
"p 	c #65BEF1",
"q 	c #7DC2E2",
"r 	c #9DC6C9",
"s 	c #B4CAB0",
"t 	c #C9C497",
"u 	c #D7BA7E",
"v 	c #DCB069",
"w 	c #DCA85B",
"x 	c #DEA44B",
"y 	c #E0A644",
"z 	c #ECBE54",
"A 	c #F3CF57",
"B 	c #F6CE48",
"C 	c #F7C839",
"D 	c #F1BC38",
"E 	c #E2A439",
"F 	c #DFA746",
"G 	c #DFB25B",
"H 	c #E1C176",
"I 	c #DFCB8E",
"J 	c #D9CE9E",
"K 	c #C9CCAB",
"L 	c #A7C7C0",
"M 	c #82C3DC",
"N 	c #64BEF1",
"O 	c #5BBDF6",
"P 	c #5BBCF4",
"Q 	c #61BEF2",
"R 	c #7BC2E4",
"S 	c #A3C7C8",
"T 	c #C5CAA5",
"U 	c #D5C17F",
"V 	c #DBB261",
"W 	c #E1A23F",
"X 	c #E69924",
"Y 	c #E9991A",
"Z 	c #EBA01B",
"` 	c #EDA921",
" .	c #EEAF26",
"..	c #FAC02F",
"+.	c #FDCD35",
"@.	c #FDCD33",
"#.	c #FECB30",
"$.	c #F9C32E",
"%.	c #ECAC25",
"&.	c #EAA620",
"*.	c #EAA324",
"=.	c #E3A53F",
"-.	c #DEAA55",
";.	c #DDB163",
">.	c #DFBB69",
",.	c #DCC574",
"'.	c #D0C794",
").	c #AEC2BA",
"!.	c #84C2DE",
"~.	c #67C1F2",
"{.	c #5EBEF6",
"].	c #66BEEF",
"^.	c #87C1DA",
"/.	c #B2C7B2",
"(.	c #D7C87F",
"_.	c #ECBD4D",
":.	c #ECA92D",
"<.	c #E79519",
"[.	c #E78E16",
"}.	c #EA9C20",
"|.	c #F0B028",
"1.	c #F1B72B",
"2.	c #E7A928",
"3.	c #E3A628",
"4.	c #F3BC2D",
"5.	c #FBC930",
"6.	c #FDCB31",
"7.	c #FECF33",
"8.	c #FCCB32",
"9.	c #F7BA2C",
"0.	c #F8C533",
"a.	c #F4BD2E",
"b.	c #E3A22D",
"c.	c #D69534",
"d.	c #D19644",
"e.	c #D79C49",
"f.	c #E7AB36",
"g.	c #F3BA30",
"h.	c #E6C05C",
"i.	c #C7BD9C",
"j.	c #98BCCC",
"k.	c #6BBCE9",
"l.	c #5ABCF5",
"m.	c #63BDF1",
"n.	c #8CC1D8",
"o.	c #BDC5A4",
"p.	c #E0C364",
"q.	c #EFB739",
"r.	c #F2A220",
"s.	c #F1A01F",
"t.	c #EFA826",
"u.	c #F5B32B",
"v.	c #FAC22F",
"w.	c #FECF34",
"x.	c #F5C430",
"y.	c #D88D1F",
"z.	c #C97417",
"A.	c #EBB12A",
"B.	c #FBCA32",
"C.	c #FECE32",
"D.	c #FAC52F",
"E.	c #F4A923",
"F.	c #FCC734",
"G.	c #FBC932",
"H.	c #F4BC36",
"I.	c #EFB734",
"J.	c #E9B22E",
"K.	c #E3A728",
"L.	c #E5A023",
"M.	c #F2A723",
"N.	c #F9B528",
"O.	c #F4B435",
"P.	c #D0B27F",
"Q.	c #98B8C5",
"R.	c #68BDED",
"S.	c #62BDF2",
"T.	c #81BFDF",
"U.	c #BDC2A4",
"V.	c #E5C661",
"W.	c #F3BB36",
"X.	c #F3A623",
"Y.	c #F6A922",
"Z.	c #FBC02F",
"`.	c #F9CD3C",
" +	c #FBD23D",
".+	c #FED338",
"++	c #FED435",
"@+	c #F9CA33",
"#+	c #E8AB2A",
"$+	c #E1A126",
"%+	c #F7C630",
"&+	c #FED234",
"*+	c #FACA32",
"=+	c #F2B329",
"-+	c #FBB827",
";+	c #F8B126",
">+	c #FACB3B",
",+	c #FCD743",
"'+	c #FCD641",
")+	c #FCD13A",
"!+	c #FBC430",
"~+	c #F7B026",
"{+	c #F6AC24",
"]+	c #FAB728",
"^+	c #F5B02E",
"/+	c #D2B486",
"(+	c #94BFCE",
"_+	c #62BCF1",
":+	c #5FBCF3",
"<+	c #74BFE9",
"[+	c #B1C2B1",
"}+	c #DEC76F",
"|+	c #F2C63C",
"1+	c #F9BD29",
"2+	c #FAB828",
"3+	c #F8C634",
"4+	c #FDDA44",
"5+	c #FDEC54",
"6+	c #FDDE49",
"7+	c #FCD139",
"8+	c #FBD136",
"9+	c #FAD239",
"0+	c #FACE38",
"a+	c #FAD237",
"b+	c #FDD637",
"c+	c #FED235",
"d+	c #FED737",
"e+	c #FDD437",
"f+	c #FCBF2A",
"g+	c #FDD23C",
"h+	c #FEE24B",
"i+	c #FDE54E",
"j+	c #FDDE48",
"k+	c #FCD23E",
"l+	c #FCC22E",
"m+	c #FAB123",
"n+	c #FBB324",
"o+	c #FCAD20",
"p+	c #F3B246",
"q+	c #C9BE9F",
"r+	c #77BEE5",
"s+	c #62BCF0",
"t+	c #87BFD6",
"u+	c #D3BF89",
"v+	c #F4CC49",
"w+	c #FAC12C",
"x+	c #FAB726",
"y+	c #FDC72F",
"z+	c #FDDA3E",
"A+	c #FEED54",
"B+	c #FEF259",
"C+	c #FEE34B",
"D+	c #EFBF35",
"E+	c #DC9F2A",
"F+	c #DEA62F",
"G+	c #EEBC31",
"H+	c #F5C230",
"I+	c #FCD134",
"J+	c #FED335",
"K+	c #FED536",
"L+	c #FED837",
"M+	c #FED838",
"N+	c #FED738",
"O+	c #FED134",
"P+	c #FED73F",
"Q+	c #FEE049",
"R+	c #FEE54E",
"S+	c #FDD039",
"T+	c #FCBE2B",
"U+	c #FCB625",
"V+	c #FCB323",
"W+	c #FBB728",
"X+	c #DEBE81",
"Y+	c #8DC0D1",
"Z+	c #61BCF1",
"`+	c #62BDF1",
" @	c #8DBCCC",
".@	c #DBC17B",
"+@	c #F9CE3F",
"@@	c #FDC92E",
"#@	c #FCC22C",
"$@	c #FDCE34",
"%@	c #FEE246",
"&@	c #FEF258",
"*@	c #FEF35A",
"=@	c #FFED54",
"-@	c #EDC73F",
";@	c #C78924",
">@	c #B2661A",
",@	c #CD7E1B",
"'@	c #E0901E",
")@	c #F8C430",
"!@	c #FACB33",
"~@	c #F5C231",
"{@	c #F8CA33",
"]@	c #FBCF35",
"^@	c #F5BD30",
"/@	c #F9CB34",
"(@	c #FDD235",
"_@	c #FED137",
":@	c #FDD239",
"<@	c #FDDB42",
"[@	c #FEE44A",
"}@	c #FDE24B",
"|@	c #FDD944",
"1@	c #FDC531",
"2@	c #FCBC29",
"3@	c #FCBA28",
"4@	c #FDBB22",
"5@	c #E4BF6E",
"6@	c #9AC3C0",
"7@	c #63BDF0",
"8@	c #61BEF3",
"9@	c #8EC1D1",
"0@	c #D9C77E",
"a@	c #F8D03F",
"b@	c #FED133",
"c@	c #FDCD36",
"d@	c #FEE148",
"e@	c #FEF159",
"f@	c #FEEC51",
"g@	c #F8D741",
"h@	c #E4B42E",
"i@	c #D19122",
"j@	c #D48623",
"k@	c #E29724",
"l@	c #F9C631",
"m@	c #F8C531",
"n@	c #F1B72C",
"o@	c #F6C530",
"p@	c #F7C631",
"q@	c #E6921F",
"r@	c #E69921",
"s@	c #F2B62B",
"t@	c #FBCB35",
"u@	c #FDD43C",
"v@	c #FDE14A",
"w@	c #FEE44D",
"x@	c #FDDB45",
"y@	c #FDC431",
"z@	c #FDC02B",
"A@	c #FDBF22",
"B@	c #E6C46D",
"C@	c #9EC6BF",
"D@	c #61BFF4",
"E@	c #8CC6DB",
"F@	c #D5CA85",
"G@	c #F7D342",
"H@	c #FFD536",
"I@	c #FDCE35",
"J@	c #FCC934",
"K@	c #FED840",
"L@	c #FEEA51",
"M@	c #FEE84D",
"N@	c #FEDE3E",
"O@	c #FDD336",
"P@	c #F6C539",
"Q@	c #EFBF42",
"R@	c #F3C73D",
"S@	c #FCD136",
"T@	c #FAC831",
"U@	c #F7BE2D",
"V@	c #F8CB34",
"W@	c #E69E26",
"X@	c #DC8720",
"Y@	c #ECAA28",
"Z@	c #FAC833",
"`@	c #FDC931",
" #	c #FDD13A",
".#	c #FEE149",
"+#	c #FED23B",
"@#	c #FDC32E",
"##	c #FCC02C",
"$#	c #FEC32A",
"%#	c #E6CC7A",
"&#	c #9DCACB",
"*#	c #60BEF5",
"=#	c #83C3E3",
"-#	c #CEC38F",
";#	c #F1CA46",
">#	c #FBD13B",
",#	c #FCCF3B",
"'#	c #FDCB30",
")#	c #FDD135",
"!#	c #FEDF42",
"~#	c #FEE349",
"{#	c #FED93B",
"]#	c #FDD337",
"^#	c #F9D041",
"/#	c #F5D04D",
"(#	c #FCD844",
"_#	c #FED438",
":#	c #FED033",
"<#	c #FDCC32",
"[#	c #FCD639",
"}#	c #F4C537",
"|#	c #E5AC2F",
"1#	c #EFB029",
"2#	c #F8B929",
"3#	c #FCB926",
"4#	c #FDCA34",
"5#	c #FEDC41",
"6#	c #FED43C",
"7#	c #FDC930",
"8#	c #FDC52F",
"9#	c #FCC432",
"0#	c #FCBC2C",
"a#	c #FCC033",
"b#	c #E0CC8B",
"c#	c #94CBDA",
"d#	c #5FBFF6",
"e#	c #59BEF8",
"f#	c #5BBDF5",
"g#	c #71BFED",
"h#	c #BAB8A6",
"i#	c #E0A953",
"j#	c #F2BD4A",
"k#	c #FBD461",
"l#	c #FDD758",
"m#	c #FED53F",
"n#	c #FED939",
"o#	c #FEDA40",
"p#	c #FCD33C",
"q#	c #FCCD34",
"r#	c #FACA33",
"s#	c #F2C038",
"t#	c #E8AC39",
"u#	c #F7B82C",
"v#	c #FDCE33",
"w#	c #FED436",
"x#	c #FBD137",
"y#	c #F2BD33",
"z#	c #E9AD2B",
"A#	c #EC981D",
"B#	c #F49D1B",
"C#	c #FAAE22",
"D#	c #FDD238",
"E#	c #FDC82F",
"F#	c #FCC32F",
"G#	c #FAB933",
"H#	c #FBA825",
"I#	c #F0AD4B",
"J#	c #C6BFA4",
"K#	c #7BC3E9",
"L#	c #5ABEF7",
"M#	c #8BBBD1",
"N#	c #C19A83",
"O#	c #E4AA6B",
"P#	c #F5D395",
"Q#	c #FCE298",
"R#	c #FEDB67",
"S#	c #FED64E",
"T#	c #FED43D",
"U#	c #F8C733",
"V#	c #F7C42E",
"W#	c #F8C92E",
"X#	c #F0B72A",
"Y#	c #DD881E",
"Z#	c #E79B21",
"`#	c #F8C731",
" $	c #FCC730",
".$	c #FCC22D",
"+$	c #FCCA33",
"@$	c #F6C333",
"#$	c #E59720",
"$$	c #DF8A1B",
"%$	c #EB981D",
"&$	c #F8AE24",
"*$	c #FCBF2C",
"=$	c #FDCC33",
"-$	c #FCC42D",
";$	c #FBB425",
">$	c #F89C1E",
",$	c #F4822A",
"'$	c #D49883",
")$	c #96BACD",
"!$	c #5FBEF4",
"~$	c #66BCEE",
"{$	c #94ADC3",
"]$	c #C69E84",
"^$	c #E5A666",
"/$	c #F3C686",
"($	c #FBE5A2",
"_$	c #FCE49D",
":$	c #FBD564",
"<$	c #FBD33D",
"[$	c #FCD538",
"}$	c #FDD739",
"|$	c #FBD236",
"1$	c #F3BD2F",
"2$	c #EDB52D",
"3$	c #EDB12C",
"4$	c #F2B52B",
"5$	c #F3BA2E",
"6$	c #F2BC30",
"7$	c #F5BF2C",
"8$	c #FCCF37",
"9$	c #FDCF36",
"0$	c #FCC32E",
"a$	c #FBB526",
"b$	c #F7A31F",
"c$	c #F68E1A",
"d$	c #F37C2A",
"e$	c #D78B75",
"f$	c #A3ACBF",
"g$	c #6FBDEB",
"h$	c #6AB9EB",
"i$	c #91B3CB",
"j$	c #BDA995",
"k$	c #DDA264",
"l$	c #ECAD6C",
"m$	c #F1B975",
"n$	c #EFAE4E",
"o$	c #EEB135",
"p$	c #F4CA44",
"q$	c #FCDA47",
"r$	c #FEDA39",
"s$	c #FED637",
"t$	c #FCD034",
"u$	c #FACF39",
"v$	c #FAD349",
"w$	c #FAD653",
"x$	c #FDDA47",
"y$	c #FED93A",
"z$	c #FDCF34",
"A$	c #FDC42E",
"B$	c #FBB225",
"C$	c #F89D1D",
"D$	c #F78D15",
"E$	c #F57E1C",
"F$	c #E97E42",
"G$	c #C8948B",
"H$	c #99ADC9",
"I$	c #70BAEA",
"J$	c #67BDED",
"K$	c #85B9D8",
"L$	c #A9AEB6",
"M$	c #C9A086",
"N$	c #E29853",
"O$	c #ED8E2B",
"P$	c #EF8D19",
"Q$	c #F1A22E",
"R$	c #F6B434",
"S$	c #F9BA2A",
"T$	c #F9BB2A",
"U$	c #F9B728",
"V$	c #FABC2A",
"W$	c #FCC52D",
"X$	c #FCCF45",
"Y$	c #FAD571",
"Z$	c #F9D680",
"`$	c #F7CF59",
" %	c #F6C136",
".%	c #F8B528",
"+%	c #F8A821",
"@%	c #F89B19",
"#%	c #F78A0A",
"$%	c #F27E19",
"%%	c #E78248",
"&%	c #D3907F",
"*%	c #B4A4B3",
"=%	c #88B3D7",
"-%	c #66BBEE",
";%	c #6EBDEA",
">%	c #91B7D0",
",%	c #B4ABB0",
"'%	c #CCA291",
")%	c #DD986C",
"!%	c #E59046",
"~%	c #EC8D28",
"{%	c #F38F14",
"]%	c #F58E05",
"^%	c #F58E04",
"/%	c #F6930A",
"(%	c #F89B11",
"_%	c #F8A633",
":%	c #F6AC60",
"<%	c #F4AA6D",
"[%	c #F3A243",
"}%	c #F2931C",
"|%	c #F28912",
"1%	c #EC8519",
"2%	c #E68540",
"3%	c #DC8A69",
"4%	c #CC968E",
"5%	c #B5A3AF",
"6%	c #92B0CF",
"7%	c #70BCE9",
"8%	c #5CBEF5",
"9%	c #5ABDF6",
"0%	c #6CC0EE",
"a%	c #83BBDB",
"b%	c #A1B4C1",
"c%	c #B8AAA8",
"d%	c #C89F93",
"e%	c #D39584",
"f%	c #DB8E75",
"g%	c #DD8D69",
"h%	c #DD855C",
"i%	c #DD8057",
"j%	c #DD7F56",
"k%	c #DD7F55",
"l%	c #DD815B",
"m%	c #DC886A",
"n%	c #DA8D77",
"o%	c #D29085",
"p%	c #C59A91",
"q%	c #B7A2A4",
"r%	c #A1ACBF",
"s%	c #84B8DA",
"t%	c #6BBEED",
"u%	c #67BEF1",
"v%	c #73BCE7",
"w%	c #7FB8DB",
"x%	c #8DB5CE",
"y%	c #93ADC2",
"z%	c #93A4B5",
"A%	c #95A0B0",
"B%	c #979FAF",
"C%	c #969FAF",
"D%	c #96A3B4",
"E%	c #93AEC3",
"F%	c #8CB7D1",
"G%	c #7CB9DE",
"H%	c #71BCE9",
"I%	c #68BDF0",
"J%	c #60BDF4",
"K%	c #61BCF2",
"L%	c #60BCF3",
"M%	c #60BBF2",
"N%	c #61BBF2",
"O%	c #62BBF1",
"                                                                                                              . + .             ",
"                    @ @       # $                                                                               .               ",
"                    . .       $ .                                       # .                                                     ",
"                                                                        @ .                                                     ",
"                                                                                                                                ",
"                                                                              . $ .                                             ",
"                                                                              @ + #                                             ",
"                                                                                .                                               ",
"                                                                                                                                ",
"                                                                                                                                ",
"                                                                                                                                ",
"                                                                                                                                ",
"                                                                                                                                ",
"                                                                                                                                ",
"                                                                                                                                ",
"                                                                                                                                ",
"                                                                                                                                ",
"                                                                                                                                ",
"                                                                                                                          . @   ",
"                                                                                                                          $ #   ",
"                                              % & %   . * = - ; ; ; >       &                                                   ",
"                                            , ' ) ! ~ { ] ^ / ( _ : < [ } | 1 2 3 4 %                                           ",
"                                        . = 5 6 7 8 9 0 a b c d e f g h i j k l m n o                                           ",
"                                    % p q r s t u v w x y z A B C D E F G H I J K L M N 4 4 O                                   ",
"                                P Q R S T U V W X Y Z `  ...+.@.#.$.%.&.*.=.-.;.>.,.'.).!.~.{.                                  ",
"                                ].^./.(._.:.<.[.}.|.1.2.3.4.5.6.7.8.9.0.a.b.c.d.e.f.g.h.i.j.k.l.                                ",
"                              m.n.o.p.q.r.s.t.u.v.w.x.y.z.A.B.6.C.D.E.F.G.H.I.J.K.L.M.N.O.P.Q.R.                                ",
"                            S.T.U.V.W.X.Y.Z.`. +.+++@+#+$+%+&+C.7.*+=+-+;+>+,+'+)+!+~+{+]+^+/+(+_+                              ",
"                          :+<+[+}+|+1+2+3+4+5+6+7+8+9+0+a+b+++c+++d+e+6.f+g+h+i+j+k+l+m+n+o+p+q+r+*                             ",
"                          s+t+u+v+w+x+y+z+A+B+C+D+E+F+G+H+I+J+c+K+L+M+N+O+P+Q+i+R+j+S+T+U+V+W+X+Y+Z+                            ",
"                        & `+ @.@+@@@#@$@%@&@*@=@-@;@>@,@'@)@!@~@{@]@^@/@(@_@:@<@[@}@|@1@2@3@4@5@6@7@                            ",
"                        & 8@9@0@a@b@6.c@d@e@*@f@g@h@i@j@k@l@m@n@o@p@q@r@s@t@$@u@v@w@x@y@z@T+A@B@C@7@                            ",
"                        & D@E@F@G@H@I@J@K@L@B+M@N@O@P@Q@R@S@T@U@*+V@W@X@Y@Z@`@ #.#Q++#@#@###$#%#&#1 O                           ",
"                        & *#=#-#;#>#,#'#)#!#L@~#{#]#^#/#(#_#:#<#c+[#}#|#1#2#3#4#5#6#7#8#9#0#a#b#c#d#e#f#                        ",
"                          $ g#h#i#j#k#l#m#n#o#p#q#r#s#t#u#v#O+:#w#x#y#z#A#B#C#1@D#@.E#F#G#H#I#J#K#n L#&                         ",
"                          % + M#N#O#P#Q#R#S#T#U#V#W#X#Y#Z#`# $.$+$@$#$$$%$&$*$=$c+v#-$;$>$,$'$)$*#!$                            ",
"                              ~${$]$^$/$($_$:$<$[$}$|$p@1$2$3$4$5$6$7$`#]@8$9$=$0$a$b$c$d$e$f$g$  .                             ",
"                                h$i$j$k$l$m$n$o$p$q$r$s$t${@V@u$v$w$x$y$s$z$A$B$C$D$E$F$G$H$I$>                                 ",
"                                & J$K$L$M$N$O$P$Q$R$S$T$U$V$W$X$Y$Z$`$ %.%+%@%#%$%%%&%*%=%-%f#                                  ",
"                                  P $ ;%>%,%'%)%!%~%{%]%^%/%(%_%:%<%[%}%|%1%2%3%4%5%6%7%8%9%                                    ",
"                                      P @ 0%a%b%c%d%e%f%g%h%i%j%k%l%m%n%o%p%q%r%s%t%o &                                         ",
"                                          . , 3 u%v%w%x%y%z%A%B%C%D%E%F%G%H%I%J%O O                                             ",
"                                                . * - K%L%L%M%M%M%N%O%# 3 $ .                                                   ",
"                                                        & & & & & &   & &                                                       ",
"                                                                                                                                ",
"                                                                                                                                ",
"                                                                                                                                ",
"                                                                                                                                ",
"                                                                                                                                ",
"                                                                                                                                ",
"                                                                                                                                ",
"                                                                                                                                ",
"                                                                                                          @ @                   ",
"                                                                                                          $ @                   ",
"                                      . $                                                                                       ",
"                                      . #                                                                                       ",
"                                                                                                                                ",
"                                                                                                                                ",
"                                                                                                                                ",
"                                      . #                                                             @ $                       ",
"                                      . @                                                             @ .                       ",
"                                                                                                                                ",
"                                                                                                                                ",
"                                                                                                                                "};
