/* XPM */
static char *collectible6[] = {
/* columns rows colors chars-per-pixel */
"55 55 102 2 ",
"   c #CE6206",
".  c #CE600A",
"X  c #CF6608",
"o  c #EF7B11",
"O  c #DE792F",
"+  c #DE7B31",
"@  c #E1782A",
"#  c #E17E30",
"$  c #E87E30",
"%  c #DE7C44",
"&  c #F6810F",
"*  c #E08013",
"=  c #E28817",
"-  c #F78510",
";  c #F88610",
":  c #F68D15",
">  c #E39E29",
",  c #E78536",
"<  c #E88332",
"1  c #E98332",
"2  c #E78936",
"3  c #E2833D",
"4  c #E8843A",
"5  c #E08B3C",
"6  c #E09A34",
"7  c #E5A02C",
"8  c #F7A72B",
"9  c #F6A82B",
"0  c #F7A92B",
"q  c #F7AB2B",
"w  c #E8AB3E",
"e  c #F7AA30",
"r  c #F2BC37",
"t  c #F0B138",
"y  c #F6BB3F",
"u  c #E98745",
"i  c #E38249",
"p  c #E2944D",
"a  c #EABD4D",
"s  c #EAB650",
"d  c #E49A69",
"f  c #D9B868",
"g  c #E9A16A",
"h  c #E6A676",
"j  c #FBDA46",
"k  c #FAD04E",
"l  c #F7DC66",
"z  c #E4C27B",
"x  c #F2D973",
"c  c #75B1D1",
"v  c #76B4D4",
"b  c #75B8D7",
"n  c #75BADB",
"m  c #76BADB",
"M  c #74BBDC",
"N  c #73BCDE",
"B  c #59BBF7",
"V  c #5ABCF4",
"C  c #5BBCF4",
"Z  c #59BCF7",
"A  c #5ABCF6",
"S  c #5CBCF4",
"D  c #5DBDF5",
"F  c #74BDE3",
"G  c #74BEE4",
"H  c #75BFE8",
"J  c #61BEF3",
"K  c #65BFF0",
"L  c #7AC4E7",
"P  c #76C0ED",
"I  c #70C3F3",
"U  c #D5B68D",
"Y  c #95C6BE",
"T  c #F1CD81",
"R  c #F1E994",
"E  c #EED3AD",
"W  c #F6E7AA",
"Q  c #F8E3AD",
"!  c #F7E6B0",
"~  c #8ABEC4",
"^  c #93C3C2",
"/  c #95C3C2",
"(  c #92C5C1",
")  c #95C4C6",
"_  c #95C9C0",
"`  c #94C9C3",
"'  c #95CCC1",
"]  c #95CDC3",
"[  c #94C8C4",
"{  c #94CAC4",
"}  c #96CBCB",
"|  c #83C1D5",
" . c #86C4DF",
".. c #8ACBDE",
"X. c #93C8D5",
"o. c #97CFD4",
"O. c #90CDDD",
"+. c #98CFD8",
"@. c #A4D4D5",
"#. c #FBF5E5",
"$. c #FCF8F2",
"%. c #FCFAF4",
/* pixels */
"S S S S S S S S S S S S S S S S S S S S S S S S S S S S S S S S S S S S S S S S S S S S S S S S S S S S S S S ",
"S S S S S S S S S S S S S S S S S S S S S S S S S S S S S S S S S S S S S S S S S S S S S S S S S S S S S S S ",
"S S S S S S S S S S S S S S S S S S S S S S S S S S S S S S S S S S S S S S S S S S S S S S S S S S S S S S S ",
"S S S S S S S S S S S S S S S S S S S S S S S S S S S S S S S S S S S S S S S S S S S S S S S S S S S S S S S ",
"S S S S S S S S S S S S S S S S S S S S S S S S S S S S S S S S S S S S S S S S S S S S S S S S S S S S S S S ",
"S S S S S S S S S S S S S S S S S S S S S S S S S S S S S S S S S S S S S S S S S S S S S S S S S S S S S S S ",
"S S S S S S S S S S S S S S S S S S S S S S S S S S S S S S S S S S S S S S S S S S S S S S S S S S S S S S S ",
"S S S S S S S S S S S S S S S S S S S S S S S S S S S S S S S S S S S S S S S S S S S S S S S S S S S S S S S ",
"S S S S S S S S S S S S S S S S S S S S S S S S S S S S S S S S S S S S S S S S S S S S S S S S S S S S S S S ",
"S S S S S S S S S S S S S S S S S S S S S S S S S S S S S S S S S S S S S S S S S S S S S S S S S S S S S S S ",
"S S S S S S S S S S S S S S S S S S S S S S S S S S S S S S S S S S S S S S S S S S S S S S S S S S S S S S S ",
"S S S S S S S S S S S S S S S S S S S S S S S S S S S S S S S S S S S S S S S S S S S S S S S S S S S S S S S ",
"S S S S S S S S S S S S S S S S S S S S S S S S S S S S S S S S S S S S S S S S S S S S S S S S S S S S S S S ",
"S S S S S S S S S S S S S S S S S S S S S S S S S S S S S S S S S S S S S S S S S S S S S S S S S S S S S S S ",
"S S S S S S S S S S S S S S S S S S S S S S S S S S S S S S S S S S S S S S S S S S S S S S S S S S S S S S S ",
"S S S S S S S S S S S S S S S S S S S S S S S S S S S S S S S S S S S S S S S S S S S S S S S S S S S S S S S ",
"S S S S S S S S S S S S S S S S S S S S S S S S S S S S S S S S S S S S S S S S S S S S S S S S S S S S S S S ",
"S S S S S S S S S S S S S S S S S S S S S S S S S S S S S S S S S S S S S S S S S S S S S S S S S S S S S S S ",
"S S S S S S S S S S S S S S S S S S S S S S S S S S S S S S S S S S S S S S S S S S S S S S S S S S S S S S S ",
"S S S S S S S S S S S S S S S S S S S S S S S S S S S S S S S S S S S S S S S S S S S S S S S S S S S S S S S ",
"S S S S S S S S S S S S S S S S S S S S S S S S S S S S S S S S S S S S S S S S S S S S S S S S S S S S S S S ",
"S S S S S S S S S S S S S S S S S S S S S S S S S S S S S S S S S S S S S S S S S S S S S S S S S S S S S S S ",
"S S S S S S S S S S S S S S S S S S S S S S S S S S S S S S S S S S S S S S S S S S S S S S S S S S S S S S S ",
"S S S S S S S S S S S S S S S S S S S S S S S S S S S S S S S S S S S S S S S A S S S S S S S S S S S S S S S ",
"S S S S S S S S S S S S S B B B B C B B Z Z Z Z B B B B B B B B A A Z A B B J S B S S S S S S S S S S S S S S ",
"S S S S S S S S S S S S J  .X.} ) ^ ^ ( [ ] ] ] ' ' _ Y Y _ [ _ { _ { { { { } } O.K S S S S S S S S S S S S S ",
"S S S S S S S S S S S A | f w 6 T Q ! Q s > > > 7 r j x x t 9 9 q q q 9 8 q q a l +.B S S S S S S S S S S S S ",
"S S S S S S S S S S S A ~ a * . E %.$.#.5 X X X   = j R a o ; ; ; - - - & & - : k @.B S S S S S S S S S S S S ",
"S S S S S S S S S S S A L U i % d h h g 3 + + # # @ 2 p # $ 1 1 1 1 1 1 , 4 4 u z ..A A S S S S S S S S S S S ",
"S S S S S S S S S S S S S I P G F n n m n n n m n v c v c m m m m m m M N N G P P A S S S S S S S S S S S S S ",
"S S S S S S S S S S S S S A B S B A B B Z S Z D Z Z Z Z S Z B B A A A A A A A C A S S S S S S S S S S S S S S ",
"S S S S S S S S S S S S S S S S S S S C S S S S S S S D S S S S S S S S S S S S S S S S S S S S S S S S S S S ",
"S S S S S S S S S S S S S S S S S S S S S S S S S S S S S S S S S S S S S S S S S S S S S S S S S S S S S S S ",
"S S S S S S S S S S S S S S S S S S S S S S S S S S S S S S S S S S S S S S S S S S S S S S S S S S S S S S S ",
"S S S S S S S S S S S S S S S S S S S S S S S S S S S S S S S S S S S S S S S S S S S S S S S S S S S S S S S ",
"S S S S S S S S S S S S S S S S S S S S S S S S S S S S S S S S S S S S S S S S S S S S S S S S S S S S S S S ",
"S S S S S S S S S S S S S S S S S S S S S S S S S S S S S S S S S S S S S S S S S S S S S S S S S S S S S S S ",
"S S S S S S S S S S S S S S S S S S S S S S S S S S S S S S S S S S S S S S S S S S S S S S S S S S S S S S S ",
"S S S S S S S S S S S S S S S S S S S S S S S S S S S S S S S S S S S S S S S S S S S S S S S S S S S S S S S ",
"S S S S S S S S S S S S S S S S S S S S S S S S S S S S S S S S S S S S S S S S S S S S S S S S S S S S S S S ",
"S S S S S S S S S S S S S S S S S S S S S S S S S S S S S S S S S S S S S S S S S S S S S S S S S S S S S S S ",
"S S S S S S S S S S S S S S S S S S S S S S S S S S S S S S S S S S S S S S S S S S S S S S S S S S S S S S S ",
"S S S S S S S S S S S S S S S S S S S S S S S S S S S S S S S S S S S S S S S S S S S S S S S S S S S S S S S ",
"S S S S S S S S S S S S S S S S S S S S S S S S S S S S S S S S S S S S S S S S S S S S S S S S S S S S S S S ",
"S S S S S S S S S S S S S S S S S S S S S S S S S S S S S S S S S S S S S S S S S S S S S S S S S S S S S S S ",
"S S S S S S S S S S S S S S S S S S S S S S S S S S S S S S S S S S S S S S S S S S S S S S S S S S S S S S S ",
"S S S S S S S S S S S S S S S S S S S S S S S S S S S S S S S S S S S S S S S S S S S S S S S S S S S S S S S ",
"S S S S S S S S S S S S S S S S S S S S S S S S S S S S S S S S S S S S S S S S S S S S S S S S S S S S S S S ",
"S S S S S S S S S S S S S S S S S S S S S S S S S S S S S S S S S S S S S S S S S S S S S S S S S S S S S S S ",
"S S S S S S S S S S S S S S S S S S S S S S S S S S S S S S S S S S S S S S S S S S S S S S S S S S S S S S S ",
"S S S S S S S S S S S S S S S S S S S S S S S S S S S S S S S S S S S S S S S S S S S S S S S S S S S S S S S ",
"S S S S S S S S S S S S S S S S S S S S S S S S S S S S S S S S S S S S S S S S S S S S S S S S S S S S S S S ",
"S S S S S S S S S S S S S S S S S S S S S S S S S S S S S S S S S S S S S S S S S S S S S S S S S S S S S S S ",
"S S S S S S S S S S S S S S S S S S S S S S S S S S S S S S S S S S S S S S S S S S S S S S S S S S S S S S S ",
"S S S S S S S S S S S S S S S S S S S S S S S S S S S S S S S S S S S S S S S S S S S S S S S S S S S S S S S "
};
