/* XPM */
static char *collectible11[] = {
/* columns rows colors chars-per-pixel */
"55 55 168 2 ",
"   c #F49E1E",
".  c #FBA61D",
"X  c #FEAB1E",
"o  c #FFB01E",
"O  c #F49D23",
"+  c #FB9E25",
"@  c #F89E2D",
"#  c #F6A523",
"$  c #FCA523",
"%  c #FDAD21",
"&  c #F8A72A",
"*  c #FAAB2B",
"=  c #FEB224",
"-  c #FEB827",
";  c #F6B32D",
":  c #FDB32A",
">  c #FEBB2B",
",  c #F3AE35",
"<  c #F8A931",
"1  c #F5A73E",
"2  c #F4AC3A",
"3  c #F9AC38",
"4  c #F6B333",
"5  c #FAB436",
"6  c #FDBC34",
"7  c #F5B23D",
"8  c #FCBC3C",
"9  c #FEC22E",
"0  c #FECC2F",
"q  c #FEC333",
"w  c #FEC936",
"e  c #FDC43C",
"r  c #FDCB3C",
"t  c #FED233",
"y  c #FED13E",
"u  c #FEDA38",
"i  c #EF9E41",
"p  c #DDAF57",
"a  c #E3AB46",
"s  c #F8A740",
"d  c #F4AD42",
"f  c #E6B04B",
"g  c #F6B643",
"h  c #FAB443",
"j  c #F3BE44",
"k  c #F1B54F",
"l  c #F8B74C",
"z  c #F2BD4D",
"x  c #EAA554",
"c  c #E3AF52",
"v  c #F2AD5A",
"b  c #EAB250",
"n  c #E7B858",
"m  c #F6B858",
"M  c #D5A469",
"N  c #D5B26A",
"B  c #CDB774",
"V  c #D5B574",
"C  c #D3B97D",
"Z  c #F6BC63",
"A  c #FDC443",
"S  c #FECA43",
"D  c #FCC54B",
"F  c #FDCD4D",
"G  c #FED444",
"H  c #FEDA47",
"J  c #FDD34B",
"K  c #FDDB4B",
"L  c #FCC650",
"P  c #FDC953",
"I  c #FCCB5B",
"U  c #EDD45D",
"Y  c #F1D357",
"T  c #FCD352",
"R  c #FDDC54",
"E  c #FDD75A",
"W  c #FDDD5C",
"Q  c #FEE14C",
"!  c #FEE652",
"~  c #FEEA53",
"^  c #FEE45B",
"/  c #FEEC5C",
"(  c #FEF357",
")  c #FEF35A",
"_  c #FEFA5B",
"`  c #D8C373",
"'  c #FCCD6B",
"]  c #FCD562",
"[  c #F4CE7A",
"{  c #E4D672",
"}  c #FBD676",
"|  c #FCE867",
" . c #F5EC6E",
".. c #FEE96C",
"X. c #FEF663",
"o. c #FEFA63",
"O. c #FDF56B",
"+. c #FEFE6C",
"@. c #FEEE77",
"#. c #FEF276",
"$. c #FEFE72",
"%. c #FEF47C",
"&. c #FEFD7C",
"*. c #5CBCF4",
"=. c #77BEE1",
"-. c #61BFF4",
";. c #68BFF0",
":. c #75C2DF",
">. c #7FC8DE",
",. c #6CC1ED",
"<. c #7CC5E4",
"1. c #76C3E9",
"2. c #77C8EA",
"3. c #78C9EA",
"4. c #65C0F2",
"5. c #A2B29C",
"6. c #B4BE9C",
"7. c #A3B6A5",
"8. c #B0B7A8",
"9. c #A3BBB5",
"0. c #CCBA83",
"q. c #C7BD8D",
"w. c #C8B888",
"e. c #BEC296",
"r. c #AFC5AD",
"t. c #B2C9A5",
"y. c #B2C1AF",
"u. c #A7C1B9",
"i. c #B4CCB0",
"p. c #AFDBBC",
"a. c #BDE0B6",
"s. c #C9C88A",
"d. c #C6C296",
"f. c #D7D09F",
"g. c #D9D49E",
"h. c #FCCD83",
"j. c #FAD383",
"k. c #FCDE82",
"l. c #FADF90",
"z. c #D9E78C",
"x. c #C6E49E",
"c. c #DAEC94",
"v. c #FCE883",
"b. c #FEF081",
"n. c #FEFC83",
"m. c #FEFF8B",
"M. c #FBE192",
"N. c #FEFD98",
"B. c #C7D4AB",
"V. c #C0E3AE",
"C. c #C8E7A8",
"Z. c #FBF2A5",
"A. c #83BAC4",
"S. c #A2BCC1",
"D. c #88C1CD",
"F. c #94C5CD",
"G. c #81C4D5",
"H. c #8AC3D2",
"J. c #85C7DA",
"K. c #88C1DA",
"L. c #88CBDA",
"P. c #96CAD0",
"I. c #96D5D9",
"U. c #A4D9C5",
"Y. c #A3D9C9",
"T. c #B7E1C2",
"R. c #8DD1E1",
"E. c #95D1E4",
/* pixels */
"*.*.*.*.*.*.*.*.*.*.*.*.*.*.*.*.*.*.*.*.*.*.*.*.*.*.*.*.*.*.*.*.*.*.*.*.*.*.*.*.*.*.*.*.*.*.*.*.*.*.*.*.*.*.*.",
"*.*.*.*.*.*.*.*.*.*.*.*.*.*.*.*.*.*.*.*.*.*.*.*.-.*.*.*.*.*.*.*.*.*.*.*.*.*.*.*.*.*.*.*.*.*.*.*.*.*.*.*.*.*.*.",
"*.*.*.*.*.*.*.*.*.*.*.*.*.*.*.*.*.*.*.*.*.*.*.*.*.*.*.*.*.*.*.*.*.*.*.*.*.*.*.*.*.*.*.*.*.*.*.*.*.*.*.*.*.*.*.",
"*.*.*.*.*.*.*.*.*.*.*.*.*.*.*.*.*.*.*.*.*.*.*.*.*.*.*.*.*.*.*.*.*.*.*.*.*.*.*.*.*.*.*.*.*.*.*.*.*.*.*.*.*.*.*.",
"*.*.*.*.*.*.*.*.*.*.*.*.*.*.*.*.*.*.*.*.*.*.*.*.*.*.*.*.*.*.*.*.*.*.*.*.*.*.*.*.*.*.*.*.*.*.*.*.*.*.*.*.*.*.*.",
"*.*.*.*.*.*.*.*.*.*.*.*.*.*.*.*.*.*.*.*.*.*.*.*.*.*.*.*.*.*.*.*.*.*.*.*.*.*.*.*.*.*.*.*.*.*.*.*.*.*.*.*.*.*.*.",
"*.*.*.*.*.*.*.*.*.*.*.*.*.*.*.*.*.*.*.*.*.*.*.*.*.*.*.*.*.*.*.*.*.*.*.*.*.*.*.*.*.*.*.*.*.*.*.*.*.*.*.*.*.*.*.",
"*.*.*.*.*.*.*.*.*.*.*.*.*.*.*.*.*.*.*.*.*.*.*.*.*.*.*.*.*.*.*.*.*.*.*.*.*.*.*.*.*.*.*.*.*.*.*.*.*.*.*.*.*.*.*.",
"*.*.*.*.*.*.*.*.*.*.*.*.*.*.*.*.*.*.*.*.*.*.*.*.*.*.*.*.*.*.*.*.*.*.*.*.*.*.*.*.*.*.*.*.*.*.*.*.*.*.*.*.*.*.*.",
"*.*.*.*.*.*.*.*.*.*.*.*.*.*.*.*.*.*.*.*.*.*.*.*.*.*.*.*.*.*.*.*.*.*.*.*.*.*.*.*.*.*.*.*.*.*.*.*.*.*.*.*.*.*.*.",
"*.*.*.*.*.*.*.*.*.*.*.*.*.*.*.*.*.*.*.*.*.*.*.*.*.*.*.*.*.*.*.*.*.*.*.*.*.*.*.*.*.*.*.*.*.*.*.*.*.*.*.*.*.*.*.",
"*.*.*.*.*.*.*.*.*.*.*.*.*.-.*.*.*.*.*.*.*.*.*.*.*.*.*.*.*.*.*.*.*.*.*.*.*.*.*.*.*.*.*.*.*.*.*.*.*.*.*.*.*.*.*.",
"*.*.*.*.*.*.*.*.*.*.*.*.*.*.*.*.*.*.*.*.*.*.*.*.*.-.*.*.;.*.*.*.*.*.*.*.*.*.*.*.*.*.*.*.*.*.*.*.*.*.*.*.*.*.-.",
"*.*.*.*.*.*.*.*.*.*.*.*.*.*.*.*.*.*.*.*.*.-.2.I.T.V.x.x.C.V.Y.J.4.*.*.*.*.*.*.*.*.*.*.*.*.*.*.*.*.*.*.*.*.*.*.",
"*.*.*.*.*.*.*.*.*.*.*.*.*.*.*.*.*.*.*.-.R.a.{ Y r 6 > q A J W  .c.Y.4.*.*.*.*.*.*.*.*.*.*.*.*.*.*.*.*.*.*.*.*.",
"*.*.*.*.*.*.*.*.*.*.*.*.*.*.*.*.*.*.,.a.{ 8 = X . X % X . . X = 9 K z.L.*.*.*.*.*.*.*.*.*.*.*.*.*.*.*.*.*.*.*.",
"*.*.*.*.*.*.*.*.*.*.*.*.*.*.*.*.*.R.B.A % X * h F D P P T J e = X X > ^ U.*.*.*.*.*.*.*.*.*.*.*.*.*.*.*.*.*.*.",
"*.*.*.*.*.*.*.*.*.*.*.*.*.*.*.-.E.g., X % D P 8 l E 8 } r w G J A = X o K p.-.*.*.*.*.*.*.*.*.*.*.*.*.*.*.*.*.",
"*.*.*.*.*.*.*.*.*.*.*.*.*.*.*.<.f., . 4 } 8 : P v.' $ h.% J J 9 : D 6 X X G Y.*.*.*.*.*.*.*.*.*.*.*.*.*.*.*.*.",
"*.*.*.*.*.*.*.*.*.*.*.*.*.*.,.B.2 . j M.m D b.%...P * I % ^ b.Q e % 8 8 X = U :.*.*.*.*.*.*.*.*.*.*.*.*.*.*.*.",
"*.*.*.*.*.*.*.*.*.*.*.*.*.*.u.n . 5 M.m ] N.@.q o o o o % > I = K | = e 6 X = ` -.*.*.*.*.*.*.*.*.*.*.*.*.-.*.",
"*.*.*.*.*.*.*.*.*.*.*.*.*.=.C & % v.Z ] N.l.3 6 E : : > % 6 % X K $.^ = S : X 4 D.*.*.*.*.*.*.*.*.*.*.*.*.*.*.",
"*.*.*.*.*.*.*.*.*.*.*.*.*.u.b X L j.D m.Z.d : @.%.- = : X W 6 X G &.+.J - A X X w.-.*.*.*.*.*.*.*.*.*.*.*.*.*.",
"*.*.*.*.*.*.*.*.*.*.*.*.;.q.< % k.m @.m.} $ 6 %.#.- = : % ^ > . r $.+.X.- r : X b 1.*.*.*.*.*.*.*.*.*.*.*.*.*.",
"*.*.*.*.*.*.*.*.*.*.*.*.1.B % 5 k.D n.n.6 X = ^ #.- = : X ^ ^ ! / +.+.o.y > 6 X < A.*.*.*.*.*.*.*.*.*.*.*.*.*.",
"*.*.*.*.*.*.*.*.*.*.*.*.H.c X S T W m.n.q . % w R % = = o ^ $.+.+.+.o.o.K - w X $ 9.*.*.*.*.*.*.*.*.*.*.*.*.*.",
"*.*.*.*.*.*.*.*.*.*.*.*.A.a X D 6 ..m.m.T X = X > = - - % K X.+.+.o.o.) Q = w X $ 5.*.*.*.*.*.*.*.*.*.*.*.*.*.",
"*.*.*.*.*.*.*.*.*.*.*.*.A.f . A : ..m.n.#.5 . X X X = = % w H ! X._ ) ~ Q : q X $ 5.*.*.*.*.*.*.*.*.*.*.*.*.*.",
"*.*.*.*.*.*.*.*.*.*.*.*.D.a X A 6 | n.&.&.| 4 . . % % % % % = w H ) ( Q K = q X $ 7.*.*.*.*.*.*.*.*.*.*.*.*.*.",
"*.*.*.*.*.*.*.*.*.*.*.*.J.p X 8 6 R &.&.$.$.O.T , % X X % % X X = G ~ K G = 6 X @ S.*.*.*.*.*.*.*.*.*.*.*.*.*.",
"*.*.*.*.*.*.*.*.*.*.*.*.,.B % * e w $.+.$.+.+.+.X.% X X = # . % X 9 Q K w > - X i K.*.*.*.*.*.*.*.*.*.*.*.*.*.",
"*.*.*.*.*.*.*.*.*.*.*.*.-.6.< . e - | +.o._ _ ) / = o X = K e % % > G G q 8 > $ M 4.*.*.*.*.*.*.*.*.*.*.*.*.*.",
"*.*.*.*.*.*.*.*.*.*.*.*.*.F.f X ; 6 w +.~ w 9 K ~ = % % % Q ~ > X : G y : 8 : + 8.*.*.*.*.*.*.*.*.*.*.*.*.*.*.",
"*.*.*.*.*.*.*.*.*.*.*.*.*.,.0.% % q % G ! X X 9 Q = = X = K R 5 . w G : ; 6 X x <.*.*.*.*.*.*.*.*.*.*.*.*.*.*.",
"*.*.*.*.*.*.*.*.*.*.*.*.*.*.H.f X ; 6 : q % % = q o X o o r [ g > y : # g : @ y.*.*.*.*.*.*.*.*.*.*.*.*.*.*.*.",
"*.*.*.*.*.*.*.*.*.*.*.*.*.*.4.r., % 4 4 . X % X - = : > = q * ; q = O v 3 + 0.-.*.*.*.*.*.*.*.*.*.*.*.*.*.*.*.",
"*.*.*.*.*.*.*.*.*.*.*.*.*.*.*.4.e.* # ; ; % . D F = X . o > 9 9 . # Z s O N =.*.*.*.*.*.*.*.*.*.*.*.*.*.*.*.*.",
"*.*.*.*.*.*.*.*.*.*.*.*.*.*.*.*.,.e.4 X # . 6 z m : = X = - > .   ; * $ V =.*.*.*.*.*.*.*.*.*.*.*.*.*.*.*.*.*.",
"*.*.*.*.*.*.*.*.*.*.*.*.*.*.*.*.*.4.i.j = X 6 Q W E ~ u 0 t 9 = % $ 1 d.1.*.*.*.*.*.*.*.*.*.*.*.*.*.*.*.*.*.*.",
"*.*.*.*.*.*.*.*.*.*.*.*.*.*.*.*.*.*.*.J.s.A = % = > 9 > o = X % 1 C F.4.*.*.*.*.*.*.*.*.*.*.*.*.*.*.*.*.*.*.*.",
"*.*.*.*.*.*.*.*.*.*.*.*.*.*.*.*.*.*.*.*.*.L.t.` z 7 , , 7 k ` d.P.4.*.*.*.*.*.*.*.*.*.*.*.*.*.*.*.*.*.*.*.*.*.",
"*.*.*.*.*.*.*.*.*.*.*.*.*.*.*.*.*.*.*.*.*.*.*.4.3.A.>.>.G.>.,.4.*.*.*.*.*.*.*.*.*.*.*.*.*.*.*.*.*.*.*.*.*.*.*.",
"*.*.*.*.*.*.*.*.*.*.*.*.*.*.*.*.*.*.*.*.*.*.*.*.*.*.*.*.*.*.*.*.*.*.*.*.*.*.*.*.*.*.*.*.*.*.*.*.*.*.*.*.*.*.*.",
"*.*.*.*.*.*.*.*.*.*.*.*.*.*.*.*.*.*.*.*.*.*.*.*.*.*.*.*.*.*.*.*.*.*.*.*.*.*.*.*.*.*.*.*.*.*.*.*.*.*.*.*.*.*.*.",
"*.*.*.*.*.*.*.*.*.*.*.*.*.*.*.*.*.*.*.*.*.*.*.*.*.*.*.*.*.*.*.*.*.*.*.*.*.*.*.*.*.*.*.*.*.*.*.*.*.*.*.*.*.*.*.",
"*.*.*.*.*.*.*.*.*.*.*.*.*.*.*.*.*.*.*.*.*.*.*.*.*.*.*.*.*.*.*.*.*.*.*.*.*.*.*.*.*.*.*.*.*.*.*.*.*.*.*.*.*.*.*.",
"*.*.*.*.*.*.*.*.*.*.*.*.*.*.*.*.*.*.*.*.*.*.*.*.*.*.*.*.*.*.*.*.*.*.*.*.*.*.*.*.*.*.*.*.*.*.*.*.*.*.*.*.*.*.*.",
"*.*.*.*.*.*.*.*.*.*.*.*.*.*.*.*.*.*.*.*.*.*.*.*.*.*.*.*.*.*.*.*.*.*.*.*.*.*.*.*.*.*.*.*.*.*.*.*.*.*.*.*.*.*.*.",
"*.*.*.*.*.*.*.*.*.*.*.*.*.*.*.*.*.*.*.*.*.*.*.*.*.*.*.*.*.*.*.*.*.*.*.*.*.*.*.*.*.*.*.*.*.*.*.*.*.*.*.*.*.*.*.",
"*.*.*.*.*.*.*.*.*.*.*.*.*.*.*.*.*.*.*.*.*.*.*.*.*.*.*.*.*.*.*.*.*.*.*.*.*.*.*.*.*.*.*.*.*.*.*.*.*.*.*.*.*.*.*.",
"*.*.*.*.*.*.*.*.*.*.*.*.*.*.*.*.*.*.*.*.*.*.*.*.*.*.*.*.*.*.*.*.*.*.*.*.*.*.*.*.*.*.*.*.*.*.*.*.*.*.*.*.*.*.*.",
"*.*.*.*.*.*.*.*.*.*.*.*.*.*.*.*.*.*.*.*.*.*.*.*.*.*.*.*.*.*.*.*.*.*.*.*.*.*.*.*.*.*.*.*.*.*.*.*.*.*.*.*.-.*.*.",
"*.*.*.*.*.*.*.*.*.*.*.*.*.*.*.*.*.*.*.*.*.-.*.*.*.*.*.*.*.*.*.*.*.*.*.*.*.*.*.*.*.*.*.*.*.*.*.*.*.*.*.*.*.*.*.",
"*.*.*.*.*.*.*.*.*.*.*.*.*.*.*.*.*.*.*.*.*.*.*.*.*.*.*.*.*.*.*.*.*.*.*.*.*.*.*.*.*.*.*.*.*.*.*.*.*.*.*.*.*.*.*.",
"*.*.*.*.*.*.*.*.*.*.*.*.*.*.*.*.*.*.*.*.*.*.*.*.*.*.*.*.*.*.*.*.*.*.*.*.*.*.*.*.*.*.*.*.*.*.*.*.*.*.*.*.*.*.*."
};
