/* XPM */
static char *collectible5[] = {
/* columns rows colors chars-per-pixel */
"55 55 150 2 ",
"   c #F57D0E",
".  c #EF7619",
"X  c #EE791D",
"o  c #F57514",
"O  c #F67B12",
"+  c #EA7B22",
"@  c #F37521",
"#  c #F17C2C",
"$  c #EA7D40",
"%  c #CC821C",
"&  c #D1831C",
"*  c #F7800F",
"=  c #E58516",
"-  c #EA8916",
";  c #E58B1A",
":  c #EE8F19",
">  c #F78512",
",  c #F78B14",
"<  c #F4871A",
"1  c #EB9119",
"2  c #EE9B1F",
"3  c #F79117",
"4  c #F3921A",
"5  c #F89C1C",
"6  c #CB9C29",
"7  c #F28326",
"8  c #F08228",
"9  c #E79B25",
"0  c #EC9D21",
"q  c #E89D2C",
"w  c #F38232",
"e  c #EE9639",
"r  c #DBA227",
"t  c #D7AD2E",
"y  c #DBAA2B",
"u  c #DFAE38",
"i  c #E0A227",
"p  c #EDAA27",
"a  c #EDAB28",
"s  c #F8A721",
"d  c #F4AA24",
"f  c #F1AD2C",
"g  c #E7B62D",
"h  c #EBB62B",
"j  c #FBB326",
"k  c #F5B62A",
"l  c #F5BD2E",
"z  c #FABD2C",
"x  c #EFAF30",
"c  c #E6A83B",
"v  c #E5BD32",
"b  c #EABC31",
"n  c #EDB638",
"m  c #E2B93F",
"M  c #F6BD33",
"N  c #FAC32E",
"B  c #FDC92F",
"V  c #E6C233",
"C  c #EFC231",
"Z  c #F5C131",
"A  c #FCC737",
"S  c #F5CE34",
"D  c #FBCA33",
"F  c #F7C438",
"G  c #FCCA3A",
"H  c #FCD336",
"J  c #FED937",
"K  c #F5D43B",
"L  c #FAD539",
"P  c #FDDC3A",
"I  c #FEE23C",
"U  c #DC8958",
"Y  c #DF9456",
"T  c #DC935C",
"R  c #E38740",
"E  c #DEBC53",
"W  c #E1BC4A",
"Q  c #EFA755",
"!  c #E2BD58",
"~  c #F0B854",
"^  c #C08F73",
"/  c #C39A75",
"(  c #D7A264",
")  c #CFB672",
"_  c #EEC648",
"`  c #F9CF4E",
"'  c #FBD647",
"]  c #FCD943",
"[  c #F5DD48",
"{  c #ECDC58",
"}  c #FDE243",
"|  c #FEEA43",
" . c #FEE74A",
".. c #FEEC4C",
"X. c #FEF452",
"o. c #FEF65A",
"O. c #FEFD5E",
"+. c #D1C77C",
"@. c #D3D47C",
"#. c #EDC767",
"$. c #E3D868",
"%. c #FBE269",
"&. c #FEFE63",
"*. c #E5E771",
"=. c #7EABC3",
"-. c #5CBCF4",
";. c #5ABEF8",
":. c #66BFEF",
">. c #6CBFEE",
",. c #73BDE5",
"<. c #79BDE3",
"1. c #62BEF4",
"2. c #79C4DF",
"3. c #6DC2EC",
"4. c #73C1E7",
"5. c #78C2E7",
"6. c #7EC8E3",
"7. c #69C0F0",
"8. c #BE9E89",
"9. c #B1A097",
"0. c #87A3B4",
"q. c #83A6B9",
"w. c #AFABA1",
"e. c #B5B7AB",
"r. c #ADCAAD",
"t. c #B7D6AB",
"y. c #B9D4AA",
"u. c #A4D0BE",
"i. c #AED6BA",
"p. c #CECF8D",
"a. c #D0D187",
"s. c #D2D48C",
"d. c #CACF99",
"f. c #C4D497",
"g. c #C9DD92",
"h. c #F7E58F",
"j. c #D0E1A0",
"k. c #86BBC7",
"l. c #84B6CD",
"z. c #8EB9CE",
"x. c #92B3C2",
"c. c #96B8C7",
"v. c #87BFD2",
"b. c #85BDD9",
"n. c #94CEC5",
"m. c #9DD3CA",
"M. c #84C6DB",
"N. c #93CCD3",
"B. c #A4D4CC",
"V. c #8BCFE2",
/* pixels */
"-.-.-.-.-.-.-.-.-.-.-.-.-.-.-.-.-.-.-.-.-.-.-.-.-.-.-.-.-.-.-.-.-.-.-.-.-.-.-.-.-.-.-.-.-.-.-.-.-.-.-.-.-.-.-.",
"-.-.-.-.-.-.-.-.-.-.-.-.-.-.-.-.-.-.-.-.-.-.-.-.-.-.-.-.-.-.-.-.-.-.-.-.-.-.-.-.-.-.-.-.-.-.-.-.-.-.-.-.-.-.-.",
"-.-.-.-.-.-.-.-.-.-.-.-.1.-.-.-.-.-.-.-.-.-.-.-.-.-.-.-.-.-.-.-.-.-.-.-.-.-.-.-.-.-.-.-.-.-.-.-.-.-.-.-.-.-.-.",
"-.-.-.-.-.-.-.-.-.-.-.-.-.-.-.-.-.-.-.-.-.-.-.-.-.-.-.-.-.-.-.-.-.-.-.-.-.-.-.-.-.-.-.-.-.-.-.-.-.-.-.-.-.-.-.",
"-.-.-.-.-.-.-.-.-.-.-.-.-.-.-.-.-.-.-.-.-.-.-.-.-.-.-.-.-.-.-.-.-.-.-.-.-.-.-.-.-.-.-.-.-.-.-.-.-.-.-.-.-.-.-.",
"-.-.-.-.-.-.-.-.-.-.-.-.-.-.-.-.-.-.-.-.-.-.-.-.-.-.-.-.-.-.-.-.-.-.-.-.-.-.-.-.-.-.-.-.-.-.-.-.-.1.-.-.-.-.-.",
"-.-.-.-.-.-.-.-.-.-.-.-.-.-.-.-.-.-.-.-.-.-.-.-.-.-.-.-.-.-.-.-.-.-.-.-.-.-.-.-.-.-.-.-.-.-.-.-.-.-.-.-.-.-.-.",
"-.-.-.-.-.-.-.-.-.-.-.-.-.-.-.-.-.-.-.-.-.-.-.-.-.-.-.-.-.-.-.-.-.-.-.-.-.-.-.-.-.-.-.-.-.-.-.-.-.-.-.-.-.-.-.",
"-.-.-.-.-.-.-.-.-.-.-.-.-.-.-.-.-.-.-.-.-.-.-.-.-.-.-.-.-.-.-.-.-.-.-.-.-.-.-.-.-.-.-.-.-.-.-.-.-.-.-.-.-.-.-.",
"-.-.-.-.-.-.-.-.-.-.-.-.-.-.-.-.-.-.-.-.-.-.-.-.-.-.-.-.-.-.-.-.-.-.-.-.-.-.-.-.-.-.-.-.-.-.-.-.-.-.-.-.-.-.-.",
"-.-.-.-.-.-.-.-.-.-.-.-.-.-.-.-.-.-.-.-.-.-.-.-.-.-.-.-.-.-.-.-.-.-.-.-.-.-.-.-.-.-.-.-.-.-.-.-.-.-.-.-.-.-.-.",
"-.-.-.-.-.-.-.-.-.-.-.-.-.-.-.-.-.-.-.-.-.-.-.-.-.-.-.-.-.-.-.-.-.-.-.-.-.-.-.-.-.-.-.-.-.-.-.-.-.-.-.-.-.-.-.",
"-.-.-.-.-.-.-.-.-.-.-.-.-.-.-.-.-.-.-.-.-.-.-.-.-.-.-.-.-.-.-.-.-.-.-.-.-.-.-.-.-.-.-.-.-.-.-.-.-.-.-.-.-.-.-.",
"-.-.-.-.-.-.-.-.-.-.-.-.-.-.-.-.-.-.-.-.-.-.-.-.-.-.-.-.-.-.-.-.-.-.-.-.-.-.-.-.-.-.-.-.-.-.-.-.-.-.-.-.-.-.-.",
"-.-.-.-.-.-.-.-.-.-.-.-.-.-.-.-.-.-.-.-.-.-.:.-.-.-.-.-.-.-.-.-.-.-.-.-.-.-.-.-.-.-.-.-.-.-.-.-.-.-.-.-.-.-.-.",
"-.-.-.-.-.-.-.-.-.-.-.-.-.-.-.-.-.-.-.-.-.-.-.-.-.-.-.-.-.-.-.-.-.-.-.-.-.-.-.-.-.-.-.-.-.-.-.-.-.-.-.-.-.-.-.",
"-.-.-.-.-.-.-.-.-.-.-.-.-.-.-.-.-.-.-.-.-.-.-.-.-.-.-.-.-.-.-.-.-.-.-.-.-.-.-.-.-.-.-.-.-.-.-.-.-.-.-.-.-.-.-.",
"-.-.-.-.-.-.-.-.-.-.-.-.-.-.-.-.-.-.-.-.-.-.-.-.-.-.-.-.-.-.-.-.-.-.-.-.-.-.-.-.-.-.-.-.-.-.-.-.-.-.-.-.-.-.-.",
"-.-.-.-.-.-.-.-.-.-.-.-.-.-.-.-.-.-.-.-.-.-.-.-.-.-.-.-.-.-.-.-.-.-.-.-.-.-.-.-.-.-.-.-.-.-.-.-.-.-.-.-.-.-.-.",
"-.-.-.-.-.-.-.-.-.-.-.-.-.-.-.-.-.-.-.-.-.-.-.-.-.-.-.-.-.-.-.-.-.-.-.-.-.-.-.-.-.-.-.-.-.-.-.-.-.-.-.-.-.-.-.",
"-.-.-.-.-.-.-.-.-.-.-.-.-.-.-.-.-.-.-.-.-.-.-.-.-.;.-.-.-.-.-.-.-.-.-.-.-.-.-.-.-.-.-.-.-.-.-.-.-.-.-.-.-.-.-.",
"-.-.-.-.-.-.-.-.-.-.-.-.-.-.-.-.-.-.-.-.;.-.1.1.-.7.-.7.1.1.1.1.-.-.;.-.-.-.-.-.-.-.-.-.-.-.-.-.-.-.-.-.-.-.-.",
"-.-.-.-.-.-.-.-.-.-.-.-.-.-.-.;.-.3.6.N.u.r.d.p.a.@.@.@.@.+.s.j.t.i.m.M.3.-.-.-.-.-.-.-.-.-.-.-.-.-.-.-.-.-.-.",
"-.-.-.-.-.-.-.-.-.-.-.-.-.;.:.N.y.+.! c q f N h r S P H J d J K u m n _ $.g.m.4.-.-.-.-.-.-.-.-.-.-.-.-.-.-.-.",
"-.-.-.-.-.-.-.-.-.-.-.-.;.2.f.{ x ; = - 0 P | v 6 K P K I 0 a 0 9 ; ; ; 1 d P *.n.-.-.-.-.-.-.-.-.-.-.-.-.-.-.",
"-.-.-.-.-.-.-.-.-.-.-.-.,.p.[ j d z A ] F 2 i h D I P P | K L K ]  .' G z d d I { k.-.-.-.-.-.-.-.-.-.-.-.-.-.",
"-.-.-.-.-.-.-.-.-.-.-.;.k.W P H H } &.O.| L t % : P C b I & % V I J o.&. .J D I P u.-.-.-.-.-.-.-.-.-.-.-.-.-.",
"-.-.-.-.-.-.-.-.-.-.-.;.v.E H J J P | X.} H g y Z I H S I k p p s j ..X.| P J N ' B.-.-.-.-.-.-.-.-.-.-.-.-.-.",
"-.-.-.-.-.-.-.-.-.-.-.-.5.) 4 s ` h.%. .P H v y Z I H D H N k l D L J H B z s > #.V.-.-.-.-.-.-.-.-.-.-.-.-.-.",
"-.-.-.-.-.-.-.-.-.-.-.-.-.b.( < < e Q ~ M D H H H H J ] P L D D N j s 5 , O o $ c.-.-.-.-.-.-.-.-.-.-.-.-.-.-.",
"-.-.-.-.-.-.-.-.-.-.-.-.-.;.5.e.Y 7 O   * > , , , 3 3 4 4 3 , , < O O o @ R 8.M.-.-.-.-.-.-.-.-.-.-.-.-.-.-.-.",
"-.-.-.-.-.-.-.-.-.-.-.-.-.-.;.1.>.z.w./ T R w 8 + . O . . X # # # U ^ 9.x.,.;.-.-.-.-.-.-.-.-.-.-.-.-.-.-.-.-.",
"-.-.-.-.-.-.-.-.-.-.-.-.-.-.-.-.-.-.-.-.:.<.l.l.=.q.q.0.0.=.l.b.,.:.-.-.-.;.-.-.-.-.-.-.-.-.-.-.-.-.-.-.-.-.-.",
"-.-.-.-.-.-.-.-.-.-.-.-.-.-.-.-.-.-.-.-.-.-.-.-.;.;.;.;.;.;.-.-.-.-.-.-.-.-.-.-.-.-.-.-.-.-.-.-.-.-.-.-.-.-.-.",
"-.-.-.-.-.-.-.-.-.-.-.-.-.-.-.-.-.-.-.-.-.-.-.-.-.-.;.-.-.-.-.-.-.-.-.-.-.-.-.-.-.-.-.-.-.-.-.-.-.-.-.-.-.-.-.",
"-.-.-.-.-.-.-.-.-.-.-.-.-.-.-.-.-.-.-.-.-.-.-.-.-.-.-.-.-.-.-.-.-.-.-.-.-.-.-.-.-.-.-.-.-.-.-.-.-.-.-.-.-.-.-.",
"-.-.-.-.-.-.-.-.-.-.-.-.-.-.-.-.-.-.-.-.-.-.-.-.-.-.-.-.-.-.-.-.-.-.-.-.-.-.-.-.-.-.-.-.-.-.-.-.-.-.-.-.-.-.-.",
"-.-.-.-.-.-.-.-.-.-.-.-.-.-.-.-.-.-.-.-.-.-.-.-.-.-.-.-.-.-.-.-.-.-.-.-.-.-.-.-.-.-.-.-.-.-.-.-.-.-.-.-.-.-.-.",
"-.-.-.-.-.-.-.-.-.-.-.-.-.-.-.-.-.-.-.-.-.-.-.-.-.-.-.-.-.-.-.-.-.-.-.-.-.-.-.-.-.-.-.-.-.-.-.-.-.-.-.-.-.-.-.",
"-.-.-.-.-.-.-.-.-.-.-.-.-.-.-.-.-.-.-.-.-.-.-.-.-.-.-.-.-.-.-.-.-.-.-.-.-.-.-.-.-.-.-.-.-.-.-.-.-.-.-.-.-.-.-.",
"-.-.-.-.-.-.-.:.-.-.-.-.-.-.-.-.-.-.-.-.-.:.-.-.-.-.-.-.-.-.-.-.-.-.-.-.-.-.-.-.-.-.-.-.-.-.-.-.-.-.-.-.-.-.-.",
"-.-.-.-.-.-.-.-.-.-.-.-.-.-.-.-.-.-.-.-.-.-.-.-.-.-.-.-.-.-.-.-.-.-.-.-.-.-.-.-.-.-.-.-.-.-.-.-.-.-.-.-.-.-.-.",
"-.-.-.-.-.-.-.-.-.-.-.-.-.-.-.-.-.-.-.-.-.-.-.-.-.-.-.-.-.-.-.-.-.-.-.-.-.-.-.-.-.-.-.-.-.-.-.-.-.-.-.-.-.-.-.",
"-.-.-.-.-.-.-.-.-.-.-.-.-.-.-.-.-.-.-.-.-.-.-.-.-.-.-.-.-.-.-.-.-.-.-.-.-.-.-.-.-.-.-.-.-.-.-.-.-.-.-.-.-.-.-.",
"-.-.-.-.-.-.-.-.-.-.-.-.-.-.-.-.-.-.-.-.-.-.-.-.-.-.-.-.-.-.-.-.-.-.-.-.-.-.-.-.-.-.-.-.-.-.-.-.-.-.-.-.-.-.-.",
"-.-.-.-.-.-.-.-.-.-.-.-.-.-.-.-.-.-.-.-.-.-.-.-.-.-.-.-.-.-.-.-.-.-.-.-.-.-.-.-.-.-.-.-.-.-.-.-.-.-.-.-.-.-.-.",
"-.-.-.-.-.-.-.-.-.-.-.-.-.-.-.-.-.-.-.-.-.-.-.-.-.-.-.-.-.-.-.-.-.-.-.-.-.-.-.-.-.-.-.-.-.-.-.-.-.-.-.-.-.-.-.",
"-.-.-.-.-.-.-.-.-.-.-.-.-.-.-.-.-.-.-.-.-.-.-.-.-.-.-.-.-.-.-.-.-.-.-.-.-.-.-.-.-.-.-.-.-.-.-.-.-.-.-.-.-.-.-.",
"-.-.-.-.-.-.-.-.-.-.-.-.-.-.-.-.-.-.-.-.-.-.-.-.-.-.-.-.-.-.-.-.-.-.-.-.-.-.-.-.-.-.-.-.-.-.-.-.-.-.-.-.-.-.-.",
"-.-.-.-.-.-.-.-.-.-.-.-.-.-.-.-.-.-.-.-.-.-.-.-.-.-.-.-.-.-.-.-.-.-.-.-.-.-.-.-.-.-.-.-.-.-.-.-.-.-.-.-.-.-.-.",
"-.-.-.-.-.-.-.-.-.-.-.-.-.-.-.-.-.-.-.-.-.-.-.-.-.-.-.-.-.-.-.-.-.-.-.-.-.-.-.-.-.:.-.-.-.-.-.-.-.-.-.-.-.-.-.",
"-.-.-.-.-.-.-.-.-.-.-.-.-.-.-.-.-.-.-.-.-.-.-.-.-.-.-.-.-.-.-.-.-.-.-.-.-.-.-.-.-.-.-.-.-.-.-.-.-.-.-.-.-.-.-.",
"-.-.-.-.-.-.-.-.-.-.-.-.-.-.-.-.-.-.-.-.-.-.-.-.-.-.-.-.-.-.-.-.-.-.-.-.-.-.-.-.-.-.-.-.-.-.-.-.-.-.-.-.-.-.-.",
"-.-.-.-.-.-.-.-.-.-.-.-.-.-.-.-.-.-.-.-.-.-.-.-.-.-.-.-.-.-.-.-.-.-.-.-.-.-.-.-.-.-.-.-.-.-.-.-.-.-.-.-.-.-.-.",
"-.-.-.-.-.-.-.-.-.-.-.-.-.-.-.-.-.-.-.-.-.-.-.-.-.-.-.-.-.-.-.-.-.-.-.-.-.-.-.-.-.-.-.-.-.-.-.-.-.-.-.-.-.-.-."
};
