/* XPM */
static char * collectible5_xpm[] = {
"64 64 459 2",
"  	c #5CBCF4",
". 	c #5DBCF4",
"+ 	c #5FBDF4",
"@ 	c #60BDF4",
"# 	c #5FBDF3",
"$ 	c #61BDF2",
"% 	c #5EBDF3",
"& 	c #60BDF2",
"* 	c #5BBDF6",
"= 	c #5CBCF5",
"- 	c #5BBCF4",
"; 	c #5BBCF5",
"> 	c #59BCF6",
", 	c #5ABCF5",
"' 	c #5CBDF5",
") 	c #58BCF6",
"! 	c #5DBEF5",
"~ 	c #5ABCF6",
"{ 	c #5CBDF4",
"] 	c #5EBDF4",
"^ 	c #59BBF5",
"/ 	c #61BFF2",
"( 	c #68C1EF",
"_ 	c #72C3EA",
": 	c #7AC6E5",
"< 	c #80C4DF",
"[ 	c #8CC4D9",
"} 	c #98C6D4",
"| 	c #9AC6D2",
"1 	c #9AC6D0",
"2 	c #9EC8CC",
"3 	c #9CC7CD",
"4 	c #9DC8CC",
"5 	c #9CC6CE",
"6 	c #9CC3CF",
"7 	c #9CC8D2",
"8 	c #9BCDD6",
"9 	c #8FCADA",
"0 	c #86C8DD",
"a 	c #7FC8E3",
"b 	c #75C5E9",
"c 	c #69C0ED",
"d 	c #5FBEF2",
"e 	c #59BCF5",
"f 	c #5ABBF5",
"g 	c #65BFF1",
"h 	c #73C3EB",
"i 	c #84C4DF",
"j 	c #94C4D3",
"k 	c #A2C5C8",
"l 	c #AEC4BB",
"m 	c #B7C3AB",
"n 	c #BFC29D",
"o 	c #CDC68F",
"p 	c #D9CB82",
"q 	c #D7C87A",
"r 	c #D5C775",
"s 	c #DCD06E",
"t 	c #E0D56D",
"u 	c #DFCF6C",
"v 	c #DDC46E",
"w 	c #DFD57B",
"x 	c #DCDC8A",
"y 	c #CBD193",
"z 	c #C0CD9D",
"A 	c #BCCEA9",
"B 	c #B5CAB5",
"C 	c #A8C7C3",
"D 	c #9AC9D2",
"E 	c #89C7DD",
"F 	c #76C4E7",
"G 	c #67BFEF",
"H 	c #5EBCF3",
"I 	c #5FBEF4",
"J 	c #73C1E9",
"K 	c #93C9D5",
"L 	c #B1CFB9",
"M 	c #C6CA97",
"N 	c #D4BE76",
"O 	c #DFB55C",
"P 	c #E4A847",
"Q 	c #E6A03A",
"R 	c #EDAC37",
"S 	c #F5C039",
"T 	c #F5C637",
"U 	c #E7B532",
"V 	c #DCA92F",
"W 	c #F0C837",
"X 	c #FAD93C",
"Y 	c #FBD73C",
"Z 	c #FBD73B",
"` 	c #FACD36",
" .	c #F4B22D",
"..	c #F9CF39",
"+.	c #F3CD3D",
"@.	c #E5B63D",
"#.	c #E0B041",
"$.	c #E5B241",
"%.	c #EAB444",
"&.	c #E9C152",
"*.	c #E1CD6A",
"=.	c #D1D489",
"-.	c #B9D4B2",
";.	c #9DCDCF",
">.	c #7DC4E3",
",.	c #63BEF0",
"'.	c #7CC3E1",
").	c #B1CEB5",
"!.	c #D8D783",
"~.	c #EACA5B",
"{.	c #EAAB41",
"].	c #E6962E",
"^.	c #E79225",
"/.	c #EA9421",
"(.	c #EC9C23",
"_.	c #F5BF30",
":.	c #FCDC3B",
"<.	c #F6D93C",
"[.	c #E3B930",
"}.	c #D6A82C",
"|.	c #F0CD38",
"1.	c #FBDA3A",
"2.	c #F9D83A",
"3.	c #FADB3C",
"4.	c #F9D236",
"5.	c #EEA826",
"6.	c #EFB12A",
"7.	c #EEAA28",
"8.	c #EAA429",
"9.	c #E79D27",
"0.	c #E79824",
"a.	c #E89723",
"b.	c #E89825",
"c.	c #EC9E2A",
"d.	c #F0AE38",
"e.	c #F5CE4E",
"f.	c #EAE06E",
"g.	c #C4DAA3",
"h.	c #89C8D4",
"i.	c #61BCF1",
"j.	c #5FBCF3",
"k.	c #76BEE5",
"l.	c #B7CAB0",
"m.	c #E2D775",
"n.	c #F5CC46",
"o.	c #F7B52C",
"p.	c #F4AF26",
"q.	c #F7B72B",
"r.	c #F8BF34",
"s.	c #F9CC3C",
"t.	c #F6C438",
"u.	c #F3B42D",
"v.	c #ECAD29",
"w.	c #E6B32D",
"x.	c #EBB82D",
"y.	c #F3C331",
"z.	c #FBDB3A",
"A.	c #FDDD3B",
"B.	c #FCDA3A",
"C.	c #FDE13E",
"D.	c #FBE03F",
"E.	c #F4CB37",
"F.	c #F6CC36",
"G.	c #F7CE3D",
"H.	c #F9D642",
"I.	c #F9D443",
"J.	c #F8C93F",
"K.	c #F8C035",
"L.	c #F7B72A",
"M.	c #F5AD24",
"N.	c #F6B226",
"O.	c #F9D33B",
"P.	c #F0E05C",
"Q.	c #C8D099",
"R.	c #7DBCD7",
"S.	c #5FBCF2",
"T.	c #86BCD0",
"U.	c #CFC181",
"V.	c #F3D547",
"W.	c #FCD335",
"X.	c #FBC831",
"Y.	c #FACC34",
"Z.	c #FCDC42",
"`.	c #FEEE57",
" +	c #FEF357",
".+	c #FDE748",
"++	c #F9D239",
"@+	c #EBBA30",
"#+	c #D8A329",
"$+	c #DB9721",
"%+	c #F1A825",
"&+	c #FBD537",
"*+	c #F6D136",
"=+	c #F1C733",
"-+	c #F7D539",
";+	c #F5D439",
">+	c #DDA329",
",+	c #DCA529",
"'+	c #E9C334",
")+	c #F9DA3C",
"!+	c #FEDF3E",
"~+	c #FEE549",
"{+	c #FDEF57",
"]+	c #FEED56",
"^+	c #FDDC43",
"/+	c #FBCF35",
"(+	c #F9C42F",
"_+	c #FCD536",
":+	c #FDE037",
"<+	c #E1D77C",
"[+	c #94C8CB",
"}+	c #62BDF1",
"|+	c #5BBDF5",
"1+	c #62BEF2",
"2+	c #8CBDCC",
"3+	c #D3BC75",
"4+	c #F5CF3A",
"5+	c #FED837",
"6+	c #FDD737",
"7+	c #FDD937",
"8+	c #FDE23F",
"9+	c #FEF251",
"0+	c #FEF857",
"a+	c #FEEC4B",
"b+	c #FDDD3D",
"c+	c #F1C734",
"d+	c #DCAB2B",
"e+	c #DA9D26",
"f+	c #F0B02A",
"g+	c #FBD738",
"h+	c #F2C733",
"i+	c #F6D437",
"j+	c #F7D236",
"k+	c #E5A124",
"l+	c #E09C23",
"m+	c #E8B02B",
"n+	c #F6BF2E",
"o+	c #FCC32D",
"p+	c #FDD941",
"q+	c #FEF556",
"r+	c #FEF757",
"s+	c #FEEA47",
"t+	c #FEDE3B",
"u+	c #FDD637",
"v+	c #FDD532",
"w+	c #E5D77F",
"x+	c #9CCFCF",
"y+	c #63BEF1",
"z+	c #61BEF3",
"A+	c #86C0D9",
"B+	c #CCBB84",
"C+	c #F0BA3A",
"D+	c #FBC02A",
"E+	c #FCCD37",
"F+	c #FCD950",
"G+	c #FBE267",
"H+	c #FDE757",
"I+	c #FEED4F",
"J+	c #FEE544",
"K+	c #FDD93A",
"L+	c #F3C933",
"M+	c #E2B42E",
"N+	c #E0AE2C",
"O+	c #F4C232",
"P+	c #FDDD3A",
"Q+	c #FDD838",
"R+	c #FACF34",
"S+	c #FAD436",
"T+	c #FCD336",
"U+	c #F7BB2C",
"V+	c #F1B129",
"W+	c #F1B12A",
"X+	c #F7B529",
"Y+	c #FABD2C",
"Z+	c #FCD339",
"`+	c #FEE645",
" @	c #FDE545",
".@	c #FDDD3C",
"+@	c #FCD236",
"@@	c #FCC931",
"#@	c #FAB627",
"$@	c #F9BD36",
"%@	c #DED18F",
"&@	c #93CEDB",
"*@	c #76BFE8",
"=@	c #B2B9AD",
"-@	c #DFA262",
";@	c #F39820",
">@	c #F8AB2B",
",@	c #F7C358",
"'@	c #F5D179",
")@	c #F7D466",
"!@	c #F9D952",
"~@	c #FBD63F",
"{@	c #F6CC35",
"]@	c #EAC132",
"^@	c #E9BB30",
"/@	c #F6C833",
"(@	c #FCDA39",
"_@	c #FDD938",
":@	c #FCD238",
"<@	c #FCD338",
"[@	c #FAC831",
"}@	c #F7BE2E",
"|@	c #F7C12F",
"1@	c #FAC731",
"2@	c #FBCB33",
"3@	c #FBCD33",
"4@	c #FCCA31",
"5@	c #FBC32E",
"6@	c #FBB929",
"7@	c #F9AE26",
"8@	c #F89F1D",
"9@	c #F68A11",
"0@	c #E9A35F",
"a@	c #C1C6B1",
"b@	c #7BC7E9",
"c@	c #60BCF2",
"d@	c #7DBDE1",
"e@	c #B7AFA9",
"f@	c #DE9C6B",
"g@	c #EE8F41",
"h@	c #F08E2E",
"i@	c #F0973C",
"j@	c #F1A24C",
"k@	c #F1AE4C",
"l@	c #F5B43A",
"m@	c #F9BB2E",
"n@	c #FBC430",
"o@	c #FBC832",
"p@	c #FBCA32",
"q@	c #FCCD33",
"r@	c #FBCE39",
"s@	c #FBD03B",
"t@	c #FAC933",
"u@	c #FAC12F",
"v@	c #FAC02F",
"w@	c #F9BC2C",
"x@	c #FAB227",
"y@	c #F9A721",
"z@	c #F89519",
"A@	c #F78915",
"B@	c #F4811C",
"C@	c #EE7F37",
"D@	c #E4875E",
"E@	c #BFA4A4",
"F@	c #82BBDC",
"G@	c #5FBDF5",
"H@	c #76BFE9",
"I@	c #A0BAC8",
"J@	c #C6AA97",
"K@	c #DF9466",
"L@	c #EB8A4C",
"M@	c #F0853C",
"N@	c #F18530",
"O@	c #F48725",
"P@	c #F58A1F",
"Q@	c #F68F1C",
"R@	c #F7921B",
"S@	c #F7921A",
"T@	c #F6921A",
"U@	c #F7951B",
"V@	c #F7961B",
"W@	c #F5971D",
"X@	c #F3971F",
"Y@	c #F4971D",
"Z@	c #F6951C",
"`@	c #F7911B",
" #	c #F7901B",
".#	c #F58D1D",
"+#	c #F48620",
"@#	c #F38124",
"##	c #F2802C",
"$#	c #F07D37",
"%#	c #EC7F47",
"&#	c #DF8B5D",
"*#	c #C69A87",
"=#	c #A2B4BF",
"-#	c #7ABFE4",
";#	c #5EBEF5",
">#	c #6BBEF0",
",#	c #7CBBE6",
"'#	c #90B7D7",
")#	c #A7B0BC",
"!#	c #BBA59A",
"~#	c #C8997A",
"{#	c #D99364",
"]#	c #E28C52",
"^#	c #EA8743",
"/#	c #F1853A",
"(#	c #EE8435",
"_#	c #EB7F30",
":#	c #ED7D2B",
"<#	c #F27F28",
"[#	c #F07E29",
"}#	c #ED7C2A",
"|#	c #EE7F30",
"1#	c #EF8037",
"2#	c #F08139",
"3#	c #EF803B",
"4#	c #E6854F",
"5#	c #D58B65",
"6#	c #C5917B",
"7#	c #B99E97",
"8#	c #A6ABB6",
"9#	c #91B4D2",
"0#	c #7AB8E5",
"a#	c #69BCEE",
"b#	c #5FBDF2",
"c#	c #5DBDF4",
"d#	c #61BDF1",
"e#	c #6DBBEA",
"f#	c #79B8E2",
"g#	c #81B4DB",
"h#	c #8FB4D5",
"i#	c #9BB2CC",
"j#	c #A6ADBE",
"k#	c #ADA9B2",
"l#	c #ABA8B0",
"m#	c #A7A0A9",
"n#	c #AA9BA1",
"o#	c #AD9B9F",
"p#	c #AD999D",
"q#	c #AD979B",
"r#	c #AB9A9F",
"s#	c #A9A0AA",
"t#	c #ACA8B2",
"u#	c #ACADBB",
"v#	c #A6AEC4",
"w#	c #9BB0CE",
"x#	c #8CB2D6",
"y#	c #7FB2DC",
"z#	c #78B6E1",
"A#	c #6CBAE9",
"B#	c #61BEF2",
"C#	c #59BDF6",
"D#	c #5BBEF4",
"E#	c #61BEF1",
"F#	c #68BCEB",
"G#	c #6BBAE6",
"H#	c #6ABAE6",
"I#	c #67B7E5",
"J#	c #69B6E3",
"K#	c #69B5E2",
"L#	c #6AB5E1",
"M#	c #6CB4E0",
"N#	c #6AB5E2",
"O#	c #67B8E5",
"P#	c #6ABAE7",
"Q#	c #6BBDEA",
"R#	c #64BDEE",
"S#	c #5EBEF2",
"T#	c #5ABEF5",
"U#	c #5ABDF7",
"V#	c #5ABEF7",
"W#	c #59BEF9",
"X#	c #59BEF8",
"Y#	c #62BEF1",
"Z#	c #5DBCF3",
"                                                                                                                                ",
"                                                                                                                                ",
"                          . + .                                                                                                 ",
"                            + .                                                                                                 ",
"                                                                                                                                ",
"                                                                                                                  .             ",
"                                                                                                                . @ .           ",
"                                                                                                                  .             ",
"                                                                                                                                ",
"                                                                                                                                ",
"                                                                                                                                ",
"                                                                                                                                ",
"                                                                                                                                ",
"                                                                                                                                ",
"                                                                                                                                ",
"                                                                                                                                ",
"                                                  # $                                                                           ",
"                                                  % &                                                                           ",
"                                                                                                                                ",
"                                                                                                                                ",
"                                                                                                                                ",
"                                                                                                                                ",
"                                                                                                                                ",
"                                                          * =                                                                   ",
"                                          - ; > > , ' * ) ! ~ { ] * * * ; , ^ > ~ -                                             ",
"                                  ; > - / ( _ : < [ } | 1 2 3 4 2 5 6 7 8 9 0 a b c d e f -                                     ",
"                              ; { g h i j k l m n o p q r s t t t u v w x y z A B C D E F G H -                                 ",
"                            = I J K L M N O P Q R S T U V W X Y Z `  ...+.@.#.$.%.&.*.=.-.;.>.,.                                ",
"                            I '.).!.~.{.].^./.(._.:.<.[.}.|.1.2.3.4.5.6.7.8.9.0.a.b.c.d.e.f.g.h.i.                              ",
"                          j.k.l.m.n.o.p.q.r.s.t.u.v.w.x.y.z.A.B.C.D.E.F.E.G.H.I.J.K.L.M.N.O.P.Q.R.S.                            ",
"                        ; $ T.U.V.W.X.Y.Z.`. +.+++@+#+$+%+&+*+=+-+;+>+,+'+)+!+~+{+]+^+/+(+_+:+<+[+}+                            ",
"                        |+1+2+3+4+5+6+7+8+9+0+a+b+c+d+e+f+g+4.h+i+j+k+l+m+n+o+p+q+r+s+t+u+W.v+w+x+y+                            ",
"                        ; z+A+B+C+D+E+F+G+H+I+J+K+L+M+N+O+P+Q+R+S+T+U+V+W+X+Y+Z+`+ @.@+@@@#@$@%@&@1+                            ",
"                          # *@=@-@;@>@,@'@)@!@~@+@{@]@^@/@(@_@:@<@T+[@}@|@1@2@3@4@5@6@7@8@9@0@a@b@#                             ",
"                            c@d@e@f@g@h@i@j@k@l@m@n@o@X.o@p@q@r@s@/+t@u@v@w@x@y@8@z@A@B@C@D@E@F@H                               ",
"                              G@H@I@J@K@L@M@N@O@P@Q@R@S@T@U@V@W@X@Y@Z@`@ #.#+#@###$#%#&#*#=#-#c@                                ",
"                              = ;#>#,#'#)#!#~#{#]#^#/#(#_#:#<#[#}#:#|#1#2#3#4#5#6#7#8#9#0#a#b#                                  ",
"                                ; ' c#d#e#f#g#h#i#j#k#l#m#n#o#p#q#r#s#t#u#v#w#x#y#z#A#B#* ,                                     ",
"                                      - ; e C#D#E#F#G#H#I#J#K#L#M#N#O#P#Q#R#S#T#C#, , *                                         ",
"                                                  - ; ; U#V#W#X#V#V#U#; ; -                                                     ",
"                                                            * |+                                                                ",
"                                                                                                                                ",
"                                                                                                                                ",
"                                                                                                                                ",
"                                                                                                                                ",
"                                                                                                                                ",
"                & %                             # #                                                                             ",
"                E##                             & &                                                                             ",
"                                                                                                                                ",
"                                                                                                                                ",
"                                                                                                                                ",
"                                                                                                                                ",
"                                                                                                                                ",
"                                                                                                                                ",
"                                                                                                                                ",
"                                                                                                                                ",
"                                                                                                                                ",
"                                                                                                                                ",
"                                                                                              # Y#.                             ",
"                                                                                              Z##                               ",
"                                                                                                                                ",
"                                                                                                                                ",
"                                                                                                                                ",
"                                                                                                                                "};
