/* XPM */
static char *collectible1[] = {
/* columns rows colors chars-per-pixel */
"55 55 200 2 ",
"   c #EB9A1F",
".  c #F4A41D",
"X  c #DF8F2A",
"o  c #E2992B",
"O  c #EB9A2A",
"+  c #F09A2C",
"@  c #EB9838",
"#  c #F09E33",
"$  c #ECA52B",
"%  c #ECAE2B",
"&  c #F1A524",
"*  c #F6AE25",
"=  c #F6AE29",
"-  c #F6B126",
";  c #FAB424",
":  c #FBBC27",
">  c #F2B32C",
",  c #F9B32A",
"<  c #F6BA2B",
"1  c #FABB2C",
"2  c #E6A338",
"3  c #ECAF38",
"4  c #F3AD31",
"5  c #F3B232",
"6  c #F5BA33",
"7  c #FABA36",
"8  c #F4BD3B",
"9  c #F6C02E",
"0  c #FCC42C",
"q  c #FDC92F",
"w  c #FFD02F",
"e  c #F6C433",
"r  c #FAC433",
"t  c #F6CC37",
"y  c #FDCB32",
"u  c #F4C13C",
"i  c #FAC43B",
"p  c #F6CA3A",
"a  c #FCCA3B",
"s  c #FED334",
"d  c #FFDA36",
"f  c #F5D23C",
"g  c #FCD43A",
"h  c #FEDC3B",
"j  c #FEE23E",
"k  c #BEAA7D",
"l  c #D4965C",
"z  c #E89C48",
"x  c #E2A146",
"c  c #E1AF4A",
"v  c #ECB542",
"b  c #E8B547",
"n  c #ECBC4A",
"m  c #F2B544",
"M  c #F4BC44",
"N  c #F2B44C",
"B  c #F2BE4A",
"V  c #E5BA58",
"C  c #F1BF55",
"Z  c #DA9469",
"A  c #CF987A",
"S  c #D4977F",
"D  c #F39E6F",
"F  c #D9A66C",
"G  c #C4AA7D",
"H  c #E4B960",
"J  c #F5B969",
"K  c #F3A277",
"L  c #F3C343",
"P  c #F7CB46",
"I  c #FBCB43",
"U  c #F5C14A",
"Y  c #F8C248",
"T  c #F4C84B",
"R  c #FBCB4B",
"E  c #FCD441",
"W  c #FBD44D",
"Q  c #F8D849",
"!  c #FDDB4B",
"~  c #EAC65D",
"^  c #F4C353",
"/  c #FACC54",
"(  c #F8CC56",
")  c #F5C458",
"_  c #F5CB5B",
"`  c #FBD351",
"'  c #F4DC53",
"]  c #FCD55C",
"[  c #F7DD5F",
"{  c #FCDB5B",
"}  c #FEE441",
"|  c #FEE944",
" . c #FCE44A",
".. c #FEEA4C",
"X. c #FEF349",
"o. c #FEE553",
"O. c #FBE755",
"+. c #FDE95C",
"@. c #FEF458",
"#. c #DAC96B",
"$. c #CEC67C",
"%. c #D9D77B",
"&. c #F6CA62",
"*. c #F7CB67",
"=. c #FCD363",
"-. c #FDDC65",
";. c #F7D36F",
":. c #FCD56B",
">. c #F7D968",
",. c #FADA6B",
"<. c #E0C472",
"1. c #E0DF7A",
"2. c #F3D070",
"3. c #F4D977",
"4. c #FCDD74",
"5. c #FBDB7C",
"6. c #FDE463",
"7. c #FDE36C",
"8. c #FEF16F",
"9. c #FDE574",
"0. c #FCEB74",
"q. c #F7E07C",
"w. c #FCE47B",
"e. c #FDEA7C",
"r. c #FFF171",
"t. c #FEF87A",
"y. c #7DA9C6",
"u. c #7DAAC7",
"i. c #7AB8DB",
"p. c #5CBCF4",
"a. c #59BDF8",
"s. c #65BDEF",
"d. c #69BCEC",
"f. c #75BBE4",
"g. c #63BEF3",
"h. c #6AC1EE",
"j. c #77C2E7",
"k. c #79C4E4",
"l. c #71C0EA",
"z. c #63C0F5",
"x. c #69C1F3",
"c. c #BE9B88",
"v. c #A19F97",
"b. c #B4A88F",
"n. c #AFA695",
"m. c #BBA798",
"M. c #B8B699",
"N. c #99A8AD",
"B. c #9FB3B9",
"V. c #A3ADA4",
"C. c #A4B9B8",
"Z. c #C29F8B",
"A. c #D39F84",
"S. c #FABD92",
"D. c #BECD9D",
"F. c #ADCEA6",
"G. c #B4CDAE",
"H. c #AACDB0",
"J. c #A3CDB9",
"K. c #AFCFBC",
"L. c #ABD0B0",
"P. c #C3CE83",
"I. c #CBC788",
"U. c #CBD58A",
"Y. c #CECD94",
"T. c #C4D399",
"R. c #FCC785",
"E. c #F9DB84",
"W. c #F9DD8A",
"Q. c #FCC999",
"!. c #FAE684",
"~. c #FDED83",
"^. c #FEE48C",
"/. c #FCEA8E",
"(. c #FCF184",
"). c #FFFB81",
"_. c #FDF38B",
"`. c #FFFD8C",
"'. c #FDE490",
"]. c #FDE99A",
"[. c #FDF595",
"{. c #FFFE93",
"}. c #FDF39A",
"|. c #FEFC9B",
" X c #FCD6B4",
".X c #FCF2A1",
"XX c #FEFDA4",
"oX c #FEFEAB",
"OX c #FEFCB3",
"+X c #8BB5C8",
"@X c #86BBCC",
"#X c #92B4C4",
"$X c #83BAD6",
"%X c #8AC5CC",
"&X c #98CAC9",
"*X c #8BC6D2",
"=X c #85C2D8",
"-X c #97C6D0",
";X c #84CAE3",
":X c #FEF6CF",
/* pixels */
"p.p.p.p.p.p.p.p.p.p.p.p.p.p.p.p.p.p.p.p.p.p.p.p.p.p.p.p.p.p.p.p.p.p.p.p.p.p.p.p.p.p.p.p.p.p.p.p.p.p.p.p.p.p.p.",
"p.p.p.p.p.p.p.p.p.p.p.p.p.p.p.p.p.p.p.p.p.p.p.p.p.p.p.p.p.p.p.p.p.p.p.p.p.p.p.p.p.p.p.p.p.p.p.p.p.p.p.p.p.p.p.",
"p.p.p.p.p.p.p.p.p.p.p.p.p.p.p.p.p.p.p.p.p.p.p.p.p.p.p.p.p.p.p.p.p.p.p.p.p.p.p.p.p.p.p.p.p.p.p.p.p.p.p.p.p.p.p.",
"p.p.p.p.p.p.p.p.p.p.p.p.p.p.p.p.p.p.p.p.p.p.p.p.p.p.p.p.p.p.p.p.p.p.p.p.p.p.p.p.p.p.p.p.p.p.p.p.p.p.p.p.p.p.p.",
"p.p.p.p.p.p.p.p.p.p.p.p.p.p.p.p.p.p.p.p.p.p.p.p.p.p.p.p.p.p.p.p.p.p.p.p.p.p.p.p.p.p.p.p.p.p.p.p.p.p.p.p.p.p.p.",
"p.p.p.p.p.p.p.p.p.p.p.p.p.p.p.p.p.p.p.p.p.p.p.p.p.p.p.p.p.p.p.p.p.p.p.p.p.p.p.p.p.p.p.p.p.p.p.p.p.p.p.p.p.p.p.",
"p.p.p.p.p.p.p.p.p.p.p.p.p.p.p.p.p.p.p.p.p.p.p.p.p.p.p.p.p.p.p.p.p.p.p.p.p.p.p.p.p.p.p.p.p.p.p.p.p.p.p.p.p.p.p.",
"p.p.p.p.p.p.p.p.p.p.p.p.p.p.p.p.p.p.p.p.p.p.p.p.p.p.p.p.p.p.p.p.p.p.p.p.p.p.p.p.p.p.p.p.p.p.p.p.p.p.p.p.p.p.p.",
"p.p.p.p.p.p.p.p.p.p.p.p.p.p.p.p.p.p.p.p.p.p.p.p.p.p.p.p.p.p.p.p.p.p.p.p.p.p.p.p.p.p.p.p.p.p.p.p.p.p.p.p.p.p.p.",
"p.p.p.p.p.p.p.p.p.p.p.p.p.p.s.p.p.p.p.p.p.p.p.p.p.p.p.p.p.p.p.p.p.p.p.p.p.p.p.p.p.p.p.p.p.p.p.p.p.p.p.p.p.p.p.",
"p.p.p.p.p.p.p.p.p.p.p.p.p.p.p.p.p.p.p.p.p.p.p.p.p.p.p.p.s.p.p.p.p.p.p.p.p.p.p.p.p.p.p.p.p.p.p.p.p.p.p.s.p.p.p.",
"p.p.p.p.p.p.p.p.p.p.p.p.p.p.p.p.p.p.p.p.p.p.p.p.p.p.p.p.p.p.p.p.p.p.p.p.p.p.p.p.p.p.p.p.p.p.p.p.p.p.p.p.p.p.p.",
"p.p.p.p.p.p.p.p.p.p.p.p.p.p.p.p.p.p.p.p.a.p.p.a.p.p.p.p.p.p.p.p.p.p.p.p.p.p.p.p.p.p.p.p.p.p.p.p.p.p.p.p.p.p.p.",
"p.p.p.p.p.p.p.p.p.p.p.p.p.p.p.p.p.p.p.p.a.z.k.&XG.D.$.P.U.T.J.=Xz.p.p.p.p.p.p.p.p.p.p.p.p.p.p.p.p.p.p.p.p.p.p.",
"p.p.p.p.p.p.p.p.p.p.p.p.p.p.p.p.p.p.p.z.*XD.#.P d j j d d j | ' %.J.h.p.p.p.p.p.p.p.p.p.p.p.p.p.p.p.p.p.p.p.p.",
"p.p.p.p.p.p.p.p.p.p.p.p.p.p.p.p.a.a.k.D.~ p s f 9 e % &   $ > g j | 1.%Xp.p.p.p.p.p.p.p.p.p.p.p.p.p.p.p.p.p.p.",
"p.p.p.p.p.p.p.p.p.p.p.p.p.p.p.p.p.%X$.u t I L L L a i r 1 8 3 o o p | O.L.p.p.p.p.p.p.p.p.p.p.p.p.p.p.p.p.p.p.",
"p.p.p.p.p.p.p.p.p.p.p.p.p.p.p.p.%X#.8 a U ^ P a E a q 0 s 8 8 i 3 X % j  .F.g.p.p.p.p.p.p.p.p.p.p.p.p.p.p.p.p.",
"p.p.p.p.p.p.p.p.p.p.p.p.p.p.a.*X#.u I C Y i / ] R y q q y / u % % u 2 $ j  .H.p.p.p.p.p.p.p.p.p.p.p.p.p.p.p.p.",
"p.p.p.p.p.p.p.p.p.p.p.p.p.p.k.I.8 e _ M R ;.Y 1 . - 0 - 0 = h h >.b u v % } ' i.p.p.p.p.p.p.p.p.p.p.p.p.p.p.p.",
"p.p.p.p.p.p.p.p.p.p.p.p.p.g.G.n r T M T !.M : , ( > q 9 0 / 9.h r._.n u 8 t j U.h.p.p.p.p.p.p.p.p.p.p.p.p.p.p.",
"p.p.p.p.p.p.p.p.p.p.p.p.p.;X<.7 8 ) 7 [.7.0 1 w._.6 q e y e.e.s 6.{.(.L P 8 d  .&Xa.p.p.p.p.p.p.p.p.p.p.p.p.p.",
"p.p.p.p.p.p.p.p.p.p.p.p.p.K.m 1 _ 8 4.XXR 0 a _.[.6 y e q 0.-.< 6.{.{.0.8 n p h I.z.p.p.p.p.p.p.p.p.p.p.p.p.p.",
"p.p.p.p.p.p.p.p.p.p.p.p.s.Y.5 4 9.I |..XM q q W 3.6 q e q 0.`.`.{.{.{.`.W M p j _ j.a.p.p.p.p.p.p.p.p.p.p.p.p.",
"p.p.p.p.p.p.p.p.p.p.p.p.;XH , B 9.=.oXXX}.a y q e e q a q 9.|.{.{.{.{.{.r.L U h i -Xa.p.p.p.p.p.p.p.p.s.p.p.p.",
"p.p.p.p.p.p.p.p.p.p.p.p.;XH - ) :.w.oXXX}.8 q y s s s s q U 3.[.|.{.{.{.).E U h a C.a.p.p.p.p.p.p.p.p.p.p.p.p.",
"p.p.p.p.p.p.p.p.p.p.p.a.%Xc - ;.:._.oXXXXX^ = q s s s d d f t T ~.|.{.{.`.Q Y f a n.p.p.p.p.p.p.p.p.p.p.p.p.p.",
"p.p.p.p.p.p.p.p.p.p.p.a.+Xc ; 2.:._.oXoXXX.X&.4 - y s d d j h j I e.{.{.{.' T h p n.p.p.p.p.p.p.p.p.p.p.p.p.p.",
"p.p.p.p.p.p.p.p.p.p.p.a.@Xc ; *.5.~.oXoXXXXXXX}.,.r 0 R s e h j } ` {.{.|.Q / | a V.a.a.p.p.p.p.p.p.p.p.p.p.p.",
"p.p.p.p.p.p.p.p.p.p.p.p.=XV 1 / '.7.OXoXoXXXXXXX_.e i w.q 8 > t | E _.{.t.P ` | 8 B.a.p.p.p.p.p.p.p.p.p.p.p.p.",
"p.p.p.p.p.p.p.p.p.p.g.a.j.G 1 i ].] XXoX3.R R }.`.g i ^.y e.q._ | g _.|.+.{ ! X.N $Xa.p.p.p.p.p.p.p.p.p.p.p.p.",
"p.p.p.p.p.p.p.p.p.a.a.g.g.T.7 < 9.` e.OX_ 0 r _.{.j i ^.r 0.XX|...P |._.o.>. ...F d.p.p.p.p.p.p.p.p.p.p.p.p.p.",
"p.p.p.p.p.p.p.p.s.p.p.p.p.+Xc : R :.a |.;.q q 6.|.! i ^.y w.[.o.f 2.oX6.9.[ @./ V.p.p.p.p.p.p.p.p.p.p.p.p.p.p.",
"p.p.p.p.p.p.p.p.p.p.p.p.p.s.k , 0 =.^ R ,.q w a { ! i ^.y { o.f ~ }.9.9.5.+.r.F f.p.p.p.p.p.p.p.p.p.p.p.p.p.p.",
"p.p.p.p.p.p.p.p.p.p.p.p.p.p.@Xz 0 q :.U r y 1 = 7 g r W h 6 M 2./.7.w.W.-.t.J N.p.p.p.p.p.p.p.p.p.p.p.p.p.p.p.",
"p.p.p.p.p.p.p.p.p.p.p.p.p.p.z.N.O q a =.) & & >.E.-.r 4.s _ !.9.7.~.!.-.`.R.Z.s.p.p.p.p.p.p.p.p.p.p.p.p.p.p.p.",
"p.p.p.p.p.p.p.p.p.p.p.p.p.p.p.z.b.& q a / &.Y r :.:.7 E., a o.r.~.,.9.OXQ.S f.a.p.p.p.p.p.p.p.p.p.p.p.p.p.p.p.",
"p.p.p.p.p.p.p.p.p.p.p.p.p.p.p.p.s.M.$ 0 q a ` ] :.C M ) Y 6.r.6.6.}.:XS.A.f.p.p.p.p.p.p.p.p.p.p.p.p.p.p.p.p.p.",
"p.p.p.p.p.p.p.p.p.p.p.p.p.p.p.p.p.x.C.x ; q y s s E ! E W ! ..t.OX XK m.f.a.a.p.p.p.p.p.p.p.p.p.p.p.p.p.p.p.p.",
"p.p.p.p.p.p.p.p.p.p.p.p.p.p.p.p.p.p.p.=XZ.$ * : s s d j | ..0.R.D A #Xg.a.a.p.p.p.p.p.p.p.p.p.p.p.p.p.p.p.p.p.",
"p.p.p.p.p.p.p.p.p.p.p.p.p.p.p.p.p.p.p.p.g.$Xv.l @ + # $ + z Z c.#Xg.p.p.p.p.p.p.g.p.p.p.p.p.p.p.p.p.p.p.p.p.p.",
"p.p.p.p.p.p.p.p.p.p.p.p.p.p.p.p.p.p.p.p.p.p.p.g.f.u.y.y.y.i.d.p.p.p.p.p.p.p.p.p.p.p.p.p.p.p.p.p.p.p.p.p.p.p.p.",
"p.p.p.p.p.p.p.p.p.p.p.p.p.p.p.p.p.p.p.p.p.p.p.p.p.p.p.p.p.a.p.p.p.p.p.p.p.p.p.p.p.p.p.p.p.p.p.p.p.p.p.p.p.p.p.",
"p.p.p.p.p.p.p.p.p.p.p.p.p.p.p.p.p.p.p.p.p.p.p.p.p.p.p.p.p.p.p.p.p.p.p.p.p.p.p.p.p.p.p.p.p.p.p.p.p.p.p.p.p.p.p.",
"p.p.p.p.p.p.p.p.p.p.p.p.p.p.p.p.p.p.p.p.p.p.p.p.p.p.p.p.p.p.p.p.p.p.p.p.p.p.p.p.p.p.p.p.p.p.p.p.p.p.p.p.p.p.p.",
"p.p.p.p.p.p.p.p.p.p.p.p.p.p.p.p.p.p.p.p.p.p.p.p.p.p.p.p.p.p.p.p.p.p.p.p.p.p.p.p.p.p.p.p.p.p.p.p.p.p.p.p.p.p.p.",
"p.p.p.p.p.p.p.p.p.p.p.p.p.p.p.p.p.p.p.p.p.p.p.p.p.p.p.p.p.p.p.p.p.p.p.p.p.p.p.p.p.p.p.p.p.p.p.p.p.p.p.p.p.p.p.",
"p.p.p.p.p.p.p.p.p.p.p.p.p.p.p.p.p.p.p.p.p.p.p.p.p.p.p.p.p.p.p.p.p.p.p.p.p.p.p.p.p.p.p.p.p.p.p.p.p.p.p.p.p.p.p.",
"p.p.p.p.p.p.p.p.p.p.p.p.p.p.p.p.p.p.p.p.p.p.p.p.p.p.p.p.p.p.p.p.p.p.p.p.p.p.p.p.p.p.p.p.p.p.p.p.p.p.p.p.p.p.p.",
"p.p.s.p.p.p.p.p.p.p.p.p.p.p.p.p.p.p.p.p.p.p.p.p.p.p.p.p.p.p.p.p.p.p.p.p.p.p.p.p.p.p.p.p.p.p.p.p.p.p.p.p.p.p.p.",
"p.p.p.p.p.p.p.p.p.p.p.p.p.p.p.p.p.p.p.p.p.p.p.p.p.p.p.p.p.p.p.p.p.p.p.p.p.p.p.p.p.p.p.p.p.p.p.p.p.p.p.p.p.p.p.",
"p.p.p.p.p.p.p.p.p.p.p.p.p.p.p.p.p.p.p.p.p.p.p.p.p.p.p.p.p.p.p.p.p.p.p.p.p.p.p.p.p.p.p.p.p.p.p.p.p.p.p.p.p.p.p.",
"p.p.p.p.p.p.p.p.p.p.p.p.p.p.p.p.p.p.p.p.p.p.p.p.p.p.p.p.p.p.p.p.p.p.p.p.p.p.p.p.p.p.p.p.p.p.p.p.p.p.p.p.p.p.p.",
"p.p.p.p.p.p.p.p.p.p.p.p.p.p.p.p.p.p.p.p.p.p.p.s.p.p.p.p.p.p.p.p.p.p.p.p.p.p.p.p.p.p.p.p.p.p.p.p.p.p.p.p.p.p.p.",
"p.p.p.p.p.p.p.p.p.p.p.p.p.p.p.p.p.p.p.p.p.p.p.p.p.p.p.p.p.p.p.p.p.p.p.p.p.p.p.p.p.p.p.p.p.p.p.p.p.p.p.p.p.p.p."
};
