/* XPM */
static char *collectible2[] = {
/* columns rows colors chars-per-pixel */
"55 55 177 2 ",
"   c #F97E1D",
".  c #EF6E2D",
"X  c #F36D27",
"o  c #E57735",
"O  c #E67B32",
"+  c #DF7756",
"@  c #E57C4B",
"#  c #E58617",
"$  c #E8891C",
"%  c #F5831A",
"&  c #EA961B",
"*  c #F69316",
"=  c #F4911D",
"-  c #F1991A",
";  c #F7A51E",
":  c #F8A61E",
">  c #E88E2F",
",  c #EB9C23",
"<  c #E49B2A",
"1  c #FC9524",
"2  c #F39820",
"3  c #F99D24",
"4  c #EF8639",
"5  c #ECA928",
"6  c #F4A422",
"7  c #F4AB23",
"8  c #F6B225",
"9  c #F9B425",
"0  c #F5B42C",
"q  c #FAB728",
"w  c #F5BB2B",
"e  c #FABB2B",
"r  c #F8AC37",
"t  c #E5B536",
"y  c #EEB230",
"u  c #EFBD3F",
"i  c #F6B435",
"p  c #F4BC33",
"a  c #F9BF32",
"s  c #FBBE3A",
"d  c #F7C62F",
"f  c #F9C22E",
"g  c #EDCA3D",
"h  c #F9C332",
"j  c #F6CC35",
"k  c #FBCC34",
"l  c #F6C23B",
"z  c #F8C43C",
"x  c #F5CA3F",
"c  c #FBCE3B",
"v  c #FDD336",
"b  c #FDD937",
"n  c #F7D23A",
"m  c #FCD43A",
"M  c #FEDC3B",
"N  c #FEE13D",
"B  c #BF9E68",
"V  c #E48950",
"C  c #E89C57",
"Z  c #EBB647",
"A  c #E6B44C",
"S  c #F2BA43",
"D  c #D1876A",
"F  c #C39F72",
"G  c #CE9875",
"H  c #C1A878",
"J  c #CDB875",
"K  c #F1C144",
"L  c #FBC544",
"P  c #F7CA45",
"I  c #FACD42",
"U  c #F2C94F",
"Y  c #F9CB4C",
"T  c #F6D742",
"R  c #FDD544",
"E  c #F4D846",
"W  c #FDDB44",
"Q  c #F7D74D",
"!  c #FCD44B",
"~  c #F4DC4C",
"^  c #FDDB4A",
"/  c #F9CD59",
"(  c #EFDE5C",
")  c #FBD655",
"_  c #F0DA57",
"`  c #FCD953",
"'  c #F4D45A",
"]  c #FDDB5C",
"[  c #FEE443",
"{  c #FEE34A",
"}  c #FEE354",
"|  c #FEEA53",
" . c #F2E25E",
".. c #FDE35D",
"X. c #FDE95C",
"o. c #DBD36C",
"O. c #DFDE73",
"+. c #D8D579",
"@. c #E1C265",
"#. c #E4CD64",
"$. c #E2D662",
"%. c #E4D864",
"&. c #EDD863",
"*. c #F3D360",
"=. c #FCDB62",
"-. c #F9DF6C",
";. c #FEE260",
":. c #FCEA64",
">. c #FDE46A",
",. c #FDEB6C",
"<. c #FEF567",
"1. c #FEFA62",
"2. c #FEFB6B",
"3. c #FCE373",
"4. c #FEEE72",
"5. c #FEEB7C",
"6. c #FEF374",
"7. c #FEFC74",
"8. c #FDF67B",
"9. c #FEFE7C",
"0. c #71B5DD",
"q. c #7AB5D9",
"w. c #5CBCF4",
"e. c #6EBDE9",
"r. c #72BDE6",
"t. c #75BCE6",
"y. c #63BEF3",
"u. c #69C1ED",
"i. c #7DC4E3",
"p. c #74C3E9",
"a. c #6AC1F1",
"s. c #B8A587",
"d. c #ACAA90",
"f. c #B2AC96",
"g. c #B1A09E",
"h. c #88AEBD",
"j. c #93ACBE",
"k. c #9AB7BC",
"l. c #ABAAA6",
"z. c #A6B5AF",
"x. c #C19F8D",
"c. c #C3A087",
"v. c #B3D39E",
"b. c #9FCFBE",
"n. c #A7C5A9",
"m. c #A8C8AD",
"M. c #B2D2A0",
"N. c #BBD2A4",
"B. c #B4D5AD",
"V. c #A9C7B7",
"C. c #B5D3B3",
"Z. c #C3C886",
"A. c #D5DD87",
"S. c #C3D397",
"D. c #FDEB86",
"F. c #FEEC88",
"G. c #FDF482",
"H. c #FEF984",
"J. c #FEF58F",
"K. c #FEFC8B",
"L. c #FDEF92",
"P. c #FEF196",
"I. c #FEFD95",
"U. c #FEFE9B",
"Y. c #FEFFA2",
"T. c #80AFCD",
"R. c #8FB3C9",
"E. c #87B8CC",
"W. c #85B4D0",
"Q. c #83BBD4",
"!. c #85C5CB",
"~. c #98C7C2",
"^. c #9BCBC1",
"/. c #95C6CC",
"(. c #84C5DB",
"). c #8BC7D8",
"_. c #A5CFC1",
/* pixels */
"w.w.w.w.w.w.w.w.w.w.w.w.w.w.w.w.w.w.w.w.w.w.w.w.w.w.w.w.w.w.w.w.w.w.w.w.w.w.w.w.w.w.w.w.w.w.w.w.w.w.w.w.w.w.w.",
"w.w.w.w.w.w.w.w.w.w.w.w.w.w.w.w.w.w.w.w.w.w.w.w.w.w.w.w.w.w.w.w.w.w.w.w.w.w.w.w.w.w.w.w.w.w.w.w.w.w.w.w.w.w.w.",
"w.w.w.w.w.w.w.w.w.w.w.w.w.w.w.w.w.w.w.w.w.w.w.w.w.w.w.w.w.w.w.w.w.w.w.w.w.w.w.w.w.w.w.w.w.w.w.w.w.w.w.w.w.w.w.",
"w.w.w.w.w.w.w.w.w.w.w.w.w.w.w.w.w.w.w.w.y.w.w.w.w.w.w.w.w.w.w.w.w.w.w.w.w.w.w.w.w.w.w.w.w.w.w.w.w.w.w.w.w.w.w.",
"w.w.w.w.w.w.w.w.w.w.w.w.w.w.w.w.w.w.w.w.w.w.w.w.w.w.w.w.w.w.w.w.w.w.w.w.w.w.w.w.w.w.w.w.w.w.w.w.w.w.w.w.w.w.w.",
"w.w.w.w.w.w.w.w.w.w.w.w.w.w.w.w.w.w.w.w.w.w.w.w.w.w.w.w.w.w.w.w.w.w.w.w.w.w.w.w.w.w.w.w.w.w.w.w.w.w.w.w.w.w.w.",
"w.w.w.w.w.w.w.w.w.w.w.w.w.w.w.w.w.w.w.w.w.w.w.w.w.w.w.w.w.w.w.w.w.w.w.w.w.w.w.w.w.w.w.w.w.w.w.w.w.w.w.w.w.w.w.",
"w.w.w.w.w.w.w.w.w.w.w.w.w.w.w.w.w.w.w.w.w.w.w.w.w.w.w.w.w.w.w.w.w.w.w.w.w.w.w.w.w.w.w.w.w.w.w.w.w.w.w.w.w.w.w.",
"w.w.w.w.w.w.w.w.w.w.w.w.w.w.w.w.w.w.w.w.w.w.w.w.w.w.w.w.w.w.w.w.w.w.w.w.w.w.w.w.w.w.w.w.w.w.w.w.w.w.w.w.w.w.w.",
"w.w.w.w.w.w.w.w.w.w.w.w.w.w.w.w.w.w.w.w.w.w.w.w.w.w.w.w.w.w.w.w.w.w.w.w.w.w.w.w.w.w.w.w.w.w.w.w.w.w.w.w.w.w.y.",
"w.w.w.w.w.w.w.w.w.w.w.w.w.w.w.w.w.w.w.w.w.w.w.w.w.w.w.w.w.w.w.w.w.w.w.w.w.w.w.w.w.w.w.w.w.w.w.w.w.w.w.w.w.w.w.",
"w.w.w.w.w.w.w.w.w.w.w.w.w.w.w.w.w.w.w.w.w.w.w.w.w.w.w.w.w.w.w.w.w.w.w.w.w.w.w.w.w.w.w.w.w.w.w.w.w.w.w.w.w.w.w.",
"w.w.w.w.w.w.w.w.w.w.w.w.w.w.w.w.w.w.w.w.w.w.w.w.w.w.w.w.w.w.w.w.w.w.w.w.w.w.w.w.w.w.w.w.w.w.w.w.w.w.w.w.w.w.w.",
"w.w.w.w.w.w.w.w.w.w.w.w.w.w.w.w.w.w.w.w.w.w.w.w.w.w.w.w.w.w.w.w.w.w.w.w.w.w.w.w.w.w.w.w.w.w.w.w.w.w.w.w.w.w.w.",
"w.w.w.w.w.w.w.w.w.w.w.w.w.w.w.w.w.w.w.w.w.w.p.(._.C.M.v.N.C.^.i.y.w.w.w.w.w.w.w.w.w.w.w.w.w.w.w.w.w.w.w.w.w.w.",
"w.w.w.w.w.w.w.w.w.y.w.w.w.w.w.w.w.w.w.a.).N.+.( { [ M m m M {  .A.b.e.w.w.w.w.w.w.w.w.w.w.w.w.w.w.w.w.w.w.w.w.",
"w.w.w.w.w.w.w.w.w.w.w.w.w.w.w.w.w.w.(.N.%.T h 7 : 9 ; - & # & w v [ O.^.w.w.w.w.w.w.w.w.w.w.w.w.w.w.w.w.w.w.w.",
"w.w.w.w.w.w.w.w.w.w.w.w.w.w.w.w.y.^.+.Q w - 2 r L m k v v 8 , # # 7 b ~ S.p.w.w.w.w.w.w.w.w.w.w.w.w.w.y.w.w.w.",
"w.w.w.w.w.w.w.w.w.w.w.w.w.w.w.u.C.$.n 6 6 a k W ^ W b v M l h k 0 $ 5 W N A.i.w.w.w.w.w.w.w.w.w.w.w.w.w.w.w.w.",
"w.w.w.w.w.w.w.w.w.w.w.w.w.w.y.V.$.c q k c L m k 7 j k p m K W M x c ) =.] M A.a.w.w.w.w.w.w.w.w.w.w.w.w.w.w.w.",
"w.w.w.w.w.w.w.w.w.w.w.w.w.w./.o.n q m c ] P m 7 < n b v v Z } M :.2.| M ) ! N B.w.w.w.w.w.w.w.w.w.w.w.w.w.w.w.",
"w.w.w.w.w.w.w.w.w.w.w.w.w.e.Z.E e R M ,.=.M n } 6.[ m b M } v h X.7.2.[ h l M _ i.w.w.w.w.w.w.w.w.w.w.w.w.w.w.",
"w.w.w.w.w.w.w.w.w.w.w.w.w.~.$.v z W ..K.} N n _ H.[ b b m :.n j X.9.7.1.M k m M N.w.w.w.w.w.w.w.w.w.w.w.w.w.w.",
"w.w.w.w.w.w.w.w.w.w.w.w.y.S.~ p ! W H.K.' M N g ) [ v m m :.7.7.7.9.7.7.| z d M *.r.w.w.w.w.w.w.w.w.w.w.w.w.w.",
"w.w.w.w.w.w.w.w.w.w.w.w.i.+.n l R :.I.I.G.>.N N N N M M n ` 6.H.9.9.9.7.1.n l b ! /.w.w.w.w.w.w.w.w.w.w.w.w.w.",
"w.w.w.w.w.w.w.w.w.w.w.w.(.o.m Y W 6.I.I.K.D.) M [ [ [ [ [ N W } 7.9.9.9.2.M z k m z.w.w.w.w.w.w.w.w.w.w.w.w.w.",
"w.w.w.w.w.w.w.w.w.w.w.w.!.$.b ) { H.U.U.I.G.S & 8 b N M [ [ N N W ,.9.9.7.W I k R m.w.w.w.w.w.w.w.w.w.w.w.w.w.",
"w.w.w.w.w.w.w.w.w.w.w.w.!.&.b ] ,.G.U.U.U.I.H.*.P N f h M f v N M I 9.9.2.M R m m n.w.w.w.w.w.w.w.w.w.w.w.w.w.",
"w.w.w.w.w.w.w.w.w.w.w.w.E.#.M ] D.,.Y.U.U.I.J.I.H.[ c b j 5 y ;.N b 6.9.<.m ^ N s z.w.w.w.w.w.w.w.w.w.w.w.w.w.",
"w.w.w.w.w.w.w.w.w.w.w.w.r.J [ W P...U.Y.,.W ! I.H.N c M j >.4.5.W m 6.9.| W ^ M r R.w.w.w.w.w.w.w.w.w.w.w.w.w.",
"w.w.w.w.w.w.w.w.w.w.w.w.y.d.` M 5.3.5.Y.=.M b 5.H.N v b j -.K.` N h 8.7.R ` M M C p.w.w.w.w.w.w.w.w.w.w.w.w.w.",
"w.w.w.w.w.w.w.w.w.w.w.w.w.h.@.N ^ L.] J./ b N U 3.M m M n >.+.g f Y 8.{ I W N r x.w.w.w.w.w.w.w.w.w.w.w.w.w.w.",
"w.w.w.w.w.w.w.w.w.w.w.w.w.r.H E M ..F.] S m m h k [ m m M S t 8 s 4.^ l ^ M m 4 W.w.w.w.w.w.w.w.w.w.w.w.w.w.w.",
"w.w.w.w.w.w.w.w.w.w.w.w.w.y.k.A N M ..' , 8 8 y 7 M j f M p l ! =.c u ! W M 1 c.y.w.w.w.w.w.w.w.w.w.w.w.w.w.w.",
"w.w.w.w.w.w.w.w.w.w.w.w.w.w.a.s.y N M ^ Z < 0 _ ^ M b k m ` ..R p L W N M 3 + t.w.w.w.w.w.w.w.w.w.w.w.w.w.w.w.",
"w.w.w.w.w.w.w.w.w.w.w.w.w.w.w.e.B ; v N [ ~ S p 0 : 9 q w c n c W [ [ b 1 o T.w.w.w.w.w.w.w.w.w.w.w.w.w.w.w.w.",
"w.w.w.w.w.w.w.w.w.w.w.w.w.w.w.w.r.F = q M N N [ W W M ^ | } { { { N a   + q.w.w.w.w.w.w.w.w.w.w.w.w.w.w.w.w.w.",
"w.w.w.w.w.w.w.w.w.w.w.w.w.w.w.w.w.u.f.> * 9 j N N N [ [ [ [ { [ f = X G t.w.w.w.w.w.w.w.w.w.w.w.w.w.w.w.w.w.w.",
"w.w.w.w.w.w.w.w.w.w.w.w.w.w.w.w.w.w.y.W.H > % * : q q f k i 3 % . D j.y.w.y.w.w.w.w.w.w.w.w.w.w.w.w.w.w.w.w.w.",
"w.w.w.w.w.w.w.w.w.w.w.w.w.w.w.w.w.w.w.w.y.Q.l.G V O O O o @ D g.W.y.w.w.w.w.w.w.w.w.w.w.w.w.w.w.w.w.w.w.w.w.w.",
"w.w.w.w.w.w.w.w.w.w.w.w.w.w.w.w.w.w.w.w.w.w.w.w.e.0.0.0.0.r.y.y.w.w.w.w.w.w.w.w.w.w.w.w.w.w.w.w.w.w.w.w.w.w.w.",
"w.w.w.w.w.w.w.w.w.w.w.w.w.w.w.w.w.w.w.w.w.w.w.w.w.w.w.w.w.w.w.w.w.w.w.w.w.w.w.w.w.w.w.w.w.w.w.w.w.w.w.w.w.w.w.",
"w.w.w.w.w.w.w.w.w.w.w.w.w.w.w.w.w.w.w.w.w.w.w.w.w.w.w.w.w.w.w.w.w.w.w.w.w.w.w.w.w.w.w.w.w.w.w.w.w.w.w.w.w.w.w.",
"w.w.w.w.w.w.w.w.w.w.w.w.w.w.w.w.w.w.w.w.w.w.w.w.w.w.w.w.w.w.w.w.w.w.w.w.w.w.w.w.w.w.w.w.w.w.w.w.w.w.w.w.w.w.w.",
"w.w.w.w.w.w.w.w.w.w.w.w.w.w.w.w.w.w.w.w.w.w.w.w.w.w.w.w.w.w.w.w.w.w.w.w.w.w.w.w.w.w.w.w.w.w.w.w.w.w.w.w.w.w.w.",
"w.w.w.w.w.w.w.w.w.w.w.w.w.w.w.w.w.w.w.w.w.w.w.w.w.w.w.w.w.w.w.w.w.w.w.w.w.w.w.w.w.w.w.w.w.w.w.w.w.w.w.w.w.w.w.",
"w.w.w.w.w.w.w.w.w.w.w.w.w.w.w.w.w.w.w.w.w.w.w.w.w.w.w.w.w.w.w.w.w.w.w.w.w.w.w.w.w.w.w.w.w.w.w.w.w.w.w.w.w.w.w.",
"w.w.w.w.w.w.w.w.w.w.w.w.w.w.w.w.w.w.w.w.w.w.w.w.w.w.w.w.w.w.w.w.w.w.w.w.w.w.w.w.w.w.w.w.w.w.w.w.w.w.w.w.w.w.w.",
"w.w.w.w.w.w.w.w.w.y.w.w.w.w.w.w.w.w.w.w.w.w.w.w.w.w.w.w.w.w.w.w.w.w.w.w.w.w.w.w.w.w.w.w.w.w.w.w.w.w.w.w.w.w.w.",
"w.w.w.w.w.w.w.w.w.w.w.w.w.w.w.w.w.w.w.w.w.w.w.w.w.w.w.w.w.w.w.w.w.w.w.w.w.w.w.w.w.w.w.w.w.w.w.w.w.w.w.w.w.w.w.",
"w.w.w.w.w.w.w.w.w.w.w.w.w.w.w.w.w.w.w.w.w.w.w.w.w.w.w.w.w.w.w.w.w.w.w.w.w.w.w.w.w.w.w.w.w.w.w.w.w.w.w.w.w.w.w.",
"w.w.w.w.w.w.w.w.w.w.w.w.w.w.w.w.w.w.w.w.w.w.w.w.w.w.w.w.w.w.w.w.w.w.w.w.w.w.w.w.w.w.w.w.w.w.w.w.w.w.w.w.w.w.w.",
"w.w.w.w.w.w.w.w.w.w.w.w.w.w.w.w.w.w.w.w.w.w.w.w.w.w.w.w.w.w.w.w.w.w.w.w.w.w.w.w.w.w.w.w.w.w.w.w.w.w.w.w.w.w.w.",
"w.w.w.w.w.w.w.w.w.w.w.w.w.w.w.w.w.w.w.w.w.w.w.w.w.w.w.w.w.w.w.w.w.w.w.w.w.w.w.w.w.w.w.w.w.w.w.w.w.w.w.w.w.y.w.",
"w.w.w.w.w.w.w.w.w.w.w.w.w.w.w.w.w.w.w.w.w.w.w.w.w.w.w.w.w.w.w.w.w.w.w.w.w.w.w.w.w.w.w.w.w.w.w.w.w.w.w.w.w.w.w."
};
