/* XPM */
static char *collectible0[] = {
/* columns rows colors chars-per-pixel */
"55 55 212 2 ",
"   c #CC650B",
".  c #D76C07",
"X  c #DB760E",
"o  c #C96D1D",
"O  c #D77715",
"+  c #F1660E",
"@  c #E37B0E",
"#  c #EE7E0C",
"$  c #F5740E",
"%  c #F57D0E",
"&  c #F87E0E",
"*  c #F36B12",
"=  c #E27C11",
"-  c #E97B11",
";  c #F87413",
":  c #C57730",
">  c #F46A28",
",  c #EB6F32",
"<  c #F07431",
"1  c #E37749",
"2  c #DE8312",
"3  c #ED850F",
"4  c #F4820E",
"5  c #E68716",
"6  c #EB8312",
"7  c #ED8B15",
"8  c #F28511",
"9  c #F48915",
"0  c #F48C1C",
"q  c #EF9317",
"w  c #ED921D",
"e  c #EE9B1C",
"r  c #F29418",
"t  c #F19A1C",
"y  c #D58D2B",
"u  c #E8882C",
"i  c #F08F26",
"p  c #E79A25",
"a  c #E69C26",
"s  c #F39C22",
"d  c #DBAA3B",
"f  c #E7A62B",
"g  c #F5A621",
"h  c #F5AB25",
"j  c #F5AA28",
"k  c #EEB12E",
"l  c #FBB024",
"z  c #F6B42C",
"x  c #F7B92E",
"c  c #F9BA2B",
"v  c #E5A535",
"b  c #E0AB34",
"n  c #EABB34",
"m  c #EFB539",
"M  c #F5B432",
"N  c #F8B831",
"B  c #F8B937",
"V  c #EFC433",
"C  c #F8C634",
"Z  c #F2CB35",
"A  c #F4C23B",
"S  c #FBC63E",
"D  c #FBCA3B",
"F  c #FBD23B",
"G  c #F8D738",
"H  c #FBDC3B",
"J  c #FCE43C",
"K  c #FEEC3B",
"L  c #FEF13D",
"P  c #BD8349",
"I  c #B89D71",
"U  c #D79946",
"Y  c #CA8853",
"T  c #D39D56",
"R  c #DDA844",
"E  c #DBB052",
"W  c #EAAE41",
"Q  c #E5B54B",
"!  c #F3BA47",
"~  c #E7B85A",
"^  c #D58B6A",
"/  c #CC9267",
"(  c #DDA96D",
")  c #CDA273",
"_  c #DFAE74",
"`  c #D2BF72",
"'  c #E3AF6C",
"]  c #E9B875",
"[  c #EDC647",
"{  c #EFC14D",
"}  c #F5CB42",
"|  c #FBC944",
" . c #F4C54C",
".. c #F8C74A",
"X. c #F4CA4A",
"o. c #FACD4B",
"O. c #F7D745",
"+. c #FBD243",
"@. c #FBD44C",
"#. c #FBDA4B",
"$. c #E7CF58",
"%. c #F5C856",
"&. c #FCCE53",
"*. c #EAD757",
"=. c #FAD454",
"-. c #F6D35A",
";. c #F8D658",
":. c #FEE848",
">. c #FEF747",
",. c #FCE456",
"<. c #FBE55C",
"1. c #FCE95C",
"2. c #FEF454",
"3. c #FEFD59",
"4. c #DBCB6E",
"5. c #D7CD78",
"6. c #E6CA64",
"7. c #F3C765",
"8. c #E3D866",
"9. c #FADA66",
"0. c #F7D672",
"q. c #FAE566",
"w. c #FCE866",
"e. c #FDEC6B",
"r. c #FDF369",
"t. c #FEFB6B",
"y. c #EBE470",
"u. c #FBE577",
"i. c #FEEC73",
"p. c #FDF273",
"a. c #FEFE73",
"s. c #FCF37D",
"d. c #FEFE7D",
"f. c #7DBBDB",
"g. c #5CBCF4",
"h. c #59BEF8",
"j. c #6ABEEA",
"k. c #73BFE9",
"l. c #62BEF3",
"z. c #7CC3DD",
"x. c #6EC1EC",
"c. c #75C1E5",
"v. c #7BC2E4",
"b. c #70C1EB",
"n. c #65C0F4",
"m. c #6BC1F1",
"M. c #A59A8D",
"N. c #BF978D",
"B. c #A4A19A",
"V. c #9BAEBC",
"C. c #9DB4B0",
"Z. c #A9A7A9",
"A. c #A2B0AF",
"S. c #A4ADB4",
"D. c #C89681",
"F. c #CAB38A",
"G. c #E4BB88",
"H. c #BCCCA6",
"J. c #A4CDBF",
"K. c #A9CCBC",
"L. c #B1C8B0",
"P. c #CBCD8B",
"I. c #D5D284",
"U. c #C6CC9B",
"Y. c #EAC589",
"T. c #F1D289",
"R. c #F6D888",
"E. c #EBCB93",
"W. c #F2CF95",
"Q. c #F5D692",
"!. c #E7E08C",
"~. c #FBE985",
"^. c #FDF582",
"/. c #FDF989",
"(. c #FEFD8C",
"). c #F9E496",
"_. c #F9E597",
"`. c #FDEC9E",
"'. c #FEF597",
"]. c #FEFE94",
"[. c #C9D3A7",
"{. c #EEDDA3",
"}. c #EED2AE",
"|. c #F7DAA2",
" X c #FCEAA1",
".X c #F9E8A9",
"XX c #FDF8A7",
"oX c #FCEAB2",
"OX c #FCEDBA",
"+X c #FDF6B2",
"@X c #FEFDB5",
"#X c #FEF5BE",
"$X c #FEFDBA",
"%X c #86BAC6",
"&X c #93B9C7",
"*X c #84BAD3",
"=X c #8BB9D1",
"-X c #91C3CE",
";X c #9CC9C9",
":X c #88C3D3",
">X c #F9EBC2",
",X c #FDFBC2",
"<X c #FEF4CC",
"1X c #FDFECA",
"2X c #F7EAD6",
"3X c #FEF9D7",
"4X c #F6EAE3",
"5X c #FDFCE3",
"6X c #FAF4ED",
"7X c #FDFEEA",
"8X c #FEFDF5",
"9X c #FEFEFD",
/* pixels */
"g.g.g.g.g.g.g.g.g.g.g.g.g.g.g.g.g.g.g.g.g.g.g.g.g.g.g.g.g.g.g.g.g.g.g.g.g.g.g.g.g.g.g.g.g.g.g.g.g.g.g.g.g.g.g.",
"g.g.g.g.g.g.g.g.g.g.g.g.g.g.g.g.g.g.g.g.g.g.g.g.g.g.g.g.g.g.g.g.g.g.g.g.g.g.g.g.g.g.g.g.g.g.g.g.g.g.g.g.g.g.g.",
"g.g.g.g.g.g.g.g.g.g.g.g.g.g.g.g.g.g.g.g.g.g.g.g.g.g.g.g.g.g.g.g.g.g.g.g.g.g.g.g.g.g.g.g.g.g.g.g.g.g.g.g.g.g.g.",
"g.g.g.g.g.g.g.g.g.g.g.l.g.g.g.g.g.g.g.g.g.g.g.g.g.g.g.g.g.g.g.g.g.g.g.g.g.g.g.g.g.g.g.g.g.g.g.g.g.g.g.g.g.g.g.",
"g.g.g.g.g.g.g.g.g.g.g.g.g.g.g.g.g.g.g.g.g.g.g.g.g.g.g.g.g.g.g.g.g.g.g.g.g.g.g.g.g.g.g.g.g.g.g.g.g.g.g.g.g.g.g.",
"g.g.g.g.g.g.g.g.g.g.g.g.g.g.g.g.g.g.g.g.g.g.g.g.g.g.g.g.g.g.g.g.g.g.g.g.g.g.g.g.g.g.g.g.g.g.g.g.g.g.g.g.g.g.g.",
"g.g.g.g.g.g.g.g.g.g.g.g.g.g.g.g.g.g.g.g.g.g.g.g.g.g.g.g.g.g.g.g.g.g.g.g.g.g.g.g.g.g.g.g.g.g.g.g.g.g.g.g.g.g.g.",
"g.g.g.g.g.g.g.g.g.g.g.g.g.g.g.g.g.g.g.g.g.g.g.g.g.g.g.g.g.g.g.g.g.g.g.g.g.g.g.g.g.g.g.g.g.g.g.g.g.g.g.g.g.g.g.",
"g.g.g.g.g.g.g.g.g.g.g.g.g.g.g.g.g.g.g.g.g.g.g.g.g.g.g.g.g.g.g.g.g.g.g.g.g.g.g.g.g.g.g.g.g.g.g.g.g.g.g.g.g.g.g.",
"g.g.g.g.g.g.g.g.g.g.g.g.g.g.g.g.g.g.g.g.g.g.g.g.g.g.g.g.g.g.g.g.g.g.g.g.g.g.g.g.g.g.g.g.g.g.g.g.g.g.g.g.g.g.g.",
"g.g.g.g.g.g.g.g.g.g.g.g.g.g.g.g.g.g.g.g.g.g.g.g.g.g.g.g.g.g.g.g.g.g.g.g.g.g.g.g.g.g.g.g.g.g.g.g.g.g.g.g.g.g.g.",
"g.g.g.g.g.g.g.g.g.g.g.g.g.g.g.g.g.g.g.g.g.g.h.h.g.g.g.g.g.g.g.g.g.g.g.g.g.g.g.g.g.g.g.g.g.g.g.g.g.g.g.g.g.g.g.",
"g.g.g.g.g.g.g.g.g.g.g.g.g.g.g.g.g.g.g.g.g.g.h.g.m.n.c.b.f.j.g.h.h.g.g.g.g.g.g.g.g.g.g.g.g.g.g.g.g.g.g.g.g.g.g.",
"g.g.g.g.g.g.g.g.g.g.g.g.g.g.g.g.g.g.g.g.g.x.;XH.I.8.*.8.y.!.[.K.z.g.g.g.g.g.g.g.g.g.g.g.g.g.g.g.g.g.g.g.g.g.g.",
"g.g.g.g.g.g.g.g.g.g.g.g.g.g.g.g.g.g.g.x.J.I.*.J K K L >.t.].3X<X.X[.v.n.g.g.g.g.g.g.g.g.g.g.g.g.g.g.g.g.g.g.g.",
"g.g.g.g.g.g.g.g.g.g.g.g.g.g.g.g.h.g.:XP.O.J G Z n n b d R ~ E.2X9X3X{.S.l.g.g.g.g.g.g.g.g.g.g.g.g.g.g.g.g.g.g.",
"g.g.g.g.g.g.g.g.g.g.g.g.g.g.g.h.l.;X4.H H n b Q  .%.! 0.@.7.Y._ G.2X8XoXH.j.g.g.g.g.g.g.g.g.g.g.g.g.g.g.g.g.g.",
"g.g.g.g.g.g.g.g.g.g.g.g.g.g.g.n.K.6.J Z d Q } C &.i.C _.<.7.Q..XW.( }.6XoXU.l.g.g.g.g.g.g.g.g.g.g.g.g.g.g.g.g.",
"g.g.g.g.g.g.g.g.g.g.g.g.g.g.g.-X5.H V R ! A @.w.p.e.F ^.q._.>X0.T.|._ G.6X XL.g.g.g.g.g.g.g.g.g.g.g.g.g.g.g.g.",
"g.g.g.g.g.g.g.g.g.g.g.g.g.h.c.P.O.Z Q X.A q.e.:.H :.J 1.r.u.#XoXW.E.Q.' G.3XQ.&Xg.g.g.g.g.g.g.g.g.g.g.g.g.g.g.",
"g.g.g.g.g.g.g.g.g.g.g.g.g.l.L.$.G Q ~.A u.w.J V { e.C _.q.~ .X>XOX4XY.Q.( {.#XP.j.g.g.g.g.g.g.g.g.g.g.g.g.g.g.",
"g.g.g.g.g.g.g.g.g.g.g.g.g.z.I.H n R.=.u.p.K G ;.].^.S  Xq.{.>X,XoX9X2XY.W.' #XR.&Xg.g.l.g.g.g.g.g.g.g.g.g.g.g.",
"g.g.g.g.g.g.g.g.g.g.g.g.h.J.$.G ~ u.;.].X.K Z s.]./.S  Xq.OX5X.X|.9X9X}.T.] R. XF.l.l.h.g.g.g.g.g.g.g.g.g.g.g.",
"g.g.g.g.g.g.g.g.g.g.g.g.x.U.O.n ~.=.^.^.[ L G p.].^.S `.w.OX>X{.2X9X9X6XY.T.' ].4.b.l.g.g.g.g.g.g.g.g.g.g.g.g.",
"g.g.g.g.g.g.g.g.g.g.g.g.b.` G } ~.=.].^.} K K :./.^.D `.1. X7X7X7X7X5X5XQ.0.~ ^.~ &Xg.g.g.g.g.g.g.g.g.l.g.g.g.",
"g.g.g.g.g.g.g.g.g.g.g.g.*XE G -.u.e.].].=.J K K :.2.F _.,.~.$X$X$X@X@X@X_.-.~ e.&.S.g.g.g.g.g.g.g.g.g.g.g.g.g.",
"g.g.g.g.g.g.g.g.g.g.g.h.%XU c 9.9.s.].].u.Z K L K >.>.t.p.i.`.,X1X,X$X1X+X-.%.q.| B.g.g.g.g.g.g.g.g.g.g.g.g.g.",
"g.g.g.g.g.g.g.g.g.g.g.h.%Xd l =.9.i.].].].9.V K L >.3.a.].XXXX_.3X9X8X9X3X-.%.,.l M.g.g.g.g.g.g.g.g.g.g.g.g.g.",
"g.g.g.g.g.g.g.g.g.g.g.g.*Xy e =. .e.(.(.(.(.q.X.} 2.3.s.].$X1X$X_.2X9X7X+X .! #.0 B.h.l.g.g.g.g.g.g.g.g.g.g.g.",
"g.g.g.g.g.g.g.g.g.g.g.h.:X: 2 o.v =.d.d.d./.(.d.'.s.F ~.'._.@X@X'.R.+Xs.,.b m B * S.h.h.g.g.g.g.g.g.g.g.g.g.g.",
"g.g.g.g.g.g.g.g.g.g.g.h.c.P   A W A a.a.a.t.a.t.s.9.M _.<.7.6.^.d.@.+.S D y B p > =Xh.g.g.g.g.g.g.g.g.g.g.g.g.",
"g.g.g.g.g.g.g.g.g.g.g.h.n.I   p %.a t.a.1.+.} 1.1.M s =.F o...B :.N B C k w m = 1 k.g.g.g.g.g.g.g.g.g.g.g.g.g.",
"g.g.g.g.g.g.g.g.g.g.g.g.g.C.o X ..v O.a.X.. X #.#.5 6 w t | &.! 6 s | ..y z a + D.h.g.g.g.g.g.g.g.g.g.g.g.g.g.",
"g.g.g.g.g.g.g.g.g.g.g.g.g.v.Y   f ;.f w.@.. . A #.X = 6 @ D 9.] - M o.v p M - > *Xh.g.g.g.g.g.g.g.g.g.g.g.g.g.",
"g.g.g.g.g.g.g.g.g.g.g.g.g.g.C.O O [  .k O.@ X 7 B X 6 6 = D B u j +.z p B w + D.n.h.g.g.g.g.g.g.g.g.g.g.g.g.g.",
"g.g.g.g.g.g.g.g.g.g.g.g.g.g.x.I = 5 =...p - - w 7 6 7 q 6 e w N D h h x t * 1 f.h.h.g.g.g.g.g.g.g.g.g.g.g.g.g.",
"g.g.g.g.g.g.g.g.g.g.g.g.g.g.g.f.U # i =.@.i 7 #.#.7 4 6 4 x D x g z j r % > V.h.g.g.g.g.g.g.g.g.g.g.g.g.g.g.g.",
"l.g.g.g.g.g.g.g.g.g.g.g.g.g.g.g.-XU 4 7 { 9...M j 7 7 6 4 g g z N g q ; > Z.l.g.g.g.g.g.g.g.g.g.g.g.g.g.g.g.g.",
"g.g.g.g.g.g.g.g.g.g.g.g.g.g.g.g.l.*XT 8 8 f o.,.+.F F N N N x g r 4 $ , S.l.h.g.g.g.g.g.g.g.g.g.g.g.g.g.g.g.g.",
"g.g.g.g.g.g.g.g.g.g.g.g.g.g.g.g.g.g.k.F.i 4 8 s h g h g t r 9 4 ; > ^ =Xh.g.g.g.g.g.g.g.g.g.g.g.g.g.g.g.g.g.g.",
"g.g.g.g.g.g.g.g.g.g.g.g.g.g.g.g.g.g.g.n.&X) u 9 & & % % % $ $ < ^ V.j.g.g.g.l.g.g.g.g.g.g.g.g.g.g.g.g.g.g.g.g.",
"g.g.g.g.g.g.g.g.g.g.g.g.g.g.g.g.g.g.g.g.h.n.f.A.D./ Y Y / ) Z.f.l.h.g.g.g.g.g.g.g.g.g.g.g.g.g.g.g.g.g.g.g.g.g.",
"g.g.g.g.g.g.g.g.g.g.g.g.g.g.g.g.g.g.g.g.g.g.g.h.h.n.g.l.g.h.g.g.l.g.g.g.g.g.g.g.g.g.g.g.g.g.g.g.g.g.g.g.g.g.g.",
"g.g.g.g.g.g.g.g.g.g.g.g.g.g.g.g.g.g.g.g.g.g.g.g.g.g.g.g.g.g.g.g.g.g.g.g.g.g.g.g.g.g.g.g.g.g.g.g.g.g.g.g.g.g.g.",
"g.g.g.g.g.g.g.g.g.g.g.g.g.g.g.g.g.g.g.g.g.g.g.g.g.g.g.g.g.g.g.g.g.g.g.g.g.g.g.g.g.g.g.g.g.g.g.g.g.g.g.g.g.g.g.",
"g.g.g.g.g.g.g.g.g.g.g.g.g.g.g.g.g.g.g.g.g.g.g.g.g.g.g.g.g.g.g.g.g.g.g.g.g.g.g.g.g.g.g.g.g.g.g.g.g.g.g.g.g.g.g.",
"g.g.g.g.g.g.g.g.g.g.g.g.g.g.g.g.g.g.g.g.g.g.g.g.g.g.g.g.g.g.g.g.g.g.g.g.g.g.g.g.g.g.g.g.g.g.g.g.g.g.g.g.g.g.g.",
"g.g.g.g.g.g.g.g.g.g.g.g.g.g.g.g.g.g.g.g.g.g.g.g.g.g.g.g.g.g.g.g.g.g.g.g.g.g.g.g.g.g.g.g.g.g.g.g.g.g.g.g.g.g.g.",
"g.g.g.g.g.g.g.g.g.g.g.g.g.g.g.g.g.g.g.g.g.g.g.g.g.g.g.g.g.g.g.g.g.g.g.g.g.g.g.g.g.g.g.g.g.g.g.g.g.g.g.g.g.g.g.",
"g.g.g.g.g.g.g.g.g.g.g.g.g.g.g.g.g.g.g.g.g.g.g.g.j.g.g.g.g.g.g.g.g.g.g.g.g.g.g.g.g.g.g.g.g.g.g.g.g.g.g.g.g.g.g.",
"g.g.g.g.g.g.g.g.g.g.g.g.g.g.g.g.g.g.g.g.g.g.g.g.g.g.g.g.g.g.g.g.g.g.g.g.g.g.g.g.g.g.g.g.g.g.g.g.g.g.g.g.g.g.g.",
"g.g.g.g.g.g.g.g.g.g.g.g.g.g.g.g.g.g.g.g.g.g.g.g.g.g.g.g.g.g.g.g.g.g.g.g.g.g.g.g.g.g.g.g.g.g.g.g.g.g.g.g.g.g.g.",
"g.g.g.g.g.g.g.g.g.g.g.g.g.g.g.g.g.g.g.g.g.g.g.g.g.g.g.g.g.g.g.g.g.g.g.g.g.g.g.g.g.g.g.g.g.g.g.g.g.g.g.g.g.g.g.",
"g.g.g.g.g.g.g.g.g.g.g.g.g.g.g.g.g.g.g.g.g.g.g.g.g.g.g.g.g.g.g.g.g.g.g.g.g.g.g.g.g.g.g.g.g.g.g.g.g.g.g.l.g.g.g.",
"g.g.g.g.g.g.g.g.g.g.g.g.g.g.g.g.g.g.g.g.g.g.g.g.g.g.g.g.g.g.g.g.g.g.g.g.g.g.g.g.g.g.g.g.g.g.g.g.g.g.g.g.g.g.g."
};
