/* XPM */
static char * collectible1_xpm[] = {
"64 64 72 1",
" 	c #F8C984",
".	c #F8CA86",
"+	c #F8CC8C",
"@	c #F8CB89",
"#	c #F8D095",
"$	c #F8CA87",
"%	c #F8CD8F",
"&	c #F8C983",
"*	c #F8C884",
"=	c #F7C784",
"-	c #F8CA85",
";	c #F8C985",
">	c #F7C584",
",	c #F5BE84",
"'	c #F4BB83",
")	c #F4BC83",
"!	c #F6C384",
"~	c #F8CE90",
"{	c #F8D094",
"]	c #F8CD8E",
"^	c #F7C684",
"/	c #F5C084",
"(	c #F2B583",
"_	c #F1B183",
":	c #F2B383",
"<	c #F8D198",
"[	c #F8D49F",
"}	c #F8D49E",
"|	c #F4BD83",
"1	c #F2B683",
"2	c #F1B283",
"3	c #F1B083",
"4	c #F2B483",
"5	c #F4BA83",
"6	c #F6C484",
"7	c #F8CB8A",
"8	c #F8D4A0",
"9	c #F3B883",
"0	c #F6C184",
"a	c #F8CA88",
"b	c #F8CF92",
"c	c #F3B983",
"d	c #F5BF84",
"e	c #F3B783",
"f	c #F7C484",
"g	c #F8CC8B",
"h	c #F8CF94",
"i	c #F8D096",
"j	c #F8CB88",
"k	c #000000",
"l	c #999999",
"m	c #FF928C",
"n	c #FFC7C3",
"o	c #F8CE92",
"p	c #FFFFFF",
"q	c #F8D29B",
"r	c #F8D39D",
"s	c #F8CE91",
"t	c #F8CF93",
"u	c #F8D29A",
"v	c #F8D39C",
"w	c #C60400",
"x	c #FB4136",
"y	c #F0AF83",
"z	c #F6C284",
"A	c #F3BA83",
"B	c #F1B383",
"C	c #F5BD84",
"D	c #F8D199",
"E	c #F8D097",
"F	c #F8D39E",
"G	c #F8D197",
"                                                                ",
"                      .++.                                      ",
"                      @##@                                      ",
"                      $%%$              &&                      ",
"        *===*          --             ;.$$.                     ",
"        >,')!                         $~#{].                    ",
"      *^/(_:)>*                      &@<[}{$&                   ",
"      ^|123_456                      &7<8[#$&                   ",
"      >9____340                       ab<<~.                    ",
"      >c_____(0                       ;a7@$;                    ",
"      =d923_1|>                         &&                      ",
"       *0e24,^                                                  ",
"        ^/,df                                     &             ",
"         ***                                     .$.            ",
"                                                 gh%-           ",
"                                                 +i~.           ",
"                                                 $7j;           ",
"                                                                ",
"                                                                ",
"                                                         &&&    ",
"                               kk                       ;.$$-   ",
"                        l     kmnk                     &@o#h+   ",
"    ;$j.                p     kmnk                    ;a~q[rh7. ",
"    .sh7               pppl  kmmnnk                   atu}8[vig ",
"    .sh7                p   kmmmnnnk                  atu}8[vig ",
"    ;$j.                l  kmmmmmnnk                  ;a~q[rh7. ",
"                           kmmmmmnnnk                  &@o#h+   ",
"                          kmmmmmmnnnnk                  ;.$$-   ",
"                         kmmmmmmmnnnnk                   &&&    ",
"                         kmmmmmmmmnnnnk                         ",
"                        kmmmmmmmmmnnnnnk                        ",
"                       kmmmmmmmmmmnnnnnk                        ",
"                       kwwwwwwwwwwxxxxxk                        ",
"                        kwwlwwwwwwxxxxxk                        ",
"    ***                  klplwwwwwxxxxk                         ",
"   6d,/^                 kwlwwwwwxxxxk                          ",
"  *d42e!                  kwwwwwwxxxxk                          ",
"  *,2y(z                   kwwwwwxxxk                           ",
"  */e(c6                   kwwwwwxxk                            ",
"   ^!z6=                    kwwwxxxk                            ",
"                             kwwxxk            *6zzz!=          ",
"                              kwxk             f5(1(90*         ",
"                              kwxk           *!)43332A0=        ",
"                               kk            ^':_____29!        ",
"                                             ^c3_____3(z        ",
"                               ;$$;          ^)42____B9!        ",
"                               @bs$          *fC(3_325z=        ",
"                               @hb$            >'eeecz          ",
"                               .@@;            *>666f=          ",
"                                                                ",
"                                                                ",
"                                                                ",
"                                                                ",
"      &&                                                        ",
"     $@7a;                                                      ",
"   &.~<<ba&                                                     ",
"   a]<[[u~@;                        *>!zf*                      ",
"  ;%Dr[[}us.&                       =,1()^                      ",
"  ;+#v[8rE].                        ='339>                      ",
"   ;@#rFGg-                         =):2A>                      ",
"   &;+so].&                         *!,,0=                      ",
"     ;;;;                            ****                       ",
"                                                                ",
"                                                                "};
