/* XPM */
static char * collectible2_xpm[] = {
"64 64 72 1",
" 	c #F8C984",
".	c #F8CA86",
"+	c #F8CC8C",
"@	c #F8CB89",
"#	c #F8D095",
"$	c #F8CA87",
"%	c #F8CD8F",
"&	c #F8C983",
"*	c #F8C884",
"=	c #F7C784",
"-	c #F8CA85",
";	c #F8C985",
">	c #F7C584",
",	c #F5BE84",
"'	c #F4BB83",
")	c #F4BC83",
"!	c #F6C384",
"~	c #F8CE90",
"{	c #F8D094",
"]	c #F8CD8E",
"^	c #F7C684",
"/	c #F5C084",
"(	c #F2B583",
"_	c #F1B183",
":	c #F2B383",
"<	c #F8D198",
"[	c #F8D49F",
"}	c #F8D49E",
"|	c #F4BD83",
"1	c #F2B683",
"2	c #F1B283",
"3	c #F1B083",
"4	c #F2B483",
"5	c #F4BA83",
"6	c #F6C484",
"7	c #F8CB8A",
"8	c #F8D4A0",
"9	c #F3B883",
"0	c #F6C184",
"a	c #F8CA88",
"b	c #F8CF92",
"c	c #F3B983",
"d	c #F5BF84",
"e	c #F3B783",
"f	c #F7C484",
"g	c #F8CC8B",
"h	c #F8CF94",
"i	c #F8D096",
"j	c #F8CB88",
"k	c #000000",
"l	c #FFA49E",
"m	c #FFC7C3",
"n	c #F8CE92",
"o	c #999999",
"p	c #F8D29B",
"q	c #F8D39D",
"r	c #F8CE91",
"s	c #FFFFFF",
"t	c #F8CF93",
"u	c #F8D29A",
"v	c #F8D39C",
"w	c #DC1005",
"x	c #FB4136",
"y	c #F0AF83",
"z	c #F6C284",
"A	c #F3BA83",
"B	c #F1B383",
"C	c #F5BD84",
"D	c #F8D199",
"E	c #F8D097",
"F	c #F8D39E",
"G	c #F8D197",
"                                                                ",
"                      .++.                                      ",
"                      @##@                                      ",
"                      $%%$              &&                      ",
"        *===*          --             ;.$$.                     ",
"        >,')!                         $~#{].                    ",
"      *^/(_:)>*                      &@<[}{$&                   ",
"      ^|123_456                      &7<8[#$&                   ",
"      >9____340                       ab<<~.                    ",
"      >c_____(0                       ;a7@$;                    ",
"      =d923_1|>                         &&                      ",
"       *0e24,^                                                  ",
"        ^/,df                                     &             ",
"         ***                                     .$.            ",
"                                                 gh%-           ",
"                                                 +i~.           ",
"                                                 $7j;           ",
"                                                                ",
"                                                                ",
"                                                         &&&    ",
"                               kk                       ;.$$-   ",
"                              klmk                     &@n#h+   ",
"    ;$j.                o     klmk                    ;a~p[qh7. ",
"    .rh7               oso   klllmk                   atu}8[vig ",
"    .rh7                o   kllllmk                   atu}8[vig ",
"    ;$j.                   klllllmmk                  ;a~p[qh7. ",
"                           kllllllmmk                  &@n#h+   ",
"                          klllllllmmk                   ;.$$-   ",
"                         kllllllllmmmk                   &&&    ",
"                         klllllllllmmk                          ",
"                        kllllllllllmmmk                         ",
"                       klllllllllllmmmmk                        ",
"                       kwwwowwwwwwwxxxxk                        ",
"                        kwwswwwwwwwxxxk                         ",
"    ***                  osssowwwwwxxk                          ",
"   6d,/^                 kwswwwwwwwxxk                          ",
"  *d42e!                  kowwwwwwxxk                           ",
"  *,2y(z                   kwwwwwwxxk                           ",
"  */e(c6                   kwwwwwwxk                            ",
"   ^!z6=                    kwwwwxk                             ",
"                             kwwwxk            *6zzz!=          ",
"                              kwwk             f5(1(90*         ",
"                              kwwk           *!)43332A0=        ",
"                               kk            ^':_____29!        ",
"                                             ^c3_____3(z        ",
"                               ;$$;          ^)42____B9!        ",
"                               @br$          *fC(3_325z=        ",
"                               @hb$            >'eeecz          ",
"                               .@@;            *>666f=          ",
"                                                                ",
"                                                                ",
"                                                                ",
"                                                                ",
"      &&                                                        ",
"     $@7a;                                                      ",
"   &.~<<ba&                                                     ",
"   a]<[[u~@;                        *>!zf*                      ",
"  ;%Dq[[}ur.&                       =,1()^                      ",
"  ;+#v[8qE].                        ='339>                      ",
"   ;@#qFGg-                         =):2A>                      ",
"   &;+rn].&                         *!,,0=                      ",
"     ;;;;                            ****                       ",
"                                                                ",
"                                                                "};
