/* XPM */
static char * tiles6_xpm[] = {
"64 64 96 2",
"  	c #74C857",
". 	c #799967",
"+ 	c #937A5A",
"@ 	c #945A43",
"# 	c #877756",
"$ 	c #63A671",
"% 	c #7D8963",
"& 	c #858761",
"* 	c #8E805E",
"= 	c #64A972",
"- 	c #8D845F",
"; 	c #60AB74",
"> 	c #879066",
", 	c #AA7351",
"' 	c #AF6B4B",
") 	c #AB6A4C",
"! 	c #5DAC74",
"~ 	c #67A770",
"{ 	c #789B6C",
"] 	c #948E64",
"^ 	c #B07C55",
"/ 	c #B8704C",
"( 	c #B36D4B",
"_ 	c #70986A",
": 	c #8B825E",
"< 	c #A97956",
"[ 	c #BD7952",
"} 	c #C17951",
"| 	c #BD744E",
"1 	c #B56E4B",
"2 	c #61B370",
"3 	c #62AD71",
"4 	c #799468",
"5 	c #A37856",
"6 	c #C17852",
"7 	c #CA8054",
"8 	c #C97F53",
"9 	c #C07850",
"0 	c #B66F4C",
"a 	c #B16C4C",
"b 	c #7B9264",
"c 	c #849369",
"d 	c #8A9468",
"e 	c #948F64",
"f 	c #B1855B",
"g 	c #C87E53",
"h 	c #C57C52",
"i 	c #BA724D",
"j 	c #B06C4C",
"k 	c #AE6E4F",
"l 	c #BC7751",
"m 	c #C07952",
"n 	c #C57D53",
"o 	c #C97E53",
"p 	c #C77D52",
"q 	c #BB734E",
"r 	c #B46D4B",
"s 	c #AD6A4C",
"t 	c #AF6C4C",
"u 	c #C07750",
"v 	c #C77D53",
"w 	c #C97F54",
"x 	c #C57B51",
"y 	c #B26D4B",
"z 	c #8B7354",
"A 	c #B16D4D",
"B 	c #BB744E",
"C 	c #BF774F",
"D 	c #C37A51",
"E 	c #C67D52",
"F 	c #C47B51",
"G 	c #B66E4B",
"H 	c #847E5A",
"I 	c #AE6B4C",
"J 	c #B8714C",
"K 	c #B9714D",
"L 	c #738F66",
"M 	c #B46E4B",
"N 	c #B16C4B",
"O 	c #8E7253",
"P 	c #669E70",
"Q 	c #7E825D",
"R 	c #5DA574",
"S 	c #7E825C",
"T 	c #5EA474",
"U 	c #53B379",
"V 	c #8C7756",
"W 	c #8A7756",
"X 	c #53B279",
"Y 	c #61BA6D",
"Z 	c #699B6D",
"` 	c #5EA674",
" .	c #5DA973",
"..	c #54B378",
"+.	c #61BA6E",
"@.	c #70C55D",
"                                                                                                                                ",
"                                                                                                                                ",
"                                                                                                                                ",
"                                                                                                                                ",
"                                                                                                                                ",
"                                                                                                                                ",
"                                                                                                                                ",
"                                                                                                                                ",
"                                                                                                                                ",
"                                                                                                                                ",
"                                                                                                                                ",
"                                                                                                                                ",
"                                                                                                                                ",
"                                                                                                                                ",
"                                                                                                                                ",
"                                                                                                                                ",
"                                                                                                                                ",
"                                                                                                                                ",
"                                                                                                                                ",
"                                                                                                                                ",
"                                                                                                                                ",
"                                                                                                                                ",
"                                                                                                                                ",
"                                                                                                                                ",
"                                                                                                                                ",
"                                                                                                                                ",
"                                                                                                                                ",
"                                                                                                                                ",
"                                                                                                                                ",
"                                                                                                                                ",
"                                                                                                                                ",
"                                                                                                                                ",
"                                                                                                                                ",
"                                                                                                                                ",
"                                                                                                                                ",
"                                                                                                                                ",
"                                                                                                                                ",
"                                                                                                                                ",
"                                                                                                                                ",
"                                                                                                                                ",
"                                                                                                                                ",
"                                                                                                                                ",
"                                                                                                                                ",
"                                                                                                                                ",
"                                                                                                                                ",
"                                                                                                                                ",
"                                                                                                                                ",
"                                                                                                                . + @ @ @ @ @ # ",
"                                                                                                            $ % & * @ @ @ @ @ @ ",
"                                                                                                            = - @ @ @ @ @ @ @ @ ",
"                                                                                                            ; > , ' ) @ @ @ @ @ ",
"                                                                                                        ! ~ { ] ^ / ( ) @ @ @ @ ",
"                                                                                                        _ : < [ } | 1 ( ) @ @ @ ",
"                                                                                                    2 3 4 5 6 7 8 9 0 1 a @ @ @ ",
"                                                                                                  b c d e f g 7 7 h i 1 j @ @ @ ",
"                                                                                                  @ k l m n o 7 7 p q r s @ @ @ ",
"                                                                                                  @ t u v g w 7 7 x i y @ @ @ z ",
"                                                                                                  @ @ A B C D E F | G ( @ @ @ H ",
"                                                                                                  @ @ @ I 1 J i K G 1 y @ @ @ L ",
"                                                                                                  @ @ @ @ I M r y y N ) @ @ O P ",
"                                                                                                  @ @ @ @ @ s s @ @ @ @ @ @ Q R ",
"                                                                                                  @ @ @ @ @ @ @ @ @ @ @ @ S T U ",
"                                                                                                  @ @ @ @ @ @ @ @ @ V W Q T X Y ",
"                                                                                                  @ @ @ @ @ @ @ @ Z R `  ...+.@."};
