/* XPM */
static char * tiles4_xpm[] = {
"64 64 436 2",
"  	c #F8C984",
". 	c #F1B183",
"+ 	c #563F34",
"@ 	c #564034",
"# 	c #3C6F3E",
"$ 	c #3B703E",
"% 	c #5C9326",
"& 	c #5E9524",
"* 	c #5F9624",
"= 	c #80BA0C",
"- 	c #81BB0B",
"; 	c #7FB90E",
"> 	c #619823",
", 	c #41763B",
"' 	c #396D3C",
") 	c #3A6F3E",
"! 	c #3B6F3E",
"~ 	c #81BB0C",
"{ 	c #396C3C",
"] 	c #64483A",
"^ 	c #5A4637",
"/ 	c #3E6D3D",
"( 	c #3E6E3D",
"_ 	c #5B9227",
": 	c #5C9227",
"< 	c #619923",
"[ 	c #7DB710",
"} 	c #629922",
"| 	c #81BA0C",
"1 	c #79B217",
"2 	c #7AB219",
"3 	c #5F4438",
"4 	c #544435",
"5 	c #3C713E",
"6 	c #5E9525",
"7 	c #5D9524",
"8 	c #5D9424",
"9 	c #7DB610",
"0 	c #7EB713",
"a 	c #875F4C",
"b 	c #585533",
"c 	c #44753A",
"d 	c #97CE17",
"e 	c #9DD60A",
"f 	c #7CB511",
"g 	c #7BB512",
"h 	c #659C21",
"i 	c #80BA0D",
"j 	c #79B11B",
"k 	c #3F6C3D",
"l 	c #3B6D3E",
"m 	c #9DD416",
"n 	c #A5DD05",
"o 	c #83BD0B",
"p 	c #609823",
"q 	c #609723",
"r 	c #629923",
"s 	c #7FB810",
"t 	c #83BC0B",
"u 	c #7FB80C",
"v 	c #5F5A32",
"w 	c #A9E300",
"x 	c #84BE0A",
"y 	c #A5DE04",
"z 	c #A4DC03",
"A 	c #5F5932",
"B 	c #A5DF04",
"C 	c #765A42",
"D 	c #5F5832",
"E 	c #A8E102",
"F 	c #A7E101",
"G 	c #A8E101",
"H 	c #87C10A",
"I 	c #639A23",
"J 	c #A1DB08",
"K 	c #A8E201",
"L 	c #A9E400",
"M 	c #AAE400",
"N 	c #87C109",
"O 	c #5E9624",
"P 	c #A4DC02",
"Q 	c #55863A",
"R 	c #54873A",
"S 	c #54863A",
"T 	c #9CD513",
"U 	c #A2DC02",
"V 	c #43783A",
"W 	c #40753B",
"X 	c #679D26",
"Y 	c #689D21",
"Z 	c #396F3E",
"` 	c #9FD714",
" .	c #3E733D",
"..	c #5A9029",
"+.	c #5B9023",
"@.	c #3D6E3E",
"#.	c #689F20",
"$.	c #679F20",
"%.	c #588E2B",
"&.	c #5D9425",
"*.	c #3D6D3D",
"=.	c #5D9324",
"-.	c #5C4337",
";.	c #5D4337",
">.	c #406C3D",
",.	c #A6E001",
"'.	c #A5DF02",
").	c #609724",
"!.	c #7EB80F",
"~.	c #3F743C",
"{.	c #553F34",
"].	c #574034",
"^.	c #3E703E",
"/.	c #DEA277",
"(.	c #89C309",
"_.	c #89C20A",
":.	c #669D21",
"<.	c #669E20",
"[.	c #ECBC78",
"}.	c #845E4B",
"|.	c #B08662",
"1.	c #6B9538",
"2.	c #689A34",
"3.	c #568A35",
"4.	c #588C35",
"5.	c #98D011",
"6.	c #99D10F",
"7.	c #699F22",
"8.	c #4B8036",
"9.	c #4F8337",
"0.	c #95CC1E",
"a.	c #95CB1F",
"b.	c #4C6E40",
"c.	c #3F743D",
"d.	c #A8E203",
"e.	c #6DA321",
"f.	c #4A7C3C",
"g.	c #5E4839",
"h.	c #534735",
"i.	c #487B3C",
"j.	c #A5DE0A",
"k.	c #A6E003",
"l.	c #A2DB07",
"m.	c #9DD610",
"n.	c #A5DE09",
"o.	c #55873A",
"p.	c #568839",
"q.	c #A1D911",
"r.	c #6BA121",
"s.	c #6BA020",
"t.	c #496119",
"u.	c #496219",
"v.	c #396E3E",
"w.	c #CE966D",
"x.	c #745334",
"y.	c #745335",
"z.	c #3A703E",
"A.	c #94CA1F",
"B.	c #98CF1C",
"C.	c #A7E005",
"D.	c #497E37",
"E.	c #437638",
"F.	c #EBBB78",
"G.	c #A4DD0B",
"H.	c #755242",
"I.	c #785544",
"J.	c #805C37",
"K.	c #86603C",
"L.	c #B8855D",
"M.	c #7B5746",
"N.	c #84BB1A",
"O.	c #7BB21D",
"P.	c #4A7F36",
"Q.	c #3D723D",
"R.	c #A5DE0B",
"S.	c #956949",
"T.	c #92674A",
"U.	c #6F5036",
"V.	c #664934",
"W.	c #3E6C3D",
"X.	c #679D24",
"Y.	c #69A022",
"Z.	c #90654A",
"`.	c #8C624B",
" +	c #624735",
".+	c #835C4A",
"++	c #865F4C",
"@+	c #3E733E",
"#+	c #9AD11A",
"$+	c #9BD319",
"%+	c #649A23",
"&+	c #598F2A",
"*+	c #40753C",
"=+	c #669C23",
"-+	c #47603A",
";+	c #46633B",
">+	c #45643B",
",+	c #44653B",
"'+	c #7C5746",
")+	c #E8AA7D",
"!+	c #E7AA7D",
"~+	c #93CA1F",
"{+	c #7BB11D",
"]+	c #7AB11D",
"^+	c #487D38",
"/+	c #477C38",
"(+	c #5D9326",
"_+	c #578D2C",
":+	c #53872C",
"<+	c #406B3D",
"[+	c #F1C27D",
"}+	c #EAAC7F",
"|+	c #5B9024",
"1+	c #47613A",
"2+	c #46613A",
"3+	c #4C5738",
"4+	c #4D5638",
"5+	c #47623A",
"6+	c #538830",
"7+	c #538930",
"8+	c #45633B",
"9+	c #485F3A",
"0+	c #A4774C",
"a+	c #A4774D",
"b+	c #B48758",
"c+	c #A4784E",
"d+	c #7F5A48",
"e+	c #6F4E3F",
"f+	c #6F5D3C",
"g+	c #92CB06",
"h+	c #91CB07",
"i+	c #76AF17",
"j+	c #75AE17",
"k+	c #76AE17",
"l+	c #8CC224",
"m+	c #8DC224",
"n+	c #629924",
"o+	c #5C9225",
"p+	c #325B34",
"q+	c #845E4A",
"r+	c #81BB0A",
"s+	c #649B22",
"t+	c #3F6B3D",
"u+	c #426D3B",
"v+	c #649C21",
"w+	c #659D21",
"x+	c #649B23",
"y+	c #A0D909",
"z+	c #88C209",
"A+	c #599029",
"B+	c #659C23",
"C+	c #A8E200",
"D+	c #82BC0B",
"E+	c #74AC20",
"F+	c #598F2B",
"G+	c #43663C",
"H+	c #7E5847",
"I+	c #546B41",
"J+	c #5A7340",
"K+	c #79B314",
"L+	c #79B214",
"M+	c #69A01F",
"N+	c #68A01F",
"O+	c #558A35",
"P+	c #538736",
"Q+	c #93CA18",
"R+	c #9BD40D",
"S+	c #855D4B",
"T+	c #885F4C",
"U+	c #43773C",
"V+	c #77B016",
"W+	c #77AF16",
"X+	c #6EA525",
"Y+	c #6FA625",
"Z+	c #8CC223",
"`+	c #8CC125",
" @	c #835D4A",
".@	c #6F4F40",
"+@	c #5B8F33",
"@@	c #5A8F33",
"#@	c #90CA07",
"$@	c #90C907",
"%@	c #80B90D",
"&@	c #6BA31E",
"*@	c #A4DE02",
"=@	c #6FA71C",
"-@	c #93CC0B",
";@	c #88BD27",
">@	c #87BC28",
",@	c #3E723E",
"'@	c #44773D",
")@	c #4F6939",
"!@	c #6D4E3F",
"~@	c #485E3A",
"{@	c #85B929",
"]@	c #92CB0E",
"^@	c #93CC07",
"/@	c #75AD18",
"(@	c #74AC19",
"_@	c #3F733E",
":@	c #497C3C",
"<@	c #A4DE0B",
"[@	c #88C109",
"}@	c #8BC409",
"|@	c #8BC509",
"1@	c #99D11A",
"2@	c #79B11E",
"3@	c #76AE1E",
"4@	c #73AA1F",
"5@	c #74AA1F",
"6@	c #8AC409",
"7@	c #99D019",
"8@	c #9AD21A",
"9@	c #567E39",
"0@	c #42683C",
"a@	c #42673C",
"b@	c #87C011",
"c@	c #A5DF01",
"d@	c #679E20",
"e@	c #69A11F",
"f@	c #6AA21E",
"g@	c #6BA21E",
"h@	c #78B115",
"i@	c #7CB21C",
"j@	c #8FC620",
"k@	c #8EC423",
"l@	c #44643B",
"m@	c #91C821",
"n@	c #93C920",
"o@	c #6EA51F",
"p@	c #79AF1D",
"q@	c #6EA61C",
"r@	c #6CA41D",
"s@	c #A1DA08",
"t@	c #7DB41C",
"u@	c #7FB61D",
"v@	c #528830",
"w@	c #548930",
"x@	c #8BC025",
"y@	c #8BC125",
"z@	c #4D803B",
"A@	c #44783D",
"B@	c #8CC225",
"C@	c #A9E201",
"D@	c #6DA51D",
"E@	c #4A7D3C",
"F@	c #6FA71B",
"G@	c #72AA1A",
"H@	c #70A81B",
"I@	c #70A91B",
"J@	c #5F9623",
"K@	c #88BF18",
"L@	c #A7E102",
"M@	c #8ABF26",
"N@	c #86BB28",
"O@	c #89C018",
"P@	c #88C018",
"Q@	c #629823",
"R@	c #68A020",
"S@	c #77AD1E",
"T@	c #78AE1E",
"U@	c #6CA41E",
"V@	c #6CA31E",
"W@	c #4D8234",
"X@	c #4C8234",
"Y@	c #7EB811",
"Z@	c #73AC19",
"`@	c #4F8532",
" #	c #4E8333",
".#	c #8EC615",
"+#	c #8EC516",
"@#	c #2F5531",
"##	c #2F5431",
"$#	c #96CF06",
"%#	c #95CF06",
"&#	c #69A02A",
"*#	c #679E2B",
"=#	c #548931",
"-#	c #4F8433",
";#	c #508532",
">#	c #4B7721",
",#	c #487120",
"'#	c #487121",
")#	c #4A6439",
"!#	c #87BE19",
"~#	c #518732",
"{#	c #4D8334",
"]#	c #82B81E",
"^#	c #8BC217",
"/#	c #72AA1B",
"(#	c #558B30",
"_#	c #518631",
":#	c #628D14",
"<#	c #628D15",
"[#	c #7DB50D",
"}#	c #2D411D",
"|#	c #534836",
"1#	c #4A7E3A",
"2#	c #4C6E18",
"3#	c #4E7118",
"4#	c #73A916",
"5#	c #77AF19",
"6#	c #6EA133",
"7#	c #6EA032",
"8#	c #4F7219",
"9#	c #4F7118",
"0#	c #2C4929",
"a#	c #29452A",
"b#	c #3A5920",
"c#	c #3B5B1F",
"d#	c #37693B",
"e#	c #28442A",
"f#	c #352F26",
"g#	c #362D26",
"h#	c #28452A",
"i#	c #395821",
"j#	c #4A6C1D",
"k#	c #A9E301",
"l#	c #92C821",
"m#	c #508436",
"n#	c #487D37",
"o#	c #3C5C1F",
"p#	c #3B5A1F",
"q#	c #3A5A1F",
"r#	c #628417",
"s#	c #668916",
"t#	c #678B16",
"u#	c #81BA0B",
"v#	c #5C9132",
"w#	c #598E34",
"x#	c #33542C",
"y#	c #284329",
"z#	c #79AF0E",
"A#	c #37471B",
"B#	c #80B90B",
"C#	c #223323",
"                                                        . . + @ # $ % & & & & * = - - - - ; & & & & & & & > - - - - > & , ' ) ) ",
"                                                        . . + @ ! $ % & & & & * ~ - - - - ; & & & & & & & > - - - - > & , { ) ) ",
"                                            . . . . . . ] ^ / ( _ : & & & & & & > < < > [ ; & & & & & & & & < } | - > & 1 2 { { ",
"                                            . . . . . . 3 4 $ 5 6 & & & 7 8 & & & & & 8 9 ; & & & & & & & & & * ~ - > & 9 0 ) ) ",
"                                    . .         a a . . . . a a b b c , d e f f f f f f = ~ f g * & & & & & & & h h * & 9 i j j ",
"                                    . .         a a . . . . a a a a k l m n o o o o - - - - - = p q & & & & & & & & r r s t u u ",
"                                                a a a a a a a a a a a a a v w w w w x - - - - - - - > & & & & & & & y w w z ) ) ",
"                                                a a a a a a a a a a a a a A w w w w x - - - - - - - > & & & & & & & B w w z ) ) ",
"                                                a a a a     . . a a . . a a C D E w F G H - - = > q & & & & & & & & I I J z ) ) ",
"                                                a a a a     . . a a . . a a a a K L L M N - - = O & & & & & & & & & & 7 J P ) ) ",
"                                                    . . . .     a a a a . . a a Q R R S T U - - [ [ > & & & & & & & V W X Y ) ) ",
"                                                    . . . .     a a a a . . a a # $ $ Z ` F - - - - > & & & & & & &  .$ ..+.) ) ",
"                                                    . .     . . . . a a a a a a a a @.Z ` F - ~ #.$.* & & & & & & & %.%.&.+.) ) ",
"                                                    . .     . . . . a a a a a a a a *.Z ` F - = * & & & & & * * & & & & & +.) ) ",
"                                                    . . . . . . . . . . a a a a a a *.Z ` F - = * & & & & > = i * & & & & & =.=.",
"                                                    . . . . . . . . . . a a a a a a *.Z ` F - = * & & & & > - = * & & & & & & & ",
"                                                . . . . . . -.;.. . . . a a . . >./ $ Z ` w ,.'.).& & & & > - - !.!.> & & % ~.~.",
"                                                . . . . . . {.].. . . . a a . . ^.$ $ Z ` w w K ).& & & & > - - - - > & & % $ $ ",
"                                        /.. . . . . . . . . . . . . a a a a a a # $ $ Z ` F (._.* & & & & * :.<.~ - > & & % $ $ ",
"          [.[.[.                        . . . . . . . . . . . . . . a a a a a a # $ $ Z ` F - = * & & & & & & * = - > & & % $ $ ",
"                                            . . . .         . . . . . . a a a a }.}.|.. 1.2.3.4.5.6.6.6.7.& & * = - > & 8.9.0.a.",
"                                            . . . .         . . . . . . a a a a a a . . b.$ $ c.d.w w w e.& & * | - > & , f.w w ",
"                                . .                     . .     . . . . a a a a . . . . g.h.$ $ i.i.j.w k.l.& & > > & 8 m.n.w w ",
"                                . .                     . .     . . . . a a a a . . . . 3 4 $ $ $ ) j.L w B & & & & & 8 J w L L ",
"    . .     . .     . . . .         . .                 . .     . . . . a a a a . . . . . . a a # $ o.p.q.B & & & & & & r.s.t.u.",
"    . .     . .     . . . .         . .                 . .     . . . . a a a a . . . . . . a a # $ $ v.` B & & & & & & & +.) ) ",
". . . . . w.    . . . .         . . . .                 . . x.y.a a a a a a . . . . . . . . a a # z.A.B.C.B & & & & & & D.E.) ) ",
". . . . . .     . . . .         . . . . F.              . . a a a a a a a a . . . . . . . . a a # ) G.w w B & & & & & & , ' ) ) ",
"H.I.. . . . J.K.. . . .     L.L.. . . .                 . . a a a a a a a a M.M.. . . . . . a a # ) G.w N.O.& & & & P.D.Q.' ) ) ",
"a a . . . . a a . . . .     . . . . . .                 . . a a a a a a a a a a . . . . . . a a # ) R.M e.& & & & &  .$ $ ' ) ) ",
"a a . . a a a a . . a a . . . .         S.T.        U.V.. . . . a a . . . . . . . . . . a a W.W.$ $ X.Y.).& & & & &  .$ $ ' ) ) ",
"a a . . a a a a . . a a . . . .         Z.`.         +{.. . . . a a . . . . . . . . . . a a $ $ ) ) % & & & & & & &  .$ $ ' ) ) ",
"a a a a a a a a a a a a a .+. . . .         . . . . . . . . . . a a a a . . . . . . ++a . . $ @+#+$+%+& & & & & & & &+&+*+' ) ) ",
"a a a a a a a a a a a a a a . . . .         . . . . . . . . . . a a a a . . . . . . a a . . $ c.d.w =+& & & & & & & & & , ' ) ) ",
"a a a a -+;+a a >+,+,+,+a a '+'+. . . )+. )+                . . a a a a . . . . . . a a . !+A.~+{+]+).& & & & & ^+/+(+& _+:+) ) ",
"a a a a <+*.a a # $ $ $ a a a a . . . . . .             [+  . . a a a a . . . . . . a a . }+w K ).& & & & & & &.5 $ % & & |+) ) ",
"1+1+1+2+3+4+1+5+6+7+Q.$ 8+9+a a . . . . . . 0+a+a+a+b+b+b+c+. . a a a a d+e+e+e+e+e+a a d+f+g+h+i+j+j+k+} & & * l+m+n+& & o+p+p+",
"$ $ $ $ a a $ 5 &.&  .$ $ *.a a . . . . . . . . . . . . . . . . a a a a a a a a a a a a a q+r+- - - - - s+& 8 * K w =+& & % $ $ ",
"$ $ $ $ t+u+....& &  .$ $ *.a a a a a a a a a a a a a a . . . . a a . . a a a a a a a a . . v+w+| - - - s+x+y+y+(.z+r & & & A+..",
"$ $ $ $ $  .& & & &  .$ $ *.a a a a a a a a a a a a a a . . . . a a . . a a a a a a a a . . & * = - - - s+B+w C+D+- > & & & & & ",
"E+E+F+_+_+_+& & & &  .$ $ # G+G+a a >+G+G+G+G+G+a a M.H+d+.+. . . . . . . . a a a a >+G+I+J+K+L+M+N+O+P+Q+R+w C+D+- > & i+L+L+L+",
"- - > & & & & & & &  .$ $ $ $ # a a *.$ $ $ $ # a a S+T+a a . . . . . . . . a a a a *.$ $ U+- = * &  .Z ` w w C+D+- > & 9 - - - ",
"- - V+W+} & & & & & X+Y+Z+`+z.$ 8+;+# $ $ $ $ $ 8+8+ @M.a a M.M.M.M.. . .@d+a a a a *.$ $  .+@@@D.D.5 Z ` F #@$@- - > & 9 %@&@&@",
"- - - - s+& & & & & ; - *@G.) $ $ $ $ $ $ $ $ $ $ $ a a a a a a a a . . a a a a a a *.$ $ $ $ $ $ $ $ Z ` F - - - - > & 9 ; & & ",
"=@=@=@=@> & & & & & ; - h+-@;@>@,@$ $ $ $ '@;@;@;@;@)@9+a a a a a a !@.@a a a a ~@~@{@;@;@;@;@;@;@;@;@;@]@^@- - - - /@(@; ; & & ",
"& & & & & & & & & & ; - - x w d._@) $ $ $ f.w w w w :@z.a a a a a a a a a a a a # ) <@w w w w w w w w w [@- - - - - - - - ; & & ",
"& & & & & & & & & & ; - - D+}@|@1@#+2@3@3@3@4@5@6@}@7@8@9@0@0@a@a a a a a a 0@0@$ $ b@}@c@F }@}@}@}@}@|@D+- - - - - M+d@d@<.& & ",
"& & & & & & & & & & ; - - - - D+C+w x - - ; & * = - F L p.$ $ # a a a a a a $ $ $ $ 0 - *@F - - - - - - - - - - - - > & & & & & ",
"& & & & & & & & & & e@f@f@f@f@g@{+O.&@f@f@&@h@h@- - i@{+j@k@z.$ l@>+>+>+>+,+$ ,@m@n@o@f@p@]+f@f@f@f@%@- q@r@- ~ g@f@* & & & & & ",
"& & & & & & & & & & & & & & & & & & & & & > - - - - > 8 s@G.) $ $ $ $ $ $ $ $ c.d.w =+& & & & & & & ; - s+> - = * & & & & & & & ",
"& & & & & & & & & & & & & & & & & & & & & > - - - - > & t@u@v@w@x@y@y@`+z@A@`+B@C@w =+& & & & & & & r@D@q * D@D@& & & & & & & & ",
"& & & & & & & & & & & & & & & & & & & & & > - - - - > & & & & ).K w w L p.E@w w w w =+& & & & & & & & & & & & & & & & & & & & & ",
"& & & & & & & & & & & & & & & & & & & & F@G@H@H@H@I@J@& & & & * K@K@L@w M@N@w K O@P@Q@& & & & & & & & & & & & & & & & & & & & & ",
"& & & & & & & & & & & & & & & & & & & & 9 ; & & & & & & & & & & & & B w w w w K ).& & & & & & & & & & & & & & & & & & & & & & & ",
"& & & & & & & & & & & & & & & & & & & & $.R@& & & & & & & & & & & & S@T@T@T@T@T@* & & & k+L+L+h@* & & & & & & & & & & & k+V+& & ",
"& & & & & & & & & & & & & & & & & & & & & & & & & & & & & & & & & & & & & & & & & & & & 9 - - = * & & & & & & & & & & & 9 ; & & ",
"& & /@i+} & & & & & & & & & & & & & & & & & & & & & & & & & & & & & & & & & & * k+i+i+i+%@i U@V@& & & & & & & & & & /@i+%@; & & ",
"& & ; - s+& & & & & & & & & & & & & & & & & & & & & & & & & & & & & & & & & & * = - - - - ; & & & & & & & & & & & & ; - - ; & & ",
"W@X@Y@- s+q Z@Z@Z@Z@Z@Z@> &.W@W@& & & & & & & & & & & & `@W@W@W@W@W@&.& & & & & =@=@=@=@=@q@& & & &  #W@: r .#+#* & q@=@=@F@Z@Z@",
"$ $ 0 - s+> - - - - - - s+% $ 5 &.& & & & & & & & & & & , $ $ $ $ $ % & & & & & & & & & & & & & & &  .$ ..=+w K ).& & & & > - - ",
"@###9 - s+I $#%#- - &#*#=#-#$ $ `@;#&.& >#,#,#'#;#;#;#;#)#~@$ $ $ $ -#;#% Q@K@!#~#;#&.& & & & & & & -#{#]#^#w K /#H@H@I@(#_#:#<#",
") ) [#- s+=+w C+D+- U+$ $ $ $ $ $ $ % & }#) ) ) ! $ $ $ |#4 $ $ $ $ $ $ ..=+w d.c.$ % & & & & & & & & 8 s@w w C+D+- - r+1#' ) ) ",
") ) 2#3#4#5#6#7#8#9#0#a#a#a#a#a#a#a#b#c#d#) ) ) e#a#a#a#f#g#a#a#a#a#a#h#i#j#w k#l#l#m#n#n#P.& 8 o#p#p#q#r#s#s#t#u#- v#w#x#y#) ) ",
") ) ) ) z#0 $ ! ) ) ) ) ) ) ) ) ) ) ) ) ) ) ) ) ) ) ) ) ) ) ) ) ) ) ) ) ) A#w w w w E@$ $  .& 8 ) ) ) ) ) ) ) ) B#- U+$ C#) ) ) "};
