/* XPM */
static char * tiles7_xpm[] = {
"64 64 347 2",
"  	c #F8C984",
". 	c #F6C484",
"+ 	c #F1B283",
"@ 	c #F2B683",
"# 	c #F6C384",
"$ 	c #F1B183",
"% 	c #F2B583",
"& 	c #F7C684",
"* 	c #F2B383",
"= 	c #F8C884",
"- 	c #F7C784",
"; 	c #F2B483",
"> 	c #F3B883",
", 	c #A37B59",
"' 	c #B28961",
") 	c #F7C584",
"! 	c #8E664F",
"~ 	c #A37A59",
"{ 	c #F9C984",
"] 	c #F6C584",
"^ 	c #F1C081",
"/ 	c #8F674F",
"( 	c #A8795C",
"_ 	c #F9CA84",
": 	c #875E4C",
"< 	c #885F4C",
"[ 	c #875E4B",
"} 	c #A27459",
"| 	c #F7C484",
"1 	c #775C43",
"2 	c #937450",
"3 	c #F7C384",
"4 	c #F0B183",
"5 	c #533D33",
"6 	c #7E6246",
"7 	c #F9CA85",
"8 	c #865E4B",
"9 	c #885E4C",
"0 	c #AC7B5E",
"a 	c #A3755A",
"b 	c #A57D5A",
"c 	c #A9805C",
"d 	c #F5BE84",
"e 	c #A57C5A",
"f 	c #AE855E",
"g 	c #F4BD84",
"h 	c #CFA46F",
"i 	c #87634B",
"j 	c #9A7155",
"k 	c #F3B683",
"l 	c #EFBF7F",
"m 	c #8E644F",
"n 	c #956C52",
"o 	c #F6C783",
"p 	c #DAAE74",
"q 	c #AB7A5E",
"r 	c #DFA379",
"s 	c #5F4538",
"t 	c #7E5C47",
"u 	c #EFB082",
"v 	c #EFAF82",
"w 	c #CD966F",
"x 	c #9B6E56",
"y 	c #89604D",
"z 	c #8F644F",
"A 	c #895F4C",
"B 	c #594135",
"C 	c #89604C",
"D 	c #A4755A",
"E 	c #E7A97D",
"F 	c #765342",
"G 	c #9A6D55",
"H 	c #8D634F",
"I 	c #563F34",
"J 	c #997055",
"K 	c #A3745A",
"L 	c #E7AA7E",
"M 	c #755242",
"N 	c #906550",
"O 	c #906650",
"P 	c #A17359",
"Q 	c #F3B984",
"R 	c #916850",
"S 	c #956B52",
"T 	c #8F6550",
"U 	c #976B54",
"V 	c #906850",
"W 	c #8A604D",
"X 	c #8C624E",
"Y 	c #556C42",
"Z 	c #536D41",
"` 	c #86604C",
" .	c #4B6E40",
"..	c #4A6E40",
"+.	c #84604B",
"@.	c #8B614D",
"#.	c #9B6E55",
"$.	c #986C54",
"%.	c #82614B",
"&.	c #666945",
"*.	c #476F3F",
"=.	c #3B703E",
"-.	c #3A703E",
";.	c #84614B",
">.	c #926751",
",.	c #EAAC7F",
"'.	c #82614A",
").	c #606A43",
"!.	c #515138",
"~.	c #515037",
"{.	c #536E40",
"].	c #5E9524",
"^.	c #3C713D",
"/.	c #516D41",
"(.	c #5C6B43",
"_.	c #A5765B",
":.	c #9F7258",
"<.	c #908944",
"[.	c #A3D021",
"}.	c #98C229",
"|.	c #526C41",
"1.	c #506D41",
"2.	c #456F3F",
"3.	c #475D39",
"4.	c #534836",
"5.	c #534735",
"6.	c #3C713E",
"7.	c #3E733D",
"8.	c #3D713D",
"9.	c #88614C",
"0.	c #89654B",
"a.	c #929341",
"b.	c #A8E200",
"c.	c #9BD318",
"d.	c #356136",
"e.	c #40743C",
"f.	c #8A614D",
"g.	c #946852",
"h.	c #949A3F",
"i.	c #A9E203",
"j.	c #A0D905",
"k.	c #81BB0B",
"l.	c #80BA0C",
"m.	c #518122",
"n.	c #3F743C",
"o.	c #936852",
"p.	c #A9E300",
"q.	c #A0DA03",
"r.	c #558822",
"s.	c #3C703E",
"t.	c #436F3F",
"u.	c #875F4C",
"v.	c #4E6D40",
"w.	c #D99E76",
"x.	c #5E6B43",
"y.	c #81624A",
"z.	c #527E3C",
"A.	c #A7DE0E",
"B.	c #A8DF0A",
"C.	c #5F9523",
"D.	c #3A6F3E",
"E.	c #396F3E",
"F.	c #446F3F",
"G.	c #3D703E",
"H.	c #486E40",
"I.	c #A6775B",
"J.	c #5A6B42",
"K.	c #80624A",
"L.	c #4D7F3B",
"M.	c #629721",
"N.	c #79B219",
"O.	c #7AB319",
"P.	c #9CD514",
"Q.	c #97CE1D",
"R.	c #4C6E40",
"S.	c #8D634E",
"T.	c #9C6F56",
"U.	c #9E7057",
"V.	c #986B54",
"W.	c #406F3F",
"X.	c #9FD903",
"Y.	c #7AB213",
"Z.	c #A6E001",
"`.	c #A0D813",
" +	c #396E3E",
".+	c #416F3F",
"++	c #39703E",
"@+	c #4C7F3B",
"#+	c #A9E400",
"$+	c #9ED704",
"%+	c #77B016",
"&+	c #8AC409",
"*+	c #8DC60C",
"=+	c #99D01B",
"-+	c #95CC1E",
";+	c #55873A",
">+	c #99D11A",
",+	c #97CD1E",
"'+	c #546D41",
")+	c #A7785C",
"!+	c #5F7D3E",
"~+	c #98CF1A",
"{+	c #7EB80F",
"]+	c #7FB90D",
"^+	c #87C10A",
"/+	c #A4DD0B",
"(+	c #3E733E",
"_+	c #3F733D",
":+	c #3D723E",
"<+	c #5B8D38",
"[+	c #A8E201",
"}+	c #A5DF07",
"|+	c #3F743D",
"1+	c #40733E",
"2+	c #86604B",
"3+	c #7E634A",
"4+	c #51843A",
"5+	c #A6DF01",
"6+	c #76AE17",
"7+	c #82BC0B",
"8+	c #85BF0A",
"9+	c #A8E103",
"0+	c #A7E104",
"a+	c #81BA0E",
"b+	c #80BA0E",
"c+	c #7BB513",
"d+	c #609724",
"e+	c #649B22",
"f+	c #84BE0A",
"g+	c #A7E105",
"h+	c #44753D",
"i+	c #3E703E",
"j+	c #4E6E40",
"k+	c #7B6349",
"l+	c #477C3B",
"m+	c #82BC0A",
"n+	c #7CB511",
"o+	c #629922",
"p+	c #83BD0B",
"q+	c #A9E201",
"r+	c #40743D",
"s+	c #7A6449",
"t+	c #467B3B",
"u+	c #81BC0A",
"v+	c #7FB90E",
"w+	c #80BA0D",
"x+	c #A2DB0D",
"y+	c #5A8C38",
"z+	c #9ED710",
"A+	c #80B90D",
"B+	c #9AD21A",
"C+	c #A3DC06",
"D+	c #7DB610",
"E+	c #9ED715",
"F+	c #9ED615",
"G+	c #9CD417",
"H+	c #619337",
"I+	c #A0D912",
"J+	c #669835",
"K+	c #79B115",
"L+	c #76AC1F",
"M+	c #7AB11D",
"N+	c #98CF1C",
"O+	c #A1DA08",
"P+	c #75AC1F",
"Q+	c #6DA321",
"R+	c #7CB512",
"S+	c #9ED70B",
"T+	c #7AB314",
"U+	c #75AE17",
"V+	c #7AB413",
"W+	c #7EB80E",
"X+	c #7FB80E",
"Y+	c #79B214",
"Z+	c #78B115",
"`+	c #42773B",
" @	c #457A39",
".@	c #43783A",
"+@	c #78AF1E",
"@@	c #9FD80A",
"#@	c #92CA14",
"$@	c #5F9624",
"%@	c #3F733C",
"&@	c #7DB31D",
"*@	c #9AD20E",
"=@	c #263F28",
"-@	c #263E28",
";@	c #A0DA02",
">@	c #568A35",
",@	c #548836",
"'@	c #477C38",
")@	c #457939",
"!@	c #467B39",
"~@	c #467B38",
"{@	c #39571F",
"]@	c #36521E",
"^@	c #385722",
"/@	c #467A39",
"(@	c #284128",
"_@	c #2C4C2D",
":@	c #477B38",
"<@	c #629923",
"[@	c #9AD30E",
"}@	c #90C71B",
"|@	c #497E37",
"1@	c #9BD30E",
"2@	c #9ED806",
"3@	c #75AD1B",
"4@	c #467430",
"5@	c #486619",
"6@	c #3E581A",
"7@	c #80BA0B",
"8@	c #A9E301",
"9@	c #A7E101",
"0@	c #366337",
"a@	c #325C35",
"b@	c #3B6F3E",
"c@	c #253B26",
"d@	c #76AD1E",
"e@	c #41763C",
"f@	c #A9E200",
"g@	c #7FB90F",
"h@	c #325C34",
"i@	c #31552F",
"j@	c #79B00F",
"k@	c #7CB516",
"l@	c #43763D",
"m@	c #42753C",
"n@	c #335B32",
"o@	c #5D7E18",
"p@	c #A7E006",
"q@	c #9FD714",
"r@	c #3B703D",
"s@	c #3D723D",
"t@	c #487D37",
"u@	c #2C381B",
"v@	c #4E6F18",
"w@	c #7AB219",
"x@	c #3C6E3A",
"y@	c #7AB10E",
"z@	c #7DB615",
"A@	c #3A6E3D",
"B@	c #5D7C17",
"C@	c #AAE400",
"D@	c #A2DB10",
"E@	c #496819",
"F@	c #386A3B",
"                                                                                                                                ",
"                                                                                                                                ",
"                                                                                                                                ",
"                                                                                                                                ",
"                                                                                                                                ",
"                                                                                                                                ",
"                                                                                                                                ",
"                                                                                                                                ",
"                                                                                                                                ",
"                                                                                                                                ",
"                                                                                                                                ",
"                                                                                                                                ",
"                                                                                                                                ",
"                                                                                                                                ",
"                                                                                                                                ",
"                                                                                                                                ",
"                                                                          . + @                                                 ",
"                                                                          # $ %                                                 ",
"                                                              & * %       = - -                               . ; >             ",
"                                                              & $ *                                           # $ @             ",
"                                                          $ , ' ) )               - $ $                       = ) &             ",
"                                                        = $ ! ~ {               = & $ $                             = =         ",
"                                                        $ $                   ) $ $ $ $                           ) $ $         ",
"                                                        $ $                   ) $ $ $ $                           ] $ $         ",
"    $ $ & - $ $     $ $ $ $         $ $ =               $ $                   ) $ $ $ $ $ $           ^ ! / / / / ( $ $         ",
"    $ $ & - $ $     $ $ $ $         $ $ =               $ $ _ {               ) $ $ $ $ $ $           ^ : < < < [ } $ $         ",
"$ $ $ $ $ $ - & $ $ $ $ | -   = $ $ $ $ =               $ $ 1 2 {               - 3 $ $ $ $ $ $ $ $ $ $ : < < ( $ $ $ $         ",
"$ $ $ $ $ $   = $ $ $ $ -     = $ $ $ $ =               $ 4 5 6 7                 & $ $ $ $ $ $ $ $ $ $ 8 9 < 0 $ $ $ $         ",
"a a $ $ $ $ b c $ $ $ $ - - $ $ $ $ d |                 $ $ $ $ e f               & $ $ $ $ $ $ ) g $ $ $ h < 0 $ $ i j k @ @ l ",
"< < $ $ $ $ : m $ $ $ $ & | $ $ $ $                     $ $ = $ [ n             = & $ $ $ $ $ $ = ) $ $ o p < q $ r s t u v v w ",
"< < $ $ x y < m $ $ z A $ $ $ $                         $ $ $ $ [ n           ) $ $ $ $ B j $ $ $ $   ^ C y < < y D 4 E < y y F ",
"< < $ $ G < < m $ $ H : $ $ $ $                         $ $ $ $ [ n           ) $ $ $ $ I J $ $ $ $   ^ : < < < < K $ L [ < < M ",
"< < N O y < < < O O < < N P $ $ $ $                     = Q $ $ [ C R S $ $ $ $ $ $ T U $ $ $ $ $ $ V V < < < < < W O T < < < M ",
"< < < < < < < < < < < < < x $ $ $ $                       d $ $ [ < < X $ $ $ $ $ $ [ O $ $ $ $ $ $ [ < < < < < < < < < < < < M ",
"< < < < Y Z < `  .......+.@.#.} $ $ $ $ $ $               d $ $ [ < < X $ $ $ $ $ $ [ O $ $ $ $ G $.< < < < < < < < < %...&.< M ",
"< < < A ..*.< ` =.=.=.-.;.< < >.$ $ $ $ $ $               d $ $ [ < < X $ $ $ $ $ $ [ O $ $ $ ,.< < < < < < < < 9 9 < '.-.).< M ",
"Z Z Z Z !.~.Z {.].].^.=./.(.< >.$ $ $ $ $ $ $ $ $ $ $ $ $ $ $ $ [ < < C _._._._._.} < W _._._.:.< < < < < < < <.[.}.|.1.=.2.Z 3.",
"=.=.=.=.4.5.6.7.].].8.=.=. .< >.$ $ $ $ $ $ $ $ $ $ $ $ $ $ $ $ [ < X X < < < < < < < < < < < < < < < < < 9.0.a.b.c.=.6.6.6.6.d.",
"=.=.=.=.=.e.].].].].8.=.=. .< < f.f.f.f.f.f.f.f.f.f.f.X $ $ $ $ [ g.$ $ W < < < < < < < < < < < < < < < < h.i.j.k.l.].].].].].m.",
"=.=.=.=.=.n.].].].].8.=.=. .< < < < < < < < < < < < < W $ $ $ $ [ o.$ $ y < < < < < < < < < < < < < < < 9 h.p.q.k.l.].].].].].r.",
"k.k.].].].].].].].].8.=.=.s.t. .< u.2.t.t.t.t.v.< < < < >.0 $ $ $ $ $ $ $ w.< < < %.t.t.t.x.< < < y.t.z.A.B.p.q.k.l.].].k.k.k.C.",
"k.k.].].].].].].].].6.D.E.D.=.F.A u.G.=.=.=.=.H.A < < < < I.$ $ $ $ $ $ $ $ < < < %.-.=.=.J.< < < K.-.L.p.p.p.q.k.l.].].k.k.k.M.",
"k.k.k.k.].].].].].].N.O.P.Q.D.s.R. .=.=.=.=.=.G.R.1.< < < S.T.T.T._.$ $ U.V.< < < %.-.=.=.W.R.R.R...=.L.p.X.k.k.k.l.].].k.Y.].].",
"k.k.k.k.].].].].].].l.k.Z.`. +=.=.=.=.=.=.=.-.-.-..+< < < < < < < g.$ $ W < < < < %.++-.-.-.-.-.-.-.-.@+#+$+k.k.k.l.].].k.%+].r.",
"].].].].].].].].].].l.k.&+*+=+-+D.=.=.=.=.;+>+=+=+,+'+Y u.< < < < @.)+I.< < < y.'+!+>+=+=+=+=+=+=+=+=+~+k.k.k.k.k.k.{+]+k.%+].r.",
"].].].].].].].].].].l.k.k.^+p./+(+_+:+:+:+<+b.[+b.}+|+1+2+u.u.u.< < < < < < u.3+-.4+p.b.p.p.b.b.b.b.b.5+k.k.k.k.k.k.k.k.k.6+].r.",
"].].].].].].].].].].l.k.k.k.7+8+9+0+a+b+b+c+d+e+7+f+9+g+h+i+i+j+< < < < < k+i+G.=.l+m+f+p.X.k.k.k.k.k.k.k.k.k.k.k.l.].].].].].r.",
"].].].].].].].].].].l.k.k.k.k.f+p.b.7+k.k.n+].o+k.p+p.q+r+D.=.R.A < < < < s+=.=.D.t+u+f+p.X.k.k.k.k.k.k.k.k.k.k.k.l.].].].].].r.",
"].].].].].].].].].].].].].].].].].].].].].].v+v+k.w+].].x+-+D.s.2.2.2.2.2.t.=.y+/+z+].].].].].].].].k.k.].].k.{+].].].].].].].r.",
"].].].].].].].].].].].].].].].].].].].].].].k.k.k.A+].].[+B+D.=.E.E.E.E.=.=.E.<+p.C+].].].].].].].].k.k.].].k.D+].].].].].].].r.",
"].].].].].].].].].].].].].].].].].].].].].].k.k.k.A+].].].].].].E+F+F+G+:+H+F+I+p.C+].].].].].].].].].].].].].].].].].].].].].r.",
"].].].].].].].].].].].].].].].].].].].].].].k.k.k.w+].].].].].].p.p.p.0+:+J+p.p.p.C+].].].].].].].].].].].].].].].].].].].].].r.",
"].].].].].].].].].].].].].].].].].].].].K+%+].].].].].].].].].].L+M+p.q+N+G+p.O+P+Q+].].].].].].].].].].].].].].].].].].].].].r.",
"].].].].].].].].].].].].].].].].].].].].v+R+].].].].].].].].].].].].p.[+[+[+[+S+].].].].].].].].].].].].].].].].].].].].].].].r.",
"].].].].].].].].].].].].].].].].].].].].].].].].].].].].].].].].].].].].].].].].].].].].l.l.l.T+].].].].].].].].].].].].k.U+].r.",
"].].].].].].].].].].].].].].].].].].].].].].].].].].].].].].].].].].].].].].].].].].].].k.k.k.V+].].].].].].].].].].].].k.%+].r.",
"].].k.k.].].].].].].].].].].].].].].].].].].].].].].].].].].].].].].].].].].].].W+{+{+X+k.Y+].].].].].].].].].].].].k.k.k.%+].r.",
"].].k.k.].].].].].].].].].].].].].].].].].].].].].].].].].].].].].].].].].].].].k.k.k.k.k.Z+].].].].].].].].].].].].k.k.k.%+].m.",
"`+`+k.k.].].k.l.l.l.l.l.].].`+ @].].].].].].].].].].].]..@`+`+`+`+ @].].].].].].].].].].].].].].].].`+ @].+@@@#@].].].].].$@n+].",
"=.=.k.k.].].k.k.k.k.k.k.].].=.7.].].].].].].].].].].].].^.=.=.=.=.%@].].].].].].].].].].].].].].].].=.n.].&@p.*@].].].].].].k.M.",
"=@-@k.k.].].;@X.k.k.>@,@'@)@=.6.!@~@].].{@]@]@^@!@!@!@/@(@_@=.=.=.6.!@:@].<@[@}@ @|@].].].].].].].].].].1@@@p.2@D+D+D+3@ @4@5@6@",
"=.=.7@k.].].8@9@k.k._+=.=.=.=.=.=.^.].].0@=.=.a@=.=.=.b@=.c@=.=.=.=.=.^.].d@p.G+=.e@].].].].].].].].].].p.f@f@X.k.k.k.g@D.h@=.=.",
"=.=.i@0@j@k@l@m@n@n@=.=.=.=.=.=.=.=.=.=.=.=.=.=.=.=.=.=.=.=.=.=.=.=.=.=.=.o@p.q+p@q@r@s@s@t@].].=.=.=.=.u@u@u@v@k.w@_+x@=.=.=.=.",
"=.=.=.=.y@z@-.A@=.=.=.=.=.=.=.=.=.=.=.=.=.=.=.=.=.=.=.=.=.=.=.=.=.=.=.=.=.B@C@#+#+D@E.=.=.'@].].=.=.=.=.=.=.=.E@k.w@=.F@=.=.=.=."};
