/* XPM */
static char * tiles3_xpm[] = {
"64 64 436 2",
"  	c #3A6F3E",
". 	c #2F5531",
"+ 	c #3B703E",
"@ 	c #4D8234",
"# 	c #5E9524",
"$ 	c #6FA71C",
"% 	c #81BB0B",
"& 	c #74AC20",
"* 	c #47613A",
"= 	c #875F4C",
"- 	c #755242",
"; 	c #F1B183",
"> 	c #F8C984",
", 	c #2F5431",
"' 	c #4C8234",
") 	c #785544",
"! 	c #4C6E18",
"~ 	c #7DB50D",
"{ 	c #7DB610",
"] 	c #7EB713",
"^ 	c #7EB811",
"/ 	c #7FB90E",
"( 	c #75AD18",
"_ 	c #77B016",
": 	c #619823",
"< 	c #598F2B",
"[ 	c #4E7118",
"} 	c #76AF17",
"| 	c #77AF16",
"1 	c #578D2C",
"2 	c #46613A",
"3 	c #79AF0E",
"4 	c #73A916",
"5 	c #649B22",
"6 	c #629922",
"7 	c #3F6B3D",
"8 	c #4C5738",
"9 	c #406B3D",
"0 	c #47603A",
"a 	c #77AF19",
"b 	c #669C23",
"c 	c #639A23",
"d 	c #609723",
"e 	c #3E733D",
"f 	c #426D3B",
"g 	c #4D5638",
"h 	c #3D6D3D",
"i 	c #46633B",
"j 	c #CE966D",
"k 	c #ECBC78",
"l 	c #6EA133",
"m 	c #A9E300",
"n 	c #96CF06",
"o 	c #73AC19",
"p 	c #5A9029",
"q 	c #805C37",
"r 	c #3B6F3E",
"s 	c #6EA032",
"t 	c #A8E200",
"u 	c #95CF06",
"v 	c #3C713E",
"w 	c #47623A",
"x 	c #86603C",
"y 	c #4F7219",
"z 	c #82BC0B",
"A 	c #5D9425",
"B 	c #538830",
"C 	c #3C6F3E",
"D 	c #45643B",
"E 	c #4F7118",
"F 	c #538930",
"G 	c #44653B",
"H 	c #2C4929",
"I 	c #43773C",
"J 	c #69A02A",
"K 	c #69A11F",
"L 	c #6EA525",
"M 	c #3D723D",
"N 	c #29452A",
"O 	c #679E2B",
"P 	c #6AA21E",
"Q 	c #6FA625",
"R 	c #548931",
"S 	c #91CB07",
"T 	c #A4DE02",
"U 	c #8CC223",
"V 	c #45633B",
"W 	c #4F8433",
"X 	c #5C9326",
"Y 	c #84BE0A",
"Z 	c #93CC0B",
"` 	c #A4DD0B",
" .	c #8CC125",
"..	c #485F3A",
"+.	c #835C4A",
"@.	c #8BC409",
"#.	c #88BD27",
"$.	c #3A703E",
"%.	c #43663C",
"&.	c #7C5746",
"*.	c #B8855D",
"=.	c #6BA21E",
"-.	c #8BC509",
";.	c #A8E203",
">.	c #87BC28",
",.	c #4F8532",
"'.	c #7BB11D",
").	c #99D11A",
"!.	c #3F733E",
"~.	c #3E723E",
"{.	c #508532",
"].	c #7BB21D",
"^.	c #9AD11A",
"/.	c #3A5920",
"(.	c #6BA31E",
"_.	c #79B11E",
":.	c #3B5B1F",
"<.	c #76AE1E",
"[.	c #E8AA7D",
"}.	c #37693B",
"|.	c #2D411D",
"1.	c #4B7721",
"2.	c #679F20",
"3.	c #6FA71B",
"4.	c #90654A",
"5.	c #956949",
"6.	c #EBBB78",
"7.	c #DEA277",
"8.	c #487120",
"9.	c #68A020",
"0.	c #72AA1A",
"a.	c #4A7C3C",
"b.	c #44773D",
"c.	c #8C624B",
"d.	c #92674A",
"e.	c #70A81B",
"f.	c #78B115",
"g.	c #73AA1F",
"h.	c #A4774C",
"i.	c #487121",
"j.	c #5F9624",
"k.	c #74AA1F",
"l.	c #A4774D",
"m.	c #28442A",
"n.	c #80BA0C",
"o.	c #8AC409",
"p.	c #70A91B",
"q.	c #5F9623",
"r.	c #7CB21C",
"s.	c #A7E101",
"t.	c #99D019",
"u.	c #497C3C",
"v.	c #4F6939",
"w.	c #835D4A",
"x.	c #855D4B",
"y.	c #7B5746",
"z.	c #B48758",
"A.	c #624735",
"B.	c #6F5036",
"C.	c #5D9424",
"D.	c #A9E400",
"E.	c #9AD21A",
"F.	c #885F4C",
"G.	c #7E5847",
"H.	c #553F34",
"I.	c #664934",
"J.	c #352F26",
"K.	c #534836",
"L.	c #4A6439",
"M.	c #41763B",
"N.	c #7DB41C",
"O.	c #A1DA08",
"P.	c #8FC620",
"Q.	c #568839",
"R.	c #567E39",
"S.	c #7F5A48",
"T.	c #F1C27D",
"U.	c #5F4438",
"V.	c #64483A",
"W.	c #362D26",
"X.	c #544435",
"Y.	c #485E3A",
"Z.	c #7FB61D",
"`.	c #8EC423",
" +	c #42683C",
".+	c #A4784E",
"++	c #5A4637",
"@+	c #528830",
"#+	c #745334",
"$+	c #5C4337",
"%+	c #3E6D3D",
"&+	c #563F34",
"*+	c #609724",
"=+	c #548930",
"-+	c #42673C",
";+	c #745335",
">+	c #574034",
",+	c #5D4337",
"'+	c #3E6E3D",
")+	c #564034",
"!+	c #88BF18",
"~+	c #A8E201",
"{+	c #8BC025",
"]+	c #44643B",
"^+	c #585533",
"/+	c #5E9525",
"(+	c #5B9227",
"_+	c #8BC125",
":+	c #5C9227",
"<+	c #77AD1E",
"[+	c #A5DF04",
"}+	c #A7E102",
"|+	c #6D4E3F",
"1+	c #3F6C3D",
"2+	c #44753A",
"3+	c #28452A",
"4+	c #78AE1E",
"5+	c #6F4F40",
"6+	c #3B6D3E",
"7+	c #395821",
"8+	c #8ABF26",
"9+	c #4D803B",
"0+	c #9DD416",
"a+	c #97CE17",
"b+	c #5D9524",
"c+	c #37471B",
"d+	c #4A6C1D",
"e+	c #629823",
"f+	c #86BB28",
"g+	c #4A7D3C",
"h+	c #44783D",
"i+	c #6F4E3F",
"j+	c #5F5932",
"k+	c #5F5A32",
"l+	c #A5DD05",
"m+	c #9DD60A",
"n+	c #765A42",
"o+	c #83BD0B",
"p+	c #7CB511",
"q+	c #A9E301",
"r+	c #87BE19",
"s+	c #8CC225",
"t+	c #3F743D",
"u+	c #5F5832",
"v+	c #92C821",
"w+	c #518732",
"x+	c #76AE17",
"y+	c #89C018",
"z+	c #A9E201",
"A+	c #91C821",
"B+	c #845E4B",
"C+	c #3E703E",
"D+	c #406C3D",
"E+	c #55863A",
"F+	c #A8E102",
"G+	c #81BB0C",
"H+	c #88C018",
"I+	c #93C920",
"J+	c #54873A",
"K+	c #619923",
"L+	c #508436",
"M+	c #6EA51F",
"N+	c #87C011",
"O+	c #A4DE0B",
"P+	c #85B929",
"Q+	c #865F4C",
"R+	c #B08662",
"S+	c #3D6E3E",
"T+	c #487D37",
"U+	c #396F3E",
"V+	c #54863A",
"W+	c #AAE400",
"X+	c #A8E101",
"Y+	c #80B90D",
"Z+	c #79AF1D",
"`+	c #A5DF01",
" @	c #546B41",
".@	c #5E4839",
"+@	c #4C6E40",
"@@	c #6B9538",
"#@	c #9FD714",
"$@	c #9CD513",
"%@	c #87C109",
"&@	c #87C10A",
"*@	c #7DB710",
"=@	c #4A7F36",
"-@	c #6EA61C",
";@	c #80BA0D",
">@	c #79B214",
",@	c #7AB11D",
"'@	c #5A7340",
")@	c #845E4A",
"!@	c #6F5D3C",
"~@	c #EAAC7F",
"{@	c #E7AA7D",
"]@	c #534735",
"^@	c #689A34",
"/@	c #A2DC02",
"(@	c #6CA41E",
"_@	c #5B8F33",
":@	c #79B314",
"<@	c #649C21",
"[@	c #81BB0A",
"}@	c #92CB06",
"|@	c #94CA1F",
"1@	c #3E6C3D",
"2@	c #568A35",
"3@	c #89C309",
"4@	c #A6E001",
"5@	c #6CA31E",
"6@	c #5A8F33",
"7@	c #659D21",
"8@	c #93CA1F",
"9@	c #3E733E",
"0@	c #588C35",
"a@	c #89C20A",
"b@	c #A5DF02",
"c@	c #7BB512",
"d@	c #3C5C1F",
"e@	c #497E37",
"f@	c #69A01F",
"g@	c #81BA0C",
"h@	c #487B3C",
"i@	c #98D011",
"j@	c #689F20",
"k@	c #5E9624",
"l@	c #609823",
"m@	c #3B5A1F",
"n@	c #68A01F",
"o@	c #75AE17",
"p@	c #9BD319",
"q@	c #99D10F",
"r@	c #4E8333",
"s@	c #6CA41D",
"t@	c #558A35",
"u@	c #649A23",
"v@	c #679D24",
"w@	c #A5DE0B",
"x@	c #55873A",
"y@	c #A5DE0A",
"z@	c #3A5A1F",
"A@	c #4D8334",
"B@	c #6DA51D",
"C@	c #538736",
"D@	c #69A022",
"E@	c #98CF1C",
"F@	c #396E3E",
"G@	c #628417",
"H@	c #82B81E",
"I@	c #88C109",
"J@	c #92CB0E",
"K@	c #93CA18",
"L@	c #6DA321",
"M@	c #84BB1A",
"N@	c #A7E005",
"O@	c #A1D911",
"P@	c #A6E003",
"Q@	c #699F22",
"R@	c #668916",
"S@	c #8BC217",
"T@	c #629923",
"U@	c #93CC07",
"V@	c #9BD40D",
"W@	c #659C23",
"X@	c #649B23",
"Y@	c #A2DB07",
"Z@	c #8EC615",
"`@	c #90CA07",
" #	c #A0D909",
".#	c #669D21",
"+#	c #678B16",
"@#	c #8EC516",
"##	c #90C907",
"$#	c #669E20",
"%#	c #80B90B",
"&#	c #81BA0B",
"*#	c #72AA1B",
"=#	c #8CC224",
"-#	c #487D38",
";#	c #7EB80F",
">#	c #659C21",
",#	c #88C209",
"'#	c #8DC224",
")#	c #477C38",
"!#	c #5C9132",
"~#	c #629924",
"{#	c #5D9326",
"]#	c #598F2A",
"^#	c #588E2B",
"/#	c #43783A",
"(#	c #A5DE04",
"_#	c #598E34",
":#	c #679E20",
"<#	c #74AC19",
"[#	c #40753B",
"}#	c #223323",
"|#	c #33542C",
"1#	c #4A7E3A",
"2#	c #558B30",
"3#	c #40753C",
"4#	c #6BA121",
"5#	c #A1DB08",
"6#	c #9DD610",
"7#	c #4B8036",
"8#	c #679D26",
"9#	c #7FB810",
"0#	c #79B217",
"a#	c #284329",
"b#	c #396D3C",
"c#	c #518631",
"d#	c #5C9225",
"e#	c #5B9024",
"f#	c #53872C",
"g#	c #437638",
"h#	c #5B9023",
"i#	c #6BA020",
"j#	c #A5DE09",
"k#	c #4F8337",
"l#	c #689D21",
"m#	c #A4DC02",
"n#	c #A4DC03",
"o#	c #83BC0B",
"p#	c #7AB219",
"q#	c #396C3C",
"r#	c #628D14",
"s#	c #599029",
"t#	c #325B34",
"u#	c #496119",
"v#	c #95CC1E",
"w#	c #3F743C",
"x#	c #5D9324",
"y#	c #7FB80C",
"z#	c #79B11B",
"A#	c #628D15",
"B#	c #496219",
"C#	c #95CB1F",
"      . + @ # # # # # # # # # # # # # $ % % % & + + + * = = = = = = = - ; ; > > > > > > > > > > > > > > > > > > > > > > > > > > ",
"      , + ' # # # # # # # # # # # # # $ % % % & + + + * = = = = = = = ) ; ; > > > > > > > > > > > > > > > > > > > > > > > > > > ",
"  ! ~ { ] ^ / ( # # # # # # # # # # # $ % _ : < + + + * = = = = ; ; ; ; ; ; ; ; > > > > > > > > > > > > > > > > > > > > > > > > ",
"  [ % % % % % } # # # # # # # # # # # $ % | # 1 + + + 2 = = = = ; ; ; ; ; ; ; ; > > > > > > > > > > > > > > > > > > > > > > > > ",
"3 4 5 5 5 5 5 6 # # # # # # # # # # # : 5 6 # 1 + 7 = 8 9 0 = = = = ; ; ; ; > > > > > > > > > > > > > > > > > > > > > > > > > > ",
"] a b c : d # # # # # # # # # # # # # # # # # 1 e f = g h i = = = = ; ; ; j > > > > > > k > > > > > > > > > > > > > > > > > > > ",
"+ l m n % o # # # # # # # # # # # # # # # # # # # p + * = = = = = = = q > > ; ; > > > > k > > > > > > > > > > > > > > > > > > > ",
"r s t u % o # # # # # # # # # # # # # # # # # # # p v w = = = = = = = x > > ; ; > > > > k > > > > > > > > > > > > > > > > > > > ",
"  y z % % o # # # # # # # # # # # # # # # # # # # # A B C D = = ; ; ; ; ; ; > > > > > > > > > > > > > > > > > > > > > > > > > > ",
"  E % % % o # # # # # # # # # # # # # # # # # # # # # F + G = = ; ; ; ; ; ; > > > > > > > > > > > > > > > > > > > > > > > > > > ",
"  H I J % o # # # # # # # # # K / / / / / L e e e e e M + G = = = = ; ; ; ; ; ; > > > > > > > > > > > > > > > > > > > > > > > > ",
"  N + O % o # # # # # # # # # P % % % % % Q + + + + + + + G = = = = ; ; ; ; ; ; > > > > > > > > > > > > > > > > > > > > > > > > ",
"  N + R 5 : # # # # # # # # # P % % % S T U + + + + + V = = = = ; ; > > > > ; ; > > > > > > > > > > > > > > > > > > > > > > > > ",
"  N + W X A # # # # # # # # # P % z Y Z `  .+ C h h h ..= = = +.; ; > > > > ; ; > > > > > > > > > > > > > > > > > > > > > > > > ",
"  N + + + @ # # # # # # # # # P % @.m #.  $.+ %.= = = = = &.; ; ; ; ; *.> > > > > > > > > > > > > > > > > > > > > > > > > > > > ",
"  N + + v @ # # # # # # # # # =.z -.;.>.+ + C %.= = = = = &.; ; ; ; ; *.> > > > > > > > > > > > > > > > > > > > > > > > > > > > ",
"  N + ,.A # # # # # # # # # # '.t ).!.~.+ V = = = = ; ; ; ; ; ; > > ; ; ; ; > > ; ; > > > > > > > > > > > > > > > > > > > > > > ",
"  N + {.# # # # # # # # # # # ].m ^.  + + i = = = = ; ; ; ; ; ; > > ; ; ; ; > > ; ; > > > > > > > > > > > > > > > > > > > > > > ",
"  /.X A # # # # # # # # # # # (.Y _.+ + + C h D = = ; ; ; ; > > > > ; ; ; ; ; ; > > > > > > > > > > > > > > > > > > ; ; > > > > ",
"  :.# # # # # # # # # # # # # P % <.+ + + + + %.= = ; ; ; [.> > > > ; ; ; ; ; ; > > > > > > > > > > > > > > > > > > ; ; > > > > ",
"  }.|.1.# # # # # 2.{ 3.# # # P % <.+ + + + + %.= = ; ; ; ; > > 4.5.> > 6.> > > > > > > ; 7.> > > > > > > > > > > > > > > > > > ",
"      8.# # # # # 9./ 0.: : : (./ <.a.b.+ + + %.= = ; ; ; [.> > c.d.> > > > > > > > > > ; ; > > > > > > > > > > > > > > > > > > ",
"      8.# # # # # # # e.% % % f.# g.m #.+ + + %.= = ; h.> > ; ; > > > > > > > > > > ; ; ; ; > > > > > > > > > > > > > > ; ; > > ",
"      i.# # # # # # # e.% % % f.j.k.m #.+ + C %.= = ; l.> > ; ; > > > > > > > > > > ; ; ; ; > > > > > > > > > > > > > > ; ; > > ",
"  m.r {.# # # # # # # e.% % % % n.o.m #.+ V = = = = ; l.> > ; ; > > > > > > > > > > ; ; ; ; ; ; > > > > > > = = = = = = ; ; > > ",
"  N + {.# # # # # # # p.% % % % % @.m #.+ V = = = = ; l.> > ; ; > > > > > > > > > > ; ; ; ; ; ; > > > > > > = = = = = = ; ; > > ",
"  N + {.# # # # # # # q.: : : r.s.t.u.v.= w.x.y.= = ; z.> > ; ; A.B.> > > > > > > > > > ; ; ; ; ; ; ; ; ; ; = = = = ; ; ; ; > > ",
"  N + {.# # # # # # # # # # C.'.D.E.$...= y.F.G.= = ; z.> > ; ; H.I.> > > > > > > > > > ; ; ; ; ; ; ; ; ; ; = = = = ; ; ; ; > > ",
"  J.K.L.M.,.# # # # # # # N.O.P.Q.R.= = = = = S.; ; ; z.T.> ; ; ; ; ; ; ; ; ; ; ; ; > > ; ; ; ; ; ; > > ; ; > > = = ; ; U.V.; ; ",
"  W.X.Y.+ @ # # # # # # # Z.` `.+  += = = = = +.; ; ; .+> > ; ; ; ; ; ; ; ; ; ; ; ; > > ; ; ; ; ; ; > > ; ; > > = = ; ; X.++; ; ",
"  N + + + @ # # # # # # # @+  $.+  += = = y.; ; ; ; ; ; ; ; ; ; ; ; = = = #+> > > > ; ; ; ; H.$+; ; ; ; > > ; ; = = = = + %+&+&+",
"  N + + + @ # # # # # j.*+=++ + C -+= = = y.; ; ; ; ; ; ; ; ; ; ; ; = = = ;+> > > > ; ; ; ; >+,+; ; ; ; > > ; ; = = = = v '+)+)+",
"  N + + + @ # # # # # !+~+{++ ]+= = = = = y.; ; = = = = = = = = = = = = = = ; ; ; ; ; ; ; ; ; ; ; ; ; ; = = = = = = = ^+/+(+r C ",
"  N + + + @ # # # # # !+m _++ D = = = = = y.; ; = = = = = = = = = = = = = = ; ; ; ; ; ; ; ; ; ; ; ; ; ; = = = = = = = ^+# :++ + ",
"  N + W X A # # # <+[+}+m _++ D = = = |+; ; ; ; ; ; = = = = = = ; ; = = = = ; ; ; ; ; ; = = ; ; ; ; = = = = ; ; = = 1+2+# # X X ",
"  3++ {.# # # # # 4+m m D. .+ D = = = 5+; ; ; ; ; ; = = = = = = ; ; = = = = ; ; ; ; ; ; = = ; ; ; ; = = = = ; ; = = 6+M.# # # # ",
"  7+p X # # # # # 4+m 8+Q.9++ D = = = = = 5+; ; = = = S.; ; ; ; ; ; = = = = = = = = = = = = = = = = = = ; ; = = = = 0+a+b+# # # ",
"c+d+b e+# # # # # 4+m f+g+h++ G = = = = = S.; ; = = = i+; ; ; ; ; ; = = = = = = = = = = = = = = = = = = ; ; = = j+k+l+m+C.# # # ",
"m m m !+# # # # # 4+m m m  .+ + +  += = = = = = = = = i+; ; ; ; ; ; = y.; ; = = = = = = = = ; ; = = = = = = = n+m m o+p+# # # # ",
"m q+;.r+# # j.j.# 4+~+~+m s+t+~.+  += = = = = = = = = i+; ; ; ; ; ; = y.; ; = = = = = = = = ; ; = = = = = = = u+m m o+p+# # j.j.",
"m v+t+w+# $ n.x+# j.*+y+m z+;.A++ + C Y.= = = = = = = i+; ; ; ; ; ; ; ; ; ; ; ; ; ; = B+C C C+D+= = = = C E+~+F+m m o+p+# : G+n.",
"m v++ {.# $ % } # # # H+m m m I++ +   Y.= = = = = = = i+; ; ; ; ; ; ; ; ; ; ; ; ; ; = B++ + + %+= = = = + J+D.m m m o+p+# K+% % ",
"g+L+X A # $ % } # # # e+b b b M+] N+O+P+h h h D = = = = = = = Q+; ; ; ; ; ; ; ; ; ; ; R++ + + + h h h S++ J+D.s.Y Y % p+# K+% % ",
"+ T+# # # $ % } # # # # # # # P % @.m #.+ + + %.= = = = = = = = ; ; ; ; ; ; ; ; ; ; ; ; U+U+U+U+U+U+U+U+U+V+W+X+% % % p+C.: % % ",
"+ T+# # # $ % Y+{ x+# # # # # Z+T `+m #.+ + +  @; ; = S.; ; ; ; = = ; ; ; ; ; ; U..@+@@@#@#@#@#@#@#@#@#@#@$@%@&@% % % n.{ *@% % ",
"e =@# # # -@/ ;@% >@# # # # # ,@s.s.m #.+ e I '@; ; )@!@~@{@; ; = = ; ; ; ; ; ; X.]@+ ^@s.s.m m s.s.s.s.s./@% % % % % G+/ / / / ",
"# # # # # # # (@% >@# # # # # P % @.m #.+ _@% :@# <@[@}@m |@+ + + 1@= = = = = = + + + 2@% 3@m 4@% % % % % % % % % % % p+# # # # ",
"C.C.# # # # # 5@n.f.# # # # # P % @.m #.+ 6@n.>@j.7@% S ~+8@t+9@+ 1@= = = = = = + + t+0@n.a@~+b@n.n.n.G+% % n.n.% % n.c@# # # # ",
"  d@# # # # # # j.j.# # # # # P % @.m #.+ e@j.f@n.g@% } *+'.;.^.  + C C C C C C + h@;.i@j.j.*+*+j.j.j.j@% *@k@: % % l@j.# # # # ",
"  m@# # # # # # # # # # # # # P % @.m #.+ e@# n@% % % o@# ,@m p@  +       $.+ +   h@m q@# # # # # # # 2.% *@# d % % d # # # # # ",
"  m@# W e r@# # # # # # # s@/ Y+% @.m #.+ v e t@% % % o@# *+b u@X v@w@` ` |@+ x@y@y@m q@# # # # # # # j.: : # # : : # # # # # # ",
"  z@C.A@+ @ # # # # # # # B@% % % -.m #.U+U+U+C@% % % x+# # # # # D@W+m m E@F@Q.D.m m q@# # # # # # # # # # # # # # # # # # # # ",
"  G@O.H@p :+# # # # # # # d 5 -@% z I@J@#@#@#@K@5 5 5 6 # # # # # *+L@M@m N@#@O@m P@L@Q@# # # # # # # # # # # # # # # # # # # # ",
"  R@m S@b T@# # # # # # # j.: s@% % % U@s.s.m V@W@X@# # # # # # # # # ].[+[+[+[+[+Y@# # # j.: : : : # # # # # # # # # # # # : : ",
"  R@m m m Z@# # # # # # # B@% % % % % % % `@m m m  #C.# # # # # # # # # # # # # # # # # # .#% % % n.j.# # # # # # # # # # K+% % ",
"  +#t ~+~+@## # # # # # # B@n.G+% % % % % ##t t t  #j.j.A # # # # # # # # # # # # # j.j.j.$#% % n.;@j.# # # # # # # # # j.6 % % ",
"%#&#z *#*+j.# # # # # # # # j.=.% % % % % % z z z 3@~+=#v -## # # # # # # # # # # : g@n.n.G+% ;#j.j.# # # # # # # # # >#G+g@% % ",
"% % % e.# # # # # # # # # # # P % % % % % % % % % ,#m '#+ )## # # # # # # # # # # : % % % % % ;## # # # # # # # # # # >#% % % % ",
"I !#% e.# -@/ ( # # # # # # # j.: f@% ( : : : : : T@b ~#X {## ]#e e e =@# # # # # # : : : : : : # # # ^#e /## c [+(#T@j.: : : : ",
"+ _#[@p.# $ % } # # # # # # # # # :#% <## # # # # # # # # # # ]#+ + + e@# # # # C.C.# # # # # # # # # ^#+ [#b+c m m T@# # # # # ",
"}#|#1#2## $ % Y+{ x+# # # # # # # :#% / { { { } # # # # # 1 M.3#+ + + M M.e@# 4#5#6#M.7## # # # # # # A p 8#5#5#m m 9#{ { 0#M.M.",
"  a#b#c#: 3./ / / _ # # # # # # # $#/ / / Y+% >@# # X d#e#f#b#b#b#b#b#b#b#g#h#i#m j#a.k#X X X X # # h#h#h#l#m#n#n#n#o#;@] p#q#b#",
"      r#% o # # # # # # # # # # # # # # # (.% >@# s#+ t#                      u#D.m m v#+ + + w## x#                y#z#  q#    ",
"      A#% o # # # # # # # # # # # # # # # (.% >@# p + t#                      B#D.m m C#+ + + w## x#                y#z#  q#    "};
