/* XPM */
static char * tiles6_xpm[] = {
"64 64 454 2",
"  	c #583724",
". 	c #94928B",
"+ 	c #868579",
"@ 	c #56341F",
"# 	c #E2B677",
"$ 	c #F8C984",
"% 	c #5F422F",
"& 	c #614431",
"* 	c #604331",
"= 	c #614532",
"- 	c #614533",
"; 	c #624633",
"> 	c #624634",
", 	c #634836",
"' 	c #634936",
") 	c #634A38",
"! 	c #644A38",
"~ 	c #644B39",
"{ 	c #624835",
"] 	c #634835",
"^ 	c #624735",
"/ 	c #604330",
"( 	c #5C3C28",
"_ 	c #8D8B82",
": 	c #8B8980",
"< 	c #848277",
"[ 	c #5B3B27",
"} 	c #8C8A81",
"| 	c #60422E",
"1 	c #DBA076",
"2 	c #F1B183",
"3 	c #635A51",
"4 	c #645A52",
"5 	c #665D54",
"6 	c #675F56",
"7 	c #6B635A",
"8 	c #6A635A",
"9 	c #6A6159",
"0 	c #696057",
"a 	c #696158",
"b 	c #858277",
"c 	c #61422E",
"d 	c #5F574E",
"e 	c #5C3B25",
"f 	c #5C3C25",
"g 	c #5E3F2A",
"h 	c #5F402E",
"i 	c #5F412E",
"j 	c #5E402C",
"k 	c #5E402B",
"l 	c #5E3E29",
"m 	c #5D3C26",
"n 	c #60584F",
"o 	c #61432E",
"p 	c #8E8B82",
"q 	c #858377",
"r 	c #5F564D",
"s 	c #5A371E",
"t 	c #716256",
"u 	c #777066",
"v 	c #6D6258",
"w 	c #706256",
"x 	c #5D3C28",
"y 	c #79766B",
"z 	c #918F87",
"A 	c #F4BB83",
"B 	c #726255",
"C 	c #918E85",
"D 	c #5D3D28",
"E 	c #8F8E85",
"F 	c #918F86",
"G 	c #868477",
"H 	c #7B776B",
"I 	c #7A7267",
"J 	c #95938B",
"K 	c #5D3E29",
"L 	c #6B6256",
"M 	c #614430",
"N 	c #868478",
"O 	c #797369",
"P 	c #7A7669",
"Q 	c #7A7769",
"R 	c #7A776A",
"S 	c #7A756A",
"T 	c #654935",
"U 	c #DEA976",
"V 	c #60422D",
"W 	c #79756A",
"X 	c #7B766C",
"Y 	c #7B776C",
"Z 	c #7C776C",
"` 	c #7A766A",
" .	c #7C776B",
"..	c #7B766B",
"+.	c #573723",
"@.	c #5B371E",
"#.	c #7A756B",
"$.	c #7C786C",
"%.	c #7D786D",
"&.	c #7C786B",
"*.	c #7B776A",
"=.	c #7B766A",
"-.	c #7B7267",
";.	c #7A7469",
">.	c #787467",
",.	c #787268",
"'.	c #61432F",
").	c #95938A",
"!.	c #878578",
"~.	c #7D796F",
"{.	c #7C776D",
"].	c #7C786E",
"^.	c #7D786E",
"/.	c #7E786F",
"(.	c #7E786E",
"_.	c #7C766E",
":.	c #7B756A",
"<.	c #7B7469",
"[.	c #797468",
"}.	c #797267",
"|.	c #97948C",
"1.	c #7D796E",
"2.	c #7F796F",
"3.	c #80796F",
"4.	c #7E796F",
"5.	c #7C766A",
"6.	c #7C756A",
"7.	c #7A7568",
"8.	c #7A7368",
"9.	c #797368",
"0.	c #888578",
"a.	c #99978F",
"b.	c #5F402B",
"c.	c #888678",
"d.	c #7F796E",
"e.	c #7F7A6F",
"f.	c #7E7A6F",
"g.	c #7F7B6E",
"h.	c #7F7B6F",
"i.	c #7F7A6E",
"j.	c #7E796E",
"k.	c #7E7970",
"l.	c #7B746A",
"m.	c #7A746D",
"n.	c #5B381E",
"o.	c #8F8B82",
"p.	c #9C9890",
"q.	c #5F3E29",
"r.	c #98958D",
"s.	c #8B897D",
"t.	c #888679",
"u.	c #898679",
"v.	c #7D776D",
"w.	c #6C6259",
"x.	c #7F7A70",
"y.	c #7F7A71",
"z.	c #7F7970",
"A.	c #7B746D",
"B.	c #5B381F",
"C.	c #8F8B83",
"D.	c #888579",
"E.	c #9C9991",
"F.	c #60402B",
"G.	c #99968E",
"H.	c #8F8C83",
"I.	c #8E8C82",
"J.	c #6C635A",
"K.	c #807A71",
"L.	c #7E7A70",
"M.	c #8D8A81",
"N.	c #89867A",
"O.	c #9D9991",
"P.	c #5F3F29",
"Q.	c #5E3D28",
"R.	c #A09C94",
"S.	c #8D8B81",
"T.	c #5E3F29",
"U.	c #7F7C70",
"V.	c #696153",
"W.	c #543019",
"X.	c #F8D4A0",
"Y.	c #908E85",
"Z.	c #908E86",
"`.	c #908F86",
" +	c #56341E",
".+	c #573521",
"++	c #5C3A23",
"@+	c #583824",
"#+	c #56351F",
"$+	c #573722",
"%+	c #583622",
"&+	c #55321C",
"*+	c #55341E",
"=+	c #5C381F",
"-+	c #8A877A",
";+	c #8A887A",
">+	c #89877A",
",+	c #8B897C",
"'+	c #8C897C",
")+	c #8A8779",
"!+	c #8C8A7C",
"~+	c #9A968E",
"{+	c #7B786C",
"]+	c #9F9A92",
"^+	c #5A3722",
"/+	c #7A766B",
"(+	c #807C70",
"_+	c #9F9B93",
":+	c #9D9A92",
"<+	c #9B978F",
"[+	c #9A978F",
"}+	c #96938B",
"|+	c #9E9A92",
"1+	c #696255",
"2+	c #696152",
"3+	c #542F18",
"4+	c #6F6050",
"5+	c #777369",
"6+	c #78746A",
"7+	c #95918A",
"8+	c #6D675E",
"9+	c #757169",
"0+	c #757168",
"a+	c #6F695F",
"b+	c #6F6960",
"c+	c #7B766E",
"d+	c #7C786F",
"e+	c #7D7970",
"f+	c #7B776F",
"g+	c #6F6860",
"h+	c #6E685F",
"i+	c #6E685E",
"j+	c #807E77",
"k+	c #675F53",
"l+	c #675F52",
"m+	c #512C16",
"n+	c #6C5847",
"o+	c #6D5A4B",
"p+	c #736E63",
"q+	c #583621",
"r+	c #8B8880",
"s+	c #6D675D",
"t+	c #6F685E",
"u+	c #6F695E",
"v+	c #6F685F",
"w+	c #6E675E",
"x+	c #6E675F",
"y+	c #6D675F",
"z+	c #6D665E",
"A+	c #4F2913",
"B+	c #747064",
"C+	c #746F63",
"D+	c #736E62",
"E+	c #828078",
"F+	c #6D665D",
"G+	c #6E685D",
"H+	c #6F675E",
"I+	c #6C665E",
"J+	c #6C665D",
"K+	c #746F64",
"L+	c #828079",
"M+	c #6C655C",
"N+	c #6B655D",
"O+	c #6E675D",
"P+	c #726D63",
"Q+	c #726C62",
"R+	c #6D665C",
"S+	c #4E2913",
"T+	c #7E7C74",
"U+	c #6A645B",
"V+	c #6A645C",
"W+	c #6B645C",
"X+	c #6B655C",
"Y+	c #533422",
"Z+	c #523320",
"`+	c #52321F",
" @	c #51311E",
".@	c #512F1C",
"+@	c #51301C",
"@@	c #512F1B",
"#@	c #522F1B",
"$@	c #52301B",
"%@	c #726C63",
"&@	c #6D655C",
"*@	c #6C655B",
"=@	c #7C7A71",
"-@	c #7C7972",
";@	c #69635B",
">@	c #533421",
",@	c #594C41",
"'@	c #5B4F44",
")@	c #645B50",
"!@	c #645B4F",
"~@	c #655B51",
"{@	c #655C52",
"]@	c #665D53",
"^@	c #665D52",
"/@	c #645B51",
"(@	c #533623",
"_@	c #706C63",
":@	c #726D64",
"<@	c #6C665B",
"[@	c #6B655B",
"}@	c #77746B",
"|@	c #79776E",
"1@	c #69635A",
"2@	c #6B645A",
"3@	c #5B4E43",
"4@	c #5A4D42",
"5@	c #655B50",
"6@	c #655C51",
"7@	c #665C52",
"8@	c #655D52",
"9@	c #533420",
"0@	c #6D6860",
"a@	c #6B645B",
"b@	c #747068",
"c@	c #4E2812",
"d@	c #78756C",
"e@	c #5B4E42",
"f@	c #645A4F",
"g@	c #655C50",
"h@	c #533320",
"i@	c #726F67",
"j@	c #5D5146",
"k@	c #63584D",
"l@	c #655D51",
"m@	c #53331F",
"n@	c #6A645A",
"o@	c #726E67",
"p@	c #767269",
"q@	c #686159",
"r@	c #696259",
"s@	c #6B6358",
"t@	c #61564B",
"u@	c #63594E",
"v@	c #635A4F",
"w@	c #645A50",
"x@	c #655A50",
"y@	c #63574D",
"z@	c #635A4E",
"A@	c #52331F",
"B@	c #6B6359",
"C@	c #6A6359",
"D@	c #6A6459",
"E@	c #736F67",
"F@	c #676158",
"G@	c #676157",
"H@	c #686157",
"I@	c #696257",
"J@	c #523521",
"K@	c #5F5448",
"L@	c #62574C",
"M@	c #62574D",
"N@	c #696258",
"O@	c #726F66",
"P@	c #676156",
"Q@	c #686156",
"R@	c #50311D",
"S@	c #63584E",
"T@	c #686158",
"U@	c #716E65",
"V@	c #4D2812",
"W@	c #6F6B62",
"X@	c #676155",
"Y@	c #676056",
"Z@	c #502F1B",
"`@	c #5F5449",
" #	c #605549",
".#	c #62574B",
"+#	c #61574D",
"@#	c #51301B",
"##	c #676057",
"$#	c #686057",
"%#	c #716D65",
"&#	c #6F6B60",
"*#	c #666053",
"=#	c #676054",
"-#	c #665E55",
";#	c #5E5346",
">#	c #5E5446",
",#	c #605448",
"'#	c #605449",
")#	c #60554A",
"!#	c #61574C",
"~#	c #512F1A",
"{#	c #666055",
"]#	c #665F56",
"^#	c #E2C091",
"/#	c #6F6A60",
"(#	c #665E54",
"_#	c #655E55",
":#	c #5E5245",
"<#	c #5E5145",
"[#	c #5E5146",
"}#	c #5E5347",
"|#	c #62564B",
"1#	c #5F564A",
"2#	c #615649",
"3#	c #50321D",
"4#	c #655F54",
"5#	c #655F55",
"6#	c #726E66",
"7#	c #696359",
"8#	c #645C53",
"9#	c #645D53",
"0#	c #645E53",
"a#	c #6F6A5E",
"b#	c #523422",
"c#	c #5F5347",
"d#	c #5F5447",
"e#	c #5F5348",
"f#	c #573E2E",
"g#	c #696358",
"h#	c #655F53",
"i#	c #645E54",
"j#	c #716D64",
"k#	c #4D2712",
"l#	c #6E6A5F",
"m#	c #686358",
"n#	c #635C52",
"o#	c #635D52",
"p#	c #787468",
"q#	c #502E1A",
"r#	c #502E19",
"s#	c #502D19",
"t#	c #502D1A",
"u#	c #4F2D1A",
"v#	c #6B665A",
"w#	c #655E53",
"x#	c #645E52",
"y#	c #8F8D85",
"z#	c #8F8D84",
"A#	c #F8D197",
"B#	c #6D695F",
"C#	c #6A655A",
"D#	c #69655A",
"E#	c #635C51",
"F#	c #625C50",
"G#	c #726D60",
"H#	c #736D61",
"I#	c #635D51",
"J#	c #6E6A61",
"K#	c #635C50",
"L#	c #6C6759",
"M#	c #6A655B",
"N#	c #E2BD89",
"O#	c #4C2711",
"P#	c #625C51",
"Q#	c #69655B",
"R#	c #6A665C",
"S#	c #6B675C",
"T#	c #6A665B",
"U#	c #4D2711",
"  . + + + + + @ # # $ $ $ $ $ $ $ $ $ $ $ $ $ % & * = - ; > , ' ) ! ! ~ ~ ~ { ] ^ ^ ^ ^ - / / $ $ $ $ $ $ $ $ $ $ $ $ $ $ $ $ $ ",
"  . + + + + + @ # # $ $ $ $ $ $ $ $ $ $ $ $ ( _ _ _ _ : : < < < < < < < < < < < < < < < < < : [ $ $ $ $ $ $ $ $ $ $ $ $ $ $ $ $ ",
"  . + + + + + @ # # $ $ $ $ $ $ $ $ $ $ $ ( _ _ _ _ _ : < < < < < < < < < < < < < < < < < < < : ( $ $ $ $ $ $ $ $ $ $ $ $ $ $ $ ",
"  . + + + + + @ # # $ $ $ $ $ $ $ $ $ $ ( _ < < < < < < < < < < < < < < < < < } } } < < < < < < : ( $ $ $ $ $ $ $ $ $ $ $ $ $ $ ",
"  . + + + + + @ # # $ $ $ $ $ $ $ $ $ | _ < < < < < < < < < < < < < < < < : } } } } < < < < < < < _ | $ $ $ $ $ $ $ $ $ $ $ $ $ ",
"  . + + + + + @ # 1 2 2 $ $ $ $ $ $ $ | _ < < < < < < 3 4 5 5 6 7 7 8 8 8 7 7 7 9 0 a b < < < < < _ [ $ $ $ $ $ $ $ $ $ $ $ $ $ ",
"  . + + + + + @ 1 1 2 2 2 $ $ $ $ $ $ c _ < b b b b d e f f g g h i j k l l l l m m m n < b b b < _ ( $ $ $ $ $ $ $ $ $ $ $ $ $ ",
"  . + + + + + @ 1 1 2 2 2 2 $ $ $ $ $ o p b q q b r s t t u u u u u u u u u u v w w w s r b b q b _ x $ $ $ $ $ $ $ $ $ $ $ $ $ ",
"  y z + + + + @ 1 1 2 2 2 2 A $ $ $ $ o p q q q q s t B u u u u u u u u u u u u u u t w s q q q b C D $ $ $ $ $ $ $ $ $ $ $ $ $ ",
"  y y E E + + @ 1 1 2 2 2 2 A $ $ $ $ o F q G G G s w u u u u u u u u H H u u u u u I I s G q q q J K $ $ $ $ $ $ $ $ $ $ $ $ $ ",
"  y L L L E E @ 1 1 2 2 2 2 $ $ $ $ $ M F G G G N s v O u u u u P Q R H H S u I I I I I s G G G G J K $ $ $ $ $ $ $ $ $ $ $ $ $ ",
"  L L @ @ T T @ U 1 2 2 2 $ $ $ $ $ $ V F N N N N s W X Y Z u u `  . .H Z ..` I I I I I s N N G G J K $ $ $ $ $ $ $ $ $ $ $ $ $ ",
"+.@ @ + + + + @ # 1 2 2 $ $ $ $ $ $ $ o F N N N N @.#.Y $.%.` `  . .&.&.&.*.=.-.I ;.>.,.@.N N N N J l $ $ $ $ $ $ $ $ $ $ $ $ $ ",
"  . + + + + + @ # # $ $ $ $ $ $ $ $ $ '.).N N !.!.@.X ~.~.{.].^.^././.(.^.]._.:.:.<.[.}.@.N N N !.J l $ $ $ $ $ $ $ $ $ $ $ $ $ ",
"  . + + + + + @ # # $ $ $ $ $ $ $ $ $ o |.!.!.!.!.@.~.~.~.~.^.1.~.2.2.3.2.4.(.5.6.7.8.9.@.0.0.N N a.l $ $ $ $ $ $ $ $ $ $ $ $ $ ",
"  . + + + + + @ # # $ $ $ $ $ $ $ $ $ b.|.!.!.c.c.@.4.4.4.4.d.2.e.f.e.g.h.i.j.k./.l.8.m.n.o.0.0.!.p.q.$ $ $ $ $ $ $ $ $ $ $ $ $ ",
"  . + + + + + @ # # $ $ $ $ $ $ $ $ $ b.r.s.t.t.u.n.v.4.4.e.w.w.2.e.e.x.y.y.z.k.k./.;.A.B.C.u.D.D.E.q.$ $ $ $ $ $ $ $ $ $ $ $ $ ",
"  . + + + + + @ # # $ $ $ $ $ $ $ $ $ F.G.H.I.u.u.u.n.%.4.w.w.w.J.J.J.K.y.y.x.L.k.4.].B.M.C.N.N.D.O.P.$ $ $ $ $ $ $ $ $ $ $ $ $ ",
"  . + + + + + @ # # $ $ $ $ $ $ $ $ $ F.O.H.H.% & * = - ; > , ' ) ! ! ~ ~ ~ { ] ^ ^ ^ ^ - / / N.N.O.P.$ $ $ $ $ $ $ $ $ $ $ $ $ ",
"  . + + + + + @ # # $ $ $ $ $ $ $ $ $ Q.R.S.( _ _ _ _ : : < < < < < < < < < < < < < < < < < : [ N.O.T.$ $ $ $ $ $ $ $ $ $ $ $ $ ",
"  . + + + + + @ # # $ $ $ $ $ $ $ $ $ Q.U.( _ _ _ _ _ : < < < < < < < < < < < < < < < < < < < : ( V.W.$ $ $ $ $ $ $ $ $ $ $ $ $ ",
"  . + + + + + @ # # $ $ $ $ $ $ $ $ $ Q.( _ < < < < < < < < < < < < < < < < < } } } < < < < < < : ( W.$ $ $ $ $ $ X.X.X.$ $ $ $ ",
"  . + + + + + @ # # $ $ $ $ $ $ $ $ $ | _ < < < < < < < < < < < < < < < < : } } } } < < < < < < < _ | $ $ $ $ $ X.X.X.X.X.$ $ $ ",
"  . + + + + + @ # # $ $ $ $ $ $ $ $ $ | _ < < < < < < 3 4 5 5 6 7 7 8 8 8 7 7 7 9 0 a b < < < < < _ [ $ $ $ $ X.X.X.X.X.X.X.$ $ ",
"  . + + + + + @ # # $ $ $ $ $ $ $ $ $ c _ < b b b b d e f f g g h i j k l l l l m m m n < b b b < _ ( $ $ $ $ X.X.X.X.X.X.X.$ $ ",
"  . + + + + + @ # # $ $ $ $ $ $ $ $ $ o p b q q b r s t t u u u u u u u u u u v w w w s r b b q b _ x $ $ $ $ $ X.X.X.X.X.$ $ $ ",
"  . Y.Z.`.F Z. +# # $ $ $ $ $ $ $ $ $ o p q q q q s t B u u u u u u u u u u u u u u t w s q q q b C D $ $ $ $ $ $ X.X.X.$ $ $ $ ",
"  .+T T T T  +++# # $ $ $ $ $ $ $ $ $ o F q G G G s w u u u u u u u u H H u u u u u I I s G q q q J K $ $ $ $ $ $ $ $ $ $ $ $ $ ",
"@+. + + + + + #+# # $ $ $ $ $ $ $ $ $ M F G G G N s v O u u u u P Q R H H S u I I I I I s G G G G J K $ $ $ $ $ $ $ $ $ $ $ $ $ ",
"@+. + + + + + $+# # $ $ $ $ $ $ $ $ $ V F N N N N s W X Y Z u u `  . .H Z ..` I I I I I s N N G G J K $ $ $ $ $ $ $ $ $ $ $ $ $ ",
"%+. + + + + + &+# # $ $ $ $ $ $ $ $ $ o F N N N N @.#.Y $.%.` `  . .&.&.&.*.=.-.I ;.>.,.@.N N N N J l $ $ $ $ $ $ $ $ $ $ $ $ $ ",
"@ . + + + + + *+# # $ $ $ $ $ $ $ $ $ '.).N N !.!.@.X ~.~.{.].^.^././.(.^.]._.:.:.<.[.}.@.N N N !.J l $ $ $ $ $ $ $ $ $ $ $ $ $ ",
"  . + + + + + @ # # $ $ $ $ $ $ $ $ $ o |.!.!.!.!.@.~.~.~.~.^.1.~.2.2.3.2.4.(.5.6.7.8.9.@.0.0.N N a.l $ $ $ $ $ $ $ $ $ $ $ $ $ ",
"  . + + + + + @ # # $ $ $ $ $ $ $ $ $ b.|.!.!.c.c.@.4.4.4.4.d.2.e.f.e.g.h.i.j.k./.l.8.m.n.o.0.0.!.p.q.$ $ $ $ $ $ $ $ $ $ $ $ $ ",
"  . + + + + + @ # # $ $ $ $ $ $ $ $ $ b.r.s.t.t.u.n.v.4.4.e.w.w.2.e.e.x.y.y.z.k.k./.;.A.B.C.u.D.D.E.q.$ $ $ $ $ $ $ $ $ $ $ $ $ ",
"  . + + + + + @ # # $ $ $ $ $ $ $ $ $ F.G.H.I.u.u.u.n.%.4.w.w.w.J.J.J.K.y.y.x.L.k.4.].B.M.C.N.N.D.O.P.$ $ $ $ $ $ $ $ $ $ $ $ $ ",
"  . + + + + + @ # # $ $ $ $ $ $ $ $ $ F.O.H.H.u.u.u.u.n.B.B.B.B.B.B.B.B.B.B.B.=+B.=+=+C.C.C.N.N.N.O.P.$ $ $ $ $ $ $ $ $ $ $ $ $ ",
"  . + + + + + @ # # $ $ $ $ $ $ $ $ $ Q.R.S.H.u.u.-+-+-+-+-+-+-+-+-+-+-+-+-+;+;+;+;+H.H.>+N.N.N.N.O.T.$ $ $ $ $ $ $ $ $ $ $ $ $ ",
"  . + + + + + @ # # $ $ $ $ $ $ $ $ $ Q.U.R.,+'+)+)+-+-+-+-+-+-+-+-+-+-+;+;+;+;+;+!+;+;+;+;+N.N.~+V.W.$ $ $ $ $ $ $ $ $ $ $ $ $ ",
"  . + + + + + @ # # $ $ $ $ $ $ $ $ $ Q.$.{+R.'+)+-+-+-+-+-+-+-+-+-+-+-+-+-+;+;+;+;+;+;+;+;+N.]+V.V.W.$ $ $ $ $ $ $ $ $ $ $ $ $ ",
"  . + + + + . @ # # $ $ $ $ $ $ $ $ $ ^+/+/+(+R._+:+O.E.<+[+<+J }+}+}+}+}+|.|.|.|.|.r.r.r.<+|+1+2+2+3+$ $ $ $ $ $ $ $ $ $ $ $ $ ",
"  . + + . . 4+@ # # $ $ $ $ $ $ $ $ $ %+5+6+7+8+9+0+0+0+0+a+b+a+b+b+a+b+c+d+e+f+g+h+h+h+h+h+i+j+k+l+m+2 2 A $ $ $ $ $ $ $ $ $ $ ",
"  . . . n+o+p+@ # # $ $ $ $ $ $ $ $ $ q+6+r+s+s+0+0+i+i+i+i+i+i+i+i+i+i+t+t+t+u+v+w+w+x+x+y+8+z+j+l+A+2 2 2 A $ $ $ $ $ $ $ $ $ ",
"  .+T T B+C+D+@ # # $ $ $ $ $ $ $ $ $ A+E+s+s+s+s+F+s+F+G+H+t+t+H+H+u+t+u+u+u+u+t+t+i+w+8+s+8+I+J+j+A+2 2 2 2 $ $ $ $ $ $ $ $ $ ",
"  . + + @ K+L @ # # $ $ $ $ $ $ $ $ $ A+L+F+J+M+N+F+F+s+O+w+i+i+i+i+i+i+t+t+t+t+t+t+t+i+P+Q+R+M+N+L+A+2 2 2 2 $ $ $ $ $ $ $ $ $ ",
"  . + + + @ L @ # # $ $ $ $ $ $ $ $ $ S+T+U+V+W+X+J+F+Y+Y+Z+`+`+ @.@+@+@+@+@+@@@#@@@$@P+%@P+&@M+*@=@A+2 2 2 2 $ $ $ $ $ $ $ $ $ ",
"  . + + + @ L @ # # $ $ $ $ $ $ $ $ $ S+-@;@U+V+M+J+>@,@'@)@!@)@~@{@{@{@{@{@]@^@{@~@/@(@_@:@M+<@[@}@A+2 2 2 $ $ $ $ $ $ $ $ $ $ ",
"  . + + + + @ @ # # $ $ $ $ $ $ $ $ $ S+|@1@1@2@[@@@3@4@5@!@5@)@5@6@6@6@6@]@]@]@7@{@8@8@9@0@X+a@a@b@A+2 2 $ $ $ $ $ $ $ $ $ $ $ ",
"  . + + + + + @ # # $ $ $ $ $ $ $ $ $ c@d@1@1@2@[@@@e@f@5@5@)@)@)@g@6@^@^@^@^@^@8@8@8@8@h@W+a@U+U+i@A+$ $ $ $ $ $ $ $ $ $ $ $ $ ",
"  . + + + + + @ # # $ $ $ $ $ $ $ $ $ c@}@1@1@8 a@@@j@f@)@5@5@5@5@6@6@^@6@6@k@k@l@l@l@l@m@a@a@n@n@o@S+$ $ $ $ $ $ $ $ $ $ $ $ $ ",
"  . + + + + + @ # # $ $ $ $ $ $ $ $ $ c@p@q@r@r@s@Y+t@u@f@v@w@f@w@x@x@~@~@y@k@k@k@l@l@z@A@B@C@C@D@E@S+$ $ $ $ $ $ $ $ $ $ $ $ $ ",
"  . + + + + + @ # # $ $ $ $ $ $ $ $ $ c@0+F@G@H@I@J@K@K@K@f@f@f@f@f@v@L@L@M@M@y@y@y@k@k@A@N@N@I@N@i@S+$ $ $ $ $ $ $ $ $ $ $ $ $ ",
"  . + + + + + @ # # $ $ $ $ $ $ $ $ $ c@O@G@P@G@Q@R@K@K@K@f@f@f@f@f@f@L@L@L@L@L@L@L@S@k@A@T@T@H@H@U@S+$ $ $ $ $ $ $ $ $ $ $ $ $ ",
"  . + + + + + @ # # $ $ $ $ $ $ $ $ $ V@W@X@Y@Y@Y@Z@K@`@K@ #f@f@f@f@f@L@L@L@L@L@L@L@.#+#@###G@H@$#%#c@$ $ $ $ $ $ $ $ $ $ $ $ $ ",
"  . + + + + + @ # # $ $ $ $ $ $ $ $ $ V@&#*#=#-#-#Z@;#>#K@,#'#)#f@f@L@L@L@!#`@`@`@`@`@`@~#{#Y@]#Y@U@c@$ $ $ $ $ $ $ $ $ $ $ $ $ ",
"  . + + + + + @ ^## $ $ $ $ $ $ $ $ $ V@/#1@]@(#_#+@:#<#[#}#|#|#.#.#L@L@1#2#`@`@`@`@`@`@3#4#4#5#]#6#c@$ $ $ $ $ $ $ $ $ $ $ $ $ ",
"  . + + + + + @ ^#^#$ $ $ $ $ $ $ $ $ V@/#7#8#9#0#a#b#<#<#[#t@t@|#|#|#c#d#K@`@`@e#e#e#f#g#4#h#h#i#j#c@$ $ $ $ $ $ $ $ $ $ $ $ $ ",
"  . + + + + + @ ^#^#X.$ $ $ $ $ $ $ $ k#l#m#8#n#n#o#p#b#Z@q#q#q#q#q#q#r#s#t#t#u#u#t#q#v#o#w#0#0#x#W@c@$ $ $ $ $ $ $ $ $ $ $ $ $ ",
"  . Y.y#z#z#y# +^#^#A#$ $ $ $ $ $ $ $ k#B#C#D#E#E#F#F#G#G#G#G#G#G#G#G#G#H#H#H#H#H#H#H#I#I#x#o#o#o#J#c@$ $ $ $ $ $ $ $ $ $ $ $ $ ",
"  .+T T T T  +e ^## $ $ $ $ $ $ $ $ $ k#B#C#D#D#D#F#F#F#F#F#F#K#D#D#D#D#L#M#M#M#E#E#I#I#I#o#o#o#o#J#c@$ $ $ $ $ $ $ $ $ $ $ $ $ ",
"@+. + + + + + #+N## $ $ $ $ $ $ $ $ $ $ O#D#D#D#D#F#F#F#F#F#F#F#F#F#F#F#P#Q#M#M#E#E#E#E#I#I#o#o#R#V@$ $ $ $ $ $ $ $ $ $ $ $ $ $ ",
"@+. + + + + + $+# # $ $ $ $ $ $ $ $ $ $ $ O#D#D#F#F#F#F#F#F#F#F#F#F#F#F#F#P#P#E#E#E#E#E#E#I#I#S#V@$ $ $ $ $ $ $ $ $ $ $ $ $ $ $ ",
"%+. + + + + + &+# # $ $ $ $ $ $ $ $ $ $ $ $ O#S#F#F#F#F#F#F#F#F#F#F#F#F#F#F#P#E#K#E#E#E#E#E#T#V@$ $ $ $ $ $ $ $ $ $ $ $ $ $ $ $ ",
"@ . + + + + + *+# # $ $ $ $ $ $ $ $ $ $ $ $ $ O#O#O#O#O#O#O#O#O#O#O#O#O#U#k#k#V@V@V@V@V@V@V@V@$ $ $ $ $ $ $ $ $ $ $ $ $ $ $ $ $ "};
