/* XPM */
static char * tiles5_xpm[] = {
"64 64 347 2",
"  	c #3B703E",
". 	c #386A3B",
"+ 	c #7AB219",
"@ 	c #81BB0B",
"# 	c #496819",
"$ 	c #5E9524",
"% 	c #477C38",
"& 	c #396F3E",
"* 	c #A2DB10",
"= 	c #A9E400",
"- 	c #AAE400",
"; 	c #5D7C17",
"> 	c #3A6E3D",
", 	c #3A703E",
"' 	c #7DB615",
") 	c #7AB10E",
"! 	c #3C6E3A",
"~ 	c #3F733D",
"{ 	c #4E6F18",
"] 	c #2C381B",
"^ 	c #487D37",
"/ 	c #3D723D",
"( 	c #3B703D",
"_ 	c #9FD714",
": 	c #A7E006",
"< 	c #A9E201",
"[ 	c #A9E300",
"} 	c #5D7E18",
"| 	c #335B32",
"1 	c #42753C",
"2 	c #43763D",
"3 	c #7CB516",
"4 	c #79B00F",
"5 	c #366337",
"6 	c #31552F",
"7 	c #325C34",
"8 	c #3A6F3E",
"9 	c #7FB90F",
"0 	c #9FD903",
"a 	c #A9E200",
"b 	c #41763C",
"c 	c #9CD417",
"d 	c #76AD1E",
"e 	c #3C713D",
"f 	c #253B26",
"g 	c #3B6F3E",
"h 	c #325C35",
"i 	c #A7E101",
"j 	c #A9E301",
"k 	c #80BA0B",
"l 	c #3E581A",
"m 	c #486619",
"n 	c #467430",
"o 	c #457A39",
"p 	c #75AD1B",
"q 	c #7DB610",
"r 	c #9ED806",
"s 	c #9FD80A",
"t 	c #9BD30E",
"u 	c #497E37",
"v 	c #90C71B",
"w 	c #9AD30E",
"x 	c #629923",
"y 	c #477B38",
"z 	c #467B39",
"A 	c #3C713E",
"B 	c #2C4C2D",
"C 	c #284128",
"D 	c #467A39",
"E 	c #385722",
"F 	c #36521E",
"G 	c #39571F",
"H 	c #467B38",
"I 	c #457939",
"J 	c #548836",
"K 	c #568A35",
"L 	c #A0DA02",
"M 	c #263E28",
"N 	c #263F28",
"O 	c #629721",
"P 	c #9AD20E",
"Q 	c #7DB31D",
"R 	c #3F743C",
"S 	c #3F733C",
"T 	c #3E733D",
"U 	c #7CB511",
"V 	c #5F9624",
"W 	c #92CA14",
"X 	c #78AF1E",
"Y 	c #42773B",
"Z 	c #43783A",
"` 	c #80BA0C",
" .	c #518122",
"..	c #77B016",
"+.	c #78B115",
"@.	c #558822",
"#.	c #79B214",
"$.	c #7FB80E",
"%.	c #7EB80F",
"&.	c #7EB80E",
"*.	c #7AB413",
"=.	c #75AE17",
"-.	c #7AB314",
";.	c #9ED70B",
">.	c #A8E201",
",.	c #7CB512",
"'.	c #7FB90E",
").	c #6DA321",
"!.	c #75AC1F",
"~.	c #A1DA08",
"{.	c #98CF1C",
"].	c #7AB11D",
"^.	c #76AC1F",
"/.	c #79B115",
"(.	c #A3DC06",
"_.	c #669835",
":.	c #3D723E",
"<.	c #A7E104",
"[.	c #80BA0D",
"}.	c #A0D912",
"|.	c #9ED615",
"1.	c #619337",
"2.	c #9ED715",
"3.	c #80B90D",
"4.	c #5B8D38",
"5.	c #9AD21A",
"6.	c #9ED710",
"7.	c #A4DD0B",
"8.	c #5A8C38",
"9.	c #436F3F",
"0.	c #456F3F",
"a.	c #3C703E",
"b.	c #95CC1E",
"c.	c #A2DB0D",
"d.	c #84BE0A",
"e.	c #81BC0A",
"f.	c #467B3B",
"g.	c #7A6449",
"h.	c #885F4C",
"i.	c #895F4C",
"j.	c #4C6E40",
"k.	c #40743D",
"l.	c #83BD0B",
"m.	c #629922",
"n.	c #82BC0B",
"o.	c #A8E200",
"p.	c #82BC0A",
"q.	c #477C3B",
"r.	c #3D703E",
"s.	c #3E703E",
"t.	c #7B6349",
"u.	c #4E6E40",
"v.	c #44753D",
"w.	c #A7E105",
"x.	c #A8E103",
"y.	c #649B22",
"z.	c #609724",
"A.	c #7BB513",
"B.	c #80BA0E",
"C.	c #81BA0E",
"D.	c #85BF0A",
"E.	c #76AE17",
"F.	c #A6DF01",
"G.	c #51843A",
"H.	c #7E634A",
"I.	c #875F4C",
"J.	c #86604B",
"K.	c #40733E",
"L.	c #3F743D",
"M.	c #A5DF07",
"N.	c #3E733E",
"O.	c #87C10A",
"P.	c #7FB90D",
"Q.	c #98CF1A",
"R.	c #99D01B",
"S.	c #99D11A",
"T.	c #5F7D3E",
"U.	c #546D41",
"V.	c #81624A",
"W.	c #A6775B",
"X.	c #A7785C",
"Y.	c #8B614D",
"Z.	c #556C42",
"`.	c #97CD1E",
" +	c #55873A",
".+	c #8DC60C",
"++	c #8AC409",
"@+	c #9ED704",
"#+	c #4C7F3B",
"$+	c #39703E",
"%+	c #82614B",
"&+	c #8A604D",
"*+	c #F1B183",
"=+	c #946852",
"-+	c #416F3F",
";+	c #396E3E",
">+	c #A0D813",
",+	c #A6E001",
"'+	c #7AB213",
")+	c #4D7F3B",
"!+	c #4A6E40",
"~+	c #406F3F",
"{+	c #986B54",
"]+	c #9E7057",
"^+	c #A5765B",
"/+	c #9C6F56",
"(+	c #8D634E",
"_+	c #506D41",
":+	c #4B6E40",
"<+	c #97CE1D",
"[+	c #9CD514",
"}+	c #7AB319",
"|+	c #79B219",
"1+	c #A0DA03",
"2+	c #80624A",
"3+	c #5A6B42",
"4+	c #486E40",
"5+	c #446F3F",
"6+	c #5F9523",
"7+	c #A8DF0A",
"8+	c #A7DE0E",
"9+	c #527E3C",
"0+	c #5E6B43",
"a+	c #D99E76",
"b+	c #AC7B5E",
"c+	c #926751",
"d+	c #4E6D40",
"e+	c #3D713D",
"f+	c #949A3F",
"g+	c #885E4C",
"h+	c #89604D",
"i+	c #936852",
"j+	c #875E4B",
"k+	c #A0D905",
"l+	c #A9E203",
"m+	c #8C624E",
"n+	c #8A614D",
"o+	c #40743C",
"p+	c #356136",
"q+	c #9BD318",
"r+	c #929341",
"s+	c #89654B",
"t+	c #88614C",
"u+	c #534735",
"v+	c #534836",
"w+	c #475D39",
"x+	c #536D41",
"y+	c #526C41",
"z+	c #98C229",
"A+	c #A3D021",
"B+	c #908944",
"C+	c #9F7258",
"D+	c #A27459",
"E+	c #89604C",
"F+	c #5C6B43",
"G+	c #516D41",
"H+	c #536E40",
"I+	c #515037",
"J+	c #515138",
"K+	c #755242",
"L+	c #606A43",
"M+	c #82614A",
"N+	c #EAAC7F",
"O+	c #906650",
"P+	c #F5BE84",
"Q+	c #F8C984",
"R+	c #84614B",
"S+	c #86604C",
"T+	c #476F3F",
"U+	c #666945",
"V+	c #986C54",
"W+	c #9A6D55",
"X+	c #9B6E55",
"Y+	c #84604B",
"Z+	c #9B6E56",
"`+	c #8F6550",
" @	c #906850",
".@	c #976B54",
"+@	c #956B52",
"@@	c #916850",
"#@	c #F3B984",
"$@	c #F8C884",
"%@	c #A17359",
"&@	c #906550",
"*@	c #E7AA7E",
"=@	c #A3745A",
"-@	c #875E4C",
";@	c #F1C081",
">@	c #997055",
",@	c #563F34",
"'@	c #F7C584",
")@	c #956C52",
"!@	c #8D634F",
"~@	c #8E644F",
"{@	c #765342",
"]@	c #E7A97D",
"^@	c #F0B183",
"/@	c #A4755A",
"(@	c #9A7155",
"_@	c #594135",
":@	c #8F644F",
"<@	c #CD966F",
"[@	c #EFAF82",
"}@	c #EFB082",
"|@	c #7E5C47",
"1@	c #5F4538",
"2@	c #DFA379",
"3@	c #AB7A5E",
"4@	c #DAAE74",
"5@	c #F6C783",
"6@	c #F7C684",
"7@	c #F7C484",
"8@	c #EFBF7F",
"9@	c #F2B683",
"0@	c #F3B683",
"a@	c #87634B",
"b@	c #CFA46F",
"c@	c #F4BD84",
"d@	c #AE855E",
"e@	c #A57C5A",
"f@	c #F7C784",
"g@	c #A9805C",
"h@	c #A57D5A",
"i@	c #A3755A",
"j@	c #865E4B",
"k@	c #F9CA85",
"l@	c #7E6246",
"m@	c #533D33",
"n@	c #A8795C",
"o@	c #F7C384",
"p@	c #F9C984",
"q@	c #937450",
"r@	c #775C43",
"s@	c #F9CA84",
"t@	c #8F674F",
"u@	c #8E664F",
"v@	c #F6C584",
"w@	c #A37A59",
"x@	c #B28961",
"y@	c #A37B59",
"z@	c #F6C384",
"A@	c #F2B383",
"B@	c #F3B883",
"C@	c #F2B483",
"D@	c #F6C484",
"E@	c #F2B583",
"F@	c #F1B283",
"        .   + @ #               $ $ %     & * = = - ;                                                           > , ' )         ",
"        ! ~ + @ { ] ] ]         $ $ ^ / / ( _ : < [ }                                                       | | 1 2 3 4 5 6     ",
"    7 8 9 @ @ @ 0 a a [ $ $ $ $ $ $ $ $ $ $ b   c [ d $ e           f   g       h     5 $ $ e             ~ @ @ i j $ $ @ k     ",
"l m n o p q q q r [ s t $ $ $ $ $ $ $ $ $ $ u o v w x $ y z A       B C D z z z E F F G $ $ H z A   I % J K @ @ 0 L $ $ @ @ M N ",
"O @ $ $ $ $ $ $ P [ Q $ R   $ $ $ $ $ $ $ $ $ $ $ $ $ $ $ $ S         e $ $ $ $ $ $ $ $ $ $ $ $ T   $ $ @ @ @ @ @ @ $ $ @ @     ",
"$ U V $ $ $ $ $ W s X $ o Y $ $ $ $ $ $ $ $ $ $ $ $ $ $ $ $ o Y Y Y Y Z $ $ $ $ $ $ $ $ $ $ $ $ o Y $ $ ` ` ` ` ` @ $ $ @ @ Y Y ",
" .$ ..@ @ @ $ $ $ $ $ $ $ $ $ $ $ $ +.@ @ @ @ @ $ $ $ $ $ $ $ $ $ $ $ $ $ $ $ $ $ $ $ $ $ $ $ $ $ $ $ $ $ $ $ $ $ $ $ $ @ @ $ $ ",
"@.$ ..@ @ @ $ $ $ $ $ $ $ $ $ $ $ $ #.@ $.%.%.&.$ $ $ $ $ $ $ $ $ $ $ $ $ $ $ $ $ $ $ $ $ $ $ $ $ $ $ $ $ $ $ $ $ $ $ $ @ @ $ $ ",
"@.$ ..@ $ $ $ $ $ $ $ $ $ $ $ $ *.@ @ @ $ $ $ $ $ $ $ $ $ $ $ $ $ $ $ $ $ $ $ $ $ $ $ $ $ $ $ $ $ $ $ $ $ $ $ $ $ $ $ $ $ $ $ $ ",
"@.$ =.@ $ $ $ $ $ $ $ $ $ $ $ $ -.` ` ` $ $ $ $ $ $ $ $ $ $ $ $ $ $ $ $ $ $ $ $ $ $ $ $ $ $ $ $ $ $ $ $ $ $ $ $ $ $ $ $ $ $ $ $ ",
"@.$ $ $ $ $ $ $ $ $ $ $ $ $ $ $ $ $ $ $ $ $ $ $ ;.>.>.>.>.[ $ $ $ $ $ $ $ $ $ $ $ $ ,.'.$ $ $ $ $ $ $ $ $ $ $ $ $ $ $ $ $ $ $ $ ",
"@.$ $ $ $ $ $ $ $ $ $ $ $ $ $ $ $ $ $ $ $ $ ).!.~.[ c {.< [ ].^.$ $ $ $ $ $ $ $ $ $ ../.$ $ $ $ $ $ $ $ $ $ $ $ $ $ $ $ $ $ $ $ ",
"@.$ $ $ $ $ $ $ $ $ $ $ $ $ $ $ $ $ $ $ $ $ (.[ [ [ _.:.<.[ [ [ $ $ $ $ $ $ [.@ @ @ $ $ $ $ $ $ $ $ $ $ $ $ $ $ $ $ $ $ $ $ $ $ ",
"@.$ $ $ $ $ $ $ $ $ $ $ $ $ $ $ $ $ $ $ $ $ (.[ }.|.1.:.c |.|.2.$ $ $ $ $ $ 3.@ @ @ $ $ $ $ $ $ $ $ $ $ $ $ $ $ $ $ $ $ $ $ $ $ ",
"@.$ $ $ $ $ $ $ q @ $ $ @ @ $ $ $ $ $ $ $ $ (.[ 4.&     & & & &   8 5.>.$ $ 3.@ @ @ $ $ $ $ $ $ $ $ $ $ $ $ $ $ $ $ $ $ $ $ $ $ ",
"@.$ $ $ $ $ $ $ %.@ $ $ @ @ $ $ $ $ $ $ $ $ 6.7.8.  9.0.0.0.0.0.a.8 b.c.$ $ [.@ '.'.$ $ $ $ $ $ $ $ $ $ $ $ $ $ $ $ $ $ $ $ $ $ ",
"@.$ $ $ $ $ ` @ @ @ @ @ @ @ @ @ @ @ 0 [ d.e.f.8     g.h.h.h.h.i.j.  8 k.< [ l.@ m.$ U @ @ n.o.[ d.@ @ @ @ ` $ $ $ $ $ $ $ $ $ $ ",
"@.$ $ $ $ $ ` @ @ @ @ @ @ @ @ @ @ @ 0 [ d.p.q.  r.s.t.h.h.h.h.h.u.s.s.v.w.x.d.n.y.z.A.B.B.C.<.x.D.n.@ @ @ ` $ $ $ $ $ $ $ $ $ $ ",
"@.$ E.@ @ @ @ @ @ @ @ @ F.o.o.o.o.o.[ [ o.[ G., H.I.h.h.h.h.h.h.I.I.I.J.K.L.M.o.>.o.4.:.:.:.~ N.7.[ O.@ @ ` $ $ $ $ $ $ $ $ $ $ ",
"@.$ ..@ P.%.@ @ @ @ @ @ Q.R.R.R.R.R.R.R.R.S.T.U.V.h.h.h.W.X.Y.h.h.h.h.I.Z.U.`.R.R.S. +        8 b.R..+++@ ` $ $ $ $ $ $ $ $ $ $ ",
"@.$ ..@ $ $ ` @ @ @ @+= #+, , , , , , , , $+%+h.h.h.h.&+*+*+=+h.h.h.h.h.h.h.-+, , ,               ;+>+,+@ ` $ $ $ $ $ $ @ @ @ @ ",
"$ $ '+@ $ $ ` @ @ @ 0 [ )+  !+j.j.j.~+    , %+h.h.h.{+]+*+*+^+/+/+/+(+h.h.h._+j.r.          :+j.a.8 <+[+}+|+$ $ $ $ $ $ @ @ @ @ ",
"O @ @ @ $ $ ` @ 1+[ [ [ )+, 2+h.h.h.3+    , %+h.h.h.*+*+*+*+*+*+*+*+W.h.h.h.h.i.4+        r.I.i.5+  8 & 8 A $ $ $ $ $ $ $ $ @ @ ",
"6+@ @ @ $ $ ` @ 1+[ 7+8+9+9.V.h.h.h.0+9.9.9.%+h.h.h.a+*+*+*+*+*+*+*+b+c+h.h.h.h.d+9.9.9.9.0.I.h.:+9.a.    e+$ $ $ $ $ $ $ $ @ @ ",
"@.$ $ $ $ $ ` @ 1+[ f+g+h.h.h.h.h.h.h.h.h.h.h.h.h.h.h.h+*+*+i+j+*+*+*+*+&+h.h.h.h.h.h.h.h.h.h.h.h.h.:+    e+$ $ $ $ R           ",
" .$ $ $ $ $ ` @ k+l+f+h.h.h.h.h.h.h.h.h.h.h.h.h.h.h.h.&+*+*+=+j+*+*+*+*+m+n+n+n+n+n+n+n+n+n+n+n+h.h.:+    e+$ $ $ $ o+          ",
"p+A A A A   q+o.r+s+t+h.h.h.h.h.h.h.h.h.h.h.h.h.h.h.h.h.m+m+h.j+*+*+*+*+*+*+*+*+*+*+*+*+*+*+*+*+c+h.:+    e+$ $ T A u+v+        ",
"w+x+0.  _+y+z+A+B+h.h.h.h.h.h.h.C+^+^+^+&+h.D+^+^+^+^+^+E+h.h.j+*+*+*+*+*+*+*+*+*+*+*+*+*+*+*+*+c+h.F+G+  e $ $ H+x+I+J+x+x+x+x+",
"K+h.L+, M+h.g+g+h.h.h.h.h.h.h.h.N+*+*+*+O+j+*+*+*+*+*+*+m+h.h.j+*+*+P+Q+Q+Q+Q+Q+Q+Q+*+*+*+*+*+*+c+h.h.R+,       S+h.T+!+i.h.h.h.",
"K+h.U+!+%+h.h.h.h.h.h.h.h.h.V+W+*+*+*+*+O+j+*+*+*+*+*+*+m+h.h.j+*+*+P+Q+Q+Q+Q+Q+Q+Q+*+*+*+*+*+*+D+X+Y.Y+!+!+!+:+S+h.x+Z.h.h.h.h.",
"K+h.h.h.h.h.h.h.h.h.h.h.h.j+*+*+*+*+*+*+O+j+*+*+*+*+*+*+m+h.h.j+*+*+P+Q+Q+Q+Q+Q+Q+Q+Q+Q+Q+Q+*+*+*+*+Z+h.h.h.h.h.h.h.h.h.h.h.h.h.",
"K+h.h.h.`+O+&+h.h.h.h.h. @ @*+*+*+*+*+*+.@`+*+*+*+*+*+*++@@@E+j+*+*+#@$@Q+Q+Q+Q+Q+Q+Q+Q+Q+Q+*+*+*+*+%@&@h.h.O+O+h.h.h.h+O+&@h.h.",
"K+h.h.j+*@*+=@h.h.h.h.-@;@Q+*+*+*+*+>@,@*+*+*+*+'@Q+Q+Q+Q+Q+)@j+*+*+*+*+Q+Q+Q+Q+Q+Q+Q+Q+Q+Q+Q+Q+*+*+*+*+-@!@*+*+~@h.h.W+*+*+h.h.",
"{@h+h+h.]@^@/@h+h.h.h+E+;@Q+*+*+*+*+(@_@*+*+*+*+'@Q+Q+Q+Q+Q+)@j+*+*+*+*+Q+Q+Q+Q+Q+Q+Q+Q+Q+Q+Q+Q+*+*+*+*+i.:@*+*+~@h.h+Z+*+*+h.h.",
"<@[@[@}@|@1@2@*+3@h.4@5@*+*+'@$@*+*+*+*+*+*+6@$@Q+Q+Q+Q+Q+Q+)@j+*+$@*+*+Q+Q+Q+Q+Q+Q+Q+Q+Q+Q+*+*+*+*+7@6@*+*+*+*+~@-@*+*+*+*+h.h.",
"8@9@9@0@(@a@*+*+b+h.b@*+*+*+c@'@*+*+*+*+*+*+6@Q+Q+Q+Q+Q+Q+Q+d@e@*+*+*+*+Q+Q+Q+Q+Q+Q+Q+Q+7@P+*+*+*+*+f@f@*+*+*+*+g@h@*+*+*+*+i@i@",
"Q+Q+Q+Q+*+*+*+*+b+h.g+j@*+*+*+*+*+*+*+*+*+*+6@Q+Q+Q+Q+Q+Q+Q+Q+k@l@m@^@*+Q+Q+Q+Q+Q+Q+Q+$@*+*+*+*+$@Q+Q+f@*+*+*+*+$@Q+*+*+*+*+*+*+",
"Q+Q+Q+Q+*+*+*+*+n@h.h.-@*+*+*+*+*+*+*+*+*+*+o@f@Q+Q+Q+Q+Q+Q+Q+p@q@r@*+*+Q+Q+Q+Q+Q+Q+Q+$@*+*+*+*+$@Q+f@7@*+*+*+*+6@f@*+*+*+*+*+*+",
"Q+Q+Q+Q+*+*+D+j+h.h.h.-@;@Q+Q+Q+Q+Q+*+*+*+*+*+*+'@Q+Q+Q+Q+Q+Q+Q+p@s@*+*+Q+Q+Q+Q+Q+Q+Q+$@*+*+Q+Q+Q+Q+*+*+*+*+Q+Q+*+*+f@6@*+*+Q+Q+",
"Q+Q+Q+Q+*+*+n@t@t@t@t@u@;@Q+Q+Q+Q+Q+*+*+*+*+*+*+'@Q+Q+Q+Q+Q+Q+Q+Q+Q+*+*+Q+Q+Q+Q+Q+Q+Q+$@*+*+Q+Q+Q+Q+*+*+*+*+Q+Q+*+*+f@6@*+*+Q+Q+",
"Q+Q+Q+Q+*+*+v@Q+Q+Q+Q+Q+Q+Q+Q+Q+Q+Q+Q+Q+*+*+*+*+'@Q+Q+Q+Q+Q+Q+Q+Q+Q+*+*+Q+Q+Q+Q+Q+Q+Q+Q+Q+Q+Q+Q+Q+Q+Q+Q+Q+Q+Q+Q+Q+Q+Q+Q+Q+Q+Q+Q+",
"Q+Q+Q+Q+*+*+'@Q+Q+Q+Q+Q+Q+Q+Q+Q+Q+Q+Q+Q+*+*+*+*+'@Q+Q+Q+Q+Q+Q+Q+Q+Q+*+*+Q+Q+Q+Q+Q+Q+Q+Q+Q+Q+Q+Q+Q+Q+Q+Q+Q+Q+Q+Q+Q+Q+Q+Q+Q+Q+Q+Q+",
"Q+Q+Q+Q+$@$@Q+Q+Q+Q+Q+Q+Q+Q+Q+Q+Q+Q+Q+Q+*+*+6@$@Q+Q+Q+Q+Q+Q+Q+p@w@u@*+$@Q+Q+Q+Q+Q+Q+Q+Q+Q+Q+Q+Q+Q+Q+Q+Q+Q+Q+Q+Q+Q+Q+Q+Q+Q+Q+Q+Q+",
"Q+Q+Q+Q+Q+Q+6@'@$@Q+Q+Q+Q+Q+Q+Q+Q+Q+Q+Q+*+*+f@Q+Q+Q+Q+Q+Q+Q+'@'@x@y@*+Q+Q+Q+Q+Q+Q+Q+Q+Q+Q+Q+Q+Q+Q+Q+Q+Q+Q+Q+Q+Q+Q+Q+Q+Q+Q+Q+Q+Q+",
"Q+Q+Q+Q+Q+Q+9@*+z@Q+Q+Q+Q+Q+Q+Q+Q+Q+Q+Q+Q+Q+Q+Q+Q+Q+Q+Q+Q+Q+A@*+6@Q+Q+Q+Q+Q+Q+Q+Q+Q+Q+Q+Q+Q+Q+Q+Q+Q+Q+Q+Q+Q+Q+Q+Q+Q+Q+Q+Q+Q+Q+Q+",
"Q+Q+Q+Q+Q+Q+B@C@D@Q+Q+Q+Q+Q+Q+Q+Q+Q+Q+Q+Q+Q+Q+Q+f@f@$@Q+Q+Q+E@A@6@Q+Q+Q+Q+Q+Q+Q+Q+Q+Q+Q+Q+Q+Q+Q+Q+Q+Q+Q+Q+Q+Q+Q+Q+Q+Q+Q+Q+Q+Q+Q+",
"Q+Q+Q+Q+Q+Q+Q+Q+Q+Q+Q+Q+Q+Q+Q+Q+Q+Q+Q+Q+Q+Q+Q+Q+E@*+z@Q+Q+Q+Q+Q+Q+Q+Q+Q+Q+Q+Q+Q+Q+Q+Q+Q+Q+Q+Q+Q+Q+Q+Q+Q+Q+Q+Q+Q+Q+Q+Q+Q+Q+Q+Q+Q+",
"Q+Q+Q+Q+Q+Q+Q+Q+Q+Q+Q+Q+Q+Q+Q+Q+Q+Q+Q+Q+Q+Q+Q+Q+9@F@D@Q+Q+Q+Q+Q+Q+Q+Q+Q+Q+Q+Q+Q+Q+Q+Q+Q+Q+Q+Q+Q+Q+Q+Q+Q+Q+Q+Q+Q+Q+Q+Q+Q+Q+Q+Q+Q+",
"Q+Q+Q+Q+Q+Q+Q+Q+Q+Q+Q+Q+Q+Q+Q+Q+Q+Q+Q+Q+Q+Q+Q+Q+Q+Q+Q+Q+Q+Q+Q+Q+Q+Q+Q+Q+Q+Q+Q+Q+Q+Q+Q+Q+Q+Q+Q+Q+Q+Q+Q+Q+Q+Q+Q+Q+Q+Q+Q+Q+Q+Q+Q+Q+",
"Q+Q+Q+Q+Q+Q+Q+Q+Q+Q+Q+Q+Q+Q+Q+Q+Q+Q+Q+Q+Q+Q+Q+Q+Q+Q+Q+Q+Q+Q+Q+Q+Q+Q+Q+Q+Q+Q+Q+Q+Q+Q+Q+Q+Q+Q+Q+Q+Q+Q+Q+Q+Q+Q+Q+Q+Q+Q+Q+Q+Q+Q+Q+Q+",
"Q+Q+Q+Q+Q+Q+Q+Q+Q+Q+Q+Q+Q+Q+Q+Q+Q+Q+Q+Q+Q+Q+Q+Q+Q+Q+Q+Q+Q+Q+Q+Q+Q+Q+Q+Q+Q+Q+Q+Q+Q+Q+Q+Q+Q+Q+Q+Q+Q+Q+Q+Q+Q+Q+Q+Q+Q+Q+Q+Q+Q+Q+Q+Q+",
"Q+Q+Q+Q+Q+Q+Q+Q+Q+Q+Q+Q+Q+Q+Q+Q+Q+Q+Q+Q+Q+Q+Q+Q+Q+Q+Q+Q+Q+Q+Q+Q+Q+Q+Q+Q+Q+Q+Q+Q+Q+Q+Q+Q+Q+Q+Q+Q+Q+Q+Q+Q+Q+Q+Q+Q+Q+Q+Q+Q+Q+Q+Q+Q+",
"Q+Q+Q+Q+Q+Q+Q+Q+Q+Q+Q+Q+Q+Q+Q+Q+Q+Q+Q+Q+Q+Q+Q+Q+Q+Q+Q+Q+Q+Q+Q+Q+Q+Q+Q+Q+Q+Q+Q+Q+Q+Q+Q+Q+Q+Q+Q+Q+Q+Q+Q+Q+Q+Q+Q+Q+Q+Q+Q+Q+Q+Q+Q+Q+",
"Q+Q+Q+Q+Q+Q+Q+Q+Q+Q+Q+Q+Q+Q+Q+Q+Q+Q+Q+Q+Q+Q+Q+Q+Q+Q+Q+Q+Q+Q+Q+Q+Q+Q+Q+Q+Q+Q+Q+Q+Q+Q+Q+Q+Q+Q+Q+Q+Q+Q+Q+Q+Q+Q+Q+Q+Q+Q+Q+Q+Q+Q+Q+Q+",
"Q+Q+Q+Q+Q+Q+Q+Q+Q+Q+Q+Q+Q+Q+Q+Q+Q+Q+Q+Q+Q+Q+Q+Q+Q+Q+Q+Q+Q+Q+Q+Q+Q+Q+Q+Q+Q+Q+Q+Q+Q+Q+Q+Q+Q+Q+Q+Q+Q+Q+Q+Q+Q+Q+Q+Q+Q+Q+Q+Q+Q+Q+Q+Q+",
"Q+Q+Q+Q+Q+Q+Q+Q+Q+Q+Q+Q+Q+Q+Q+Q+Q+Q+Q+Q+Q+Q+Q+Q+Q+Q+Q+Q+Q+Q+Q+Q+Q+Q+Q+Q+Q+Q+Q+Q+Q+Q+Q+Q+Q+Q+Q+Q+Q+Q+Q+Q+Q+Q+Q+Q+Q+Q+Q+Q+Q+Q+Q+Q+",
"Q+Q+Q+Q+Q+Q+Q+Q+Q+Q+Q+Q+Q+Q+Q+Q+Q+Q+Q+Q+Q+Q+Q+Q+Q+Q+Q+Q+Q+Q+Q+Q+Q+Q+Q+Q+Q+Q+Q+Q+Q+Q+Q+Q+Q+Q+Q+Q+Q+Q+Q+Q+Q+Q+Q+Q+Q+Q+Q+Q+Q+Q+Q+Q+",
"Q+Q+Q+Q+Q+Q+Q+Q+Q+Q+Q+Q+Q+Q+Q+Q+Q+Q+Q+Q+Q+Q+Q+Q+Q+Q+Q+Q+Q+Q+Q+Q+Q+Q+Q+Q+Q+Q+Q+Q+Q+Q+Q+Q+Q+Q+Q+Q+Q+Q+Q+Q+Q+Q+Q+Q+Q+Q+Q+Q+Q+Q+Q+Q+",
"Q+Q+Q+Q+Q+Q+Q+Q+Q+Q+Q+Q+Q+Q+Q+Q+Q+Q+Q+Q+Q+Q+Q+Q+Q+Q+Q+Q+Q+Q+Q+Q+Q+Q+Q+Q+Q+Q+Q+Q+Q+Q+Q+Q+Q+Q+Q+Q+Q+Q+Q+Q+Q+Q+Q+Q+Q+Q+Q+Q+Q+Q+Q+Q+",
"Q+Q+Q+Q+Q+Q+Q+Q+Q+Q+Q+Q+Q+Q+Q+Q+Q+Q+Q+Q+Q+Q+Q+Q+Q+Q+Q+Q+Q+Q+Q+Q+Q+Q+Q+Q+Q+Q+Q+Q+Q+Q+Q+Q+Q+Q+Q+Q+Q+Q+Q+Q+Q+Q+Q+Q+Q+Q+Q+Q+Q+Q+Q+Q+",
"Q+Q+Q+Q+Q+Q+Q+Q+Q+Q+Q+Q+Q+Q+Q+Q+Q+Q+Q+Q+Q+Q+Q+Q+Q+Q+Q+Q+Q+Q+Q+Q+Q+Q+Q+Q+Q+Q+Q+Q+Q+Q+Q+Q+Q+Q+Q+Q+Q+Q+Q+Q+Q+Q+Q+Q+Q+Q+Q+Q+Q+Q+Q+Q+",
"Q+Q+Q+Q+Q+Q+Q+Q+Q+Q+Q+Q+Q+Q+Q+Q+Q+Q+Q+Q+Q+Q+Q+Q+Q+Q+Q+Q+Q+Q+Q+Q+Q+Q+Q+Q+Q+Q+Q+Q+Q+Q+Q+Q+Q+Q+Q+Q+Q+Q+Q+Q+Q+Q+Q+Q+Q+Q+Q+Q+Q+Q+Q+Q+",
"Q+Q+Q+Q+Q+Q+Q+Q+Q+Q+Q+Q+Q+Q+Q+Q+Q+Q+Q+Q+Q+Q+Q+Q+Q+Q+Q+Q+Q+Q+Q+Q+Q+Q+Q+Q+Q+Q+Q+Q+Q+Q+Q+Q+Q+Q+Q+Q+Q+Q+Q+Q+Q+Q+Q+Q+Q+Q+Q+Q+Q+Q+Q+Q+",
"Q+Q+Q+Q+Q+Q+Q+Q+Q+Q+Q+Q+Q+Q+Q+Q+Q+Q+Q+Q+Q+Q+Q+Q+Q+Q+Q+Q+Q+Q+Q+Q+Q+Q+Q+Q+Q+Q+Q+Q+Q+Q+Q+Q+Q+Q+Q+Q+Q+Q+Q+Q+Q+Q+Q+Q+Q+Q+Q+Q+Q+Q+Q+Q+"};
