/* XPM */
static char * tiles15_xpm[] = {
"64 64 636 2",
"  	c #74C857",
". 	c #75C857",
"+ 	c #66AD6D",
"@ 	c #709D6F",
"# 	c #9C6F53",
"$ 	c #A4664D",
"% 	c #A4674D",
"& 	c #A2664D",
"* 	c #A0654D",
"= 	c #9C5F48",
"- 	c #82805B",
"; 	c #57AB78",
"> 	c #80B47D",
", 	c #CEC081",
"' 	c #F6C984",
") 	c #F8C984",
"! 	c #769365",
"~ 	c #967656",
"{ 	c #A76B4E",
"] 	c #B16D4C",
"^ 	c #B36D4B",
"/ 	c #B26C4B",
"( 	c #AA694C",
"_ 	c #9D6149",
": 	c #8A7856",
"< 	c #65A170",
"[ 	c #4FAF7B",
"} 	c #70B27C",
"| 	c #B1BB7F",
"1 	c #E1C482",
"2 	c #F4C884",
"3 	c #F7C984",
"4 	c #62AB72",
"5 	c #819267",
"6 	c #988960",
"7 	c #B57550",
"8 	c #BA714C",
"9 	c #B66F4C",
"0 	c #B56E4B",
"a 	c #B16C4C",
"b 	c #A6684D",
"c 	c #9F644C",
"d 	c #98664C",
"e 	c #7B865F",
"f 	c #50AE7B",
"g 	c #5BB07B",
"h 	c #91B67D",
"i 	c #C6BE80",
"j 	c #E5C582",
"k 	c #67A972",
"l 	c #978860",
"m 	c #BF7C53",
"n 	c #C57B52",
"o 	c #C27951",
"p 	c #BA724D",
"q 	c #B46D4B",
"r 	c #AC6A4C",
"s 	c #A3664D",
"t 	c #9E634B",
"u 	c #8E7354",
"v 	c #6B996C",
"w 	c #51AF7B",
"x 	c #6CB17C",
"y 	c #A3B87E",
"z 	c #D3C181",
"A 	c #F2C883",
"B 	c #5DB671",
"C 	c #64A773",
"D 	c #A17B58",
"E 	c #C57D53",
"F 	c #CA8054",
"G 	c #C97F54",
"H 	c #C47B51",
"I 	c #AB6A4C",
"J 	c #A2654C",
"K 	c #976A4E",
"L 	c #788962",
"M 	c #5AB07B",
"N 	c #8CB57D",
"O 	c #C7BF80",
"P 	c #EEC783",
"Q 	c #61B36F",
"R 	c #7A8F63",
"S 	c #A17956",
"T 	c #C47D54",
"U 	c #C97F53",
"V 	c #BD754E",
"W 	c #AE6B4C",
"X 	c #A3654C",
"Y 	c #98684D",
"Z 	c #7A8660",
"` 	c #54AF7B",
" .	c #7DB37C",
"..	c #B3BB7F",
"+.	c #D5C181",
"@.	c #6D9F6B",
"#.	c #908B62",
"$.	c #BE7D54",
"%.	c #C67D52",
"&.	c #BB734E",
"*.	c #98674D",
"=.	c #52AF7B",
"-.	c #6AB17C",
";.	c #76A06E",
">.	c #A5885F",
",.	c #C37F54",
"'.	c #C77D52",
").	c #BE754F",
"!.	c #AE6B4B",
"~.	c #A6674D",
"{.	c #9F634B",
"].	c #916F52",
"^.	c #6F9569",
"/.	c #50AF7B",
"(.	c #57B07B",
"_.	c #63B17C",
":.	c #6DB17C",
"<.	c #729F67",
"[.	c #967E5A",
"}.	c #B97550",
"|.	c #BE764F",
"1.	c #BA734D",
"2.	c #B66F4B",
"3.	c #B26D4B",
"4.	c #A9684C",
"5.	c #936F52",
"6.	c #779066",
"7.	c #59A876",
"8.	c #69B17C",
"9.	c #74B27C",
"0.	c #5FB370",
"a.	c #749567",
"b.	c #9B7153",
"c.	c #AD6D4D",
"d.	c #AF6C4D",
"e.	c #AD6B4C",
"f.	c #A5674D",
"g.	c #847E5A",
"h.	c #4EAF7B",
"i.	c #55AF7B",
"j.	c #6FB27C",
"k.	c #94B67D",
"l.	c #AEBA7F",
"m.	c #63A972",
"n.	c #888862",
"o.	c #9E6B50",
"p.	c #A1654D",
"q.	c #81815C",
"r.	c #53AC79",
"s.	c #84B47D",
"t.	c #BCBC80",
"u.	c #E0C482",
"v.	c #6EA26A",
"w.	c #838D65",
"x.	c #A16C50",
"y.	c #AA6A4C",
"z.	c #9D6049",
"A.	c #857D5A",
"B.	c #5BA776",
"C.	c #89B57D",
"D.	c #C4BE80",
"E.	c #EBC683",
"F.	c #6F9B6B",
"G.	c #947B59",
"H.	c #A57654",
"I.	c #B4704D",
"J.	c #B46E4B",
"K.	c #9E624B",
"L.	c #719369",
"M.	c #58B07B",
"N.	c #B0BA7F",
"O.	c #D2C181",
"P.	c #60B671",
"Q.	c #6EA270",
"R.	c #8E9266",
"S.	c #B87A52",
"T.	c #BE754E",
"U.	c #B26D4C",
"V.	c #A8684C",
"W.	c #9B634B",
"X.	c #837E5A",
"Y.	c #58A977",
"Z.	c #5CB07B",
"`.	c #77B27C",
" +	c #93B67D",
".+	c #A5B97E",
"++	c #66AA71",
"@+	c #9F7E59",
"#+	c #C37D53",
"$+	c #C77E53",
"%+	c #AF6C4B",
"&+	c #A6684C",
"*+	c #A0644C",
"=+	c #956C50",
"-+	c #758D64",
";+	c #79B37C",
">+	c #B6BB7F",
",+	c #5AB274",
"'+	c #6D9E6E",
")+	c #A47755",
"!+	c #C87E53",
"~+	c #BC744E",
"{+	c #98684E",
"]+	c #7A8760",
"^+	c #53AF7B",
"/+	c #8AB57D",
"(+	c #C3BE80",
"_+	c #D8C281",
":+	c #DEC382",
"<+	c #7A9162",
"[+	c #98835D",
"}+	c #C07D54",
"|+	c #CA7F54",
"1+	c #C87F53",
"2+	c #AF6B4C",
"3+	c #80B47C",
"4+	c #DFC382",
"5+	c #F1C783",
"6+	c #64A873",
"7+	c #938B63",
"8+	c #C98054",
"9+	c #C37A51",
"0+	c #B9714D",
"a+	c #A1654C",
"b+	c #7A8860",
"c+	c #67B17C",
"d+	c #9DB77E",
"e+	c #D1C081",
"f+	c #F2C783",
"g+	c #8B8E63",
"h+	c #B77F57",
"i+	c #C77E54",
"j+	c #B36E4B",
"k+	c #9C644C",
"l+	c #887B58",
"m+	c #62A272",
"n+	c #5DB07B",
"o+	c #90B67D",
"p+	c #CBBF81",
"q+	c #F0C783",
"r+	c #61B26E",
"s+	c #7A9061",
"t+	c #9C7152",
"u+	c #B6714E",
"v+	c #BA734E",
"w+	c #B7714D",
"x+	c #B56F4C",
"y+	c #B16C4B",
"z+	c #A7684D",
"A+	c #8A7957",
"B+	c #65A071",
"C+	c #52AD7A",
"D+	c #7CB37C",
"E+	c #ADBA7F",
"F+	c #5FB66F",
"G+	c #699F70",
"H+	c #997255",
"I+	c #A5684D",
"J+	c #A6674C",
"K+	c #A5674C",
"L+	c #A1644B",
"M+	c #98644B",
"N+	c #7D8760",
"O+	c #54AC79",
"P+	c #65B17C",
"Q+	c #A4B87E",
"R+	c #F6C884",
"S+	c #5DB771",
"T+	c #6DA071",
"U+	c #987355",
"V+	c #9F664E",
"W+	c #9D634B",
"X+	c #9C614A",
"Y+	c #9B5E48",
"Z+	c #95634A",
"`+	c #64A172",
" @	c #50AE7A",
".@	c #B5BB7F",
"+@	c #E4C482",
"@@	c #F5C884",
"#@	c #7C9868",
"$@	c #8D815E",
"%@	c #9D6A50",
"&@	c #9B6149",
"*@	c #975D46",
"=@	c #945D45",
"-@	c #887655",
";@	c #778C63",
">@	c #63A070",
",@	c #7AB27C",
"'@	c #B7BA7F",
")@	c #E6C383",
"!@	c #6CA86F",
"~@	c #8F8B5E",
"{@	c #A37554",
"]@	c #A86C4E",
"^@	c #975E46",
"/@	c #925A43",
"(@	c #817C58",
"_@	c #679C6D",
":@	c #52AE7A",
"<@	c #78B07C",
"[@	c #B3B47F",
"}@	c #E4BE82",
"|@	c #6BB068",
"1@	c #8E8B61",
"2@	c #B77652",
"3@	c #BD754F",
"4@	c #9C624A",
"5@	c #709469",
"6@	c #51AE7A",
"7@	c #6EAF7C",
"8@	c #A1B07E",
"9@	c #D1B981",
"0@	c #ECC583",
"a@	c #67A56E",
"b@	c #9C825A",
"c@	c #C67C52",
"d@	c #C07750",
"e@	c #B46E4C",
"f@	c #A9694C",
"g@	c #93674C",
"h@	c #6B9A6D",
"i@	c #5EAF7B",
"j@	c #81B07C",
"k@	c #B0B67F",
"l@	c #DAC282",
"m@	c #F3C884",
"n@	c #7DA16E",
"o@	c #A48A5F",
"p@	c #C57C52",
"q@	c #B76F4C",
"r@	c #9F6149",
"s@	c #84805C",
"t@	c #60A373",
"u@	c #64B07B",
"v@	c #93B47D",
"w@	c #CCBF81",
"x@	c #839968",
"y@	c #AC875D",
"z@	c #C17A52",
"A@	c #BF7750",
"B@	c #B9734E",
"C@	c #B06C4C",
"D@	c #A6664C",
"E@	c #95694D",
"F@	c #6C996C",
"G@	c #83B47D",
"H@	c #64A471",
"I@	c #908D63",
"J@	c #B97A52",
"K@	c #C17850",
"L@	c #B8714E",
"M@	c #B5704E",
"N@	c #A7674C",
"O@	c #A1654B",
"P@	c #976A4F",
"Q@	c #7B8B63",
"R@	c #5CA675",
"S@	c #A1B87E",
"T@	c #BEBD80",
"U@	c #71A465",
"V@	c #8D7E5B",
"W@	c #A76E4E",
"X@	c #B16E4D",
"Y@	c #A1664C",
"Z@	c #9A684E",
"`@	c #897454",
" #	c #7A8A62",
".#	c #6BAC69",
"+#	c #729B6B",
"@#	c #8B7C58",
"##	c #9C624B",
"$#	c #A1664D",
"%#	c #9E644B",
"&#	c #97694E",
"*#	c #82805C",
"=#	c #52AC7A",
"-#	c #73B27C",
";#	c #9EB77E",
">#	c #BABC7F",
",#	c #63B66E",
"'#	c #838A5E",
")#	c #9A6B50",
"!#	c #A0674D",
"~#	c #96644B",
"{#	c #7E815C",
"]#	c #5BA775",
"^#	c #7AB37C",
"/#	c #A9B97E",
"(#	c #C9BF80",
"_#	c #6EAF65",
":#	c #7C9562",
"<#	c #957856",
"[#	c #A86B4D",
"}#	c #AD6A4C",
"|#	c #AC6B4C",
"1#	c #9F624B",
"2#	c #936B4F",
"3#	c #52AD79",
"4#	c #62B16E",
"5#	c #829062",
"6#	c #A17853",
"7#	c #B0704D",
"8#	c #9B664D",
"9#	c #857C59",
"0#	c #5FB07B",
"a#	c #64AD70",
"b#	c #74A16F",
"c#	c #A5845B",
"d#	c #9E634C",
"e#	c #916B4F",
"f#	c #64A071",
"g#	c #7FB37C",
"h#	c #5EB970",
"i#	c #819665",
"j#	c #B48057",
"k#	c #C27950",
"l#	c #B9724D",
"m#	c #A2654D",
"n#	c #9B654C",
"o#	c #857A57",
"p#	c #58A976",
"q#	c #78B37C",
"r#	c #A0B87E",
"s#	c #66AB6D",
"t#	c #8F845B",
"u#	c #BB7B52",
"v#	c #C98154",
"w#	c #B66E4B",
"x#	c #8D6B4D",
"y#	c #6BAD68",
"z#	c #7C9766",
"A#	c #AD8459",
"B#	c #C67E52",
"C#	c #CB8054",
"D#	c #9F654C",
"E#	c #8D6B4E",
"F#	c #97B77E",
"G#	c #C5BE80",
"H#	c #63B56D",
"I#	c #7B9A68",
"J#	c #AF8359",
"K#	c #C77F53",
"L#	c #C77D53",
"M#	c #AF6C4C",
"N#	c #9E654C",
"O#	c #8D6C4E",
"P#	c #6BB17C",
"Q#	c #9AB77E",
"R#	c #C8BF80",
"S#	c #E6C583",
"T#	c #73A769",
"U#	c #9E8B5D",
"V#	c #BE8154",
"W#	c #C67F52",
"X#	c #C27A51",
"Y#	c #768F65",
"Z#	c #55AB79",
"`#	c #62B07B",
" $	c #B7BC7F",
".$	c #DDC382",
"+$	c #6BB367",
"@$	c #878F5A",
"#$	c #AB7D51",
"$$	c #BA794F",
"%$	c #B9764F",
"&$	c #B5704D",
"*$	c #97674D",
"=$	c #7B8A62",
"-$	c #57AA77",
";$	c #8FB57D",
">$	c #E0C382",
",$	c #67B16A",
"'$	c #7C9560",
")$	c #987951",
"!$	c #A56D4B",
"~$	c #A76A4C",
"{$	c #A86A4C",
"]$	c #A8694C",
"^$	c #90664B",
"/$	c #6E9469",
"($	c #53AD79",
"_$	c #DCC382",
":$	c #68B368",
"<$	c #7D945E",
"[$	c #8E8059",
"}$	c #9A7052",
"|$	c #A0654C",
"1$	c #9F654D",
"2$	c #9D624B",
"3$	c #966249",
"4$	c #887857",
"5$	c #699C6E",
"6$	c #4EB07C",
"7$	c #6CA96C",
"8$	c #888E5F",
"9$	c #9D6E51",
"0$	c #8C7555",
"a$	c #5FA473",
"b$	c #B9BC7F",
"c$	c #E7C583",
"d$	c #6EB069",
"e$	c #869066",
"f$	c #A57955",
"g$	c #B5724E",
"h$	c #A7694D",
"i$	c #94674C",
"j$	c #867D59",
"k$	c #65A070",
"l$	c #E2C482",
"m$	c #5BAD74",
"n$	c #879568",
"o$	c #B67F56",
"p$	c #B6704D",
"q$	c #AC6B4D",
"r$	c #9E654B",
"s$	c #857F5B",
"t$	c #9BB77E",
"u$	c #829E66",
"v$	c #A38E61",
"w$	c #BB7E55",
"x$	c #9A6148",
"y$	c #759167",
"z$	c #56AA78",
"A$	c #61B07B",
"B$	c #88B47D",
"C$	c #69A772",
"D$	c #9A8C62",
"E$	c #C47B52",
"F$	c #B7704C",
"G$	c #A0634B",
"H$	c #8A7655",
"I$	c #659F70",
"J$	c #66B17C",
"K$	c #92B67D",
"L$	c #BFBD80",
"M$	c #6CA46B",
"N$	c #9E7E58",
"O$	c #956148",
"P$	c #6D986B",
"Q$	c #D7C281",
"R$	c #7F9869",
"S$	c #AA7652",
"T$	c #B6724D",
"U$	c #9A6048",
"V$	c #935C44",
"W$	c #729066",
"X$	c #55AB78",
"Y$	c #87B47D",
"Z$	c #A6B97E",
"`$	c #66B06F",
" %	c #809B66",
".%	c #967D5A",
"+%	c #9F6E51",
"@%	c #A3674D",
"#%	c #985E46",
"$%	c #935A43",
"%%	c #8A6A4D",
"&%	c #748F66",
"*%	c #6BA86F",
"=%	c #818E66",
"-%	c #9C6C52",
";%	c #975F47",
">%	c #92684C",
",%	c #857856",
"'%	c #6D966A",
")%	c #64AC71",
"!%	c #809167",
"~%	c #9C6C51",
"{%	c #9E614A",
"]%	c #9A624A",
"^%	c #70966A",
"/%	c #759865",
"(%	c #8B825E",
"_%	c #A16A4F",
":%	c #9A6149",
"<%	c #80845E",
"[%	c #84B47C",
"}%	c #6E9C6C",
"|%	c #947A59",
"1%	c #A77352",
"2%	c #B46F4C",
"3%	c #926F52",
"4%	c #61B570",
"5%	c #769D6C",
"6%	c #978B61",
"7%	c #B97851",
"8%	c #847D5A",
"9%	c #5AB07C",
"0%	c #5CAE76",
"a%	c #958961",
"b%	c #C17E54",
"c%	c #917153",
"d%	c #60B570",
"e%	c #739A6A",
"f%	c #A77252",
"g%	c #6AB27D",
"h%	c #799163",
"i%	c #99825C",
"j%	c #C17D54",
"k%	c #7DB47E",
"l%	c #65AA72",
"m%	c #8C9467",
"n%	c #BD7E55",
"o%	c #65AF6E",
"p%	c #809569",
"q%	c #B17954",
"r%	c #C67D53",
"s%	c #A3664C",
"t%	c #9B674D",
"u%	c #8B7958",
"v%	c #6A9A6C",
"w%	c #759B66",
"x%	c #9E7152",
"y%	c #B9744F",
"z%	c #B8724D",
"A%	c #B06B4C",
"B%	c #9D624A",
"C%	c #8D7454",
"D%	c #6A9B6D",
"E%	c #50AF7A",
"F%	c #98B77E",
"G%	c #C7BE80",
"H%	c #60B76F",
"I%	c #6B9F6E",
"J%	c #957958",
"K%	c #A56A4E",
"L%	c #A7684C",
"M%	c #76B27C",
"N%	c #B2BB7F",
"O%	c #5EB373",
"P%	c #6F9F6F",
"Q%	c #9B7053",
"R%	c #84815C",
"S%	c #AAB67C",
"                              .                                                           + @ # $ % % % & * = - ; > , ' ) ) ) ) ",
"                                                                                          ! ~ { ] ^ ^ / ( & _ : < [ } | 1 2 3 ) ",
"                                                                                          4 5 6 7 8 9 0 a b c d e f g h i j 2 ) ",
"                                                                                            k l m n o p q r s t u v w x y z A ) ",
"                                                                                          B C D E F G H p ^ I J K L [ M N O P ) ",
"                                                                                          Q R S T F F U V 0 W X Y Z [ `  ...+.) ",
"                                                                                            @.#.$.U F %.&.q r J *.e [ =.-.N y ) ",
"                                                                                            ;.>.,.'.H ).9 !.~.{.].^.[ /.(._.:.) ",
"                                                                                          <.[.}.o |.1.2.3.4.{.5.6.7.[ /.M 8.9.) ",
"                                                                                        0.a.b.c.d.W e.e.I f.= g.7.h.[ i.j.k.l.) ",
"                                                                                          m.n.o.& & & & p.* = q.r.[ [ M s.t.u.) ",
"                                                                                          v.w.x.( y.I ( f.p.z.A.B.[ [ g C.D.E.) ",
"                                                                                          F.G.H.I.9 0 J.W % K.].L.[ [ M. .N.O.) ",
"                                                                                          P.Q.R.S.T.p 9 U.V.* W.X.Y./.Z.`. +.+) ",
"                                                                                            ++@+#+U $+|.9 %+&+*+=+-+=.;+.+..>+) ",
"                                                                                          ,+'+)+E F F !+~+0 W X {+]+^+/+(+_+:+) ",
"                                                                                            <+[+}+|+F 1+V 0 2+X Y Z =.3+t.4+5+) ",
"                                                                                            6+7+}+U 8+9+0+3.( a+{+b+/.c+d+e+f+) ",
"                                                                                            g+h+i+9+|.0+j+y.& k+l+m+[ n+o+p+q+) ",
"                                                                                        r+s+t+u+v+w+x+q y+z+z.A+B+C+i.D+E+_+A ) ",
"                                                                                        F+G+H+I+b &+J+J+K+L+M+N+O+[ P+Q+z E.R+) ",
"                                                                                        S+T+U+V+* * W+X+Y+Z+q.`+ @w 9..@+@@@) ) ",
"                                                                                        #@$@%@* t &@*@=@-@;@>@ @[ =.,@'@)@3 ) ) ",
"                                                                                    !@~@{@]@V.p.t ^@/@(@_@Y.:@h.[ =.<@[@}@R+) ) ",
"                                                                                  |@1@2@|.3@x+( a+4@=@5@6@h.[ [ [ w 7@8@9@0@R+) ",
"                                                                                  a@b@c@F G d@e@f@* g@h@[ [ [ [ [ w i@j@k@l@m@) ",
"                                                                                  n@o@c@F !+p@q@r r@s@t@[ [ [ [ [ [ =.u@v@w@q+) ",
"                                                                                x@y@z@'.c@A@B@C@D@E@F@C+[ [ [ [ [ [ [ M.G@t.1 ) ",
"                                                                              H@I@J@K@L@M@a N@O@P@Q@R@f [ [ [ [ [ [ [ i.9.S@T@) ",
"                                                                            U@V@W@X@] ( & Y@Z@`@ #R@[ [ [ [ [ [ [ [ [ ` 8.N y ) ",
"                                                                        .#+#@###$#p.p.* %#&#*#R@=#f [ [ [ [ [ [ [ [ [ i.-#;#>#) ",
"                                                                      ,#'#)#!#p.$#p.* {.~#{#]# @[ [ [ [ [ [ [ [ [ [ [ (.^#/#(#) ",
"                                                                    _#:#<#[#}#|#e.f@p.1#2#v 3#[ [ [ [ [ [ [ [ [ [ [ [ =.P+> k.) ",
"                                                                    4#5#6#7#0 J.J.3.( *+8#9#B.f [ [ [ [ [ [ [ [ [ [ [ w i.0#c+) ",
"                                                                      a#b#c#|.~+9 J.W & d#e#f#6@[ [ [ [ [ [ [ [ [ [ [ w n+j.g#) ",
"                                                                      h#i#j#1+$+k#l#^ I m#n#o#p#[ [ [ [ [ [ [ [ [ [ [ M.q#r#t.) ",
"                                                                      s#t#u#v#F G K@w#y+V.c x#]#[ [ [ [ [ [ [ [ [ w g ^#Q+w@j ) ",
"                                                                      y#z#A#B#F C#9+9 ^ ( D#E#B.[ [ [ [ [ [ [ [ [ w 8.F#G#j 2 ) ",
"                                                                      H#I#J#K#F L#3@0 M#f.N#O#B.[ [ [ [ [ [ [ [ [ w P#Q#R#S#@@) ",
"                                                                      T#U#V#W#X#~+q@y+b D#=+Y#Z#[ [ [ [ [ [ [ [ [ [ `#/+ $.$m@) ",
"                                                                    +$@$#$$$%$&$/ / r {.*$=$-$[ [ [ [ [ [ [ [ [ [ w P+;$t.>$2 ) ",
"                                                                    ,$'$)$!$~${$]$V.K+_ ^$/$($[ [ [ [ [ [ [ [ [ [ w 9.l._$5+3 ) ",
"                                                                      :$<$[$}$|$* 1$1$2$3$4$5$6@6$[ [ [ [ [ [ [ [ =.^# $j ' ) ) ",
"                                                                          7$8$9$% b ~.s c k+0$F@a$3#[ [ [ [ [ [ [ =.^#b$c$3 ) ) ",
"                                                                            d$e$f$g$w+M#h$b D#i$j$k$($[ [ [ [ [ [ w q#..l$2 ) ) ",
"                                                                              m$n$o$9+V ~+p$q$&+r$s$m+ @[ [ [ [ [ w P#t$(#S#@@) ",
"                                                                                u$v$w$U U X#|.e@]$x$y$z$[ [ [ [ [ w A$B$>+.$2 ) ",
"                                                                                  C$D$E$F G %.F$e.G$H$I$[ [ [ [ [ w J$K$L$u.5+) ",
"                                                                                  M$N$E U L#~+U.f.|$O$P$/.[ [ [ [ w x t$D.Q$.$) ",
"                                                                                    R$S$T$p$] I+* U$V$W$X$[ [ [ [ w _.Y$Z$..>+) ",
"                                                                                    `$ %.%+%@%* W+#%$%%%&%a$X$[ [ [ =.0#q# +.+) ",
"                                                                                        *%=%-%* c t U$;%>%,%'%r.[ [ [ M. .N.O.) ",
"                                                                                          )%!%~%* * c t {%]%0$^%:@[ [ g C.D.E.) ",
"                                                                                          /%(%_%I }#}#r K+*+:%<%X$[ [ M [%t.u.) ",
"                                                                                          }%|%1%2%w#0 q W % K.3%5@[ [ i.j.k.l.) ",
"                                                                                          4%5%6%7%T.p 2.3.V.* 4@8%7.[ /.9%8.9.) ",
"                                                                                            0%a%b%'.H ).9 !.~.c c%^.[ /.(._.:.) ",
"                                                                                          d%e%f%L#C#F %.&.q r J *.e [ =.g%N y ) ",
"                                                                                            h%i%j%|+F U V 0 W X Y Z [ ` k%..+.) ",
"                                                                                            l%m%n%!+G H p ^ I J &#L [ M N O P ) ",
"                                                                                          o%p%q%r%p@o p q r s%t%u%v%=.j.y z A ) ",
"                                                                                          w%x%y%3@z%e@^ A%b B%C%D%E%P+F%G%j 2 ) ",
"                                                                                        H%I%J%K%L%L%L%L%~.& = - ; /.M%N%1 2 3 ) ",
"                                                                                          O%P%Q%* * * * * * = R%S%' ) ) ) ) ) ) "};
