/* XPM */
static char * tiles2_xpm[] = {
"64 64 108 2",
"  	c None",
". 	c #5A3B27",
"+ 	c #665444",
"@ 	c #868579",
"# 	c #88877B",
"$ 	c #563621",
"% 	c #8B8A7F",
"& 	c #5A3C28",
"* 	c #583824",
"= 	c #5C402D",
"- 	c #918F88",
"; 	c #929088",
"> 	c #94928B",
", 	c #99978F",
"' 	c #6D685F",
") 	c #6D695F",
"! 	c #5B4231",
"~ 	c #6C685E",
"{ 	c #6C675E",
"] 	c #5A412E",
"^ 	c #5B4330",
"/ 	c #6B675D",
"( 	c #6C665E",
"_ 	c #6B665D",
": 	c #5A4230",
"< 	c #5B3C29",
"[ 	c #6B655D",
"} 	c #6A655C",
"| 	c #5A422F",
"1 	c #8E8C83",
"2 	c #8F8D84",
"3 	c #8F8D85",
"4 	c #8F8E85",
"5 	c #6A665C",
"6 	c #573A27",
"7 	c #4F2913",
"8 	c #655444",
"9 	c #593D2A",
"0 	c #6A645C",
"a 	c #69645B",
"b 	c #53321E",
"c 	c #553723",
"d 	c #69635B",
"e 	c #553622",
"f 	c #68635A",
"g 	c #553621",
"h 	c #676259",
"i 	c #68625A",
"j 	c #53311C",
"k 	c #676159",
"l 	c #5C5247",
"m 	c #5D5348",
"n 	c #4F311E",
"o 	c #5C5147",
"p 	c #5D5248",
"q 	c #503D30",
"r 	c #4F3625",
"s 	c #5D5449",
"t 	c #584132",
"u 	c #655F57",
"v 	c #8E8D84",
"w 	c #584031",
"x 	c #5E5146",
"y 	c #5F5349",
"z 	c #594335",
"A 	c #594233",
"B 	c #584234",
"C 	c #594334",
"D 	c #543725",
"E 	c #553725",
"F 	c #6C675F",
"G 	c #543624",
"H 	c #563B2B",
"I 	c #573C2D",
"J 	c #5A4739",
"K 	c #5B483B",
"L 	c #5B493C",
"M 	c #5D4D42",
"N 	c #5B473A",
"O 	c #4E2812",
"P 	c #69645C",
"Q 	c #6C685F",
"R 	c #5C4B40",
"S 	c #665F58",
"T 	c #5C4B3F",
"U 	c #5C493D",
"V 	c #5E4F45",
"W 	c #655C55",
"X 	c #655D56",
"Y 	c #5E4F44",
"Z 	c #908E86",
"` 	c #908F86",
" .	c #543523",
"..	c #5D5044",
"+.	c #5D4F43",
"@.	c #5D4E43",
"#.	c #5D4E42",
"$.	c #5C4D41",
"%.	c #543623",
"&.	c #563C2C",
"*.	c #553826",
"=.	c #573D2D",
"-.	c #563B2A",
";.	c #61564B",
">.	c #767469",
",.	c #86847B",
"'.	c #666057",
").	c #63584D",
". . . . . . . . + . . . . . . . . . . . . . . . . . . . . . . . . . . . . . . . + . . . . . . . . . . . . . . . . . . . . .     ",
"@ @ @ @ @ @ # # $ @ @ @ @ @ @ @ @ @ @ @ @ @ @ @ @ @ @ @ @ @ @ @ @ @ @ @ @ @ @ % & % @ @ @ @ @ @ @ @ @ @ @ @ @ @ @ @ @ @ @ @ .   ",
"@ @ @ @ @ @ @ # * @ @ @ @ @ @ @ @ @ @ @ @ @ @ @ @ @ @ @ @ @ @ @ @ @ @ @ @ @ @ % = % @ @ @ @ @ @ @ @ @ @ @ @ @ @ @ @ @ @ @ @ @ . ",
"@ @ @ @ @ @ @ @ + @ @ @ @ @ @ @ @ @ @ @ @ @ @ @ @ @ @ @ @ @ @ @ @ @ @ @ @ @ @ % + % @ @ @ @ @ @ @ @ @ @ @ @ @ @ @ @ @ @ @ @ @ . ",
"- - - ; > , , , + > , , , > > > > > > > > > > > > > > > > > > > > > > > > , , , + , , , > > > > > > > > > > > > > @ @ @ @ @ @ . ",
"' ' ) ) ) ) ) ' ! ' ' ' ~ ' ' ' ' ' { ~ ~ ~ ~ ) ) ) ) ) ' ' ' ' ~ ~ ~ ' ' ' ' ' ! ' ' ' { ~ ~ ~ ) ) ' ' ' ' ' ) ] > @ @ @ @ @ . ",
"' ' ' ' ' ) ' ' ! ' ' ~ ~ ~ ' ' ' ~ { { { { { ' ' ' ' ' ' ' ' ' ~ ~ ~ ~ ~ ~ ~ ~ ! { { { { { { { ' ' ' ' ' ' ' ' ^ > @ @ @ @ @ . ",
"~ ~ ~ ~ ~ ~ { { ! ' ~ ~ { { ~ ~ ~ { { { { { { ' ' ' ' ' ' ' ' ' { { { { { { / / ! { { { { ( ( _ ' ' ' ' ' ' ~ ~ : > @ @ @ @ @ < ",
"~ ~ ~ { { { { { ! { { { { { / / { { { { { ( _ ' ' ~ ~ ~ ~ ~ ~ ~ _ _ _ _ _ _ _ _ ! _ _ _ _ _ _ _ ~ ~ ~ ~ ~ ~ ~ ~ : > @ @ @ @ @ < ",
"{ { { / / / / / ! _ _ _ _ _ _ _ _ _ _ _ _ _ _ { { { { { { { { { _ _ _ _ _ _ _ _ ! _ [ [ [ [ [ } { { { { { { { { | > 1 2 3 3 4 < ",
"_ _ _ _ _ _ _ _ ! _ _ _ _ _ [ [ } } } } 5 5 5 / / _ _ _ _ _ _ _ } [ [ [ [ [ [ [ ! } } } } } } } _ _ _ _ _ _ _ _ 6 7 8 8 8 8 7 < ",
"} } } } [ [ [ [ 9 [ [ } 0 0 0 0 0 0 0 0 } } } } } } } } } } } } a a a a a a } } ! } } } } } } } } } } } } } } } 6 > @ @ @ @ @ < ",
"} } } } } } 0 } b a a a a a a a a a a a a a a } } } } } } } } } a a a a a a } a b } } } } a a a } } } } } } } } c > @ @ @ @ @ < ",
"a a a a a a a a b d d d d d d a a a a a a a a a a a a 0 a a a a a d a a a a a d b a a a d d d d a 0 a a a a a a e > @ @ @ @ @ < ",
"d d d d d d f f b f f f f f f f f f f f f f d d d d d d d d d d d d d d d d d d b d d d d d d d d d d d d d d d g > @ @ @ @ @ < ",
"h i i i f f f i b i i i i i i i i i f f i f f h h h h h h h h h f f f f f d d d b d d d d d d d h h h h h i h i j > @ @ @ @ @ < ",
"k k k k k k k k b k k k k k k k k k k k k k k k k k k k k k k k h h h h h h i h b i i i i i i i k k k k k k k k 7 > @ @ @ @ @ < ",
"k k k k k k k k 7 k k k k k k k k k k k k k k k k k k k k k k k k k k k k k k k b k k k k k k k k k k k k k k k 7 > @ @ @ @ @ < ",
"7 7 7 7 7 7 7 7 l 7 7 7 7 7 7 7 7 7 7 7 7 7 7 7 7 7 7 7 7 7 7 7 7 7 7 7 7 7 7 7 m 7 7 7 7 7 7 7 7 7 7 7 7 7 7 7 7 > @ @ @ @ @ < ",
"l l l l l l l l l l l l l l l n o o l p p p p p p p p p p p p p p p p p p p p p p p p p p p p q l l l l l l l l 7 > @ @ @ @ @ < ",
"l l l l l l l l l l l l l l l n l l p p p p p p p p p p p p p p p p p p p p p p p p p p p p p r l l l l l l l l 7 > @ @ @ @ @ < ",
"l l l l l l l l l l l l l l l n l l p p p p p p p p p p p p p p p p p p p p p p p p p p p p p r l l l l l l l l 7 > @ @ @ @ @ < ",
"l l l l l l l l l l l l l l l n l l l p p p p p p p p p p p p p p p p p p p p p p p p p p p p r l l l l l l l l 7 > @ @ @ @ @ < ",
"l l l l l l l l l l l l l l l n l l l p p p p p p p p p p p p p p p p p p p p p p p p p p p p r l l l l l l l l 7 > @ @ @ @ @ < ",
"l l l l l l l l l l l l l l l n o o l p p p p p p p p p p p p p p p p p p p s p p p p p p p p r l l l l l l l l 7 > @ @ @ @ @ < ",
"k k k k k k k k k k k k k k k t k k k k k k k k k k k k k k k k k k k k k k k k k u u u u u u t k k k k k k k k 7 > 1 v v 2 2 < ",
"k k k k k k k k k k k k k k k w k k k k k k k k k k k k k k k k k k k k k k k k k u u u u u u t k k k k k k k k 7 7 8 8 8 8 7 < ",
"x x x y y y y y y y y y y z z A B C y y y y y y y y y t t D E t t t t y y y y y y y y y y y t t t t y y y y y y 7 > @ @ @ @ @ < ",
"F F F F F F F F F F F F F F F F F F F F F F F F F F F F F F G F F F F F F F F F F F F F F F F F F F F F F F F F 7 > @ @ @ @ @ < ",
"k k k k k k k k k k k k k k k k k k k k k k k k k k k k k k H k k k k k k k k k k k k k k k k k k k k k k k k k 7 > @ @ @ @ @ < ",
"k k k k k k k k k k k k k k k k k k k k k k k k k k k k k k t k k k k k k k k k k k k k k k k k k k k k k k k k 7 > @ @ @ @ @ < ",
"k k k k k k k k k k k k k k k k k k k k k k k k k k k k k k y k k k k k k k k k k k k k k k k k k k k k k k k k 7 > @ @ @ @ @ < ",
"k k k k k k k k k k k k k k k k k k k k k k k k k k k k k k y k k k k k k k k k k k k k k k k k k k k k k k k k 7 > @ @ @ @ @ < ",
"k k k k k k k k k k k k k k k k k k k k k k k k k k k k k k y k k k k k k k k k k k k k k k k k k k k k k k k k 7 > @ @ @ @ @ < ",
"k k k k k k k k k k k k k k k k k k k k k k k k k k k k k k y k k k k k k k k k k k k k k k k k k k k k k k k k 7 > @ @ @ @ @ < ",
"k k k k k k k k k k k k k k k k k k k k k k k k k k k k k k y k k k k k k k k k k k k k k k k k k k k k k k k k 7 > @ @ @ @ @ < ",
"I y y y y y y y y y y y J K L M L L N y y y y y y y y y y y y y y y y y y y y y y y y y y t t O t t y y y y y y 7 > @ @ @ @ @ < ",
"P P P P P P P P Q Q Q Q Q F { R F F F F F F F F F F F F F F F F F F F F F F F F F F F F F F F O F F F F F F F F 7 > @ @ @ @ @ < ",
"S S S S S S S S S S S S S S S T S S S S S S S S S S S S S S S S S S S S S S S S S S S S S S S O S S S S S S S S 7 > @ @ @ @ @ < ",
"S S S S S S S S S S S S S S S U S S S S S S S S S S S S S S S S S S S S S S S S S S S S S S S t S S S S S S S S 7 > @ @ @ @ @ < ",
"S S S S S S S S S S S S S S S V W S S S S S S S S S S S S S S S S S S S S S S S S S S S S S S t S S S S S S S S 7 > @ @ @ @ @ < ",
"S S S S S S S S S S S S S S S V X S S S S S S S S S S S S S S S S S S S S S S S S S S S S S S y S S S S S S S S 7 > @ @ @ @ @ < ",
"S S S S S S S S S S S S S S S Y S S S S S S S S S S S S S S S S S S S S S S S S S S S S S S S y S S S S S S S S 7 > Z ` ` ` ` < ",
"S S S S S S S S S S S S S S S  .S S S S S S S S S S S S S S S S S S S S S S S S S S S S S S S t S S S S S S S S 7 7 8 8 8 8 7 < ",
"S S S S S S S S S S S S S S S  .S S S S S S S S S S S S S S S S S S S S S S S S S S S S S S S t S S S S S S S S 7 > @ @ @ @ @ < ",
"........+.@.#.#.#.#.#.M  . . . . . .$.$.$.$.$.$.$.$.M y t t %.&.t y y y y y y y y y y y y t t t t t t t t t t t 7 > @ @ @ @ @ < ",
"F F F F F F F F F F F F F F F F F F F F F F F F F F F F F F *.F F F F F F F F F F F F F F F F F F F F F F F F F 7 > @ @ @ @ @ < ",
"S S S S S S S S S S S S S S S S S S S S S S S S S S S S S S =.S S S S S S S S S S S S S S S S S S S S S S S S S 7 > @ @ @ @ @ < ",
"S S S S S S S S S S S S S S S S S S S S S S S S S S S S S S y S S S S S S S S S S S S S S S S S S S S S S S S S 7 > @ @ @ @ @ < ",
"S S S S S S S S S S S S S S S S S S S S S S S S S S S S S S y S S S S S S S S S S S S S S S S S S S S S S S S S 7 > @ @ @ @ @ < ",
"S S S S S S S S S S S S S S S S S S S S S S S S S S S S S S y S S S S S S S S S S S S S S S S S S S S S S S S S 7 > @ @ @ @ @ < ",
"S S S S S S S S S S S S S S S S S S S S S S S S S S S S S S y S S S S S S S S S S S S S S S S S S S S S S S S S 7 > @ @ @ @ @ < ",
"S S S S S S S S S S S S S S S S S S S S S S S S S S S S S S t S S S S S S S S S S S S S S S S S S S S S S S S S 7 > @ @ @ @ @ < ",
"S S S S S S S S S S S S S S S S S S S S S S S S S S S S S S -.S S S S S S S S S S S S S S S S S S S S S S S S S 7 > @ @ @ @ @ < ",
"7 7 7 7 7 7 7 7 ;.7 7 7 7 7 7 7 7 7 7 7 7 7 7 7 7 7 7 7 7 7 7 7 7 7 7 7 7 7 7 7 ;.7 7 7 7 7 7 7 7 7 7 7 7 7 7 7 7 > @ @ @ @ @ < ",
">.>.>.>.>.>.>.>.7 >.>.>.>.>.>.>.>.>.>.>.>.>.>.>.>.>.>.>.>.>.>.>.>.>.>.>.>.>.>.>.7 >.>.>.>.>.>.>.>.>.>.>.>.>.>.>.7 > @ @ @ @ @ < ",
">.>.>.>.>.>.>.>.8 >.>.>.>.>.>.>.>.>.>.>.>.>.>.>.>.>.>.>.>.>.>.>.>.>.>.>.>.>.>.>.8 >.>.>.>.>.>.>.>.>.>.>.>.>.>.>.7 > @ @ @ @ @ < ",
">.>.>.>.>.>.>.>.8 >.>.>.>.>.>.>.>.>.>.>.>.>.>.>.>.>.>.>.>.>.>.>.>.>.>.>.>.>.>.>.8 >.>.>.>.>.>.>.>.>.>.>.>.>.>.>.7 > Z ` ` ` ` < ",
">.>.>.>.>.>.>.>.8 >.>.>.>.>.>.>.>.>.>.>.>.>.>.>.>.>.>.>.>.>.>.>.>.>.>.>.>.>.>.>.8 >.>.>.>.>.>.>.>.>.>.>.>.>.>.>.7 7 8 8 8 8 7 < ",
",.,.,.,.,.,.,.,.8 ,.,.,.,.,.,.,.,.,.,.,.,.,.,.,.,.,.,.,.,.,.,.,.,.,.,.,.,.,.,.,.8 ,.,.,.,.,.,.,.,.,.,.,.,.,.,.,.7 > @ @ @ @ @ < ",
"'.'.'.'.'.'.'.'.8 '.'.'.'.'.'.'.'.'.'.'.'.'.'.'.'.'.'.'.'.'.'.'.'.'.'.'.'.'.'.'.8 '.'.'.'.'.'.'.'.'.'.'.'.'.).).7 > @ @ @ @ @ < ",
"'.'.'.'.'.'.'.'.8 '.'.'.'.'.'.'.'.'.'.'.'.'.'.'.'.'.'.'.'.'.'.'.'.'.'.'.'.'.'.'.8 '.'.'.'.'.'.'.'.'.'.'.'.'.).).7 > @ @ @ @ @ < ",
"'.'.'.'.'.'.'.'.7 '.'.'.'.'.'.'.'.'.'.'.'.'.'.'.'.'.'.'.'.'.'.'.'.'.'.'.'.'.'.'.7 '.'.'.'.'.'.'.'.'.'.'.'.'.).).7 > @ @ @ @ @ < ",
"7 7 7 7 7 7 7 7 7 7 7 7 7 7 7 7 7 7 7 7 7 7 7 7 7 7 7 7 7 7 7 7 7 7 7 7 7 7 7 7 7 7 7 7 7 7 7 7 7 7 7 7 7 7 7 7 7 > @ @ @ @ @ < "};
