/* XPM */
static char * tiles3_xpm[] = {
"64 64 448 2",
"  	c #5B3C29",
". 	c #868579",
"+ 	c #94928B",
"@ 	c #54311C",
"# 	c #F8C984",
"$ 	c #F8CD8F",
"% 	c #4F2913",
"& 	c #655444",
"* 	c #F1B183",
"= 	c #F8D4A0",
"- 	c #5F422F",
"; 	c #614431",
"> 	c #604331",
", 	c #614532",
"' 	c #614533",
") 	c #624633",
"! 	c #624634",
"~ 	c #634836",
"{ 	c #634936",
"] 	c #634A38",
"^ 	c #644A38",
"/ 	c #644B39",
"( 	c #624835",
"_ 	c #634835",
": 	c #624735",
"< 	c #604330",
"[ 	c #5C3C28",
"} 	c #8D8B82",
"| 	c #8B8980",
"1 	c #848277",
"2 	c #5B3B27",
"3 	c #F4BB83",
"4 	c #8C8A81",
"5 	c #60422E",
"6 	c #635A51",
"7 	c #645A52",
"8 	c #665D54",
"9 	c #675F56",
"0 	c #6B635A",
"a 	c #6A635A",
"b 	c #6A6159",
"c 	c #696057",
"d 	c #696158",
"e 	c #858277",
"f 	c #61422E",
"g 	c #5F574E",
"h 	c #5C3B25",
"i 	c #5C3C25",
"j 	c #5E3F2A",
"k 	c #5F402E",
"l 	c #5F412E",
"m 	c #5E402C",
"n 	c #5E402B",
"o 	c #5E3E29",
"p 	c #5D3C26",
"q 	c #60584F",
"r 	c #61432E",
"s 	c #8E8B82",
"t 	c #858377",
"u 	c #5F564D",
"v 	c #5A371E",
"w 	c #716256",
"x 	c #777066",
"y 	c #6D6258",
"z 	c #706256",
"A 	c #5D3C28",
"B 	c #726255",
"C 	c #918E85",
"D 	c #5D3D28",
"E 	c #F8CB8A",
"F 	c #918F86",
"G 	c #868477",
"H 	c #7B776B",
"I 	c #7A7267",
"J 	c #95938B",
"K 	c #5D3E29",
"L 	c #F8CF93",
"M 	c #614430",
"N 	c #868478",
"O 	c #797369",
"P 	c #7A7669",
"Q 	c #7A7769",
"R 	c #7A776A",
"S 	c #7A756A",
"T 	c #60422D",
"U 	c #79756A",
"V 	c #7B766C",
"W 	c #7B776C",
"X 	c #7C776C",
"Y 	c #7A766A",
"Z 	c #7C776B",
"` 	c #7B766B",
" .	c #5B371E",
"..	c #7A756B",
"+.	c #7C786C",
"@.	c #7D786D",
"#.	c #7C786B",
"$.	c #7B776A",
"%.	c #7B766A",
"&.	c #7B7267",
"*.	c #7A7469",
"=.	c #787467",
"-.	c #787268",
";.	c #61432F",
">.	c #95938A",
",.	c #878578",
"'.	c #7D796F",
").	c #7C776D",
"!.	c #7C786E",
"~.	c #7D786E",
"{.	c #7E786F",
"].	c #7E786E",
"^.	c #7C766E",
"/.	c #7B756A",
"(.	c #7B7469",
"_.	c #797468",
":.	c #797267",
"<.	c #97948C",
"[.	c #7D796E",
"}.	c #7F796F",
"|.	c #80796F",
"1.	c #7E796F",
"2.	c #7C766A",
"3.	c #7C756A",
"4.	c #7A7568",
"5.	c #7A7368",
"6.	c #797368",
"7.	c #888578",
"8.	c #99978F",
"9.	c #5F402B",
"0.	c #888678",
"a.	c #7F796E",
"b.	c #7F7A6F",
"c.	c #7E7A6F",
"d.	c #7F7B6E",
"e.	c #7F7B6F",
"f.	c #7F7A6E",
"g.	c #7E796E",
"h.	c #7E7970",
"i.	c #7B746A",
"j.	c #7A746D",
"k.	c #5B381E",
"l.	c #8F8B82",
"m.	c #9C9890",
"n.	c #5F3E29",
"o.	c #98958D",
"p.	c #8B897D",
"q.	c #888679",
"r.	c #898679",
"s.	c #7D776D",
"t.	c #6C6259",
"u.	c #7F7A70",
"v.	c #7F7A71",
"w.	c #7F7970",
"x.	c #7B746D",
"y.	c #5B381F",
"z.	c #8F8B83",
"A.	c #888579",
"B.	c #9C9991",
"C.	c #60402B",
"D.	c #99968E",
"E.	c #8F8C83",
"F.	c #8E8C82",
"G.	c #6C635A",
"H.	c #807A71",
"I.	c #7E7A70",
"J.	c #8D8A81",
"K.	c #89867A",
"L.	c #9D9991",
"M.	c #5F3F29",
"N.	c #5C381F",
"O.	c #5E3D28",
"P.	c #A09C94",
"Q.	c #8D8B81",
"R.	c #8A877A",
"S.	c #8A887A",
"T.	c #89877A",
"U.	c #5E3F29",
"V.	c #7F7C70",
"W.	c #8B897C",
"X.	c #8C897C",
"Y.	c #8A8779",
"Z.	c #8C8A7C",
"`.	c #9A968E",
" +	c #696153",
".+	c #543019",
"++	c #7B786C",
"@+	c #9F9A92",
"#+	c #5A3722",
"$+	c #7A766B",
"%+	c #807C70",
"&+	c #9F9B93",
"*+	c #9D9A92",
"=+	c #9B978F",
"-+	c #9A978F",
";+	c #96938B",
">+	c #9E9A92",
",+	c #696255",
"'+	c #696152",
")+	c #542F18",
"!+	c #583622",
"~+	c #777369",
"{+	c #78746A",
"]+	c #95918A",
"^+	c #6D675E",
"/+	c #757169",
"(+	c #757168",
"_+	c #6F695F",
":+	c #6F6960",
"<+	c #7B766E",
"[+	c #7C786F",
"}+	c #7D7970",
"|+	c #7B776F",
"1+	c #6F6860",
"2+	c #6E685F",
"3+	c #6E685E",
"4+	c #807E77",
"5+	c #675F53",
"6+	c #675F52",
"7+	c #512C16",
"8+	c #583621",
"9+	c #8B8880",
"0+	c #6D675D",
"a+	c #6F685E",
"b+	c #6F695E",
"c+	c #6F685F",
"d+	c #6E675E",
"e+	c #6E675F",
"f+	c #6D675F",
"g+	c #6D665E",
"h+	c #828078",
"i+	c #6D665D",
"j+	c #6E685D",
"k+	c #6F675E",
"l+	c #6C665E",
"m+	c #6C665D",
"n+	c #828079",
"o+	c #6C655C",
"p+	c #6B655D",
"q+	c #6E675D",
"r+	c #726D63",
"s+	c #726C62",
"t+	c #6D665C",
"u+	c #4E2913",
"v+	c #7E7C74",
"w+	c #6A645B",
"x+	c #6A645C",
"y+	c #6B645C",
"z+	c #6B655C",
"A+	c #533422",
"B+	c #523320",
"C+	c #52321F",
"D+	c #51311E",
"E+	c #512F1C",
"F+	c #51301C",
"G+	c #512F1B",
"H+	c #522F1B",
"I+	c #52301B",
"J+	c #726C63",
"K+	c #6D655C",
"L+	c #6C655B",
"M+	c #7C7A71",
"N+	c #7C7972",
"O+	c #69635B",
"P+	c #533421",
"Q+	c #594C41",
"R+	c #5B4F44",
"S+	c #645B50",
"T+	c #645B4F",
"U+	c #655B51",
"V+	c #655C52",
"W+	c #665D53",
"X+	c #665D52",
"Y+	c #645B51",
"Z+	c #533623",
"`+	c #706C63",
" @	c #726D64",
".@	c #6C665B",
"+@	c #6B655B",
"@@	c #77746B",
"#@	c #79776E",
"$@	c #69635A",
"%@	c #6B645A",
"&@	c #5B4E43",
"*@	c #5A4D42",
"=@	c #655B50",
"-@	c #655C51",
";@	c #665C52",
">@	c #655D52",
",@	c #533420",
"'@	c #6D6860",
")@	c #6B645B",
"!@	c #747068",
"~@	c #4E2812",
"{@	c #78756C",
"]@	c #5B4E42",
"^@	c #645A4F",
"/@	c #655C50",
"(@	c #533320",
"_@	c #726F67",
":@	c #5D5146",
"<@	c #63584D",
"[@	c #655D51",
"}@	c #53331F",
"|@	c #6A645A",
"1@	c #726E67",
"2@	c #767269",
"3@	c #686159",
"4@	c #696259",
"5@	c #6B6358",
"6@	c #61564B",
"7@	c #63594E",
"8@	c #635A4F",
"9@	c #645A50",
"0@	c #655A50",
"a@	c #63574D",
"b@	c #635A4E",
"c@	c #52331F",
"d@	c #6B6359",
"e@	c #6A6359",
"f@	c #6A6459",
"g@	c #736F67",
"h@	c #676158",
"i@	c #676157",
"j@	c #686157",
"k@	c #696257",
"l@	c #523521",
"m@	c #5F5448",
"n@	c #62574C",
"o@	c #62574D",
"p@	c #696258",
"q@	c #726F66",
"r@	c #676156",
"s@	c #686156",
"t@	c #50311D",
"u@	c #63584E",
"v@	c #686158",
"w@	c #716E65",
"x@	c #4D2812",
"y@	c #6F6B62",
"z@	c #676155",
"A@	c #676056",
"B@	c #502F1B",
"C@	c #5F5449",
"D@	c #605549",
"E@	c #62574B",
"F@	c #61574D",
"G@	c #51301B",
"H@	c #676057",
"I@	c #686057",
"J@	c #716D65",
"K@	c #6F6B60",
"L@	c #666053",
"M@	c #676054",
"N@	c #665E55",
"O@	c #5E5346",
"P@	c #5E5446",
"Q@	c #605448",
"R@	c #605449",
"S@	c #60554A",
"T@	c #61574C",
"U@	c #512F1A",
"V@	c #666055",
"W@	c #665F56",
"X@	c #6F6A60",
"Y@	c #665E54",
"Z@	c #655E55",
"`@	c #5E5245",
" #	c #5E5145",
".#	c #5E5146",
"+#	c #5E5347",
"@#	c #62564B",
"##	c #5F564A",
"$#	c #615649",
"%#	c #50321D",
"&#	c #655F54",
"*#	c #655F55",
"=#	c #726E66",
"-#	c #696359",
";#	c #645C53",
">#	c #645D53",
",#	c #645E53",
"'#	c #6F6A5E",
")#	c #523422",
"!#	c #5F5347",
"~#	c #5F5447",
"{#	c #5F5348",
"]#	c #573E2E",
"^#	c #696358",
"/#	c #655F53",
"(#	c #645E54",
"_#	c #716D64",
":#	c #4D2712",
"<#	c #6E6A5F",
"[#	c #686358",
"}#	c #635C52",
"|#	c #635D52",
"1#	c #787468",
"2#	c #502E1A",
"3#	c #502E19",
"4#	c #502D19",
"5#	c #502D1A",
"6#	c #4F2D1A",
"7#	c #6B665A",
"8#	c #655E53",
"9#	c #645E52",
"0#	c #6D695F",
"a#	c #6A655A",
"b#	c #69655A",
"c#	c #635C51",
"d#	c #625C50",
"e#	c #726D60",
"f#	c #736D61",
"g#	c #635D51",
"h#	c #6E6A61",
"i#	c #635C50",
"j#	c #6C6759",
"k#	c #6A655B",
"l#	c #4C2711",
"m#	c #625C51",
"n#	c #69655B",
"o#	c #6A665C",
"p#	c #6B675C",
"q#	c #6A665B",
"r#	c #54311B",
"s#	c #4D2711",
"t#	c #502B15",
"u#	c #56341F",
"v#	c #563420",
"w#	c #563520",
"x#	c #573521",
"y#	c #573621",
"z#	c #573622",
"A#	c #665342",
"B#	c #7D7971",
"C#	c #716C63",
"D#	c #6F6B61",
"E#	c #6F6A61",
"F#	c #6E6960",
"G#	c #6D685F",
"H#	c #6C675E",
"I#	c #68625A",
"J#	c #676159",
"K#	c #807C74",
"L#	c #706C62",
"M#	c #6F6961",
"N#	c #68635A",
"O#	c #67625A",
"  . . . . . + @ # # # # # # # # # # # # # # # # # # # # # # # # # # # # # # # # # # # # # # # # # # # # # # # # # # # # # # # # ",
"  . . . . . + @ # # # # # # # # # # # # # # # # # # # # # # # # # # # # # # # # # # # # # # # # # # # # # # # # # # # # # # # # ",
"  + + + + + + @ # # # # # # # # # # # # # # # $ $ # # # # # # # # # # # # # # # # # # # # # # # # # # # # # # # # # # # # # # # ",
"  % & & & & % @ # # # # # # # # # # # # # # # # # # # # # # # # # # # # # # # # # # # # # # # # # # # # # # # # # # # # # # # # ",
"  . . . . . + @ # # # # # # # # # # # # # # # # # # # # # # # # # # # # # # # # # # # # # # # # # # # # # # # # # # # # # # # # ",
"  . . . . . + @ # * * * # # # # # # # # # # # # # # # # # # # # # # # # # # # = = = = # # # # # # # # # # # # # # # # # # # # # ",
"  . . . . . + @ * * * * * # # # # # # # # - ; > , ' ) ! ~ { ] ^ ^ / / / ( _ : : : : ' < < # # # # # # # # # # # # # # # # # # # ",
"  . . . . . + @ * * * * * * # # # # # # [ } } } } | | 1 1 1 1 1 1 1 1 1 1 1 1 1 1 1 1 1 | 2 # # # # # # # # # # # # # # # # # # ",
"  . . . . . + @ * * * * * * 3 # # # # [ } } } } } | 1 1 1 1 1 1 1 1 1 1 1 1 1 1 1 1 1 1 1 | [ # # # # # # # # # # # # # # # # # ",
"  . . . . . + @ * * * * * * 3 # # # [ } 1 1 1 1 1 1 1 1 1 1 1 1 1 1 1 1 1 4 4 4 1 1 1 1 1 1 | [ # # # # # # # # # # # # # # # # ",
"  . . . . . + @ * * * * * * # # # 5 } 1 1 1 1 1 1 1 1 1 1 1 1 1 1 1 1 | 4 4 4 4 1 1 1 1 1 1 1 } 5 # # # # # # # # # # # # # # # ",
"  . . . . . + @ 3 * * * * # # # # 5 } 1 1 1 1 1 1 6 7 8 8 9 0 0 a a a 0 0 0 b c d e 1 1 1 1 1 } 2 # # # # # # # # # # # # # # # ",
"  . . . . . + @ # * * * # # # # # f } 1 e e e e g h i i j j k l m n o o o o p p p q 1 e e e 1 } [ # # # # # # # # # # # # # # # ",
"  . . . . . + @ # # # # # # # # # r s e t t e u v w w x x x x x x x x x x y z z z v u e e t e } A # # # # # # # # # # # # # # # ",
"  . . . . . + @ # # # # # # # # # r s t t t t v w B x x x x x x x x x x x x x x w z v t t t e C D # E # # # # # # # # # # # # # ",
"  . . . . . + @ # # # # # # # # # r F t G G G v z x x x x x x x x H H x x x x x I I v G t t t J K # L # # # # # # # # # # # # # ",
"  . . . . . + @ # # # # # # # # # M F G G G N v y O x x x x P Q R H H S x I I I I I v G G G G J K # # # # # # # # # # # # # # # ",
"  + + + + + + @ # # # # # # # # # T F N N N N v U V W X x x Y Z Z H X ` Y I I I I I v N N G G J K # # # # # # # # # # # # # # # ",
"  % & & & & % @ # # # # # # # # # r F N N N N  ...W +.@.Y Y Z Z #.#.#.$.%.&.I *.=.-. .N N N N J o # # # # # # # # # # # # # # # ",
"  . . . . . + @ # # # # # # # # # ;.>.N N ,.,. .V '.'.).!.~.~.{.{.].~.!.^././.(._.:. .N N N ,.J o # # # # # # # # # # # # # # # ",
"  . . . . . + @ # # # # # # # # # r <.,.,.,.,. .'.'.'.'.~.[.'.}.}.|.}.1.].2.3.4.5.6. .7.7.N N 8.o # # # # # # # # # # # # # # # ",
"  . . . . . + @ # # # # # # # # # 9.<.,.,.0.0. .1.1.1.1.a.}.b.c.b.d.e.f.g.h.{.i.5.j.k.l.7.7.,.m.n.# # # # # # # # = = = # # # # ",
"  . . . . . + @ # # # # # # # # # 9.o.p.q.q.r.k.s.1.1.b.t.t.}.b.b.u.v.v.w.h.h.{.*.x.y.z.r.A.A.B.n.# # # # # # # = = = = = # # # ",
"  . . . . . + @ # # # # # # # # # C.D.E.F.r.r.r.k.@.1.t.t.t.G.G.G.H.v.v.u.I.h.1.!.y.J.z.K.K.A.L.M.# # # # # # = = = = = = = # # ",
"  . . . . . + @ # # # # # # # # # C.L.E.E.r.r.r.r.k.y.y.y.y.y.y.y.y.y.y.y.N.y.N.N.z.z.z.K.K.K.L.M.# # # # # # = = = = = = = # # ",
"  . . . . . + @ # # # # # # # # # O.P.Q.E.r.r.R.R.R.R.R.R.R.R.R.R.R.R.R.S.S.S.S.E.E.T.K.K.K.K.L.U.# # # # # # # = = = = = # # # ",
"  . . . . . + @ # # # # # # # # # O.V.P.W.X.Y.Y.R.R.R.R.R.R.R.R.R.R.S.S.S.S.S.Z.S.S.S.S.K.K.`. +.+# # # # # # # # = = = # # # # ",
"  . . . . . + @ # # # # # # # # # O.+.++P.X.Y.R.R.R.R.R.R.R.R.R.R.R.R.R.S.S.S.S.S.S.S.S.K.@+ + +.+# # # # # # # # # # # # # # # ",
"  . . . . . + @ # # # # # # # # # #+$+$+%+P.&+*+L.B.=+-+=+J ;+;+;+;+;+<.<.<.<.<.o.o.o.=+>+,+'+'+)+# # # # # # # # # # # # # # # ",
"  . . . . . + @ # # # # # # # # # !+~+{+]+^+/+(+(+(+(+_+:+_+:+:+_+:+<+[+}+|+1+2+2+2+2+2+3+4+5+6+7+# # # # # # # # # # # # # # # ",
"  . . . . . + @ # # # # # # # # # 8+{+9+0+0+(+(+3+3+3+3+3+3+3+3+3+3+a+a+a+b+c+d+d+e+e+f+^+g+4+6+% # # # # # # # # # # # # # # # ",
"  . . . . . + @ # # # # # # # # # % h+0+0+0+0+i+0+i+j+k+a+a+k+k+b+a+b+b+b+b+a+a+3+d+^+0+^+l+m+4+% # # # # # # # # # # # # # # # ",
"  . . . . . + @ # # # # # # # # # % n+i+m+o+p+i+i+0+q+d+3+3+3+3+3+3+a+a+a+a+a+a+a+3+r+s+t+o+p+n+% # # # # # # # # # # # # # # # ",
"  . . . . . + @ # # # # # # # # # u+v+w+x+y+z+m+i+A+A+B+C+C+D+E+F+F+F+F+F+G+H+G+I+r+J+r+K+o+L+M+% # # # # # # # # # # # # # # # ",
"  + + + + + + @ # # # # # # # # # u+N+O+w+x+o+m+P+Q+R+S+T+S+U+V+V+V+V+V+W+X+V+U+Y+Z+`+ @o+.@+@@@% # # # # # # # # # # # # # # # ",
"  % & & & & % @ # # # # # # # # # u+#@$@$@%@+@G+&@*@=@T+=@S+=@-@-@-@-@W+W+W+;@V+>@>@,@'@z+)@)@!@% # # # # # # # # # # # # # # # ",
"  . . . . . + @ # # # # # # # # # ~@{@$@$@%@+@G+]@^@=@=@S+S+S+/@-@X+X+X+X+X+>@>@>@>@(@y+)@w+w+_@% # # # # # # # # # # # # # # # ",
"  . . . . . + @ # # # # # # # # # ~@@@$@$@a )@G+:@^@S+=@=@=@=@-@-@X+-@-@<@<@[@[@[@[@}@)@)@|@|@1@u+# # # # # # # # # # # # # # # ",
"  . . . . . + @ # # # # # # # # # ~@2@3@4@4@5@A+6@7@^@8@9@^@9@0@0@U+U+a@<@<@<@[@[@b@c@d@e@e@f@g@u+# # # # # # # # # # # # # # # ",
"  . . . . . + @ # # # # # # # # # ~@(+h@i@j@k@l@m@m@m@^@^@^@^@^@8@n@n@o@o@a@a@a@<@<@c@p@p@k@p@_@u+# # # # # # # # # # # # # # # ",
"  . . . . . + @ # # # # # # # # # ~@q@i@r@i@s@t@m@m@m@^@^@^@^@^@^@n@n@n@n@n@n@n@u@<@c@v@v@j@j@w@u+# # # # # # # # # # # # # # # ",
"  . . . . . + @ # # # # # # # # # x@y@z@A@A@A@B@m@C@m@D@^@^@^@^@^@n@n@n@n@n@n@n@E@F@G@H@i@j@I@J@~@* * * * 3 # # # # # # # # # # ",
"  . . . . . + @ # # # # # # # # # x@K@L@M@N@N@B@O@P@m@Q@R@S@^@^@n@n@n@T@C@C@C@C@C@C@U@V@A@W@A@w@~@* * * * * 3 # # # # # # # # # ",
"  . . . . . + @ # # # # # # # # # x@X@$@W+Y@Z@F+`@ #.#+#@#@#E@E@n@n@##$#C@C@C@C@C@C@%#&#&#*#W@=#~@* * * * * * # # # # # # # # # ",
"  . . . . . + @ # # # # # # # # # x@X@-#;#>#,#'#)# # #.#6@6@@#@#@#!#~#m@C@C@{#{#{#]#^#&#/#/#(#_#~@* * * * * * # # # # # # # # # ",
"  . . . . . + @ # # # # # # # # # :#<#[#;#}#}#|#1#)#B@2#2#2#2#2#2#3#4#5#5#6#6#5#2#7#|#8#,#,#9#y@~@* * * * * * # # # # # # # # # ",
"  . . . . . + @ # # # # # # # # # :#0#a#b#c#c#d#d#e#e#e#e#e#e#e#e#e#f#f#f#f#f#f#f#g#g#9#|#|#|#h#~@* * * * * # # # # # # # # # # ",
"  . . . . . + @ # # # # # # # # # :#0#a#b#b#b#d#d#d#d#d#d#i#b#b#b#b#j#k#k#k#c#c#g#g#g#|#|#|#|#h#~@* * * * # # # # # # # # # # # ",
"  . . . . . + @ # # # # # # # # # # l#b#b#b#b#d#d#d#d#d#d#d#d#d#d#d#m#n#k#k#c#c#c#c#g#g#|#|#o#x@# # # # # # # # # # # # # # # # ",
"  + + + + + + @ # # # # # # # # # # # l#b#b#d#d#d#d#d#d#d#d#d#d#d#d#d#m#m#c#c#c#c#c#c#g#g#p#x@# # # # # # # # # # # # # # # # # ",
"  % & & & & % @ # # # # # # # # # # # # l#p#d#d#d#d#d#d#d#d#d#d#d#d#d#d#m#c#i#c#c#c#c#c#q#x@# # # # # # # # # # # # # # # # # # ",
"  . . . . . + r## # # # # # # # # # # # # l#l#l#l#l#l#l#l#l#l#l#l#l#s#:#:#x@x@x@x@x@x@x@x@# # # # # # # # # # # # # # # # # # # ",
"  . . . . . + r## # # # # # # # # # # # # # # # # # # # # # # # # # # # # # # # # # # # # # # # # # # # # # # # # # # # # # # # ",
"  . . . . . + r## # # # # # # # # # # # # # # # # # # # # # # # # # # # # # # # # # # # # # # # # # # # # # # # # # # # # # # # ",
"  . . . . . + r## # # # # # # # # # # # # # # # # # # # # # # # # # # # # # # # # # # # # # # # # # # # # # # # # # # # # # # # ",
"  . . . . . + r#= # # # # # # # # # # # # # # # # # # # # # # # # # # # # # # # # # # # # # # # # # # # # # # # # # # # # # # # ",
"  . . . . . + % % % t#u#v#w#w#w#w#x#x#x#x#x#x## x#x#x#x#x#x#y#y#y#y#y#y#y#y#y#y#y#y#y#y#y#y#y#y#y#y#y#y#y#y#z#z## z#z#z#z#z#z#z#",
"  . . . . . . . . . . . . . . . . . . . . . . A#. . . . . . . . . . . . . . . . . . . . . . . . . . . . . . . . A#. . . . . . . ",
"  . . . . . . . . . . . . . . . . . . . . . . A#. . . . . . . . . . . . . . . . . . . . . . . . . . . . . . . . A#. . . . . . . ",
"  . . . . . . . . . . . . . . . . . . . . . . A#. . . . . . . . . . . . . . . . . . . . . . . . . . . . . . . . A#. . . . . . . ",
"% + + + + + + + + + + + + + + + + + + + + + + A#+ + + + + + + + + + + + + + + + + + + + + + + + + + + + + + + + & + + + + + + + ",
"% B#C#y@D#E#F#G#H#l+p+n#O+O+I#I#I#J#J#J#J#J#J#% J#J#J#J#J#J#J#J#J#J#J#J#J#J#J#J#J#J#J#J#J#J#J#J#J#J#J#J#J#J#J#J#% J#J#J#J#J#J#J#",
"% K#L#y@E#M#0#G#H#l+p+n#O+N#I#I#O#J#J#J#J#J#J#% J#J#J#J#J#J#J#J#J#J#J#J#J#J#J#J#J#J#J#J#J#J#J#J#J#J#J#J#J#J#J#J#% J#J#J#J#J#J#J#",
"# % % % % % % % % % % % % % % % % % % % % % % % % % % % % % % % % % % % % % % % % % % % % % % % % % % % % % % % % % % % % % % % "};
