/* XPM */
static char * tiles15_xpm[] = {
"64 64 636 2",
"  	c #F8C984",
". 	c #F6C984",
"+ 	c #AAB67C",
"@ 	c #84815C",
"# 	c #9C5F48",
"$ 	c #A0654D",
"% 	c #9B7053",
"& 	c #6F9F6F",
"* 	c #5EB373",
"= 	c #74C857",
"- 	c #F7C984",
"; 	c #F4C884",
"> 	c #E1C482",
", 	c #B2BB7F",
"' 	c #76B27C",
") 	c #50AF7B",
"! 	c #57AB78",
"~ 	c #82805B",
"{ 	c #A2664D",
"] 	c #A6674D",
"^ 	c #A7684C",
"/ 	c #A56A4E",
"( 	c #957958",
"_ 	c #6B9F6E",
": 	c #60B76F",
"< 	c #E5C582",
"[ 	c #C7BE80",
"} 	c #98B77E",
"| 	c #65B17C",
"1 	c #50AF7A",
"2 	c #6A9B6D",
"3 	c #8D7454",
"4 	c #9D624A",
"5 	c #A6684D",
"6 	c #B06B4C",
"7 	c #B36D4B",
"8 	c #B46E4C",
"9 	c #B8724D",
"0 	c #BD754F",
"a 	c #B9744F",
"b 	c #9E7152",
"c 	c #759B66",
"d 	c #F2C883",
"e 	c #D3C181",
"f 	c #A3B87E",
"g 	c #6FB27C",
"h 	c #52AF7B",
"i 	c #6A9A6C",
"j 	c #8B7958",
"k 	c #9B674D",
"l 	c #A3664C",
"m 	c #AC6A4C",
"n 	c #B46D4B",
"o 	c #BA724D",
"p 	c #C27951",
"q 	c #C57C52",
"r 	c #C67D53",
"s 	c #B17954",
"t 	c #809569",
"u 	c #65AF6E",
"v 	c #EEC783",
"w 	c #C7BF80",
"x 	c #8CB57D",
"y 	c #5AB07B",
"z 	c #4FAF7B",
"A 	c #788962",
"B 	c #97694E",
"C 	c #A2654C",
"D 	c #AB6A4C",
"E 	c #C47B51",
"F 	c #C97F54",
"G 	c #C87E53",
"H 	c #BD7E55",
"I 	c #8C9467",
"J 	c #65AA72",
"K 	c #D5C181",
"L 	c #B3BB7F",
"M 	c #7DB47E",
"N 	c #54AF7B",
"O 	c #7A8660",
"P 	c #98684D",
"Q 	c #A3654C",
"R 	c #AE6B4C",
"S 	c #B56E4B",
"T 	c #BD754E",
"U 	c #C97F53",
"V 	c #CA8054",
"W 	c #CA7F54",
"X 	c #C17D54",
"Y 	c #99825C",
"Z 	c #799163",
"` 	c #6AB27D",
" .	c #7B865F",
"..	c #98674D",
"+.	c #BB734E",
"@.	c #C67D52",
"#.	c #CB8054",
"$.	c #C77D53",
"%.	c #A77252",
"&.	c #739A6A",
"*.	c #60B570",
"=.	c #6DB17C",
"-.	c #63B17C",
";.	c #57B07B",
">.	c #6F9569",
",.	c #917153",
"'.	c #9F644C",
").	c #AE6B4B",
"!.	c #B66F4C",
"~.	c #BE754F",
"{.	c #C77D52",
"].	c #C17E54",
"^.	c #958961",
"/.	c #5CAE76",
"(.	c #74B27C",
"_.	c #69B17C",
":.	c #5AB07C",
"<.	c #59A876",
"[.	c #847D5A",
"}.	c #9C624A",
"|.	c #A8684C",
"1.	c #B26D4B",
"2.	c #B66F4B",
"3.	c #BE754E",
"4.	c #B97851",
"5.	c #978B61",
"6.	c #769D6C",
"7.	c #61B570",
"8.	c #AEBA7F",
"9.	c #94B67D",
"0.	c #55AF7B",
"a.	c #709469",
"b.	c #926F52",
"c.	c #9E624B",
"d.	c #A4674D",
"e.	c #B66E4B",
"f.	c #B46F4C",
"g.	c #A77352",
"h.	c #947A59",
"i.	c #6E9C6C",
"j.	c #E0C482",
"k.	c #BCBC80",
"l.	c #84B47C",
"m.	c #55AB78",
"n.	c #80845E",
"o.	c #9A6149",
"p.	c #A0644C",
"q.	c #A5674C",
"r.	c #AD6A4C",
"s.	c #A16A4F",
"t.	c #8B825E",
"u.	c #759865",
"v.	c #EBC683",
"w.	c #C4BE80",
"x.	c #89B57D",
"y.	c #5BB07B",
"z.	c #52AE7A",
"A.	c #70966A",
"B.	c #8C7555",
"C.	c #9A624A",
"D.	c #9E614A",
"E.	c #9E634B",
"F.	c #9C6C51",
"G.	c #809167",
"H.	c #64AC71",
"I.	c #D2C181",
"J.	c #B0BA7F",
"K.	c #7DB37C",
"L.	c #58B07B",
"M.	c #53AC79",
"N.	c #6D966A",
"O.	c #857856",
"P.	c #92684C",
"Q.	c #975F47",
"R.	c #9A6048",
"S.	c #9C6C52",
"T.	c #818E66",
"U.	c #6BA86F",
"V.	c #A5B97E",
"W.	c #93B67D",
"X.	c #78B37C",
"Y.	c #5FB07B",
"Z.	c #5FA473",
"`.	c #748F66",
" +	c #8A6A4D",
".+	c #935A43",
"++	c #985E46",
"@+	c #9D634B",
"#+	c #A3674D",
"$+	c #9F6E51",
"%+	c #967D5A",
"&+	c #809B66",
"*+	c #66B06F",
"=+	c #B6BB7F",
"-+	c #A6B97E",
";+	c #87B47D",
">+	c #51AF7B",
",+	c #729066",
"'+	c #935C44",
")+	c #A5684D",
"!+	c #B16D4C",
"~+	c #B6704D",
"{+	c #B6724D",
"]+	c #AA7652",
"^+	c #7F9869",
"/+	c #DDC382",
"(+	c #D7C281",
"_+	c #9BB77E",
":+	c #6CB17C",
"<+	c #6D986B",
"[+	c #956148",
"}+	c #A0654C",
"|+	c #A5674D",
"1+	c #B26D4C",
"2+	c #BC744E",
"3+	c #C57D53",
"4+	c #9E7E58",
"5+	c #6CA46B",
"6+	c #F1C783",
"7+	c #BFBD80",
"8+	c #92B67D",
"9+	c #66B17C",
"0+	c #659F70",
"a+	c #8A7655",
"b+	c #A0634B",
"c+	c #AD6B4C",
"d+	c #B7704C",
"e+	c #C47B52",
"f+	c #9A8C62",
"g+	c #69A772",
"h+	c #88B47D",
"i+	c #61B07B",
"j+	c #56AA78",
"k+	c #759167",
"l+	c #9A6148",
"m+	c #A8694C",
"n+	c #BE764F",
"o+	c #C27A51",
"p+	c #BB7E55",
"q+	c #A38E61",
"r+	c #829E66",
"s+	c #F5C884",
"t+	c #E6C583",
"u+	c #C9BF80",
"v+	c #6BB17C",
"w+	c #50AE7A",
"x+	c #62A272",
"y+	c #857F5B",
"z+	c #9E654B",
"A+	c #A6684C",
"B+	c #AC6B4D",
"C+	c #C37A51",
"D+	c #B67F56",
"E+	c #879568",
"F+	c #5BAD74",
"G+	c #E2C482",
"H+	c #53AD79",
"I+	c #65A070",
"J+	c #867D59",
"K+	c #94674C",
"L+	c #9F654C",
"M+	c #A7694D",
"N+	c #AF6C4C",
"O+	c #B7714D",
"P+	c #B5724E",
"Q+	c #A57955",
"R+	c #869066",
"S+	c #6EB069",
"T+	c #E7C583",
"U+	c #B9BC7F",
"V+	c #7AB37C",
"W+	c #52AD79",
"X+	c #6C996C",
"Y+	c #9C644C",
"Z+	c #A3664D",
"`+	c #9D6E51",
" @	c #888E5F",
".@	c #6CA96C",
"+@	c #B7BC7F",
"@@	c #4EB07C",
"#@	c #51AE7A",
"$@	c #699C6E",
"%@	c #887857",
"&@	c #966249",
"*@	c #9D624B",
"=@	c #9F654D",
"-@	c #9A7052",
";@	c #8E8059",
">@	c #7D945E",
",@	c #68B368",
"'@	c #DCC382",
")@	c #6E9469",
"!@	c #90664B",
"~@	c #9D6149",
"{@	c #A86A4C",
"]@	c #A76A4C",
"^@	c #A56D4B",
"/@	c #987951",
"(@	c #7C9560",
"_@	c #67B16A",
":@	c #E0C382",
"<@	c #8FB57D",
"[@	c #57AA77",
"}@	c #7B8A62",
"|@	c #97674D",
"1@	c #9F634B",
"2@	c #B26C4B",
"3@	c #B5704D",
"4@	c #B9764F",
"5@	c #BA794F",
"6@	c #AB7D51",
"7@	c #878F5A",
"8@	c #6BB367",
"9@	c #F3C884",
"0@	c #8AB57D",
"a@	c #62B07B",
"b@	c #55AB79",
"c@	c #768F65",
"d@	c #956C50",
"e@	c #B16C4B",
"f@	c #B76F4C",
"g@	c #C67F52",
"h@	c #BE8154",
"i@	c #9E8B5D",
"j@	c #73A769",
"k@	c #C8BF80",
"l@	c #9AB77E",
"m@	c #5BA776",
"n@	c #8D6C4E",
"o@	c #9E654C",
"p@	c #C77F53",
"q@	c #AF8359",
"r@	c #7B9A68",
"s@	c #63B56D",
"t@	c #C5BE80",
"u@	c #97B77E",
"v@	c #8D6B4E",
"w@	c #AA694C",
"x@	c #C67E52",
"y@	c #AD8459",
"z@	c #7C9766",
"A@	c #6BAD68",
"B@	c #CCBF81",
"C@	c #A4B87E",
"D@	c #5BA775",
"E@	c #8D6B4D",
"F@	c #C17850",
"G@	c #C98154",
"H@	c #BB7B52",
"I@	c #8F845B",
"J@	c #66AB6D",
"K@	c #A0B87E",
"L@	c #58A976",
"M@	c #857A57",
"N@	c #9B654C",
"O@	c #A2654D",
"P@	c #B9724D",
"Q@	c #C27950",
"R@	c #C77E53",
"S@	c #C87F53",
"T@	c #B48057",
"U@	c #819665",
"V@	c #5EB970",
"W@	c #7FB37C",
"X@	c #5DB07B",
"Y@	c #64A071",
"Z@	c #916B4F",
"`@	c #9E634C",
" #	c #B46E4B",
".#	c #A5845B",
"+#	c #74A16F",
"@#	c #64AD70",
"##	c #67B17C",
"$#	c #50AE7B",
"%#	c #857C59",
"&#	c #9B664D",
"*#	c #B0704D",
"=#	c #A17853",
"-#	c #829062",
";#	c #62B16E",
">#	c #80B47D",
",#	c #6B996C",
"'#	c #936B4F",
")#	c #9F624B",
"!#	c #A1654D",
"~#	c #A9694C",
"{#	c #AC6B4C",
"]#	c #A86B4D",
"^#	c #957856",
"/#	c #7C9562",
"(#	c #6EAF65",
"_#	c #A9B97E",
":#	c #7E815C",
"<#	c #96644B",
"[#	c #A1664D",
"}#	c #A0674D",
"|#	c #9A6B50",
"1#	c #838A5E",
"2#	c #63B66E",
"3#	c #BABC7F",
"4#	c #9EB77E",
"5#	c #73B27C",
"6#	c #52AC7A",
"7#	c #5CA675",
"8#	c #82805C",
"9#	c #9E644B",
"0#	c #9C624B",
"a#	c #8B7C58",
"b#	c #729B6B",
"c#	c #6BAC69",
"d#	c #7A8A62",
"e#	c #897454",
"f#	c #9A684E",
"g#	c #A1664C",
"h#	c #B16E4D",
"i#	c #A76E4E",
"j#	c #8D7E5B",
"k#	c #71A465",
"l#	c #BEBD80",
"m#	c #A1B87E",
"n#	c #7B8B63",
"o#	c #976A4F",
"p#	c #A1654B",
"q#	c #A7674C",
"r#	c #B16C4C",
"s#	c #B5704E",
"t#	c #B8714E",
"u#	c #B97A52",
"v#	c #908D63",
"w#	c #64A471",
"x#	c #83B47D",
"y#	c #52AD7A",
"z#	c #95694D",
"A#	c #A6664C",
"B#	c #B06C4C",
"C#	c #B9734E",
"D#	c #BF7750",
"E#	c #C67C52",
"F#	c #C17A52",
"G#	c #AC875D",
"H#	c #839968",
"I#	c #F0C783",
"J#	c #93B47D",
"K#	c #64B07B",
"L#	c #60A373",
"M#	c #84805C",
"N#	c #9F6149",
"O#	c #A48A5F",
"P#	c #7DA16E",
"Q#	c #DAC282",
"R#	c #B0B67F",
"S#	c #81B07C",
"T#	c #5EAF7B",
"U#	c #6B9A6D",
"V#	c #93674C",
"W#	c #C07750",
"X#	c #9C825A",
"Y#	c #67A56E",
"Z#	c #F6C884",
"`#	c #ECC583",
" $	c #D1B981",
".$	c #A1B07E",
"+$	c #6EAF7C",
"@$	c #4EAF7B",
"#$	c #945D45",
"$$	c #A1654C",
"%$	c #B56F4C",
"&$	c #B77652",
"*$	c #8E8B61",
"=$	c #6BB068",
"-$	c #E4BE82",
";$	c #B3B47F",
">$	c #78B07C",
",$	c #58A977",
"'$	c #679C6D",
")$	c #817C58",
"!$	c #925A43",
"~$	c #975E46",
"{$	c #A86C4E",
"]$	c #A37554",
"^$	c #8F8B5E",
"/$	c #6CA86F",
"($	c #E6C383",
"_$	c #B7BA7F",
":$	c #7AB27C",
"<$	c #63A070",
"[$	c #778C63",
"}$	c #887655",
"|$	c #975D46",
"1$	c #9B6149",
"2$	c #9D6A50",
"3$	c #8D815E",
"4$	c #7C9868",
"5$	c #E4C482",
"6$	c #B5BB7F",
"7$	c #64A172",
"8$	c #81815C",
"9$	c #95634A",
"0$	c #9B5E48",
"a$	c #9C614A",
"b$	c #9F664E",
"c$	c #987355",
"d$	c #6DA071",
"e$	c #5DB771",
"f$	c #54AC79",
"g$	c #7D8760",
"h$	c #98644B",
"i$	c #A1644B",
"j$	c #A6674C",
"k$	c #997255",
"l$	c #699F70",
"m$	c #5FB66F",
"n$	c #D8C281",
"o$	c #ADBA7F",
"p$	c #7CB37C",
"q$	c #65A071",
"r$	c #8A7957",
"s$	c #9D6049",
"t$	c #A7684D",
"u$	c #BA734E",
"v$	c #B6714E",
"w$	c #9C7152",
"x$	c #7A9061",
"y$	c #61B26E",
"z$	c #CBBF81",
"A$	c #90B67D",
"B$	c #887B58",
"C$	c #AA6A4C",
"D$	c #B36E4B",
"E$	c #B9714D",
"F$	c #C77E54",
"G$	c #B77F57",
"H$	c #8B8E63",
"I$	c #F2C783",
"J$	c #D1C081",
"K$	c #9DB77E",
"L$	c #7A8860",
"M$	c #98684E",
"N$	c #C98054",
"O$	c #C07D54",
"P$	c #938B63",
"Q$	c #64A873",
"R$	c #DFC382",
"S$	c #80B47C",
"T$	c #AF6B4C",
"U$	c #98835D",
"V$	c #7A9162",
"W$	c #DEC382",
"X$	c #C3BE80",
"Y$	c #53AF7B",
"Z$	c #7A8760",
"`$	c #A47755",
" %	c #6D9E6E",
".%	c #5AB274",
"+%	c #79B37C",
"@%	c #758D64",
"#%	c #AF6C4B",
"$%	c #C37D53",
"%%	c #9F7E59",
"&%	c #66AA71",
"*%	c #77B27C",
"=%	c #5CB07B",
"-%	c #837E5A",
";%	c #9B634B",
">%	c #B87A52",
",%	c #8E9266",
"'%	c #6EA270",
")%	c #60B671",
"!%	c #719369",
"~%	c #916F52",
"{%	c #B4704D",
"]%	c #A57654",
"^%	c #947B59",
"/%	c #6F9B6B",
"(%	c #857D5A",
"_%	c #A16C50",
":%	c #838D65",
"<%	c #6EA26A",
"[%	c #84B47D",
"}%	c #9E6B50",
"|%	c #888862",
"1%	c #63A972",
"2%	c #847E5A",
"3%	c #AF6C4D",
"4%	c #AD6D4D",
"5%	c #9B7153",
"6%	c #749567",
"7%	c #5FB370",
"8%	c #779066",
"9%	c #936F52",
"0%	c #A9684C",
"a%	c #BA734D",
"b%	c #B97550",
"c%	c #967E5A",
"d%	c #729F67",
"e%	c #C37F54",
"f%	c #A5885F",
"g%	c #76A06E",
"h%	c #6AB17C",
"i%	c #BE7D54",
"j%	c #908B62",
"k%	c #6D9F6B",
"l%	c #C47D54",
"m%	c #A17956",
"n%	c #7A8F63",
"o%	c #61B36F",
"p%	c #976A4E",
"q%	c #A17B58",
"r%	c #64A773",
"s%	c #5DB671",
"t%	c #8E7354",
"u%	c #C57B52",
"v%	c #BF7C53",
"w%	c #978860",
"x%	c #67A972",
"y%	c #C6BE80",
"z%	c #91B67D",
"A%	c #98664C",
"B%	c #BA714C",
"C%	c #B57550",
"D%	c #988960",
"E%	c #819267",
"F%	c #62AB72",
"G%	c #B1BB7F",
"H%	c #70B27C",
"I%	c #65A170",
"J%	c #8A7856",
"K%	c #A76B4E",
"L%	c #967656",
"M%	c #769365",
"N%	c #CEC081",
"O%	c #A4664D",
"P%	c #9C6F53",
"Q%	c #709D6F",
"R%	c #66AD6D",
"S%	c #75C857",
"            . + @ # $ $ $ $ $ $ % & * = = = = = = = = = = = = = = = = = = = = = = = = = = = = = = = = = = = = = = = = = = = = = ",
"  - ; > , ' ) ! ~ # { ] ^ ^ ^ ^ / ( _ : = = = = = = = = = = = = = = = = = = = = = = = = = = = = = = = = = = = = = = = = = = = = ",
"  ; < [ } | 1 2 3 4 5 6 7 8 9 0 a b c = = = = = = = = = = = = = = = = = = = = = = = = = = = = = = = = = = = = = = = = = = = = = ",
"  d e f g h i j k l m n o p q r s t u = = = = = = = = = = = = = = = = = = = = = = = = = = = = = = = = = = = = = = = = = = = = = ",
"  v w x y z A B C D 7 o E F G H I J = = = = = = = = = = = = = = = = = = = = = = = = = = = = = = = = = = = = = = = = = = = = = = ",
"  K L M N z O P Q R S T U V W X Y Z = = = = = = = = = = = = = = = = = = = = = = = = = = = = = = = = = = = = = = = = = = = = = = ",
"  f x ` h z  ...C m n +.@.V #.$.%.&.*.= = = = = = = = = = = = = = = = = = = = = = = = = = = = = = = = = = = = = = = = = = = = = ",
"  =.-.;.) z >.,.'.] ).!.~.E {.].^./.= = = = = = = = = = = = = = = = = = = = = = = = = = = = = = = = = = = = = = = = = = = = = = ",
"  (._.:.) z <.[.}.$ |.1.2.o 3.4.5.6.7.= = = = = = = = = = = = = = = = = = = = = = = = = = = = = = = = = = = = = = = = = = = = = ",
"  8.9.g 0.z z a.b.c.d.R n S e.f.g.h.i.= = = = = = = = = = = = = = = = = = = = = = = = = = = = = = = = = = = = = = = = = = = = = ",
"  j.k.l.y z z m.n.o.p.q.m r.r.D s.t.u.= = = = = = = = = = = = = = = = = = = = = = = = = = = = = = = = = = = = = = = = = = = = = ",
"  v.w.x.y.z z z.A.B.C.D.E.'.$ $ F.G.H.= = = = = = = = = = = = = = = = = = = = = = = = = = = = = = = = = = = = = = = = = = = = = ",
"  I.J.K.L.z z z M.N.O.P.Q.R.E.'.$ S.T.U.= = = = = = = = = = = = = = = = = = = = = = = = = = = = = = = = = = = = = = = = = = = = ",
"  V.W.X.Y.h z z z m.Z.`. +.+++@+$ #+$+%+&+*+= = = = = = = = = = = = = = = = = = = = = = = = = = = = = = = = = = = = = = = = = = ",
"  =+L -+;+-.>+z z z z m.,+'+R.$ )+!+~+{+]+^+= = = = = = = = = = = = = = = = = = = = = = = = = = = = = = = = = = = = = = = = = = ",
"  /+(+w._+:+>+z z z z ) <+[+}+|+1+2+$.U 3+4+5+= = = = = = = = = = = = = = = = = = = = = = = = = = = = = = = = = = = = = = = = = ",
"  6+j.7+8+9+>+z z z z z 0+a+b+c+d+@.F V e+f+g+= = = = = = = = = = = = = = = = = = = = = = = = = = = = = = = = = = = = = = = = = ",
"  ; /+=+h+i+>+z z z z z j+k+l+m+8 n+o+U U p+q+r+= = = = = = = = = = = = = = = = = = = = = = = = = = = = = = = = = = = = = = = = ",
"  s+t+u+_+v+>+z z z z z w+x+y+z+A+B+~+2+T C+D+E+F+= = = = = = = = = = = = = = = = = = = = = = = = = = = = = = = = = = = = = = = ",
"    ; G+L X.>+z z z z z z H+I+J+K+L+5 M+N+O+P+Q+R+S+= = = = = = = = = = = = = = = = = = = = = = = = = = = = = = = = = = = = = = ",
"    - T+U+V+h z z z z z z z W+Z.X+B.Y+'.Z+] 5 d.`+ @.@= = = = = = = = = = = = = = = = = = = = = = = = = = = = = = = = = = = = = ",
"    . < +@V+h z z z z z z z z @@#@$@%@&@*@=@=@$ }+-@;@>@,@= = = = = = = = = = = = = = = = = = = = = = = = = = = = = = = = = = = ",
"  - 6+'@8.(.>+z z z z z z z z z z H+)@!@~@q.|.m+{@]@^@/@(@_@= = = = = = = = = = = = = = = = = = = = = = = = = = = = = = = = = = ",
"  ; :@k.<@| >+z z z z z z z z z z [@}@|@1@m 2@2@3@4@5@6@7@8@= = = = = = = = = = = = = = = = = = = = = = = = = = = = = = = = = = ",
"  9@/++@0@a@z z z z z z z z z z b@c@d@L+5 e@f@2+o+g@h@i@j@= = = = = = = = = = = = = = = = = = = = = = = = = = = = = = = = = = = ",
"  s+t+k@l@v+>+z z z z z z z z z m@n@o@|+N+S 0 $.V p@q@r@s@= = = = = = = = = = = = = = = = = = = = = = = = = = = = = = = = = = = ",
"  ; < t@u@_.>+z z z z z z z z z m@v@L+w@7 !.C+#.V x@y@z@A@= = = = = = = = = = = = = = = = = = = = = = = = = = = = = = = = = = = ",
"  < B@C@V+y.>+z z z z z z z z z D@E@'.|.e@e.F@F V G@H@I@J@= = = = = = = = = = = = = = = = = = = = = = = = = = = = = = = = = = = ",
"  k.K@X.L.z z z z z z z z z z z L@M@N@O@D 7 P@Q@R@S@T@U@V@= = = = = = = = = = = = = = = = = = = = = = = = = = = = = = = = = = = ",
"  W@g X@>+z z z z z z z z z z z #@Y@Z@`@{ R  #!.2+n+.#+#@#= = = = = = = = = = = = = = = = = = = = = = = = = = = = = = = = = = = ",
"  ##Y.0.>+z z z z z z z z z z z $#m@%#&#p.w@1. # #S *#=#-#;#= = = = = = = = = = = = = = = = = = = = = = = = = = = = = = = = = = ",
"  9.>#| h z z z z z z z z z z z z W+,#'#)#!#~#c+{#r.]#^#/#(#= = = = = = = = = = = = = = = = = = = = = = = = = = = = = = = = = = ",
"  u+_#V+;.z z z z z z z z z z z w+D@:#<#1@$ !#[#!#}#|#1#2#= = = = = = = = = = = = = = = = = = = = = = = = = = = = = = = = = = = ",
"  3#4#5#0.z z z z z z z z z $#6#7#8#B 9#$ !#!#[#0#a#b#c#= = = = = = = = = = = = = = = = = = = = = = = = = = = = = = = = = = = = ",
"  f x _.N z z z z z z z z z 7#d#e#f#g#{ w@!+h#i#j#k#= = = = = = = = = = = = = = = = = = = = = = = = = = = = = = = = = = = = = = ",
"  l#m#(.0.z z z z z z z $#7#n#o#p#q#r#s#t#F@u#v#w#= = = = = = = = = = = = = = = = = = = = = = = = = = = = = = = = = = = = = = = ",
"  > k.x#L.z z z z z z z y#X+z#A#B#C#D#E#{.F#G#H#= = = = = = = = = = = = = = = = = = = = = = = = = = = = = = = = = = = = = = = = ",
"  I#B@J#K#h z z z z z z L#M#N#m f@q G V E#O#P#= = = = = = = = = = = = = = = = = = = = = = = = = = = = = = = = = = = = = = = = = ",
"  9@Q#R#S#T#>+z z z z z U#V#$ ~#8 W#F V E#X#Y#= = = = = = = = = = = = = = = = = = = = = = = = = = = = = = = = = = = = = = = = = ",
"  Z#`# $.$+$>+z z z @$#@a.#$}.$$w@%$0 n+&$*$=$= = = = = = = = = = = = = = = = = = = = = = = = = = = = = = = = = = = = = = = = = ",
"    Z#-$;$>$h z @$z.,$'$)$!$~$E.!#|.{$]$^$/$= = = = = = = = = = = = = = = = = = = = = = = = = = = = = = = = = = = = = = = = = = ",
"    - ($_$:$h z w+<$[$}$#$|$1$E.$ 2$3$4$= = = = = = = = = = = = = = = = = = = = = = = = = = = = = = = = = = = = = = = = = = = = ",
"    s+5$6$(.>+w+7$8$9$0$a$@+$ $ b$c$d$e$= = = = = = = = = = = = = = = = = = = = = = = = = = = = = = = = = = = = = = = = = = = = ",
"  Z#v.e C@| z f$g$h$i$q.j$j$A+5 )+k$l$m$= = = = = = = = = = = = = = = = = = = = = = = = = = = = = = = = = = = = = = = = = = = = ",
"  d n$o$p$0.y#q$r$s$t$e@n %$O+u$v$w$x$y$= = = = = = = = = = = = = = = = = = = = = = = = = = = = = = = = = = = = = = = = = = = = ",
"  I#z$A$X@z x+B$Y+{ C$D$E$n+C+F$G$H$= = = = = = = = = = = = = = = = = = = = = = = = = = = = = = = = = = = = = = = = = = = = = = ",
"  I$J$K$##) L$M$$$w@1.E$C+N$U O$P$Q$= = = = = = = = = = = = = = = = = = = = = = = = = = = = = = = = = = = = = = = = = = = = = = ",
"  6+R$k.S$h O P Q T$S T S@V W O$U$V$= = = = = = = = = = = = = = = = = = = = = = = = = = = = = = = = = = = = = = = = = = = = = = ",
"  W$n$X$0@Y$Z$M$Q R S 2+G V V 3+`$ %.%= = = = = = = = = = = = = = = = = = = = = = = = = = = = = = = = = = = = = = = = = = = = = ",
"  =+L V.+%h @%d@p.A+#%!.n+R@U $%%%&%= = = = = = = = = = = = = = = = = = = = = = = = = = = = = = = = = = = = = = = = = = = = = = ",
"  V.W.*%=%) ,$-%;%$ |.1+!.o 3.>%,%'%)%= = = = = = = = = = = = = = = = = = = = = = = = = = = = = = = = = = = = = = = = = = = = = ",
"  I.J.K.L.z z !%~%c.d.R  #S !.{%]%^%/%= = = = = = = = = = = = = = = = = = = = = = = = = = = = = = = = = = = = = = = = = = = = = ",
"  v.w.x.y.z z m@(%s$!#|+w@D C$w@_%:%<%= = = = = = = = = = = = = = = = = = = = = = = = = = = = = = = = = = = = = = = = = = = = = ",
"  j.k.[%y z z M.8$# $ !#{ { { { }%|%1%= = = = = = = = = = = = = = = = = = = = = = = = = = = = = = = = = = = = = = = = = = = = = ",
"  8.9.g 0.z @$<.2%# |+D c+c+R 3%4%5%6%7%= = = = = = = = = = = = = = = = = = = = = = = = = = = = = = = = = = = = = = = = = = = = ",
"  (._.y ) z <.8%9%1@0%1.2.a%n+p b%c%d%= = = = = = = = = = = = = = = = = = = = = = = = = = = = = = = = = = = = = = = = = = = = = ",
"  =.-.;.) z >.~%1@] ).!.~.E {.e%f%g%= = = = = = = = = = = = = = = = = = = = = = = = = = = = = = = = = = = = = = = = = = = = = = ",
"  f x h%h z  ...C m n +.@.V U i%j%k%= = = = = = = = = = = = = = = = = = = = = = = = = = = = = = = = = = = = = = = = = = = = = = ",
"  K L K.N z O P Q R S T U V V l%m%n%o%= = = = = = = = = = = = = = = = = = = = = = = = = = = = = = = = = = = = = = = = = = = = = ",
"  v w x y z A p%C D 7 o E F V 3+q%r%s%= = = = = = = = = = = = = = = = = = = = = = = = = = = = = = = = = = = = = = = = = = = = = ",
"  d e f :+>+,#t%E.Z+m n o p u%v%w%x%= = = = = = = = = = = = = = = = = = = = = = = = = = = = = = = = = = = = = = = = = = = = = = ",
"  ; < y%z%y.$# .A%'.5 r#S !.B%C%D%E%F%= = = = = = = = = = = = = = = = = = = = = = = = = = = = = = = = = = = = = = = = = = = = = ",
"  - ; > G%H%z I%J%~@{ w@2@7 7 !+K%L%M%= = = = = = = = = = = = = = = = = = = = = = = = = = = = = = = = = = = = = = = = = = = = = ",
"        . N%>#! ~ # $ { d.d.d.O%P%Q%R%= = = = = = = = = = = = = = = = = = = = = = = = = = = = = S%= = = = = = = = = = = = = = = "};
