/* XPM */
static char * tiles6_xpm[] = {
"64 64 347 2",
"  	c #3B703E",
". 	c #263F28",
"+ 	c #42773B",
"@ 	c #5E9524",
"# 	c #81BB0B",
"$ 	c #536D41",
"% 	c #885F4C",
"& 	c #A3755A",
"* 	c #F1B183",
"= 	c #F8C984",
"- 	c #263E28",
"; 	c #31552F",
"> 	c #80BA0B",
", 	c #906550",
"' 	c #366337",
") 	c #895F4C",
"! 	c #906650",
"~ 	c #7AB10E",
"{ 	c #79B00F",
"] 	c #534836",
"^ 	c #515138",
"/ 	c #4A6E40",
"( 	c #556C42",
"_ 	c #89604D",
": 	c #9A6D55",
"< 	c #9B6E56",
"[ 	c #F7C684",
"} 	c #7DB615",
"| 	c #7CB516",
"1 	c #3F743C",
"2 	c #40743C",
"3 	c #534735",
"4 	c #515037",
"5 	c #476F3F",
"6 	c #F7C784",
"7 	c #3A703E",
"8 	c #43763D",
"9 	c #A9E301",
"0 	c #A0DA02",
"a 	c #3C713E",
"b 	c #875E4C",
"c 	c #A57D5A",
"d 	c #3A6E3D",
"e 	c #42753C",
"f 	c #A7E101",
"g 	c #9FD903",
"h 	c #80BA0C",
"i 	c #3E733D",
"j 	c #536E40",
"k 	c #86604C",
"l 	c #8E644F",
"m 	c #A9805C",
"n 	c #F8C884",
"o 	c #335B32",
"p 	c #4B6E40",
"q 	c #3F733D",
"r 	c #568A35",
"s 	c #79B219",
"t 	c #3D713D",
"u 	c #3C713D",
"v 	c #8D634F",
"w 	c #8F644F",
"x 	c #548836",
"y 	c #7AB319",
"z 	c #3A6F3E",
"A 	c #477C38",
"B 	c #8AC409",
"C 	c #A6E001",
"D 	c #9CD514",
"E 	c #396F3E",
"F 	c #516D41",
"G 	c #84614B",
"H 	c #84604B",
"I 	c #F7C484",
"J 	c #457939",
"K 	c #87C10A",
"L 	c #8DC60C",
"M 	c #A0D813",
"N 	c #97CE1D",
"O 	c #3C703E",
"P 	c #5C6B43",
"Q 	c #8B614D",
"R 	c #A17359",
"S 	c #82BC0B",
"T 	c #A9E300",
"U 	c #99D01B",
"V 	c #396E3E",
"W 	c #436F3F",
"X 	c #9B6E55",
"Y 	c #457A39",
"Z 	c #84BE0A",
"` 	c #85BF0A",
" .	c #A4DD0B",
"..	c #95CC1E",
"+.	c #446F3F",
"@.	c #926751",
"#.	c #A27459",
"$.	c #467B39",
"%.	c #A8E103",
"&.	c #3E733E",
"*.	c #4C6E40",
"=.	c #8A614D",
"-.	c #467B38",
";.	c #A8E200",
">.	c #A7E104",
",.	c #875F4C",
"'.	c #81BA0E",
").	c #3D723E",
"!.	c #3D703E",
"~.	c #456F3F",
"{.	c #F5BE84",
"].	c #80BA0E",
"^.	c #39571F",
"/.	c #7FB90E",
"(.	c #79B115",
"_.	c #36521E",
":.	c #7CB512",
"<.	c #77B016",
"[.	c #7CB511",
"}.	c #7BB513",
"|.	c #5B8D38",
"1.	c #55873A",
"2.	c #609724",
"3.	c #99D11A",
"4.	c #325C35",
"5.	c #385722",
"6.	c #629922",
"7.	c #649B22",
"8.	c #A8E201",
"9.	c #486E40",
"0.	c #4E6D40",
"a.	c #80BA0D",
"b.	c #80B90D",
"c.	c #83BD0B",
"d.	c #A5DF07",
"e.	c #97CD1E",
"f.	c #416F3F",
"g.	c #506D41",
"h.	c #3F743D",
"i.	c #546D41",
"j.	c #3B6F3E",
"k.	c #467A39",
"l.	c #A9E201",
"m.	c #A7E105",
"n.	c #40733E",
"o.	c #8A604D",
"p.	c #8C624E",
"q.	c #284128",
"r.	c #43783A",
"s.	c #A2DB0D",
"t.	c #40743D",
"u.	c #44753D",
"v.	c #86604B",
"w.	c #253B26",
"x.	c #2C4C2D",
"y.	c #9AD21A",
"z.	c #3E703E",
"A.	c #8D634E",
"B.	c #A6775B",
"C.	c #AC7B5E",
"D.	c #F3B984",
"E.	c #F0B183",
"F.	c #9C6F56",
"G.	c #533D33",
"H.	c #775C43",
"I.	c #F9CA84",
"J.	c #8E664F",
"K.	c #A37B59",
"L.	c #4E6E40",
"M.	c #7E6246",
"N.	c #937450",
"O.	c #F9C984",
"P.	c #A37A59",
"Q.	c #B28961",
"R.	c #76AC1F",
"S.	c #9ED715",
"T.	c #875E4B",
"U.	c #A57C5A",
"V.	c #F9CA85",
"W.	c #F7C584",
"X.	c #F2B383",
"Y.	c #3F733C",
"Z.	c #7AB11D",
"`.	c #9ED615",
" +	c #946852",
".+	c #A5765B",
"++	c #936852",
"@+	c #89604C",
"#+	c #956C52",
"$+	c #AE855E",
"%+	c #F2B583",
"&+	c #A7785C",
"*+	c #916850",
"=+	c #477B38",
"-+	c #9CD417",
";+	c #956B52",
">+	c #98CF1C",
",+	c #9E7057",
"'+	c #5D7C17",
")+	c #5D7E18",
"!+	c #76AD1E",
"~+	c #629923",
"{+	c #669835",
"]+	c #619337",
"^+	c #7A6449",
"/+	c #7B6349",
"(+	c #986B54",
"_+	c #D99E76",
":+	c #F6C384",
"<+	c #F6C484",
"[+	c #AAE400",
"}+	c #9AD30E",
"|+	c #F1B283",
"1+	c #A9E400",
"2+	c #90C71B",
"3+	c #9ED70B",
"4+	c #A1DA08",
"5+	c #A0D912",
"6+	c #5A8C38",
"7+	c #7E634A",
"8+	c #81624A",
"9+	c #F2B683",
"0+	c #A7E006",
"a+	c #7EB80E",
"b+	c #75AC1F",
"c+	c #A2DB10",
"d+	c #9FD714",
"e+	c #41763C",
"f+	c #497E37",
"g+	c #7EB80F",
"h+	c #6DA321",
"i+	c #A3DC06",
"j+	c #9ED710",
"k+	c #467B3B",
"l+	c #477C3B",
"m+	c #51843A",
"n+	c #5F7D3E",
"o+	c #82614B",
"p+	c #F7C384",
"q+	c #3B703D",
"r+	c #81BC0A",
"s+	c #82BC0A",
"t+	c #39703E",
"u+	c #8F6550",
"v+	c #3D723D",
"w+	c #7FB80E",
"x+	c #976B54",
"y+	c #563F34",
"z+	c #594135",
"A+	c #487D37",
"B+	c #78B115",
"C+	c #79B214",
"D+	c #406F3F",
"E+	c #5A6B42",
"F+	c #5E6B43",
"G+	c #997055",
"H+	c #9A7155",
"I+	c #7AB413",
"J+	c #7AB314",
"K+	c #9F7258",
"L+	c #EAAC7F",
"M+	c #80624A",
"N+	c #986C54",
"O+	c #F4BD84",
"P+	c #906850",
"Q+	c #A6DF01",
"R+	c #98CF1A",
"S+	c #4C7F3B",
"T+	c #4D7F3B",
"U+	c #527E3C",
"V+	c #F1C081",
"W+	c #2C381B",
"X+	c #9BD30E",
"Y+	c #A7DE0E",
"Z+	c #885E4C",
"`+	c #F6C783",
" @	c #865E4B",
".@	c #A9E200",
"+@	c #9FD80A",
"@@	c #7DB31D",
"#@	c #78AF1E",
"$@	c #9ED704",
"%@	c #A8DF0A",
"&@	c #949A3F",
"*@	c #88614C",
"=@	c #DAAE74",
"-@	c #CFA46F",
";@	c #8F674F",
">@	c #A9E203",
",@	c #89654B",
"'@	c #496819",
")@	c #4E6F18",
"!@	c #9ED806",
"~@	c #9AD20E",
"{@	c #92CA14",
"]@	c #7DB610",
"^@	c #A0DA03",
"/@	c #A0D905",
"(@	c #929341",
"_@	c #908944",
":@	c #AB7A5E",
"<@	c #A8795C",
"[@	c #A3D021",
"}@	c #F2B483",
"|@	c #7AB219",
"1@	c #9BD318",
"2@	c #98C229",
"3@	c #A3745A",
"4@	c #A4755A",
"5@	c #DFA379",
"6@	c #F6C584",
"7@	c #F3B883",
"8@	c #526C41",
"9@	c #5F4538",
"0@	c #87634B",
"a@	c #386A3B",
"b@	c #3C6E3A",
"c@	c #7FB90F",
"d@	c #75AD1B",
"e@	c #7FB90D",
"f@	c #82614A",
"g@	c #E7AA7E",
"h@	c #E7A97D",
"i@	c #7E5C47",
"j@	c #EFB082",
"k@	c #F3B683",
"l@	c #325C34",
"m@	c #467430",
"n@	c #5F9624",
"o@	c #75AE17",
"p@	c #76AE17",
"q@	c #7AB213",
"r@	c #606A43",
"s@	c #666945",
"t@	c #EFAF82",
"u@	c #486619",
"v@	c #3E581A",
"w@	c #629721",
"x@	c #518122",
"y@	c #558822",
"z@	c #5F9523",
"A@	c #356136",
"B@	c #475D39",
"C@	c #755242",
"D@	c #765342",
"E@	c #CD966F",
"F@	c #EFBF7F",
"      .   + @ @ @ @ @ @ @ @ @ @ @ @ @ @ # # # #       $ % % % % % % % & * * = = = = = = = = = = = = = = = = = = = = = = = = = = ",
"      -   + @ @ @ @ @ @ @ @ @ @ @ @ @ @ # # # #       $ % % % % % % % & * * = = = = = = = = = = = = = = = = = = = = = = = = = = ",
"  ; > # # # # # @ @ @ @ @ @ @ @ @ @ @ @ # # @ @       $ % % % , * * * * * * * * = = = = = = = = = = = = = = = = = = = = = = = = ",
"  ' # # # # # # @ @ @ @ @ @ @ @ @ @ @ @ # # @ @       $ ) % % ! * * * * * * * * = = = = = = = = = = = = = = = = = = = = = = = = ",
"~ { @ @ @ @ @ @ @ @ @ @ @ @ @ @ @ @ @ @ @ @ @ @     ] ^ / ( % _ : < * * * * [ [ = = = = = = = = = = = = = = = = = = = = = = = = ",
"} | @ @ @ @ @ @ @ @ @ @ @ @ @ @ @ @ @ @ @ @ @ @ 1 2 3 4 5 $ % % % _ * * * * 6 6 = = = = = = = = = = = = = = = = = = = = = = = = ",
"7 8 9 0 # # @ @ @ @ @ @ @ @ @ @ @ @ @ @ @ @ @ @ @ @ a $ % % % % % % b c = 6 * * = = = = = = = = = = = = = = = = = = = = = = = = ",
"d e f g # h @ @ @ @ @ @ @ @ @ @ @ @ @ @ @ @ @ @ @ @ i j k k % % l l l m n [ * * = = = = = = = = = = = = = = = = = = = = = = = = ",
"  o # # # h @ @ @ @ @ @ @ @ @ @ @ @ @ @ @ @ @ @ @ @ @ @   p % ! * * * * * * = = = = = = = = = = = = = = = = = = = = = = = = = = ",
"  o # # # h @ @ @ @ @ @ @ @ @ @ @ @ @ @ @ @ @ @ @ @ @ @   / % ! * * * * * * = = = = = = = = = = = = = = = = = = = = = = = = = = ",
"    q r # h @ @ @ @ @ @ @ @ @ @ h h h h h s a t t t t u   / % % v w * * * * * * = = = = = = = = = = = = = = = = = = = = = = = = ",
"      x # h @ @ @ @ @ @ @ @ @ @ # # # # # y z           7 / % % b ) * * * * * * = = = = = = = = = = = = = = = = = = = = = = = = ",
"      A @ @ @ @ @ @ @ @ @ @ @ @ # # # B C D E         F G H % , * * [ 6 6 I * * = = = = = = = = = = = = = = = = = = = = = = = = ",
"      J @ @ @ @ @ @ @ @ @ @ @ @ # # K L M N z O p p p P % Q < R * * I 6 = 6 * * = = = = = = = = = = = = = = = = = = = = = = = = ",
"          + @ @ @ @ @ @ @ @ @ @ # S T U V z   W % % % % % X * * * * * * = = = = = = = = = = = = = = = = = = = = = = = = = = = = ",
"      a i Y @ @ @ @ @ @ @ @ @ @ Z `  ...  O +.p % % @.@.@.#.* * * * * * n n = = = = = = = = = = = = = = = = = = = = = = = = = = ",
"      $.@ @ @ @ @ @ @ @ @ @ @ @ T %.&.z   *.) % % =.* * * * * * = = * * * * = = = = = = = = = = = = = = = = = = = = = = = = = = ",
"    u -.@ @ @ @ @ @ @ @ @ @ @ @ ;.>.q     p ,.,.% =.* * * * * * = = * * * * = = = = = = = = = = = = = = = = = = = = = = = = = = ",
"    @ @ @ @ @ @ @ @ @ @ @ @ @ @ S '.).      !.~.% =.* * * * = = = = = {.* * * * = = = = = = = = = = = = = = = = = = = = = = = = ",
"    @ @ @ @ @ @ @ @ @ @ @ @ @ @ # ].).        W % =.* * * * = = = = = I * * * * = = = = = = = = = = = = = = = = = = = = = = = = ",
"    ' ^.@ @ @ @ @ @ /.(.@ @ @ @ # ].).        W % =.* * * * = = = = = = n n n n = = = = = = = = = = = = = = = = = = = = = = = = ",
"      _.@ @ @ @ @ @ :.<.@ @ @ @ [.}.|.1.      W % =.* * * * = = = = = = = = = = = = = = = = = = = = = = = = = = = = = = = = = = ",
"      _.@ @ @ @ @ @ @ @ # # # /.@ 2.;.3.7     W % =.* * = = = = = = = = = = = = = = = = = = = = = = = = = = = = = = = = = = = = ",
"    4.5.@ @ @ @ @ @ @ @ # # # /.6.7.8.U 7 !.9.0.% =.* * = = = = = = = = = = = = = = = = = = = = = = = = = = = = = = = = = = = = ",
"      $.@ @ @ @ @ @ @ @ # # # # # S ;.U 7 *.) % % =.* * = = = = = = = = = = = = = = = = = = = = = = = = = = = = = = = = = = = = ",
"      $.@ @ @ @ @ @ @ @ a.b.b.a.c.Z d.e.f.g.% % % =.* * = = = = = = = = = = = = = = = = = = = = = = = = = = = = = = = = = = = = ",
"      $.@ @ @ @ @ @ @ @ @ @ @ @ T %.h.i.% % % % % =.* * = = = = = = = = = = = = = = = = = = = = = = = = = = = = = = = = = = = = ",
"    j.k.@ @ @ @ @ @ @ @ @ @ @ @ l.m.n.( % % % % o.p.* * = = = = = = = = = = = = = = = = = = = = = = = = = = = = = = = = = = = = ",
"      q.u r.@ @ @ @ @ @ @ @ 8.s.t.u.v.,.% % % @.* * * * = = = n * * * * * * * * * * n = = = = = = = = = = = = = = = = = = = = = ",
"    w.x.  + @ @ @ @ @ @ @ @ y...z z.,.% % A.B.C.* * * * {.{.{.D.* * * * E.* * * * * * * = = = = = = = = = = = = = = = = = = = = ",
"          + @ @ @ @ @ @ @ @ z z   z.,.% % F.* * * * * * * * * * * * n * G.H.I.= = = J.K.= = = = = = = = = = = = = = = = = = = = ",
"          + @ @ @ @ @ @ @ @   O *.L.,.% % F.* * * * * * * * * * * * * * M.N.O.= = = P.Q.[ [ = = = = = = = = = = = = = = = = = = ",
"          + @ @ @ @ @ R.T S.E ~.) % % % % F.* * T.T.T.T.T.T.T.T.T.T.T.U.V.O.= = = = O.W.* X.= = = = = = = = = = = = = = = = = = ",
"      a Y.Y @ @ @ @ @ Z.T `.E ~.% % % Q  +.+* * ++ +% % % % % @+#+#+#+$+= = = = = = = W.X.%+= = = = = = = = = = = = = = = = = = ",
"      $.@ @ @ @ @ @ T T T `.E ~.% % % &+* * * * * * p.% % % % *+= = = = = = = = = = = = = = = = = = = = = = = = = = = = = = = = ",
"    u =+@ @ @ @ @ @ 8.l.>.-+E ~.% % % B.* * * * * * p.@+p.p.p.;+= = = = = = = = = = = = = = = = = = = = = = = = = = = = = = = = ",
"    @ @ @ @ @ @ @ @ 8.>+).).  ~.% % % % o.,+* * _ o.% .+* * * * = = = = = = = = = = = = = = = = = = = = = = = = = = = = = = = = ",
"'+)+!+~+@ @ @ @ @ @ 8.-+{+]+  W ^+/+% % % (+* _+% % % .+* * * * = = = = = = = = = = = = = n :+<+= = = = = = = = = = = = = = = = ",
"[+T T }+@ @ @ @ @ @ 8.T T `.E     z.,.% % % % % % % % .+* * * * = = = = = = = = = = = = = 6 * |+= = = = = = = = = = = = = = = = ",
"1+l.-+2+@ @ @ @ @ @ 3+4+T 5+|.6+  !.7+8+% % % % % % % .+* * * * W.W.= = = = W.W.W.W.= = = 6 %+9+= = = = = = = = = = = = = = = = ",
"1+0+  Y @ @ # a+@ @ @ b+T T T  .z   7 i.% % % % % % % .+* * * * * * n = = 6 * * * * n = = = = = = = = = = = = = = = = = = = = = ",
"c+d+e+f+@ @ # g+@ @ @ h+i+i+i+j+k+l+m+n+o+o+o+o+% % % #.* * * * * * [ [ [ p+* * * * [ 6 = = = = = = = = = = = = = = = = = = = = ",
"E q+@ @ @ @ # g+@ @ @ @ @ @ @ @ r+s+T 3.t+7 7 W % % % % T.T.T.u+* * * * * * * * * * * * = = = = = = = = = = = = = = = = = = = = ",
"  v+@ @ @ @ # w+@ @ @ @ @ @ @ @ Z Z ;.U 7     W % % % o.! ! ! x+* * * * * * * * * * * * = = = = = = = = = = = = = = = = = = = = ",
"  v+@ @ @ @ # # # h @ @ @ @ @ @ T T T U 7     W % % % .+* * * * y+z+* * * * * * = = = = = = = = = = = = = = = = = = = = = = = = ",
"A A+@ @ @ @ B+C+# h @ @ @ @ @ @ g g T U 7 D+E+F+% % % .+* * * * G+H+* * * * * * = = = = = = = = = = = = = = = = = = = = = = = = ",
"@ @ @ @ @ @ @ @ # h @ @ @ @ @ @ # # ;.U 7 *.% % % % % .+* * * * * * * * * * = = = = = = = = = = = = = = = = = = = = = = = = = = ",
"@ @ @ @ @ @ @ @ I+J+@ @ @ @ @ @ # # ;.U 7 *.% % % % % K+L+* * * * * * * * * = = = = = = = = = = = = = = = = = = = = = = = = = = ",
"    @ @ @ @ @ @ @ @ @ @ @ @ @ @ # # ;.U 7 *.% % % % % % % : * * * * n W.* * = = = = = = = = = = = = = = = = = = = = = = = = = = ",
"    @ @ @ @ @ @ @ @ @ @ @ @ @ @ # # ;.U 7 / M+8+% % % % % N+* * * * W.O+* * = = = = = = = = = = = = = = = = = = = = = = = = = = ",
"    @ @   + @ @ @ @ @ @ @ @ # # # # ;.U 7   7 W % % % % % % T.P+= = * * * * = = = = = = = = = = = = = = = = = = = = = = = = = = ",
"    @ @ 1 Y @ @ @ @ @ @ @ @ # # # # Q+R+S+T+T+U+% % % % % % % P+V+V+* * * * V+V+= = = = = = = = = = = = = = = = = = = = = = = = ",
"  W+T X+@ @ @ @ @ @ @ @ @ @ @ @ # # # # 1+T T Y+Z+% % % % % % % b @+`+*  @b b J.= = = = = = = = = = = = = = = = = = = = = = = = ",
"  W+.@+@@@#@@ @ @ @ @ @ @ @ @ @ # # # # $@g T %@&@&@*@% % % % % % _ =@-@Z+% % ;@= = = = = = = = = = = = = = = = = = = = = = = = ",
"  W+.@T T +@@ @ @ @ @ @ @ @ # # # # # # # # T T T >@,@% % % % % % % % % % % % ;@= = = = = = = = = = = = = = = = = = = = = = = = ",
"'@)@g !@~@{@@ @ @ @ @ @ @ @ ]@g+# # # # # # ^@^@^@/@(@_@% % % % % % :@C.C.<@% ;@= = = n :+<+= = = = = = = = = = = = = = = = = = ",
"# # # ]@@ @ @ @ @ @ @ @ @ @ @ @ # # # # # # # # # # ;.[@Z+% % % % _ * * * * T.;@= = = W.* }@= = = = = = = = = = = = = = = = = = ",
"|@|@# ]@@ @ @ @ @ @ @ @ @ @ @ @ h h # # h h h h h h 1@2@Z+% % o.3@4@5@* * * #.<@6@W.= [ 9+7@= = = = = = = = = = = = = = = = = = ",
"  q # ]@@ @ # # @ @ @ @ @ @ @ @ @ @ # g+@ @ @ @ @ @   8@% % % ! * E.9@0@* * * * * * n = = = = = = = = = = = = = = = = = = = = = ",
"a@b@c@d@@ @ # # @ @ @ @ @ @ @ @ @ @ # e@@ @ @ @ @ @ a g.f@o+% u+g@h@i@H+* * * * * * n = = = = = = = = = = = = = = = = = = = = = ",
"    z Y @ @ # # # # @ @ @ @ @ @ @ @ # # # # # # @ @ a   7 / % % T.% j@k@= = = = = = = = = = = = = = = = = = = = = = = = = = = = ",
"    l@m@@ n@<.<.<.o@@ @ @ @ @ @ @ @ p@<.<.q@# # @ @ a ~.r@s@% % % _ t@9+= = = = = = = = = = = = = = = = = = = = = = = = = = = = ",
"      u@# [.@ @ @ @ @ @ @ @ @ @ @ @ @ @ @ @ # # @ @ a $ % % % % % _ t@9+= = = = = = = = = = = = = = = = = = = = = = = = = = = = ",
"      v@w@@ x@y@y@y@y@y@y@y@y@y@y@y@y@y@y@@ w@z@y@x@A@B@C@C@C@C@C@D@E@F@= = = = = = = = = = = = = = = = = = = = = = = = = = = = "};
