/* XPM */
static char * tiles7_xpm[] = {
"64 64 96 2",
"  	c #74C857",
". 	c #945A43",
"+ 	c #7B9264",
"@ 	c #AF6C4C",
"# 	c #AE6E4F",
"$ 	c #849369",
"% 	c #61B370",
"& 	c #B16D4D",
"* 	c #C07750",
"= 	c #BC7751",
"- 	c #8A9468",
"; 	c #62AD71",
"> 	c #AE6B4C",
", 	c #BB744E",
"' 	c #C77D53",
") 	c #C07952",
"! 	c #948F64",
"~ 	c #799468",
"{ 	c #70986A",
"] 	c #5DAC74",
"^ 	c #B56E4B",
"/ 	c #BF774F",
"( 	c #C87E53",
"_ 	c #C57D53",
": 	c #B1855B",
"< 	c #A37856",
"[ 	c #8B825E",
"} 	c #67A770",
"| 	c #AD6A4C",
"1 	c #B46E4B",
"2 	c #B8714C",
"3 	c #C37A51",
"4 	c #C97F54",
"5 	c #C97E53",
"6 	c #C17852",
"7 	c #A97956",
"8 	c #789B6C",
"9 	c #60AB74",
"0 	c #64A972",
"a 	c #63A671",
"b 	c #B46D4B",
"c 	c #BA724D",
"d 	c #C67D52",
"e 	c #CA8054",
"f 	c #BD7952",
"g 	c #948E64",
"h 	c #879066",
"i 	c #8D845F",
"j 	c #7D8963",
"k 	c #B26D4B",
"l 	c #B9714D",
"m 	c #C47B51",
"n 	c #C97F53",
"o 	c #C17951",
"p 	c #B07C55",
"q 	c #AA7351",
"r 	c #858761",
"s 	c #799967",
"t 	c #699B6D",
"u 	c #B66E4B",
"v 	c #BD744E",
"w 	c #C57B51",
"x 	c #C77D52",
"y 	c #C57C52",
"z 	c #C07850",
"A 	c #B8704C",
"B 	c #AF6B4B",
"C 	c #8E805E",
"D 	c #937A5A",
"E 	c #5DA574",
"F 	c #8C7756",
"G 	c #B16C4B",
"H 	c #BB734E",
"I 	c #B66F4C",
"J 	c #B36D4B",
"K 	c #AB6A4C",
"L 	c #5EA674",
"M 	c #8A7756",
"N 	c #5DA973",
"O 	c #7E825D",
"P 	c #B06C4C",
"Q 	c #B16C4C",
"R 	c #54B378",
"S 	c #5EA474",
"T 	c #7E825C",
"U 	c #61BA6E",
"V 	c #53B279",
"W 	c #8E7253",
"X 	c #70C55D",
"Y 	c #61BA6D",
"Z 	c #53B379",
"` 	c #669E70",
" .	c #738F66",
"..	c #847E5A",
"+.	c #8B7354",
"@.	c #877756",
"                                                                                                                                ",
"                                                                                                                                ",
"                                                                                                                                ",
"                                                                                                                                ",
"                                                                                                                                ",
"                                                                                                                                ",
"                                                                                                                                ",
"                                                                                                                                ",
"                                                                                                                                ",
"                                                                                                                                ",
"                                                                                                                                ",
"                                                                                                                                ",
"                                                                                                                                ",
"                                                                                                                                ",
"                                                                                                                                ",
"                                                                                                                                ",
"                                                                                                                                ",
"                                                                                                                                ",
"                                                                                                                                ",
"                                                                                                                                ",
"                                                                                                                                ",
"                                                                                                                                ",
"                                                                                                                                ",
"                                                                                                                                ",
"                                                                                                                                ",
"                                                                                                                                ",
"                                                                                                                                ",
"                                                                                                                                ",
"                                                                                                                                ",
"                                                                                                                                ",
"                                                                                                                                ",
"                                                                                                                                ",
"                                                                                                                                ",
"                                                                                                                                ",
"                                                                                                                                ",
"                                                                                                                                ",
"                                                                                                                                ",
"                                                                                                                                ",
"                                                                                                                                ",
"                                                                                                                                ",
"                                                                                                                                ",
"                                                                                                                                ",
"                                                                                                                                ",
"                                                                                                                                ",
"                                                                                                                                ",
"                                                                                                                                ",
"                                                                                                                                ",
"                                                                                                                                ",
"                                                                                                                                ",
". . . . . . . . . +                                                                                                             ",
". . . . . . . @ # $ %                                                                                                           ",
". . . . . . & * = - ;                                                                                                           ",
". . . . . > , ' ) ! ~ { ]                                                                                                       ",
". . . . > ^ / ( _ : < [ }                                                                                                       ",
". . . | 1 2 3 4 5 ( 6 7 8 9 0 a                                                                                                 ",
". . . | b c d e e e e f g h i j                                                                                                 ",
". . . . k l m e e e n o p q . r s                                                                                               ",
"t . . . k u v w x y z v A B . C D                                                                                               ",
"E F . . G ^ u c H c I ^ J K . . .                                                                                               ",
"L M . . K k J k b ^ ^ J K . . . .                                                                                               ",
"N O . . . . . . | P Q K . . . . .                                                                                               ",
"R S T . . . . . . . . . . . . . .                                                                                               ",
"U V S O W . . . . . . . . . . . .                                                                                               ",
"X Y Z E `  ...+.. . . . . . . . @.                                                                                              "};
