/* XPM */
static char * tiles9_xpm[] = {
"64 64 39 1",
" 	c #1D121C",
".	c #211720",
"+	c #1F151F",
"@	c #1F151E",
"#	c #21171F",
"$	c #221720",
"%	c #20151E",
"&	c #1E131D",
"*	c #1E131C",
"=	c #717171",
"-	c #707070",
";	c #7F8C8C",
">	c #545454",
",	c #5E9524",
"'	c #7D7E7C",
")	c #99D01B",
"!	c #205343",
"~	c #315B4B",
"{	c #377E00",
"]	c #41564E",
"^	c #806F66",
"/	c #645A5B",
"(	c #1D621D",
"_	c #575253",
":	c #36282F",
"<	c #342B35",
"[	c #695B57",
"}	c #271D27",
"|	c #706B69",
"1	c #60534F",
"2	c #004433",
"3	c #221822",
"4	c #706D6D",
"5	c #5D5253",
"6	c #443D42",
"7	c #1D433C",
"8	c #564E53",
"9	c #302329",
"0	c #4A444E",
"      .+@+#$#%&          *                                      ",
" ====-=================== ;====  >>>>>; >>>>>>>>>>>; >>>>>>>>>> ",
" ======,,,,,,,,========= ;'====  >>>>>; >>>>>>>>>>; >>>>>>>>>>> ",
" =====,)))))))),,===,,,,,;=====  >>>>>; >>>>>>>>>;; >>>>>>>>>>> ",
" ======,)))))))),==,!~~~~,!====  >>>>>; >>>>>>>>>; >>>>>>>>>>>> ",
" =======,)))))))),,,~~~~~~,,===  >>>>>; >>>>>>>>;  >>>>>>>>>>>> ",
" ========,)))))){{{,~~~~~~~,,==  >>>>>; >>>>>>>>; >>>>>>>>>>>>> ",
" ========,,)))){{{{{{~~~~~~~,]=  >>>>>; >>>>>>>; >>>>>>>>>>>>>> ",
" ========,,,,)){{{{{{{~~~~~~~,=  >>^^'/ =======; ============>> ",
" =======,,,,,,,({{{{{,,,~~~,,,,  >>^^; ========; ============>> ",
" =======,,,,,,,,{{{{{,>>,,,>>>>  >>^; =========; ============>> ",
" ======,,,,,,,>>,{{{{,>_>>>>>>>  >>'; ========='/:===========>> ",
"  =======>>>>>>>,{{{{,>   ^^^^^  >>; ===========; ===========>> ",
"   ======>>>><;;=,{{{,>===   ^^  @; [===========; ===========>> ",
" =  =====  };;====,{{,>=====|    >  ============; ===========>> ",
" == 1==  ;;;=======,,>>========  >>=============; ===========>> ",
" ===   ;;===========,>=========  >>=============; ===========>  ",
" ==== ;=============],,,,,=====  >>=============; ===========>  ",
" ===== ============,,)))),,====  >>=============; ==========; > ",
" ====== ==========,,)))))),====  >>=============; ========;;  > ",
" ======1 =========,)))))))~2===  >>=============;  =====';' 3>> ",
" =======  =======,))))))))~2===  >>=============;   ===;;  ==>> ",
" ========  =====4,)))))))~~~,==  >>============; |== };  ====>> ",
" ========= 1====,))))))~~~~~,==  >>============; ====  ======>> ",
" >>>>>>>>> ;;>>>,,,,,,,~~~~~,>>  >>===========; ===='35======>> ",
" >>>>>>>>> ;>>>>>>>,,,,,~~~~,>>  >>===========; ====; =======>> ",
" >>>>>>>> 6;>>>>>>>,,,,,,,,~,>>  >>==========; =====; =======>> ",
" >>>>>>>> ;>>>>>>>7,,,,,>>,,,>>  >>=========;/ =====; =======>> ",
" >>>>>>>} ;>>>>>>>,,,,>>>>>>>>>  >>=========; ====='89=======>> ",
" >>>>>>> ;>>>>>>>>,,>>>>>>>>>>>  >>========; }=====; ========>> ",
" >>>>>>> ;>>>>>>>>>>>>>>>>>>>>>  >>>>>>>>>>; 000000; >>>>>>>>>> ",
"                                                                ",
"                                                                ",
" >>>>>>>>>>>>>>>>>>>>>>>>>>>>>>  >>>>>>>>>>>>>>>>>>>>>; >>>>>>> ",
" >>>>>>>>>>>>>>>>>>>>>>>>>>>>>>  >>>>>>>>>>>,,>>>>>>>>; >>>>>>> ",
" >>>>>>>>>>>>>>>>>>>>>>>>>>>>>>  >>>>>>>>>,,,,>>>>>>>; }>>>>>>> ",
" >>>>>>>>>>>>>>>>>>>>>>>>>>>>>>  >>,,,>>,,,,,7>>>>>>>; >>>>>>>> ",
" >>>>>>>>>>>>>>>>>>>>>>>>>>>>>>  >>,~,,,,,,,,>>>>>>>;6 >>>>>>>> ",
" >>>>>>>>>>>>>>>>>>>>>>>>>>>>>>  >>,~~~~,,,,,>>>>>>>; >>>>>>>>> ",
" >>>>>>>>>>>>>>>>>>>>>>>>>>>>>>  >>,~~~~~,,,,,,,>>>;; >>>>>>>>> ",
" >>==========================>>  ==,~~~~~)))))),====1 ========= ",
" >>==========================>>  ==,~~~))))))),4=====  ======== ",
" >>==========================>>  ===2~)))))))),=======  ======= ",
" >>==========================>>  ===2~))))))),========= 1====== ",
" >>==========================>>  ====,)))))),,========== ====== ",
" >>==========================>>  ====,,)))),,============ ===== ",
" >>==========================>>  =====,,,,,]=============; ==== ",
" >>==========================>>  =========>,===========;;   === ",
" >>==========================>>  ========>>,,=======;;;  ==1 == ",
" >>==========================>>    |=====>,{{,====;;}  =====  = ",
" >>==========================>>  ^^   ===>,{{{,=;;<>>>>======   ",
" >>==========================>>  ^^^^^   >,{{{{,>>>>>>>=======  ",
" >>==========================>>  >>>>>>>_>,{{{{,>>,,,,,,,====== ",
" >>==========================>>  >>>>,,,>>,{{{{{,,,,,,,,======= ",
" >>==========================>>  ,,,,~~~,,,{{{{{(,,,,,,,======= ",
" >>==========================>>  =,~~~~~~~{{{{{{{)),,,,======== ",
" >>==========================>>  =],~~~~~~~{{{{{{)))),,======== ",
" >>==========================>>  ==,,~~~~~~~,{{{)))))),======== ",
" >>==========================>>  ===,,~~~~~~,,,)))))))),======= ",
" >>==========================>>  ====!,~~~~!,==,)))))))),====== ",
" >>==========================>>  =====;,,,,,===,,)))))))),===== ",
" >>==========================>>  ===='; =========,,,,,,,,====== ",
" >>>>>>>>>>>>>>>>>>>>>>>>>>>>>>  ====; ======================== ",
"                                                                "};
