/* XPM */
static char * tiles13_xpm[] = {
"64 64 272 2",
"  	c #F8C984",
". 	c #F8CA86",
"+ 	c #F8CC8C",
"@ 	c #F6C984",
"# 	c #F2C884",
"$ 	c #EEC783",
"% 	c #E7C583",
"& 	c #CABF80",
"* 	c #98B77E",
"= 	c #70B27C",
"- 	c #87B47D",
"; 	c #BDBD80",
"> 	c #DFC382",
", 	c #DEC382",
"' 	c #C2BD80",
") 	c #AAB97E",
"! 	c #C7BE80",
"~ 	c #E8C583",
"{ 	c #F0C783",
"] 	c #F2C883",
"^ 	c #F6C884",
"/ 	c #F6CB89",
"( 	c #F3CE94",
"_ 	c #F1CE93",
": 	c #F2CA88",
"< 	c #F2C783",
"[ 	c #E4C482",
"} 	c #BFBD80",
"| 	c #6EB27C",
"1 	c #94B67D",
"2 	c #C1BD80",
"3 	c #B5BB7F",
"4 	c #A5B97E",
"5 	c #C3BE80",
"6 	c #E0C382",
"7 	c #ECC683",
"8 	c #F1C783",
"9 	c #F5C884",
"0 	c #F3C884",
"a 	c #E2C482",
"b 	c #D0C081",
"c 	c #C2BE80",
"d 	c #83B47D",
"e 	c #65B17C",
"f 	c #76B27C",
"g 	c #A0B87E",
"h 	c #BABC7F",
"i 	c #9EB77E",
"j 	c #DCC382",
"k 	c #DBC282",
"l 	c #EDC683",
"m 	c #F4C884",
"n 	c #F0C886",
"o 	c #E3C88B",
"p 	c #DCC68A",
"q 	c #E0C484",
"r 	c #E1C482",
"s 	c #CEC081",
"t 	c #80B47D",
"u 	c #A3B87E",
"v 	c #9AB77E",
"w 	c #8DB57D",
"x 	c #A4B87E",
"y 	c #BBBC7F",
"z 	c #CBBF80",
"A 	c #F4C883",
"B 	c #F5C883",
"C 	c #D5C181",
"D 	c #DBC382",
"E 	c #DAC282",
"F 	c #8BB57D",
"G 	c #7AB37C",
"H 	c #66B17C",
"I 	c #57B07B",
"J 	c #5FB07B",
"K 	c #74B27C",
"L 	c #7BB37C",
"M 	c #88B47D",
"N 	c #B0BA7F",
"O 	c #C0BD80",
"P 	c #E0C482",
"Q 	c #D9C282",
"R 	c #C4BF81",
"S 	c #B6BC80",
"T 	c #BEBD80",
"U 	c #A9B97E",
"V 	c #7CB37C",
"W 	c #61B07B",
"X 	c #71B27C",
"Y 	c #6BB17C",
"Z 	c #84B47D",
"` 	c #B8BC80",
" .	c #D4C283",
"..	c #E1C484",
"+.	c #E2C585",
"@.	c #D9C383",
"#.	c #A1B87E",
"$.	c #ABB97F",
"%.	c #93B67D",
"&.	c #5AB07B",
"*.	c #54AF7B",
"=.	c #51AF7B",
"-.	c #52AF7B",
";.	c #57AF7B",
">.	c #5BAF7B",
",.	c #5BB07B",
"'.	c #5DB07B",
").	c #8CB57D",
"!.	c #8EB57D",
"~.	c #AFBA7F",
"{.	c #B1BA7F",
"].	c #95B67D",
"^.	c #90B57D",
"/.	c #7FB37C",
"(.	c #5EB07B",
"_.	c #58B07B",
":.	c #55AF7B",
"<.	c #6CB17C",
"[.	c #8AB57E",
"}.	c #A3BA83",
"|.	c #AFBD86",
"1.	c #B1BE86",
"2.	c #A9BB82",
"3.	c #94B67E",
"4.	c #73B27C",
"5.	c #67B17C",
"6.	c #7DB37C",
"7.	c #4FAF7B",
"8.	c #68B17C",
"9.	c #62B07B",
"0.	c #78B37C",
"a.	c #69B17C",
"b.	c #63B17C",
"c.	c #70B37E",
"d.	c #76B480",
"e.	c #78B480",
"f.	c #73B37E",
"g.	c #55B07C",
"h.	c #E3C482",
"i.	c #C5BE80",
"j.	c #9AB77F",
"k.	c #C5BF82",
"l.	c #E3C583",
"m.	c #73B27D",
"n.	c #9AB982",
"o.	c #C2C28A",
"p.	c #E1C98F",
"q.	c #F1CA8B",
"r.	c #F7C984",
"s.	c #EFC784",
"t.	c #D9C384",
"u.	c #B3BC81",
"v.	c #85B47D",
"w.	c #5FB07C",
"x.	c #85B57F",
"y.	c #B3BF8A",
"z.	c #D9CA96",
"A.	c #EFD09A",
"B.	c #F7CF94",
"C.	c #F8CB8A",
"D.	c #ECC785",
"E.	c #D4C58A",
"F.	c #ADBD86",
"G.	c #80B47E",
"H.	c #5EB07C",
"I.	c #80B581",
"J.	c #ADBF8A",
"K.	c #D4C995",
"L.	c #ECD09B",
"M.	c #F6D29B",
"N.	c #F8D096",
"O.	c #F8CC8B",
"P.	c #B6BE85",
"Q.	c #8CB781",
"R.	c #55B07B",
"S.	c #69B27E",
"T.	c #8CB884",
"U.	c #B6C18D",
"V.	c #EDD099",
"W.	c #F6CF95",
"X.	c #B9BC80",
"Y.	c #8CB57E",
"Z.	c #68B27E",
"`.	c #B9C18C",
" +	c #DCC78E",
".+	c #F2C989",
"++	c #6BB27D",
"@+	c #98B982",
"#+	c #CBC186",
"$+	c #BBBD80",
"%+	c #6FB27C",
"&+	c #82B47D",
"*+	c #6EB17C",
"=+	c #C7BF80",
"-+	c #C2BB80",
";+	c #B1B67F",
">+	c #8DB37D",
",+	c #66B07C",
"'+	c #8FB57D",
")+	c #B3BB7F",
"!+	c #C4BE80",
"~+	c #E7C483",
"{+	c #D8BB82",
"]+	c #BAB27F",
"^+	c #8FB07D",
"/+	c #67B07C",
"(+	c #92B67D",
"_+	c #EEC683",
":+	c #D2B981",
"<+	c #A6B07E",
"[+	c #7BAF7C",
"}+	c #5CAF7B",
"|+	c #D4C181",
"1+	c #C8B980",
"2+	c #93B17D",
"3+	c #68AF7C",
"4+	c #96B67D",
"5+	c #D0BE81",
"6+	c #A0B67E",
"7+	c #74B17C",
"8+	c #D1C081",
"9+	c #72B27C",
"0+	c #99B77E",
"a+	c #EFC783",
"b+	c #AEBA7F",
"c+	c #81B47D",
"d+	c #B6BB7F",
"e+	c #90B67D",
"f+	c #9FB87E",
"g+	c #B4BB7F",
"h+	c #58B07C",
"i+	c #62AF7B",
"j+	c #6FB07C",
"k+	c #75B17C",
"l+	c #77B27C",
"m+	c #A9B97F",
"n+	c #93B77F",
"o+	c #74B37E",
"p+	c #61B17D",
"q+	c #5AB07C",
"r+	c #54AF7C",
"s+	c #6BB07C",
"t+	c #87AF7D",
"u+	c #9FAF7E",
"v+	c #ACB37E",
"w+	c #B0B97F",
"x+	c #A0B880",
"y+	c #8BB781",
"z+	c #7AB580",
"A+	c #66B27E",
"B+	c #57B07C",
"C+	c #96B37D",
"D+	c #B4B17F",
"E+	c #CEB180",
"F+	c #DCB881",
"G+	c #E1C182",
"H+	c #E2C481",
"I+	c #D0C082",
"J+	c #C2BF84",
"K+	c #AABB84",
"L+	c #83B57F",
"M+	c #76B37C",
"N+	c #C9BB80",
"O+	c #DABA82",
"P+	c #E9BC83",
"Q+	c #F2C084",
"R+	c #F4C684",
"S+	c #CABF81",
"T+	c #ECC583",
"U+	c #F1C683",
"V+	c #F5C784",
"W+	c #F8C884",
"                                                                                                                                ",
"                                            . + + .                                                                             ",
"    @ # $ % & * = - ; > , ' ) ! ~ { ] ^     / ( _ : < [ } - | 1 2 3 4 5 6 7 8 9     @ 0 $ 7 $ ~ ! ) ' , > ; - = * & % $ # @     ",
"    8 a b c ) d e f g h h 4 i c j k > l m 9 n o p q r s 4 f e t u v w x y z j 7 A B { a b & C D c i 4 h h g f e d ) c b a 8     ",
"    E 2 g F G H I J K d d L M N O 3 ; C P a Q R S T ' U V W I e f X Y f Z * `  ...+.@.5 #.1 $.O N M L d Z K J I H G F g 2 E     ",
"    U %.K W &.*.=.-.;.>.,.'.| ).1 - !.x ~.{.U ].M ^.1 /.(.-.=.*._.I :._.'.<.[.}.|.1.2.3.4.5.6.1 ).| '.,.,.I -.=.*.&.W K %.U     ",
"    4.5._.=.7.7.7.7.7.=.=.=._.H 8.9.H X f 0.4.a.9.H 8.(.=.7.7.7.7.7.7.7.=.:.b.c.d.e.f.8.&.*.(.8.H _.=.=.=.7.7.7.7.7.=._.5.4.    ",
"    *.-.=.7.7.7.7.7.7.7.7.7.=.-.-.=.-.*.:.:.:.-.=.-.-.=.7.7.7.7.7.7.7.7.7.7.-.*.g.g.*.-.=.7.=.-.-.=.7.7.7.7.7.7.7.7.7.=.-.*.    ",
"    ,.I -.7.7.7.7.7.7.7.7.7.7.7.7.7.7.7.7.7.7.7.7.7.7.7.7.7.7.7.7.7.7.7.7.7.7.7.7.7.7.7.7.7.7.7.7.7.7.7.7.7.7.7.7.7.7.-.I ,.    ",
"    - f J -.7.7.7.7.7.7.7.7.7.7.7.7.7.7.7.7.7.7.7.7.7.7.7.7.7.7.7.7.7.7.7.7.7.7.7.7.7.7.7.7.7.7.7.7.7.7.7.7.7.7.7.7.-.J f -     ",
"    ; g K I 7.7.7.7.7.7.7.7.7.7.7.7.7.7.7.7.7.7.7.7.7.7.7.7.7.7.7.7.7.7.7.7.7.7.7.7.7.7.7.7.7.7.7.7.7.7.7.7.7.7.7.7.I K g ;     ",
"    > h Z ,.=.7.7.7.7.7.7.7.7.7.7.7.7.7.7.7.7.7.7.7.7.7.7.7.7.7.7.7.7.7.7.7.7.7.7.7.7.7.7.7.7.7.7.7.7.7.7.7.7.7.7.=.,.Z h >     ",
"    , h d ,.=.7.7.7.7.7.7.7.7.7.7.7.7.7.7.7.7.7.7.7.7.7.7.7.7.7.7.7.7.7.7.7.7.7.7.7.7.7.7.7.7.7.7.7.7.7.7.7.7.7.7.=.,.d h ,     ",
"    ' 4 L '.=.7.7.7.7.7.7.7.7.7.7.7.7.7.7.7.7.7.7.7.7.7.7.7.7.7.7.7.7.7.7.7.7.7.7.7.7.7.7.7.7.7.7.7.7.7.7.7.7.7.7.=.'.L 4 '     ",
"    ) i M | _.=.7.7.7.7.7.7.7.7.7.7.7.7.7.7.7.7.7.7.7.7.7.7.7.7.7.7.7.7.7.7.7.7.7.7.7.7.7.7.7.7.7.7.7.7.7.7.7.7.=._.| M i )     ",
"    ! c N ).H -.7.7.7.7.7.7.7.7.7.7.7.7.7.7.7.7.7.7.7.7.7.7.7.7.7.7.7.7.7.7.7.7.7.7.7.7.7.7.7.7.7.7.7.7.7.7.7.7.-.H ).N c !     ",
"    ~ D O 1 8.-.7.7.7.7.7.7.7.7.7.7.7.7.7.7.7.7.7.7.7.7.7.7.7.7.7.7.7.7.7.7.7.7.7.7.7.7.7.7.7.7.7.7.7.7.7.7.7.7.-.8.1 O D ~     ",
"    $ C $.6.(.=.7.7.7.7.7.7.7.7.7.7.7.7.7.7.7.7.7.7.7.7.7.7.7.7.7.7.7.7.7.7.7.7.7.7.7.7.7.7.7.7.7.7.7.7.7.7.7.7.=.(.6.$.C $     ",
"    7 & 1 5.*.7.7.7.7.7.7.7.7.7.7.7.7.7.7.7.7.7.7.7.7.7.7.7.7.7.7.7.7.7.7.7.7.7.7.7.7.7.7.7.7.7.7.7.7.7.7.7.7.7.7.*.5.1 & 7     ",
"    $ b #.4._.7.7.7.7.7.7.7.7.7.7.7.7.7.7.7.7.7.7.7.7.7.7.7.7.7.7.7.7.7.7.7.7.7.7.7.7.7.7.7.7.7.7.7.7.7.7.7.7.7.7._.4.#.b $     ",
"    0 h.i.v 4.&.=.7.7.7.7.7.7.7.7.7.7.7.7.7.7.7.7.7.7.7.7.7.7.7.7.7.7.7.7.7.7.7.7.7.7.7.7.7.7.7.7.7.7.7.7.7.7.=.&.4.j.k.l.0     ",
"    @ 8 r c v 4._.7.7.7.7.7.7.7.7.7.7.7.7.7.7.7.7.7.7.7.7.7.7.7.7.7.7.7.7.7.7.7.7.7.7.7.7.7.7.7.7.7.7.7.7.7.7._.m.n.o.p.q.@     ",
"      r.s.t.u.v.J =.7.7.7.7.7.7.7.7.7.7.7.7.7.7.7.7.7.7.7.7.7.7.7.7.7.7.7.7.7.7.7.7.7.7.7.7.7.7.7.7.7.7.7.7.=.w.x.y.z.A.B.C..   ",
"      @ D.E.F.G.(.=.7.7.7.7.7.7.7.7.7.7.7.7.7.7.7.7.7.7.7.7.7.7.7.7.7.7.7.7.7.7.7.7.7.7.7.7.7.7.7.7.7.7.7.7.=.H.I.J.K.L.M.N.O.  ",
"    ^ l @.P.Q.a.:.7.7.7.7.7.7.7.7.7.7.7.7.7.7.7.7.7.7.7.7.7.7.7.7.7.7.7.7.7.7.7.7.7.7.7.7.7.7.7.7.7.7.7.7.7.7.R.S.T.U.z.V.W.O.  ",
"    < j X.Y.8.:.7.7.7.7.7.7.7.7.7.7.7.7.7.7.7.7.7.7.7.7.7.7.7.7.7.7.7.7.7.7.7.7.7.7.7.7.7.7.7.7.7.7.7.7.7.7.7.7.R.Z.T.`. +.+.   ",
"    7 z * Y *.7.7.7.7.7.7.7.7.7.7.7.7.7.7.7.7.7.7.7.7.7.7.7.7.7.7.7.7.7.7.7.7.7.7.7.7.7.7.7.7.7.7.7.7.7.7.7.7.7.7.*.++@+#+7     ",
"    6 y Z ,.=.7.7.7.7.7.7.7.7.7.7.7.7.7.7.7.7.7.7.7.7.7.7.7.7.7.7.7.7.7.7.7.7.7.7.7.7.7.7.7.7.7.7.7.7.7.7.7.7.7.7.=.,.Z $+6     ",
"    5 x f _.7.7.7.7.7.7.7.7.7.7.7.7.7.7.7.7.7.7.7.7.7.7.7.7.7.7.7.7.7.7.7.7.7.7.7.7.7.7.7.7.7.7.7.7.7.7.7.7.7.7.7.7._.f x 5     ",
"    4 w Y :.7.7.7.7.7.7.7.7.7.7.7.7.7.7.7.7.7.7.7.7.7.7.7.7.7.7.7.7.7.7.7.7.7.7.7.7.7.7.7.7.7.7.7.7.7.7.7.7.7.7.7.7.:.Y w 4     ",
"    3 v X I 7.7.7.7.7.7.7.7.7.7.7.7.7.7.7.7.7.7.7.7.7.7.7.7.7.7.7.7.7.7.7.7.7.7.7.7.7.7.7.7.7.7.7.7.7.7.7.7.7.7.7.7.I X v 3     ",
"    2 u f _.7.7.7.7.7.7.7.7.7.7.7.7.7.7.7.7.7.7.7.7.7.7.7.7.7.7.7.7.7.7.7.7.7.7.7.7.7.7.7.7.7.7.7.7.7.7.7.7.7.7.7.7._.f u 2     ",
"    1 t e *.7.7.7.7.7.7.7.7.7.7.7.7.7.7.7.7.7.7.7.7.7.7.7.7.7.7.7.7.7.7.7.7.7.7.7.7.7.7.7.7.7.7.7.7.7.7.7.7.7.7.7.7.*.e t 1     ",
"    %+8.(.:.=.7.7.7.7.7.7.7.7.7.7.7.7.7.7.7.7.7.7.7.7.7.7.7.7.7.7.7.7.7.7.7.7.7.7.7.7.7.7.7.7.7.7.7.7.7.7.7.7.7.7.=.:.(.8.%+    ",
"    ).F &+*+&.=.7.7.7.7.7.7.7.7.7.7.7.7.7.7.7.7.7.7.7.7.7.7.7.7.7.7.7.7.7.7.7.7.7.7.7.7.7.7.7.7.7.7.7.7.7.7.7.7.=.&.| &+F ).    ",
"    =+-+;+>+,+-.7.7.7.7.7.7.7.7.7.7.7.7.7.7.7.7.7.7.7.7.7.7.7.7.7.7.7.7.7.7.7.7.7.7.7.7.7.7.7.7.7.7.7.7.7.7.7.7.-.5.'+)+!+=+    ",
"    ~+{+]+^+/+-.7.7.7.7.7.7.7.7.7.7.7.7.7.7.7.7.7.7.7.7.7.7.7.7.7.7.7.7.7.7.7.7.7.7.7.7.7.7.7.7.7.7.7.7.7.7.7.7.-.8.(+T E %     ",
"    _+:+<+[+}+=.7.7.7.7.7.7.7.7.7.7.7.7.7.7.7.7.7.7.7.7.7.7.7.7.7.7.7.7.7.7.7.7.7.7.7.7.7.7.7.7.7.7.7.7.7.7.7.7.=.'.6.) |+$     ",
"    l 1+2+3+*.7.7.7.7.7.7.7.7.7.7.7.7.7.7.7.7.7.7.7.7.7.7.7.7.7.7.7.7.7.7.7.7.7.7.7.7.7.7.7.7.7.7.7.7.7.7.7.7.7.7.*.a.4+z l     ",
"    $ 5+6+7+_.7.7.7.7.7.7.7.7.7.7.7.7.7.7.7.7.7.7.7.7.7.7.7.7.7.7.7.7.7.7.7.7.7.7.7.7.7.7.7.7.7.7.7.7.7.7.7.7.7.7._.K #.8+$     ",
"    0 a !+v 9+&.=.7.7.7.7.7.7.7.7.7.7.7.7.7.7.7.7.7.7.7.7.7.7.7.7.7.7.7.7.7.7.7.7.7.7.7.7.7.7.7.7.7.7.7.7.7.7.=.&.9+v !+a 0     ",
"    @ 8 r c 0+X _.7.7.7.7.7.7.7.7.7.7.7.7.7.7.7.7.7.7.7.7.7.7.7.7.7.7.7.7.7.7.7.7.7.7.7.7.7.7.7.7.7.7.7.7.7.7._.X 0+c r 8 @     ",
"      @ a+Q )+v.J =.7.7.7.7.7.7.7.7.7.7.7.7.7.7.7.7.7.7.7.7.7.7.7.7.7.7.7.7.7.7.7.7.7.7.7.7.7.7.7.7.7.7.7.7.=.J v.)+Q a+@       ",
"      9 7 C b+c+(.=.7.7.7.7.7.7.7.7.7.7.7.7.7.7.7.7.7.7.7.7.7.7.7.7.7.7.7.7.7.7.7.7.7.7.7.7.7.7.7.7.7.7.7.7.=.(.c+b+C 7 9       ",
"    ^ $ E d+).8.*.7.7.7.7.7.7.7.7.7.7.7.7.7.7.7.7.7.7.7.7.7.7.7.7.7.7.7.7.7.7.7.7.7.7.7.7.7.7.7.7.7.7.7.7.7.7.*.8.).d+E $ ^     ",
"    ] > T e+8.*.7.7.7.7.7.7.7.7.7.7.7.7.7.7.7.7.7.7.7.7.7.7.7.7.7.7.7.7.7.7.7.7.7.7.7.7.7.7.7.7.7.7.7.7.7.7.7.7.*.8.e+T > ]     ",
"    { k 3 - W =.7.7.7.7.7.7.7.7.7.7.7.7.7.7.7.7.7.7.7.7.7.7.7.7.7.7.7.7.7.7.7.7.7.7.7.7.7.7.7.7.7.7.7.7.7.7.7.7.=.W - 3 k {     ",
"    ~ j O 1 8.-.7.7.7.7.7.7.7.7.7.7.7.7.7.7.7.7.7.7.7.7.7.7.7.7.7.7.7.7.7.7.7.7.7.7.7.7.7.7.7.7.7.7.7.7.7.7.7.7.-.8.1 O j ~     ",
"    !+2 N ).H -.7.7.7.7.7.7.7.7.7.7.7.7.7.7.7.7.7.7.7.7.7.7.7.7.7.7.7.7.7.7.7.7.7.7.7.7.7.7.7.7.7.7.7.7.7.7.7.7.-.H ).N 2 !+    ",
"    M M t <._.=.7.7.7.7.7.7.7.7.7.7.7.7.7.7.7.7.7.7.7.7.7.7.7.7.7.7.7.7.7.7.7.7.7.7.7.7.7.7.7.7.7.7.7.7.7.7.7.7.=._.<.t M M     ",
"    = Y J I =.7.7.7.7.7.7.7.7.7.7.7.7.7.7.7.7.7.7.7.7.7.7.7.7.7.7.7.7.7.7.7.7.7.7.7.7.7.7.7.7.7.7.7.7.7.7.7.7.7.7.=.I J Y =     ",
"    v v.5.*.7.7.7.7.7.7.7.7.7.7.7.7.7.7.7.7.7.7.7.7.7.7.7.7.7.7.7.7.7.7.7.7.7.7.7.7.7.7.7.7.7.7.7.7.7.7.7.7.7.7.7.7.*.5.v.v     ",
"    ; f+K I 7.7.7.7.7.7.7.7.7.7.7.7.7.7.7.7.7.7.7.7.7.7.7.7.7.7.7.7.7.7.7.7.7.7.7.7.7.7.7.7.7.7.7.7.7.7.7.7.7.7.7.7.I K f+;     ",
"    g+0+= :.7.7.7.7.7.7.7.7.7.7.7.7.7.7.7.7.7.7.7.7.7.7.7.7.7.7.7.7.7.7.7.7.7.7.7.7.7.7.7.7.7.7.7.7.7.7.7.7.7.7.7.7.:.= 0+g+    ",
"    M f J -.7.7.7.7.7.7.7.7.7.7.7.7.7.7.7.7.7.7.7.7.7.7.7.7.7.7.7.7.7.7.7.7.7.7.7.7.7.7.7.7.7.7.7.7.7.7.7.7.7.7.7.7.-.J f M     ",
"    ,.I -.7.7.7.7.7.7.7.7.7.7.7.7.7.7.7.7.7.7.7.7.7.7.7.7.7.7.7.7.7.7.7.7.7.7.7.7.7.7.7.7.7.7.7.7.7.7.7.7.7.7.7.7.7.7.-.I ,.    ",
"    *.-.=.7.7.7.7.7.7.7.7.7.=.-.-.=.-.*.:.:.:.-.=.-.-.=.7.7.7.7.7.7.7.7.7.7.-.*.:.:.*.-.=.7.=.-.-.=.7.7.7.7.7.7.7.7.7.=.-.*.    ",
"    4.5.h+=.7.7.7.7.7.=.=.=._.H 8.9.H X f 0.4.a.9.H 8.(.=.7.7.7.7.7.7.7.=.:.i+j+k+l+4.8.&.*.(.8.H _.=.=.=.7.7.7.7.7.=._.5.4.    ",
"    m+n+o+p+q+r+=.-.I ,.,.'.| ).1 - !.x ~.{.U ].M ^.1 /.(.-.=.*._.I :._.'.s+t+u+v+w+U 1 4.5.6.1 ).| '.,.,.I -.=.*.&.W K %.U     ",
"    E 2 x+y+z+A+B+w.K Z d L M N O 3 ; C P a Q !+d+T ' U V W I e f X Y f d C+D+E+F+G+Q 5 #.1 $.O N M L d Z K J I H G F g 2 E     ",
"    8 H+I+J+K+L+e M+g h h 4 i c j k > l m 9 { h.j P r s 4 f e t u v w x y N+O+P+Q+R+{ a b & C D c i 4 h h g f e d ) c b a 8     ",
"    @ # $ % S+* = - ; > , ' ) ! ~ { ] ^     @ 0 8 # < [ } - | 1 2 3 4 5 6 T+U+V+W+  @ 0 $ 7 $ ~ ! ) ' , > ; - = * & % $ # @     ",
"                                                                                                                                ",
"                                                                                                                                "};
