/* XPM */
static char * tiles2_xpm[] = {
"64 64 436 2",
"  	c #3A6F3E",
". 	c #396C3C",
"+ 	c #79B11B",
"@ 	c #7FB80C",
"# 	c #5D9324",
"$ 	c #5E9524",
"% 	c #3F743C",
"& 	c #3B703E",
"* 	c #95CB1F",
"= 	c #A9E300",
"- 	c #A9E400",
"; 	c #496219",
"> 	c #325B34",
", 	c #5A9029",
"' 	c #79B214",
") 	c #81BB0B",
"! 	c #6BA31E",
"~ 	c #73AC19",
"{ 	c #628D15",
"] 	c #95CC1E",
"^ 	c #496119",
"/ 	c #599029",
"( 	c #628D14",
"_ 	c #396D3C",
": 	c #7AB219",
"< 	c #7EB713",
"[ 	c #80BA0D",
"} 	c #83BC0B",
"| 	c #A4DC03",
"1 	c #A4DC02",
"2 	c #689D21",
"3 	c #5B9023",
"4 	c #5C9326",
"5 	c #4F8337",
"6 	c #4A7C3C",
"7 	c #A5DE09",
"8 	c #6BA020",
"9 	c #437638",
"0 	c #53872C",
"a 	c #5B9024",
"b 	c #5C9225",
"c 	c #80B90D",
"d 	c #7FB90E",
"e 	c #669E20",
"f 	c #77B016",
"g 	c #6FA71B",
"h 	c #619823",
"i 	c #518631",
"j 	c #284329",
"k 	c #41763B",
"l 	c #79B217",
"m 	c #7DB610",
"n 	c #7FB810",
"o 	c #A1DB08",
"p 	c #679D26",
"q 	c #5D9425",
"r 	c #4B8036",
"s 	c #9DD610",
"t 	c #6BA121",
"u 	c #497E37",
"v 	c #3D723D",
"w 	c #40753C",
"x 	c #578D2C",
"y 	c #76AF17",
"z 	c #679E20",
"A 	c #76AE17",
"B 	c #6FA71C",
"C 	c #558B30",
"D 	c #4A7E3A",
"E 	c #33542C",
"F 	c #223323",
"G 	c #629923",
"H 	c #639A23",
"I 	c #5D9524",
"J 	c #40753B",
"K 	c #588E2B",
"L 	c #5D9424",
"M 	c #598F2A",
"N 	c #74AC19",
"O 	c #70A91B",
"P 	c #81BB0A",
"Q 	c #598E34",
"R 	c #5F9624",
"S 	c #A5DE04",
"T 	c #A5DF04",
"U 	c #43783A",
"V 	c #3E733D",
"W 	c #4A7F36",
"X 	c #5D9326",
"Y 	c #629924",
"Z 	c #669C23",
"` 	c #75AD18",
" .	c #69A01F",
"..	c #6EA61C",
"+.	c #70A81B",
"@.	c #5C9132",
"#.	c #43773C",
"$.	c #659C21",
"%.	c #7EB80F",
"&.	c #477C38",
"*.	c #8DC224",
"=.	c #88C209",
"-.	c #6AA21E",
";.	c #81BA0C",
">.	c #81BB0C",
",.	c #80BA0C",
"'.	c #487D38",
").	c #3C713E",
"!.	c #8CC224",
"~.	c #A8E201",
"{.	c #89C309",
"].	c #82BC0B",
"^.	c #6BA21E",
"/.	c #609724",
"(.	c #72AA1B",
"_.	c #81BA0B",
":.	c #80B90B",
"<.	c #629922",
"[.	c #A0D909",
"}.	c #A8E200",
"|.	c #90C907",
"1.	c #6DA51D",
"2.	c #8EC516",
"3.	c #678B16",
"4.	c #619923",
"5.	c #669D21",
"6.	c #90CA07",
"7.	c #8EC615",
"8.	c #668916",
"9.	c #A2DB07",
"0.	c #7BB21D",
"a.	c #649B23",
"b.	c #659C23",
"c.	c #9BD40D",
"d.	c #A7E101",
"e.	c #93CC07",
"f.	c #6CA41D",
"g.	c #8BC217",
"h.	c #699F22",
"i.	c #6DA321",
"j.	c #A6E003",
"k.	c #A1D911",
"l.	c #9FD714",
"m.	c #A7E005",
"n.	c #84BB1A",
"o.	c #649B22",
"p.	c #93CA18",
"q.	c #92CB0E",
"r.	c #88C109",
"s.	c #609723",
"t.	c #5C9227",
"u.	c #82B81E",
"v.	c #A1DA08",
"w.	c #628417",
"x.	c #99D10F",
"y.	c #568839",
"z.	c #396E3E",
"A.	c #98CF1C",
"B.	c #AAE400",
"C.	c #69A022",
"D.	c #538736",
"E.	c #396F3E",
"F.	c #88BD27",
"G.	c #8BC509",
"H.	c #4D8234",
"I.	c #4D8334",
"J.	c #3A5A1F",
"K.	c #A5DE0A",
"L.	c #55873A",
"M.	c #94CA1F",
"N.	c #A4DD0B",
"O.	c #A5DE0B",
"P.	c #679D24",
"Q.	c #649A23",
"R.	c #75AE17",
"S.	c #558A35",
"T.	c #8BC409",
"U.	c #4E8333",
"V.	c #4F8433",
"W.	c #3B5A1F",
"X.	c #7DB710",
"Y.	c #679F20",
"Z.	c #487B3C",
"`.	c #3A703E",
" +	c #9BD319",
".+	c #7AB11D",
"++	c #68A01F",
"@+	c #609823",
"#+	c #5E9624",
"$+	c #689F20",
"%+	c #98D011",
"&+	c #A8E203",
"*+	c #3C6F3E",
"=+	c #9AD11A",
"-+	c #7BB11D",
";+	c #3C5C1F",
">+	c #7BB512",
",+	c #A5DF02",
"'+	c #89C20A",
")+	c #588C35",
"!+	c #3F743D",
"~+	c #875F4C",
"{+	c #3E6C3D",
"]+	c #3E733E",
"^+	c #93CA1F",
"/+	c #91CB07",
"(+	c #659D21",
"_+	c #5A8F33",
":+	c #78B115",
"<+	c #6CA31E",
"[+	c #7CB511",
"}+	c #A6E001",
"|+	c #568A35",
"1+	c #92CB06",
"2+	c #649C21",
"3+	c #79B314",
"4+	c #5B8F33",
"5+	c #6CA41E",
"6+	c #A2DC02",
"7+	c #689A34",
"8+	c #534735",
"9+	c #544435",
"0+	c #F1B183",
"a+	c #E7AA7D",
"b+	c #EAAC7F",
"c+	c #6F5D3C",
"d+	c #845E4A",
"e+	c #5A7340",
"f+	c #87C10A",
"g+	c #87C109",
"h+	c #9CD513",
"i+	c #6B9538",
"j+	c #4C6E40",
"k+	c #5E4839",
"l+	c #5F4438",
"m+	c #7F5A48",
"n+	c #546B41",
"o+	c #A5DF01",
"p+	c #A4DE02",
"q+	c #79AF1D",
"r+	c #487D37",
"s+	c #A8E101",
"t+	c #54863A",
"u+	c #43663C",
"v+	c #84BE0A",
"w+	c #54873A",
"x+	c #3D6E3E",
"y+	c #3D6D3D",
"z+	c #B08662",
"A+	c #865F4C",
"B+	c #45643B",
"C+	c #85B929",
"D+	c #A4DE0B",
"E+	c #87C011",
"F+	c #6EA51F",
"G+	c #629823",
"H+	c #508436",
"I+	c #4A7D3C",
"J+	c #83BD0B",
"K+	c #3E6D3D",
"L+	c #845E4B",
"M+	c #6F4E3F",
"N+	c #485E3A",
"O+	c #93C920",
"P+	c #88C018",
"Q+	c #508532",
"R+	c #92C821",
"S+	c #A8E102",
"T+	c #55863A",
"U+	c #406C3D",
"V+	c #3E703E",
"W+	c #91C821",
"X+	c #A9E201",
"Y+	c #89C018",
"Z+	c #518732",
"`+	c #5F5832",
" @	c #7B5746",
".@	c #42683C",
"+@	c #3E723E",
"@@	c #8CC225",
"#@	c #78AE1E",
"$@	c #87BE19",
"%@	c #A9E301",
"&@	c #765A42",
"*@	c #8CC125",
"=@	c #88BF18",
"-@	c #9DD60A",
";@	c #A5DD05",
">@	c #5F5A32",
",@	c #5F5932",
"'@	c #44653B",
")@	c #44783D",
"!@	c #86BB28",
"~@	c #4A6C1D",
"{@	c #37471B",
"]@	c #97CE17",
"^@	c #9DD416",
"/@	c #6F4F40",
"(@	c #4D803B",
"_@	c #8ABF26",
":@	c #395821",
"<@	c #3B6D3E",
"[@	c #28452A",
"}@	c #44753A",
"|@	c #3F6C3D",
"1@	c #6D4E3F",
"2@	c #8BC125",
"3@	c #A7E102",
"4@	c #77AD1E",
"5@	c #29452A",
"6@	c #585533",
"7@	c #3B6F3E",
"8@	c #5B9227",
"9@	c #5E9525",
"0@	c #44643B",
"a@	c #8BC025",
"b@	c #564034",
"c@	c #3E6E3D",
"d@	c #F8C984",
"e@	c #5D4337",
"f@	c #574034",
"g@	c #745335",
"h@	c #42673C",
"i@	c #548930",
"j@	c #563F34",
"k@	c #5C4337",
"l@	c #553F34",
"m@	c #745334",
"n@	c #528830",
"o@	c #5A4637",
"p@	c #A4784E",
"q@	c #835C4A",
"r@	c #8EC423",
"s@	c #7FB61D",
"t@	c #362D26",
"u@	c #64483A",
"v@	c #F1C27D",
"w@	c #B48758",
"x@	c #567E39",
"y@	c #8FC620",
"z@	c #7DB41C",
"A@	c #4F8532",
"B@	c #4A6439",
"C@	c #534836",
"D@	c #352F26",
"E@	c #664934",
"F@	c #7E5847",
"G@	c #885F4C",
"H@	c #485F3A",
"I@	c #9AD21A",
"J@	c #6F5036",
"K@	c #624735",
"L@	c #855D4B",
"M@	c #835D4A",
"N@	c #4F6939",
"O@	c #497C3C",
"P@	c #99D019",
"Q@	c #7CB21C",
"R@	c #5F9623",
"S@	c #A4774D",
"T@	c #45633B",
"U@	c #8AC409",
"V@	c #28442A",
"W@	c #74AA1F",
"X@	c #487121",
"Y@	c #A4774C",
"Z@	c #73AA1F",
"`@	c #487120",
" #	c #92674A",
".#	c #8C624B",
"+#	c #E8AA7D",
"@#	c #44773D",
"##	c #76AE1E",
"$#	c #72AA1A",
"%#	c #68A020",
"&#	c #DEA277",
"*#	c #EBBB78",
"=#	c #956949",
"-#	c #90654A",
";#	c #4B7721",
">#	c #2D411D",
",#	c #37693B",
"'#	c #3B5B1F",
")#	c #79B11E",
"!#	c #3A5920",
"~#	c #46633B",
"{#	c #3F733E",
"]#	c #99D11A",
"^#	c #B8855D",
"/#	c #7C5746",
"(#	c #87BC28",
"_#	c #93CC0B",
":#	c #8CC223",
"<#	c #548931",
"[#	c #6FA625",
"}#	c #679E2B",
"|#	c #6EA525",
"1#	c #69A11F",
"2#	c #69A02A",
"3#	c #2C4929",
"4#	c #538930",
"5#	c #4F7118",
"6#	c #538830",
"7#	c #4F7219",
"8#	c #ECBC78",
"9#	c #86603C",
"0#	c #47623A",
"a#	c #95CF06",
"b#	c #6EA032",
"c#	c #805C37",
"d#	c #47613A",
"e#	c #96CF06",
"f#	c #6EA133",
"g#	c #CE966D",
"h#	c #4D5638",
"i#	c #426D3B",
"j#	c #77AF19",
"k#	c #47603A",
"l#	c #406B3D",
"m#	c #4C5738",
"n#	c #3F6B3D",
"o#	c #73A916",
"p#	c #79AF0E",
"q#	c #46613A",
"r#	c #77AF16",
"s#	c #4E7118",
"t#	c #598F2B",
"u#	c #7EB811",
"v#	c #7DB50D",
"w#	c #4C6E18",
"x#	c #785544",
"y#	c #74AC20",
"z#	c #4C8234",
"A#	c #2F5431",
"B#	c #755242",
"C#	c #2F5531",
"    .   + @                 # $ % & & & * = = - ;                       > & , $ ' ) ! $ $ $ $ $ $ $ $ $ $ $ $ $ $ $ ~ ) {       ",
"    .   + @                 # $ % & & & ] = = - ^                       > & / $ ' ) ! $ $ $ $ $ $ $ $ $ $ $ $ $ $ $ ~ ) (       ",
"_ . : < [ } | | | 1 2 3 3 3 $ $ 4 4 4 4 5 6 7 = 8 3 9 _ _ _ _ _ _ _ 0 a b 4 $ $ ' ) c d d d e $ $ $ $ $ $ $ f d d d g h i _ j   ",
"k k l m m n = = o o p , q $ $ $ $ $ $ $ r k s o t $ u k v & & & w k x $ $ $ $ $ y m m m d ) z $ $ $ $ $ $ $ A m c ) B $ C D E F ",
"$ $ $ $ $ G = = H I J & K $ $ $ $ $ $ $ $ $ L L $ $ $ $ u & & & M $ $ $ $ $ $ $ $ $ $ $ N ) z $ $ $ $ $ $ $ $ $ y ) B $ O P Q & ",
"h h h h R G S T H $ U V K $ $ $ h h h h h h $ $ $ $ $ $ W V V V M $ X 4 Y Z G h h h h h ` )  .h R $ $ $ $ $ $ $ ` d ..$ +.) @.#.",
") ) ) ) $.$ $ $ $ $ $ $ $ $ $ $ %.) ) ) ) ) h $ $ $ $ $ $ $ $ $ $ $ &.& *.= =.) ) ) ) ) ) ) ) ) -.$ $ $ $ $ $ $ $ $ $ $ +.) ) ) ",
") ) ;.>.$.$ $ $ $ $ $ $ $ $ R R %.) >.,.,.;.h $ $ $ $ $ $ $ $ $ $ $ '.).!.~.{.].].].) ) ) ) ) ) ^.R $ $ $ $ $ $ $ $ R /.(.]._.:.",
") ) <.R $ $ $ $ $ $ $ $ $ R [ ,.) ) e R R R $ $ $ $ $ $ $ $ $ $ $ $ $ q R R [.}.}.}.|.) ) ) ) ) >.,.1.$ $ $ $ $ $ $ 2.~.~.}.3.  ",
") ) 4.$ $ $ $ $ $ $ $ $ $ R ,.) ) ) 5.$ $ $ $ $ $ $ $ $ $ $ $ $ $ $ $ $ $ L [.= = = 6.) ) ) ) ) ) ) 1.$ $ $ $ $ $ $ 7.= = = 8.  ",
"h h $ $ $ $ $ $ $ $ $ $ $ $ h h h h R $ $ $ 9.T T T T T 0.$ $ $ $ $ $ $ $ $ a.b.c.= d.d.e.) ) ) f.h R $ $ $ $ $ $ $ G Z g.= 8.  ",
"$ $ $ $ $ $ $ $ $ $ $ $ $ $ $ $ $ $ $ $ h.i.j.= k.l.m.= n.i./.$ $ $ $ $ <.o.o.o.p.l.l.l.q.r.].) ..o.s.$ $ $ $ $ $ $ t., u.v.w.  ",
"$ $ $ $ $ $ $ $ $ $ $ $ $ $ $ $ $ $ $ $ x.= = - y.z.A.= = B.C.$ $ $ $ $ A ) ) ) D.E.E.E.F.= G.) ) ) 1.$ $ $ $ $ $ $ H.& I.L J.  ",
"$ $ $ $ $ $ h h $ $ h h R $ $ $ $ $ $ $ x.= K.K.L.& M.N.N.O.P.4 Q.Z /.$ R.) ) ) S.V ).& F.= T.) c d f.$ $ $ $ $ $ $ U.V V.$ W.  ",
"$ $ $ $ $ s.) ) s.$ X.) Y.$ $ $ $ $ $ $ x.= Z.  & & `.      &    += .+$ R.) ) ) ++$ u & F.= T.) -.$ $ $ $ $ $ $ $ $ $ $ $ $ W.  ",
"$ $ $ $ R @+) ) h #+X.) $+R R R /./.R R %+&+Z.& *+*+*+*+*+*+&   =+&+-+/.y ) ;.,. .R u & F.= T.) -.$ $ $ $ $ R R $ $ $ $ $ $ ;+  ",
"$ $ $ $ >+,.) ) ,.,.) ) >.,.,.,.,+~.'+,.)+!+& & ~+~+~+~+~+~+{+& ]+!+^+~./+) (+R ' ,._+& F.= T.) -.$ $ $ $ $ :+,.<+$ $ $ $ $ L L ",
"$ $ $ $ [+) ) ) ) ) ) ) ) ) ) ) }+= {.) |+& & & ~+~+~+~+~+~+{+& & & M.= 1+P 2+$ 3+) 4+& F.= T.) -.$ $ $ $ $ ' ) 5+$ $ $ $ $ $ $ ",
"d d d d >.) ) ) ) ) 6+d.d.d.d.d.= = d.d.7+& 8+9+0+0+0+0+0+0+~+~+0+0+a+b+c+d+0+0+e+#.V & F.= d.d..+$ $ $ $ $ ' ) [ d ..$ $ $ W V ",
") ) X.m ,.) ) ) f+g+h+l.l.l.l.l.l.l.l.l.i+j+k+l+0+0+0+0+0+0+~+~+0+0+0+0+m+~+0+0+n+& & & F.= o+p+q+$ $ $ $ $ A m c ) B $ $ $ r+& ",
") ) h L [+) ) ) s+B.t+E.E.E.E.E.E.E.E.E.0+0+0+0+0+0+0+0+0+0+0+0+~+~+~+~+~+~+~+~+u+& & & F.= T.) -.$ $ $ $ $ $ $ y ) B $ $ $ r+& ",
") ) 4.$ [+) v+v+d.- w+& x+y+y+y+& & & & z+0+0+0+0+0+0+0+0+0+0+0+A+~+~+~+~+~+~+~+B+y+y+y+C+D+E+< F+Z Z Z G+$ $ $ y ) B $ q 4 H+I+",
") ) 4.$ [+J+= = = - w+& ~+~+~+~+K+& & & L+~+0+0+0+0+0+0+0+0+0+0+0+0+0+0+M+~+~+~+~+~+~+~+N+  & & O+= = = P+$ $ $ y ) B $ Q+& R+= ",
",.>.h $ [+J+= = S+~.T+*+~+~+~+~+U+V+*+*+L+~+0+0+0+0+0+0+0+0+0+0+0+0+0+0+M+~+~+~+~+~+~+~+N+*+& & W+&+X+= Y+/.R $ A ,.B $ Z+!+R+= ",
"R R $ $ [+J+= = `+~+~+~+~+~+~+~+0+0+~+~+~+~+~+~+~+~+0+0+ @~+0+0+0+0+0+0+M+~+~+~+~+~+~+~+~+~+.@& +@!+@@= ~.~.#@$ R R $ $ $@&+%@= ",
"$ $ $ $ [+J+= = &@~+~+~+~+~+~+~+0+0+~+~+~+~+~+~+~+~+0+0+ @~+0+0+0+0+0+0+M+~+~+~+~+~+~+~+~+~+.@& & & *@= = = #@$ $ $ $ $ =@= = = ",
"$ $ $ L -@;@>@,@~+~+0+0+~+~+~+~+~+~+~+~+~+~+~+~+~+~+~+~+~+~+0+0+0+0+0+0+M+~+~+~+0+0+m+~+~+~+~+~+'@& )@I+!@= #@$ $ $ $ $ G+Z ~@{@",
"$ $ $ I ]@^@~+~+~+~+0+0+~+~+~+~+~+~+~+~+~+~+~+~+~+~+~+~+~+~+0+0+0+0+0+0+m+~+~+~+0+0+/@~+~+~+~+~+B+& (@y._@= #@$ $ $ $ $ 4 , :@  ",
"$ $ $ $ k <@~+~+0+0+~+~+~+~+0+0+0+0+~+~+0+0+0+0+0+0+~+~+~+~+0+0+~+~+~+~+~+~+0+0+0+0+0+0+/@~+~+~+B+& *@- = = #@$ $ $ $ $ Q+& [@  ",
"4 4 $ $ }@|@~+~+0+0+~+~+~+~+0+0+0+0+~+~+0+0+0+0+0+0+~+~+~+~+0+0+~+~+~+~+~+~+0+0+0+0+0+0+1@~+~+~+B+& 2@= 3@T 4@$ $ $ q 4 V.& 5@  ",
"& & t.$ 6@~+~+~+~+~+~+~+0+0+0+0+0+0+0+0+0+0+0+0+0+0+~+~+~+~+~+~+~+~+~+~+~+~+~+~+0+0+ @~+~+~+~+~+B+& 2@= =@$ $ $ $ $ H.& & & 5@  ",
"*+7@8@9@6@~+~+~+~+~+~+~+0+0+0+0+0+0+0+0+0+0+0+0+0+0+~+~+~+~+~+~+~+~+~+~+~+~+~+~+0+0+ @~+~+~+~+~+0@& a@~.=@$ $ $ $ $ H.& & & 5@  ",
"b@b@c@).~+~+~+~+0+0+d@d@0+0+0+0+e@f@0+0+0+0+d@d@d@d@g@~+~+~+0+0+0+0+0+0+0+0+0+0+0+0+ @~+~+~+h@*+& & i@/.R $ $ $ $ $ H.& & & 5@  ",
"j@j@K+& ~+~+~+~+0+0+d@d@0+0+0+0+k@l@0+0+0+0+d@d@d@d@m@~+~+~+0+0+0+0+0+0+0+0+0+0+0+0+ @~+~+~+.@& `.  n@$ $ $ $ $ $ $ H.& & & 5@  ",
"0+0+o@9+0+0+~+~+d@d@0+0+d@d@0+0+0+0+0+0+d@d@0+0+0+0+0+0+0+0+0+0+0+0+d@d@p@0+0+0+q@~+~+~+~+~+.@& r@N.s@$ $ $ $ $ $ $ H.& N+9+t@  ",
"0+0+u@l+0+0+~+~+d@d@0+0+d@d@0+0+0+0+0+0+d@d@0+0+0+0+0+0+0+0+0+0+0+0+d@v@w@0+0+0+m+~+~+~+~+~+x@y.y@v.z@$ $ $ $ $ $ $ A@k B@C@D@  ",
"d@d@0+0+0+0+~+~+~+~+0+0+0+0+0+0+0+0+0+0+d@d@d@d@d@d@d@d@d@d@E@l@0+0+d@d@w@0+~+~+F@G@ @~+H@`.I@- -+L $ $ $ $ $ $ $ $ $ $ Q+& 5@  ",
"d@d@0+0+0+0+~+~+~+~+0+0+0+0+0+0+0+0+0+0+d@d@d@d@d@d@d@d@d@d@J@K@0+0+d@d@w@0+~+~+ @L@M@~+N@O@P@d.Q@h h h R@$ $ $ $ $ $ $ Q+& 5@  ",
"d@d@0+0+~+~+~+~+~+~+d@d@d@d@d@d@0+0+0+0+0+0+d@d@d@d@d@d@d@d@d@d@0+0+d@d@S@0+~+~+~+~+T@& F.= T.) ) ) ) ) O $ $ $ $ $ $ $ Q+& 5@  ",
"d@d@0+0+~+~+~+~+~+~+d@d@d@d@d@d@0+0+0+0+0+0+d@d@d@d@d@d@d@d@d@d@0+0+d@d@S@0+~+~+~+~+T@& F.= U@,.) ) ) ) +.$ $ $ $ $ $ $ Q+7@V@  ",
"d@d@0+0+d@d@d@d@d@d@d@d@d@d@d@d@d@d@0+0+0+0+d@d@d@d@d@d@d@d@d@d@0+0+d@d@S@0+~+~+u+*+& & F.= W@R :+) ) ) +.$ $ $ $ $ $ $ X@      ",
"d@d@0+0+d@d@d@d@d@d@d@d@d@d@d@d@d@d@0+0+0+0+d@d@d@d@d@d@d@d@d@d@0+0+d@d@Y@0+~+~+u+& & & F.= Z@$ :+) ) ) +.$ $ $ $ $ $ $ `@      ",
"d@d@d@d@d@d@d@d@d@d@d@d@d@d@d@d@d@d@0+0+d@d@d@d@d@d@d@d@d@d@ #.#d@d@+#0+0+0+~+~+u+& & & @#6 ##d ! h h h $#d %#$ $ $ $ $ `@      ",
"d@d@d@d@d@d@d@d@d@d@d@d@d@d@d@d@d@d@&#0+d@d@d@d@d@d@d@*#d@d@=#-#d@d@0+0+0+0+~+~+u+& & & & & ##) -.$ $ $ g m Y.$ $ $ $ $ ;#>#,#  ",
"d@d@d@d@0+0+d@d@d@d@d@d@d@d@d@d@d@d@d@d@d@d@d@d@0+0+0+0+0+0+d@d@d@d@+#0+0+0+~+~+u+& & & & & ##) -.$ $ $ $ $ $ $ $ $ $ $ $ $ '#  ",
"d@d@d@d@0+0+d@d@d@d@d@d@d@d@d@d@d@d@d@d@d@d@d@d@0+0+0+0+0+0+d@d@d@d@0+0+0+0+~+~+B+y+*+& & & )#v+! $ $ $ $ $ $ $ $ $ $ $ q 4 !#  ",
"d@d@d@d@d@d@d@d@d@d@d@d@d@d@d@d@d@d@d@d@d@d@0+0+d@d@0+0+0+0+d@d@0+0+0+0+0+0+~+~+~+~+~#& &   =+= 0.$ $ $ $ $ $ $ $ $ $ $ Q+& 5@  ",
"d@d@d@d@d@d@d@d@d@d@d@d@d@d@d@d@d@d@d@d@d@d@0+0+d@d@0+0+0+0+d@d@0+0+0+0+0+0+~+~+~+~+T@& +@{#]#}.-+$ $ $ $ $ $ $ $ $ $ q A@& 5@  ",
"d@d@d@d@d@d@d@d@d@d@d@d@d@d@d@d@d@d@d@d@d@d@d@d@d@d@d@d@^#0+0+0+0+0+/#~+~+~+~+~+u+*+& & (#&+G.].^.$ $ $ $ $ $ $ $ $ H.).& & 5@  ",
"d@d@d@d@d@d@d@d@d@d@d@d@d@d@d@d@d@d@d@d@d@d@d@d@d@d@d@d@^#0+0+0+0+0+/#~+~+~+~+~+u+& `.  F.= T.) -.$ $ $ $ $ $ $ $ $ H.& & & 5@  ",
"d@d@d@d@d@d@d@d@d@d@d@d@d@d@d@d@d@d@d@d@d@d@d@d@0+0+d@d@d@d@0+0+q@~+~+~+H@y+y+y+*+& *@N._#v+].) -.$ $ $ $ $ $ $ $ $ q 4 V.& 5@  ",
"d@d@d@d@d@d@d@d@d@d@d@d@d@d@d@d@d@d@d@d@d@d@d@d@0+0+d@d@d@d@0+0+~+~+~+~+T@& & & & & :#p+/+) ) ) -.$ $ $ $ $ $ $ $ $ h o.<#& 5@  ",
"d@d@d@d@d@d@d@d@d@d@d@d@d@d@d@d@d@d@d@d@d@d@d@d@0+0+0+0+0+0+~+~+~+~+'@& & & & & & & [#) ) ) ) ) -.$ $ $ $ $ $ $ $ $ ~ ) }#& 5@  ",
"d@d@d@d@d@d@d@d@d@d@d@d@d@d@d@d@d@d@d@d@d@d@d@d@0+0+0+0+0+0+~+~+~+~+'@& v V V V V V |#d d d d d 1#$ $ $ $ $ $ $ $ $ ~ ) 2##.3#  ",
"d@d@d@d@d@d@d@d@d@d@d@d@d@d@d@d@d@d@d@d@d@d@d@d@d@d@0+0+0+0+0+0+~+~+'@& 4#$ $ $ $ $ $ $ $ $ $ $ $ $ $ $ $ $ $ $ $ $ ~ ) ) ) 5#  ",
"d@d@d@d@d@d@d@d@d@d@d@d@d@d@d@d@d@d@d@d@d@d@d@d@d@d@0+0+0+0+0+0+~+~+B+*+6#q $ $ $ $ $ $ $ $ $ $ $ $ $ $ $ $ $ $ $ $ ~ ) ) ].7#  ",
"d@d@d@d@d@d@d@d@d@d@d@d@d@d@d@d@d@d@d@8#d@d@d@d@0+0+d@d@9#~+~+~+~+~+~+~+0#)., $ $ $ $ $ $ $ $ $ $ $ $ $ $ $ $ $ $ $ ~ ) a#}.b#7@",
"d@d@d@d@d@d@d@d@d@d@d@d@d@d@d@d@d@d@d@8#d@d@d@d@0+0+d@d@c#~+~+~+~+~+~+~+d#& , $ $ $ $ $ $ $ $ $ $ $ $ $ $ $ $ $ $ $ ~ ) e#= f#& ",
"d@d@d@d@d@d@d@d@d@d@d@d@d@d@d@d@d@d@d@8#d@d@d@d@d@d@g#0+0+0+~+~+~+~+~#y+h#~+i#V x $ $ $ $ $ $ $ $ $ $ $ $ $ $ $ $ $ s.h H Z j#< ",
"d@d@d@d@d@d@d@d@d@d@d@d@d@d@d@d@d@d@d@d@d@d@d@d@d@d@0+0+0+0+~+~+~+~+k#l#m#~+n#& x $ <.o.h $ $ $ $ $ $ $ $ $ $ $ <.o.o.o.o.o.o#p#",
"d@d@d@d@d@d@d@d@d@d@d@d@d@d@d@d@d@d@d@d@d@d@d@d@0+0+0+0+0+0+0+0+~+~+~+~+q#& & & x $ r#) B $ $ $ $ $ $ $ $ $ $ $ y ) ) ) ) ) s#  ",
"d@d@d@d@d@d@d@d@d@d@d@d@d@d@d@d@d@d@d@d@d@d@d@d@0+0+0+0+0+0+0+0+~+~+~+~+d#& & & t#h f ) B $ $ $ $ $ $ $ $ $ $ $ ` d u#< m v#w#  ",
"d@d@d@d@d@d@d@d@d@d@d@d@d@d@d@d@d@d@d@d@d@d@d@d@d@d@0+0+x#~+~+~+~+~+~+~+d#& & & y#) ) ) B $ $ $ $ $ $ $ $ $ $ $ $ $ z#& A#      ",
"d@d@d@d@d@d@d@d@d@d@d@d@d@d@d@d@d@d@d@d@d@d@d@d@d@d@0+0+B#~+~+~+~+~+~+~+d#& & & y#) ) ) B $ $ $ $ $ $ $ $ $ $ $ $ $ H.& C#      "};
