/* XPM */
static char * tiles1_xpm[] = {
"64 64 270 2",
"  	c None",
". 	c #5A3B27",
"+ 	c #665444",
"@ 	c #868579",
"# 	c #4F2913",
"$ 	c #88877B",
"% 	c #563621",
"& 	c #583824",
"* 	c #5B3C29",
"= 	c #94928B",
"- 	c #918F88",
"; 	c #929088",
"> 	c #99978F",
", 	c #5F4737",
"' 	c #61574F",
") 	c #706B62",
"! 	c #6F6B61",
"~ 	c #6E6A60",
"{ 	c #6D695F",
"] 	c #6D685F",
"^ 	c #5A3F2C",
"/ 	c #6F6A61",
"( 	c #5B4231",
"_ 	c #6C685E",
": 	c #604939",
"< 	c #6E6960",
"[ 	c #5E4534",
"} 	c #61564F",
"| 	c #6C675E",
"1 	c #60574F",
"2 	c #6B675D",
"3 	c #61574E",
"4 	c #6D6960",
"5 	c #6E6860",
"6 	c #6C685F",
"7 	c #6B665D",
"8 	c #655444",
"9 	c #5C412F",
"0 	c #60564D",
"a 	c #60564E",
"b 	c #6D675F",
"c 	c #6B655D",
"d 	c #5B3F2D",
"e 	c #5F554D",
"f 	c #6C665E",
"g 	c #6A655C",
"h 	c #593D2A",
"i 	c #6A645C",
"j 	c #5A3C29",
"k 	c #5F554C",
"l 	c #53321E",
"m 	c #69645B",
"n 	c #54301B",
"o 	c #5E544C",
"p 	c #5E554C",
"q 	c #69645A",
"r 	c #69635A",
"s 	c #69635B",
"t 	c #93918A",
"u 	c #54311C",
"v 	c #5D534B",
"w 	c #5D544B",
"x 	c #5E544B",
"y 	c #68625A",
"z 	c #69625A",
"A 	c #68635A",
"B 	c #5D524A",
"C 	c #5D524B",
"D 	c #666057",
"E 	c #665F57",
"F 	c #666157",
"G 	c #666158",
"H 	c #676158",
"I 	c #676259",
"J 	c #676159",
"K 	c #858478",
"L 	c #929089",
"M 	c #54331D",
"N 	c #5D514A",
"O 	c #655E56",
"P 	c #655F56",
"Q 	c #666058",
"R 	c #918E88",
"S 	c #55341F",
"T 	c #5C514A",
"U 	c #5C5149",
"V 	c #5D5149",
"W 	c #645D55",
"X 	c #645E55",
"Y 	c #655E55",
"Z 	c #848276",
"` 	c #8F8C85",
" .	c #553621",
"..	c #4C2D1D",
"+.	c #4D2F20",
"@.	c #4E3122",
"#.	c #4F3223",
"$.	c #4F3324",
"%.	c #533624",
"&.	c #533623",
"*.	c #523421",
"=.	c #52321E",
"-.	c #51301C",
";.	c #502E19",
">.	c #502C17",
",.	c #502B15",
"'.	c #4F2A14",
").	c #5C5247",
"!.	c #868478",
"~.	c #838175",
"{.	c #8E8A83",
"].	c #553723",
"^.	c #5A4E44",
"/.	c #5A4F45",
"(.	c #5B5045",
"_.	c #5E5449",
":.	c #4F311E",
"<.	c #848377",
"[.	c #828175",
"}.	c #8C8881",
"|.	c #553824",
"1.	c #5A5045",
"2.	c #5B5046",
"3.	c #5D5349",
"4.	c #838074",
"5.	c #8B8781",
"6.	c #563926",
"7.	c #5B5147",
"8.	c #5B5146",
"9.	c #5D544A",
"0.	c #4F3625",
"a.	c #858377",
"b.	c #828074",
"c.	c #8A867F",
"d.	c #5A5046",
"e.	c #5B5047",
"f.	c #5C5147",
"g.	c #848277",
"h.	c #827F74",
"i.	c #8A8680",
"j.	c #4F3626",
"k.	c #8B8780",
"l.	c #5A4F46",
"m.	c #8C8982",
"n.	c #563826",
"o.	c #5B4F49",
"p.	c #5B5049",
"q.	c #635B53",
"r.	c #635C54",
"s.	c #645D54",
"t.	c #5A4537",
"u.	c #584132",
"v.	c #645444",
"w.	c #502D19",
"x.	c #553624",
"y.	c #645C54",
"z.	c #665E57",
"A.	c #5A4739",
"B.	c #584031",
"C.	c #8F8D86",
"D.	c #553521",
"E.	c #523D31",
"F.	c #533E33",
"G.	c #533F34",
"H.	c #533F35",
"I.	c #503729",
"J.	c #563C2C",
"K.	c #553A29",
"L.	c #594637",
"M.	c #594537",
"N.	c #5E5146",
"O.	c #5A4436",
"P.	c #5A4536",
"Q.	c #5D4D41",
"R.	c #5F5349",
"S.	c #594335",
"T.	c #594233",
"U.	c #918E87",
"V.	c #543320",
"W.	c #5E554B",
"X.	c #4D3224",
"Y.	c #6D675E",
"Z.	c #6C675F",
"`.	c #54321E",
" +	c #5D534A",
".+	c #4B2E1E",
"++	c #676058",
"@+	c #54321D",
"#+	c #4F382C",
"$+	c #94918A",
"%+	c #54311D",
"&+	c #5C5049",
"*+	c #5E534C",
"=+	c #54453C",
"-+	c #5D534C",
";+	c #5F554E",
">+	c #5C504A",
",+	c #5E544E",
"'+	c #573F30",
")+	c #534037",
"!+	c #5D4D42",
"~+	c #5D4E42",
"{+	c #573D2E",
"]+	c #563B2B",
"^+	c #5C4C40",
"/+	c #5B4A3D",
"(+	c #5B493C",
"_+	c #5B483B",
":+	c #573C2D",
"<+	c #543624",
"[+	c #543523",
"}+	c #553726",
"|+	c #5E554D",
"1+	c #5F564E",
"2+	c #605750",
"3+	c #615850",
"4+	c #6B675E",
"5+	c #543625",
"6+	c #69645C",
"7+	c #5C4B40",
"8+	c #5A4E48",
"9+	c #5B504A",
"0+	c #5C514B",
"a+	c #5E534D",
"b+	c #5E554E",
"c+	c #5F554F",
"d+	c #665F58",
"e+	c #5C4B3F",
"f+	c #5A4F49",
"g+	c #5D534D",
"h+	c #5F564F",
"i+	c #60564F",
"j+	c #5C4A3E",
"k+	c #5C493D",
"l+	c #5E4F45",
"m+	c #605650",
"n+	c #5E4F44",
"o+	c #5D524C",
"p+	c #5C524B",
"q+	c #675240",
"r+	c #655D56",
"s+	c #4F372B",
"t+	c #523F35",
"u+	c #534137",
"v+	c #534138",
"w+	c #4D3225",
"x+	c #50382C",
"y+	c #5D4E43",
"z+	c #5C4B3E",
"A+	c #5D5044",
"B+	c #5D4F43",
"C+	c #5E544D",
"D+	c #513B31",
"E+	c #573D2D",
"F+	c #573E2E",
"G+	c #482413",
"H+	c #61564B",
"I+	c #5F544B",
"J+	c #60554C",
"K+	c #665E55",
"L+	c #767469",
"M+	c #685F56",
"N+	c #695F57",
"O+	c #726A63",
"P+	c #86847B",
"Q+	c #57483F",
"R+	c #5F564D",
"S+	c #60574E",
"T+	c #60584F",
"U+	c #57483E",
"    . . . . . . . . . . . . . . . . . . . . . + . . . . . . . . . . . . . . . . . . . . . . . . . . . . . . . . + . . . . . . . ",
"  . @ @ @ @ @ @ @ @ @ @ @ @ @ @ @ @ @ @ @ @ @ # @ @ @ @ @ @ @ @ @ @ @ @ @ @ @ @ @ @ @ @ @ @ @ @ @ @ @ @ @ @ $ $ % @ @ @ @ @ @ @ ",
". @ @ @ @ @ @ @ @ @ @ @ @ @ @ @ @ @ @ @ @ @ @ # @ @ @ @ @ @ @ @ @ @ @ @ @ @ @ @ @ @ @ @ @ @ @ @ @ @ @ @ @ @ @ $ & @ @ @ @ @ @ @ ",
". @ @ @ @ @ @ @ @ @ @ @ @ @ @ @ @ @ @ @ @ @ @ + @ @ @ @ @ @ @ @ @ @ @ @ @ @ @ @ @ @ @ @ @ @ @ @ @ @ @ @ @ @ @ @ + @ @ @ @ @ @ @ ",
"* @ @ @ @ @ @ = = = = = = = = = = = = = = = = + = = = = = = = = = = = = = = = = = = = = - - - - - - - ; = > > > + = > > > = = = ",
"* @ @ @ @ @ = , ' ) ) ) ! ~ ~ { { ] ] ] ] ] { ^ ) ) ) ) ) ) ) ) ! ! / ~ ~ ~ { { { { { ] ] ] ] ] ] ] { { { { { ] ( ] ] ] _ ] ] ] ",
"* @ @ @ @ @ = : ' ! ! / / < { ] ] ] ] ] ] ] ] ^ ! ! ! ! ! ! / / / / ~ < < { ] ] ] ] ] ] ] ] ] ] ] ] ] ] ] { ] ] ( ] ] _ _ _ ] ] ",
"* @ @ @ @ @ = [ } ~ ~ < < { { ] ] ] ] ] ] _ _ ^ / / / ~ ~ ~ < < < < < { { { ] ] ] ] ] ] ] ] ] ] _ _ _ _ _ _ | | ( ] _ _ | | _ _ ",
"* @ @ @ @ @ = [ 1 ' < < < { ] _ _ _ _ _ _ _ _ ^ ~ ~ < < < < < < < < < { { ] ] ] _ _ _ _ _ _ _ _ _ _ _ | | | | | ( | | | | | 2 2 ",
"* = = = = = = [ 3 3 4 5 6 _ | | | | | | | | | ^ < < < < < 4 5 5 6 6 _ _ _ | | | | | | | | | | | | | | 2 2 2 2 2 ( 7 7 7 7 7 7 7 ",
"* # 8 8 8 8 # 9 0 a | | _ | | 7 7 7 7 7 7 7 7 ^ ] ] ] b b | | | _ _ _ | | | 2 2 7 7 7 7 7 7 7 7 7 7 7 7 7 7 7 7 ( 7 7 7 7 7 c c ",
"* @ @ @ @ @ = d e e f 7 7 7 g g g g g g g g g ^ f f f f f f 7 7 7 7 7 7 7 g g g g g g g g g g g g g g g c c c c h c c g i i i i ",
"* @ @ @ @ @ = j k e e g g g g g g g g g g g g ^ i i i g g g g g g g g g g g g g g g g g g g g g g g g g g g i g l m m m m m m m ",
"* @ @ @ @ @ = n o o p q m r r q i m m m m m m ^ m m m m m m m m m m m m m m m m m m i m m m m m m m m m m m m m l s s s s s s m ",
"* @ @ @ @ @ t u v w x y y y y y y z r s s s s ^ y y y y y A s s s s s s s s s s s s s s s s s s s s s s s s A A l A A A A A A A ",
"* @ @ @ @ @ t u B C v v D D E D F G G H y I y ^ J J I J J I I I I I I I I J I I I I I I I I I y I y y y A A A y l y y y y y y y ",
"* @ @ @ @ K L M N B B B O O O P P E Q Q H J J # J J J J J J J J J J J J J J J J J J J J J J J J J J J J J J J J l J J J J J J J ",
"* @ @ @ K K R S T U V V W W W X Y P E Q Q J J # J J J J J J J J J J J J J J J J J J J J J J J J J J J J J J J J # J J J J J J J ",
"* @ @ @ K Z `  ...+.@.#.$.%.%.&.*.=.-.;.>.,.'.# # # # # # # # # # # # # # # # # # # # # # # # # # # # # # # # # ).# # # # # # # ",
"* @ @ !.K ~.{.].^./.(.(.).).).).).).).).).).).).).).).)._.).).:.).).).).).).).).).).).).).).).).).).).).).).).).).).).).).).).:.",
"* @ @ !.<.[.}.|.1.(.(.2.).).).).).).).).).).).).).).).).).).).:.3.).).).).).).).).).).).).).).).).).).).).).).).).).).).).).).:.",
"* @ @ K Z 4.5.6.1.2.2.7.8.).).).).).).).).).).).).).).).).9.).0.3.).).).).).).).).).).).).).).).).).).).).).).).).).).).).).).:.",
"* @ @ a.Z b.c.6.d.e.e.e.7.f.).).).).).).).).).).).).).).).9.).0.).).).).).).).).).).).).).).).).).).).).).).).).).).).).).).).:.",
"* @ @ a.g.h.i.6.d.e.e.e.e.f.).).).).).).).).).).).).).).).9.9.j.3.).).).).).).).).).).).).).).).).).).).).).).).).).).).).).).:.",
"* @ @ K g.b.k.6./.l.d.d.d.f.).).).).).).).).).).).).).).).9.9.j.3.).).).).).).).).).).).).).).).).).).).).).).).).).).).).).).:.",
"* m.m.m.m.m.m.n.o.o.p.p.p.p.q.r.s.Y E Q Q J J J J J J J J J J t.J J J J J J J J J J J J J J J J J J J J J J J J J J J J J J J u.",
"* # 8 8 8 v.w.x.o.o.o.o.p.p.y.W O z.Q Q J J J J J J J J J J J A.J J J J J J J J J J J J J J J J J J J J J J J J J J J J J J J B.",
"* @ @ @ K <.C.D.E.F.G.H.G.I.J.K.L.M.N.N.N.N.N.N.N.N.N.N.O.P.P.P.P.N.N.N.N.N.N.N.N.N.N.N.N.Q.Q.Q.N.N.N.R.R.R.R.R.R.R.R.R.R.S.S.T.",
"* @ @ @ K K U.V.o x x x W.W.X.7 7 | Y.] ] ] ] ] ] ] ] ] ] ] ] ] ] ] ] ] ] ] ] ] ] ] ] ] ] ] Q.Z.Z.Z.Z.Z.Z.Z.Z.Z.Z.Z.Z.Z.Z.Z.Z.Z.",
"* @ @ @ @ K L `.U U T B  +v .+++J J J J J J J J J J J J J J J J J J J J J J J J J J J J J J Q.J J J J J J J J J J J J J J J J J ",
"* @ @ @ @ K t @+U U B B v v #+J J J J J J J J J J J J J J J J J J J J J J J J J J J J J J J Q.J J J J J J J J J J J J J J J J J ",
"* @ @ @ @ @ $+%+&+T B v v *+=+J J J J J J J J J J J J J J J J J J J J J J J J J J J J J J J Q.J J J J J J J J J J J J J J J J J ",
"* @ @ @ @ @ = u &+T B v -+o =+;+J J J J J J J J J J J J J J J J J J J J J J J J J J J J J J Q.J J J J J J J J J J J J J J J J J ",
"* @ @ @ @ @ = u &+T C v -+o =+;+J J J J J J J J J J J J J J J J J J J J J J J J J J J J J J Q.J J J J J J J J J J J J J J J J J ",
"* @ @ @ @ @ = u &+T C v v o =+;+J J J J J J J J J J J J J J J J J J J J J J J J J J J J J J u.J J J J J J J J J J J J J J J J J ",
"* @ @ @ @ @ = u >+T N C *+o =+,+,+J J J J J J J J J J J J J J J J J J J J J J J J J J J J J '+J J J J J J J J J J J J J J J J J ",
"* @ @ @ @ @ = u )+)+)+)+)+)+)+)+)+!+!+!+!+!+!+!+!+!+!+~+~+~+M.{+]+]+]+^+/+(+(+_+_+_+_+:+:+<+[+}+:+R.R.R.R.R.R.R.R.R.R.R.A._+(+!+",
"* @ @ @ @ @ = u o o |+1+a 1 2+3+3+4+4+4+4+4+4+| | | Z.Z.Z.Z.Z.Z.5+Z.Z.Z.Z.Z.6+6+6+6+6+6+6+6+6+6+6+6+6+6+6+6+6+6+6 6 6 6 6 Z.| 7+",
"* @ @ @ @ @ = u 8+o.9+0+-+a+b+c+c+d+d+d+d+d+d+d+d+d+d+d+d+d+d+d+5+d+d+d+d+d+d+d+d+d+d+d+d+d+d+d+d+d+d+d+d+d+d+d+d+d+d+d+d+d+d+e+",
"* @ @ @ @ @ = u f+o.>+0+g+,+c+h+i+i+d+d+d+d+d+d+d+d+d+d+d+d+d+d+j+d+d+d+d+d+d+d+d+d+d+d+d+d+d+d+d+d+d+d+d+d+d+d+d+d+d+d+d+d+d+k+",
"* @ @ @ @ @ = u f+p.T C a+b+c+i+2+2+d+d+d+d+d+d+d+d+d+d+d+d+d+d+R.d+d+d+d+d+d+d+d+d+d+d+d+d+d+d+d+d+d+d+d+d+d+d+d+d+d+d+d+d+d+l+",
"* @ @ @ @ @ = u f+p.>+C a+,+h+m+m+2+d+d+d+d+d+d+d+d+d+d+d+d+d+d+R.d+d+d+d+d+d+d+d+d+d+d+d+d+d+d+d+d+d+d+d+d+d+d+d+d+d+d+d+d+d+l+",
"* = = = = = = u 8+p.>+0+*+,+;+i+m+m+m+d+d+d+d+d+d+d+d+d+d+d+d+d+R.d+d+d+d+d+d+d+d+d+d+d+d+d+d+d+d+d+d+d+d+d+d+d+d+d+d+d+d+d+d+n+",
"* # 8 8 8 8 # u 8+f+>+T o+a+,+;+h+i+i+d+d+d+d+d+d+d+d+d+d+d+d+d+R.d+d+d+d+d+d+d+d+d+d+d+d+d+d+d+d+d+d+d+d+d+d+d+d+d+d+d+d+d+d+[+",
"* @ @ @ @ @ = u 8+8+9+>+p+o+a+,+,+,+q+d+d+d+d+d+d+d+d+d+d+d+d+d+R.d+d+d+d+d+d+d+d+d+d+r+d+d+d+d+d+d+d+d+d+d+d+d+d+d+d+d+d+d+d+[+",
"* @ @ @ @ @ = u s+t+u+v+w+w+w+w+x+x+v+y+y+y+y+y+~+y+R.R.R.R.R.R.R.R.R.R.R.R.R.R.R.R.R.z+z+(+z+z+A+A+A+A+B+y+~+~+~+~+~+!+[+[+[+[+",
"* @ @ @ @ @ = u C+C+C+C+C+C+w+h+h+i+i+h+Z.Z.Z.Z.Z.Z.Z.Z.Z.Z.Z.Z.Z.Z.Z.Z.Z.Z.Z.Z.Z.Z.Z.Z.Z.Z.z+Z.Z.Z.Z.Z.Z.Z.Z.Z.Z.Z.Z.Z.Z.Z.Z.Z.",
"* @ @ @ @ @ = u 8+8+8+8+8+8+w+0+C o+o+C d+d+d+d+d+d+d+d+d+d+d+d+d+d+d+d+d+d+d+d+d+d+d+d+d+d+z+d+d+d+d+d+d+d+d+d+d+d+d+d+d+d+d+d+",
"* @ @ @ @ @ = u 8+8+8+8+8+8+D+p+o+o+o+o+d+d+d+d+d+d+d+d+d+d+d+d+d+d+d+d+d+d+d+d+d+d+d+d+d+d+z+d+d+d+d+d+d+d+d+d+d+d+d+d+d+d+d+d+",
"* @ @ @ @ @ = u 8+8+8+8+8+8+=+C o+o+o+o+o+d+d+d+d+d+d+d+d+d+d+d+d+d+d+d+d+d+d+d+d+d+d+d+d+d+N.d+d+d+d+d+d+d+d+d+d+d+d+d+d+d+d+d+",
"* @ @ @ @ @ = u 8+8+8+8+8+8+=+0+o+o+o+o+o+d+d+d+d+d+d+d+d+d+d+d+d+d+d+d+d+d+d+d+d+d+d+d+d+d+R.d+d+d+d+d+d+d+d+d+d+d+d+d+d+d+d+d+",
"* @ @ @ @ @ = u 8+8+8+8+8+8+s+0+C o+o+o+o+d+d+d+d+d+d+d+d+d+d+d+d+d+d+d+d+d+d+d+d+d+d+d+d+d+u.d+d+d+d+d+d+d+d+d+d+d+d+d+d+d+d+d+",
"* @ @ @ @ @ = u 8+8+8+8+8+8+s+0+0+0+0+p+C d+d+d+d+d+d+d+d+d+d+d+d+d+d+d+d+d+d+d+d+d+d+d+d+d+E+d+d+d+d+d+d+d+d+d+d+d+d+d+d+d+d+d+",
"* @ @ @ @ @ = u 8+8+8+8+8+8+s+9+>+0+0+0+0+0+d+d+d+d+d+d+d+d+d+d+d+d+d+d+d+d+d+d+d+d+d+d+d+d+F+d+d+d+d+d+d+d+d+d+d+d+d+d+d+d+d+d+",
"* @ @ @ @ @ = u G+G+G+G+G+G+G+G+G+G+G+G+G+G+# # H+# # # # # # # # # # # # # # # # # # # # # # # # # # # # # # # H+# # # # # # # ",
"* @ @ @ @ @ = u I+J+K+K+K+K+K+K+K+K+K+K+K+K+L+L+# L+L+L+L+L+L+L+L+L+L+L+L+L+L+L+L+L+L+L+L+L+L+L+L+L+L+L+L+L+L+L+# L+L+L+L+L+L+L+",
"* @ @ @ @ @ = u I+I+K+K+K+K+K+K+K+K+K+K+K+K+L+L+8 L+L+L+L+L+L+L+L+L+L+L+L+L+L+L+L+L+L+L+L+L+L+L+L+L+L+L+L+L+L+L+8 L+L+L+L+L+L+L+",
"* = = = = = = u J+I+K+K+K+K+K+K+K+K+K+K+K+K+L+L+8 L+L+L+L+L+L+L+L+L+L+L+L+L+L+L+L+L+L+L+L+L+L+L+L+L+L+L+L+L+L+L+8 L+L+L+L+L+L+L+",
"* # 8 8 8 8 # u J+J+K+K+K+K+K+K+K+K+K+K+K+K+L+L+8 L+L+L+L+L+L+L+L+L+L+L+L+L+L+L+L+L+L+L+L+L+L+L+L+L+L+L+L+L+L+L+8 L+L+L+L+L+L+L+",
"* @ @ @ @ @ = u M+N+O+O+O+O+O+O+O+O+O+O+O+O+P+P+8 P+P+P+P+P+P+P+P+P+P+P+P+P+P+P+P+P+P+P+P+P+P+P+P+P+P+P+P+P+P+P+8 P+P+P+P+P+P+P+",
"* @ @ @ @ @ = u Q+Q+w p R+1+S+T+T+T+T+T+T+T+D D 8 D D D D D D D D D D D D D D D D D D D D D D D D D D D D D D D 8 D D D D D D D ",
"* @ @ @ @ @ = u Q+Q+w p 1+S+S+T+T+T+T+T+T+T+D D 8 D D D D D D D D D D D D D D D D D D D D D D D D D D D D D D D 8 D D D D D D D ",
"* @ @ @ @ @ = u Q+U+w p R+S+1 T+T+T+T+T+T+T+D D # D D D D D D D D D D D D D D D D D D D D D D D D D D D D D D D # D D D D D D D ",
"* @ @ @ @ @ = u # # # # # # # # # # # # # # # # # # # # # # # # # # # # # # # # # # # # # # # # # # # # # # # # # # # # # # # # "};
