/* XPM */
static char * tiles8_xpm[] = {
"64 64 96 2",
"  	c #74C857",
". 	c #877756",
"+ 	c #945A43",
"@ 	c #8B7354",
"# 	c #847E5A",
"$ 	c #738F66",
"% 	c #669E70",
"& 	c #5DA574",
"* 	c #53B379",
"= 	c #61BA6D",
"- 	c #70C55D",
"; 	c #8E7253",
"> 	c #7E825D",
", 	c #5EA474",
"' 	c #53B279",
") 	c #61BA6E",
"! 	c #7E825C",
"~ 	c #54B378",
"{ 	c #AB6A4C",
"] 	c #B16C4C",
"^ 	c #B06C4C",
"/ 	c #AD6A4C",
"( 	c #5DA973",
"_ 	c #B36D4B",
": 	c #B56E4B",
"< 	c #B46D4B",
"[ 	c #B26D4B",
"} 	c #8A7756",
"| 	c #5EA674",
"1 	c #B66F4C",
"2 	c #BA724D",
"3 	c #BB734E",
"4 	c #B66E4B",
"5 	c #B16C4B",
"6 	c #8C7756",
"7 	c #937A5A",
"8 	c #8E805E",
"9 	c #AF6B4B",
"0 	c #B8704C",
"a 	c #BD744E",
"b 	c #C07850",
"c 	c #C57C52",
"d 	c #C77D52",
"e 	c #C57B51",
"f 	c #699B6D",
"g 	c #799967",
"h 	c #858761",
"i 	c #AA7351",
"j 	c #B07C55",
"k 	c #C17951",
"l 	c #C97F53",
"m 	c #CA8054",
"n 	c #C47B51",
"o 	c #B9714D",
"p 	c #7D8963",
"q 	c #8D845F",
"r 	c #879066",
"s 	c #948E64",
"t 	c #BD7952",
"u 	c #C67D52",
"v 	c #63A671",
"w 	c #64A972",
"x 	c #60AB74",
"y 	c #789B6C",
"z 	c #A97956",
"A 	c #C17852",
"B 	c #C87E53",
"C 	c #C97E53",
"D 	c #C97F54",
"E 	c #C37A51",
"F 	c #B8714C",
"G 	c #B46E4B",
"H 	c #67A770",
"I 	c #8B825E",
"J 	c #A37856",
"K 	c #B1855B",
"L 	c #C57D53",
"M 	c #BF774F",
"N 	c #AE6B4C",
"O 	c #5DAC74",
"P 	c #70986A",
"Q 	c #799468",
"R 	c #948F64",
"S 	c #C07952",
"T 	c #C77D53",
"U 	c #BB744E",
"V 	c #62AD71",
"W 	c #8A9468",
"X 	c #BC7751",
"Y 	c #C07750",
"Z 	c #B16D4D",
"` 	c #61B370",
" .	c #849369",
"..	c #AE6E4F",
"+.	c #AF6C4C",
"@.	c #7B9264",
"                                                                                              . + + + + + + + + @ # $ % & * = - ",
"                                                                                              + + + + + + + + + + + + ; > , ' ) ",
"                                                                                              + + + + + + + + + + + + + + ! , ~ ",
"                                                                                              + + + + + { ] ^ / + + + + + + > ( ",
"                                                                                              + + + + { _ : : < [ _ [ { + + } | ",
"                                                                                              + + + { _ : 1 2 3 2 4 : 5 + + 6 & ",
"                                                                                              7 8 + 9 0 a b c d e a 4 [ + + + f ",
"                                                                                              g h + i j k l m m m n o [ + + + + ",
"                                                                                                p q r s t m m m m u 2 < / + + + ",
"                                                                                                v w x y z A B C D E F G / + + + ",
"                                                                                                      H I J K L B M : N + + + + ",
"                                                                                                      O P Q R S T U N + + + + + ",
"                                                                                                          V W X Y Z + + + + + + ",
"                                                                                                          `  ...+.+ + + + + + + ",
"                                                                                                            @.+ + + + + + + + + ",
"                                                                                                                                ",
"                                                                                                                                ",
"                                                                                                                                ",
"                                                                                                                                ",
"                                                                                                                                ",
"                                                                                                                                ",
"                                                                                                                                ",
"                                                                                                                                ",
"                                                                                                                                ",
"                                                                                                                                ",
"                                                                                                                                ",
"                                                                                                                                ",
"                                                                                                                                ",
"                                                                                                                                ",
"                                                                                                                                ",
"                                                                                                                                ",
"                                                                                                                                ",
"                                                                                                                                ",
"                                                                                                                                ",
"                                                                                                                                ",
"                                                                                                                                ",
"                                                                                                                                ",
"                                                                                                                                ",
"                                                                                                                                ",
"                                                                                                                                ",
"                                                                                                                                ",
"                                                                                                                                ",
"                                                                                                                                ",
"                                                                                                                                ",
"                                                                                                                                ",
"                                                                                                                                ",
"                                                                                                                                ",
"                                                                                                                                ",
"                                                                                                                                ",
"                                                                                                                                ",
"                                                                                                                                ",
"                                                                                                                                ",
"                                                                                                                                ",
"                                                                                                                                ",
"                                                                                                                                ",
"                                                                                                                                ",
"                                                                                                                                ",
"                                                                                                                                ",
"                                                                                                                                ",
"                                                                                                                                ",
"                                                                                                                                ",
"                                                                                                                                ",
"                                                                                                                                ",
"                                                                                                                                "};
