/* XPM */
static char * tiles4_xpm[] = {
"64 64 450 2",
"  	c #F8C984",
". 	c #54311C",
"+ 	c #94928B",
"@ 	c #868579",
"# 	c #5B3C29",
"$ 	c #F8CD8F",
"% 	c #4F2913",
"& 	c #655444",
"* 	c #F1B183",
"= 	c #F8D4A0",
"- 	c #604330",
"; 	c #614533",
"> 	c #624735",
", 	c #634835",
"' 	c #624835",
") 	c #644B39",
"! 	c #644A38",
"~ 	c #634A38",
"{ 	c #634936",
"] 	c #634836",
"^ 	c #624634",
"/ 	c #624633",
"( 	c #614532",
"_ 	c #604331",
": 	c #614431",
"< 	c #5F422F",
"[ 	c #5B3B27",
"} 	c #8B8980",
"| 	c #848277",
"1 	c #8D8B82",
"2 	c #5C3C28",
"3 	c #F4BB83",
"4 	c #8C8A81",
"5 	c #60422E",
"6 	c #858277",
"7 	c #696158",
"8 	c #696057",
"9 	c #6A6159",
"0 	c #6B635A",
"a 	c #6A635A",
"b 	c #675F56",
"c 	c #665D54",
"d 	c #645A52",
"e 	c #635A51",
"f 	c #60584F",
"g 	c #5D3C26",
"h 	c #5E3E29",
"i 	c #5E402B",
"j 	c #5E402C",
"k 	c #5F412E",
"l 	c #5F402E",
"m 	c #5E3F2A",
"n 	c #5C3C25",
"o 	c #5C3B25",
"p 	c #5F574E",
"q 	c #61422E",
"r 	c #5D3C28",
"s 	c #858377",
"t 	c #5F564D",
"u 	c #5A371E",
"v 	c #706256",
"w 	c #6D6258",
"x 	c #777066",
"y 	c #716256",
"z 	c #8E8B82",
"A 	c #61432E",
"B 	c #5D3D28",
"C 	c #918E85",
"D 	c #726255",
"E 	c #F8CB8A",
"F 	c #5D3E29",
"G 	c #95938B",
"H 	c #868477",
"I 	c #7A7267",
"J 	c #7B776B",
"K 	c #918F86",
"L 	c #F8CF93",
"M 	c #7A756A",
"N 	c #7A776A",
"O 	c #7A7769",
"P 	c #7A7669",
"Q 	c #797369",
"R 	c #868478",
"S 	c #614430",
"T 	c #7A766A",
"U 	c #7B766B",
"V 	c #7C776C",
"W 	c #7C776B",
"X 	c #7B776C",
"Y 	c #7B766C",
"Z 	c #79756A",
"` 	c #60422D",
" .	c #5B371E",
"..	c #787268",
"+.	c #787467",
"@.	c #7A7469",
"#.	c #7B7267",
"$.	c #7B766A",
"%.	c #7B776A",
"&.	c #7C786B",
"*.	c #7D786D",
"=.	c #7C786C",
"-.	c #7A756B",
";.	c #878578",
">.	c #797267",
",.	c #797468",
"'.	c #7B7469",
").	c #7B756A",
"!.	c #7C766E",
"~.	c #7C786E",
"{.	c #7D786E",
"].	c #7E786E",
"^.	c #7E786F",
"/.	c #7C776D",
"(.	c #7D796F",
"_.	c #95938A",
":.	c #61432F",
"<.	c #99978F",
"[.	c #888578",
"}.	c #797368",
"|.	c #7A7368",
"1.	c #7A7568",
"2.	c #7C756A",
"3.	c #7C766A",
"4.	c #7E796F",
"5.	c #7F796F",
"6.	c #80796F",
"7.	c #7D796E",
"8.	c #97948C",
"9.	c #5F3E29",
"0.	c #9C9890",
"a.	c #8F8B82",
"b.	c #5B381E",
"c.	c #7A746D",
"d.	c #7B746A",
"e.	c #7E7970",
"f.	c #7E796E",
"g.	c #7F7A6E",
"h.	c #7F7B6F",
"i.	c #7F7B6E",
"j.	c #7F7A6F",
"k.	c #7E7A6F",
"l.	c #7F796E",
"m.	c #888678",
"n.	c #5F402B",
"o.	c #9C9991",
"p.	c #888579",
"q.	c #898679",
"r.	c #8F8B83",
"s.	c #5B381F",
"t.	c #7B746D",
"u.	c #7F7970",
"v.	c #7F7A71",
"w.	c #7F7A70",
"x.	c #6C6259",
"y.	c #7D776D",
"z.	c #888679",
"A.	c #8B897D",
"B.	c #98958D",
"C.	c #5F3F29",
"D.	c #9D9991",
"E.	c #89867A",
"F.	c #8D8A81",
"G.	c #7E7A70",
"H.	c #807A71",
"I.	c #6C635A",
"J.	c #8E8C82",
"K.	c #8F8C83",
"L.	c #99968E",
"M.	c #60402B",
"N.	c #5C381F",
"O.	c #5E3F29",
"P.	c #89877A",
"Q.	c #8A887A",
"R.	c #8A877A",
"S.	c #8D8B81",
"T.	c #A09C94",
"U.	c #5E3D28",
"V.	c #543019",
"W.	c #696153",
"X.	c #9A968E",
"Y.	c #8C8A7C",
"Z.	c #8A8779",
"`.	c #8C897C",
" +	c #8B897C",
".+	c #7F7C70",
"++	c #9F9A92",
"@+	c #7B786C",
"#+	c #542F18",
"$+	c #696152",
"%+	c #696255",
"&+	c #9E9A92",
"*+	c #9B978F",
"=+	c #96938B",
"-+	c #9A978F",
";+	c #9D9A92",
">+	c #9F9B93",
",+	c #807C70",
"'+	c #7A766B",
")+	c #5A3722",
"!+	c #512C16",
"~+	c #675F52",
"{+	c #675F53",
"]+	c #807E77",
"^+	c #6E685E",
"/+	c #6E685F",
"(+	c #6F6860",
"_+	c #7B776F",
":+	c #7D7970",
"<+	c #7C786F",
"[+	c #7B766E",
"}+	c #6F6960",
"|+	c #6F695F",
"1+	c #757168",
"2+	c #757169",
"3+	c #6D675E",
"4+	c #95918A",
"5+	c #78746A",
"6+	c #777369",
"7+	c #583622",
"8+	c #6D665E",
"9+	c #6D675F",
"0+	c #6E675F",
"a+	c #6E675E",
"b+	c #6F685F",
"c+	c #6F695E",
"d+	c #6F685E",
"e+	c #6D675D",
"f+	c #8B8880",
"g+	c #583621",
"h+	c #6C665D",
"i+	c #6C665E",
"j+	c #6F675E",
"k+	c #6E685D",
"l+	c #6D665D",
"m+	c #828078",
"n+	c #828079",
"o+	c #6B655D",
"p+	c #6C655C",
"q+	c #6D665C",
"r+	c #726C62",
"s+	c #726D63",
"t+	c #6E675D",
"u+	c #7C7A71",
"v+	c #6C655B",
"w+	c #6D655C",
"x+	c #726C63",
"y+	c #52301B",
"z+	c #512F1B",
"A+	c #522F1B",
"B+	c #51301C",
"C+	c #512F1C",
"D+	c #51311E",
"E+	c #52321F",
"F+	c #523320",
"G+	c #533422",
"H+	c #6B655C",
"I+	c #6B645C",
"J+	c #6A645C",
"K+	c #6A645B",
"L+	c #7E7C74",
"M+	c #4E2913",
"N+	c #77746B",
"O+	c #6B655B",
"P+	c #6C665B",
"Q+	c #726D64",
"R+	c #706C63",
"S+	c #533623",
"T+	c #645B51",
"U+	c #655B51",
"V+	c #655C52",
"W+	c #665D52",
"X+	c #665D53",
"Y+	c #645B50",
"Z+	c #645B4F",
"`+	c #5B4F44",
" @	c #594C41",
".@	c #533421",
"+@	c #69635B",
"@@	c #7C7972",
"#@	c #F2B683",
"$@	c #F6C384",
"%@	c #747068",
"&@	c #6B645B",
"*@	c #6D6860",
"=@	c #533420",
"-@	c #655D52",
";@	c #665C52",
">@	c #655C51",
",@	c #655B50",
"'@	c #5A4D42",
")@	c #5B4E43",
"!@	c #6B645A",
"~@	c #69635A",
"{@	c #79776E",
"]@	c #726F67",
"^@	c #533320",
"/@	c #655C50",
"(@	c #645A4F",
"_@	c #5B4E42",
":@	c #78756C",
"<@	c #4E2812",
"[@	c #726E67",
"}@	c #6A645A",
"|@	c #53331F",
"1@	c #655D51",
"2@	c #63584D",
"3@	c #5D5146",
"4@	c #736F67",
"5@	c #6A6459",
"6@	c #6A6359",
"7@	c #6B6359",
"8@	c #52331F",
"9@	c #635A4E",
"0@	c #63574D",
"a@	c #655A50",
"b@	c #645A50",
"c@	c #635A4F",
"d@	c #63594E",
"e@	c #61564B",
"f@	c #6B6358",
"g@	c #696259",
"h@	c #686159",
"i@	c #767269",
"j@	c #696258",
"k@	c #696257",
"l@	c #62574D",
"m@	c #62574C",
"n@	c #5F5448",
"o@	c #523521",
"p@	c #686157",
"q@	c #676157",
"r@	c #676158",
"s@	c #716E65",
"t@	c #686158",
"u@	c #63584E",
"v@	c #50311D",
"w@	c #686156",
"x@	c #676156",
"y@	c #726F66",
"z@	c #716D65",
"A@	c #686057",
"B@	c #676057",
"C@	c #51301B",
"D@	c #61574D",
"E@	c #62574B",
"F@	c #605549",
"G@	c #5F5449",
"H@	c #502F1B",
"I@	c #676056",
"J@	c #676155",
"K@	c #6F6B62",
"L@	c #4D2812",
"M@	c #665F56",
"N@	c #666055",
"O@	c #512F1A",
"P@	c #61574C",
"Q@	c #60554A",
"R@	c #605449",
"S@	c #605448",
"T@	c #5E5446",
"U@	c #5E5346",
"V@	c #665E55",
"W@	c #676054",
"X@	c #666053",
"Y@	c #6F6B60",
"Z@	c #726E66",
"`@	c #655F55",
" #	c #655F54",
".#	c #50321D",
"+#	c #615649",
"@#	c #5F564A",
"##	c #62564B",
"$#	c #5E5347",
"%#	c #5E5146",
"&#	c #5E5145",
"*#	c #5E5245",
"=#	c #655E55",
"-#	c #665E54",
";#	c #6F6A60",
">#	c #716D64",
",#	c #645E54",
"'#	c #655F53",
")#	c #696358",
"!#	c #573E2E",
"~#	c #5F5348",
"{#	c #5F5447",
"]#	c #5F5347",
"^#	c #523422",
"/#	c #6F6A5E",
"(#	c #645E53",
"_#	c #645D53",
":#	c #645C53",
"<#	c #696359",
"[#	c #645E52",
"}#	c #655E53",
"|#	c #635D52",
"1#	c #6B665A",
"2#	c #502E1A",
"3#	c #502D1A",
"4#	c #4F2D1A",
"5#	c #502D19",
"6#	c #502E19",
"7#	c #787468",
"8#	c #635C52",
"9#	c #686358",
"0#	c #6E6A5F",
"a#	c #4D2712",
"b#	c #6E6A61",
"c#	c #635D51",
"d#	c #736D61",
"e#	c #726D60",
"f#	c #625C50",
"g#	c #635C51",
"h#	c #69655A",
"i#	c #6A655A",
"j#	c #6D695F",
"k#	c #6A655B",
"l#	c #6C6759",
"m#	c #635C50",
"n#	c #6A665C",
"o#	c #69655B",
"p#	c #625C51",
"q#	c #4C2711",
"r#	c #6B675C",
"s#	c #6A665B",
"t#	c #4D2711",
"u#	c #54311B",
"v#	c #573622",
"w#	c #573621",
"x#	c #573521",
"y#	c #563520",
"z#	c #563420",
"A#	c #56341F",
"B#	c #502B15",
"C#	c #665342",
"D#	c #676159",
"E#	c #68625A",
"F#	c #6C675E",
"G#	c #6D685F",
"H#	c #6E6960",
"I#	c #6F6A61",
"J#	c #6F6B61",
"K#	c #716C63",
"L#	c #7D7971",
"M#	c #67625A",
"N#	c #68635A",
"O#	c #6F6961",
"P#	c #706C62",
"Q#	c #807C74",
"                                                                                                                . + @ @ @ @ @ # ",
"                                                                                                                . + @ @ @ @ @ # ",
"                                              $ $                                                               . + + + + + + # ",
"                                                                                                                . % & & & & % # ",
"                                                                                                                . + @ @ @ @ @ # ",
"                  * * *                                                       = = = =                           . + @ @ @ @ @ # ",
"                * * * * *                 - - ; > > > > , ' ) ) ) ! ! ~ { ] ^ / ; ( _ : <                       . + @ @ @ @ @ # ",
"              * * * * * * *             [ } | | | | | | | | | | | | | | | | | } } 1 1 1 1 2                     . + @ @ @ @ @ # ",
"              * * * * * * * 3         2 } | | | | | | | | | | | | | | | | | | | } 1 1 1 1 1 2                   . + @ @ @ @ @ # ",
"              * * * * * * * 3       2 } | | | | | | 4 4 4 | | | | | | | | | | | | | | | | | 1 2                 . + @ @ @ @ @ # ",
"              * * * * * * *       5 1 | | | | | | | 4 4 4 4 } | | | | | | | | | | | | | | | | 1 5               . + @ @ @ @ @ # ",
"                3 * * * *         [ 1 | | | | | 6 7 8 9 0 0 0 a a a 0 0 b c c d e | | | | | | 1 5               . + @ @ @ @ @ # ",
"                  * * *           2 1 | 6 6 6 | f g g g h h h h i j k l m m n n o p 6 6 6 6 | 1 q               . + @ @ @ @ @ # ",
"                                  r 1 6 s 6 6 t u v v v w x x x x x x x x x x y y u t 6 s s 6 z A               . + @ @ @ @ @ # ",
"                                  B C 6 s s s u v y x x x x x x x x x x x x x x D y u s s s s z A   E           . + @ @ @ @ @ # ",
"                                  F G s s s H u I I x x x x x J J x x x x x x x x v u H H H s K A   L           . + @ @ @ @ @ # ",
"                                  F G H H H H u I I I I I x M J J N O P x x x x Q w u R H H H K S               . + @ @ @ @ @ # ",
"                                  F G H H R R u I I I I I T U V J W W T x x V X Y Z u R R R R K `               . + + + + + + # ",
"                                  h G R R R R  ...+.@.I #.$.%.&.&.&.W W T T *.=.X -. .R R R R K A               . % & & & & % # ",
"                                  h G ;.R R R  .>.,.'.).).!.~.{.].^.^.{.{.~./.(.(.Y  .;.;.R R _.:.              . + @ @ @ @ @ # ",
"                                  h <.R R [.[. .}.|.1.2.3.].4.5.6.5.5.(.7.{.(.(.(.(. .;.;.;.;.8.A               . + @ @ @ @ @ # ",
"                                  9.0.;.[.[.a.b.c.|.d.^.e.f.g.h.i.j.k.j.5.l.4.4.4.4. .m.m.;.;.8.n.              . + @ @ @ @ @ # ",
"                                  9.o.p.p.q.r.s.t.@.^.e.e.u.v.v.w.j.j.5.x.x.j.4.4.y.b.q.z.z.A.B.n.              . + @ @ @ @ @ # ",
"            E                     C.D.p.E.E.r.F.s.~.4.e.G.w.v.v.H.I.I.I.x.x.x.4.*.b.q.q.q.J.K.L.M.            = . + @ @ @ @ @ # ",
"            E                     C.D.E.E.E.r.r.r.N.N.s.N.s.s.s.s.s.s.s.s.s.s.s.b.q.q.q.q.K.K.D.M.            = . + @ @ @ @ @ # ",
"                                  O.D.E.E.E.E.P.K.K.Q.Q.Q.Q.R.R.R.R.R.R.R.R.R.R.R.R.R.q.q.K.S.T.U.              . + @ @ @ @ @ # ",
"                                  V.W.X.E.E.Q.Q.Q.Q.Y.Q.Q.Q.Q.Q.R.R.R.R.R.R.R.R.R.R.Z.Z.`. +T..+U.              . + @ @ @ @ @ # ",
"                                  V.W.W.++E.Q.Q.Q.Q.Q.Q.Q.Q.R.R.R.R.R.R.R.R.R.R.R.R.R.Z.`.T.@+=.U.              . + @ @ @ @ @ # ",
"                                  #+$+$+%+&+*+B.B.B.8.8.8.8.8.=+=+=+=+=+G *+-+*+o.D.;+>+T.,+'+'+)+              . + @ @ @ @ @ # ",
"                                  !+~+{+]+^+/+/+/+/+/+(+_+:+<+[+}+|+}+}+|+}+|+1+1+1+1+2+3+4+5+6+7+              . + @ @ @ @ @ # ",
"                                  % ~+]+8+3+9+0+0+a+a+b+c+d+d+d+^+^+^+^+^+^+^+^+^+^+1+1+e+e+f+5+g+              . + @ @ @ @ @ # ",
"                                  % ]+h+i+3+e+3+a+^+d+d+c+c+c+c+d+c+j+j+d+d+j+k+l+e+l+e+e+e+e+m+%               . + @ @ @ @ @ # ",
"                                  % n+o+p+q+r+s+^+d+d+d+d+d+d+d+^+^+^+^+^+^+a+t+e+l+l+o+p+h+l+n+%               . + @ @ @ @ @ # ",
"                                  % u+v+p+w+s+x+s+y+z+A+z+B+B+B+B+B+C+D+E+E+F+G+G+l+h+H+I+J+K+L+M+              . + @ @ @ @ @ # ",
"                                  % N+O+P+p+Q+R+S+T+U+V+W+X+V+V+V+V+V+U+Y+Z+Y+`+ @.@h+p+J+K++@@@M+              . + + + + + + # ",
"        #@* $@                    % %@&@&@H+*@=@-@-@V+;@X+X+X+>@>@>@>@,@Y+,@Z+,@'@)@z+O+!@~@~@{@M+              . % & & & & % # ",
"      #@* * *                     % ]@K+K+&@I+^@-@-@-@-@W+W+W+W+W+>@/@Y+Y+Y+,@,@(@_@z+O+!@~@~@:@<@              . + @ @ @ @ @ # ",
"      * * * *                     M+[@}@}@&@&@|@1@1@1@1@2@2@>@>@W+>@>@,@,@,@,@Y+(@3@z+&@a ~@~@N+<@              . + @ @ @ @ @ # ",
"      $@* * *                     M+4@5@6@6@7@8@9@1@1@2@2@2@0@U+U+a@a@b@(@b@c@(@d@e@G+f@g@g@h@i@<@              . + @ @ @ @ @ # ",
"                                  M+]@j@k@j@j@8@2@2@0@0@0@l@l@m@m@c@(@(@(@(@(@n@n@n@o@k@p@q@r@1+<@              . + @ @ @ @ @ # ",
"                                  M+s@p@p@t@t@8@2@u@m@m@m@m@m@m@m@(@(@(@(@(@(@n@n@n@v@w@q@x@q@y@<@              . + @ @ @ @ @ # ",
"                                  <@z@A@p@q@B@C@D@E@m@m@m@m@m@m@m@(@(@(@(@(@F@n@G@n@H@I@I@I@J@K@L@* * * * 3     . + @ @ @ @ @ # ",
"                                  <@s@I@M@I@N@O@G@G@G@G@G@G@P@m@m@m@(@(@Q@R@S@n@T@U@H@V@V@W@X@Y@L@* * * * * 3   . + @ @ @ @ @ # ",
"                                  <@Z@M@`@ # #.#G@G@G@G@G@G@+#@#m@m@E@E@####$#%#&#*#B+=#-#X+~@;#L@* * * * * *   . + @ @ @ @ @ # ",
"                                  <@>#,#'#'# #)#!#~#~#~#G@G@n@{#]#######e@e@%#&#&#^#/#(#_#:#<#;#L@* * * * * *   . + @ @ @ @ @ # ",
"                                  <@K@[#(#(#}#|#1#2#3#4#4#3#3#5#6#2#2#2#2#2#2#H@^#7#|#8#8#:#9#0#a#* * * * * *   . + @ @ @ @ @ # ",
"                                  <@b#|#|#|#[#c#c#d#d#d#d#d#d#d#e#e#e#e#e#e#e#e#e#f#f#g#g#h#i#j#a#* * * * *     . + @ @ @ @ @ # ",
"                                  <@b#|#|#|#|#c#c#c#g#g#k#k#k#l#h#h#h#h#m#f#f#f#f#f#f#h#h#h#i#j#a#* * * *       . + @ @ @ @ @ # ",
"                                    L@n#|#|#c#c#g#g#g#g#k#k#o#p#f#f#f#f#f#f#f#f#f#f#f#h#h#h#h#q#                . + @ @ @ @ @ # ",
"                                      L@r#c#c#g#g#g#g#g#g#p#p#f#f#f#f#f#f#f#f#f#f#f#f#f#h#h#q#                  . + + + + + + # ",
"                                        L@s#g#g#g#g#g#m#g#p#f#f#f#f#f#f#f#f#f#f#f#f#f#f#r#q#                    . % & & & & % # ",
"                                          L@L@L@L@L@L@L@L@a#a#t#q#q#q#q#q#q#q#q#q#q#q#q#q#                      u#+ @ @ @ @ @ # ",
"                                                                                                                u#+ @ @ @ @ @ # ",
"                                                                                                                u#+ @ @ @ @ @ # ",
"                                                                                                                u#+ @ @ @ @ @ # ",
"          = = = =                                                                                               u#+ @ @ @ @ @ # ",
"v#v#v#v#v#v#v#= v#v#w#w#w#w#w#w#w#w#w#w#w#w#w#w#w#w#w#w#w#w#w#w#w#w#x#x#x#x#x#x#  x#x#x#x#x#x#y#y#y#y#z#A#B#% % % + @ @ @ @ @ # ",
"@ @ @ @ @ @ @ C#@ @ @ @ @ @ @ @ @ @ @ @ @ @ @ @ @ @ @ @ @ @ @ @ @ @ @ @ @ @ @ @ C#@ @ @ @ @ @ @ @ @ @ @ @ @ @ @ @ @ @ @ @ @ @ # ",
"@ @ @ @ @ @ @ C#@ @ @ @ @ @ @ @ @ @ @ @ @ @ @ @ @ @ @ @ @ @ @ @ @ @ @ @ @ @ @ @ C#@ @ @ @ @ @ @ @ @ @ @ @ @ @ @ @ @ @ @ @ @ @ # ",
"@ @ @ @ @ @ @ C#@ @ @ @ @ @ @ @ @ @ @ @ @ @ @ @ @ @ @ @ @ @ @ @ @ @ @ @ @ @ @ @ C#@ @ @ @ @ @ @ @ @ @ @ @ @ @ @ @ @ @ @ @ @ @ # ",
"+ + + + + + + & + + + + + + + + + + + + + + + + + + + + + + + + + + + + + + + + C#+ + + + + + + + + + + + + + + + + + + + + + % ",
"D#D#D#D#D#D#D#% D#D#D#D#D#D#D#D#D#D#D#D#D#D#D#D#D#D#D#D#D#D#D#D#D#D#D#D#D#D#D#D#% D#D#D#D#D#D#E#E#E#+@+@o#o+i+F#G#H#I#J#K@K#L#% ",
"D#D#D#D#D#D#D#% D#D#D#D#D#D#D#D#D#D#D#D#D#D#D#D#D#D#D#D#D#D#D#D#D#D#D#D#D#D#D#D#% D#D#D#D#D#D#M#E#E#N#+@o#o+i+F#G#j#O#I#K@P#Q#% ",
"% % % % % % % % % % % % % % % % % % % % % % % % % % % % % % % % % % % % % % % % % % % % % % % % % % % % % % % % % % % % % % %   "};
