/* XPM */
static char * tiles7_xpm[] = {
"64 64 455 2",
"  	c #F8C984",
". 	c #F8CD8F",
"+ 	c #F1B183",
"@ 	c #F8D4A0",
"# 	c #5F422F",
"$ 	c #614431",
"% 	c #604331",
"& 	c #614532",
"* 	c #614533",
"= 	c #624633",
"- 	c #624634",
"; 	c #634836",
"> 	c #634936",
", 	c #634A38",
"' 	c #644A38",
") 	c #644B39",
"! 	c #624835",
"~ 	c #634835",
"{ 	c #624735",
"] 	c #604330",
"^ 	c #5C3C28",
"/ 	c #8D8B82",
"( 	c #8B8980",
"_ 	c #848277",
": 	c #5B3B27",
"< 	c #8C8A81",
"[ 	c #60422E",
"} 	c #635A51",
"| 	c #645A52",
"1 	c #665D54",
"2 	c #675F56",
"3 	c #6B635A",
"4 	c #6A635A",
"5 	c #6A6159",
"6 	c #696057",
"7 	c #696158",
"8 	c #858277",
"9 	c #61422E",
"0 	c #5F574E",
"a 	c #5C3B25",
"b 	c #5C3C25",
"c 	c #5E3F2A",
"d 	c #5F402E",
"e 	c #5F412E",
"f 	c #5E402C",
"g 	c #5E402B",
"h 	c #5E3E29",
"i 	c #5D3C26",
"j 	c #60584F",
"k 	c #61432E",
"l 	c #8E8B82",
"m 	c #858377",
"n 	c #5F564D",
"o 	c #5A371E",
"p 	c #716256",
"q 	c #777066",
"r 	c #6D6258",
"s 	c #706256",
"t 	c #5D3C28",
"u 	c #726255",
"v 	c #918E85",
"w 	c #5D3D28",
"x 	c #918F86",
"y 	c #868477",
"z 	c #7B776B",
"A 	c #7A7267",
"B 	c #95938B",
"C 	c #5D3E29",
"D 	c #614430",
"E 	c #868478",
"F 	c #797369",
"G 	c #7A7669",
"H 	c #7A7769",
"I 	c #7A776A",
"J 	c #7A756A",
"K 	c #60422D",
"L 	c #79756A",
"M 	c #7B766C",
"N 	c #7B776C",
"O 	c #7C776C",
"P 	c #7A766A",
"Q 	c #7C776B",
"R 	c #7B766B",
"S 	c #5B371E",
"T 	c #7A756B",
"U 	c #7C786C",
"V 	c #7D786D",
"W 	c #7C786B",
"X 	c #7B776A",
"Y 	c #7B766A",
"Z 	c #7B7267",
"` 	c #7A7469",
" .	c #787467",
"..	c #787268",
"+.	c #61432F",
"@.	c #95938A",
"#.	c #878578",
"$.	c #7D796F",
"%.	c #7C776D",
"&.	c #7C786E",
"*.	c #7D786E",
"=.	c #7E786F",
"-.	c #7E786E",
";.	c #7C766E",
">.	c #7B756A",
",.	c #7B7469",
"'.	c #797468",
").	c #797267",
"!.	c #97948C",
"~.	c #7D796E",
"{.	c #7F796F",
"].	c #80796F",
"^.	c #7E796F",
"/.	c #7C766A",
"(.	c #7C756A",
"_.	c #7A7568",
":.	c #7A7368",
"<.	c #797368",
"[.	c #888578",
"}.	c #99978F",
"|.	c #5F402B",
"1.	c #888678",
"2.	c #7F796E",
"3.	c #7F7A6F",
"4.	c #7E7A6F",
"5.	c #7F7B6E",
"6.	c #7F7B6F",
"7.	c #7F7A6E",
"8.	c #7E796E",
"9.	c #7E7970",
"0.	c #7B746A",
"a.	c #7A746D",
"b.	c #5B381E",
"c.	c #8F8B82",
"d.	c #9C9890",
"e.	c #5F3E29",
"f.	c #98958D",
"g.	c #8B897D",
"h.	c #888679",
"i.	c #898679",
"j.	c #7D776D",
"k.	c #6C6259",
"l.	c #7F7A70",
"m.	c #7F7A71",
"n.	c #7F7970",
"o.	c #7B746D",
"p.	c #5B381F",
"q.	c #8F8B83",
"r.	c #888579",
"s.	c #9C9991",
"t.	c #60402B",
"u.	c #99968E",
"v.	c #8F8C83",
"w.	c #8E8C82",
"x.	c #6C635A",
"y.	c #807A71",
"z.	c #7E7A70",
"A.	c #8D8A81",
"B.	c #89867A",
"C.	c #9D9991",
"D.	c #5F3F29",
"E.	c #5C381F",
"F.	c #5E3D28",
"G.	c #A09C94",
"H.	c #8D8B81",
"I.	c #8A877A",
"J.	c #8A887A",
"K.	c #89877A",
"L.	c #5E3F29",
"M.	c #7F7C70",
"N.	c #8B897C",
"O.	c #8C897C",
"P.	c #8A8779",
"Q.	c #8C8A7C",
"R.	c #9A968E",
"S.	c #696153",
"T.	c #543019",
"U.	c #7B786C",
"V.	c #9F9A92",
"W.	c #5A3722",
"X.	c #7A766B",
"Y.	c #807C70",
"Z.	c #9F9B93",
"`.	c #9D9A92",
" +	c #9B978F",
".+	c #9A978F",
"++	c #96938B",
"@+	c #9E9A92",
"#+	c #696255",
"$+	c #696152",
"%+	c #542F18",
"&+	c #583622",
"*+	c #777369",
"=+	c #78746A",
"-+	c #95918A",
";+	c #6D675E",
">+	c #757169",
",+	c #757168",
"'+	c #6F695F",
")+	c #6F6960",
"!+	c #7B766E",
"~+	c #7C786F",
"{+	c #7D7970",
"]+	c #7B776F",
"^+	c #6F6860",
"/+	c #6E685F",
"(+	c #6E685E",
"_+	c #807E77",
":+	c #675F53",
"<+	c #675F52",
"[+	c #512C16",
"}+	c #583621",
"|+	c #8B8880",
"1+	c #6D675D",
"2+	c #6F685E",
"3+	c #6F695E",
"4+	c #6F685F",
"5+	c #6E675E",
"6+	c #6E675F",
"7+	c #6D675F",
"8+	c #6D665E",
"9+	c #4F2913",
"0+	c #828078",
"a+	c #6D665D",
"b+	c #6E685D",
"c+	c #6F675E",
"d+	c #6C665E",
"e+	c #6C665D",
"f+	c #828079",
"g+	c #6C655C",
"h+	c #6B655D",
"i+	c #6E675D",
"j+	c #726D63",
"k+	c #726C62",
"l+	c #6D665C",
"m+	c #4E2913",
"n+	c #7E7C74",
"o+	c #6A645B",
"p+	c #6A645C",
"q+	c #6B645C",
"r+	c #6B655C",
"s+	c #533422",
"t+	c #523320",
"u+	c #52321F",
"v+	c #51311E",
"w+	c #512F1C",
"x+	c #51301C",
"y+	c #512F1B",
"z+	c #522F1B",
"A+	c #52301B",
"B+	c #726C63",
"C+	c #6D655C",
"D+	c #6C655B",
"E+	c #7C7A71",
"F+	c #7C7972",
"G+	c #69635B",
"H+	c #533421",
"I+	c #594C41",
"J+	c #5B4F44",
"K+	c #645B50",
"L+	c #645B4F",
"M+	c #655B51",
"N+	c #655C52",
"O+	c #665D53",
"P+	c #665D52",
"Q+	c #645B51",
"R+	c #533623",
"S+	c #706C63",
"T+	c #726D64",
"U+	c #6C665B",
"V+	c #6B655B",
"W+	c #77746B",
"X+	c #79776E",
"Y+	c #69635A",
"Z+	c #6B645A",
"`+	c #5B4E43",
" @	c #5A4D42",
".@	c #655B50",
"+@	c #655C51",
"@@	c #665C52",
"#@	c #655D52",
"$@	c #533420",
"%@	c #6D6860",
"&@	c #6B645B",
"*@	c #747068",
"=@	c #4E2812",
"-@	c #78756C",
";@	c #5B4E42",
">@	c #645A4F",
",@	c #655C50",
"'@	c #533320",
")@	c #726F67",
"!@	c #5D5146",
"~@	c #63584D",
"{@	c #655D51",
"]@	c #53331F",
"^@	c #6A645A",
"/@	c #726E67",
"(@	c #767269",
"_@	c #686159",
":@	c #696259",
"<@	c #6B6358",
"[@	c #61564B",
"}@	c #63594E",
"|@	c #635A4F",
"1@	c #645A50",
"2@	c #655A50",
"3@	c #63574D",
"4@	c #635A4E",
"5@	c #52331F",
"6@	c #6B6359",
"7@	c #6A6359",
"8@	c #6A6459",
"9@	c #736F67",
"0@	c #676158",
"a@	c #676157",
"b@	c #686157",
"c@	c #696257",
"d@	c #523521",
"e@	c #5F5448",
"f@	c #62574C",
"g@	c #62574D",
"h@	c #696258",
"i@	c #726F66",
"j@	c #676156",
"k@	c #686156",
"l@	c #50311D",
"m@	c #63584E",
"n@	c #686158",
"o@	c #716E65",
"p@	c #4D2812",
"q@	c #6F6B62",
"r@	c #676155",
"s@	c #676056",
"t@	c #502F1B",
"u@	c #5F5449",
"v@	c #605549",
"w@	c #62574B",
"x@	c #61574D",
"y@	c #51301B",
"z@	c #676057",
"A@	c #686057",
"B@	c #716D65",
"C@	c #6F6B60",
"D@	c #666053",
"E@	c #676054",
"F@	c #665E55",
"G@	c #5E5346",
"H@	c #5E5446",
"I@	c #605448",
"J@	c #605449",
"K@	c #60554A",
"L@	c #61574C",
"M@	c #512F1A",
"N@	c #666055",
"O@	c #665F56",
"P@	c #6F6A60",
"Q@	c #665E54",
"R@	c #655E55",
"S@	c #5E5245",
"T@	c #5E5145",
"U@	c #5E5146",
"V@	c #5E5347",
"W@	c #62564B",
"X@	c #5F564A",
"Y@	c #615649",
"Z@	c #50321D",
"`@	c #655F54",
" #	c #655F55",
".#	c #726E66",
"+#	c #696359",
"@#	c #645C53",
"##	c #645D53",
"$#	c #645E53",
"%#	c #6F6A5E",
"&#	c #523422",
"*#	c #5F5347",
"=#	c #5F5447",
"-#	c #5F5348",
";#	c #573E2E",
">#	c #696358",
",#	c #655F53",
"'#	c #645E54",
")#	c #716D64",
"!#	c #4D2712",
"~#	c #6E6A5F",
"{#	c #686358",
"]#	c #635C52",
"^#	c #635D52",
"/#	c #787468",
"(#	c #502E1A",
"_#	c #502E19",
":#	c #502D19",
"<#	c #502D1A",
"[#	c #4F2D1A",
"}#	c #6B665A",
"|#	c #655E53",
"1#	c #645E52",
"2#	c #6D695F",
"3#	c #6A655A",
"4#	c #69655A",
"5#	c #635C51",
"6#	c #625C50",
"7#	c #726D60",
"8#	c #736D61",
"9#	c #635D51",
"0#	c #6E6A61",
"a#	c #635C50",
"b#	c #6C6759",
"c#	c #6A655B",
"d#	c #4C2711",
"e#	c #625C51",
"f#	c #69655B",
"g#	c #6A665C",
"h#	c #6B675C",
"i#	c #6A665B",
"j#	c #4D2711",
"k#	c #5A3B27",
"l#	c #675240",
"m#	c #868579",
"n#	c #908E85",
"o#	c #8F8E85",
"p#	c #66513F",
"q#	c #94928B",
"r#	c #8F8D84",
"s#	c #8E8D84",
"t#	c #918F87",
"u#	c #6C6559",
"v#	c #6C665A",
"w#	c #53311B",
"x#	c #61584C",
"y#	c #5C402C",
"z#	c #6A6357",
"A#	c #8E8C83",
"B#	c #8D8C82",
"C#	c #6B6458",
"D#	c #6D675B",
"E#	c #5A3D29",
"F#	c #777366",
"G#	c #686259",
"H#	c #676159",
"I#	c #686258",
"J#	c #686257",
"K#	c #7A766C",
"L#	c #55341F",
"M#	c #736E64",
"N#	c #827E76",
"O#	c #827E75",
"P#	c #837F76",
"Q#	c #817D74",
"R#	c #68625A",
"S#	c #78746B",
"T#	c #522E19",
"U#	c #6A6259",
"V#	c #716C62",
"                                                                                                                                ",
"                                                                                                                                ",
"                                              . .                                                                               ",
"                                                                                                                                ",
"                                                                                                                                ",
"                  + + +                                                       @ @ @ @                                           ",
"        # $ % & * = - ; > , ' ' ) ) ) ! ~ { { { { * ] ]                 # $ % & * = - ; > , ' ' ) ) ) ! ~ { { { { * ] ]         ",
"      ^ / / / / ( ( _ _ _ _ _ _ _ _ _ _ _ _ _ _ _ _ _ ( :             ^ / / / / ( ( _ _ _ _ _ _ _ _ _ _ _ _ _ _ _ _ _ ( :       ",
"    ^ / / / / / ( _ _ _ _ _ _ _ _ _ _ _ _ _ _ _ _ _ _ _ ( ^         ^ / / / / / ( _ _ _ _ _ _ _ _ _ _ _ _ _ _ _ _ _ _ _ ( ^     ",
"  ^ / _ _ _ _ _ _ _ _ _ _ _ _ _ _ _ _ _ < < < _ _ _ _ _ _ ( ^     ^ / _ _ _ _ _ _ _ _ _ _ _ _ _ _ _ _ _ < < < _ _ _ _ _ _ ( ^   ",
"[ / _ _ _ _ _ _ _ _ _ _ _ _ _ _ _ _ ( < < < < _ _ _ _ _ _ _ / [ [ / _ _ _ _ _ _ _ _ _ _ _ _ _ _ _ _ ( < < < < _ _ _ _ _ _ _ / [ ",
"[ / _ _ _ _ _ _ } | 1 1 2 3 3 4 4 4 3 3 3 5 6 7 8 _ _ _ _ _ / : [ / _ _ _ _ _ _ } | 1 1 2 3 3 4 4 4 3 3 3 5 6 7 8 _ _ _ _ _ / : ",
"9 / _ 8 8 8 8 0 a b b c c d e f g h h h h i i i j _ 8 8 8 _ / ^ 9 / _ 8 8 8 8 0 a b b c c d e f g h h h h i i i j _ 8 8 8 _ / ^ ",
"k l 8 m m 8 n o p p q q q q q q q q q q r s s s o n 8 8 m 8 / t k l 8 m m 8 n o p p q q q q q q q q q q r s s s o n 8 8 m 8 / t ",
"k l m m m m o p u q q q q q q q q q q q q q q p s o m m m 8 v w k l m m m m o p u q q q q q q q q q q q q q q p s o m m m 8 v w ",
"k x m y y y o s q q q q q q q q z z q q q q q A A o y m m m B C k x m y y y o s q q q q q q q q z z q q q q q A A o y m m m B C ",
"D x y y y E o r F q q q q G H I z z J q A A A A A o y y y y B C D x y y y E o r F q q q q G H I z z J q A A A A A o y y y y B C ",
"K x E E E E o L M N O q q P Q Q z O R P A A A A A o E E y y B C K x E E E E o L M N O q q P Q Q z O R P A A A A A o E E y y B C ",
"k x E E E E S T N U V P P Q Q W W W X Y Z A `  ...S E E E E B h k x E E E E S T N U V P P Q Q W W W X Y Z A `  ...S E E E E B h ",
"+.@.E E #.#.S M $.$.%.&.*.*.=.=.-.*.&.;.>.>.,.'.).S E E E #.B h +.@.E E #.#.S M $.$.%.&.*.*.=.=.-.*.&.;.>.>.,.'.).S E E E #.B h ",
"k !.#.#.#.#.S $.$.$.$.*.~.$.{.{.].{.^.-./.(._.:.<.S [.[.E E }.h k !.#.#.#.#.S $.$.$.$.*.~.$.{.{.].{.^.-./.(._.:.<.S [.[.E E }.h ",
"|.!.#.#.1.1.S ^.^.^.^.2.{.3.4.3.5.6.7.8.9.=.0.:.a.b.c.[.[.#.d.e.|.!.#.#.1.1.S ^.^.^.^.2.{.3.4.3.5.6.7.8.9.=.0.:.a.b.c.[.[.#.d.e.",
"|.f.g.h.h.i.b.j.^.^.3.k.k.{.3.3.l.m.m.n.9.9.=.` o.p.q.i.r.r.s.e.|.f.g.h.h.i.b.j.^.^.3.k.k.{.3.3.l.m.m.n.9.9.=.` o.p.q.i.r.r.s.e.",
"t.u.v.w.i.i.i.b.V ^.k.k.k.x.x.x.y.m.m.l.z.9.^.&.p.A.q.B.B.r.C.D.t.u.v.w.i.i.i.b.V ^.k.k.k.x.x.x.y.m.m.l.z.9.^.&.p.A.q.B.B.r.C.D.",
"t.C.v.v.i.i.i.i.b.p.p.p.p.p.p.p.p.p.p.p.E.p.E.E.q.q.q.B.B.B.C.D.t.C.v.v.i.i.i.i.b.p.p.p.p.p.p.p.p.p.p.p.E.p.E.E.q.q.q.B.B.B.C.D.",
"F.G.H.v.i.i.I.I.I.I.I.I.I.I.I.I.I.I.I.J.J.J.J.v.v.K.B.B.B.B.C.L.F.G.H.v.i.i.I.I.I.I.I.I.I.I.I.I.I.I.I.J.J.J.J.v.v.K.B.B.B.B.C.L.",
"F.M.G.N.O.P.P.I.I.I.I.I.I.I.I.I.I.J.J.J.J.J.Q.J.J.J.J.B.B.R.S.T.F.M.G.N.O.P.P.I.I.I.I.I.I.I.I.I.I.J.J.J.J.J.Q.J.J.J.J.B.B.R.S.T.",
"F.U U.G.O.P.I.I.I.I.I.I.I.I.I.I.I.I.I.J.J.J.J.J.J.J.J.B.V.S.S.T.F.U U.G.O.P.I.I.I.I.I.I.I.I.I.I.I.I.I.J.J.J.J.J.J.J.J.B.V.S.S.T.",
"W.X.X.Y.G.Z.`.C.s. +.+ +B ++++++++++!.!.!.!.!.f.f.f. +@+#+$+$+%+W.X.X.Y.G.Z.`.C.s. +.+ +B ++++++++++!.!.!.!.!.f.f.f. +@+#+$+$+%+",
"&+*+=+-+;+>+,+,+,+,+'+)+'+)+)+'+)+!+~+{+]+^+/+/+/+/+/+(+_+:+<+[+&+*+=+-+;+>+,+,+,+,+'+)+'+)+)+'+)+!+~+{+]+^+/+/+/+/+/+(+_+:+<+[+",
"}+=+|+1+1+,+,+(+(+(+(+(+(+(+(+(+(+2+2+2+3+4+5+5+6+6+7+;+8+_+<+9+}+=+|+1+1+,+,+(+(+(+(+(+(+(+(+(+(+2+2+2+3+4+5+5+6+6+7+;+8+_+<+9+",
"9+0+1+1+1+1+a+1+a+b+c+2+2+c+c+3+2+3+3+3+3+2+2+(+5+;+1+;+d+e+_+9+9+0+1+1+1+1+a+1+a+b+c+2+2+c+c+3+2+3+3+3+3+2+2+(+5+;+1+;+d+e+_+9+",
"9+f+a+e+g+h+a+a+1+i+5+(+(+(+(+(+(+2+2+2+2+2+2+2+(+j+k+l+g+h+f+9+9+f+a+e+g+h+a+a+1+i+5+(+(+(+(+(+(+2+2+2+2+2+2+2+(+j+k+l+g+h+f+9+",
"m+n+o+p+q+r+e+a+s+s+t+u+u+v+w+x+x+x+x+x+y+z+y+A+j+B+j+C+g+D+E+9+m+n+o+p+q+r+e+a+s+s+t+u+u+v+w+x+x+x+x+x+y+z+y+A+j+B+j+C+g+D+E+9+",
"m+F+G+o+p+g+e+H+I+J+K+L+K+M+N+N+N+N+N+O+P+N+M+Q+R+S+T+g+U+V+W+9+m+F+G+o+p+g+e+H+I+J+K+L+K+M+N+N+N+N+N+O+P+N+M+Q+R+S+T+g+U+V+W+9+",
"m+X+Y+Y+Z+V+y+`+ @.@L+.@K+.@+@+@+@+@O+O+O+@@N+#@#@$@%@r+&@&@*@9+m+X+Y+Y+Z+V+y+`+ @.@L+.@K+.@+@+@+@+@O+O+O+@@N+#@#@$@%@r+&@&@*@9+",
"=@-@Y+Y+Z+V+y+;@>@.@.@K+K+K+,@+@P+P+P+P+P+#@#@#@#@'@q+&@o+o+)@9+=@-@Y+Y+Z+V+y+;@>@.@.@K+K+K+,@+@P+P+P+P+P+#@#@#@#@'@q+&@o+o+)@9+",
"=@W+Y+Y+4 &@y+!@>@K+.@.@.@.@+@+@P++@+@~@~@{@{@{@{@]@&@&@^@^@/@m+=@W+Y+Y+4 &@y+!@>@K+.@.@.@.@+@+@P++@+@~@~@{@{@{@{@]@&@&@^@^@/@m+",
"=@(@_@:@:@<@s+[@}@>@|@1@>@1@2@2@M+M+3@~@~@~@{@{@4@5@6@7@7@8@9@m+=@(@_@:@:@<@s+[@}@>@|@1@>@1@2@2@M+M+3@~@~@~@{@{@4@5@6@7@7@8@9@m+",
"=@,+0@a@b@c@d@e@e@e@>@>@>@>@>@|@f@f@g@g@3@3@3@~@~@5@h@h@c@h@)@m+=@,+0@a@b@c@d@e@e@e@>@>@>@>@>@|@f@f@g@g@3@3@3@~@~@5@h@h@c@h@)@m+",
"=@i@a@j@a@k@l@e@e@e@>@>@>@>@>@>@f@f@f@f@f@f@f@m@~@5@n@n@b@b@o@m+=@i@a@j@a@k@l@e@e@e@>@>@>@>@>@>@f@f@f@f@f@f@f@m@~@5@n@n@b@b@o@m+",
"p@q@r@s@s@s@t@e@u@e@v@>@>@>@>@>@f@f@f@f@f@f@f@w@x@y@z@a@b@A@B@=@p@q@r@s@s@s@t@e@u@e@v@>@>@>@>@>@f@f@f@f@f@f@f@w@x@y@z@a@b@A@B@=@",
"p@C@D@E@F@F@t@G@H@e@I@J@K@>@>@f@f@f@L@u@u@u@u@u@u@M@N@s@O@s@o@=@p@C@D@E@F@F@t@G@H@e@I@J@K@>@>@f@f@f@L@u@u@u@u@u@u@M@N@s@O@s@o@=@",
"p@P@Y+O+Q@R@x+S@T@U@V@W@W@w@w@f@f@X@Y@u@u@u@u@u@u@Z@`@`@ #O@.#=@p@P@Y+O+Q@R@x+S@T@U@V@W@W@w@w@f@f@X@Y@u@u@u@u@u@u@Z@`@`@ #O@.#=@",
"p@P@+#@###$#%#&#T@T@U@[@[@W@W@W@*#=#e@u@u@-#-#-#;#>#`@,#,#'#)#=@p@P@+#@###$#%#&#T@T@U@[@[@W@W@W@*#=#e@u@u@-#-#-#;#>#`@,#,#'#)#=@",
"!#~#{#@#]#]#^#/#&#t@(#(#(#(#(#(#_#:#<#<#[#[#<#(#}#^#|#$#$#1#q@=@!#~#{#@#]#]#^#/#&#t@(#(#(#(#(#(#_#:#<#<#[#[#<#(#}#^#|#$#$#1#q@=@",
"!#2#3#4#5#5#6#6#7#7#7#7#7#7#7#7#7#8#8#8#8#8#8#8#9#9#1#^#^#^#0#=@!#2#3#4#5#5#6#6#7#7#7#7#7#7#7#7#7#8#8#8#8#8#8#8#9#9#1#^#^#^#0#=@",
"!#2#3#4#4#4#6#6#6#6#6#6#a#4#4#4#4#b#c#c#c#5#5#9#9#9#^#^#^#^#0#=@!#2#3#4#4#4#6#6#6#6#6#6#a#4#4#4#4#b#c#c#c#5#5#9#9#9#^#^#^#^#0#=@",
"  d#4#4#4#4#6#6#6#6#6#6#6#6#6#6#6#e#f#c#c#5#5#5#5#9#9#^#^#g#p@    d#4#4#4#4#6#6#6#6#6#6#6#6#6#6#6#e#f#c#c#5#5#5#5#9#9#^#^#g#p@  ",
"    d#4#4#6#6#6#6#6#6#6#6#6#6#6#6#6#e#e#5#5#5#5#5#5#9#9#h#p@        d#4#4#6#6#6#6#6#6#6#6#6#6#6#6#6#e#e#5#5#5#5#5#5#9#9#h#p@    ",
"      d#h#6#6#6#6#6#6#6#6#6#6#6#6#6#6#e#5#a#5#5#5#5#5#i#p@            d#h#6#6#6#6#6#6#6#6#6#6#6#6#6#6#e#5#a#5#5#5#5#5#i#p@      ",
"        d#d#d#d#d#d#d#d#d#d#d#d#d#j#!#!#p@p@p@p@p@p@p@p@                d#d#d#d#d#d#d#d#d#d#d#d#d#j#!#!#p@p@p@p@p@p@p@p@        ",
"                                                                                                                                ",
"                                                                                                                                ",
"                                                                                                                                ",
"          @ @ @ @                                                                                                               ",
"k#k#k#k#k#k#k#k#k#k#k#k#k#k#k#k#l#k#k#k#k#k#k#k#k#k#k#k#k#k#k#k#k#k#k#k#k#k#k#k#k#k#k#k#k#k#k#k#l#k#k#k#k#k#k#k#k#k#k#k#k#k#k#k#",
"m#m#m#m#m#m#m#m#m#m#m#m#m#m#m#m#l#m#m#m#m#m#m#m#m#m#m#m#m#m#m#m#m#m#m#m#m#m#m#m#m#m#m#m#m#m#m#m#l#m#m#m#m#m#m#m#m#m#m#m#m#m#m#m#",
"m#m#m#m#m#m#m#m#m#m#m#m#m#m#n#o#p#m#m#m#m#m#m#m#m#m#m#m#m#m#m#m#m#m#m#m#m#m#m#m#m#m#m#m#m#m#m#q#p#r#s#m#m#m#m#m#m#m#m#m#m#m#m#m#",
"m#m#m#m#m#m#m#m#m#m#m#m#t#t#u#v#w#m#m#m#m#m#m#m#m#m#m#m#m#m#m#m#m#m#m#m#m#m#m#m#m#m#m#m#m#q#q#x#y#z#z#s#s#s#A#B#B#m#m#m#m#m#m#m#",
"q#q#q#q#q#q#q#q#q#q#q#q#x#x#C#D#w#q#q#q#q#q#q#q#q#q#q#q#q#q#q#q#q#q#q#q#q#q#q#q#q#q#q#q#q#x#x#x#E#F#F#F#F#z#z#z#z#q#q#q#q#q#q#q#",
"G#_@H#_@I#7 I#I#I#J#J#J#K#x#x#C#L#I#I#I#I#h@h@h@:@:@:@:@:@7@4 4 G#_@H#_@I#7 I#I#I#J#J#J#J#M#x#x#9+F#F#F#z#N#O#P#Q#:@:@:@:@7@4 4 ",
"R#_@_@_@I#7 h@I#I#I#J#J#J#S#x#T#9+n@I#I#I#h@h@:@:@:@:@:@U#7@4 4 R#_@_@_@I#7 h@I#I#I#I#I#J#I#V#9+  9+F#z#N#h@h@:@:@:@:@:@U#7@4 4 ",
"9+9+9+9+9+9+9+9+9+9+9+9+9+9+9+    9+9+9+9+9+9+9+9+9+9+9+9+9+9+9+9+9+9+9+9+9+9+9+9+9+9+9+9+9+9+      9+9+9+9+9+9+9+9+9+9+9+9+9+9+"};
