/* XPM */
static char * tiles9_xpm[] = {
"64 64 439 2",
"  	c #F8C984",
". 	c #F8CD8F",
"+ 	c #DAB678",
"@ 	c #DBB778",
"# 	c #7D8E53",
"$ 	c #337D40",
"% 	c #BFAA6D",
"& 	c #DAB778",
"* 	c #E2BC7B",
"= 	c #F1C581",
"- 	c #D9B678",
"; 	c #E2B97A",
"> 	c #B0A068",
", 	c #8A8D5C",
"' 	c #86835C",
") 	c #5E9524",
"! 	c #378339",
"~ 	c #4D7F44",
"{ 	c #8B8D5C",
"] 	c #7A8855",
"^ 	c #277B3B",
"/ 	c #267B3B",
"( 	c #4C9036",
"_ 	c #8B9269",
": 	c #8A9268",
"< 	c #7F8F54",
"[ 	c #6EA42D",
"} 	c #859553",
"| 	c #2A7842",
"1 	c #618A3A",
"2 	c #E3B97A",
"3 	c #DDB879",
"4 	c #7E8E54",
"5 	c #337B41",
"6 	c #81B628",
"7 	c #83B827",
"8 	c #7AB229",
"9 	c #81B728",
"0 	c #80B628",
"a 	c #457A33",
"b 	c #DBB377",
"c 	c #F2C481",
"d 	c #B2A069",
"e 	c #5E9B35",
"f 	c #7DB32A",
"g 	c #78B029",
"h 	c #82B727",
"i 	c #89BC26",
"j 	c #8ABD26",
"k 	c #87BB26",
"l 	c #83B727",
"m 	c #7CB328",
"n 	c #56912F",
"o 	c #82824E",
"p 	c #C3AC6F",
"q 	c #629F32",
"r 	c #84B827",
"s 	c #6EA628",
"t 	c #7DB428",
"u 	c #7F804E",
"v 	c #F3C582",
"w 	c #317C41",
"x 	c #81B727",
"y 	c #7BB229",
"z 	c #87BA26",
"A 	c #75AE28",
"B 	c #7FB528",
"C 	c #75AD28",
"D 	c #8ABC26",
"E 	c #69A127",
"F 	c #76AD2A",
"G 	c #848450",
"H 	c #8A8C5C",
"I 	c #6EAA2B",
"J 	c #84B927",
"K 	c #69A227",
"L 	c #7BB329",
"M 	c #649B26",
"N 	c #7EB428",
"O 	c #447A33",
"P 	c #E6BC7C",
"Q 	c #E4BD7C",
"R 	c #679444",
"S 	c #857853",
"T 	c #7CB329",
"U 	c #88BB26",
"V 	c #277436",
"W 	c #DAB276",
"X 	c #7EB528",
"Y 	c #87BA27",
"Z 	c #287536",
"` 	c #AF9061",
" .	c #649C26",
"..	c #88BC26",
"+.	c #927953",
"@.	c #72A72E",
"#.	c #72AB28",
"$.	c #7AB129",
"%.	c #86BA27",
"&.	c #7DB328",
"*.	c #85B927",
"=.	c #6EA627",
"-.	c #80B528",
";.	c #277536",
">.	c #478732",
",.	c #699F2B",
"'.	c #59932B",
").	c #538F30",
"!.	c #267436",
"~.	c #937953",
"{.	c #D0B174",
"].	c #D1B275",
"^.	c #69A02B",
"/.	c #649A28",
"(.	c #2D7736",
"_.	c #5B9429",
":.	c #559130",
"<.	c #006143",
"[.	c #076442",
"}.	c #3F8332",
"|.	c #57972C",
"1.	c #408433",
"2.	c #DBB678",
"3.	c #669B2D",
"4.	c #947953",
"5.	c #6F8E4C",
"6.	c #86B928",
"7.	c #85BA27",
"8.	c #75AE2A",
"9.	c #74AE2A",
"0.	c #69A72B",
"a.	c #4B8F36",
"b.	c #3C5740",
"c.	c #8C8C5D",
"d.	c #78AF2A",
"e.	c #67A62C",
"f.	c #6FAB2B",
"g.	c #509531",
"h.	c #3F8736",
"i.	c #5C6145",
"j.	c #6AA82B",
"k.	c #6DAA2B",
"l.	c #73AD2A",
"m.	c #4A9231",
"n.	c #4E9530",
"o.	c #64A42C",
"p.	c #67A52C",
"q.	c #7DB329",
"r.	c #7EB429",
"s.	c #408C33",
"t.	c #137142",
"u.	c #3E8333",
"v.	c #76AF29",
"w.	c #6FA92C",
"x.	c #7FB429",
"y.	c #6AA72C",
"z.	c #67A32D",
"A.	c #328237",
"B.	c #468F33",
"C.	c #76AE2A",
"D.	c #56992F",
"E.	c #61A22D",
"F.	c #4B9331",
"G.	c #4C9232",
"H.	c #3C8834",
"I.	c #74AD2A",
"J.	c #70AA2B",
"K.	c #368339",
"L.	c #509334",
"M.	c #387E34",
"N.	c #157142",
"O.	c #5C9627",
"P.	c #438E32",
"Q.	c #78AE2B",
"R.	c #59962A",
"S.	c #428D32",
"T.	c #509431",
"U.	c #559532",
"V.	c #6FAB2A",
"W.	c #458C34",
"X.	c #66A52C",
"Y.	c #3E8938",
"Z.	c #528E3C",
"`.	c #69A226",
" +	c #7CB229",
".+	c #5D9F2E",
"++	c #368535",
"@+	c #5D9F2D",
"#+	c #64A32D",
"$+	c #338335",
"%+	c #489032",
"&+	c #599C2F",
"*+	c #3F8B33",
"=+	c #59952B",
"-+	c #287D3A",
";+	c #86B927",
">+	c #1B7343",
",+	c #3B8738",
"'+	c #167144",
")+	c #155837",
"!+	c #157242",
"~+	c #52972F",
"{+	c #3B8835",
"]+	c #2B7941",
"^+	c #4D9430",
"/+	c #428B34",
"(+	c #519730",
"_+	c #347D40",
":+	c #428B33",
"<+	c #006A46",
"[+	c #3F8937",
"}+	c #49873F",
"|+	c #368634",
"1+	c #217641",
"2+	c #378635",
"3+	c #328139",
"4+	c #5A9C2F",
"5+	c #599B2F",
"6+	c #2F8136",
"7+	c #438D32",
"8+	c #358535",
"9+	c #529135",
"0+	c #287C3B",
"a+	c #2D7F38",
"b+	c #2C7F38",
"c+	c #4E9133",
"d+	c #478540",
"e+	c #78AC30",
"f+	c #57962C",
"g+	c #54962F",
"h+	c #428C34",
"i+	c #3A8737",
"j+	c #076D45",
"k+	c #155937",
"l+	c #D7B175",
"m+	c #5A942A",
"n+	c #54972E",
"o+	c #147142",
"p+	c #428C33",
"q+	c #438C37",
"r+	c #006B46",
"s+	c #297A3F",
"t+	c #247741",
"u+	c #388635",
"v+	c #438D33",
"w+	c #3A8735",
"x+	c #387F40",
"y+	c #67A62B",
"z+	c #479032",
"A+	c #479033",
"B+	c #297D3A",
"C+	c #046C45",
"D+	c #004F3C",
"E+	c #398638",
"F+	c #5C9528",
"G+	c #3C8835",
"H+	c #499231",
"I+	c #2F7F3A",
"J+	c #3F8938",
"K+	c #438440",
"L+	c #448E32",
"M+	c #2E8136",
"N+	c #347E40",
"O+	c #287C3A",
"P+	c #277C3B",
"Q+	c #4A9036",
"R+	c #227641",
"S+	c #428D33",
"T+	c #7AB02B",
"U+	c #2F7B41",
"V+	c #237641",
"W+	c #00503B",
"X+	c #927852",
"Y+	c #15513D",
"Z+	c #448C37",
"`+	c #2B7E39",
" @	c #428D34",
".@	c #328236",
"+@	c #006443",
"@@	c #57962B",
"#@	c #2F8039",
"$@	c #287841",
"%@	c #3A8734",
"&@	c #0E6F44",
"*@	c #438C33",
"=@	c #388634",
"-@	c #478C34",
";@	c #3E8233",
">@	c #CDA870",
",@	c #DAB376",
"'@	c #006243",
")@	c #468F32",
"!@	c #398539",
"~@	c #006242",
"{@	c #3E863C",
"]@	c #006845",
"^@	c #3D8934",
"/@	c #2D7A41",
"(@	c #338239",
"_@	c #004D3A",
":@	c #545F43",
"<@	c #5D5B43",
"[@	c #DDB577",
"}@	c #D9B276",
"|@	c #004B3A",
"1@	c #2F6E35",
"2@	c #458E33",
"3@	c #3A8638",
"4@	c #257741",
"5@	c #408A36",
"6@	c #3E8937",
"7@	c #004337",
"8@	c #937A53",
"9@	c #BD9865",
"0@	c #F5C682",
"a@	c #004C3A",
"b@	c #006945",
"c@	c #306635",
"d@	c #3C8738",
"e@	c #3A8439",
"f@	c #368635",
"g@	c #75AD2A",
"h@	c #579834",
"i@	c #1F773E",
"j@	c #207542",
"k@	c #489131",
"l@	c #4A9035",
"m@	c #57972B",
"n@	c #2D8037",
"o@	c #106940",
"p@	c #549830",
"q@	c #246035",
"r@	c #3C8333",
"s@	c #2E493A",
"t@	c #275E41",
"u@	c #AA8D5E",
"v@	c #DDB578",
"w@	c #787550",
"x@	c #827755",
"y@	c #0D6842",
"z@	c #0C6F44",
"A@	c #296A35",
"B@	c #5EA02D",
"C@	c #579430",
"D@	c #006344",
"E@	c #145F3A",
"F@	c #106740",
"G@	c #016242",
"H@	c #34803D",
"I@	c #004F3B",
"J@	c #04503A",
"K@	c #307B35",
"L@	c #2A7D3A",
"M@	c #056C45",
"N@	c #0F5438",
"O@	c #287637",
"P@	c #3C8934",
"Q@	c #245F35",
"R@	c #15603A",
"S@	c #B09060",
"T@	c #E0B779",
"U@	c #DBB477",
"V@	c #F1C481",
"W@	c #F8D39E",
"X@	c #C3A67E",
"Y@	c #686851",
"Z@	c #35803B",
"`@	c #006142",
" #	c #4F5946",
".#	c #105437",
"+#	c #357B38",
"@#	c #57932F",
"##	c #005A40",
"$#	c #145937",
"%#	c #3B8234",
"&#	c #376E39",
"*#	c #5C5B43",
"=#	c #4F5540",
"-#	c #006343",
";#	c #357634",
">#	c #005B3F",
",#	c #505640",
"'#	c #206A37",
")#	c #A9885B",
"!#	c #76694A",
"~#	c #4F5D43",
"{#	c #776A4A",
"]#	c #5B5B42",
"^#	c #4E5943",
"/#	c #5A5543",
"(#	c #2C5F42",
"_#	c #167242",
":#	c #357B37",
"<#	c #006543",
"[#	c #24713E",
"}#	c #388735",
"|#	c #997D55",
"1#	c #A08358",
"2#	c #8A7B55",
"3#	c #D2AA70",
"4#	c #F8D4A0",
"5#	c #888061",
"6#	c #78795B",
"7#	c #AA9470",
"8#	c #938162",
"9#	c #A48B6A",
"0#	c #95885D",
"a#	c #4E5D43",
"b#	c #2B7741",
"c#	c #80744F",
"d#	c #80724C",
"e#	c #7F714C",
"f#	c #997E55",
"g#	c #A9885A",
"h#	c #A58559",
"i#	c #4D5D42",
"j#	c #947A53",
"k#	c #246739",
"l#	c #004237",
"m#	c #A38458",
"n#	c #A8875A",
"o#	c #A48459",
"p#	c #8F6D52",
"q#	c #A5785A",
"r#	c #585442",
"s#	c #4C5943",
"t#	c #7F6E4C",
"u#	c #064937",
"v#	c #066742",
"w#	c #4D553F",
"x#	c #A98B5D",
"y#	c #80704D",
"z#	c #1A5B36",
"A#	c #226736",
"B#	c #D9B074",
"C#	c #ECBF7E",
"D#	c #F1B183",
"E#	c #F8D197",
"F#	c #F2B683",
"                                                                                                                                ",
"                                                                                                                                ",
"                                              . .                                                                               ",
"                                                                                                                                ",
"                    + + + + @ # $ $ $ % + + + & *               = - & + + & *           = - + + - =     & + + + ;               ",
"              > , ' ) ) ) ) ) ) ) ) ) ) ) ) ) ! ~ { , , , , , , ] ^ / ( ) ! ~ _ : : : , < ) ) ) [ } , , | ) ) ) 1 2             ",
"        3 4 5 ) ) ) 6 6 7 ) ) ) ) 7 ) ) ) ) ) ) ) ) ) ) ) 7 8 ) ) ) ) ) ) ) ) ) ) 8 ) ) ) 9 ) ) ) ) ) ) 0 ) ) ) ) a b c         ",
"      d e f ) ) g ) ) ) ) ) g ) h i ) ) ) j g ) ) ) ) ) ) ) ) ) ) ) ) ) ) ) ) k 6 ) h l ) ) ) m ) ) ) k 6 ) ) 0 ) ) n o         ",
"    p q i r s s 7 ) ) ) ) ) 0 8 7 ) t ) i r 7 ) ) ) ) ) ) ) ) ) ) ) ) ) 7 ) s i 6 ) h ) ) ) ) 7 k ) ) ) ) ) i i 0 ) ) ) u v     ",
"    w x 7 y i i r ) g ) ) 6 z ) ) ) ) ) A ) ) ) ) ) B ) ) ) ) g g ) ) g C ) r ) ) ) ) ) ) ) ) D ) ) B E ) g 7 7 6 ) ) j F G     ",
"  H I J ) ) ) ) ) ) y ) ) 6 k k ) ) i i ) ) ) ) ) t i ) ) ) K J t ) ) ) h ) ) ) ) ) ) ) ) ) ) ) ) ) i i ) 6 L ) h ) k M N O P   ",
"Q R h 9 ) C ) ) ) k C ) ) k ) 6 C ) r ) g ) ) ) ) ) r y g ) ) ) ) ) ) ) ) ) ) ) ) ) ) ) h h ) ) ) k r ) ) ) ) ) ) C ) ) ) m S   ",
"- ) t t E i 0 0 k ) N ) ) ) ) ) t ) ) ) ) ) ) ) h ) ) T ) ) ) ) ) ) ) ) ) ) ) ) ) ) ) ) U 7 h ) ) ) ) ) ) ) ) ) ) U 0 ) i ) V W ",
"- ) ) 9 j i 6 ) ) ) ) ) ) ) ) ) 9 ) ) C k ) ) 9 ) T X ) ) ) ) k ) ) ) j C ) ) ) ) C 6 ) ) ) ) ) ) ) N ) T ) ) C ) ) Y N r ) Z ` ",
"- [ k ) ) h ) ) ) ) ) h ) ) ) ) E J h ) ) T t ) ) ) m ) i ) ) ) h k h ) ) 0 J  .) h U ) ) ) ) ) ) 0 i  .) 0 ..i 0 ) ) ) ) ) Z +.",
"- @.0 ) 6 j ) #.#.) 9 $.) ) ) C j ) ) ) ) ) ) ) ) ) ) #.g 9 ) ) ) ) ) ) ) z ) ) ) g 6 ) ) #.#.) ) z ) J ) ) ) ) %.) ) ) ) ) Z +.",
"- ) h ) &.) ) 6 i ) ) ) ) ) ) ) ) ) ) h h ) ) ) ) ) ) m ) ) ) ) ) ) .. .) ) ) 0 J ..) ) ) *.N ) ) ) ) ) .. .) ) &.) ) ) ) ) Z +.",
"- ) i ) ) ) ) %.D 0 ) ) ) ) ) ) ) ) 0 8 8 ) ) ) ) ) ) ) ) ) 0 0 ) #.r J #.) ) z ) J 9 ) ) ) ) ) ) ) ) ) i i 6 ) ) t t t ) ) Z +.",
"- @.%.) ) t ) t ) t ) ) ) ) ) ) ) 0 J ) ) m ) ) ) ) ) ) ) 9 U U 0 ) ) ) &.) ) ) ) ) ) ) ) U ) ) ) ) ) ) U J N ) 7 J ) t ) ) Z +.",
"- ) ) ) 6 ) ) ) ) ) ) j ) ) ) ) ) ) ) ) ) ) ) ) =.) ) =.) y ) ) #.) ) ) ) ) ) ) ) ) ) #.*. .%.) ) ) ) ) ) ) ) ) ) ) ) ) 0 ) Z +.",
"- ) ) ) ) ) ) ) ) ) k J U ) U U ) ) ) ) ) ) ) ) i ) ) i 9 ) ) ) ) 0 m ) m ) ) ) ) ) ) ) ) ) *.) ) ) ) -.) ) ) ) ) ) ) ) t ) ;.+.",
"- ) ) j =.) ) ) ) ) ) ) E 8 i i ) ) =.) ) %.%.#.y ) 8 E j y ) ) ) ) =.) ) ) ) ) ) ) ) T 6 ) ) ) ) ) ) %.6 ) ) ) L %.=.) ) ) >.+.",
"- ,.) %.) ) ) ) ) ) ) ) ) 6 ) *.) U h ) ) U %.) ) ) ) ) ) ) ) 6 ) ) ) ) ) ) ) ) 0 ) z *.i U ) ) ) ) ) %.%.) ) ) *.*.6 ) ) ) '.+.",
"- ) ) ) ) ) ) ) ) ) B j ) #.) ) B D s 8 9 ) ) 8 ) s ) ) ) K j L K ) ) ) ) ) ) %.0 6 ) ) s s ) K ) ) *.) ) =.) ) ) E 0 ) ) ) '.+.",
"- ) ) ) B ) ) ) ) 0 U U ) ) ) m %.) ) ) ) ) ) ) ) ) ) ) ) N 6 ) N ) U ) ) ) U %.i ) ) ) ) ) ) h U ) ) ) ) ) m ) ) B *.) ) ) '.+.",
"- ) ) E %.) ) %.*.*.6 6 h ) E ) ) ) ) ) ) E %.) ) ) ) ) ) ) ) ) ) h m ) E ) m ) m ) ) s ) ) ) i T m ) ) ) ) ) ) ) ) ) ) ) ) '.+.",
"- ) ) i ) U ) z 6 ) ) ) ) 0 i ) ) ) ) ) ) i U J ) ) ) ) ) ) ) ) ) ) ) -.B 0 ) ) ) ) ) ) m ) ) %.) ) ) 0 B ) ) ) ) ) ) ) B ) ).+.",
"- ) N m ) *.%.) ) ) ) ) *.*.D N E ) ) ) %.#.) ) ) C  .) ) ) )  .) ) ) C N i g ) ) ) ) )  .) ) ) ) ) ) &.%.) ) ) ) ) ) %.0 ) !.~.",
"{.) B ) ) ) ) ) ) t ) m N ) ) %.) ) ) ) ) ) ) ) k *.N ) ) ) ) 6 k ) ) ) ) %.) ) ) ) ) )  .) t ) ) ) ) ) ) ) ) ) ) ) ) ) %.) Z +.",
"$ ) C %.)  .%.) ) ) ) ) ) g M ) ) ) ) E g ) ) M C C ) ) M M ) ) *.) ) ) ) ) ) ) ) ) ) ) j ) ) ) ) ) ) ) ) ) ) ) ) ) A ) ) ) Z +.",
"].^.U U ) U B B ) ) ) ) k k z ) ) ) ) ) X ) ) ) ) 9 ) ) ....B ) ) B ) ) ) ) ) ) ) ) ) ) ) ) ) ) ) ) ) ) ) k ) ) ) ) ) ) z ) Z +.",
"- ) ) ) 9 ) ) ) ) ) M M %.) ) g ) ) )  .) ) ) g j t h ) i t ) ) ) 0 j t ) ) t ) ) ) %.%.) ) ) ) ) j ) ) D i h ) ) ) ) ) i t Z +.",
"- /.B ) ) ) ) ) ) %.) ) ) ) ) ) ) ) ) ) ) ) ) 6 B ) ) m B ) ) ) ) %.) B ) X i k ) B ) ) m ) ) ) *.) ) m B B ) ) ) ) ) X k k Z +.",
"- ) i j ) ) ) ) ) ) ) ) ) ) ) 6 *.) ) ) C %.)  .) ) ) ) ) ) ) ) ) ) ) ) ) *.%.g M ) C ) ) ) ) h ) ) h ) ) ) ) ) ) ) ) g ) ) Z +.",
"- ) i ) ) ) ) ) U ) ) ) ) ) ) 6 ..%.) N B ) ) ) ) *.) ) ) ) ) ..) ) ) B ) ) ) ) ) N k z ) ) ) ) ) ) ) ) ) ) ) N ) ) *.) ) ) (.+.",
"- )  .) 9 ) ) h  .E ) ) i j ) 6 6  .E  .) ) ) ) 8 ) ) ) ) ) j D t ) ) %.) ) ) ) ) *.) 8 ) ) ) ) ) ) ) *. .) ) 6 #.g ) %.) ) _.+.",
"- /.) B ) ) ) ) ) ) ) ) k ) m B ) ) ) ) ) ) ) ) ) ) %.%.) B ) ) ) ) ) ) ) ) ) ) ) ) ) ) ) ) %.%.) ) ) i N ) ) -.k %.) ) ) ) '.+.",
"- @.*.) ) ) ) ) ) *.) E ) ) ) ) ) ) ) ) ) ) ) ) ) 6 %.%.) ) ) ) ) ) ) ) ) ) ) ) ) m ) ) ) h E E ) ) E E 6 ) ) ) ) E ) =.) ) '.+.",
"- ) i ) ) ) ) ) ) U ..) ) ) ) ) B ) ) B %.%.) ) ) ..) ) ) ) ) ) ) ) ..) ) N ..) %.U N ) ) ) ) ) ) ) ) ) ) 6 ) ) ) ) ) i N ) :.+.",
"- ) 0 6 ) ) ) ) z ) j ) ) ) ) ) ) ) ) K %.y h ) ) y ) ) ) ) j D ) =.%.%.) 6 j ) y ) B m ) ) ) ) ) ) ) ) L j 6 ) ) T ) j %.) <.~.",
"- ) 6 ) ) m *.) ) ) ) *.) U N ) ) N ) ) ) ) ) ) ) ) ) N ) B ) 6 t ) ) ) ) ) ) ) t ) ) ) ) k 6 ) ) ) ) ) 6 ) z ) %.U ) ) ) ) [.~.",
"- ) E ) ) ) j y ) ) ) ) D D D ) ) i 6 ) ) E ) ) ) ) ) 0 ) ) ) ) =.) ) ) ) ) ) y *.) ) ) T ) j ) ) ) E ) ) ) ) ) %.) T ) ) 0 }.+.",
"- ) J U ) 6 ) h U ) ) 6 6 ) 6 ) J i -.) %.i t ) ) ) ) ) k ) m t ) ) ) ) ) ) t ) ) ) *.*.) ) ) ) ) *...) *.%.&.T ) ) N |.) %.1.+.",
"2.@.i 0 &.%.) =.s ) ) &.) ) ) ) ) s ) h m m 6 ) 8 D ) ) ) ) 8 j 6 ) ) y ) ) )  .) *.J J z =.) ) &.m ) ) =.m 8  .) ) i y ) j 3.4.",
"5.6.h ) ) ) ) ) T ) ) ) ) ) 7.7.) t ) ) ) ) ) ) U i T ) ) ) ) ) 0 ) *.i ) ) *.i ) 9 8.9.0.6 U ) ) ) ) t 6 ) ) ) ) 0 6 h M ) a.b.",
"c.@.E ) y ) 8 j ) ) 8 8 ) 9 m %.z %.k ) d.)  .) ) y ) ) J ) ) ) ) ) t t 6 #.%.m y e.j f.8 6 0 8 ) ) 6 j y ) ) )  .) ) #.g.( h.i.",
"- @.) ) ) ) i i t ) i i m j.k.l.0.6 ) $.m.n.i ) ) ) r U i J 0 ) &.N o.o.k ) ) r p.q.r.$.h ) ) ) ) r ) ) ) ) ) m i *.) ) s.t.u.~.",
"- @.) ) ) ) ) B q.) 6 v.w.x.y.9 z.9 z ) A.B.) 8 k ) %.%.C.D.E.-.F.8.w.G.g ) ) 6 -.H.I.r.) q.) ) j i C ) ) J E M B J.K.L.M.N.u.+.",
"- @.) ) m O.P.Q.R.O.) 7 S.T.U.V.W.X.q.) / Y.Z.`. +M ) 6 .+++@+#+$+%+&+*+h R.=+) @.-+H.) ) ) ) ;+ .i ) m i i ) M ) >+,+'+)+!+u.+.",
"- ) ) ) 6 ~+{+) ]+^+) ) P.P./+(+_+:+) ) <+[+}+) |+1+) s 2+3+4+5+6+P.4+7+ +8+9+) <+0+a+b+c+) ) d+) ) ) e+) h f+) g+h+i+j+k+!+u.+.",
"l+m+n+n+0 ~+/ ) o+P.) ) P.P./+(+_+p+) q+r+Y.}+) s+t+) ) u+t+%+4+6+v+w+P. +++}+) r+0+^ ^ /+n+) ) ) ) }+}+x+y+7+) z+A+B+C+k+!+u.+.",
"D+) n+n+) n+^ Y.o+E+F+) G+G+2+H+o+6+I+J+r+r+K+) r+r+) ) 6+N.7+4+6+o+6+L+&+M+N+p+r+O+P+P+p+Q+2+R+S+T+t+t+U+@+P.R.H+V+0+r+W+r+u.X+",
"Y+Z+n+n+) n+^ Y.N.N.F+) ^ ^ s+H+`+6+ @.@+@+@$ @@r+r+) ) 6+N.S+&+6+N.B+#@4+M+$@%@r+&@P+P+*@_+=@t+P.-@t+t+t+H+P.P.H+t+0+r+W+r+;@>@",
",@'@H+H+) H+P+^ r+r+)@x ^ P+t+H+2+2+!@^ ~@~@{@f+~@~@) ) 6+N.M+P.6+N.P+P+4+M+t+=@]@]@P+0+^@/@(@t+P.6+t+t+t+H+P.P.t+t+[+<+_@:@<@[@",
"}@|@1@H+n.H+P+P+r+r+2@6 3@^ t+H+2+2+^ ^ ~@~@f+n+~@~@) ) 6+N.6+P.6+N.P+P+4+M+t+=@~@~@0+&@6+o+t+4@5@B+t+t+t+H+P.P.t+t+6@<+7@8@9@0@",
"    a@b@c@d@e@P+W+W+f@g@h@i@j@k@2+2+'@Z ~@~@l@m@~@~@) ) n@o@B+L+6+N.0+P+p@M+j@8+~@~@0+r+6+N.q@u+J+^ N.N.t+m.s.r@1+1+s@t@7@u@    ",
"    v@w@x@y@h@z@W+W+A@B@C@D@E@P.2+2+~@F@~@G@$@H@~@~@) ) 0+I@J@K@L@M@N@O@P.6+N.6+~@~@0+r+6+N.q@u+J+^ N.N.t+P@2+Q@R@R@S@T@U@V@    ",
"      W@X@Y@Z@`@7@ #.#+#@###$#%#&#*#=#-###;#t+t+~@>#-#,#'#~.)#!#~#_@{#]#Z@^#/#(#~@>#~@~@k+_#7@=#:#`@r+<#[#}#&#|#1#2#3#          ",
"        4#5#6#7#8#9#0#a#b#c#d#e#f#g#h#i#=#j#k#t+~@l#_@8@8@m#n#)#o#8@)#f#a@p#q#r#s#j#t#t#u#v#w#h#x#,@W+y#z#A#|#B#C#              ",
"          4#4#4#4#                                                        D#D#D#D#                                              ",
"            4#4#E#                                                          D#D#F#                                              ",
"                                                                                                                                ",
"                                                                                                                                ",
"                                                                                                                                "};
