/* XPM */
static char * tiles7_xpm[] = {
"64 64 455 2",
"  	c #74C857",
". 	c #70C55D",
"+ 	c #6AC165",
"@ 	c #6EC35F",
"# 	c #75C856",
"$ 	c #70C45E",
"% 	c #61B96E",
"& 	c #66B36B",
"* 	c #77BD57",
"= 	c #6FC45E",
"- 	c #60B76F",
"; 	c #6F9B6A",
"> 	c #8A9450",
", 	c #7FBA55",
"' 	c #73C759",
") 	c #6EBF62",
"! 	c #809C61",
"~ 	c #9F724F",
"{ 	c #9D9450",
"] 	c #85BA55",
"^ 	c #73C659",
"/ 	c #7BB15E",
"( 	c #958059",
"_ 	c #A9714D",
": 	c #A1944F",
"< 	c #73C858",
"[ 	c #71B960",
"} 	c #848A5E",
"| 	c #A1634A",
"1 	c #86B955",
"2 	c #70C65C",
"3 	c #65B86A",
"4 	c #749769",
"5 	c #976E52",
"6 	c #A3664D",
"7 	c #A2924F",
"8 	c #86B954",
"9 	c #61BB6C",
"0 	c #6DA869",
"a 	c #8C7A58",
"b 	c #A0634B",
"c 	c #86B854",
"d 	c #72C65A",
"e 	c #6AC264",
"f 	c #6AAE69",
"g 	c #867F5C",
"h 	c #9E634C",
"i 	c #A0654D",
"j 	c #A66E4D",
"k 	c #998F50",
"l 	c #80B655",
"m 	c #69C164",
"n 	c #64A86E",
"o 	c #8A7E5B",
"p 	c #A4644A",
"q 	c #A1654D",
"r 	c #A06B4D",
"s 	c #928A4E",
"t 	c #68BF67",
"u 	c #5AAA75",
"v 	c #7F9368",
"w 	c #A67552",
"x 	c #A8684C",
"y 	c #9D634B",
"z 	c #8E714F",
"A 	c #74C858",
"B 	c #6DBC61",
"C 	c #749C69",
"D 	c #98855D",
"E 	c #B27952",
"F 	c #B46F4D",
"G 	c #A8694D",
"H 	c #9B674D",
"I 	c #82805B",
"J 	c #6BBE63",
"K 	c #79A16B",
"L 	c #AC855C",
"M 	c #C37A51",
"N 	c #BC754E",
"O 	c #AD6B4C",
"P 	c #A1664D",
"Q 	c #9C644C",
"R 	c #8A7454",
"S 	c #72C75A",
"T 	c #63BE6A",
"U 	c #69A873",
"V 	c #A28A61",
"W 	c #C57B52",
"X 	c #C17850",
"Y 	c #B26D4C",
"Z 	c #A4674D",
"` 	c #9F634B",
" .	c #956B4F",
"..	c #74C856",
"+.	c #6FC35E",
"@.	c #66B16B",
"#.	c #72996B",
"$.	c #9F895F",
"%.	c #C77D53",
"&.	c #BD764F",
"*.	c #AF6C4C",
"=.	c #A4664C",
"-.	c #966D51",
";.	c #73C758",
">.	c #6DC360",
",.	c #63BB6B",
"'.	c #72A569",
").	c #9A835C",
"!.	c #B88358",
"~.	c #C87E53",
"{.	c #CA8054",
"].	c #B46E4C",
"^.	c #A6674B",
"/.	c #97684E",
"(.	c #6BC263",
"_.	c #5BB672",
":.	c #779D6C",
"<.	c #AC7754",
"[.	c #C57B51",
"}.	c #C97F53",
"|.	c #C67C52",
"1.	c #B9724E",
"2.	c #AB694C",
"3.	c #9E644B",
"4.	c #71C65B",
"5.	c #67BD68",
"6.	c #7A9F69",
"7.	c #A77453",
"8.	c #BE764F",
"9.	c #C77E53",
"0.	c #BF7750",
"a.	c #B06C4C",
"b.	c #A2644B",
"c.	c #73A969",
"d.	c #987B5A",
"e.	c #B06D4C",
"f.	c #BD754F",
"g.	c #C27851",
"h.	c #C07750",
"i.	c #BB734D",
"j.	c #B26C4C",
"k.	c #A4654C",
"l.	c #6DC461",
"m.	c #65B16F",
"n.	c #838C65",
"o.	c #A4684D",
"p.	c #AE6B4C",
"q.	c #B36E4C",
"r.	c #B16D4C",
"s.	c #B06C4B",
"t.	c #AC6A4C",
"u.	c #6FC55E",
"v.	c #62B76E",
"w.	c #7A966A",
"x.	c #9E694F",
"y.	c #A6674C",
"z.	c #A5674D",
"A.	c #9A674D",
"B.	c #68BA69",
"C.	c #7D9866",
"D.	c #9E684F",
"E.	c #9F644C",
"F.	c #9D614A",
"G.	c #96684D",
"H.	c #68B668",
"I.	c #6EA867",
"J.	c #799967",
"K.	c #937A5A",
"L.	c #995F48",
"M.	c #975D45",
"N.	c #945F47",
"O.	c #877756",
"P.	c #67C067",
"Q.	c #63A671",
"R.	c #7D8963",
"S.	c #858761",
"T.	c #8E805E",
"U.	c #9A6048",
"V.	c #935842",
"W.	c #8A694C",
"X.	c #6D976A",
"Y.	c #74C758",
"Z.	c #70C55C",
"`.	c #68C066",
" +	c #64A972",
".+	c #8D845F",
"++	c #A36A4E",
"@+	c #A16C50",
"#+	c #A3654C",
"$+	c #9D624B",
"%+	c #945A43",
"&+	c #867252",
"*+	c #62A371",
"=+	c #69C066",
"-+	c #61BC6D",
";+	c #61BB6D",
">+	c #60AB74",
",+	c #879066",
"'+	c #AA7351",
")+	c #AF6B4B",
"!+	c #AB6A4C",
"~+	c #985D46",
"{+	c #8B6D4E",
"]+	c #6C9B6A",
"^+	c #68BC67",
"/+	c #5DAC74",
"(+	c #67A770",
"_+	c #789B6C",
":+	c #948E64",
"<+	c #B07C55",
"[+	c #B8704C",
"}+	c #B36D4B",
"|+	c #9E624B",
"1+	c #94644A",
"2+	c #7B865E",
"3+	c #71C65C",
"4+	c #6CC461",
"5+	c #68B669",
"6+	c #70986A",
"7+	c #8B825E",
"8+	c #A97956",
"9+	c #BD7952",
"0+	c #C17951",
"a+	c #BD744E",
"b+	c #B56E4B",
"c+	c #A0654C",
"d+	c #986048",
"e+	c #857654",
"f+	c #65BE69",
"g+	c #62BD6C",
"h+	c #6EC45F",
"i+	c #72C759",
"j+	c #64BD6B",
"k+	c #67B969",
"l+	c #6BB866",
"m+	c #61B370",
"n+	c #62AD71",
"o+	c #799468",
"p+	c #A37856",
"q+	c #C17852",
"r+	c #C07850",
"s+	c #B66F4C",
"t+	c #B16C4C",
"u+	c #A4664D",
"v+	c #9C624A",
"w+	c #8F6D4F",
"x+	c #71C55C",
"y+	c #6AC064",
"z+	c #6BC362",
"A+	c #6CC361",
"B+	c #6DBA63",
"C+	c #67B06B",
"D+	c #62AB72",
"E+	c #6EB169",
"F+	c #6DB865",
"G+	c #65BC6A",
"H+	c #63BD6A",
"I+	c #5AB773",
"J+	c #65A36F",
"K+	c #7B9264",
"L+	c #849369",
"M+	c #8A9468",
"N+	c #948F64",
"O+	c #B1855B",
"P+	c #C57C52",
"Q+	c #BA724D",
"R+	c #A0644C",
"S+	c #99654C",
"T+	c #62BA6D",
"U+	c #6CB065",
"V+	c #62AF6F",
"W+	c #63B96D",
"X+	c #67BE68",
"Y+	c #64BB6C",
"Z+	c #62B76D",
"`+	c #6EB065",
" @	c #69B569",
".@	c #5BB573",
"+@	c #6AA06D",
"@@	c #889164",
"#@	c #938B62",
"$@	c #92865F",
"%@	c #839166",
"&@	c #709D6F",
"*@	c #6BA171",
"=@	c #7B8B63",
"-@	c #966B4F",
";@	c #AE6E4F",
">@	c #BC7751",
",@	c #C07952",
"'@	c #C57D53",
")@	c #C97E53",
"!@	c #C77D52",
"~@	c #BB734E",
"{@	c #B46D4B",
"]@	c #AD6A4C",
"^@	c #A2664D",
"/@	c #95694E",
"(@	c #6FC25F",
"_@	c #7C9F5A",
":@	c #7B9365",
"<@	c #79A066",
"[@	c #74A26A",
"}@	c #729E6F",
"|@	c #67A173",
"1@	c #878D63",
"2@	c #8C9568",
"3@	c #7D9D6F",
"4@	c #8A9065",
"5@	c #B18057",
"6@	c #BF7650",
"7@	c #B66E4C",
"8@	c #A66E4F",
"9@	c #997455",
"0@	c #967757",
"a@	c #957758",
"b@	c #946F52",
"c@	c #9C674B",
"d@	c #C97F54",
"e@	c #B26D4B",
"f@	c #9E634B",
"g@	c #8B7354",
"h@	c #7DB853",
"i@	c #8E9553",
"j@	c #997652",
"k@	c #997054",
"l@	c #9E7354",
"m@	c #918B62",
"n@	c #A9845A",
"o@	c #BC7F56",
"p@	c #B87C56",
"q@	c #B87A54",
"r@	c #C27D53",
"s@	c #B7704D",
"t@	c #A9684B",
"u@	c #A2654C",
"v@	c #B16D4D",
"w@	c #BB744E",
"x@	c #BF774F",
"y@	c #C67D52",
"z@	c #C47B51",
"A@	c #B66E4B",
"B@	c #A9694C",
"C@	c #A0644D",
"D@	c #9B644C",
"E@	c #847E5A",
"F@	c #7EBA55",
"G@	c #929451",
"H@	c #9E6F4E",
"I@	c #A5664C",
"J@	c #AD6D4D",
"K@	c #B8724E",
"L@	c #C27850",
"M@	c #9F654D",
"N@	c #B8714C",
"O@	c #B9714D",
"P@	c #A7694D",
"Q@	c #9F634C",
"R@	c #946A4E",
"S@	c #738F66",
"T@	c #7DBB55",
"U@	c #919551",
"V@	c #9D704E",
"W@	c #B56F4C",
"X@	c #BA734E",
"Y@	c #C37B51",
"Z@	c #AF6B4C",
"`@	c #9B6149",
" #	c #9D624A",
".#	c #B46E4B",
"+#	c #B16C4B",
"@#	c #8E7253",
"##	c #669E70",
"$#	c #7DBC55",
"%#	c #919651",
"&#	c #B7714E",
"*#	c #BC754F",
"=#	c #C47B52",
"-#	c #BD754E",
";#	c #9C624B",
">#	c #965C45",
",#	c #955A43",
"'#	c #975C45",
")#	c #9A5F48",
"!#	c #A4674C",
"~#	c #A6684C",
"{#	c #A7684C",
"]#	c #A5684D",
"^#	c #94654B",
"/#	c #7E825D",
"(#	c #5DA574",
"_#	c #919751",
":#	c #9D714E",
"<#	c #AA694C",
"[#	c #B56E4C",
"}#	c #955C45",
"|#	c #8D6146",
"1#	c #8B674B",
"2#	c #90654A",
"3#	c #986149",
"4#	c #9B6049",
"5#	c #9F634A",
"6#	c #A1654C",
"7#	c #9E644C",
"8#	c #95654B",
"9#	c #7E825C",
"0#	c #5EA474",
"a#	c #53B379",
"b#	c #7CBD56",
"c#	c #8E9750",
"d#	c #986E4A",
"e#	c #9C634B",
"f#	c #9F654C",
"g#	c #A4664B",
"h#	c #A9684C",
"i#	c #A5664B",
"j#	c #9E654C",
"k#	c #9B624A",
"l#	c #8E6C4F",
"m#	c #798760",
"n#	c #6F9569",
"o#	c #778D62",
"p#	c #837A56",
"q#	c #896E4F",
"r#	c #8C7253",
"s#	c #916F51",
"t#	c #95634A",
"u#	c #8F6F51",
"v#	c #8C7756",
"w#	c #8A7756",
"x#	c #53B279",
"y#	c #61BA6D",
"z#	c #79BD54",
"A#	c #86954C",
"B#	c #8A7C52",
"C#	c #8A7958",
"D#	c #8C7353",
"E#	c #9A664C",
"F#	c #9B694E",
"G#	c #96674C",
"H#	c #857C59",
"I#	c #748F66",
"J#	c #57AB78",
"K#	c #55B577",
"L#	c #5EB471",
"M#	c #61A970",
"N#	c #64A270",
"O#	c #62A271",
"P#	c #6D966A",
"Q#	c #7B865F",
"R#	c #699B6D",
"S#	c #5EA674",
"T#	c #5DA973",
"U#	c #54B378",
"V#	c #61BA6E",
"                                                                                                                                ",
"                                                                                                                                ",
"                                                                                                                                ",
"                                                                                                                                ",
"                                                                                                                                ",
"                                                                                                                                ",
"                                                                                                                                ",
"                                                                                                                                ",
"                                                                                                                                ",
"                                                                                                                                ",
"                                                                                                                                ",
"                                                                                                                                ",
"                                                                                                                                ",
"                                                                                                                                ",
"                                                                                                                                ",
"                                                                                                                                ",
"                                                                                                                                ",
"                                                                                                                                ",
"                                                                                                                                ",
"                                                                                                                                ",
"                                                                                                                                ",
"                                                                                                                                ",
"                                                                                                                                ",
"                                                                                                                                ",
"                                                                                                                                ",
"                                                                                                          . + @                 ",
"                                                                                                        # $ % & *               ",
"                                                                                                          = - ; > ,             ",
"                                                                                                          ' ) ! ~ { ]           ",
"                                                                                                            ^ / ( _ : ]         ",
"                                                                                                            < [ } | _ : 1       ",
"                                                                                                            2 3 4 5 6 _ 7 8     ",
"                                                                                                            @ 9 0 a b 6 _ 7 c   ",
"                                                                                                            d e f g h i 6 j k l ",
"                                                                                                              m n o p q i q r s ",
"                                                                                                            < t u v w x q i y z ",
"                                                                                                            A B C D E F G q H I ",
"                                                                                                              J K L M N O P Q R ",
"                                                                                                            S T U V W X Y Z `  .",
"                                                                                                          ..+.@.#.$.W %.&.*.=.-.",
"                                                                                                        ;.>.,.'.).!.~.{.M ].^./.",
"                                                                                                        < (._.:.<.[.}.{.|.1.2.3.",
"                                                                                                          4.5.6.7.8.9.{.~.0.a.b.",
"                                                                                                            >.c.d.e.f.g.h.i.j.k.",
"                                                                                                            l.m.n.o.p.q.r.s.t.b ",
"                                                                                                          ..u.v.w.x.6 y.z.z.=.A.",
"                                                                                                          A = B.C.D.i E.y y F.G.",
"                                                                                                          >.H.I.J.K.i h L.M.N.O.",
"                                                                                                      ..  P.Q.R.S.T.i E.U.V.W.X.",
"                                                                                                    Y.Z.. `. +.+++@+#+i $+%+&+*+",
"                                                                                                    ;.=+-+;+>+,+'+)+!+6 h ~+{+]+",
"                                                                                                    < ^+/+(+_+:+<+[+}+!+6 |+1+2+",
"                                                                                  . Z.      ' = 3+4.4+5+6+7+8+9+0+a+b+}+!+c+d+e+",
"                                                            ;.    ;.      ....  S f+g+h+i+S u.j+k+l+m+n+o+p+q+{.}.r+s+b+t+u+v+w+",
"                                                          x+y+u.z+A+4.4.. Z.4.A+B+C+D+E+F+G+H+I+J+K+L+M+N+O+~.{.{.P+Q+b+a.u+R+S+",
"                                                          . T+U+V+W+X+Y+Z+`+ @.@+@@@#@$@%@&@*@*@=@-@;@>@,@'@)@{.{.!@~@{@]@^@E./@",
"                                                            (@_@:@<@[@}@|@1@2@3@4@5@6@7@8@9@0@a@b@c@*.h.%.~.d@{.{.[.Q+e@x i f@g@",
"                                                              h@i@j@k@l@m@n@o@p@q@r@~.M s@t@u@i E.R+z.v@w@x@M y@z@a+A@}+B@C@D@E@",
"                                                                F@G@H@I@J@K@L@|.d@{.{.d@x@a.Z M@E.i q z.p.b+N@Q+O@A@b+e@P@Q@R@S@",
"                                                                  T@U@V@z.a.W@X@Y@~.}.d@x@Z@Z f@`@ #h E.z.p..#{@e@e@+#!+^@|+@###",
"                                                                    $#%#V@z.x t.&#*#X =#-#t+z.;#>#,#'#)#E.!#]@]@~#{#]#^@|+^#/#(#",
"                                                                      $#_#:#E.q <#O q.s@[#p.Z $+}#|#1#2#3#4#5#6#` f@7#y 8#9#0#a#",
"                                                                        b#c#d#e#f#E.g#h#2.i#j#k#l#m#n#o#p#q#r#s#t#u#v#w#/#0#x#y#",
"                                                                          z#A#B#C#D#/@E#F#G#D#H#I#J#K#L#M#N#O#P#Q#R#(#S#T#U#V#. "};
