/* XPM */
static char * tiles8_xpm[] = {
"64 64 447 2",
"  	c #F8C984",
". 	c #5F422F",
"+ 	c #614431",
"@ 	c #604331",
"# 	c #614532",
"$ 	c #614533",
"% 	c #624633",
"& 	c #624634",
"* 	c #634836",
"= 	c #634936",
"- 	c #634A38",
"; 	c #644A38",
"> 	c #644B39",
", 	c #624835",
"' 	c #634835",
") 	c #624735",
"! 	c #604330",
"~ 	c #4F2913",
"{ 	c #868579",
"] 	c #94928B",
"^ 	c #5B3C29",
"/ 	c #5C3C28",
"( 	c #8D8B82",
"_ 	c #8B8980",
": 	c #848277",
"< 	c #5B3B27",
"[ 	c #8C8A81",
"} 	c #60422E",
"| 	c #F1B183",
"1 	c #635A51",
"2 	c #645A52",
"3 	c #665D54",
"4 	c #675F56",
"5 	c #6B635A",
"6 	c #6A635A",
"7 	c #6A6159",
"8 	c #696057",
"9 	c #696158",
"0 	c #858277",
"a 	c #61422E",
"b 	c #5F574E",
"c 	c #5C3B25",
"d 	c #5C3C25",
"e 	c #5E3F2A",
"f 	c #5F402E",
"g 	c #5F412E",
"h 	c #5E402C",
"i 	c #5E402B",
"j 	c #5E3E29",
"k 	c #5D3C26",
"l 	c #60584F",
"m 	c #61432E",
"n 	c #8E8B82",
"o 	c #858377",
"p 	c #5F564D",
"q 	c #5A371E",
"r 	c #716256",
"s 	c #777066",
"t 	c #6D6258",
"u 	c #706256",
"v 	c #5D3C28",
"w 	c #929089",
"x 	c #746F64",
"y 	c #726255",
"z 	c #918E85",
"A 	c #5D3D28",
"B 	c #939189",
"C 	c #918F86",
"D 	c #868477",
"E 	c #7B776B",
"F 	c #7A7267",
"G 	c #95938B",
"H 	c #5D3E29",
"I 	c #736D62",
"J 	c #747064",
"K 	c #614430",
"L 	c #868478",
"M 	c #797369",
"N 	c #7A7669",
"O 	c #7A7769",
"P 	c #7A776A",
"Q 	c #7A756A",
"R 	c #583A27",
"S 	c #583B28",
"T 	c #6B6256",
"U 	c #757064",
"V 	c #F4BB83",
"W 	c #60422D",
"X 	c #79756A",
"Y 	c #7B766C",
"Z 	c #7B776C",
"` 	c #7C776C",
" .	c #7A766A",
"..	c #7C776B",
"+.	c #7B766B",
"@.	c #573621",
"#.	c #5B371E",
"$.	c #7A756B",
"%.	c #7C786C",
"&.	c #7D786D",
"*.	c #7C786B",
"=.	c #7B776A",
"-.	c #7B766A",
";.	c #7B7267",
">.	c #7A7469",
",.	c #787467",
"'.	c #787268",
").	c #61432F",
"!.	c #95938A",
"~.	c #878578",
"{.	c #7D796F",
"].	c #7C776D",
"^.	c #7C786E",
"/.	c #7D786E",
"(.	c #7E786F",
"_.	c #7E786E",
":.	c #7C766E",
"<.	c #7B756A",
"[.	c #7B7469",
"}.	c #797468",
"|.	c #797267",
"1.	c #97948C",
"2.	c #7D796E",
"3.	c #7F796F",
"4.	c #80796F",
"5.	c #7E796F",
"6.	c #7C766A",
"7.	c #7C756A",
"8.	c #7A7568",
"9.	c #7A7368",
"0.	c #797368",
"a.	c #888578",
"b.	c #99978F",
"c.	c #F8CB8A",
"d.	c #5F402B",
"e.	c #888678",
"f.	c #7F796E",
"g.	c #7F7A6F",
"h.	c #7E7A6F",
"i.	c #7F7B6E",
"j.	c #7F7B6F",
"k.	c #7F7A6E",
"l.	c #7E796E",
"m.	c #7E7970",
"n.	c #7B746A",
"o.	c #7A746D",
"p.	c #5B381E",
"q.	c #8F8B82",
"r.	c #9C9890",
"s.	c #5F3E29",
"t.	c #F8CF93",
"u.	c #98958D",
"v.	c #8B897D",
"w.	c #888679",
"x.	c #898679",
"y.	c #7D776D",
"z.	c #6C6259",
"A.	c #7F7A70",
"B.	c #7F7A71",
"C.	c #7F7970",
"D.	c #7B746D",
"E.	c #5B381F",
"F.	c #8F8B83",
"G.	c #888579",
"H.	c #9C9991",
"I.	c #60402B",
"J.	c #99968E",
"K.	c #8F8C83",
"L.	c #8E8C82",
"M.	c #89867A",
"N.	c #9D9991",
"O.	c #5F3F29",
"P.	c #5E3D28",
"Q.	c #A09C94",
"R.	c #5E3F29",
"S.	c #543019",
"T.	c #F8D4A0",
"U.	c #655444",
"V.	c #6C635A",
"W.	c #807A71",
"X.	c #7E7A70",
"Y.	c #8D8A81",
"Z.	c #F2B683",
"`.	c #F6C384",
" +	c #5C381F",
".+	c #8D8B81",
"++	c #8A877A",
"@+	c #8A887A",
"#+	c #89877A",
"$+	c #7F7C70",
"%+	c #8B897C",
"&+	c #8C897C",
"*+	c #8A8779",
"=+	c #8C8A7C",
"-+	c #9A968E",
";+	c #696153",
">+	c #7B786C",
",+	c #9F9A92",
"'+	c #5A3722",
")+	c #7A766B",
"!+	c #807C70",
"~+	c #9F9B93",
"{+	c #9D9A92",
"]+	c #9B978F",
"^+	c #9A978F",
"/+	c #96938B",
"(+	c #9E9A92",
"_+	c #696255",
":+	c #696152",
"<+	c #542F18",
"[+	c #583622",
"}+	c #777369",
"|+	c #78746A",
"1+	c #95918A",
"2+	c #6D675E",
"3+	c #757169",
"4+	c #757168",
"5+	c #6F695F",
"6+	c #6F6960",
"7+	c #7B766E",
"8+	c #7C786F",
"9+	c #7D7970",
"0+	c #7B776F",
"a+	c #6F6860",
"b+	c #6E685F",
"c+	c #6E685E",
"d+	c #807E77",
"e+	c #675F53",
"f+	c #675F52",
"g+	c #512C16",
"h+	c #6C5D4F",
"i+	c #6D6051",
"j+	c #583621",
"k+	c #8B8880",
"l+	c #6D675D",
"m+	c #6F685E",
"n+	c #6F695E",
"o+	c #6F685F",
"p+	c #6E675E",
"q+	c #6E675F",
"r+	c #6D675F",
"s+	c #6D665E",
"t+	c #79766A",
"u+	c #695948",
"v+	c #685849",
"w+	c #828078",
"x+	c #6D665D",
"y+	c #6E685D",
"z+	c #6F675E",
"A+	c #6C665E",
"B+	c #6C665D",
"C+	c #5E422F",
"D+	c #828079",
"E+	c #6C655C",
"F+	c #6B655D",
"G+	c #6E675D",
"H+	c #726D63",
"I+	c #726C62",
"J+	c #6D665C",
"K+	c #604937",
"L+	c #4E2913",
"M+	c #7E7C74",
"N+	c #6A645B",
"O+	c #6A645C",
"P+	c #6B645C",
"Q+	c #6B655C",
"R+	c #533422",
"S+	c #523320",
"T+	c #52321F",
"U+	c #51311E",
"V+	c #512F1C",
"W+	c #51301C",
"X+	c #512F1B",
"Y+	c #522F1B",
"Z+	c #52301B",
"`+	c #726C63",
" @	c #6D655C",
".@	c #6C655B",
"+@	c #7C7A71",
"@@	c #614937",
"#@	c #7C7972",
"$@	c #69635B",
"%@	c #533421",
"&@	c #594C41",
"*@	c #5B4F44",
"=@	c #645B50",
"-@	c #645B4F",
";@	c #655B51",
">@	c #655C52",
",@	c #665D53",
"'@	c #665D52",
")@	c #645B51",
"!@	c #533623",
"~@	c #706C63",
"{@	c #726D64",
"]@	c #6C665B",
"^@	c #6B655B",
"/@	c #77746B",
"(@	c #53301A",
"_@	c #55331E",
":@	c #79776E",
"<@	c #69635A",
"[@	c #6B645A",
"}@	c #5B4E43",
"|@	c #5A4D42",
"1@	c #655B50",
"2@	c #655C51",
"3@	c #665C52",
"4@	c #655D52",
"5@	c #533420",
"6@	c #6D6860",
"7@	c #6B645B",
"8@	c #747068",
"9@	c #4E2812",
"0@	c #78756C",
"a@	c #5B4E42",
"b@	c #645A4F",
"c@	c #655C50",
"d@	c #533320",
"e@	c #726F67",
"f@	c #5D5146",
"g@	c #63584D",
"h@	c #655D51",
"i@	c #53331F",
"j@	c #6A645A",
"k@	c #726E67",
"l@	c #767269",
"m@	c #686159",
"n@	c #696259",
"o@	c #6B6358",
"p@	c #61564B",
"q@	c #63594E",
"r@	c #635A4F",
"s@	c #645A50",
"t@	c #655A50",
"u@	c #63574D",
"v@	c #635A4E",
"w@	c #52331F",
"x@	c #6B6359",
"y@	c #6A6359",
"z@	c #6A6459",
"A@	c #736F67",
"B@	c #676158",
"C@	c #676157",
"D@	c #686157",
"E@	c #696257",
"F@	c #523521",
"G@	c #5F5448",
"H@	c #62574C",
"I@	c #62574D",
"J@	c #696258",
"K@	c #726F66",
"L@	c #676156",
"M@	c #686156",
"N@	c #50311D",
"O@	c #63584E",
"P@	c #686158",
"Q@	c #716E65",
"R@	c #4D2812",
"S@	c #6F6B62",
"T@	c #676155",
"U@	c #676056",
"V@	c #502F1B",
"W@	c #5F5449",
"X@	c #605549",
"Y@	c #62574B",
"Z@	c #61574D",
"`@	c #51301B",
" #	c #676057",
".#	c #686057",
"+#	c #716D65",
"@#	c #6F6B60",
"##	c #666053",
"$#	c #676054",
"%#	c #665E55",
"&#	c #5E5346",
"*#	c #5E5446",
"=#	c #605448",
"-#	c #605449",
";#	c #60554A",
">#	c #61574C",
",#	c #512F1A",
"'#	c #666055",
")#	c #665F56",
"!#	c #6F6A60",
"~#	c #665E54",
"{#	c #655E55",
"]#	c #5E5245",
"^#	c #5E5145",
"/#	c #5E5146",
"(#	c #5E5347",
"_#	c #62564B",
":#	c #5F564A",
"<#	c #615649",
"[#	c #50321D",
"}#	c #655F54",
"|#	c #655F55",
"1#	c #726E66",
"2#	c #696359",
"3#	c #645C53",
"4#	c #645D53",
"5#	c #645E53",
"6#	c #6F6A5E",
"7#	c #523422",
"8#	c #5F5347",
"9#	c #5F5447",
"0#	c #5F5348",
"a#	c #573E2E",
"b#	c #696358",
"c#	c #655F53",
"d#	c #645E54",
"e#	c #716D64",
"f#	c #F8D197",
"g#	c #4D2712",
"h#	c #6E6A5F",
"i#	c #686358",
"j#	c #635C52",
"k#	c #635D52",
"l#	c #787468",
"m#	c #502E1A",
"n#	c #502E19",
"o#	c #502D19",
"p#	c #502D1A",
"q#	c #4F2D1A",
"r#	c #6B665A",
"s#	c #655E53",
"t#	c #645E52",
"u#	c #F8D39E",
"v#	c #6D695F",
"w#	c #6A655A",
"x#	c #69655A",
"y#	c #635C51",
"z#	c #625C50",
"A#	c #726D60",
"B#	c #736D61",
"C#	c #635D51",
"D#	c #6E6A61",
"E#	c #635C50",
"F#	c #6C6759",
"G#	c #6A655B",
"H#	c #4C2711",
"I#	c #625C51",
"J#	c #69655B",
"K#	c #6A665C",
"L#	c #6B675C",
"M#	c #6A665B",
"N#	c #4D2711",
"                                  . + @ # $ % & * = - ; ; > > > , ' ) ) ) ) $ ! !                               ~ { { { { { ] ^ ",
"                                / ( ( ( ( _ _ : : : : : : : : : : : : : : : : : _ <                             ~ { { { { { ] ^ ",
"                              / ( ( ( ( ( _ : : : : : : : : : : : : : : : : : : : _ /                           ~ { { { { { ] ^ ",
"                            / ( : : : : : : : : : : : : : : : : : [ [ [ : : : : : : _ /                         ~ { { { { { ] ^ ",
"                          } ( : : : : : : : : : : : : : : : : _ [ [ [ [ : : : : : : : ( }                       ~ { { { { { ] ^ ",
"                  | | |   } ( : : : : : : 1 2 3 3 4 5 5 6 6 6 5 5 5 7 8 9 0 : : : : : ( <                       ~ { { { { { ] ^ ",
"                | | | | | a ( : 0 0 0 0 b c d d e e f g h i j j j j k k k l : 0 0 0 : ( /                       ~ { { { { { ] ^ ",
"              | | | | | | m n 0 o o 0 p q r r s s s s s s s s s s t u u u q p 0 0 o 0 ( v                       ~ { { { { w x ^ ",
"              | | | | | | m n o o o o q r y s s s s s s s s s s s s s s r u q o o o 0 z A                       ~ { { { { B x ^ ",
"              | | | | | | m C o D D D q u s s s s s s s s E E s s s s s F F q D o o o G H                       ~ ] ] ] ] I J ^ ",
"              | | | | | | K C D D D L q t M s s s s N O P E E Q s F F F F F q D D D D G H                       ~ ~ R S T T U ^ ",
"                V | | | | W C L L L L q X Y Z ` s s  .....E ` +. .F F F F F q L L D D G H                       ~ { { { @.T T ^ ",
"                  | | |   m C L L L L #.$.Z %.&. . .....*.*.*.=.-.;.F >.,.'.#.L L L L G j                       ~ { { { { , ; ^ ",
"                          ).!.L L ~.~.#.Y {.{.].^././.(.(._./.^.:.<.<.[.}.|.#.L L L ~.G j                       ~ { { { { { ] ^ ",
"                          m 1.~.~.~.~.#.{.{.{.{./.2.{.3.3.4.3.5._.6.7.8.9.0.#.a.a.L L b.j           c.          ~ { { { { { ] ^ ",
"                          d.1.~.~.e.e.#.5.5.5.5.f.3.g.h.g.i.j.k.l.m.(.n.9.o.p.q.a.a.~.r.s.          t.          ~ { { { { { ] ^ ",
"                          d.u.v.w.w.x.p.y.5.5.g.z.z.3.g.g.A.B.B.C.m.m.(.>.D.E.F.x.G.G.H.s.                      ~ { { { { { ] ^ ",
"                          I.J.K.L.. + @ # $ % & * = - ; ; > > > , ' ) ) ) ) $ ! ! M.G.N.O.                      ~ { { { { { ] ^ ",
"                          I.N.K./ ( ( ( ( _ _ : : : : : : : : : : : : : : : : : _ < M.N.O.                      ~ { { { { { ] ^ ",
"                          P.Q./ ( ( ( ( ( _ : : : : : : : : : : : : : : : : : : : _ / N.R.                      ~ { { { { { ] ^ ",
"                          P./ ( : : : : : : : : : : : : : : : : : [ [ [ : : : : : : _ / S.                      ~ { { { { { ] ^ ",
"                          } ( : : : : : : : : : : : : : : : : _ [ [ [ [ : : : : : : : ( }                       ~ { { { { { ] ^ ",
"                          } ( : : : : : : 1 2 3 3 4 5 5 6 6 6 5 5 5 7 8 9 0 : : : : : ( <                       ~ { { { { { ] ^ ",
"            c.            a ( : 0 0 0 0 b c d d e e f g h i j j j j k k k l : 0 0 0 : ( /                     T.~ { { { { { ] ^ ",
"            c.            m n 0 o o 0 p q r r s s s s s s s s s s t u u u q p 0 0 o 0 ( v                     T.~ { { { { { ] ^ ",
"                          m n o o o o q r y s s s s s s s s s s s s s s r u q o o o 0 z A                       ~ ] ] ] ] ] ] ^ ",
"                          m C o D D D q u s s s s s s s s E E s s s s s F F q D o o o G H                       ~ ~ U.U.U.U.~ ^ ",
"                          K C D D D L q t M s s s s N O P E E Q s F F F F F q D D D D G H                       ~ { { { { { ] ^ ",
"                          W C L L L L q X Y Z ` s s  .....E ` +. .F F F F F q L L D D G H                       ~ { { { { { ] ^ ",
"                          m C L L L L #.$.Z %.&. . .....*.*.*.=.-.;.F >.,.'.#.L L L L G j                       ~ { { { { { ] ^ ",
"                          ).!.L L ~.~.#.Y {.{.].^././.(.(._./.^.:.<.<.[.}.|.#.L L L ~.G j                       ~ { { { { { ] ^ ",
"                          m 1.~.~.~.~.#.{.{.{.{./.2.{.3.3.4.3.5._.6.7.8.9.0.#.a.a.L L b.j                       ~ { { { { { ] ^ ",
"                          d.1.~.~.e.e.#.5.5.5.5.f.3.g.h.g.i.j.k.l.m.(.n.9.o.p.q.a.a.~.r.s.                      ~ { { { { { ] ^ ",
"                          d.u.v.w.w.x.p.y.5.5.g.z.z.3.g.g.A.B.B.C.m.m.(.>.D.E.F.x.G.G.H.s.                      ~ { { { { { ] ^ ",
"                          I.J.K.L.x.x.x.p.&.5.z.z.z.V.V.V.W.B.B.A.X.m.5.^.E.Y.F.M.M.G.N.O.                      ~ { { { { { ] ^ ",
"        Z.| `.            I.N.K.K.x.x.x.x.p.E.E.E.E.E.E.E.E.E.E.E. +E. + +F.F.F.M.M.M.N.O.                      ~ { { { { { ] ^ ",
"      Z.| | |             P.Q..+K.x.x.++++++++++++++++++++++++++@+@+@+@+K.K.#+M.M.M.M.N.R.                      ~ { { { { { ] ^ ",
"      | | | |             P.$+Q.%+&+*+*+++++++++++++++++++++@+@+@+@+@+=+@+@+@+@+M.M.-+;+S.                      ~ { { { { { ] ^ ",
"      `.| | |             P.%.>+Q.&+*+++++++++++++++++++++++++++@+@+@+@+@+@+@+@+M.,+;+;+S.                      ~ { { { { { ] ^ ",
"                          '+)+)+!+Q.~+{+N.H.]+^+]+G /+/+/+/+/+1.1.1.1.1.u.u.u.]+(+_+:+:+<+                      ~ ] ] { { { ] ^ ",
"                          [+}+|+1+2+3+4+4+4+4+5+6+5+6+6+5+6+7+8+9+0+a+b+b+b+b+b+c+d+e+f+g+                      ~ h+i+] ] { ] ^ ",
"                          j+|+k+l+l+4+4+c+c+c+c+c+c+c+c+c+c+m+m+m+n+o+p+p+q+q+r+2+s+d+f+~       | | | | | V     ~ t+t+u+v+] ] ^ ",
"                          ~ w+l+l+l+l+x+l+x+y+z+m+m+z+z+n+m+n+n+n+n+m+m+c+p+2+l+2+A+B+d+~     | | | | | | | V   ~ t+T T T C+~ ^ ",
"                          ~ D+x+B+E+F+x+x+l+G+p+c+c+c+c+c+c+m+m+m+m+m+m+m+c+H+I+J+E+F+D+~   | | | | | | | | |   ~ t+T T K+{ ] ^ ",
"                          L+M+N+O+P+Q+B+x+R+R+S+T+T+U+V+W+W+W+W+W+X+Y+X+Z+H+`+H+ @E+.@+@~   | | | | | | | | |   ~ T T @@{ { ] ^ ",
"                          L+#@$@N+O+E+B+%@&@*@=@-@=@;@>@>@>@>@>@,@'@>@;@)@!@~@{@E+]@^@/@~   | | | | | | | | |   ~ (@_@{ { { ] ^ ",
"                          L+:@<@<@[@^@X+}@|@1@-@1@=@1@2@2@2@2@,@,@,@3@>@4@4@5@6@Q+7@7@8@~     | | | | | | |     ~ { { { { { ] ^ ",
"                          9@0@<@<@[@^@X+a@b@1@1@=@=@=@c@2@'@'@'@'@'@4@4@4@4@d@P+7@N+N+e@~       | | | | |       ~ { { { { { ] ^ ",
"                          9@/@<@<@6 7@X+f@b@=@1@1@1@1@2@2@'@2@2@g@g@h@h@h@h@i@7@7@j@j@k@L+                      ~ { { { { { ] ^ ",
"                          9@l@m@n@n@o@R+p@q@b@r@s@b@s@t@t@;@;@u@g@g@g@h@h@v@w@x@y@y@z@A@L+                      ~ { { { { { ] ^ ",
"                          9@4+B@C@D@E@F@G@G@G@b@b@b@b@b@r@H@H@I@I@u@u@u@g@g@w@J@J@E@J@e@L+                      ~ { { { { { ] ^ ",
"                          9@K@C@L@C@M@N@G@G@G@b@b@b@b@b@b@H@H@H@H@H@H@H@O@g@w@P@P@D@D@Q@L+                      ~ { { { { { ] ^ ",
"                          R@S@T@U@U@U@V@G@W@G@X@b@b@b@b@b@H@H@H@H@H@H@H@Y@Z@`@ #C@D@.#+#9@                      ~ { { { { { ] ^ ",
"                          R@@###$#%#%#V@&#*#G@=#-#;#b@b@H@H@H@>#W@W@W@W@W@W@,#'#U@)#U@Q@9@                      ~ { { { { { ] ^ ",
"                          R@!#<@,@~#{#W+]#^#/#(#_#_#Y@Y@H@H@:#<#W@W@W@W@W@W@[#}#}#|#)#1#9@                      ~ { { { { { ] ^ ",
"          T.T.T.T.        R@!#2#3#4#5#6#7#^#^#/#p@p@_#_#_#8#9#G@W@W@0#0#0#a#b#}#c#c#d#e#9@                      ~ { { { { { ] ^ ",
"        f#T.T.T.T.T.      g#h#i#3#j#j#k#l#7#V@m#m#m#m#m#m#n#o#p#p#q#q#p#m#r#k#s#5#5#t#S@9@                      ~ { { { { { ] ^ ",
"      u#T.T.T.T.T.T.T.    g#v#w#x#y#y#z#z#A#A#A#A#A#A#A#A#A#B#B#B#B#B#B#B#C#C#t#k#k#k#D#9@                      ~ ] ] ] ] ] ] ^ ",
"        T.T.T.T.T.T.f#    g#v#w#x#x#x#z#z#z#z#z#z#E#x#x#x#x#F#G#G#G#y#y#C#C#C#k#k#k#k#D#9@                      ~ ~ U.U.U.U.~ ^ ",
"          T.T.T.T.          H#x#x#x#x#z#z#z#z#z#z#z#z#z#z#z#I#J#G#G#y#y#y#y#C#C#k#k#K#R@                        ~ { { { { { ] ^ ",
"            T.T.f#            H#x#x#z#z#z#z#z#z#z#z#z#z#z#z#z#I#I#y#y#y#y#y#y#C#C#L#R@                          ~ { { { { { ] ^ ",
"                                H#L#z#z#z#z#z#z#z#z#z#z#z#z#z#z#I#y#E#y#y#y#y#y#M#R@                            ~ { { { { { ] ^ ",
"                                  H#H#H#H#H#H#H#H#H#H#H#H#H#N#g#g#R@R@R@R@R@R@R@R@                              ~ { { { { { ] ^ ",
"                                                                                                                ~ { { { { { ] ^ "};
