/* XPM */
static char *player45[] = {
/* columns rows colors chars-per-pixel */
"55 55 237 2 ",
"   c #020202",
".  c #0B0403",
"X  c #01020A",
"o  c #060A0B",
"O  c #090909",
"+  c #170706",
"@  c #0C110E",
"#  c #151408",
"$  c #030312",
"%  c #080A15",
"&  c #0B1414",
"*  c #0D171A",
"=  c #131513",
"-  c #131B1B",
";  c #191A18",
":  c #240A04",
">  c #281305",
",  c #361705",
"<  c #321911",
"1  c #27141A",
"2  c #0E231F",
"3  c #392618",
"4  c #2B3217",
"5  c #0D1728",
"6  c #141A24",
"7  c #151934",
"8  c #211C22",
"9  c #2C0C20",
"0  c #0D232D",
"q  c #1A2225",
"w  c #162935",
"e  c #242C2C",
"r  c #26252B",
"t  c #352B22",
"y  c #28302C",
"u  c #252A33",
"i  c #283437",
"p  c #373939",
"a  c #36342A",
"s  c #461D04",
"d  c #591C07",
"f  c #52140E",
"g  c #4D240B",
"h  c #482416",
"j  c #562B12",
"k  c #5B3819",
"l  c #5A260D",
"z  c #612D05",
"x  c #773C0F",
"c  c #662E17",
"v  c #683B16",
"b  c #713618",
"n  c #473626",
"m  c #4F3A2F",
"M  c #693C26",
"N  c #642D23",
"B  c #3D403F",
"V  c #524011",
"C  c #78431C",
"Z  c #6C401F",
"A  c #564A3A",
"S  c #4A4B33",
"D  c #644526",
"F  c #7D4C23",
"G  c #774222",
"H  c #784D36",
"J  c #735737",
"K  c #634F37",
"L  c #776938",
"P  c #1B3546",
"I  c #172F40",
"U  c #262C43",
"Y  c #293A4A",
"T  c #252D5A",
"R  c #2B3656",
"E  c #333C55",
"W  c #332F46",
"Q  c #2B3C61",
"!  c #2C3865",
"~  c #343A65",
"^  c #383D72",
"/  c #131853",
"(  c #214356",
")  c #384558",
"_  c #384C52",
"`  c #184765",
"'  c #274D66",
"]  c #364762",
"[  c #29536B",
"{  c #3B4373",
"}  c #2C5A73",
"|  c #2B5772",
" . c #3A566C",
".. c #30617E",
"X. c #454947",
"o. c #4F5254",
"O. c #675A49",
"+. c #5C6457",
"@. c #706958",
"#. c #4B5968",
"$. c #5A5D67",
"%. c #555E78",
"&. c #414870",
"*. c #4E6576",
"=. c #5A6675",
"-. c #556A6D",
";. c #697875",
":. c #777578",
">. c #65696D",
",. c #844C28",
"<. c #865629",
"1. c #855735",
"2. c #965B34",
"3. c #94562C",
"4. c #A35D35",
"5. c #9C6539",
"6. c #9A6B2C",
"7. c #A3713B",
"8. c #8A6043",
"9. c #9D6C47",
"0. c #887649",
"q. c #817758",
"w. c #95745C",
"e. c #A46C49",
"r. c #A6714D",
"t. c #B47C52",
"y. c #B47C44",
"u. c #8E7567",
"i. c #8F7A74",
"p. c #7F837C",
"a. c #88835B",
"s. c #8D8144",
"d. c #BB8E50",
"f. c #999467",
"g. c #938971",
"h. c #A49968",
"j. c #AE906F",
"k. c #ADA878",
"l. c #CC9C5C",
"z. c #E6A45D",
"x. c #D49A68",
"c. c #CB9B72",
"v. c #DBA874",
"b. c #D1B26D",
"n. c #E4BC77",
"m. c #E1AA7A",
"M. c #FFC37A",
"N. c #356B8A",
"B. c #356786",
"V. c #367294",
"C. c #3D7A9D",
"Z. c #377296",
"A. c #376F93",
"S. c #3A7DA4",
"D. c #484F8A",
"F. c #4D6885",
"G. c #517091",
"H. c #646693",
"J. c #667397",
"K. c #7A7CB1",
"L. c #3A81AA",
"P. c #3F91BF",
"I. c #52849D",
"U. c #4184AB",
"Y. c #4988AC",
"T. c #478CB3",
"R. c #4790BB",
"E. c #5694B6",
"W. c #7D8AA5",
"Q. c #7C9098",
"!. c #3F8EC0",
"~. c #4D9CCA",
"^. c #4997C3",
"/. c #529DC8",
"(. c #499FD0",
"). c #55A2CE",
"_. c #4FA3D4",
"`. c #54A7D7",
"'. c #61A2C7",
"]. c #64ADD5",
"[. c #75B2C6",
"{. c #55AEE3",
"}. c #5AB6EC",
"|. c #5CB8EF",
" X c #55B3EA",
".X c #56B9F3",
"XX c #5CBCF4",
"oX c #5CBFF9",
"OX c #57BCF8",
"+X c #4EB7F5",
"@X c #61BBEC",
"#X c #62BDF2",
"$X c #5EC2FB",
"%X c #5EC9FF",
"&X c #5CC1F9",
"*X c #61C4FD",
"=X c #64CBFF",
"-X c #6ACCFF",
";X c #66C0F4",
":X c #79CBF8",
">X c #69D6FF",
",X c #7BD4FF",
"<X c #8C908D",
"1X c #8A9995",
"2X c #A89D83",
"3X c #ACA385",
"4X c #B7A08C",
"5X c #BBB38A",
"6X c #AAB18A",
"7X c #8F96B4",
"8X c #B1B7AD",
"9X c #88AABB",
"0X c #C4A486",
"qX c #C1B587",
"wX c #DEBB89",
"eX c #E3AC83",
"rX c #E8BE8C",
"tX c #C3C185",
"yX c #D4C998",
"uX c #CFCB95",
"iX c #E3D79D",
"pX c #FAE497",
"aX c #DBD6A4",
"sX c #D3CDB0",
"dX c #FFDBAA",
"fX c #F4F0B7",
"gX c #8AB9D2",
"hX c #92C6D8",
"jX c #B1C9CC",
"kX c #88CAEF",
"lX c #B5DEE8",
"zX c #E4DBC4",
"xX c #FDF5CE",
"cX c #FDF8C5",
"vX c #FBFCD8",
"bX c #E8E6CB",
"nX c #F3FAF4",
/* pixels */
"XXXXXXXXXXXXXXXXXXXXXXXXXXXXXXXXXXXXXXXXXXXXXXXXXXXXXXXXXXXXXXXXXXXXXXOXXXXXXXXXXXXXXXXXXXXXXXXXXXXXXXXXXXXXXX",
"XXXXXXXXXXXXXXXXXXXXXXXXXXXXXXXXXXXXXXXXXXXXXXXXXXXXXXXXXXXXXX#XXXXXXXXXXXXXXXXXXXXXXXXXXXXXXXXXXXXXXXXXXXXXXX",
"XXXXXXXXXXXXXXXXXXXXXXXXXXXXXXXXXXXXXXXXXXXXXXXXXXXXXXXXXXXXXX.X*X&X.X#XXXXXXXXXXXXXXXXXXXXXXXXXXXXXXXXXXXXXXX",
"XXXXXXXXXXXXXXXXXXXXXXoXXXXXXXXXXXXXXXXXXXXXXXXXoXXXXXXXXX|.*XkX#.9X,X+XXXXXXXXXXXXXXXXXXXXXXXXXXXXXXXXXXXXXXX",
"XXXXXXXXXXXXXXXXXXXXXXXXXXXXXXXXXXXXXXXXXXXXXXXXXXXXXX#XoX:X>.w.r.5.@.gX=X.X&X}.XXXXXXXXXXXXXXXXXXXXXXXXXXXXXX",
"XXXXXXXXXXXXXXXXXXXXXXXXXXXXXXXXoXXXXXXXXXXXXXXXXXXX*XI.n 4Xd.b e.,.t.9.jX$X}.&XXXXXXXXXXXXXXXXXXXXXXXXXXXXXXX",
"XXXXXXXXXXXXXXXXXXXXXXXXXXXXXXXXXXXXXXXXXXXXXXXXXXXX*X#.f 3.5.3.<.j.,.z 0XkX&X}.XXXXXXXXXXXXXXXXXXXXXXXXXXXXXX",
"XXXXXXXXXXXXXXXXXXXXXXXXXXXXXXXXXXXXXXXXXXXXXXXX|.=XI.j H x x.eX5.x.5.<.2.wXhX&X#XXXXXXXXXXXXXXXXXXXXXXXXXXXXX",
"XXXXXXXXXXoXXXXXXXXXXXXXXXXXXXXXXXXXXXXXXXXXXXXXXX@X) D j.C C c.dXv.v.eX9.6.f.^.$XXXXXXXoXXXXXXXXXXXXXXXXXoXXX",
"XXXXXXXXXXXXXXXXXXXXXXXXXXXXXXXXXXXXXXXXXXXXXX|.$X/.+ D t.b 1.<.<.e.x.5.b.,.z.@.).#XXXXXXXXXXXXXXXoXXXXXXXXXXX",
"XXXXoXXXXXXXXXXXXXXXXXXXXXXXXXXXXXXXXXXXXXXXXXXX}._ + 5.y.v yXn.l.d.C ,.M.f d.d.G.%XXXXXXXXXXXXXXXXXXXXXXXXXXX",
"XXXXXXXXXXXXXXXXXXXXXXXXXXXXXXXXXXXXXXXXXXXXXXXX&XG.s G l j 3.m.5.k k 0XK g z p.XX&XXXXXXXXXXXXXXXXXXXXXXXXXXX",
"XXXXXXXXXXXXXXXXXXXXXXXXXXXXoXXXXXXXXXXXXXXXXXXX#XY.s j h : 8.C z h = t h K -.oX:X;XXXXXXXXXXXXXXXXXXXXXXXXXXX",
"XXXXXXXXXXXXXXXXXXXXXXXXXXXXXXXXXXXXXXXXXXXXXX&X{.y g > X O u.z d :.$.j.m hX$XXX|.XXXXXXXXXXXXXXXXXXXXXXXXXXXX",
"XXXXXXXXXXXXXXXXXXXXXXXXXXXXXXXXXXXXXXXXXXXXXX|.*X/.s >   . # v 4.5XzXsX<X+XXXXXXXXXXXXXXXXXXXXXXXXXXXXXXXXXXX",
"XXXXXXXXXXXXXXXXXXXXXXXXXXXXXXXXXXXXXXXXXXXXXXXX*X/.v f.q.=   > 8.pXcXxXnX;XXXXXXXXXXXXXXXXXXXXXXXXXXXXXXXXXXX",
"XXXXXXXXXXXXXXXXXXXXXXXXXXXXXXXXXXXXXXXXXXXXXX$X{._ 5XuXfX2X+   t b.fXvXlXXX#XXXXXXXXXXXXXXXXXXXXXXXXXXXoXXXXX",
"XXXXXXXXXXXXXXXXXXXXXXXXXXXXXXXXXXXXXXXXXXXXXX|.Y 2XuXiXcXcXg.r %., k ).*X.XXXXXXXXXXXXXXXXXXXXXXXXXXXXXXXXXXX",
"XXXXXXXXXXXXXXXXXXXXXXXXXXXXXXXXXXXXXXXXXXXXoX Xw uXaXcXfX+.k.= 5 . ..&X|.XXXXXXXXXXXXXXXXXXXXXXXXXXXXXXXXXXXX",
"XXXXXXXXXXXXXXXXXX&XXXXXXXXXXXXXXXXXXXXXXXXXXX{.e qXaXvXS jXaXV o.y V.=X|.XXXXXXXXXXXXXXXXXXXXXXXXXXXXXXXXXXXX",
"XXXXXXXXXXXXXXXXXXXXXXXXXXXXXXXXXXXXXXXXXXXXoXXXy yXiXvXX.;.f.b.8X  L.=XXX#XOXOX#XXXXXXXXXXXXXXXXXXXXXXXXXXXXX",
"XXXXXXXXXXXXXXXXXXXXXXXXXXXXXXXXXXXXXXXXXXXX*XA.# a.s.h.S 0.tXbXtXK V.>X|.:X-XOX#X#XXXXXXXXXXXXXXXXXXXXXXXXXXX",
"XXXXXXXXXXXXXXXXXXXXXXXXXXXXXXXXXXXXXXXXXXXX*X0 + 3Xh.k.yXfX6Xp S K 5 `..X .<Xg.].OX.XXXXXXXXXXXXXXXXXXXXXXXXX",
"XXXXXXXXXXXXXXXXXXXXXXXXXXXXXXXXXXXXXXXXXXXX*Xw   y A a.a.@.o.W   O   q 0 8 c.z.O.!.*X|.XXXXXXXXXXXXXXXXXXXXXX",
"XXXXXXXXXXXXXXXXXXXXXXXXXXXXXXXXXXXXXXXXXXXX%Xw r X     8 R %.J.~ $ X n ; ) M M.m S.=X|.XXXXXXXXXXXXXXXXXXXXXX",
"XXXXXXXXXXXXXXXXXXXXXXXXXXXXXXXXXXXXXXXXXXXX=Xw W R $ X U ^ ! F.D.+.4 8XS E < m.m S.=XXXXXXXXXXXXXXXXXoXXXXXXX",
"XXXXXXXXXXXXXXXXXXXXXXXXXXXXXXXXXXXXXXXXXX$X^.5 R { R % - U R ' ^ g.S i.n ] 8 M p ~.*XXXXXXXXXXXXXXXXXXXXXXXXX",
"&XXXXXXXXXXXXXXXXXXXXXXXXXXXXXXXXXXXXX|..XkXp X 7 7 r =     7 ~ E _ 6 : % ; 7 | ~.*XXXXXXXXXXXXXXXXXXXXXXXXXXX",
"XXXXXXXXXXXXXXXXXXXXXXXXXXXXXXXXXXXXXXXX*X*.@.a       X     $ 6 & 5 % X N.Z.E.>X&X|.XXXXXXXXXXXXXXXXXXXXXXXXXX",
"XXXXXXXXXXXXXXXXXXXXXXXXXXXXXXXXXXXXXX|.=X` 6XX.6 U T T *   X.  A O.' (.&X=X$X|.XXXXXXXXXXXXXXXXXXXXXXXXXXXXXX",
"XXXXXXXXXXXXXXXX&XXXXXXXXXXXXXXXXX|.XXOX[.L uX=.T ] E ) R 6 >.  A L C.>X*XXX|.&XXXXXXXXXXXoXXXXXXXXXXXXXXXXXXX",
"XXXXXXXXXXXXXXXXXXXXXXXXXXXXXXXXXX&XXX*XY.0.xX%.T Q ( T R E U   o   } ).E.).$XXXXXXXXXXXXXXXXXXXXXXXXXXXXXXXXX",
"XXXXXXXXXXXXXXXXXXXXXXXXXXXXXXXXXXXXXX:X*.u.nX=.Y R Q { D.~ X X $ X + , j n '.oXXXXXXXXXXXXXXXXXXXXXXXXXXXXXXX",
"XXXXXXXXXXXXXXXXXXXXXXXXXXXXXXXXXX|.$XjXL yX5X) ! ~ U %.7X{     X . , C t.M o.oX|.XXXXXXXXXXXXXXXXXXXXXXXXXXXX",
"XXXXXXXXXXXXXXXXXXXXXXXXXXXXXXXXXXXX-XT.O.xXn / ! ^ H.J.H.! %   + s g c 9.9.g.,X.XXXXXXXXXXXXXXXXXXXXXXXXXXXXX",
"XXXXXXXXXXXXXXXXXXXXXXXXXXXXXXXXXXXX#X>.g.fX@.F.' H.K.W.#.5 $   : g j k G F 4XkX.XXXXXXXXXXXXXXXXXXXXXXXXXXXXX",
"XXXXXXXXXXXXXXXXXXXXXXXXXXXXXXXXXX*X/.a fXg.+ 6X7X7XQ.jXo.  o   . + F e.b j o.OX#XXXXXXXXXXXXXXXXXoXXXXXXXXXXX",
"XXXX$XXXXXXXXXXXXXXXXXXXXXXXXXXXXX*X(.p sXi.9 # 8XaXaX@.          . > H +     } -X|.XXXXXXXXXXXXXXXXXXXXXXXXXX",
"XXXXXXXXXXXXXXXXXXXXXXXXoXXXXXXXXXOX#XF.7 m g h f d s .   U ( ( w       6 i = | =X|.XXXXXXXXXXXXXXXXXXXXXXXXXX",
"XXXXXXXXXXXXXXXXXXXXXXXXXXXXXXXXXXXXOX#X .+ v H <.b f 9   ~.=X>XY.X o ( -.-.p [ =X|.XXXXXXXXXXXXXXXXXXXXXXXXXX",
"XXXXXXXXXXXXXXXXXXXXXXXXXXXXXXXXXXXX@X-XS.+ N 7.7.c < O   R.$X$XC.  = e q - ; } =XXXXXXXXXXXXXXXXXXXXXXXXXXXXX",
"XXXXXXXXXXXXXXXXXXXXXXXXXXXXoX#XXXXX#X-XV.: M 5.5.j <   } XXXX*XS.  o         } =X|.XXXXXXXXXXXXXXXXXXXXXXXXXX",
"XXXXXXXXXXXXXXXXXXXXXXXXXXXXXXXXXXXX|.%XA.> D 2.C , O . U.=X}.=XU.    X.=     ..*XXXXXXXXXXXXXXXXXXXXXXXXXXXXX",
"XXXXXXXXXXXXXXXXXXXXXXXXXXXXXXXXXXXX|.=XG.: M 9.M O   } *X|.XXXXB.    B e O P &X|.XXXXXXXXXXXXXXXXXXXXXXXXXXXX",
"oXXXXXXXXXXXXXXXXXXXXXXXXXXXXXXXXXXX*X;X[ . < K t   o U.%X|.$X^.  o         ( >XXXXXXXXXXXXXXXXXXXXXXXXXXXXXXX",
"XXXXXXXXXXXXXXXXXXXXXXXXXXXXXXXXXXXX}.'   - #     % U.=X|.|.*X^.        @   w N.~.$XXXXXXXXXXXXXXXXXXXXXXXXXXX",
"XXXXXXXXXXXXXXXXXXoXXXXXXXXXXXXXXX$X_.  * 2 @ O   I =X|.XXXX&X`.C.P     - 1X;.. A.-X}.XXXXXXXXXXXXXXXXXXXX&XXX",
"XXXXXXXXXXXXXXXXXXXXXXXXXXXXXXXXXX$X`.@ - p ;   p w *XXXXXXXXX&X=X].R.0   X.B   Z.*XXXXXXXXXXXXXXXXXXXXXXXXXXX",
"XXXXXXXXXXXXXXXXXXXXXXXXXXXXXXXXXXXXw O t A . ; = w %XXXXXXX&X|.}.&X*X`.~.!.^.(. XXXXXXXXXXXXXXXXXXXXXXXXXXXXX",
"XXXXXXXXXXXXXXXXXXXXXXXXXXXXXXXXXX}.%     m t   0 [ &X}.|.|.|.|.*X%X*X=X=X>X=X$XXXXXXXXXXXXXXXXXXXXXXXXXXXXXXX",
"XXXXXXXXXXXXXXXXXXXXXXXXXXXXXXXXXX}.*     .   X V.R.=X=X*X=X=X;XU.U.U.L.U.L./.%XXXXXXXXXXXXXXXXXXXXXXXXXXXXXXX",
"XXXXXXXXXXXXXXXXXXXXXXXXXXXXXXXXoX}.* =   - p e ; i V.N.N.N.V.[             6 ~.&XXXXXXXXXXXXXXXXXXXXXXXXXXXXX",
"XXXXXXXXXXXXXXXXXXXXXXXXXXXXXXXX|.&X2 =   e _ -.;.y                 O         } =X|.XXXXXXXXXXXXXXXXXXXXXXXXXX",
"XXXXXXXXXXoXXXXXXXXXXXXXXXXXXXXX*X[     & - @ q e @ o                 B.R.U.U._.$XXXXXXXXXXXXXXXXXXXXXXXXXXXXX",
"XXXXXXXXXXXXXXXXXXXXXXXXXXXXXXXX*X0       O O     o   [ `.~./.~.~.~.~.&X=X*X*X$XXXXXXXXXXXXXXXXXXXXXXXXXXXXXXX"
};
