/* XPM */
static char *player24[] = {
/* columns rows colors chars-per-pixel */
"55 55 227 2 ",
"   c #010001",
".  c #0D0A02",
"X  c #02020D",
"o  c #080808",
"O  c #140B00",
"+  c #170808",
"@  c #0D120D",
"#  c #11100C",
"$  c #15180B",
"%  c #0E0D14",
"&  c #060615",
"*  c #100A15",
"=  c #0C1317",
"-  c #131514",
";  c #13151A",
":  c #1C1C1C",
">  c #171A15",
",  c #260503",
"<  c #291609",
"1  c #381604",
"2  c #261B15",
"3  c #36100D",
"4  c #19221C",
"5  c #2B2319",
"6  c #25271A",
"7  c #332218",
"8  c #3E3A1C",
"9  c #2D330E",
"0  c #131729",
"q  c #101031",
"w  c #0C1F3A",
"e  c #221F35",
"r  c #1A2527",
"t  c #1A2C36",
"y  c #152937",
"u  c #2A2C2B",
"i  c #2B2825",
"p  c #352D26",
"a  c #393727",
"s  c #242B3C",
"d  c #2A3234",
"f  c #293638",
"g  c #373236",
"h  c #461805",
"j  c #571C02",
"k  c #5A2705",
"l  c #4C2412",
"z  c #44381E",
"x  c #532F12",
"c  c #693A1B",
"v  c #723816",
"b  c #632E0D",
"n  c #4D3325",
"m  c #533725",
"M  c #453A37",
"N  c #503B3B",
"B  c #34403F",
"V  c #77411A",
"C  c #58532B",
"Z  c #4C4B3D",
"A  c #484439",
"S  c #564A36",
"D  c #565438",
"F  c #5C4C2B",
"G  c #664526",
"H  c #7B4424",
"J  c #645838",
"K  c #765437",
"L  c #6C4A36",
"P  c #776A3E",
"I  c #6D6D30",
"U  c #554B17",
"Y  c #19364A",
"T  c #1D3E52",
"R  c #302B40",
"E  c #253945",
"W  c #323645",
"Q  c #263B54",
"!  c #343652",
"~  c #243C61",
"^  c #1E4253",
"/  c #3B4748",
"(  c #214154",
")  c #254259",
"_  c #3C4258",
"`  c #3C5154",
"'  c #3C5766",
"]  c #265472",
"[  c #295B75",
"{  c #355E73",
"}  c #2F4E69",
"|  c #30617A",
" . c #484647",
".. c #5A4B46",
"X. c #595846",
"o. c #474A55",
"O. c #504F5E",
"+. c #495654",
"@. c #53595A",
"#. c #665647",
"$. c #675958",
"%. c #54615D",
"&. c #7D684B",
"*. c #69665C",
"=. c #796B5A",
"-. c #6C6B54",
";. c #49577D",
":. c #4D5169",
">. c #586766",
",. c #5F7275",
"<. c #4A6672",
"1. c #6E706B",
"2. c #787877",
"3. c #70706B",
"4. c #8A4C1E",
"5. c #834F2A",
"6. c #875629",
"7. c #875935",
"8. c #915933",
"9. c #96663A",
"0. c #896A3B",
"q. c #A16639",
"w. c #866349",
"e. c #9B6945",
"r. c #966843",
"t. c #877455",
"y. c #9A7358",
"u. c #936C4F",
"i. c #A56D47",
"p. c #AB7649",
"a. c #B27B51",
"s. c #957B64",
"d. c #7E8674",
"f. c #8A8749",
"g. c #89885C",
"h. c #90905E",
"j. c #938F5A",
"k. c #B5835B",
"l. c #A48F59",
"z. c #979769",
"x. c #8F8B6C",
"c. c #BB8962",
"v. c #A49D60",
"b. c #ADAA71",
"n. c #C79459",
"m. c #D0995E",
"M. c #C18C64",
"N. c #C79A64",
"B. c #D7A878",
"V. c #C4BA7A",
"C. c #D3B378",
"Z. c #D7BD6C",
"A. c #E1AB79",
"S. c #316687",
"D. c #3A7599",
"F. c #316B8E",
"G. c #3B7DA6",
"H. c #56588D",
"J. c #5A7687",
"K. c #5B6695",
"L. c #447E96",
"P. c #5D658A",
"I. c #6A6D8B",
"U. c #45819D",
"Y. c #63919C",
"T. c #738A97",
"R. c #468EBB",
"E. c #4C8BAD",
"W. c #7F8AAF",
"Q. c #5197C1",
"!. c #53A0C8",
"~. c #4DA2D5",
"^. c #54A9DA",
"/. c #6BAFCE",
"(. c #7FB3CE",
"). c #54ADE3",
"_. c #59B6ED",
"`. c #5AB8EF",
"'. c #53B5EC",
"]. c #4FB6F3",
"[. c #57B9F3",
"{. c #5CBCF4",
"}. c #5DBFF8",
"|. c #54B9F5",
" X c #64BCEC",
".X c #63BEF3",
"XX c #5DC3FC",
"oX c #5EC9FF",
"OX c #61C5FD",
"+X c #63CAFF",
"@X c #6BCDFF",
"#X c #6AC3F5",
"$X c #77C9F6",
"%X c #66D4FF",
"&X c #68D2FF",
"*X c #73D8FF",
"=X c #74D7FF",
"-X c #66C1ED",
";X c #969687",
":X c #8B9190",
">X c #B49E85",
",X c #9FAA93",
"<X c #B0A685",
"1X c #BDB38F",
"2X c #8087AD",
"3X c #B5BDA9",
"4X c #CDB482",
"5X c #EFB785",
"6X c #D0C190",
"7X c #C9C48E",
"8X c #C6C8A9",
"9X c #C8D3A0",
"0X c #EADEAF",
"qX c #FCF9B8",
"wX c #E6E3AC",
"eX c #9EACD0",
"rX c #A0AECF",
"tX c #B4BFD2",
"yX c #BEC4C8",
"uX c #8BD6FD",
"iX c #8DCBEA",
"pX c #A1E3FF",
"aX c #D6D8C7",
"sX c #E8E5C8",
"dX c #FFFFCB",
"fX c #FEFDC4",
"gX c #FCF4D0",
/* pixels */
"{.{.{.{.{.{.{.{.{.{.{.{.{.{.{.{.{.{.{.{.{.{.{.{.{.{..X{.{.{.{.{.{.{.{.{.{.{.{.{.{.{.{.{.{.{.{.{.{.{.{.{.{.{.{.",
"{.{.{.{.{.{.{.{.{.{.{.{.{.{.{.{.{.{.{.{.{.{.{.{.`.{.`.{.{.{.{.{.{.{.{.{.{.{.{.{.{.{.{.{.{.{.{.{.{.{.{.{.{.{.{.",
"{.{.{.{.{.{.{.{.{.{.{.{.{.}.{.{.{.{.{.{.{.{.{.|.XXXXoX+X{.{.{.{.{.{.{.{.{.{.{.{.{.{.{.{.{.{.{.{.{.{.{.}.{.{.{.",
"{.{.{.{.{.{.{.{.{.{.{.{.{.{.{.{.{.{.{.{.{.{.OXuXJ.,.,.<.(.@X`.{.{.{.{.{.{.{.{.{.{.{.{.{.{.{.{.{.{.{.{.{.{.{.{.",
"{.{.{.{.{.{.{.{.{.{.{.{.{.{.{.{.{.{.{.{.{.OXJ.w.M.a.4.i.s.>. X|.{.{.{.{.{.{.{.{.{.{.{.{.{.{.{.{.{.{.{.{.{.{.{.",
"{.{.{.{.{.{.{.{.{.{.{.{.{.{.{.{.{.{.{.|.uX;Xy.v 5.p.8.9.i.M.#.iX{.{.{.{.{.{.{.{.{.{.{.{.{.{.{.{.{.{.{.{.{.{.{.",
"{.{.{.{.{.{.{.{.{.{.{.{.}.{.{.{.{.{.OX#XT.4Xc.4.v a.u.5.q.e.k #.OX{.{.{.{.{.{.{.{.{.{.{.{.{.{.{.{.{.{.{.{.{.{.",
"{.{.{.{.{.{.{.{.{.{.{.{.{.{.{.{.{.}. X>Xn.c.6.N.A.i.r.9.B.H v N oX{.{.{.{.{.{.{.{.{.{.{.{.{.{.{.{.}.{.{.{.{.{.",
"{.{.{.{.{.{.{.{.{.{.{.{.{.{.{.{.`.XX).2.p.4.B.i.n.i.n.6.V c p.w.R.#X.X{.{.{.{.{.{.{.{.{.{.{.{.{.{.{.{.{.{.{.{.",
"{.{.{.{.{.{.{.{.{.{.{.{.{.{.{.{.{.[.XX-X..p.a.h 9.B.V m.c r.H 7.( +X{.{.{.{.{.{.{.{.{.{.{.{.{.{.{.{.{.{.{.{.{.",
"{.{.{.{.}.{.{.{.{.{.{.{.{.{.{.{.{.XX`.+XY.h l L m p.p.8.7.7.a.3 ( +X`.{.{.{.{.{.{.{.{.{.{.{.{.{.{.{.{.{.{.{.{.",
"{.{.}.{.{.{.{.{.{.{.{.{.{.{.{.{.`.`.{.{.|.' , 2 + 6.k.1 m l i.j Q OX`.{.{.{.{.{.{.{.{.{.{.{.{.{.{.{.{.{.{.{.{.",
"{.{.{.{.{.{.{.{.{.{.{.{.{.}.{.{.XX{.{.`.%X{ y.,.:Xb k K m 1 c b <.*X{.{.XX{.{.{.{.{.{.{.{.{.{.{.{.{.{.{.{.{.{.",
"{.{.{.{.{.{.{.{.{.{.{.{.{.{.{.{.`.{.`.XX). .4XyX8Xv j w.N   h W '.G.).XX`.{.{.{.{.{.{.{.{.{.{.{.{.{.{.{.{.{.{.",
"{.{.{.{.{.{.{.{.{.{.{.{.{.{.{.{.{.{.`.+XR.z C.fXB.e.h +   O 7 :XJ.< F.+X`.{.{.{.{.{.{.{.{.{.{.{.{.{.{.{.{.{.{.",
"{.{.{.{.{.{.{.{.{.{.{.{.{.{.{.{.{.{.{.`.OX!.$.5Xc.2 7 g.3.C U $.5 2.!.XX{.{.{.{.{.{.{.{.{.{.{.{.{.{.{.{.{.{.}.",
"{.{.{.{.{.{.{.{.{.{.{.{.{.{.{.{.{.{.{.{.].=X_ k n I.8XdXfX0XP a S { *X_.{.{.{.{.{.{.{.{.{.{.{.{.{.{.{.{.{.{.}.",
"{.{.{.{.{.{.{.{.{.{.{.{.{.{.{.{.{.{.{.[.$X,XC $ X s.9Xb.qXdX1X< ` '.{.{.{.{.{.{.{.{.{.{.{.{.{.{.{.{.{.{.{.{.{.",
"{.{.{.{.{.{.{.{.{.{.{.{.{.{.{.{.{.{.`.XXY.Z.*.Q / l.z.3X6XdX7X  ] +X{.{.{.{.{.{.{.{.{.{.{.{.{.{.{.{.{.{.{.{.{.",
"}.{.{.{.{.{.{.{.{.{.{.{.{.{.{.{.{.{.{.+XL.t.o.o wXf.d.,X7XdXg.r ~.{.{.{.{.{.{.{.{.{.{.{.{.{.{.{.{.{.{.{.{.{.{.",
"{.{.{.{.{.{.{.{.{.{.{.{.{.{.{.{.{.{.`.+XU.8 2 t.7Xz.$ C v.z.J C T OX`.{.{.{.{.{.{.{.{.{.{.{.{.{.{.{.{.{.{.{.{.",
"{.{.{.{.{.{.{.{.{.{.{.{.{.{.{.{.{.{.`.OXL.F u h.h.  z b.b.V.qX<XT +X`.{.{.{.{.{.{.{.{.{.{.{.{.{.{.{.{.{.{.{.{.",
"{.{.{.{.{.{.{.{.{.{.{.{.{.{.{.{.{.{.{.XX^.Y   p j.*.2 7XgXaX..5 ) +X{.{.{.{.{.{.{.{.{.{.{.{.{.{.{.{.{.{.{.{.{.",
"{.{.{.{.{.}.{.{.{.{.{.{.{.{.{.{.{.{.{.`.%X[ :.! o.:.o.$ i u R * ^ +X`.{.{.{.{.{.{.{.{.{.{.{.{.XX{.{.{.{.{.{.{.",
"{.{.{.{.{.{.{.{.{.{.{.{.{.{.{.{.{.{.{._.+X] o.u -.0 X   ; ! 2X! Y {.{.{.{.{.{.{.{.{.{.{.{.{.{.{.{.}.{.{.{.{.{.",
"{.{.{.{.{.{.{.{.{.{.{.{.{.{.{.{.{.{.{.{. X{ + - z.I Z 6 = } H.2X  | +X`.{.{.{.{.{.{.{.{.{.{.{.{.{.{.{.{.{.{.{.",
"{.{.{.{.{.{.{.{.{.{.{.{.{.{.{.{.{.{.`.+XD.P D   =.sX1XD Q H.2XT.  | +X`.{.{.{.{.{.{.{.{.{.{.{.{.{.{.{.{.{.{.{.",
"{.{.{.{.{.{.{.}.{.{.{.{.{.{.{.{.{.{.`.%XS.Z ;X> g.1.X X 0 ,X_ 0   [ +X`.{.{.{.{.{.{.{.{.}.{.{.{.{.{.{.{.{.{.{.",
"{.{.{.{.{.{.{.{.{.{.{.{.{.{.{.{.{.{.{.oXD.   .>   = P.R X a ;XN w /.$X{.{.{.{.{.{.{.{.{.{.{.{.{.{.{.{.{.{.{.{.",
"{.{.{.{.{.{.{.{.{.{.{.{.{.{.{.{.{.{.`.+XF.L A   . 0 ;.s   x.=.3 ) =X X{.{.{.{.{.{.{.{.{.{.{.{.{.{.{.{.}.{.{.{.",
"{.{.{.{.{.{.{.{.{.{.{.{.{.{.{.{.{.{.`.%XS.0.#.  Z q ! ; # g <X=.T oX{.{.}.{.{.{.{.{.{.{.{.{.{.{.{.{.{.{.{.{.{.",
"{.{.{.{.{.{.{.{.{.{.{.{.{.{.{.{.{.{.{.+XG.J a & *.%   C x.H.E > ^ OX{.{.{.{.{.{.{.{.{.{.{.{.{.{.{.{.{.{.{.{.{.",
"{.{.{.}.{.{.{.{.{.{.{.{.{.{.{.{.{.{.{.`.+XU.% & 1.* & h.J q K.s ^ +X.X{.{.{.{.{.{.{.{.{.{.{.{.{.{.{.{.{.{.{.{.",
"{.{.{.{.{.{.{.{.{.{.{.{.{.{.{.{.{.{.{.{.[.%X)   f ; ~  .&.&.M O ^ +X{.{.{.{.{.{.{.{.{.{.{.{.{.{.{.{.{.{.{.{.{.",
"{.{.{.{.{.{.{.{.{.{.{.{.{.{.{.{.{.{.{.{.{.@XQ   X w H.! 5 f.z O ^ oX`.{.{.{.{.{.{.{.{.{.{.{.{.{.{.{.{.{.{.{.{.",
"{.{.{.{.{.{.{.}.{.{.{.{.{.{.}.{.{.{.{.{.`.@X)   o :.rX2XI.2.x.r ~.iX$X[.{.{.{.{.{.{.{.{.{.{.{.{.{.{.{.{.{.{.{.",
"{.{.{.{.{.{.{.{.{.{.{.{.{.{.{.{.{.{.{.`.].pXX.  @ O.eXyXaXaXi Y oX{.{.{.{.{.{.{.{.{.{.{.{.{.{.{.{.{.{.}.{.{.{.",
"{.{.{.{.{.{.{.{.{.{.{.{.{.{.{.{.{.{.{.XX].uX+.  N #...aXX.X = _.{..X.X{.{.{.{.{.{.{.{.{.{.{.{.{.{.{.{.{.{.{.{.",
"{.{.{.{.{.{.{.{.{.{.{.{.{.{.{.{.{.{.{.{.`.oX^ . < p.7., 2 $ 0 `.|.#X#X{.{.{.{.{.{.{.{.{.{.XX{.{.{.{.{.{.{.{.{.",
"{.{.{.{.{.{.{.{.{.{.{.{.{.{.{.{.{.{.{.{.{.XXG.6 7 G 9.i.x n r |.{.{.{.{.{.{.{.{.{.{.{.{.{.{.{.{.{.{.{.{.{.{.{.",
"{.{.{.{.{.{.{.{.{.{.{.{.{.{.{.{.{.{.{.{.{.{.@Xd 9   m e.H 1 + Y.#X{.{.{.{.{.{.{.{.{.{.{.{.{.{.{.{.{.}.{.{.{.{.",
"{.{.{.{.{.{.{.{.{.{.{.{.{.{.{.{.{.{.{.{.{.{.OXy .   5 n + ..+ d OX.X{.{.{.{.{.{.{.{.{.{.{.{.{.{.{.{.{.{.{.{.{.",
"{.{.{.{.}.{.{.{.{.{.{.{.{.{.{.{.{.{.{.{.{.{.{.y   o   A i #.*.  } +X`.{.{.{.{.{.{.{.{.{.{.{.{.{.{.{.{.{.{.{.{.",
"{.{.{.{.{.{.{.{.{.}.{.{.{.{.{.{.{.{.{.{.`.+XT # o   g  .# > 4 . T +X{.{.{.{.{.XX{.{.{.{.{.{.{.{.{.{.{.{.{.{.{.",
"{.{.{.{.{.{.{.{.{.{.{.{.{.{.{.{.{.{.{.{.{.oXS.+./   - +.>.>.%.. ( +X`.{.{.{.{.{.{.{.{.{.{.{.{.{.{.{.{.{.{.{.{.",
"{.{.{.{.{.{.{.{.{.{.{.{.{.{.{.{.{.{.{.{.{.`.+X:.6 - : d ,.>.>.@ ( +X{.{.{.{.{.{.{.{.{.{.{.{.{.{.{.{.{.{.{.{.{.",
"{.{.{.{.{.{.{.{.{.{.{.{.{.{.{.{.{.{.{.{.{.{.}.t p > : ; / f f   ^ +X`.{.{.{.{.{.{.{.{.{.{.{.{.{.{.{.{.{.{.{.{.",
"{.{.{.{.{.{.{.{.{.{.}.{.{.{.{.{.{.{.{.{.{.`.OXt 2   4 u     @ i T +X`.{.{.{.{.{.{.{.{.{.{.{.{.{.{.{.{.{.{.{.{.",
"{.{.{.{.{.{.{.{.{.{.{.{.{.{.{.{.{.{.{.{.{.}.oXy     u @.+.<.` E ~.XX{.{.{.{.{.{.{.{.{.{.{.{.{.{.{.{.{.{.{.{.{.",
"{.{.{.{.{.{.{.{.{.{.}.{.{.{.{.{.{.{.{.{.{.^.^.E @   u  .7 +.>.p } +X_.{.{.{.{.{.{.{.{.{.{.{.{.{.{.{.{.{.{.{.{.",
"{.}.{.{.{.{.{.{.{.{.{.{.{.{.{.{.{.{.{.{.%X] i @. .o ; =.L 7 Z 2 T +X{.{.{.{.{.{.{.{.{.{.{.{.{.{.{.{.{.{.{.{.{.",
"{.{.{.{.{.{.{.{.{.{.{.{.{.{.{.{.{.{.{.{.OXR.;   % @   2 S A #  .D.XX{.{.{.{.{.{.{.{.{.{.{.{.{.{.{.{.{.{.{.{.{.",
"{.{.{.{.{.{.{.{.{.{.{.{.{.{.{.{.{.{.{.{.`.+XR.S.@     ; d d d t +X{.{.{.{.{.{.{.{.{.{.{.{.{.{.{.{.{.{.{.{.{.{.",
"{.}.{.{.{.{.{.{.{.{.{.{.{.{.{.{.{.{.{.{.{.`.XX&XU.u d.+.,.,.@.t XX{.{.{.{.{.{.{.{.{.{.{.{.{.{.{.}..X{.{.{.{.{.",
"{.{.{.{.{.{.{.{.{.{.{.{.{.{.{.{.{.{.XX`.`.{.`.{.^.@ f 4 @ 4 f !.{.{.{.{.{.{.{.{.{.{.{.{.{.{.{.{.{.{.{.{.{.{.{."
};
