/* XPM */
static char *player1[] = {
/* columns rows colors chars-per-pixel */
"55 55 244 2 ",
"   c #010101",
".  c #0B0402",
"X  c #0C0A05",
"o  c #02020A",
"O  c #090908",
"+  c #06090A",
"@  c #160703",
"#  c #0C130E",
"$  c #18130D",
"%  c #000111",
"&  c #09081A",
"*  c #160C15",
"=  c #0C1615",
"-  c #141A1A",
";  c #191915",
":  c #230B06",
">  c #251916",
",  c #351A16",
"<  c #311203",
"1  c #1A201C",
"2  c #0F291B",
"3  c #26241A",
"4  c #38261C",
"5  c #322C10",
"6  c #171827",
"7  c #12122E",
"8  c #241E25",
"9  c #361D22",
"0  c #192527",
"q  c #1A2630",
"w  c #102836",
"e  c #262627",
"r  c #362B25",
"t  c #35342B",
"y  c #373727",
"u  c #262738",
"i  c #293638",
"p  c #373A38",
"a  c #293125",
"s  c #4B1A03",
"d  c #53281B",
"f  c #563418",
"g  c #4D3410",
"h  c #673916",
"j  c #773A14",
"k  c #692E09",
"l  c #493528",
"z  c #433B35",
"x  c #563A36",
"c  c #503329",
"v  c #6C3C2C",
"b  c #39433F",
"n  c #4A4617",
"m  c #794116",
"M  c #594629",
"N  c #494839",
"B  c #525030",
"V  c #764B2A",
"C  c #664A33",
"Z  c #77553A",
"A  c #6B512F",
"S  c #5C612C",
"D  c #6B6537",
"F  c #7D6D3D",
"G  c #1A354C",
"H  c #252846",
"J  c #2A3943",
"K  c #363945",
"L  c #383B5B",
"P  c #322658",
"I  c #24185D",
"U  c #423C4D",
"Y  c #1D4052",
"T  c #3C4946",
"R  c #264659",
"E  c #3C4756",
"W  c #334B4B",
"Q  c #1B4866",
"!  c #3A4974",
"~  c #2B5774",
"^  c #35556C",
"/  c #386578",
"(  c #3E6067",
")  c #464747",
"_  c #574A43",
"`  c #484959",
"'  c #485457",
"]  c #565657",
"[  c #545746",
"{  c #674B49",
"}  c #685647",
"|  c #755C49",
" . c #635856",
".. c #496159",
"X. c #52605C",
"o. c #676349",
"O. c #7A6942",
"+. c #78764B",
"@. c #746C55",
"#. c #454A69",
"$. c #485669",
"%. c #535968",
"&. c #495373",
"*. c #575877",
"=. c #494174",
"-. c #635F62",
";. c #48616A",
":. c #586568",
">. c #5A6775",
",. c #597278",
"<. c #56736B",
"1. c #636968",
"2. c #76766B",
"3. c #657675",
"4. c #71706C",
"5. c #864722",
"6. c #8B5A36",
"7. c #915331",
"8. c #936937",
"9. c #A66D39",
"0. c #936744",
"q. c #8E7351",
"w. c #A9724E",
"e. c #837969",
"r. c #70837A",
"t. c #928956",
"y. c #AE9355",
"u. c #968768",
"i. c #999868",
"p. c #888175",
"a. c #8C9072",
"s. c #989678",
"d. c #898A6C",
"f. c #B2926C",
"g. c #B1A970",
"h. c #B8A158",
"j. c #C59956",
"k. c #C78254",
"l. c #CD9867",
"z. c #D29A68",
"x. c #D0AB70",
"c. c #E1BE7B",
"v. c #E7C15F",
"b. c #E2C678",
"n. c #2A5E80",
"m. c #3C6485",
"M. c #346C92",
"N. c #37789C",
"B. c #347196",
"V. c #377AA1",
"C. c #4C5982",
"Z. c #5B5D84",
"A. c #505D87",
"S. c #466C86",
"D. c #596285",
"F. c #4C7287",
"G. c #4D7395",
"H. c #64698A",
"J. c #687298",
"K. c #6F7290",
"L. c #6F7EA2",
"P. c #817C89",
"I. c #3D82A8",
"U. c #3D87B6",
"Y. c #768B88",
"T. c #72908D",
"R. c #4786A9",
"E. c #478EB9",
"W. c #7F84A6",
"Q. c #78A08F",
"!. c #3E8BC2",
"~. c #4A98C5",
"^. c #5499C5",
"/. c #4C9ED1",
"(. c #52A7DB",
"). c #5DB3DE",
"_. c #54A3CF",
"`. c #68AFD9",
"'. c #5AB5EC",
"]. c #5BB8EF",
"[. c #56B4E7",
"{. c #56B9F4",
"}. c #5CBCF4",
"|. c #5CBEF8",
" X c #53B7F4",
".X c #51AEE2",
"XX c #64B7E9",
"oX c #63BEF3",
"OX c #5DC3FD",
"+X c #5DC7FF",
"@X c #65C0F4",
"#X c #61C5FE",
"$X c #64CBFF",
"%X c #69C9FE",
"&X c #6BC4F4",
"*X c #74CAF6",
"=X c #65D1FF",
"-X c #6BD5FF",
";X c #76C9F3",
":X c #959883",
">X c #899393",
",X c #A69D88",
"<X c #AA999E",
"1X c #9DA297",
"2X c #AEAF91",
"3X c #9095AE",
"4X c #8CAFAC",
"5X c #BFAEB8",
"6X c #CCB692",
"7X c #E6B887",
"8X c #E2A687",
"9X c #9FC7BB",
"0X c #BCC8B5",
"qX c #C9C697",
"wX c #D8CB98",
"eX c #D3C68F",
"rX c #F7D59C",
"tX c #E9CA89",
"yX c #FFE596",
"uX c #CCC9B6",
"iX c #D9D4B3",
"pX c #FBF8BD",
"aX c #EFE8BE",
"sX c #ECDFA4",
"dX c #9498C7",
"fX c #9AA9CA",
"gX c #95AFCC",
"hX c #A2ACD6",
"jX c #ACB7CB",
"kX c #A2AAE0",
"lX c #A9B7E9",
"zX c #CBBEC4",
"xX c #87CBE9",
"cX c #82CCF1",
"vX c #84DBFF",
"bX c #94DDFD",
"nX c #97CFE5",
"mX c #94E4FF",
"MX c #A4C5CB",
"NX c #DDD8CA",
"BX c #EAE5C3",
"VX c #FAF6C3",
"CX c #F3FAFC",
"ZX c #E7D9C1",
/* pixels */
"}.}.}.}.}.}.}.}.}.}.}.}.}.}.}.}.}.}.oX}.}.}.}.}.}.}.}.}.}.}.}.}.}.}.}.}.}.}.}.}.}.}.}.}.}.}.}.}.}.}.}.}.}.|.}.",
"}.}.}.}.}.}.}.}.}.}.}.}.}.}.}.}.}.}.}.|.}.}.}.}.}.}.}.{.}.].}.}.}.}.}.}.}.}.}.}.}.}.}.}.}.}.}.}.}.}.}.}.}.}.}.",
"}.}.}.}.}.}.}.}.}.}.|.}.}.}.}.}.}.}.}.}.}.}.}.}.].}.+X*X+XOX}.}.}.}.|.}.}.}.}.}.}.}.}.}.}.}.}.}.}.}.}.}.}.}.}.",
"}.}.}.}.}.}.}.}.}.}.}.}.}.}.}.}.}.}.}.}.}.}.}.].+XXX,.u.,.,.oX#X}.}.}.}.}.}.}.}.}.}.}.}.}.}.}.}.}.}.}.}.}.}.}.",
"}.}.}.}.}.}.}.}.}.}.}.}.}.}.}.}.}.}.}.}.}.}.OX@X>.{ w.7.j 8.] H.#X}.}.}.}.}.}.}.}.}.}.}.}.}.}.}.}.}.}.}.}.}.}.",
"}.}.}.}.}.}.}.}.}.}.}.}.}.}.}.}.}.}.}.}.}.}.oX1.k j 8.z.8.j j h 3.oX].}.}.}.}.}.}.}.}.}.}.}.}.}.}.}.}.}.}.}.}.",
"}.}.}.}.}.}.}.}.}.}.}.}.}.}.}.}.}.}.}.}.].$X;.s w.z.z.0.V k k.z.k G.$X].@X}.].}.}.}.}.}.}.}.}.}.}.}.}.}.}.}.}.",
"}.|.}.}.}.}.}.}.}.}.}.}.}.}.}.}.}.}.}.}.%X).x q.f.j 5.d 0.w.7.j.h.>.XX@X;X@XxX&XOX|.}.}.}.}.}.}.}.}.}.}.}.}.}.",
"}.}.}.}.}.}.}.}.}.}.}.}.}.}.}.}.}.}.}.OX(.| k.w.f 8.Z 0.8.9.c.0.w.5.F.+X{.}.*XnXR.'.OX}.}.}.}.}.}.}.|.}.}.}.}.",
"}.}.}.}.}.}.}.}.}.}.}.}.}.}.}.}.}.}.}.OX_. .w.5.j.z.6.l.c.y.9.x.w.: V.vX].;XnXD.u.`.}.}.}.}.}.}.}.}.}.}.}.}.}.",
"}.}.}.}.}.}.}.}.OX}.}.}.}.}.}.}.}.}.}.].*XS.@ x.z.v 9.w.x tX7.j 8XA r.3X'.XX5Xr.8 _.OX].}.}.}.OX}.}.}.}.}.}.|.",
"}.}.}.}.}.}.}.}.}.}.}.}.}.}.}.}.}.}.}. XbX4.Z 8.s > Z 5.d o.d : m f 4 a.H.E 1X$ ~ oX}.}.}.}.}.}.}.}.}.}.}.}.}.",
"}.}.}.}.}.}.}.}.}.}.}.}.}.}.}.}.}.}.].#XN.c 6.k d >X_ f.y.U L.5.q.* <XT i.%.O n.%X@X}.}.}.}.}.}.}.}.}.}.}.}.}.",
"}.}.}.}.}.}.}.}.}.}.}.}.}.}.}.}.oX}.].%XB.X $ 6.0.ZX,XrXrX,XiX7.| >X4.. *.:Xi [.@X].|.}.}.}.}.}.}.}.}.}.}.}.}.",
"}.}.}.}.}.}.}.}.}.}.}.}.}.}.}.}.&X&X{.%XgX1.u   C v.yX7XtXyXx.v a.4.f.q.  ] +.J ).%X].}.}.}.}.}.}.}.}.}.}.}.}.",
"}.}.}.}.}.|.}.}.}.}.}.}.}.}.}.}.}.}.{.XX6XZXN . H { rXc.eXb.z %.B M l.h.o.  D t.J /.OX}.}.}.}.}.}.}.}.}.}.}.}.",
"}.}.}.}.}.}.}.}.}.}.}.}.}.}.}.}.}.}.xX:X6X6Xr.# ' #.| tXtXV &.! ; a.eXx.i.0 ~ 5 ^ (.@X}.}.}.}.}.}.}.}.}.}.}.}.",
"}.}.}.}.}.}.}.}.}.}.}.}.}.}.}.}.}.;X2XsXaXpXh.$ # &.#.d d &.E % r g.pXpXiXr.oXU.).#X}.}.}.}.}.}.}.}.}.}.}.}.}.",
"}.}.}.}.}.}.}.}.}.}.}.}.}.}.}.}.OX..g.qXs.S i.6XqXb 7 Z M w ) wX2Xy.S :XwXg.:.=X;X&X{.}.}.}.}.}.}.}.}.}.}.}.}.",
"}.}.}.}.}.}.}.}.}.}.}.}.}.}.}.}.OXi g.,XCX2XF l ,XY.& B z = :Xa.y +.0XCXi.y.G $X].}.}.}.}.}.}.}.}.}.}.}.}.}.}.",
"}.}.}.}.}.}.}.}.}.}.}.}.}.}.}.}.+Xi F D >X2XpXp * p uXe z NX6 & [ pX1X2.D O.Y =X].}.}.}.}.}.}.}.}.}.OX}.}.}.}.",
"}.}.}.}.}.}.}.}.}.}.}.}.}.}.}.OXN.2.D 5 M @.[ 1.K t uXt ) uX; ` :.} +.n n O.3.R.#X}.}.}.}.}.}.}.}.}.}.}.}.}.}.",
"}.}.}.}.}.}.}.}.}.}.}.}.}.}.].%XG s.aXqXVX2.  L H 3X2.H q a.K.H p   ,XaXqXaX2.Q $X].}.}.}.}.}.}.}.}.}.}.}.}.}.",
"}.}.}.}.}.}.}.}.}.}.}.}.}.}.}.}..Xq y N p $ + o 6 p 8 K.Z.u K 6   + ; p N 4 J {.}.}.}.}.}.}.}.}.}.}.}.}.}.}.}.",
"}.}.}.}.}.}.}.}.}.}.}.}.}.}.}.}.}.! * >.q + o u Z.H a B B B T Z.q   o J %.o A.OX}.}.}.}.}.}.}.}.}.}.}.}.}.}.}.",
"}.}.}.}.}.}.}.|.}.}.}.}.}.}.}.+Xm.3XA.#.& y 5   & t y.y N t.3     > L H ^ J.P.B.#X}.}.}.}.}.}.}.}.}.}.}.}.}.}.",
"}.}.}.}.}.}.}.}.}.}.}.}.}.}. X+Xm.W.lXC.E ; D - 6 n e. . .+.y u   >X3X! A.lXK.G.%X}.}.}.}.}.}.OX}.}.}.}.}.}.}.",
"}.}.}.}.}.}.}.}.}.}.}.}.}.&XcXOX^ 7 %.3Xe B ) & K.#.U iXqXp *.K.o ) ` u <X#.7 m.$X].}.}.}.}.}.}.}.}.}.}.}.}.}.",
"}.}.}.}.}.}.}.}.}.}.}.}.}.@XnXvXG n i.r ; N X u Z.hXH 3 ; L hX$.u       ) i.5 ~ $X'.}.}.}.}.}.}.}.}.}.}.}.}.}.",
"}.OX}.}.}.}.}.}.}.}.}.}.}.{.].%XY.y o.r.  X o $.! J.q   o J J.! `   o . :XN n T.OX}.}.}.}.}.}.}.}.}.}.}.}.}.}.",
"}.}.}.}.}.}.}.}.}.}.}.}.}.}.#X%XY P E a $ . o $.&.!   ` J o $.C.!   . * a E u / %X].}.}.}.}.}.}.}.}.}.}.}.}.}.",
"}.}.}.}.}.}.}.}.}.}.}.}.}. XnX} . u u %.d.B   $.3XL   ` K   ` dXL   D d.*.H + :.bX X}.}.}.}.}.}.}.}.}.}.}.}.}.",
"}.}.}.}.}.}.}.}.}.}.|.}.}.$XN.. S ] H.6 o.e.% K.fX%.  e 0   :.hXD.  y.N I H.b V.+X}.}.}.}.}.}.}.}.}.}.}.}.}.}.",
"}.}.}.}.}.}.}.}.}.}.}.}.].$XM.g tXl 9 6.F z H.lXfX#.  . o o *.hXhX*.N F +.3 G mXxX{.}.}.}.}.}.}.}.}.}.}.}.}.}.",
"}.}.}.}.}.oX}.}.}.}.}.}.].OXR.| } F.E.4X5 u fXhXfX#.o     % Z.fXhXdX6 A t.4 !.cX;X{.}.}.}.}.}.}.}.}.}.}.}.}.}.",
"}.}.}.}.}.}.}.}.}.}.}.}.}.|.XX`.E.'.-X XY ) NXjXgX$.X : $ & D.jXMXiXl F.^.`.#X X}.}.}.}.}.}.}.}.}.}.}.}.}.}.}.",
"}.}.}.}.}.}.}.}.}.}.}.}.}.}.|.|.#X}.[.$XN.. > 2XBXe.. X X X s.BX,X; X ~.$X{.}.}.}.}.}.}.}.}.}.}.}.}.}.}.}.}.}.",
"}.}.}.}.}.}.}.}.}.}.}.}.}.}.}.}.}.}.}.#XE.& . c , $ : : $ > @ 4 l . = ~.OX}.}.}.}.}.}.OX}.}.}.}.}.}.}.}.}.}.}.",
"}.}.}.}.}.}.}.}.}.}.}.}.}.}.}.}.}.}.}.].$X~ d 7.5.d , & & 9 V m V p ~.#X].}.}.}.}.}.}.}.}.}.}.}.}.}.}.OX}.}.}.",
"}.}.}.}.}.}.}.}.}.}.}.}.}.}.}.}.}.}.}.}.=X^ f w.0.C < @ < f 5.6.h F.$X].}.}.}.}.}.}.}.}.}.}.}.}.}.}.}.}.}.}.}.",
"}.}.}.}.}.}.}.}.}.}.}.}.}.}.}.}.}.}.}.].$X~ . C < M _   X V 7.w.< ~ $X].}.}.}.}.}.}.}.}.}.}.}.}.}.}.}.}.}.}.}.",
"}.}.}.}.}.}.}.}.}.}.}.}.}.}.}.}.}.}.}.].=X~ d r { ] > . o @ r v : 3 _.OX}.}.}.}.}.}.}.}.}.}.}.}.}.|.}.}.}.}.}.",
"}.}.}.}.}.}.}.}.}.}.}.}.}.}.}.}.}.}.].$XI.b b O ; y t   O X x 3 x   M.%X}.}.}.}.}.}.}.}.}.}.}.}.}.}.}.}.}.}.}.",
"}.|.}.}.}.}.|.}.}.}.}.}.}.}.}.}.}.}.].=XN.e ' N ] X.K . K e 3 @ b b   E.+X].}.}.}.}.}.}.}.}.}.}.}.}.}.}.}.}.}.",
"}.}.}.}.}.}.}.}.}.}.}.}.}.}.}.}.@X{.OX.X/ r.' + T ,.:.  T Q.U - p T.i I.$X].}.}.}.}.}.}.}.}.}.}.}.}.}.}.}.}.}.",
"}.}.}.}.}.}.}.}.}.}.}.}.}.}.}.}.{.@XOX~.( r...2 Q.4X'   0 ,.<.= T.T.;..XOX}.}.}.}.}.}.}.}.}.}.}.}.}.}.}.}.}.}.",
"}.}.}.}.}.}.}.}.}.}.}.|.}.}.}.}.{.{.[.=XI.+   + ' ] 3   a - ) 0 :.^ /.$X}.}.oX}.}.}.}.}.}.}.}.}.}.}.}.}.}.}.}.",
"}.}.}.}.}.}.}.}.}.}.}.}.}.}.}.}.@X{.OX@X].Y e E b i 6   > #   O   / =X'.}.}.}.}.}.}.}.}.}.}.}.}.}.}.}.}.}.}.}.",
"}.}.}.}.}.}.}.}.}.}.}.}.}.}.}.}.}.}.}.].+X~ : ;.;.l x     { , . x x N.$X].}.}.}.}.}.}.}.}.}.}.}.}.}.}.}.}.}.}.",
"}.}.}.|.}.}.}.}.}.}.}.}.}.}.}.}.}.}.}.%XM.f q.* o 0.D     { } 1 @.d M.$X].}.}.}.}.}.}.}.}.}.}.}.}.}.}.}.}.}.}.",
"}.}.}.}.}.}.}.}.}.}.}.}.}.|.}.}.}.}.}.OX^.} , ; 1 > l . . # r [ =   I.$X'.OX}.}.}.}.}.}.}.}.}.}.|.}.}.}.}.}.}.",
"}.}.}.}.}.}.}.}.}.}.}.}.}.}.}.}.}.}.}.|..XY > ' $.r 6 .   ..1.<.4X:.R [.OX].].OX}.}.}.}.}.}.}.}.}.}.}.}.}.}.}.",
"}.}.}.}.}.}.}.}.}.}.}.}.}.}.}.}.}.}.}.$XR.<.9X4X4X:.6 o   ; X.3.4XT._ ^.OX].}.}.}.|.}.}.}.}.}.}.}.|.}.}.}.}.}.",
"}.}.}.}.}.}.}.}.}.}.}.}.}.}.}.}.}.}.].#XR.' Q.T.r.2   R E.I.q - = - ; ^.OX].}.}.}.}.}.}.}.}.}.}.}.}.}.}.}.}.}.",
"}.}.}.}.}.|.}.}.}.}.}.}.}.}.oX}.}.}.}.}.}.^   #   w /.xXvX+X~.~.~.~.E.[.OX}.}.}.}.}.}.}.}.}.}.}.}.}.}.}.}.}.}."
};
