/* XPM */
static char *player29[] = {
/* columns rows colors chars-per-pixel */
"55 55 231 2 ",
"   c #010101",
".  c #0C0200",
"X  c #0C0A03",
"o  c #04020D",
"O  c #0D0D0E",
"+  c #080707",
"@  c #1A0000",
"#  c #150D09",
"$  c #0B100C",
"%  c #1A1208",
"&  c #040910",
"*  c #0B0718",
"=  c #110B19",
"-  c #0C1212",
";  c #0D171B",
":  c #141512",
">  c #1D1915",
",  c #181A1A",
"<  c #240906",
"1  c #2C170E",
"2  c #311200",
"3  c #291E18",
"4  c #381C12",
"5  c #1A2019",
"6  c #262107",
"7  c #26251B",
"8  c #392618",
"9  c #2F311F",
"0  c #383317",
"q  c #180E2A",
"w  c #1A1A21",
"e  c #191B29",
"r  c #0E1335",
"t  c #161837",
"y  c #0B0A21",
"u  c #18282F",
"i  c #162B36",
"p  c #222523",
"a  c #2D2323",
"s  c #262C29",
"d  c #332B24",
"f  c #332F2A",
"g  c #343629",
"h  c #262B35",
"j  c #283535",
"k  c #343A3B",
"l  c #393936",
"z  c #2D3027",
"x  c #4D1A00",
"c  c #541B03",
"v  c #4B240A",
"b  c #572307",
"n  c #452514",
"m  c #483C15",
"M  c #5A3215",
"N  c #633818",
"B  c #713612",
"V  c #672D12",
"C  c #46382D",
"Z  c #523827",
"A  c #463C35",
"S  c #492F23",
"D  c #4C440E",
"F  c #6E411F",
"G  c #77451B",
"H  c #705616",
"J  c #454329",
"K  c #4A4437",
"L  c #544C33",
"P  c #59573B",
"I  c #6B4625",
"U  c #794627",
"Y  c #665B34",
"T  c #7A513D",
"R  c #7F603F",
"E  c #686531",
"W  c #1A384B",
"Q  c #172A46",
"!  c #2D3653",
"~  c #333660",
"^  c #403367",
"/  c #3B4B4A",
"(  c #384543",
")  c #294659",
"_  c #384E50",
"`  c #2C5168",
"'  c #3B5A6A",
"]  c #2E4E6A",
"[  c #464A48",
"{  c #524845",
"}  c #4C524D",
"|  c #545144",
" . c #474B56",
".. c #4A5857",
"X. c #575957",
"o. c #524E5A",
"O. c #685B45",
"+. c #625C55",
"@. c #725442",
"#. c #5A6458",
"$. c #43635F",
"%. c #6D6349",
"&. c #796747",
"*. c #676254",
"=. c #777155",
"-. c #454B6B",
";. c #575B63",
":. c #46547A",
">. c #595D77",
",. c #4C5363",
"<. c #625C7D",
"1. c #55636D",
"2. c #576465",
"3. c #456278",
"4. c #587172",
"5. c #4B6B65",
"6. c #6C786E",
"7. c #747878",
"8. c #72796B",
"9. c #8C5127",
"0. c #875636",
"q. c #905A39",
"w. c #884D2D",
"e. c #996439",
"r. c #A2683B",
"t. c #805842",
"y. c #976647",
"u. c #987648",
"i. c #857956",
"p. c #9A795B",
"a. c #82754A",
"s. c #AA774D",
"d. c #B27547",
"f. c #B37B51",
"g. c #AD714B",
"h. c #87786B",
"j. c #987E62",
"k. c #58847B",
"l. c #959359",
"z. c #A6844A",
"x. c #B9845B",
"c. c #AF8355",
"v. c #968A6D",
"b. c #949071",
"n. c #B68F6C",
"m. c #9BA168",
"M. c #BBB978",
"N. c #BDAA7C",
"B. c #C78B5E",
"V. c #C49B64",
"C. c #CB976D",
"Z. c #DBA678",
"A. c #CBB06D",
"S. c #357194",
"D. c #397297",
"F. c #367399",
"G. c #3A759B",
"H. c #3C7B9D",
"J. c #2F668C",
"K. c #3B7BA2",
"L. c #545D94",
"P. c #426985",
"I. c #4A7488",
"U. c #52688B",
"Y. c #736680",
"T. c #6B768C",
"R. c #588298",
"E. c #5B868E",
"W. c #778282",
"Q. c #658697",
"!. c #4483AB",
"~. c #4A91BB",
"^. c #478BB6",
"/. c #7885B1",
"(. c #74A6B4",
"). c #4A97C6",
"_. c #56A1C9",
"`. c #4DA4D7",
"'. c #53A9DA",
"]. c #7BB9D3",
"[. c #54ADE4",
"{. c #55B4EB",
"}. c #5BB8EF",
"|. c #59B3E8",
" X c #4FB5F3",
".X c #54B6F1",
"XX c #56B9F4",
"oX c #5CBCF4",
"OX c #5ABEFA",
"+X c #67BBE8",
"@X c #62BDF2",
"#X c #74BFEA",
"$X c #5EC3FC",
"%X c #5DC2F4",
"&X c #6EC5F4",
"*X c #61C4FD",
"=X c #63CBFF",
"-X c #6CCDFF",
";X c #62C0F7",
":X c #76CAF7",
">X c #67D0FF",
",X c #78D1FF",
"<X c #71C2ED",
"1X c #899699",
"2X c #968F87",
"3X c #AEAB89",
"4X c #BAA987",
"5X c #B9BB82",
"6X c #AEB68D",
"7X c #B0AFB1",
"8X c #ACADA3",
"9X c #C2B088",
"0X c #D7D394",
"qX c #DACD9C",
"wX c #D2CDAA",
"eX c #ECDBB1",
"rX c #EDECB2",
"tX c #F8D593",
"yX c #959ED7",
"uX c #9CABDB",
"iX c #AEB4CB",
"pX c #87CDEC",
"aX c #92D2EC",
"sX c #86D9FF",
"dX c #A9D7E5",
"fX c #9CE5FF",
"gX c #E4DDC5",
"hX c #F4EDC4",
"jX c #FEFBC9",
"kX c #FFFFD8",
"lX c #E2EFEA",
/* pixels */
"oXoXoXoXoXoXoXoXoXoXoXoXoXoXoXoXoXoXoXoXoXoXoXoXoXoX}.oX}.oXoXoXoXoXoXoXoXoXoXoXoXoXoXoXoXoXoXoXoXoXoXoXoXoXoX",
"oXoXoXoXoXoXoXoXoXoXoXoXoXoXoXOXoXoXoXoXoXoXoXoX}.oX=X=X$X$X}.oX@XoXoXoXoXoXoXoXoXoXoXoXoXoXoXoXoXoXoXoXoXoXoX",
"oXoXoXoXoXoXoXoXoXoXoXoXoXoXoX@XoXoXoXoXoXoXoX}.=X+XI.R.R.Q.:X$X.XoXoXoXoXoXoXoXoXoXoXoXoXoXoXoXoXoXoXoXoXoXoX",
"oXoXoXoXoXoXoXoXoXoXoXoXoXoXoXoXoXoXoXoXoXoXoX;XP.7.f.e.T u.h.E.,X}.oXoXoXoXoXoXoXoXoXoXoXoXoXoXoXoXoXoXoXoXoX",
"oXoXoXoXoXoXoXoXoXoXoXoXoXoXoXOXoXoXoXoXoXXX:X7.y.B d.r.e.e.f.g.1X*X}.oXoXoXoXoXoXoXoXoXoXoXoXoXoXoXoXoXoXoXoX",
"oXoXoXoXoXoXoXoXoXoXoXoXoXoXoXoXoXoXoXoXoX*X1XZ.f.B G B.q.9.r.y.v I.$XoXoXoXoXoXoXoXoXoXoXoXOXoXoXoXoXoXoXoXoX",
"oXoXoXoXoXoXoXoXoXoXoXoXoXoXoXoXoXoXoXoX@XT.A.B.9.Z.n.p.0.B.C.G c 3.=X}.oXoXoXoXoXoXoXoXoXoXoXoXoXOXoXoXoXoXoX",
"oXoXoXoXoXoXoXoXoXoXoXoXoXoXoXoXoXoXoX*X~.u.r.q.A.c.C.y.B.B @.U d.h.#XoXoXoXoXoXoXoXoXoXoXoXoXoXoX@XoXoXoXoXoX",
"oXoXoXoXoXoXoXoXoXoXoXoXoXoXoXoXoXoXoX}.,X(.n A.q.c V.z.e.f.M q.9.I D.=X}.oXoXoXoXoXoXoXoXoXoXoXoXoXoXoXoXoXoX",
"oXoXoXoXoXoXoXoX%XoXoXoXoXoXoXoXoXoXoXXX<XsX_ M M I B C.0.z.I s.e.@ D.=X}.oXoXoXoXoXoXoXoXoXoXoXoXoXoXoXoXoXoX",
"oXoXoXoXoXoXoXoXoXoXoXoXoXoXoXoXoXoXoXoX%XoX_.a < 6 @ n.y.x N F g.< F.=X}.oXoXoXoXoXoXoXoXoXoXoXoXoXoXoXoXoXoX",
"OXoXoXoXoXoXoXoXoXoXoXoXoXoXoXoXoXoXoXoX%XoX=X( p.-.Y.M V t.1 n w.n !.=XoXoXoXoXoXoXoXoXoXoXoXoXoXoXoXoXoXoXOX",
"oXoXoXoXoXoXoXoXoXoXoXoXoXoXoXoXoXoXoXoXXX@X`.L qXiX4Xc c j.w < c >..X).oXoXoXoXoXoXoX%XoXoXOXoXoXoXoXoXoXoXoX",
"oXoXoXoXoXoXoXoXoXoXoXoXoXoXoXoXoXoXoXoX}.-XP.U eXhXV.w.2 .   X n Q.' # `.*XoXoXoXoXoXoXoXoXoXoXoXoXoXoXoXoXoX",
"oXoXoXoXoXoXoXoXoXoXoXoXoXoXoXoXoXoXoXoXOXXXsX6.p.tXz.1 f #.| D *.o.K ;.'.*XoXoXoXoXoXoXoXoXoXoXoXoXoXoXoXoXoX",
"oXoXoXoXoXoXoXoXOX@XoXoXoXoXoXoXoXoXoXXXpXaX X@Xd H { Y.qXkXhXA.m K d ~.-XoXoXoXoXoXoXoXoXoXoX@XoXoXoXoXoXoXoX",
"oXoXoXoXoXOXoXoXoXoXoXoXoXoXoXoXoXoXoXXX:XaXOXk.J o $ 7X5X0XjXrXi.8 I.[.}.%XoXoXoXoXoXoXoXoXoXoXoXOXoXoXoXoXoX",
"oXoXoXoXoXoXoXoXoXoXoXoXoXoXoXoXoXoXoXoXoX$XE.A.{ ~ K l.3X6XrXjXv.  !.=X}.}.oXoXoXoXoXoXoXoXoXoXoXoXoXoXoXoXoX",
"oXoXoXoXoXoXoXoXoXoXoXoXoXoXOXoXoXoXoXoX}.$X2.9X: J eXE 8Xb.rXjX%.) oXoXoXoXoXoXoXoXoXoXoXoXoXoXoXoXoXoXoXoXoX",
"oXoXoXoXoXoXoXoXoXoXoXoXoXoXoXoXoXoXoXoX}.*X' d : l.wXh.% =.M.v.L 0 F.=X}.%XoXoXoXoXoXoXoXoXoXoXoXoXoXoXoXoXoX",
"oXoXoXoXoX%XoXoXoXoXoXoXoXoXoXoXoXoXoXoX;X,X$.+.z 5XP   P m.l.9XjX%.J.>XoXoXoXoXoXoXoXoXoXoXoXoXoXoXoXoXoXoXoX",
"oXoXoXoXoXoXoXoXoXoXoXoXoXoXoXoXoXoXoXoX}.*XK.&   | m.d P rXkXqX*.a S.$X}.oXoXoXoXoXoXoXoXoXoXoX@XoXoXoXoXoXoX",
"oXoXoXoXoXoXoXoXoXoXoXoXoXoXoXoXoXoXoXoXoXXXfX( ..~ ;.+.f 0 J g r o G.=X}.oXoXoXoXoXoXoXoXoXoXoXoXoXoXoXoXoXoX",
"oXoXoXoXoXoXoXoXoXoXoXoXoXoXoXoXoXoXoXoXoXoX&Xj <.p o.t = o r _ /.q S.*XoXoXoXoXoXoXoXoXoXoXoXoXoXoXoXoXoXoXoX",
"oXoXoXoXoXoXoXoXoXoXoXoXoXoXoXoXoXoXoXoX}.%X%XW . g 3XJ 7 - t :.T.1.+ ).*X}.oXoXoXoXoXoXoXoXoXoXoXoXoXoXoXoXoX",
"oXoXoXoXoXoXoXoXoXoXoXoXoXoXoXoXoXoXoXoX}.;X$.&.0 . 2XrX6Xg -.P.yX>.  ).*X}.oXoXoX@XOXoXoXoXoXoXoXoXoXoXoXoXoX",
"oXoXoXoXoXOXoXoXoXoXoXoXoXoXoXoXoXoXoXoX}.>X) v.;.7 5Xo.o    .1X! t   ~.*XoXoXoXoXoXoXoX%XoXoXoXoXoXoXoXoXoXoX",
"oXoXoXoXoX@XoXoXoXoXoXoXoXoXoXoXoXoXoXoX}.sX} * +.X   h :.: . +.8.6 W '.OXoXoXoXoXoXoXoXoXoXoXoXoXoXoXoXoXOXoX",
"oXoXoXoXoXoXoXoXoXoXoXoXoXoXoXoXoXoXoXoX}.-X) O.: o o h L.t # b.+.# H.=XoXoXoXoXoXoXoXoXoXoXoXoXoXoXoXoXoXoXoX",
"oXoXoXoXoXoXoXoXoXoXoXoXoXoXoXoXoXoXoXoX@X*XW n.a % g t ~ = # X.6XD S.=XoXoXoXoXoXoXoXoXoXoXoXoXoXoXoXoXoXoXoX",
"oXoXoXoXoXoXoXoXoXoXoXoXoXoXoXoXoXoXoXoXoX=X) a.% a X.  * &.i._ ! < D.=X}.XXoXoXoXoXoXoXoXoXoXoXoXoXoXoXoXoXoX",
"oXoXoXoXoXoXoXoXoX%XoXoXoXoXoXoXoXoXoXoXXX#X&X]   h >.  * N.8 ~ L.q D.=XoXoXoXoXoXoXoXoXoXoXoXoXoXoXoXoXoXoXoX",
"oXoXoXoXoXoXoXOXoXoXoXoXoXoXoXoXoXoXoXoXoX:X&XOX- w ! e ! &.Y o.k X H.=XoXoXoXoXoXoXoXoXoXoXoXoXoXoXoXoXoXoXoX",
"oXoXoXoXoXoXoXoXoXoXoXoXoXoXoXoXoXoXoXoXoXoXXXdXe   O u L.t Y u.6 X D.=XoXoXoXoXoXoXoXoXoXoXoXoXoXoXoXoXoXoXoX",
"oXoXoXoXoXoXoXoXoXoXoXoXoXoXoXoXoXoXoXoXoXoXXXaXw   y >.yXY.-.8.&.Q [.OXoXoXoXoXoXoXoXoXoXoXoXoXoXoXoXoXoXoXoX",
"oXoXoXoXoXoXoXoXoXoXoXoXoXoXoXoXoXoXoXoXoXoXoX{.;   , T.iXiXlXwXy 7.fX XoXoXoXoXoXoXoXoXoXoXoXoXoXoXoXoXoXoXoX",
"OX@XoXoXoXoXoXoXoXoXoX%XoXoXoXoXoXoXoXoXoXoXoX}.; . O.A 2XgXA : W :X+XOXoXoXoXoXoXoXoXoXoXoXoXoXoXoXoXoX%XoXoX",
"oXoXoXoXoXoXoXoXoXoXoXoXoXoXoXoXoXoXoXoXoXoXoX}.; . S c.Z # 4 . ) =XoXoXoXoXoXoXoXoXoXoXoXoXoXoXoXoXoXoXoXoXoX",
"oXoXoXoXoXoXoXoXoXoXoXoXoXoXoXoXoXoXoXoXoXoXoX}.) 3 n R g.w.4 v ) -X+XoXoXoXoXoXoXoXoXoXoXoXoXoXoXoXoXoXoXoXoX",
"oXoXoXoXoXoXoXoXoXoXoXoXoXoXoXoXoXoXoXoXoXoXoX*X[.> d @ @.y.F < s ].@XXXoXoXoXoXoXoXoXoXoXoXoXoXoXOXoXoXoXoXoX",
"oXoXoXoXoXoXoXoXoXoXoXoXoXoXoXoXoXoXoXoXoXoXoXOX`.$ :   Z n 1 g . I.=X}.oXoXoXoXoXoXoXoXoXoXoXoXoXoXoXoXoXoXoX",
"oXoXoXoXoXoXoXoXoXoXoXoXoXoXoXoXoXoXoXoXoXoXoX$X'.+     + L 3 v.C & ^.$XoXoXoXoXoXoXoXoXoXoXoXoXoXoXoXoXoXoXoX",
"oXoXoXoXoXoXoXoXoX@XoXoXoXoXoXoXoXoXoXoXoXoX@X}.u -   & [ f # > p   G.=X}.oXoXoXoXoXoXoXoXoXoXoXoXoXoXoXoXoXoX",
"oXoXoXoXoXoXoXoXoXOXoXoXoXoXoXoXoXoXoXoXoXoXoX}.W X.5   k ;...$./   G.=X}.oXoXoXoXoXoXoXoXoXoXoXoXoXoXoXoXoXoX",
"oX@XOXoXoXoXoXoXoXoXoXOXoXoXoXoXoXoXoXoXoXoXoXOX|.[ p : O  .4.4...  D.=X}.oXoXoXoXoXoXoXoXoXoXoXoXoXoXoXoXoXoX",
"oXoXoXoXoXoXoXoXoXoXoXoXoXoXoXoXoXoXoXoXoXoXoX$X_.- , p > j / / j   G.=X}.oXoXoXoXoXoXoXoXoXoXoXoXoXoXoXoXoXoX",
"oXoXoXoXoXoXoXoXoXoXoXoXoXoXoXoXoXoXoXoXoXoXoX*X`.: p   s :     w 1 S.=XoXoXoXoXoXoXoXoXoXoXoXoXoXoXoXoXoXoXoX",
"oXoXoXoXoXoXoXoXoXoXoXoXoXoXoXoXoXoXoXoXoXoXXX$X'.      [ ..( } l ` {.oXoXOXoXoXoXoXoXoXoXoXoXoXoXoXoXoXoXoXoX",
"oXoXoXoXoXoXoXoXoXoXOXoXoXoXoXoXoXoXoXoXoXoXoXoX`.$ $   [ f [ 1.1.u !.$XXXoXoXoXoXoXoXoXoXoXoXoXoXoXoXoXoXoX%X",
"oXoXoXoXoXoXoXoXoXoXoXoXoXoXoXoXoXoXoXoXoXoX*Xi [ #.k   g i.n d } . D.=XoXoXoXoXoXoXoXoXoXoXoXoXoXoXoXoXoXoXoX",
"oXoXoXoXoXoXoXoXoXoXoXoXoXoXoXoXoXoXoXoXoXoX$X` + X 5 $ + C @.C 3 K ^.*XoXoXoXoXoXoXoXoXoXoXoXoXoXoXoXoXoXoXoX",
"oXoXoXoXoXoXoXoXoXoXoXoXoXoXoXoXoXoXoXoXoXoXoX%XJ.W       w p j # J.=X}.oXoXoXoXoXoXoXoXoXoXoXoXoXoXoXoXoXoXoX",
"oXoXoXoXoXoXoXoXoXoXoXoXoXoXoXoXoXoXoXoXoXoXoXoX=X%XW ( 5.2.6.6.l ' ,X}.oXoXoXoXoXoXoXoXoXoXoXoXoXoXoXoXoXoXoX",
"oXoXoX@XoXoXoXoXoXoXoXoXoXoXoXoXoXoXoXoXoXoXoXoX{.=XH.5 / , 3 J #.].;XoXoXoXoXoXoXoXoXoXoXoXoXoXoXoXoXoXoXoXoX",
"oXoXoXOXoXoXoXoXoXoXoXoXoXoXoXoXoXoXoXoXoXoXoXoX%XXX[.).~.).)._.+X=XoXoXoXoXoXoXoXoXoXoXoXoX}.%XoXoXoXoXoXoXoX"
};
