/* XPM */
static char *player31[] = {
/* columns rows colors chars-per-pixel */
"55 55 230 2 ",
"   c #020201",
".  c #090101",
"X  c #02050A",
"o  c #060A0C",
"O  c #0B0B0B",
"+  c #0A0709",
"@  c #110201",
"#  c #190905",
"$  c #0E110A",
"%  c #070A14",
"&  c #120C1A",
"*  c #0C1113",
"=  c #0B151B",
"-  c #0B1618",
";  c #1D1E19",
":  c #171816",
">  c #161309",
",  c #230905",
"<  c #3B0B00",
"1  c #2B1207",
"2  c #361808",
"3  c #231A15",
"4  c #361B16",
"5  c #1C221C",
"6  c #3A2208",
"7  c #24231C",
"8  c #2B231B",
"9  c #362818",
"0  c #3A3916",
"q  c #080927",
"w  c #140E24",
"e  c #0D1228",
"r  c #171929",
"t  c #121A30",
"y  c #2D1D23",
"u  c #12232E",
"i  c #1C2728",
"p  c #172936",
"a  c #1A303B",
"s  c #282927",
"d  c #362A22",
"f  c #37372B",
"g  c #272D38",
"h  c #382A3A",
"j  c #2A3637",
"k  c #323437",
"l  c #451C09",
"z  c #511B00",
"x  c #581B07",
"c  c #451D13",
"v  c #47230D",
"b  c #552709",
"n  c #492615",
"m  c #5A2C14",
"M  c #4C351C",
"N  c #593217",
"B  c #49310F",
"V  c #6A3818",
"C  c #703A16",
"Z  c #692F07",
"A  c #463525",
"S  c #4F352F",
"D  c #753A25",
"F  c #6D3822",
"G  c #3E4337",
"H  c #694117",
"J  c #76441A",
"K  c #75480E",
"L  c #474438",
"P  c #524A3C",
"I  c #57513D",
"U  c #524427",
"Y  c #784827",
"T  c #7A573A",
"R  c #704C2F",
"E  c #6E6337",
"W  c #171845",
"Q  c #231F46",
"!  c #1D3B4C",
"~  c #1D324C",
"^  c #29374D",
"/  c #343762",
"(  c #283765",
")  c #1E4052",
"_  c #3E4447",
"`  c #244659",
"'  c #374C58",
"]  c #274E66",
"[  c #29436B",
"{  c #2A556E",
"}  c #2E5B76",
"|  c #37637C",
" . c #484A48",
".. c #504A43",
"X. c #46465A",
"o. c #4C5559",
"O. c #535552",
"+. c #655747",
"@. c #5B6650",
"#. c #686347",
"$. c #696458",
"%. c #76745C",
"&. c #776656",
"*. c #535866",
"=. c #4A4E6E",
"-. c #5D6567",
";. c #536A75",
":. c #6B746D",
">. c #864C19",
",. c #85552C",
"<. c #884B37",
"1. c #865635",
"2. c #986637",
"3. c #976734",
"4. c #A26B3B",
"5. c #AB743C",
"6. c #8C5F45",
"7. c #856847",
"8. c #966544",
"9. c #9A704D",
"0. c #856756",
"q. c #847455",
"w. c #967C53",
"e. c #A6724B",
"r. c #AC7755",
"t. c #B47A52",
"y. c #827E61",
"u. c #BC885A",
"i. c #BE955A",
"p. c #88846B",
"a. c #818672",
"s. c #95866B",
"d. c #A8986A",
"f. c #B79169",
"g. c #B99978",
"h. c #B08B69",
"j. c #ABA97D",
"k. c #B1AA77",
"l. c #B5AE69",
"z. c #C7965C",
"x. c #D1A35A",
"c. c #CA9A67",
"v. c #D19C76",
"b. c #D5AA70",
"n. c #EBBB78",
"m. c #FFC57C",
"M. c #346886",
"N. c #377394",
"B. c #3B769B",
"V. c #36769B",
"C. c #2E6685",
"Z. c #3C7BA1",
"A. c #525887",
"S. c #605780",
"D. c #4A748D",
"F. c #676A95",
"G. c #667183",
"H. c #6B7AA5",
"J. c #877C85",
"K. c #3D83B7",
"L. c #3F80A3",
"P. c #798581",
"I. c #6D8397",
"U. c #448CB7",
"Y. c #4A93BC",
"T. c #4793BC",
"R. c #5994B7",
"E. c #4582A6",
"W. c #778FA5",
"Q. c #649CBD",
"!. c #6F92AC",
"~. c #4D9CCB",
"^. c #4897C6",
"/. c #579DC6",
"(. c #4EA0CF",
"). c #5AA3C9",
"_. c #4FA1D0",
"`. c #4FA9DD",
"'. c #52A6D7",
"]. c #64B1DD",
"[. c #6FACCB",
"{. c #56AEE2",
"}. c #59B5EC",
"|. c #5BB8EE",
" X c #56B1E5",
".X c #5CBCF4",
"XX c #5BBFF9",
"oX c #54B9F5",
"OX c #62BDF2",
"+X c #68BFF1",
"@X c #61BCEF",
"#X c #5EC0F7",
"$X c #5DC2FC",
"%X c #5AC4FE",
"&X c #66C0F5",
"*X c #62C5FD",
"=X c #63CAFF",
"-X c #6BCAFF",
";X c #6BC4F7",
":X c #66D1FF",
">X c #76CEFA",
",X c #8F918D",
"<X c #B1AA8E",
"1X c #8084B6",
"2X c #ADB2B0",
"3X c #9AA6A1",
"4X c #D0B98C",
"5X c #E4B484",
"6X c #B8C0B2",
"7X c #D2C793",
"8X c #FCD796",
"9X c #F0C189",
"0X c #D1D0B0",
"qX c #E3DEA6",
"wX c #EBE8B4",
"eX c #FCF4B9",
"rX c #F6E5B2",
"tX c #91B7C7",
"yX c #ACC1C0",
"uX c #8FD3F2",
"iX c #93E7FF",
"pX c #AFE5FA",
"aX c #CECEC8",
"sX c #EAE9C6",
"dX c #FEF8CB",
"fX c #FEFFD3",
"gX c #FFF7D7",
"hX c #F4EBC0",
"jX c #CDE9EA",
"kX c #F5F5EA",
/* pixels */
".X.X.X.X.X.X.X.X.X.X.X.X.X.X.X.XXX.X.X.X.X.X.X.X.X.X.X.X.X.X.X.X.X.X.X.X.X.X.X.X.X.X.X.X.X.X.X.X.X.X.X.X.X.X.X",
".X.X.X.X.X.X.X.X.X.X.X.X.X.X.X.X.X.X.X.X.X.X.X.X.X.X.X.X.X.X.X.X.X.X.X.X.X.X.X.X.X.X.X.X.X.X.X.X.X.X.X.X.X.X.X",
".X.X.X.X.X.X.X.X.X.X.X.X.X.X.X.X.X.X.X.XoXoXXX$X|..X.X.X.X.X.X.X.X.X.X.X.X.X.X.X.X.X.X.X.X.X.X.X.X.X.X.X.X.X.X",
".X.X.X.X.X.X.X.X.X.X.X.X.X.X.X.X.X.X.X.XXXpX!.;.>XXXoX|..X.X.X.X.X.X.X.X.X.X.X.X.X.X.X.X.X.X.X.X.X.X.XXX.X.X.X",
".X.X.X.X.X.X.X.X.X.X.X.X.X.X.X.X.X.X|.*XQ.9.6.r.y.G.pX+X+X.X.X.X.X.X.X.X.X.X.X.X.X.X.X.X.X.X.X.X.X.X.X.X.X.XOX",
".X.X.X.X.X.X.X.X.X.X.X.X.X.X.X.X.X.X*XtX0.r.Y e.C c.v.n R.*X.XXX.X.X.X.X.X.X.X.X.X.X.X.X.X.X.X.X.X.X.X.X.X.X.X",
".X.X.X.X.X.X.X.X.X.X.X.X.X.X.X.XOX$XuXg.b 1.z.>.2.2.<.l D.XX.X.X.X.X.X.X.X.X.X.X.X.X.X.X.X.X.X.X.X.X.XXX.X.X.X",
".X.X.X.X.X.X.X.X.X.X.X.X.XOXOX.X*XtXb.6.>.e.z.2.5Xu.C 1.m ).$X|..X.X.X.X.X.X.X.X.X.X.XXX.X.X.X.X.X.X.X.X.X.X.X",
".X.X.X.X.X.X.X.X.X.X.X.X.XOX+X$XY.h.3.e.5Xb.n.8Xz.K ,.u.N | @X.X.X.X.X.X.X.X.X.X.X.X.X.X.X.X.X.X.X.X.X.X.X.X.X",
"XX.X.X.X.X.X.X.X.X.X.X.X.X.X;XQ.w.c.>.b.8.v.3.,.,.1.D t.m , {.XX.X.X.X.X.X.X.X.X.X.X.X.X.X.X.X.X.X.X.X.X.X.X.X",
".X.X.X.X.X.X.X.X.X.X.X.X.X.X-X-.x.3.N 5XY Y z.c.5Xb.C u.1., X..X.X.X.X.X.X.X.X.X.X.X.X.X.X.X.X.X.X.X.X.X.X.X.X",
".X.X.X.X.X.X.XXX.X.X.X.X.X.X&X}.:.Z z 1.4XB H 4.5XY b m H b Q.*X.X.X.X.X.X.X.X.X.X.X.X.X.X.XXX.X.X.X.X.X.X.X.X",
".X.X.X.X.X.X.X.X.X.X.X.X.X.X.X;X#Xo.U c 8 & n m Y 1.# A n v /.`.*X.XOX.X.X.X.X.X.X.X.X.X.X.X.X.X.X.X.X.X.X.X.X",
".X.X.X.X.X.X.X.X.X.X.X#X.XOX.XuXuX%X(.U s.G.$.b F q.  . 4 v # _ ^.XX.X.X.X.X.X.X.X.X.X.X.X.X.X.X.X.X.X.XXX.X.X",
".X.X.X.X.X.X.X.X.X.X.X.X.X.X.XXXoX$X].g.0XsXf.8.N . X # v 2 : $.M.-X.X.X.X.XOX.X.X.X.X.X.X.X.X.X.X.X.X.X.X.X.X",
".X.X.X.X.X.X.X.X.X.X.X.X.X.X.X.X.XoX&XjXgXdX8XR , &.%.E E U +.g =XOX.X.X.X.XXX.X.X.X.X.X.X.X.X.X.X.X.X.X.X.X.X",
".X.X.X.X.X.X.X.X.X.X.X.X.X.X.X.X.X.X.X}.jXrXx.4 ,XgXfXwX7XA L R..XOX+XXX.X.X.X.X.X.X.X.X.X.X.X.X.X.X.X.X.X.X.X",
".X.X.X.X.X.X.X.X.X.X.X.X.X.X.X.X.X.X.X*XE.B 2 :.kXhXeXeXwXd % $XXX.X.X.X.X.X.X.X.X.X.X.X.X.X.X.X.X.X.X.X.X.X.X",
".X.X.X.X.X.X.X.X.X.X.X.X.X.X.X.X.X.X%X[.#.s O r 2X@.wXeXdX<Xi (.XX.X.X.X.X.X.X.X.X.X.X.X.X.X.X.X.X.X.X.X.X.X.X",
".X.X.X.XXX.X.X.XXX.X.X.X.X.X.X.X.X.X=X3Xk.a.g L qX2X..gX7XI I a oX.X.X.X.X.X.X.X.X.X.X.X.X.X.X.X.X.X.X.X.X.X.X",
".X.X.X.X.X.X.X.X.X.X.X.X.X.X.X.X.XoX-X3XI ..  0X<X:.A d.d.qX7Xa iX|..X.X.X.X.X.X.X.X.X.X.XXX.X.X#X.X.X.X.X.X.X",
".X.X.X.X.X.X.X.X.X.X.X.X.X.X.X.X.X.X$X^.L s p.l.  3 l.d.qXp. .k W..X|..X.X.X.X.X.X.X.X.X.X.X.X.X.X.X.X.X.X.X.X",
".X.X.X.X.X.X.X.X.X.X.X.X.X.X.X.X.X.X$XY.G 7 E k.%.5 j.fXy.  W Q ` iX@XXX.X.X.X.X.X.X.X.X.X.X.X.X.X.X.X.X.X.X.X",
".X.X.X.X.X.X.X.X.X.X.X.X.X.X.X.X.X|.*XT.% t   $.J.5 O.3 * o I.^ > I.*X|..X.X.X.X.X.X.X.X.X.X.X.X.X.X.X.X.X.X.X",
".X.X.XXX.X.X.X.X.X.X.X.X.X.X.X.X.X.X*XV.& t o.k E X.g O   o A.A.G.q Z.*X.X.X.X.XXX.XOX.X.X.X.X.X.X.X.X.X.X.X.X",
".X.X.X.X.X.X.X.X.X.X.X.X.X.X.X.X.X.XU.d y 8 7 O j.sX0X@.  o F.F.P.U N.XX.X.X.X.X.X.X.X.X.X.X.X.X.X.X.X.XXX.X.X",
".X.X.X.X.X.X.X.X.X.X.X.X.X.X.X.XOX Xs 5Xv.3.0   $.y.  w + X ^ $ <X2X  K.*X|.XX.X.X.X.X.X.X.X.X.X.X.X.X.X.X.X.X",
".X.X.X.X.X.X.X.X.X.X.X.X.X.X.X.XXX}.s f.c.M t %.p.X s =.Q o   3 a.y.y.tXXX.X.X.X.X.X.X.X.X.X.X.X.X.X.X.X.X.X.X",
".X.X.X.X.X.X.X.X.X.X.X.X.X.X.X.X.X.XD.4 4 > r I o X s X./ e   8 _ d #.).*X.X.X.X.X.X.X.X.X.X.X.X.X.X.X.X.X.X.X",
".X.X.X.X.X.X.X.X.X.X.X.X.X.X.X.X.XXXXXK.[.o.E 9 % S X & e o . : *.X.g _.*X.X.X.X.X.X.X.XXX.X.X.X.X.X.X.X.X.X.X",
".X.XXX.X.X.X.X.X.X.X.X.X.X.X.X.X.X.X.X*XiX;.7.A e -.& ^ ! % 3 +.g X.; ~.*XOX.X.X.X.X.X.X.X.X.X.X.X.X.X.X.X.X.X",
".X.XOX.X.X.X.X.X.X.X.X.X.X.X.X.X.X.X%XoX+Xo.< b h [ ( / ( = &.9., 0.h.2X*X.X.X.X.X.X.X.X.X.X.X.X.X.X.X.X.X.X.X",
".X.X.X.X.X.X.X.X.X.X.XXX.X.X.X.XXXOXR.tX,XC Y 6.n / / =.*.: 2.n.9Xm.5.6X-X|..X.X.X.X.X.X.X.X.X.X.X.X.X.X.X.XXX",
".X.X.X.X.X.X.X.X.X.X.X.X.X.X.XOXoX!.6.8.e.t.t.6.V h A.W.1X=.M T &.R -.].XX.X.X.X.X.X.X.X.X.X.X.X.X.X.X.X.X.X.X",
".X.X.X.X.X.X.X.X.X.X.X.X.X.X.X.XOX%.e.8.C C D x x c =.!.H.1XS.      E.=X|..X.X.X.X.X.X.X.X.X.X.X.X.X.X.X.X.X.X",
".X.X.X.X.X.X.X.X.X.X.X.X.X.X.X.XOXy.>.C Z z l l z x Q 3XyX2XaX% X   B.=X.X.X.X.XXX.X.X.X.X.X.X.X.X.X.X.X.X.X.X",
".X.X.X.XXX.X.X.X.X.X.X.X.X.X.X.XOX..Z D 9.Y N N N c d 9 j.sXd       Z.*X|..X.X.X.X.X.XXX.X.X.X.X.X.X.X.X.X.X.X",
".X.X.X.X.X.X.X.X.X.X.X.X.X.X.X.X*XL z Y 1.x n + .       + +   + O   B.=X|..X.X.X.X.X.X.X.X.X.X.X.X.X.X.XXX.X.X",
".X.X.X.X.X.X.X.X.X.X.X.X.X.X.X.X/.s , 2 n 1 $ j ! ` p   % X   O 3   B.=X.X.X.X.X.X.X.X.X.X.X.X.X.X.X.X.X.X.X.X",
".X.X.X.X.X.X.X.X.X.X.X.X.X.X.X=X! : k 3   X   ).:X=X'.p       1 y   Z.*X|..X.X.X.X.X.X.X.X.X.X.X.X.X.X.X.X.X.X",
".X.X.X.X.X.X.X.X.X.X.X.X.X.X.X*X)  .P.o.o o   T.$X X>XM.    1 x c @ N.=X|..X.X.X.X.X.X.X.X.X.X.X.X.X.X.X.X.X.X",
".X.X.X.X.X.X.X.X.X.X.X.X.X.X.X*X! + p -   *   T.*X.X.X{.a   v x b # V.=X.X.X.X.X.X.X.X.X.X.X.X.X.X.X.X.X.X.X.X",
".X.X.X.X.X.X.X.X.X.X.X.X.X.X.X*X`     :  .5 o (.*X.X.XXX|.u 1 b b , M.*X|..X.X.X.X.X.X.X.X.X.X.X.X.X.X.X.X.X.X",
".X.X.X.X.X.X.X.X.X.X.X.X.X.X.X.X#Xu $ 5 ..s   L.#X.X.X.X*X` . l n 1   ^.*X.X.X.X.X.X.X.X.X.X.X.X.X.X.X.X.X.X.X",
".X.X.X.X.X#X.X.X.X.X.X.X.X.X.X.X#X| 5 s 7 8 ; $ `.$X.X.X.X#X= . 4 ,   M.*X.X|..X.X.X.X.X.X.XXXOX#X.X.X.X.X.X.X",
".X.X.X.X.X.X.X.X.X.X.X.X.X.X.X|.%XV.$ G L ..> . `.#X.X.X#XoX-     .     C..X.X.X.X.X.X.X.X.X.X.X.X.X.X.X.X.X.X",
".X.X.X.X.X.X.X.X.X.X.X.X.X#X.X*XN.-.P.f     ` Z. X.X.X.X#X}.* + j       = }.XX.X.X.X.X.X.X.X.X.X.X.X.X.X.X.X.X",
".X.X.X.X.X.X.X.X.X.X.X.X.X|.%XB.  :.o.$ ~ T. X=X.X.X.X.X#X}.r _ i j i   = |..X.X.X.X.X.X.X.X.X.X.X.X.X.X.X.X.X",
".X.X.X.X.X.X.X.X.X.X.X.X.X.X*X}   - = ^. X=X.X|..X#X.X.X.X}.- ; * $ 5 o   ! #X.X.X.X.X.X.X.X.X.X.X.X.X.X.X.X.X",
".X.X.X.X.X.X.X.X.X.X.X.X.X.X.X.X}. X}.*X.X|..X.X.X.X.X.X.X.X` u   O o -   u #X.X.X.X.X.X.X.X.X.X.X.X#X.X.X.X.X",
".X.X.X.X.X.X.X.X.X.X.X.X.X.X.X.X.X=X=X=X=X#X}..X|.|..X|.}.$XT.C.  o o 5   u $X.X.X.X.X.X.X.X.X.X.X.X.X.X.X.X.X",
"#X.X.X.X.X.X.X.X.X.X.X.X.X.X.X.X*XL.C.M.| (.:X%X=X=X*X*X:XL.s 7 s _ i $ o N..X.X.X.X.X.X.X.X.X.X.X.X.X.X.X.X.X",
".X.X.X.X.X.X.X.X.X.X.X.X.X.X.X$XB.o       a { ] ] ] ] ] { = s s : k -   X N.=X.X.X.X.X.X.X.X.X.X.X.X.X.X.X.X.X",
".X.X.X.X.X.X.X.X.X.X.X.X.X.X.X*X!     X                     X               C.*X.X.X.X.X.X.X.X.X.X.X.X.X.X.X.X",
".X.X.X.X.X.X.X.X.X.X.X.X.X.X.X#X`.~.~.~.~.(._._.(.(.(.(._.~.=           U._.~.OX.X.X.X.X.X.X#X.X.X.X.X.X.X.X.X"
};
