/* XPM */
static char *player11[] = {
/* columns rows colors chars-per-pixel */
"55 55 236 2 ",
"   c #010101",
".  c #0A0403",
"X  c #0D0A05",
"o  c #02030A",
"O  c #07090A",
"+  c #140905",
"@  c #0E1108",
"#  c #181409",
"$  c #090C12",
"%  c #020019",
"&  c #060816",
"*  c #130A13",
"=  c #0C141A",
"-  c #191514",
";  c #181917",
":  c #220809",
">  c #251707",
",  c #371604",
"<  c #241A15",
"1  c #3E0700",
"2  c #1D2313",
"3  c #29251B",
"4  c #332B14",
"5  c #130E23",
"6  c #0C1724",
"7  c #181B26",
"8  c #1B1B3B",
"9  c #0D0D27",
"0  c #19242C",
"q  c #192937",
"w  c #1C303C",
"e  c #272A2A",
"r  c #352928",
"t  c #3A362C",
"y  c #242A37",
"u  c #2A3436",
"i  c #36393A",
"p  c #342C36",
"a  c #4B1707",
"s  c #5B2C09",
"d  c #472B19",
"f  c #562713",
"g  c #593318",
"h  c #433F1A",
"j  c #763C18",
"k  c #682E0C",
"l  c #453724",
"z  c #563A28",
"x  c #583C33",
"c  c #4E3F37",
"v  c #753F25",
"b  c #623F22",
"n  c #35403D",
"m  c #424612",
"M  c #6C4A17",
"N  c #4B4827",
"B  c #45493A",
"V  c #564636",
"C  c #575638",
"Z  c #4F4F2C",
"A  c #654736",
"S  c #685B38",
"D  c #754D32",
"F  c #746A32",
"G  c #1B2942",
"H  c #1B3648",
"J  c #1C3C51",
"K  c #292C45",
"L  c #273A4A",
"P  c #343947",
"I  c #353755",
"U  c #2E2A4E",
"Y  c #2B3663",
"T  c #43395A",
"R  c #1D4055",
"E  c #394445",
"W  c #224456",
"Q  c #384357",
"!  c #285169",
"~  c #2B5975",
"^  c #385B78",
"/  c #374D66",
"(  c #33627C",
")  c #494A47",
"_  c #594744",
"`  c #43534C",
"'  c #575744",
"]  c #464755",
"[  c #504E5A",
"{  c #455757",
"}  c #565A56",
"|  c #645446",
" . c #705249",
".. c #55645D",
"X. c #656349",
"o. c #696657",
"O. c #78685C",
"+. c #736F4D",
"@. c #494D6C",
"#. c #4A5369",
"$. c #565767",
"%. c #4E5A79",
"&. c #525673",
"*. c #576773",
"=. c #566570",
"-. c #7A7668",
";. c #6B6E6E",
":. c #854F1D",
">. c #864B28",
",. c #8A552B",
"<. c #885637",
"1. c #915838",
"2. c #864C30",
"3. c #996438",
"4. c #8B763C",
"5. c #A06C3D",
"6. c #845F47",
"7. c #9D7841",
"8. c #8C7050",
"9. c #A8724A",
"0. c #A87A58",
"q. c #B77D58",
"w. c #B27C4C",
"e. c #B17E60",
"r. c #7C8346",
"t. c #978C57",
"y. c #949254",
"u. c #AA8A4F",
"i. c #928967",
"p. c #858874",
"a. c #9D987E",
"s. c #959772",
"d. c #B28D63",
"f. c #A39B7A",
"g. c #AE9369",
"h. c #AAA27A",
"j. c #B0A56B",
"k. c #DAAA5B",
"l. c #C28B64",
"z. c #CB996A",
"x. c #D89D79",
"c. c #C99D71",
"v. c #D4AA76",
"b. c #CEA56C",
"n. c #E6B36D",
"m. c #C29056",
"M. c #F3D27B",
"N. c #2B5B83",
"B. c #366A89",
"V. c #2C6D93",
"C. c #336D95",
"Z. c #3A769A",
"A. c #336B8E",
"S. c #3C7CA3",
"D. c #555A80",
"F. c #685E89",
"G. c #57638E",
"H. c #536E98",
"J. c #67729C",
"K. c #71758E",
"L. c #467FA2",
"P. c #867B85",
"I. c #3C82A7",
"U. c #3A86B5",
"Y. c #7C8395",
"T. c #4686AB",
"R. c #478BB6",
"E. c #4991BB",
"W. c #5084A0",
"Q. c #7088B2",
"!. c #4D99C8",
"~. c #56A1CA",
"^. c #4DA0D3",
"/. c #56AADC",
"(. c #59AFE3",
"). c #5BB3E4",
"_. c #55B2E9",
"`. c #5AB5EC",
"'. c #5BB9EE",
"]. c #55B9F5",
"[. c #5CBCF4",
"{. c #59BCF6",
"}. c #6BBCE8",
"|. c #61BDF3",
" X c #68A6C8",
".X c #5DC2FB",
"XX c #65C1F4",
"oX c #61C5FE",
"OX c #64CBFF",
"+X c #68CBFF",
"@X c #6BC5F4",
"#X c #79C9F3",
"$X c #69D5FF",
"%X c #71C3EF",
"&X c #888985",
"*X c #939987",
"=X c #8C979A",
"-X c #AB9F8B",
";X c #99A784",
":X c #AAA486",
">X c #ACB38D",
",X c #B7B688",
"<X c #B2AC9B",
"1X c #9799A8",
"2X c #8F8DA4",
"3X c #99A9AF",
"4X c #B8B3B2",
"5X c #C6B887",
"6X c #DCAD89",
"7X c #E9B797",
"8X c #F3BD93",
"9X c #E7B383",
"0X c #C8BFA3",
"qX c #CEC591",
"wX c #DACD9E",
"eX c #ECC789",
"rX c #E7CB9C",
"tX c #FFF597",
"yX c #D8D6AA",
"uX c #D0CDAE",
"iX c #E8D5AC",
"pX c #DFE6BA",
"aX c #FAE7BD",
"sX c #FCF5BB",
"dX c #EEE5AB",
"fX c #9098CC",
"gX c #91A7C2",
"hX c #AFB2C4",
"jX c #94C6DD",
"kX c #94D3EE",
"lX c #A2DAEC",
"zX c #AED9E0",
"xX c #DBE0DB",
"cX c #C6CCE3",
"vX c #F0FFFF",
"bX c #CECBC0",
/* pixels */
"[.[.[.[.[.[.[.[.[.[.[.[.[.[.[.[.[.[.[.[.[.[.[.[.[.[.[.[.[.[.[.[.[.[.[.[.[.[.[.[.[.[.[.[.[.[.[.[.[.[.[.[.[.[.[.",
"[.[.[.[.[.[.[.[.[.[.[.[.[.[.[.[.[.[.[.[.[.[.[.[.[.[.[.[.[.[.[.[.[.[.[.[.[.[.[.[.[.[.[.[.[.[.[.[.[.[.[.[.[.[.[.",
"[.[.[.[.[.[.[.[.[.[.[.[.[.[.[.[.[.[.[.[.[.[.[.[.[.[.[.[.[.[.[.[.[.[.[.[.[.[.[.[.[.[.[.[.[.[.[.[.[.[.[.[.[.[.[.",
"[.[.[.[.[.[.[.[.[.[.[.[.[.[.[.[.[..X[.[.[.[.[.[.|.[.[.[.[.[.[.[.[.[.[.[.[.[.[.[.[.[.[.[.[.[.[.[.[.[.[.[.[.[.[.",
"[.[.[.[.[.[.[.[.[.[.[.[.[.[.[.[.[.[.[.[.[.[.[.[.[.{.|.|.[.|.[.[.[.[.[.[.[.[.[.[.[.[.[.[.[.[.[.[.[.[.[.[.[.[.[.",
"[.[.[.[.[.[.[.[.[.[.[.[.[.[.[.[.[.[.[.[.{.[.|.jXO.| | | 3X@X[.|.[.[.[.[.[.[.[.[.[.[.[.[.[.[.[.[.[.[.[.[.[.[.[.",
"[.[.[.[.[.[.[.[.[.[.[.[.[.[.[.[.[.[.[.[.XX@X;.g 1.q.>.3.D z  XoX[.[.[.[.[.[.[.[.[.[.[.[.[.[.[.[.[.[.[.[.[.[..X",
"[.[.[.[.[.[.[.[.[.[.[.[.[.[.[.[.[.[.|.{.}.O.f 1.5.d.3.s <.,.g ~.].|.[.[.[.[.[.|.XX[.[.[.[.[.[.[.[.[.[.[.[.[.[.",
"[.[.[.[.[.[.[.[.[.[.[.[.[.[.[.[.[.[.`.OXW.a 0.l.z.7.>.2.,.9X3.A kX.X.X[.[.[.{.%X@X{.[.[.[.[.[.[.[.[.[.[.[.[.[.",
"[.[.[.[.[.[.[.[.[.[.[.[.[.[.[.[.[.[.[.}.' 9.l.k v s v q.9.3.z.9.=X.X].{.[.{..XoX.X[.[.[.[.[.[.[.[.[.[.[.[.[.[.",
"[.[.[.[.[.[.[.[.[.[.[.[..X[.[.[.[.[.+XQ.D l.k 9.,.5.z.3.z.b.:.w.V W..X'.XXjXQ./ T.oX[.[.[.[.[.[.[.[.[.[.[.[.[.",
"[.[.[.[.[.[.[.[.[.[.[.[.[.[.[.[.[.[.).x f ,.c.6X,.z.u.eX1.q.v.k | )..X.X).2Xj.O.R..X[.[.[.[.[.[.[.[.[.[.[.[.[.",
"[.[.[.[..X[.[.[.[.[.[.[.[.[.[.[.[.[.(.e : q.c.s v e.1 d.d., 0.e.A *XgX^.2X-X  &XlX{.|.[.[.[.[.[.[.[.[.[.[.[.[.",
"[.[.[.[.[.[.[.[.[.[.[.[.[.[.[.[.[.[.oXU.x x.s r | A <.z _ : g f > o.Y.) :X. ~ .XlX#X{.[.[.[.[.[.[.[.[.[.[.[.[.",
"[.[.[.[.[.[.[.[.[.[.[.[.[.[.[.[.[.[.oXU.l 6.1 4X*.h.8X6.3X .d.* p p.C -.; ~ OX[.].{.[.[.[.[.[.[.[.[.[.[.[.[.[.",
"[.[.[.[.[.[.[.[.[.[.[.[.[.[.[.[.[.[.oXR.. . a rX7XM.dX6XdX9.x + @ $.p.B = .X[.[.[.[.[.[.[.[.[.[.[.[.[.[.[.[.[.",
"[.[.[.[.[.[.[.[.[.[.[.[.[.[.[.[.[.[.OXU.d l r.6XM.eXc.tXv.z . o o O ] K.] ~ .X[.[.[.[.[.[.[.[.[.[.[.[.[.[.[.[.",
"[.[.[.[.[.[.[.[.[.[.[.[.[.[.[.[.[.{./.u i.u._ e c.8XrXeXA % %.O e t.t o y r ! OX[.[.[.[.[.[.[.[.[.[.[.[.[.[.[.",
"[.[.[.[.[.[.[.[.[.[.[.[.[.[.[.[.oX}.*X,XpXaXg.@ P v.k.c   %.Y @ y.sX<Xi R.0 W OX[.[.[.[.[.[.[.[.[.[.[.[.[.[.[.",
"[.[.[.[.[.[.[.[.[.[.[.[.[.[.[..XhXh.qXsXpXwXr.C ;.&.f c # e i Z j.qXdXyX|.'.[.[.[.[.[.[.[.[.[.[.[.[.[.[.[.[.[.",
"[.[.[.[.[.[.[.[.[.[.[.[.[.[.'.+X{ h.yXqX,Xa.C y.-X@.> t.r   yX:Xy.Z ,XN ~..X[.[.[.[.[.[.[.[.[.[.[.[.[.[..X[.[.",
"[.[.[.[.[.[..X[.[.[.[.[.[.[.'..XH f.yXy.s.vX,Xy.- o.*.e   ] } r r.>X4X# ^..X[.[.[.[.[.[.[.[.[.[.[.[.[.[.[.[.[.",
"[.[.[.[.[.[.[.[.[.[.[.[..X[.'.OXJ S j.4.N E :XaX-   1X&Xo 4X#.l uXn N # /..X[.[.[.[.[.[.[.[.[.[.[.[.[.[.[.[.[.",
"[.[.[.[.[.[.[.[.[.[.[.[.[.'.+XN.p.s.F M M y.o.3 K.  ' -.  *X@.P.m X.y.h.Q _..X[.[.[.[.[.[.[.[.[.[.[.[.[.[.[.[.",
"[.[.[.[.[.[.[.[.[.[.[.[.[.[.OX~ S uXuX0XwXS ;.3 ; =Xo.[ I +.I ;   X.yXs.q `.[.[.[.[.[.[.[.[.[.[.[.[.[.[.[.[.[.",
"[.[.[.[.[.[.[.[.[.[.[.[.[.[.'.OXJ   e ; . . 9 K 8 ; @ F.$.7 y 9 . o 7 e E.[.[.[.[.[.[.[.[.[.[.[.[.[.[.[.[.[.[.",
"[.[.[.[.[.[.[.[.[.[.[.[.[.[.[.OXJ & D./ &   6 #.T F S B Z G %.8 @ # K fX@._.[.[.[.[.[.[.[.[.[.[.[.[.[.[.[.[.[.",
"[.[.[.[.[.[.[.[.[.[.[.[.[.[.|..XH U H.Q @.9     4 i.4 4 s.Z   . m 4 Y Q.%.oX[.[.[.|.[.[.[.[.[.[.[.[.[.[.[.[.[.",
"[.[.[.[.[..X[.[.[.[.[.[.[.[.@X#X!.G D.Y 8 &   0 =.4X*X-X+.3 ) - X.# -.[ & N.[.[.[.{.[.[.[.[.[.[.[.[.[.[.[.[.[.",
"[.[.[.[.[.[.[.[.[.[.[.[.[.[.[.|.+Xq e o C +.  $ 8 F.i.-XP J.K.o p ' l S X 0 oX].lX#X].[.[.[.[.[.[.[.[.[.[.[.[.",
"[.[.[.[.[.[.[.[.[.[.[.[.[.[.[.{.[.6 @ C l N 2 . < $ . . G fX%.] % 2 *X} ' q _.].kXkX].[.[.[.[.[.[.[.[.[..X[.[.",
"[.[.[.[.[.[.[.[.[.[.[.[.[.[.oX'.w   - )   P 0 d.z.  & $ G J./ @.    $ K ] ; W OX[.[.[.[.[.[.[.[.[.[.[.[.[.[.[.",
"[.[.[.[.[.[.[.[.[.[.[.[.[.[.).L . +.x t @ E y q.x.  E ] P %.G.@.    o V 8.5XH OX[.[.[.[.[.[.[.[.[.[.[.[.[.[.[.",
"[.[.[.[..X[.[.[.[.[.[.[.'.+XZ.. 8.n.v.: - P 0 m.n.  I T P %.3X@.  o   C 4.S T.XX[.[.[.[.[.[.[.[.[.[.[.[.[.[.[.",
"[.[.[.[.[.[.[.[.[.[.[.[.`.OXB.b n.6XV     # $ t V p = * P J.fXY.0   ! C.N.S.OX|.[.[.[.[.[.[.[.[.[.[.[.[.[.[.[.",
"[.[.[.[.[.[.[.[.[.[.[.[.`.OXH.D 8Xz = A.      L J.#.  o ;.pXpXxX2X- S.$X+XoX'.[.[.[.[.[.[.[.[.[.[.[.[.[.[.[.[.",
"[.[.[.[.[.[.[.[.[.[.[.[.'.+XZ.# r T.'.R.5 G.#.3X3X9   X.| 3 < B bXp C.oX'.[.[.[.[.[.[.[.[.[.[.{.[.[.[.[.[.[.[.",
"[.[.[.[.[.[.[.[.[.[.[.[..X'..X`._.[.OXR.5 fXzXcXhX% o # #   o   ) C V.OX'.[.[.[.[.[.[.[.[.[.[.[.[.[.[.[.[.[.[.",
"[.[.[.[.[.[.[.[.[.[.[.[.[.[.[.[.[.[.oXE.  B :X>Xa..   * + : > > *   Z.OX'.[.[.[.[.[.[.[.[.[.[.[.[.[.[.[.[.[.[.",
"[.[.[.[.[.[.[.[.[.[.[.[.[.[.[.[.[.[.[./.L         o o : , f j M d q ~.{.[.[.[.[.[.[.[.[.[.[.[.[.[.[.[.[.[.[.[.",
"[.[.[.[.[.[.[.[.[.[.[.[.[.[.[.[.[.[.'.+XI.  @ o o o     r <.j 1., ( OX`.[.[.[.[.[.[.[.[.[.[.[.[.[.[.[.[.[.[.[.",
"[.[.[.[.[.[.[.[.[.[.[.[.[.[.[.[.[.[.[.[.).R   o   w B.  e o.t } . ( OX[.[.[.[.[.[.[.[.[.[.[.[.[.[.[.[.[.[.[.[.",
"[.[.[.[.[.[.[.[.[.[.[.[.[.[.[.[.[.[.[.'.OX(   o   H U.  ) } = ..i   T.OX[.[.[.[.[.[.[.[.[.[.[.[..X[.[.[.[.[.[.",
"[.[.[.[.[.[.[.[.[.[.[.[.[.[.[..X[.[.[.'.OX~   O   ! Z.t 3Xe   ; } + C.OX[.[.[.[.[.[.[.[.[.[.[.[.[.[.[.[.[.[.[.",
".X[.[.[.[.[.[.[.[.[.[.[.[.[.[.[.[.[.[.[.oXS.O   W $XV.B n   n o i *.U.OX[.[.[.[.[.[.[.[.[.[.[.[.[.[.[.[.[.[.[.",
"[.[.[.[.[.[.[.[.[.[.[.[.[.[.[.[.[.[.[.[.'.OXI.! XX.XZ.X ; O u $   ( OX`.[.[.[.[.[.[.[.[.[.[.[.[.[.[.[.[.[.[.[.",
"[.[.[.[.[.[.[.[.[.[.[.[.[.[.[.[.[.[.[.[.[.[..XOX'.OXZ.@ ; e n u   ~ +X'.[.[.[.[.[.[.[.[.[.[.[.[.[.[.[.[.[.[.[.",
"[.[.[.[.[.[.[.[.[.[.[.[.[.[.[.[.[.[.[.[.[.[.[.[.[.+XZ.< 3 ` ;.{   ( OX'.[.[.[.[.[.[.[.[.[.[.[.[.[.[.[.[.[.[.[.",
"[.[.[.[.[.[.[.[.[.[.[.[.[.[.[.[.[.[.[.[.[.[.! = = ! V.g 0.- o < 8.l L.oX'.[.[.[.[.[.[.[.[.[.[.[.[.[.[.[.[.[.[.",
"[.[.[.[.[.[.[.[.[.[.[.[.[.[.[.[.[.[.[.'.OXZ.        O l d $ 6 - x A R.oX'.[.[.[.[.[.[.[.[.[..X[.[.[.[.[.[.[.[.",
"[.[.[.[.[.[.[.[.[.[.[.[.[.[.[.[.[.[.[.[.[.+XB.w W w       P ] ) 3 J [.[.[.[.[.[.[.[.[.[.[.[.[.[.[.[.[.[.[.[.[.",
"[.[.[.[.[.[.[.[.[.[.[.[.[.[.[.[.[.[.[.[.[.[..X.XOX).H   e =     o   Z.OX'.[.[.[.[.[.[.[.[.[.[.[.[.[.[.[.[.[.[.",
"[.[.[.[.[.[.[.[.[.[.[.[.[.[.[.[.[.[.[.[.[.[.[.'.'..X).w ; -   . X   Z.oX[.[.[.[.[.[.[.[.[.[.[.XX[.[.[.[.[.[.[.",
"[.[.[.[.[.[.[.[.[.[.[.[.[.[.[.[.[.[.[.[.[.[.[.[.[.'..X).q .     o   Z.OX'.[.[.[.[.[.[.[.[.[.[.'.[.[.[.[.[.[.[.",
"[.[.[.[.[.[.[.[..X[.[.[.[.[.[.[.[.[.[.[.[.[.[.[.[.[.'..X_.!.6 o   / |.[.[.[.[.[.[.[.[.[.[.[..X'.[.[.[.[.[.[.[."
};
