/* XPM */
static char *player43[] = {
/* columns rows colors chars-per-pixel */
"55 55 232 2 ",
"   c #010101",
".  c #0C0202",
"X  c #0B0905",
"o  c #03040B",
"O  c #050B0B",
"+  c #0A0B0B",
"@  c #040A06",
"#  c #150301",
"$  c #120E0E",
"%  c #170906",
"&  c #13130C",
"*  c #1B140C",
"=  c #0A0C15",
"-  c #070915",
";  c #140E18",
":  c #0B1213",
">  c #0C171A",
",  c #141C1B",
"<  c #151716",
"1  c #08100C",
"2  c #230A05",
"3  c #320E01",
"4  c #23120C",
"5  c #281308",
"6  c #361707",
"7  c #291B15",
"8  c #391F14",
"9  c #18211D",
"0  c #372606",
"q  c #292718",
"w  c #382219",
"e  c #333319",
"r  c #0D1322",
"t  c #1B1C2C",
"y  c #141924",
"u  c #171C34",
"i  c #251E2A",
"p  c #18212A",
"a  c #142935",
"s  c #18323D",
"d  c #272A29",
"f  c #3A2A28",
"g  c #2A332D",
"h  c #373828",
"j  c #252835",
"k  c #363C3B",
"l  c #2F3331",
"z  c #4B0D00",
"x  c #441C02",
"c  c #4B1A06",
"v  c #541B01",
"b  c #461E13",
"n  c #4B240A",
"m  c #56260B",
"M  c #452518",
"N  c #572615",
"B  c #44341A",
"V  c #672C0C",
"C  c #622A12",
"Z  c #6D3415",
"A  c #6A361B",
"S  c #723B1A",
"D  c #47392D",
"F  c #583C2C",
"G  c #453834",
"H  c #492E2A",
"J  c #653925",
"K  c #733E28",
"L  c #31433A",
"P  c #4E491E",
"I  c #77431A",
"U  c #66450E",
"Y  c #4E4A3A",
"T  c #574935",
"R  c #584D2E",
"E  c #674828",
"W  c #7A4827",
"Q  c #785337",
"!  c #201D43",
"~  c #1D3749",
"^  c #213C4E",
"/  c #283648",
"(  c #393847",
")  c #363757",
"_  c #2B2D46",
"`  c #33376A",
"'  c #1F435D",
"]  c #3A4341",
"[  c #3D4844",
"{  c #244659",
"}  c #34405C",
"|  c #2A546C",
" . c #2C5A75",
".. c #2C4864",
"X. c #30627E",
"o. c #494A5A",
"O. c #4B5558",
"+. c #56595A",
"@. c #544E4C",
"#. c #605142",
"$. c #745544",
"%. c #696848",
"&. c #7D754D",
"*. c #676658",
"=. c #7A7258",
"-. c #4A556F",
";. c #62576B",
":. c #57646A",
">. c #516B76",
",. c #69676B",
"<. c #717370",
"1. c #8D532E",
"2. c #8A5633",
"3. c #915A34",
"4. c #884F31",
"5. c #976538",
"6. c #896F3A",
"7. c #A26C38",
"8. c #AE7F3F",
"9. c #8B5C40",
"0. c #8B6547",
"q. c #966449",
"w. c #83774B",
"e. c #867556",
"r. c #906D55",
"t. c #A5734B",
"y. c #AB7753",
"u. c #B97E4F",
"i. c #837C6A",
"p. c #877A73",
"a. c #8A824A",
"s. c #B9874A",
"d. c #B9825B",
"f. c #8A8868",
"g. c #979775",
"h. c #8E8F73",
"j. c #B78869",
"k. c #A99070",
"l. c #ABA872",
"z. c #C18E5A",
"x. c #C49974",
"c. c #C69069",
"v. c #D5A46B",
"b. c #D6B175",
"n. c #E7B379",
"m. c #F1B671",
"M. c #356B8B",
"N. c #336584",
"B. c #356F91",
"V. c #397495",
"C. c #27668D",
"Z. c #4D5D84",
"A. c #565C87",
"S. c #525C91",
"D. c #587E96",
"F. c #576E8E",
"G. c #666B8F",
"H. c #6E75A4",
"J. c #3E89B6",
"K. c #3F81A6",
"L. c #56819B",
"P. c #6F8399",
"I. c #77849E",
"U. c #798088",
"Y. c #4082A8",
"T. c #4785A9",
"R. c #448CB5",
"E. c #478DB7",
"W. c #4892BC",
"Q. c #5995B8",
"!. c #7686B6",
"~. c #7A8BA8",
"^. c #4D9DCB",
"/. c #4A97C3",
"(. c #559CC5",
"). c #609EC0",
"_. c #5DA3CA",
"`. c #4EA1D2",
"'. c #53A5D5",
"]. c #55AADB",
"[. c #54AAD3",
"{. c #68ADD0",
"}. c #56AEE3",
"|. c #5AB7ED",
" X c #5BB8EE",
".X c #55B3E7",
"XX c #56B9F3",
"oX c #5CBCF4",
"OX c #5DBFF8",
"+X c #53B9F6",
"@X c #63BEF2",
"#X c #69BCEB",
"$X c #5FC1F7",
"%X c #5EC2FB",
"&X c #5EC9FF",
"*X c #55C4FF",
"=X c #62C5FE",
"-X c #63CAFF",
";X c #69C4F8",
":X c #76C8F7",
">X c #65D1FF",
",X c #75C4ED",
"<X c #989287",
"1X c #A6A783",
"2X c #B2B197",
"3X c #9298BA",
"4X c #99A7B2",
"5X c #A6BABE",
"6X c #D1B68A",
"7X c #C4BCA8",
"8X c #C8C494",
"9X c #D5CB99",
"0X c #E4D99A",
"qX c #FACE99",
"wX c #FBE09B",
"eX c #D8CDA7",
"rX c #CDCFB2",
"tX c #E8DAB1",
"yX c #ECE3B6",
"uX c #FAF7B9",
"iX c #93A1C2",
"pX c #A8BCC6",
"aX c #88D3F8",
"sX c #9CD5EC",
"dX c #A8DFFB",
"fX c #8EE2FE",
"gX c #FCF9C7",
"hX c #FAF9D8",
"jX c #F3EAC1",
"kX c #CCDFE0",
"lX c #EAF3E6",
"zX c #D5CFC2",
/* pixels */
"oXoXoXoXoXoXoXoXoXoXOXoXoXoXoXoXoXoXoXoXoXoXoXoXoXoXoXoXoXoXoXoXoXoXoXoXoXoXoXoXoXoXoXoXoXoXoXoXoXoXoXoXoXOXoX",
"oXoXoXoXoXoXoXoXoXoXoXoXoXoXoXoXoXoXoXoXoXoXoXoXoXoXoXoXoXoXoXoXoXoXoXoXoXoXoXoXoXoXoXoXoXoXoXoXoXoXoXoXoXoXoX",
"oXoXoXoXoXoXoXoXoXoXoXoXoXoXoXoXoX$XoXoXoXoXoXoXoXOXoXoXoXoXoX@XoXoXoXoXoXoXoXoXoXoXoXoXoXoXoXoXoXoXoXoXoXoXoX",
"oXoXoXoXoXoXoXoXoXoXoXoXoXoXoXoXoXoXoXoXoXoXoXoXoXoXoXoXoXoXXXOX%XOXoXoXXXoXoXoXoXoXoXoXoXoXoXoXoXoXoXoXoXoXoX",
"OXoXoXoXoXoXoXoXoXoXoXoXoXoXoXoXoXoXoXoXoXoXoXoXoXoXXX$XOXoX=X{.+.Q.=X@X;XoXoXoXoXoXoXoXoXoXoXOXoXoXoXoXoXoXoX",
"oXoXoXoXoXoXoXoXoXoXoXoXoXOXoXoXoXoXoXoXoXoXoXoXoX XoX X#XkX=.q.u.Q #.pX;XXXoXoXoXoXoXoXoXoXoXoXoXoXoXoXoXoXoX",
"oXoXoXoXoXoXoXoXoXoXoXoXoXoXoXoXoXoXoXoXoXoXoXoX$X%X>XF.b x.j.I 5.3.d.9.{.%X XoX@XoXoXoXoXoXoXoXoXoXoXoXoXoXoX",
"oXoXoXoXoXoXoXoXoXoXoXoXoXoXoXoXoXoXoXoXoXoXoXOX XQ.).o.z 9.q.3.4.j.K m x.lXdX XOXoXoXoXoXoXoXoXOXoXoXoXoXoXoX",
"oXoXoXoXoXoXoXoXoXoXoXoXoXoXoXoXoXoXoXoXoXoXoX%X'.5 c W 5.S c.n.8.v.y.5.1.6X5X;XoXoXoXoXoXoXoXoXoXoXoXoXoXoXoX",
"oXoXoXoXoXoXoXoXOXoXoXoXoXoXoXoXoXoXoXoXoXoXoX%X:Xk.C 1.t.I I s.qXv.n.v.8.3.4X+X@XOXoXoXoXoXoXoXoXoXoXoXoXoXoX",
"oXoXoXoXoXoXoXoXoXoXoXoXoXoXoXoXoXoXoXoXoXoX=X| >.@.2 4.j.U t.3.3.A 5.v.7.Z 7XaX+XoXoXoXoXoXoXoXoXoXoXoXoXoXoX",
"oXoXoXoXoXoXoXoXoXoXoXoXoXoXoXoXoXoXoXoXoXoX$X/.: X M 3.5.U b.7.v.b.6XqX4.z ,.aXoXoXoXoXoXoXoXoXoXoXoXoXoXoXoX",
"oXoXoXoXoXoXoXoXoXoXoXoXoXoXoXoXoXoXoXoXoXoXoX$X@X).n S m M E c.4.K T F m v <.=X XoXoXoXoXoXoXoXoXoXoXoXoXoXoX",
"oXoXOXoXoXoXoXoXoXoXoXoXoXoXoXoXoXoXoXoXoXoXoXoX=XG.v m M 2 r.S C H X w w >.=XoXXXoXoXoXoXoXoXoXoXoXoXoXoXOXoX",
"oXoXoXoXoXoXoXoXoXoXoXoXOXoXoXoXoXoXoXoXoXoX X$X]./ n 5 o $ 6.Z N p.i.2Xk .XOXoXoXoXoXoXoXoXoXoXoXoXoXoXoXoXoX",
"oXoXoXoXoXoXoXoXoXoXoXoXoXoXoXoXoXoXoXoXoXoX$X X&X{.x 0 X   # J r.6XtXyX1X XoXoXoXoXoXoXoXOXoXoXoXoXoXoXoXoXoX",
"oXoXoXoXoXoXoXoXoXoXoXoXoXoXoXoXoXoXoXoXoXoXoXOX.X( U 6.a.1Xi.# $.wXgXhXlX@XXXoXoXoXoXoXoXoXoXoXoXoXoXoXoXoXoX",
"oXoXoXoXoXoXoXOXoXoXoXoXoXoXoXoXoXoXoXoXoXoXOX|.] e w.0XgXhXhXg.w x.tXsX;XoXoXoXoXoXoXoXoXoXoXoXoXoXoXoXoXoXoX",
"oXoXoXoXoXoXoXoXoXoXoXoXoXoXoXoXoXoXoXoXoXOX|.~ f.&.8XyXgXuXuXhX+.2 0 K.OXoXXXoXoXoXoXoXoXoXoXoXoXoXoXoXoXoXOX",
"oXoXoXoXoXoXoXoXoXoXoXoXoXoXoXoXoXoXoXoXOX Xa . 2Xa.9XgXgXjXgXh.- r P %.].;XoXoX@XoXoXoXoXoXoXoXoXoXoXoXoXoXoX",
"oXoXoXoXoXoXoXoXOXoXoXoXoXoXOXoXoXoXoX%X.Xs o ; f.eXg.9XuX0X&.& ,.u <Xg.'.;XoXoXoXoXoXoXoXOXoXoXoXoXoXoXoXoXoX",
"oXoXOXoXoXoXoXoXoXoXoXoXoXoXoXoXoXoX%X].~ t G.Z.O e.0Xk.&.%.  @.8X  Y Y `.%XoXoXoXoXoXoXoXoXoXoXoXoXoXoXoXoXoX",
"oXoXoXoXoXoXoXoXoXoXoXoXoXoXoXoXoX X=XJ., F.iX4X:   f.tX6Xh   * l.&.G #.].%XoXoXoXoXoXoXoXoXoXoXoXoXOXoXoXoXoX",
"oXoXoXoXoXoXoXoXoXoXoXoXoXoXoXoXoXoX=XR.p S.A.G.>     h.f.1 * g.l.h i q ~  XoXoXoXoXoXoXoXoXoXoXoXoXoXoXoXoXoX",
"oXoXoXoXoXoXoXoXoXoXoXoXoXoXoXoXoXoX=XR.o k h d @     1 X ` p <.Y = o j y oXoXoXoXoXoXoXoXoXoXoXoXoXoXoXoXoXoX",
"oXoXoXoXoXoXoXoXoXoXoXoXoXoXoXoXoXoX=XJ.q l.l.f.$ o ! t d @.,.%._ o.  p - W.=XoXOXoXoXoXoXoXoXoXoXoXoXoXoXoXoX",
"oXoXoXoXoXoXoXoXoXoXoXoXoXOXoXoXoXoX=XR.* *.%.#.- u } - ,.2XjX=.. e * f F f /.%XoXoXoXoXoXoXoXoXoXoXoXoXoXoXoX",
"oXoXoXoXoXoXOXoXoXoXoXoXoX@XoXoXoX X=XJ.4 f.g.<.; / : ; ,   =.%.  P 5 k.qXQ ^ -XoXoXoXoXoXoXoXoXoXoXoXoXoXoXoX",
"oXoXoXoXoXoXoXoXoXoXoXoXoXoXoXoXoXoX%X_.F H 4   = j = / -.u o e.<.u o r.x.Q ^ -X XoXoXoXoXoXoXoXoXoXoXoXOXoXoX",
"oXoXoXoXoXoXoXoXoXoXoXoXoXoXoXoXoXXX:XzXd.n.t.$.* o t ) ..y . $ G ; o % 6 # { -XoXoXoXoXoXoXoXoXoXoXoXoXoXoXoX",
"oXoXoXoXoXoXoXoXoXoXoXoXoXoXoXoXoXoX=XpXu.m.z.0.*   - r - o o.  E w.o r O a  XoXoXoXoXoXoXOXoXoXoXoXoXoXoXoXoX",
"oXOXoXoXoXoXoXoXoXoXoXoXoXoXoXoXXXoXOX].<Xj.e.* . = p ) ^ t *.- J E C.=X|.oXoXoXoXoXoXoXoXoXoXoXoXoXoXoXoXoXoX",
"oXoXoXoXoXoXoXoXoXoXoXoXoXoXoXoXoXoX;X@X{     o r / ) ^ ` ) ) ( -.~ J.-XoXoXoXoXoXoXoXoXoXoXoXoXoXoXoXoXoXoXoX",
"oXoXoXoXoXoXoXoXoXoXoXoXoXoXoXoXXXOX@X:.w   > u -.Z.Z.Z.A...i T fXdX:X+XoXoXoXoXoXoXoXoXoXoXoXoXoXoXoXoXoXoXoX",
"oXoXoXoXoXoXoXoXoXoXoXoXoXoXoXoXXX-X>.L yXR ! S.H.3X!.).~.o.6 V P.aX,X$XoXoXoXoXoXoXoXoXoXoXoXoXoXoXoXoXoXoXoX",
"oXoXoXoXoXoXoXoXoXOXoXoXoXoX;X:X%X{ q rXgXeXzX3XH.I.H.H.A.f n z o.*X XoXoX@XoXoXoXoXoXoXoXoXoXoXOXoXoXoXoXoXoX",
"oXoXoXoXoXoXoXoXoXoXoXoXoXOX=X;X{ T %.gX2X( 9 2X4XH.H.,.H 6 J q.N L.-X XoXoXoXoXOXoXoXoXoXoXoXoXoXoXoXoXoXoXoX",
"oXoXoXoXoXOXoXoXoXoXoXoXoX}.].O.  = eX8X*     + 2X4X!.;.c c S y.W r.:XXXoXoXoXoXoXoXoXoXoXoXoXoXoXoXoXoXoX$XoX",
"oXoXoXoXoXoXoXoXoXoXoXoX=XE.  .   t <X<Xj . 4 . $ h.G.;.3 v Z 5.0.v D.*X XoXoXoXoXoXoXoXoXoXoXoXoXoXoXoXoXoXoX",
"oXoXoXoXoXoXoXoXoXoXoXoX=XE.  = @ O.) j   7 M 6 #   p j 3 m V W 5.v D.%XoXoXoXoXoXoXoXoXoXoXoXoXoXoXoXoXoXoXoX",
"oXoXoXoXoXoXoXoXoXoXoXoX=XR.  > L l g     5 n c % o     # b Z W t.V L.-X XoXoXoXoXoXoXoXoXoXoXoXoXoXoXoXoXoXoX",
"oXoXoXoXoXoXoXoXoXoXoXoX=XR.  k l   1 > + 3 n M . p ^...  8 n I y.W f _.@XoXoXoXoXoXoXoXoXoXoXoXoXoXoXoXoXoXoX",
"oXoXoXoXoXoXoXoXoXoXoX X=XE.  , O   9 , & M w % y ].=X%X^ # x S t.W 3 (.-XoXoXoXoXoXoXoXOXoXoXoXoXoXoXoXoXoXoX",
"oXoXoXoXoXoXoXoXoXoXoXoX=XW.  M.X.  , : * 4   p ].%X|.=X{   b N J M # B.^.=XOXXXoXoXoXoXoXoXoXoXoXoXoXoXoXoXoX",
"oXoXoXoXoXoXoXoXoXoXoX X=X^.a Y.>Xa X     p ^ '.%XoXoX%XN.s w 6 4 . @ < d E.@XoXoXoXoXoXoXoXoXoXoXoXoXoXoXoXoX",
"oXoXoXoXoXoXoXoXoXoXoXoXXXOX=X=X$XN.  > | W.>XoXoXoXoXoX=X=X>   @ @ = ] L a OXoXoXoXoXoXoXoXoXoXoXoXoXOXoXoXoX",
"oXoXoXoXoXoXoXoXoXoXoXoXoXoXoXoXoX=XV.K.>X$X XoXoXoXoXoX XoXB.    g d   1 K.-X=X=XoXoXoXoXoXoXoXoXoXoXoXoXoXoX",
"oXoXoXoXoXoXoXoXoXoXoXoXoXoXoXoXoXoX-X=X|.oXoXoXoXoXoXoXoX=X.XO   $ ,   > [.s a E.=XoXoXoXoXoXoXoXoXoXoXoXoXoX",
"OXoXoXoXoXoXoXoXoXoXoXoXoXoXoXoXoXoXoX XoXoXoXoXoXoXoXoXoXoXoXY.  @ [ g @ : @ + O /.&X XoXoXoXoXoXoXoXoXoXoXoX",
"oXoXoXoXoXoXoXoXoXoXoXoXoXoXoXoX X X X X XoX X X XoX XoX X|.%X/.  , L d   9 ,.L   E.=XoXoXoXoXoXoXoXoXoXoXoXoX",
"oXoXoXoXoXoXoXoXoXoXoXoXoXoX%X>X-X-X-X-X-X-X-X-X=X-X-X-X&X-X>X.Xs < 1 @ 9 O.L @ p ^.=XoXoXoXoXoXoXoXoXoXoXoXoX",
"oXoXoXoXoXoXoXoXoXoXoXoXoX%X/.| X. .M.B.M.B.M.M.M.M.M.M.M.M.N.V.|   > 9 , ,   a ].=X XoXoXoXoXoXoXoXoXoXoXoX$X",
"oXoXoXoXoXOXoXoXoXoXoXoXoX=X(. .X. .O                               @ , 1 1   s  .^.%XoXoXoXoXoXoXoXoXoXoXoXoX",
"oXoXoXoXoXoXoXoXoXoXoXoXoXoX$X-X-X-XW.E.E.E.R.R.:             X @     @     @     E.%XXXoXoXoXoXoXoXoXoXoXoXoX",
"oXoXoXoXoXoXoXoXoXoXoXoXoXoXoXoX X@X-X=X=X=X=X=X`.^.^.^.^.^.`.T.  .         X   N.@XoXoXoXoXXXoXoXoXoXoXoXoXoX"
};
