/* XPM */
static char * player21_xpm[] = {
"64 64 704 2",
"  	c #F8C984",
". 	c #F8CA86",
"+ 	c #F8CC8C",
"@ 	c #F8CB89",
"# 	c #F8D095",
"$ 	c #F8CA87",
"% 	c #F8CD8F",
"& 	c #F8C983",
"* 	c #F8C884",
"= 	c #F7C784",
"- 	c #F8CA85",
"; 	c #F8C985",
"> 	c #F7C584",
", 	c #F5BE84",
"' 	c #F4BB83",
") 	c #F4BC83",
"! 	c #F6C384",
"~ 	c #F8CE90",
"{ 	c #F8D094",
"] 	c #F8CD8E",
"^ 	c #F7C684",
"/ 	c #F5C084",
"( 	c #F2B583",
"_ 	c #F1B183",
": 	c #F2B383",
"< 	c #F8D198",
"[ 	c #F8D49F",
"} 	c #F8D49E",
"| 	c #F4BD83",
"1 	c #F2B683",
"2 	c #F1B283",
"3 	c #F1B083",
"4 	c #F2B483",
"5 	c #F4BA83",
"6 	c #F6C484",
"7 	c #F8CB8A",
"8 	c #F8D4A0",
"9 	c #F3B883",
"0 	c #F6C184",
"a 	c #F8CA88",
"b 	c #F8CF92",
"c 	c #F3B983",
"d 	c #F5BF84",
"e 	c #F3B783",
"f 	c #F7C484",
"g 	c #F3C280",
"h 	c #F6C582",
"i 	c #F4C280",
"j 	c #DA946A",
"k 	c #E09E6E",
"l 	c #F7C783",
"m 	c #F7C883",
"n 	c #DF9E6E",
"o 	c #D58560",
"p 	c #D78861",
"q 	c #E3A471",
"r 	c #F8CC8B",
"s 	c #F8CF94",
"t 	c #EAB479",
"u 	c #D48560",
"v 	c #D4825B",
"w 	c #D6835C",
"x 	c #D78760",
"y 	c #E4A471",
"z 	c #F8D096",
"A 	c #DA9669",
"B 	c #CC7E59",
"C 	c #CB7E59",
"D 	c #D8845C",
"E 	c #D98862",
"F 	c #E8AB74",
"G 	c #F8CB88",
"H 	c #F2BF7E",
"I 	c #D38760",
"J 	c #BD7756",
"K 	c #BE7857",
"L 	c #C97D59",
"M 	c #D8855D",
"N 	c #DB8A64",
"O 	c #E9AC75",
"P 	c #E8B177",
"Q 	c #CF835D",
"R 	c #BD7856",
"S 	c #BC7756",
"T 	c #BF7958",
"U 	c #C67C59",
"V 	c #D7845D",
"W 	c #DC8B64",
"X 	c #EAAE76",
"Y 	c #F1BD7E",
"Z 	c #E29D6C",
"` 	c #DE9368",
" .	c #DD8E66",
"..	c #DE9468",
"+.	c #E39F6E",
"@.	c #E9AD76",
"#.	c #F3C080",
"$.	c #E7AD75",
"%.	c #C47D5B",
"&.	c #BD7857",
"*.	c #C47B59",
"=.	c #D6845D",
"-.	c #DD8B63",
";.	c #E6A772",
">.	c #E19B6C",
",.	c #DD8D65",
"'.	c #DB8961",
").	c #DB875F",
"!.	c #DB865E",
"~.	c #DB8861",
"{.	c #DC8C64",
"].	c #E09B6C",
"^.	c #EBB579",
"/.	c #E5AC75",
"(.	c #BD7A5B",
"_.	c #C17A58",
":.	c #D2825C",
"<.	c #DA855D",
"[.	c #D3825B",
"}.	c #CF805B",
"|.	c #CB7E5A",
"1.	c #CA7E5A",
"2.	c #CE7F5B",
"3.	c #D2815B",
"4.	c #D5835C",
"5.	c #D58762",
"6.	c #D99669",
"7.	c #EDBA7B",
"8.	c #F7C884",
"9.	c #E1AC75",
"0.	c #BE7A5B",
"a.	c #C07958",
"b.	c #CD7F5A",
"c.	c #CA7D59",
"d.	c #C27A58",
"e.	c #C17957",
"f.	c #C77B58",
"g.	c #CC835E",
"h.	c #DCA471",
"i.	c #F5C582",
"j.	c #F8CE92",
"k.	c #F7C986",
"l.	c #E8B883",
"m.	c #BF7B5B",
"n.	c #BA7655",
"o.	c #B77454",
"p.	c #B47252",
"q.	c #B97656",
"r.	c #C17D5D",
"s.	c #E2AF76",
"t.	c #F8D29B",
"u.	c #F8D39D",
"v.	c #F8CE91",
"w.	c #F5CB99",
"x.	c #F5CFAB",
"y.	c #F5CDA8",
"z.	c #C48361",
"A.	c #B77354",
"B.	c #B27152",
"C.	c #AE7155",
"D.	c #BF8963",
"E.	c #F4C582",
"F.	c #F8CF93",
"G.	c #F8D29A",
"H.	c #F8D39C",
"I.	c #F3C994",
"J.	c #EDCAA8",
"K.	c #F4CEAA",
"L.	c #F8D1AC",
"M.	c #D8A481",
"N.	c #B37253",
"O.	c #B3775A",
"P.	c #E7B77A",
"Q.	c #EBC59D",
"R.	c #EDC8A5",
"S.	c #F4CEA9",
"T.	c #EEC39E",
"U.	c #C17E5C",
"V.	c #BB7656",
"W.	c #B87555",
"X.	c #B77556",
"Y.	c #D29D6C",
"Z.	c #F7C985",
"`.	c #E8C4A0",
" +	c #EBC7A4",
".+	c #F2CCA8",
"++	c #F7D0AB",
"@+	c #F1CAA6",
"#+	c #D09674",
"$+	c #BA7656",
"%+	c #C28661",
"&+	c #F1C280",
"*+	c #E7C39F",
"=+	c #E9C5A3",
"-+	c #F0CAA6",
";+	c #F3CCA8",
">+	c #EEC8A4",
",+	c #E0B592",
"'+	c #C07C5B",
")+	c #BC7959",
"!+	c #D79F6E",
"~+	c #E8C39B",
"{+	c #E7C3A2",
"]+	c #EEC8A5",
"^+	c #EFC9A5",
"/+	c #E9C4A1",
"(+	c #E1BC9B",
"_+	c #C48362",
":+	c #BE7A5A",
"<+	c #DCA672",
"[+	c #EBC395",
"}+	c #E5C2A1",
"|+	c #ECC6A3",
"1+	c #EBC6A3",
"2+	c #E5C09E",
"3+	c #DCB998",
"4+	c #C78C6B",
"5+	c #BF7B5A",
"6+	c #DFA974",
"7+	c #F1C68F",
"8+	c #E3C1A1",
"9+	c #E9C5A2",
"0+	c #E2BE9D",
"a+	c #D9B797",
"b+	c #C69576",
"c+	c #C07B59",
"d+	c #E4B288",
"e+	c #FBD1A1",
"f+	c #F8CD99",
"g+	c #F8CA89",
"h+	c #F7C886",
"i+	c #E5C19D",
"j+	c #E6C3A1",
"k+	c #E8C3A0",
"l+	c #DFBC9B",
"m+	c #D7B596",
"n+	c #D0A282",
"o+	c #C07A59",
"p+	c #E7B793",
"q+	c #FED6B0",
"r+	c #FBD3AF",
"s+	c #F6D0AB",
"t+	c #F5CC9C",
"u+	c #F7CA89",
"v+	c #EEC591",
"w+	c #E3C1A0",
"x+	c #E7C2A0",
"y+	c #DEBC9B",
"z+	c #E4C09E",
"A+	c #EBC09A",
"B+	c #DDA982",
"C+	c #F9D1AC",
"D+	c #F9D2AD",
"E+	c #F6CFAA",
"F+	c #F1CCA9",
"G+	c #EECAA3",
"H+	c #F6C988",
"I+	c #F4C88C",
"J+	c #E3C1A2",
"K+	c #E4C2A2",
"L+	c #E0BE9E",
"M+	c #F1CBA7",
"N+	c #F0C5A0",
"O+	c #DBA57B",
"P+	c #F0C59D",
"Q+	c #F3CDA8",
"R+	c #EDC595",
"S+	c #F7C987",
"T+	c #E3DACF",
"U+	c #E2E0DF",
"V+	c #E2D4C7",
"W+	c #E4B58E",
"X+	c #C1815F",
"Y+	c #DCA97E",
"Z+	c #EFC49B",
"`+	c #ECC7A4",
" @	c #E5C1A0",
".@	c #E9C39A",
"+@	c #EBD2B3",
"@@	c #E0E0DF",
"#@	c #E1D4C9",
"$@	c #EAC5A2",
"%@	c #DFB18A",
"&@	c #C58764",
"*@	c #B97555",
"=@	c #C17D5B",
"-@	c #E1B186",
";@	c #F3CAA5",
">@	c #E3BF9D",
",@	c #E6C19F",
"'@	c #E1BF9E",
")@	c #E9C59A",
"!@	c #F5CA90",
"~@	c #E0DBD7",
"{@	c #CFD1C9",
"]@	c #E2C19F",
"^@	c #E2B893",
"/@	c #D49F77",
"(@	c #CB9370",
"_@	c #CE9773",
":@	c #CA8E6B",
"<@	c #C17F5E",
"[@	c #C07B5A",
"}@	c #C07C5A",
"|@	c #C17D5C",
"1@	c #C38060",
"2@	c #CE916E",
"3@	c #DAA481",
"4@	c #E0AE8C",
"5@	c #E7B994",
"6@	c #F4CBA5",
"7@	c #E0BD9C",
"8@	c #DBB999",
"9@	c #E0BD9B",
"0@	c #EDC48F",
"a@	c #F0AF83",
"b@	c #F6C284",
"c@	c #C1BD9A",
"d@	c #539E6F",
"e@	c #A7AE84",
"f@	c #E2BF9D",
"g@	c #E4BC98",
"h@	c #F2CBA7",
"i@	c #F6CEAA",
"j@	c #F6CEA9",
"k@	c #F1C6A1",
"l@	c #ECBE99",
"m@	c #E8B894",
"n@	c #EFC19B",
"o@	c #F4C9A4",
"p@	c #FAD2AC",
"q@	c #FDD5AF",
"r@	c #FDD5B0",
"s@	c #FCD4AE",
"t@	c #DAB797",
"u@	c #D0B091",
"v@	c #D5B495",
"w@	c #DAB898",
"x@	c #DFBD99",
"y@	c #F6C888",
"z@	c #F4C883",
"A@	c #7DA169",
"B@	c #2D925B",
"C@	c #38965E",
"D@	c #9AAD81",
"E@	c #D7BE9A",
"F@	c #E6C3A0",
"G@	c #F3CDA9",
"H@	c #F8D0AC",
"I@	c #FBD3AE",
"J@	c #FFD7B1",
"K@	c #D2B191",
"L@	c #C7A789",
"M@	c #CAA98A",
"N@	c #CDAD8E",
"O@	c #D2B192",
"P@	c #EBC390",
"Q@	c #D7BD7C",
"R@	c #B9B375",
"S@	c #6DA871",
"T@	c #369F68",
"U@	c #469D68",
"V@	c #65A16F",
"W@	c #E6C4A1",
"X@	c #F1CAA7",
"Y@	c #FED6B1",
"Z@	c #D9C29C",
"`@	c #9EA27C",
" #	c #C6AE92",
".#	c #CAAA8D",
"+#	c #CCAD8E",
"@#	c #D3B293",
"##	c #DFBB96",
"$#	c #F6C886",
"%#	c #F7C984",
"&#	c #D9C180",
"*#	c #61A771",
"=#	c #36A068",
"-#	c #3E9D66",
";#	c #CEBD97",
">#	c #FCD4AF",
",#	c #FDD6B0",
"'#	c #FCD6B0",
")#	c #FBD5AF",
"!#	c #F9D3AD",
"~#	c #F4D0AA",
"{#	c #CCBF97",
"]#	c #589B69",
"^#	c #3F9966",
"/#	c #BBC5BD",
"(#	c #CCC8C4",
"_#	c #CFC5B7",
":#	c #DCBFA2",
"<#	c #F1C58A",
"[#	c #DAC180",
"}#	c #64A971",
"|#	c #3EA36D",
"1#	c #A9B589",
"2#	c #D3C19B",
"3#	c #D2C49C",
"4#	c #CDC59B",
"5#	c #CAC59B",
"6#	c #C5C498",
"7#	c #C4C396",
"8#	c #BEBC91",
"9#	c #BDBA90",
"0#	c #9CAC84",
"a#	c #9AAC84",
"b#	c #80AA7A",
"c#	c #7BAD7B",
"d#	c #68A571",
"e#	c #5EA36F",
"f#	c #52A06A",
"g#	c #3A9A63",
"h#	c #319962",
"i#	c #3D9D68",
"j#	c #BCC8C1",
"k#	c #CFD0D0",
"l#	c #D7D3D0",
"m#	c #F1CC9A",
"n#	c #E8C583",
"o#	c #B2BA7C",
"p#	c #A7B77A",
"q#	c #57B075",
"r#	c #41AE71",
"s#	c #3FAF71",
"t#	c #3CAD70",
"u#	c #39AA6E",
"v#	c #36A66B",
"w#	c #33A067",
"x#	c #329E65",
"y#	c #329C64",
"z#	c #329C65",
"A#	c #329E66",
"B#	c #33A167",
"C#	c #34A369",
"D#	c #34A56A",
"E#	c #34A469",
"F#	c #33A368",
"G#	c #33A268",
"H#	c #2F9C62",
"I#	c #7CA88B",
"J#	c #D0D1CE",
"K#	c #ECCDA7",
"L#	c #F3BA83",
"M#	c #F4C884",
"N#	c #7FB97A",
"O#	c #3BB776",
"P#	c #3AB775",
"Q#	c #39B474",
"R#	c #38B272",
"S#	c #37AF70",
"T#	c #36AC6F",
"U#	c #36AA6E",
"V#	c #35A86C",
"W#	c #35A96C",
"X#	c #36AB6E",
"Y#	c #37AD6F",
"Z#	c #37AE70",
"`#	c #2F9F64",
" $	c #2B925B",
".$	c #84A673",
"+$	c #F6C984",
"@$	c #99BE80",
"#$	c #3EB979",
"$$	c #3BBB78",
"%$	c #3CBC79",
"&$	c #3AB977",
"*$	c #3AB675",
"=$	c #39B575",
"-$	c #3AB876",
";$	c #39B775",
">$	c #39AF71",
",$	c #41AC71",
"'$	c #85B075",
")$	c #A7AD71",
"!$	c #CCB97A",
"~$	c #AEBF7F",
"{$	c #3FB979",
"]$	c #3CBB79",
"^$	c #3CBD79",
"/$	c #3CBD7A",
"($	c #3CBE7A",
"_$	c #3AB776",
":$	c #39B373",
"<$	c #3BAF72",
"[$	c #8CB377",
"}$	c #F0C783",
"|$	c #F1B383",
"1$	c #BBC080",
"2$	c #40B979",
"3$	c #3BBC79",
"4$	c #3BBA78",
"5$	c #39B273",
"6$	c #42AF74",
"7$	c #C9BE7E",
"8$	c #F5BD84",
"9$	c #F3C07E",
"0$	c #C79F6C",
"a$	c #939465",
"b$	c #8C9D68",
"c$	c #7AA26B",
"d$	c #6DA66D",
"e$	c #5FAC71",
"f$	c #51B073",
"g$	c #46B876",
"h$	c #43B977",
"i$	c #41BA78",
"j$	c #3FBB78",
"k$	c #3DBB78",
"l$	c #39B675",
"m$	c #5AB076",
"n$	c #EBC582",
"o$	c #F6C783",
"p$	c #E5A56A",
"q$	c #CF8B5C",
"r$	c #B67555",
"s$	c #B57655",
"t$	c #B47655",
"u$	c #B37855",
"v$	c #A87F59",
"w$	c #A1865D",
"x$	c #988D62",
"y$	c #929364",
"z$	c #8B9B67",
"A$	c #799D68",
"B$	c #6DA06A",
"C$	c #A0B076",
"D$	c #F6C884",
"E$	c #EDB679",
"F$	c #E09B61",
"G$	c #D28C58",
"H$	c #C37D56",
"I$	c #C07956",
"J$	c #BA7654",
"K$	c #B77453",
"L$	c #B47352",
"M$	c #B47253",
"N$	c #B67353",
"O$	c #B87454",
"P$	c #B27253",
"Q$	c #B07456",
"R$	c #D4A36F",
"S$	c #E3A46B",
"T$	c #E0995D",
"U$	c #E2995B",
"V$	c #E3995B",
"W$	c #DF965A",
"X$	c #D99158",
"Y$	c #D28D56",
"Z$	c #CE8A55",
"`$	c #CD8856",
" %	c #CC8657",
".%	c #C98356",
"+%	c #C78256",
"@%	c #BD7855",
"#%	c #B57353",
"$%	c #B27455",
"%%	c #DBAA73",
"&%	c #F5C581",
"*%	c #DC9B63",
"=%	c #DF975C",
"-%	c #E1985B",
";%	c #DE965A",
">%	c #DC965A",
",%	c #DB9458",
"'%	c #DA955A",
")%	c #DC955A",
"!%	c #E2985B",
"~%	c #D4935E",
"{%	c #EDB97A",
"]%	c #F4C380",
"^%	c #D8965E",
"/%	c #D58F55",
"(%	c #D48D50",
"_%	c #D58D50",
":%	c #D48D51",
"<%	c #D7955B",
"[%	c #E2A46A",
"}%	c #DD9E67",
"|%	c #DB9B63",
"1%	c #DC9961",
"2%	c #DE995D",
"3%	c #E49A5B",
"4%	c #DD965B",
"5%	c #DA9A62",
"6%	c #F2C280",
"7%	c #C78750",
"8%	c #C58044",
"9%	c #C68043",
"0%	c #C37F44",
"a%	c #C88C58",
"b%	c #E9AF71",
"c%	c #DE975B",
"d%	c #E1A36A",
"e%	c #F6C782",
"f%	c #C98B53",
"g%	c #C27E44",
"h%	c #BF7B43",
"i%	c #B87647",
"j%	c #AC6E4D",
"k%	c #AD7255",
"l%	c #DFAF76",
"m%	c #E39A5B",
"n%	c #DF985C",
"o%	c #E6AC6F",
"p%	c #CF9762",
"q%	c #B0714B",
"r%	c #A96B4D",
"s%	c #A76A4C",
"t%	c #A6694C",
"u%	c #A76B4F",
"v%	c #B98560",
"w%	c #E7AE71",
"x%	c #DF995E",
"y%	c #EAB374",
"z%	c #F5C682",
"A%	c #B6825E",
"B%	c #A4694D",
"C%	c #A3684C",
"D%	c #A2674B",
"E%	c #A2674C",
"F%	c #A36A4E",
"G%	c #A87358",
"H%	c #DBAC75",
"I%	c #DFA569",
"J%	c #CE894F",
"K%	c #D28B4F",
"L%	c #D49158",
"M%	c #EAB377",
"N%	c #F8D199",
"O%	c #E3B479",
"P%	c #A46F53",
"Q%	c #A1674B",
"R%	c #A1664B",
"S%	c #A1674C",
"T%	c #A36B51",
"U%	c #AC7758",
"V%	c #CD9D6D",
"W%	c #ECBD7E",
"X%	c #D59B60",
"Y%	c #C58146",
"Z%	c #C78043",
"`%	c #C88143",
" &	c #C78144",
".&	c #C8864D",
"+&	c #E9B078",
"@&	c #F8D097",
"#&	c #C8986A",
"$&	c #A26B51",
"%&	c #A1684E",
"&&	c #A46C51",
"*&	c #B4815D",
"=&	c #D9A972",
"-&	c #C48B5D",
";&	c #BC7946",
">&	c #BF7B44",
",&	c #C37E43",
"'&	c #C6844C",
")&	c #EEB57E",
"!&	c #F8D39E",
"~&	c #F8D197",
"{&	c #B98863",
"]&	c #A77256",
"^&	c #BF8D63",
"/&	c #E1B278",
"(&	c #F5C683",
"_&	c #AF795A",
":&	c #A86B4D",
"<&	c #A96C4E",
"[&	c #AC6D4D",
"}&	c #B17453",
"|&	c #E3AB78",
"1&	c #E7B87C",
"2&	c #EABB7C",
"3&	c #EDBE7E",
"4&	c #A87257",
"5&	c #A4684C",
"6&	c #A4694C",
"7&	c #A76A4E",
"8&	c #B47E5C",
"9&	c #EBB47E",
"0&	c #E4B579",
"a&	c #A56F53",
"b&	c #A26A50",
"c&	c #BA8962",
"d&	c #F3C381",
"e&	c #A87458",
"f&	c #A46E52",
"g&	c #A46C50",
"h&	c #A36B50",
"i&	c #A16A4F",
"j&	c #A47055",
"k&	c #D5A672",
"l&	c #F3C482",
"m&	c #EDBE7F",
"n&	c #E6B77A",
"o&	c #E2B278",
"p&	c #DDAD75",
"q&	c #D3A470",
"r&	c #CD9D6C",
"s&	c #C79769",
"t&	c #C08F66",
"u&	c #E0B178",
"                                                                                                                                ",
"                                            . + + .                                                                             ",
"                                            @ # # @                                                                             ",
"                                            $ % % $                             & &                                             ",
"                * = = = *                     - -                           ; . $ $ .                                           ",
"                > , ' ) !                                                   $ ~ # { ] .                                         ",
"            * ^ / ( _ : ) > *                                             & @ < [ } { $ &                                       ",
"            ^ | 1 2 3 _ 4 5 6                                             & 7 < 8 [ # $ &                                       ",
"            > 9 _ _ _ _ 3 4 0                                               a b < < ~ .                                         ",
"            > c _ _ _ _ _ ( 0                                               ; a 7 @ $ ;                                         ",
"            = d 9 2 3 _ 1 | >                                                   & &                                             ",
"              * 0 e 2 4 , ^                                                                                                     ",
"                ^ / , d f             g h                                                           &                           ",
"                  * * *             i j k l                                                       . $ .                         ",
"                                  m n o p q l                                                     r s % -                       ",
"                                  t u v w x y l                                                   + z ~ .                       ",
"                                l A v B C D E F m                                                 $ 7 G ;                       ",
"                                H I B J K L M N O m         m l l l l l m                                                       ",
"                                P Q R S K T U V W X m m Y O Z `  . . ...+.@.#.m                                                 ",
"                                $.%.S &.T T T *.=.-.;.>.,.'.).!.!.!.!.!.).~.{.].^.l                               & & &         ",
"                                /.(.J K T T T T _.:.!.!.<.[.}.|.1.1.1.1.2.3.4.=.5.6.7.8.                        ; . $ $ -       ",
"                                9.0.K T T T T T T a.b.c.d.a.T T T T T T T T K e.f.B g.h.i.                    & @ j.# s +       ",
"        ; $ G .               k.l.m.K T T T T T T T T T T T T T T T T T T T R n.o.p.q.r.s.                  ; a ~ t.[ u.s 7 .   ",
"        . v.s 7           ; w.x.y.z.T T T T T T T T T T T T T T T T T T T T R n.A.B.C.D.E.                  a F.G.} 8 [ H.z r   ",
"        . v.s 7           I.J.K.L.M.T T T T T T T T T T T T T T T T T T T T R n.A.N.O.P.                    a F.G.} 8 [ H.z r   ",
"        ; $ G .         ; Q.R.S.L.T.U.T T T T T T T T T T T T T T T T T T T R V.W.X.Y.m                     ; a ~ t.[ u.s 7 .   ",
"                        Z.`. +.+++@+#+T T T T T T T T T T T T T T T T T T T &.S $+%+&+                        & @ j.# s +       ",
"                        Z.*+=+-+;+>+,+'+T T T T T T T T T T T T T T T T T T K J )+!+8.                          ; . $ $ -       ",
"                        Z.~+{+]+^+/+(+_+T T T T T T T T T T T T T T T T T T T K :+<+                              & & &         ",
"                          [+}+|+1+2+3+4+T T T T T T T T T T T T T T T T T T T K 5+6+;                                           ",
"                          7+8+9+/+0+a+b+T T T T T T T T T T T T T T T T T T T T c+d+e+f+g+                                      ",
"                          h+i+j+k+l+m+n+T T T T T T T T T T T T T T T T T T T T o+p+q+r+s+t+u+                                  ",
"                            v+w+x+y+z+A+5+K T T T T T T T T T T T T T T T T T T o+B+C+D+E+F+G+H+                                ",
"                            I+J+K+L+M+N+5+&.K T T T T T T T T T T T T T T T T T o+O+P+L.Q+]+=+R+                                ",
"        * * *               S+T+U+V+R.W+X+V.&.K T T T T T T T T T T T T T T T T o+Y+Z+++`+1+ @.@;                               ",
"      6 d , / ^               +@@@#@$@%@&@*@V.J K T T T T T T T T T T T T T T T =@-@;@M+>@,@'@)@;                               ",
"    * d 4 2 e !               !@~@{@]@^@/@(@_@:@<@'+[@o+o+o+o+o+o+o+}@|@1@2@3@4@5@6@Q+7@8@9@7@0@                                ",
"    * , 2 a@( b@              Z.c@d@e@f@^@g@h@i@j@k@l@m@m@m@m@m@m@m@n@o@p@q@r@s@++-+t@u@v@w@x@y@                                ",
"    * / e ( c 6               z@A@B@C@D@E@F@]+G@H@I@q+J@J@J@J@J@J@J@J@J@J@q+s@++K@L@M@N@O@w@P@                                  ",
"      ^ ! b@6 =                 Q@R@S@T@U@V@W@X@E+D+q@Y@J@J@J@J@J@J@J@J@q+s@L.Z@`@ #.#+#@###$#                                  ",
"                                  %#&#*#=#-#;#]+S.C+>#Y@J@J@J@,#,#'#'#)#!#~#{#]#^#/#(#_#:#<#  * 6 b@b@b@! =                     ",
"                                      [#}#|#1#2#3#4#5#6#7#8#9#0#a#b#c#d#e#f#g#h#i#j#k#l#m#    f 5 ( 1 ( 9 0 *                   ",
"                                        n#o#p#q#r#s#t#u#v#w#x#y#z#A#B#C#D#E#F#G#H#I#J#K#; * ! ) 4 3 3 3 2 L#0 =                 ",
"                                          %#M#N#O#P#Q#R#S#T#U#V#W#U#X#Y#Z#S#Z#X#`# $.$M#  ^ ' : _ _ _ _ _ 2 9 !                 ",
"                                            +$@$#$$$%$$$&$P#*$=$=$*$-$-$;$Q#>$,$'$)$!$%#  ^ c 3 _ _ _ _ _ 3 ( b@                ",
"                                            %#~${$]$%$^$/$/$/$($($($%$$$_$:$<$[$}$%#      ^ ) 4 2 _ _ _ _ |$9 !                 ",
"                                              1$2$$$%$%$%$3$%$%$^$/$%$4$P#5$6$7$          * f 8$( 3 _ 3 2 5 b@=                 ",
"                                            9$0$a$b$c$d$e$f$g$h$i$j$k$&$l$5$m$n$              > ' e e e c b@                    ",
"                                          o$p$q$*@*@W.r$s$t$u$v$w$x$y$z$A$B$C$D$              * > 6 6 6 f =                     ",
"                                          E$F$G$H$I$J$K$L$p.M$N$O$*@*@o.P$Q$R$                                                  ",
"                                        m S$T$U$V$U$W$X$Y$Z$`$ %.%+%H$@%#%$%%%                                                  ",
"                                        &%*%=%-%U$-%;%>%,%'%)%;%!%V$V$-%)%~%{%                                                  ",
"                                        ]%^%/%(%_%:%<%[%}%|%1%2%-%3%3%U$4%5%&%                                                  ",
"            & &                         6%7%8%9%9%0%a%E.m l i.b%T$V$3%!%c%d%m                                                   ",
"          $ @ 7 a ;                     e%f%g%h%i%j%k%l%      b%T$V$m%!%n%o%*                                                   ",
"      & . ~ < < b a &                   m p%q%r%s%t%u%v%E.    w%n%-%V$-%x%y%                                                    ",
"      a ] < [ [ G.~ @ ;                 z%A%B%C%D%E%F%G%H%  * I%J%K%(%_%L%M%! b@f *                                             ",
"    ; % N%u.[ [ } G.v.. &               O%P%Q%R%S%T%U%V%W%  m X%Y%Z%`% &.&+&1 ( ) ^                                             ",
"    ; + # H.[ 8 u.@&] .               m #&$&%&&&*&=&&+8.    o$-&;&>&,&g%'&)&3 3 9 >                                             ",
"      ; @ # u.!&~&r -                 o${&]&^&/&z%          (&_&:&r%<&[&}&|&: 2 L#>                                             ",
"      & ; + v.j.] . &                   1&2&m               3&4&C%5&6&6&7&8&9&, 0 =                                             ",
"          ; ; ; ;                                           0&a&S%R%R%R%Q%b&c&d&*                                               ",
"                                                            H%e&f&g&h&%&%&i&j&k&                                                ",
"                                                            l&m&n&o&p&q&r&s&t&u&                                                "};
