/* XPM */
static char *player20[] = {
/* columns rows colors chars-per-pixel */
"55 55 232 2 ",
"   c #010101",
".  c #0A0302",
"X  c #02030B",
"o  c #050A0A",
"O  c #0A0B0B",
"+  c #080A05",
"@  c #150A05",
"#  c #1A0A03",
"$  c #170908",
"%  c #19140D",
"&  c #070916",
"*  c #0D151C",
"=  c #0A1215",
"-  c #141C1B",
";  c #1B1B1B",
":  c #151615",
">  c #110A10",
",  c #281609",
"<  c #381907",
"1  c #281C15",
"2  c #321C14",
"3  c #300901",
"4  c #1C2218",
"5  c #1B200F",
"6  c #27251D",
"7  c #3B2A1C",
"8  c #342B12",
"9  c #030B27",
"0  c #0A1124",
"q  c #171825",
"w  c #151733",
"e  c #221E28",
"r  c #192428",
"t  c #162A35",
"y  c #152835",
"u  c #19313F",
"i  c #262828",
"p  c #372D2A",
"a  c #363427",
"s  c #2A2938",
"d  c #322D32",
"f  c #2D3438",
"g  c #3A3C38",
"h  c #481900",
"j  c #4D0A00",
"k  c #582707",
"l  c #492918",
"z  c #5A3318",
"x  c #4F2C11",
"c  c #6C3A17",
"v  c #77391A",
"b  c #6F3F0A",
"n  c #453628",
"m  c #553B24",
"M  c #4A3C35",
"N  c #4B2D34",
"B  c #673D24",
"V  c #633D35",
"C  c #2E413D",
"Z  c #584617",
"A  c #76441C",
"S  c #4B4329",
"D  c #574A27",
"F  c #574736",
"G  c #575535",
"H  c #4C4C2D",
"J  c #6C4127",
"K  c #784623",
"L  c #654435",
"P  c #795439",
"I  c #784E33",
"U  c #706933",
"Y  c #241B40",
"T  c #1C394D",
"R  c #173846",
"E  c #1A2747",
"W  c #272B49",
"Q  c #28384B",
"!  c #343743",
"~  c #273854",
"^  c #333757",
"/  c #2B2F59",
"(  c #1A3E67",
")  c #2B3966",
"_  c #1C4257",
"`  c #3A4544",
"'  c #28475C",
"]  c #35455B",
"[  c #3C565C",
"{  c #154466",
"}  c #284C66",
"|  c #2A546E",
" . c #335267",
".. c #245276",
"X. c #364C73",
"o. c #39627E",
"O. c #47574A",
"+. c #565547",
"@. c #43465D",
"#. c #4A5455",
"$. c #565A56",
"%. c #4B484B",
"&. c #605448",
"*. c #655955",
"=. c #785748",
"-. c #5C6247",
";. c #696751",
":. c #7B6E5E",
">. c #746E4C",
",. c #4C4D67",
"<. c #445869",
"1. c #4A557B",
"2. c #555878",
"3. c #5C6164",
"4. c #58657B",
"5. c #43676D",
"6. c #666765",
"7. c #7B7867",
"8. c #697675",
"9. c #803F19",
"0. c #844C1E",
"q. c #8A5937",
"w. c #945D37",
"e. c #8E572C",
"r. c #8A632F",
"t. c #876139",
"y. c #96653A",
"u. c #8A5B46",
"i. c #9D6C49",
"p. c #8A7746",
"a. c #906A4E",
"s. c #B6784F",
"d. c #B67E56",
"f. c #A6734E",
"g. c #816F66",
"h. c #7E8178",
"j. c #878045",
"k. c #8E8A57",
"l. c #B6915F",
"z. c #B48459",
"x. c #888467",
"c. c #99946B",
"v. c #959078",
"b. c #B88E62",
"n. c #A89F6C",
"m. c #AAA978",
"M. c #B6AC6C",
"N. c #C6895A",
"B. c #C89768",
"V. c #D09B70",
"C. c #CBA777",
"Z. c #E1B578",
"A. c #C1C17F",
"S. c #E6C079",
"D. c #346A8B",
"F. c #366F90",
"G. c #397294",
"H. c #29688F",
"J. c #3C7BA1",
"K. c #4D6A87",
"L. c #576584",
"P. c #477394",
"I. c #627A87",
"U. c #686D8F",
"Y. c #407FA0",
"T. c #7E78A1",
"R. c #788F98",
"E. c #458AB4",
"W. c #4791BD",
"Q. c #4686AB",
"!. c #728AAC",
"~. c #4999C6",
"^. c #49A6DD",
"/. c #56AAD9",
"(. c #5DB5DD",
"). c #78B9DC",
"_. c #55AEE1",
"`. c #55B4EB",
"'. c #59B5EB",
"]. c #5BB9EF",
"[. c #58B2E6",
"{. c #55B9F4",
"}. c #5CBCF4",
"|. c #5DBFF8",
" X c #55BCFC",
".X c #4CA9E2",
"XX c #62B8EB",
"oX c #62BDF2",
"OX c #68BFF0",
"+X c #5EC2FC",
"@X c #5CC2F8",
"#X c #62C5FD",
"$X c #63CBFF",
"%X c #6AC6F9",
"&X c #79CAF6",
"*X c #6DD0FF",
"=X c #8F948F",
"-X c #A19E88",
";X c #9FA485",
":X c #B1AE8F",
">X c #8893BE",
",X c #8397AF",
"<X c #91ABB7",
"1X c #D1B68A",
"2X c #E5B587",
"3X c #BEC4AA",
"4X c #CAC195",
"5X c #D7D29B",
"6X c #D6C991",
"7X c #ECD19A",
"8X c #F8D79A",
"9X c #F1D788",
"0X c #FFE28A",
"qX c #DCCFA6",
"wX c #C8C5AE",
"eX c #EDD5AD",
"rX c #EFE9B1",
"tX c #99A5D3",
"yX c #93A0C1",
"uX c #ACB7CF",
"iX c #A2AAE1",
"pX c #BEC5CA",
"aX c #81CEF7",
"sX c #85D7FC",
"dX c #93D7F8",
"fX c #8FCBEA",
"gX c #83E5FF",
"hX c #A9D6E8",
"jX c #D8DBC3",
"kX c #CBCCDA",
"lX c #FFFBC8",
"zX c #FFFDD5",
/* pixels */
"}.}.}.}.}.}.}.}.}.}.}.}.}.}.}.}.}.}.}.}.}.}.}.}.}.}.}.}.}.}.}.}.}.}.}.}.}.}.}.}.}.}.}.}.}.}.}.}.}.}.}.}.}.}.}.",
"}.}.}.}.}.}.}.}.}.}.}.}.}.}.}.}.}.}.}.}.}.}.}.}.}.}.}.}.}.}.}.}.}.}.}.}.}.}.}.}.}.}.}.}.}.}.}.}.}.}.}.}.}.}.}.",
"}.}.}.}.}.}.}.}.}.}.}.}.}.}.}.}.}.}.}.}.}.}.}.}.}.}.}.}.}.}.}.}.}.}.}.}.}.}.}.}.}.}.}.}.}.}.}.}.}.}.}.}.}.}.}.",
"}.}.}.}.}.}.}.}.}.}.}.}.}.}.}.}.}.}.}.}.}.}.}.}.}.}.}.+X+X+X+X{.}.}.}.}.}.}.}.}.}.}.}.}.}.}.}.}.}.}.}.}.}.}.}.",
"}.}.}.}.}.}.}.}.}.}.}.}.}.}.}.}.}.}.}.}.}.}.}.}.{.*X<X$.3.3.4.fX+X|.}.}.}.}.}.}.}.}.}.}.}.}.}.}.}.}.}.}.}.|.}.",
"}.}.}.}.}.}.}.}.}.}.}.}.}.}.}.}.}.}.}.}.}.}.}.|.).+.q.d.s.e.q.P 8.$X|.}.}.}.}.}.}.}.}.}.}.}.|.}.}.}.}.}.}.}.}.",
"}.}.}.}.}.}.}.}.}.}.}.}.}.}.}.}.}.}.}.}.}.}.{./.V 0.V.s.N.N.y.A x L.}.}.}.}.}.}.}.}.}.}.}.}.}.}.}.}.}.}.}.}.}.",
"}.}.}.}.}.}.}.}.}.}.}.}.}.}.}.}.}.].}.}.}.}.sX&.9.e.k I A f.V.B.i.j !.+X`.}.}.}.}.}.}.}.}.}.}.}.}.}.}.}.}.}.}.",
"}.}.}.}.}.}.}.}.}.}.}.}.}.}.}.#X$X$X}.|.].@X<Xi.f.v y.z.0.k A v B.i.7.hXdX}.}.|.}.}.}.}.}.}.}.}.}.}.}.}.}.}.}.",
"}.}.}.}.}.}.}.}.}.}.|.}.}.}.#XQ.'  .].@X].%X_ a.K N.C.y.b.w.q.w.c y.f.eX8.`.oX}.}.}.}.}.}.}.}.}.}.}.}.}.}.}.}.",
"}.}.}.}.}.}.}.}.}.}.}.}.}.].$X} Z p.] @X].$X] < f.Z.q.Z.B.V.e.2XN.A z p P.oXoX}.}.}.}.}.}.}.}.}.}.}.}.}.}.}.}.",
"}.}.}.}.}.}.}.}.}.}.}.}.}.{.$X| p.rXp ^.$X#X[ h 2Xu.t.8Xc b.c K V.2X2 H.%XoX|.}.}.}.}.}.}.}.}.}.}.}.}.}.}.}.}.",
"}.}.}.}.}.}.}.}.}.}.}.}.}.}.XX%X[ % :X .^.o.< k u.< b.d.h d.q.h k 0., ~.#X}.}.}.}.}.}.}.}.}.}.}.}.}.}.}.}.}.}.",
"}.}.}.}.}.}.}.}.}.}.}.}.}.|.%X&XoX( : -Xa &.L 3 x x x l l 3 u.k c B $ ~.#X}.}.}.}.}.}.}.}.}.}.}.}.}.}.}.}.}.}.",
"}.}.}.}.}.}.}.}.}.}.}.}.}.}.}.}.@X+X~ 6 -X:.: X M $ p ! Q Q f # m M   W.#X}.}.}.}.}.}.}.}.}.}.}.}.}.|.}.}.}.}.",
"}.|.}.}.}.}.}.}.}.}.}.}.}.}.|.}.}.+X(.O f * , $ & w ^ U.L.4.4.Y q   $.fX+X}.}.}.}.}.}.}.}.}.}.}.}.}.}.}.}.}.}.",
"}.}.}.}.}.}.}.}.}.}.}.}.}.}.}.}.|.}.' $.4 : l.r.= P.^ / T T T L.2.  7.4XR.#X}.}.}.}.}.}.}.}.}.}.}.}.}.}.}.}.}.",
"}.}.}.}.}.}.}.}.}.}.}.}.}.}.}.|.}.' F 1 + y.rX9XP ; & * 9 w 9 9 O 6 n.5XA.,X@X}.}.}.}.}.}.}.}.}.}.}.}.}.}.}.}.",
"}.}.}.}.}.}.}.}.}.}.}.}.}.}.].#X}   H 7.p p m.zX8XP q W @.W ^ ` 5 S 4XlXrXjXoX#X}.}.}.}.}.}.}.}.|.}.}.}.}.}.}.",
"}.}.}.}.}.}.}.}.}.}.}.}.}.}.}.$XT a jXwX:Xv.$.;XlX7X&.  ;.G x.wXwXM.6XeXrXM.O.'.#X}.}.}.}.}.}.}.}.}.}.}.}.}.}.",
"}.}.}.}.}.}.}.}.}.}.}.}.}.}.XX#XT :Xx.      $.6 A.S.D > O :Xd !.] M 5X6X6Xj.a t (.}.}.}.}.}.}.}.}.}.}.}.}.}.}.",
"}.}.}.}.}.}.}.}.}.}.}.}.}.}.}.$X_ k.4 W ! -   *.S x n H U &.i tX2.% x.c.k.D :   P.$X}.}.}.}.}.}.}.}.}.}.}.}.}.",
"}.}.}.}.}.}.}.}.}.}.}.}.}.}.}.$XQ c.6.>X<XU.: C O & H Z :XG % =X,.+.% S Z U :.  G.$X}.}.}.}.}.}.}.}.}.}.}.}.}.",
"}.}.}.}.}.}.}.}.}.}.}.}.}.}.}.|./.C U.iXiX>Xw ;.5   G A.j.G v.q : 4   k.5X6X7.  G.$X].}.}.}.}.}.}.}.}.}.}.}.}.",
"}.}.}.}.}.}.}.}.}.}.}.}.}.}.}.}.|.`.L.!.yXU.i * 0 X X a U >.:X% o X   : d f s q J.#X}.}.}.}.}.}.}.}.}.}.}.}.}.",
"}.}.}.}.}.}.}.}.}.}.}.}.}.}.}.}.|.~.Y ,.L.] 5   s X a % =.m.x.6 g.d % + ! ,.%.} *X}.}.}.}.}.}.}.}.}.}.}.}.}.}.",
"}.}.}.}.}.}.}.}.}.}.}.}.}.}.}.}.|.y s ! &.6 X X X % G +.& 0 . V i.r.H O o } R Q.%X}.}.}.}.}.}.}.}.}.}.}.}.}.}.",
"}.}.}.}.}.}.}.}.}.}.}.}.}.}.}.}.oXy i ` 7.a X X o ! 9 E X.^ g F l.Z.q.. o Y.$X@X{.|.}.}.}.}.}.}.}.}.}.}.}.}.}.",
"}.}.}.}.}.}.}.}.}.}.}.}.}.}.}.}.|.E.W %.6.q   X w ,.U./ / ) X.w &.eX8XP X w #XoXoX}.}.}.}.}.}.}.}.}.}.}.}.}.}.",
"}.}.}.}.}.}.}.}.}.}.}.}.}.}.}.}.|.|.* 8 n = X & / L.T.L.K.K.X.L.e $.qX8X=.& K.&XoX}.}.}.}.}.}.}.}.}.}.}.}.}.}.",
"}.}.}.}.}.}.}.}.}.}.}.}.}.}.}.}.}.`.* l u.2XN w } ) 1.!.tXtX>XL.3.g =.7XS.g.N D.*X}.}.}.}.}.}.}.}.}.}.}.}.}.}.",
"}.}.}.}.}.}.}.|.}.}.}.}.}.}.}.}.}.}.y 2 z.l.n q ~ R.=XuXkXkXuX=X3X4XqXM.6X0XP ..sXXX}.}.}.}.}.}.}.}.}.}.}.}.}.",
"}.}.}.}.}.}.}.}.}.}.}.}.}.}.}.}.}.oX'.~ ] i   3.x.x.c.m.m.m.:X6.    ;.jXi r.p.5./.@X}.}.}.}.}.}.}.}.}.}.|.}.}.",
"}.}.}.}.}.}.}.}.}.}.}.|.}.}.}.}.}.}.}.+XgX5.a g.6.X                   -Xd { <.< D.$X].}.}.}.}.}.}.}.}.}.}.}.}.",
"}.}.}.}.}.}.}.}.}.}.}.}.}.}.}.}.}.}.}.'.+X{ v.C   + X + .   o   $ l 7 F q $X/.D./.@X}.}.}.}.}.}.}.}.}.}.}.}.}.",
"}.}.}.}.}.}.}.}.}.}.}.}.}.}.}.}.}.}.}.}.+X_.#..   X       X     , K B @ & [.|.#X@X].}.}.}.}.}.}.}.}.}.}.}.}.}.",
"}.}.}.}.}.}.}.}.}.}.}.}.}.}.}.}.}.}.}.}.}.#X[.t   . @ .       $ m c c z : '.}.].}.}.}.|.}.}.}.}.}.}.}.}.}.}.}.",
"}.}.}.}.}.}.}.}.}.}.}.}.}.}.}.}.}.}.}.}.}.}.+X'.= @ L 1       $ B v 9.B e `.}.}.}.}.}.}.}.}.}.}.}.}.}.}.}.}.}.",
"}.}.}.|.}.}.}.}.|.}.}.}.}.}.}.}.}.}.}.}.}.}.}.}.= @ J <       , B q.d.i.1 `.}.}.}.}.}.}.}.}.}.}.}.}.}.}.}.}.}.",
"}.}.}.}.}.}.}.}.}.}.}.}.}.}.}.}.}.}.}.}.}.}.}.].& @ K <       @ 1 7 B a.e `.|.}.}.}.}.}.}.}.}.}.}.}.}.}.}.}.}.",
"}.}.}.}.}.}.}.}.}.}.}.}.}.}.}.}.}.}.}.}.}.}.}.}.= @ A <       o + r S m - `.oX}.{.}.}.}.}.}.}.}.}.}.}.}.}.}.}.",
"}.}.}.}.}.}.}.}.}.}.}.}.}.}.}.}.}.}.}.}.}.}.}.].= @ L 2   + * 4 : 4 $.O.N XX{.aX&X{.}.}.}.}.}.}.}.}.}.}.}.}.}.",
"}.}.}.}.}.}.}.}.}.}.}.}.}.}.}.}.}.}.}.}.}.}.}.].=   @ .   g #.$.C   - O.N XX{.aXaX{.}.}.}.}.}.}.}.}.}.}.}.|.}.",
"}.}.}.}.}.|.}.}.}.}.}.}.}.}.}.}.}.}.}.}.}.}.}.'.* O : +   o   - C + > O.M '.}.%X%X].}.}.}.}.}.}.}.}.}.}.}.}.}.",
"}.}.}.}.}.}.}.}.}.}.}.}.}.}.}.}.}.}.}.}.}.}.}.}.r 6.8.f         i g o O.a '.@X}.}.}.}.}.}.}.}.}.}.}.}.}.}.}.|.",
"}.}.}.}.}.}.}.}.}.}.}.}.}.}.}.}.}.}.}.}.}.}.#XY.& f C -         i %.. a 4.%X}.}.}.}.}.}.}.}.}.}.}.}.}.}.}.}.}.",
"}.}.}.}.}.}.}.}.}.}.}.}.}.|.}.}.}.}.}.}.}.].#Xy                 i f  .Q.].}.}.}.}.}.}.}.}.}.}.}.}.}.}.}.}.}.}.",
"}.}.}.}.}.}.}.}.}.}.}.}.}.}.}.}.}.}.}.}.}.}.+Xt   + +           4 R.[.$XOX#X}.}.}.}.}.}.}.}.}.}.}.}.}.}.}.}.}.",
"}.}.}.|.}.}.}.}.}.}.}.}.}.}.}.}.|.}.}.}.}.}.#Xt                 1 !.@X`.}.}.}.}.}.}.}.}.}.}.}.}.}.}.}.}.}.}.}.",
"}.}.}.}.}.}.}.}.}.}.}.}.}.}.}.}.}.}.}.}.}.}.+Xy           y R r o.$X@X@X}.}.}.}.}.}.}.}.}.}.}.}.}.|.}.}.}.}.}.",
"}.}.}.}.}.}.}.}.}.}.}.}.}.}.}.}.}.}.}.}.}.}.#X|           F.W.E.W.E.Q.@X@X}.}.}.}.}.}.}.}.}.}.}.}.}.}.}.}.}.}.",
"}.}.}.}.}.}.}.}.}.}.}.}.}.}.}.}.}.}.}.}.}.}.}.#X|                     ' '.@X}.}.}.}.}.}.}.}.}.}.}.}.}.}.}.}.}.",
"}.}.}.}.}.}.}.}.}.}.}.}.|.}.}.}.}.}.}.}.}.}.}.|.oXF.F.F.D.F.F.F.F.F.F.D._.@X}.}.}.}.}.}.}.}.}.}.}.}.}.}.}.}.}.",
"}.}.}.}.}.}.}.}.}.}.}.}.}.}.}.}.}.}.}.}.}.}.}.}.}.#X$X$X$X$X$X$X$X$X#X$X}.}.}.}.}.}.}.}.}.}.}.}.}.}.}.}.}.}.}.",
"}.}.}.}.}.}.}.}.}.}.}.}.}.}.}.}.}.}.}.}.}.}.}.}.}.].{.].].].].].].].}.].}.}.}.}.}.}.}.}.}.}.}.}.}.}.}.}.}.}.}."
};
