/* XPM */
static char *player23[] = {
/* columns rows colors chars-per-pixel */
"55 55 229 2 ",
"   c #010001",
".  c #0D0A02",
"X  c #02020D",
"o  c #090909",
"O  c #140B00",
"+  c #170808",
"@  c #0F120E",
"#  c #11100C",
"$  c #15180B",
"%  c #0E0D14",
"&  c #060615",
"*  c #100A15",
"=  c #0C1317",
"-  c #131514",
";  c #1C1C1C",
":  c #151817",
">  c #260503",
",  c #291609",
"<  c #381604",
"1  c #2B1B15",
"2  c #221B15",
"3  c #36100D",
"4  c #1C221B",
"5  c #2B2319",
"6  c #25271A",
"7  c #332015",
"8  c #3E3A1C",
"9  c #2D330E",
"0  c #131729",
"q  c #101031",
"w  c #0C1F3A",
"e  c #221F35",
"r  c #1A2425",
"t  c #1A2C36",
"y  c #152936",
"u  c #2C2B25",
"i  c #2A2C2B",
"p  c #292624",
"a  c #362A26",
"s  c #3A3528",
"d  c #242B3C",
"f  c #283335",
"g  c #2A3738",
"h  c #373236",
"j  c #461805",
"k  c #571C02",
"l  c #5A2705",
"z  c #4C2412",
"x  c #44381E",
"c  c #532F12",
"v  c #693A1B",
"b  c #723816",
"n  c #632E0D",
"m  c #4D3325",
"M  c #533725",
"N  c #453A37",
"B  c #503B3B",
"V  c #34403F",
"C  c #77411A",
"Z  c #58532B",
"A  c #4A463A",
"S  c #564A36",
"D  c #565438",
"F  c #5C4C2B",
"G  c #664526",
"H  c #7B4424",
"J  c #645838",
"K  c #765437",
"L  c #704836",
"P  c #776A3E",
"I  c #6D6D30",
"U  c #554B17",
"Y  c #19364A",
"T  c #1D3E52",
"R  c #302B40",
"E  c #253945",
"W  c #323645",
"Q  c #223D52",
"!  c #283A54",
"~  c #343652",
"^  c #243C61",
"/  c #1E4253",
"(  c #3C4747",
")  c #214154",
"_  c #254259",
"`  c #3C4258",
"'  c #3D5255",
"]  c #3C5766",
"[  c #265472",
"{  c #295B75",
"}  c #355E73",
"|  c #2F4E68",
" . c #30617A",
".. c #484647",
"X. c #5A4B46",
"o. c #595846",
"O. c #474A55",
"+. c #504F5E",
"@. c #495755",
"#. c #535958",
"$. c #4D514A",
"%. c #665647",
"&. c #685A56",
"*. c #54615D",
"=. c #7D684B",
"-. c #69665C",
";. c #766A59",
":. c #6C6B54",
">. c #49577D",
",. c #4C5169",
"<. c #576766",
"1. c #5F7374",
"2. c #496671",
"3. c #787675",
"4. c #6E6F6B",
"5. c #8A4C1E",
"6. c #834F2A",
"7. c #875629",
"8. c #875935",
"9. c #915933",
"0. c #96663A",
"q. c #896A3B",
"w. c #A16639",
"e. c #866349",
"r. c #9B6945",
"t. c #966843",
"y. c #877455",
"u. c #9A7358",
"i. c #8D6B53",
"p. c #A56D47",
"a. c #AB7649",
"s. c #B27B51",
"d. c #957B64",
"f. c #7B837D",
"g. c #7D856A",
"h. c #8A8749",
"j. c #89885C",
"k. c #90905E",
"l. c #938F5A",
"z. c #B5835B",
"x. c #A48F59",
"c. c #979769",
"v. c #8F8B6C",
"b. c #BB8962",
"n. c #A49D60",
"m. c #ADAA71",
"M. c #C79459",
"N. c #D0995E",
"B. c #C18C64",
"V. c #C79A64",
"C. c #D7A878",
"Z. c #C4BA7A",
"A. c #D3B378",
"S. c #D7BD6C",
"D. c #E1AB79",
"F. c #316687",
"G. c #3A7599",
"H. c #316B8E",
"J. c #3B7DA6",
"K. c #56588D",
"L. c #5A7687",
"P. c #5B6695",
"I. c #447E96",
"U. c #5D658A",
"Y. c #6A6D8B",
"T. c #45819D",
"R. c #63919C",
"E. c #738A97",
"W. c #468EBB",
"Q. c #4C8BAD",
"!. c #7F8AAF",
"~. c #5197C1",
"^. c #53A0C8",
"/. c #4DA2D5",
"(. c #56AADA",
"). c #6BAFCE",
"_. c #7FB3CE",
"`. c #54ADE3",
"'. c #59B6ED",
"]. c #5AB8EF",
"[. c #53B5EC",
"{. c #4FB6F3",
"}. c #57B9F3",
"|. c #5CBCF4",
" X c #5DBFF8",
".X c #54B9F5",
"XX c #64BCEC",
"oX c #63BEF3",
"OX c #5DC3FC",
"+X c #5EC9FF",
"@X c #61C5FD",
"#X c #63CAFF",
"$X c #6BCDFF",
"%X c #6AC3F5",
"&X c #77C9F6",
"*X c #66D4FF",
"=X c #68D2FF",
"-X c #73D8FF",
";X c #74D7FF",
":X c #66C1ED",
">X c #969687",
",X c #8B9190",
"<X c #B49E85",
"1X c #9FAA93",
"2X c #B0A685",
"3X c #BDB38F",
"4X c #8087AD",
"5X c #B5BDA9",
"6X c #CDB482",
"7X c #EFB785",
"8X c #D0C190",
"9X c #C9C48E",
"0X c #C6C8A9",
"qX c #C8D3A0",
"wX c #EADEAF",
"eX c #FCF9B8",
"rX c #E6E3AC",
"tX c #9EACD0",
"yX c #A0AECF",
"uX c #B4BFD2",
"iX c #BEC4C8",
"pX c #8BD6FD",
"aX c #8DCBEA",
"sX c #A1E3FF",
"dX c #D6D8C7",
"fX c #E8E5C8",
"gX c #FFFFCB",
"hX c #FEFDC4",
"jX c #FCF4D0",
/* pixels */
"|.|.|.|.|.|.|.|.|.|.|.|.|.|.|.|.|.|.|.|.|.|.|.|.|.|.|.|.|.|.|.|.|.|.|.|.|.|.|.|.|.|.|.|.|.|.|.|.|.|.|.|.|.|.|.",
"|.|.|.|.|.|.|.|.|.|.|.|.|.|.|.|.|.|.|.|.|.|.|.|.].|.].|.|.|.|.|.|.|.|.|.|.|.|.|.|.|.|.|.|.|.|.|.|.|.|.|.|.|.|.",
"|.|.|.|.|.|.|.|.|.|.|.|.|. X|.|.|.|.|.|.|.|.|..XOXOX+X+X|.].|.|.|.|.|.|.|.|.|.|.|.|.|.|.|.|.|.|.|.|.|.|.|. X|.",
"|.|.|.|.|.|.|.|.|.|.|.|.|.|.|.|.|.|.|.|.|.|.@XpXL.1.1.<._.$X|.|.|.|.|.|.|.|.|.|.|.|.|.|.|.|.|.|.|.|.|.|.|.|.|.",
"|.|.|.|.|.|.|.|.|.|.|.|.|.|.|.|.|.|.|.|.|.@XL.e.b.s.5.p.d.<.XX X|.|.|.|.|.|.|.|.|.|.|.|.|.|.|.|.|.|.|.|.|.|.|.",
"|.|.|.|.|.|.|.|.|.|.|.|.|.|.|.|.|.|.|..XpX>Xu.b 6.a.9.0.p.b.%.aX|.|.|.|.|.|.|.|.|.|.|.|.|.|.|.|.|.|.|.|.|.|.|.",
"|.|.|.|.|.|.|.|.|.|.|.|. X|.|.|.|.|.@X%XE.6Xb.5.b s.u.6.w.r.l %.@X|.|.|.|.|.|.|.|.|.|.|.|.|.|.|.|.|.|.|.|.|.|.",
"|.|.|.|.|.|.|.|.|.|.|.|.|.|.|.|.|. XXX<XM.b.7.V.D.p.t.9.C.6.b N +X|.|.|.|.|.|.|.|.|.|.|.|.|.|.|.|.|.|.|.|.|.|.",
"|.|.|.|.|.|.|.|.|.|.|.|.|.|.|.|.|.|.`.3.a.5.D.p.M.p.B.7.C G p.i.W.%X|.|.|.|.|.|.|.|.|.|.|.|.|.|.|.|.|.|.|.|.|.",
"|.|.|.|.|.|.|.|.|.|.|.|.|.|.|.|.|.}.OX:XX.a.s.j 0.C.C N.b t.5.6._ #X|.|.|.|.|.|.|.|.|.|.|.|.|.|.|.|.|.|.|.|. X",
"|.|.|.|. X|.|.|.|.|.|.|.|.|.|.|.|.|.'.$XR.z z G M a.a.9.8.K s.3 Q $X].|.|.|.|.|.|.|.|.|.|.|.|.|.|.|.|.|.|.|.|.",
"|.|. X|.|.|.|.|.|.|.|.|.|.|.|.|.|.|.|.|.[.] > 2 + 7.z.< v z p.k Q @X].|.|.|.|.|.|.|.|.|.|.|.|.OX|. X|.|.|.|.|.",
"|.|.|.|.|.|.|.|.|.|.|.|.|. X|.|.|.|.|.].$X} u.1.,Xn l K m < b c 2.;X|.|.|.|.|.|.|.|.|.|.|.|.|.|.|.|.|.|.|.|.|.",
"|.|.|.|.|.|.|.|.|.|.|.|.|.|.|.|.|.|.|.OX`.( 6XuX0Xb k =.N   j ..[.J.`.OX|.|.|.|.|.|.|.|.|.|.|.|.|.|.|.|.|.|.|.",
"|.|.|.|.|.|.|.|.|.|.|.|.|.|.|.|.|.|.].OX~.x A.hXC.r.j + . O 1 E.L., H.#X|.|.|.|.|.|.|.|.|.|.|.|.|.|.|.|.|.|.|.",
"|.|.|.|.|.|.|.|.|.|.|.|.|.|.|.|.|.|.|.|.#X^.&.7Xb.2 5 d.;.Z U &.5 3.^.OX|.|.|.|.|.|.|.|.|.|.|.|.|.|.|.|.|.|.|.",
"|.|.|.|.|.|.|.|.|.|.|.|.|.|.|.|.|.|.|.|.[.-XO.l m Y.0XgXhXwXP m S } -X[.|.|.|.|.|.|.|.|.|.|.|.|.|.|.|.|.|.|.|.",
"|.|.|.|.|.|.|.|.|.|.|.|.|.|.|.|.|.|.|.}.&X1XD $   3.qXm.eXgX3X$ ' [.|.|.|.|.|.|.|.|.|.|.|.|.|.|. X|.|.|.|.|.|.",
"|.|.|.|.|.|.|.|.|.|.|.|.|.|.|.|.|.|.].OXR.S.-.! ..x.c.5X8XgX9X  [ $X'.|.|.|.|.|.|.|.|.|.|.|.|.|.|.|.|.|.|.|.|.",
"|.|.|.|. X|.|.|.|.|.|.|.|.|.|.|.|.|.|.#XT.=.O.o rXh.g.1X9XgXj.r /.|.|.|.|.|.|.|.|.|.|.|.|.|.|.|.|.|.|.|.|.|.|.",
"|.|.|.|.|.|.|.|.|.|. X|.|.|.|.|.|.|.].#XT.8 ; i.Z.>X$ Z n.c.J Z T #X'.|.|.|.|.|.|.|.|.|.|.|.|.|.|.|.|.|.|.|.|.",
"|.|.|.|.|.|.|.|.|.|.|.|.|.|.|.|.|.|.|.+XI.F i k.k.  x m.m.Z.eX2XT #X|.|.|.|.|.|.|.|.|.|.|.|.|.|.|.|.|.|.|.|.|.",
"|.|.|.|.|.|.|.|.|.|.|.|.|.|.|.|.|.|.|.|.(.Y   a l.:.6 9XjXfXX.5 ) #X|.|.|.|.|.|.|.|.|.|.|.|.|.|.|.|.|.|.|.|.|.",
"|.|.|.|.|.|.|.|.|.|.|.|.|.|.|.|.|.|.|.].*X{ ,.~ O.,.O.. p i R * / #X].|.|.|.|.|.|.|.|.|.|.|.|.|.|.|.|.|.|.|.|.",
"|.|.|.|.|.|.|.|.|.|.|.|.|.|.|.|.|.|.|.].*X[ O.i o.d X   - ~ Y.~ Y |.|.|.|.|.|.|.|.|.|.|.|.|.|.|.|.|.|.|.|.|.|.",
"|.|.|.|.|.|.|.|.|.|.|.|.|.|.|.|.|.|.|.|.].] + - c.I $.6 & ] P.4X   .#X].|.|.|.|.|.|.|.|.|.|.|.|.|.|.|.|.|.|.|.",
"|.|.|.|.|.|.|.|.|.|.|.|.|.|.|.|.|.|.].#XG.P D   ;.fX3XD ! P.4X!.   .#X].|.|.|.|.|.|.|.|.|.|.|.|.|.|.|.|.|.|. X",
"|.|.|. X|.|.|.|.|.|.|.|.|.|.|.|.|.|.].*XH.A >X: j.;.& X 0 ,X` r   { #X].|.|.|.|.|.|.|.|.|.|.|.|.|.|.|.|.|.|.|.",
"|.|.|. X|.|.|.|.|.|.|.|.|.|.|.|.|.|.].#XG.  ..:   = U.R X s >XA w ).&X}.|.|.|.|.|.|. X|.|.|.|.|.|.|.|.|.|.|.|.",
"|.|.|.|.|.|.|.|.|.|.|.|.|.|.|.|.|.|.].#XF.K A   . 0 >.d   v.;.3 _ ;X:X|.|.|.|.|.|.|.|.|. X|.|.|.|.|.|.|.|.|.|.",
"|.|.|.|.|.|.|.|.|.|.|.|.|.|.|.|.|.|.].*XH.e.J X A q ~ : * h 2Xy.T #X|.|.|.|.|.|.|.|.|.|.|.|.|.|.|.|.|.|.|.|.|.",
"|.|.|.|.|.|.|.|.|.|.|.|.|.|.|.|.|.|.|.#XJ.D s & ;.%   F v.K.E : / @X|.|.|.|.|.|.|.|.|.|.|.|.|.|.|.|.|.|.|.|.|.",
"|.|.|.|.|.|.|.|.|.|.|.|.|.|.|.|.|.|.|.].$XJ.& % 4.* & v.J q P.d / #X|.|.|.|.|.|.|.|.|.|.|.|.|.|.|.|.|.|.|.|.|.",
"|.|.|.|.|.|.|.|.|.|.|.|.|.|.|.|.|.|.|.|.].*X_   g = ^ X.=.=.N O _ $X].|.|.|. X|.|.|.|.|.|.|.|.|.|.|.|.|.|.|.|.",
"|.|.|.|.|.|.|.|.|.|.|. X|.|.|.|.|.|.|.|.oX$X!   & y >.~ 6 h.x O / +X].|.|.|.|.|.|.|.|.|.|.|.|.|.|.|.|.|. X|.|.",
"|.|.|.|.|.|.|.|.|.|.|.|.|.|.|.|.|.|.|.|.].$X)   X ] yX4XY.3.v.r /.aX&X.X|.|.|.|.|.|.|.|.|.|.|.|.|.|.|.|.|.|.|.",
"|.|.|.|. X|.|.|.|.|. X|.|.|.|.|.|.|.|.]..XsX$.  * +.tXiXdXdXu Y +X|.|.|.|.|.|.|.|.|.|.|.|.|.|.|.|.|.|.|.|. X|.",
"|.|.|.|.|.|.|.|.|.|.|.|.|.|.|.|.|.|.|.OX.XpX@.  B %.X.dXo.X = '.|.oX:X|.|.|.|.|.|.|.|.|.|.|.|.|.|.|.|.|.|.|.|.",
"|.|.|.|.|.|.|.|.|.|.|.|.|.|.|.|.|.|.|.|.].+XT . , a.8.> 1 2 0 ]..X%X%X|.|.|.|.|.|.|.|.|.|.|. X|.|.|.|.|.|.|.|.",
"|.|.|.|.|.|.|.|.|.|.|.|.|.|.|.|.|.|.|.|.].OXJ.6 7 G 0.p.z x r }.|.|.|.|.|.|.|.|.|.|.|.|.|.|.|.|.|.|.|.|.|.|.|.",
"|.|.|.|.|.|.|.|.|.|.|.|.|.|.|.|.|.|.|.|.|.|.$Xf 9   M r.H < + R.%X|.|.|.|.|.|.|.|.|.|.|.|. X|.|.|.|.|.|.|.|.|.",
"|.|.|.|.|.|.|.|.|.|.|.|.|.|.|.|.|.|.|.|.|.|.@Xt .   5 m + X.+ f @XoX|.|.|.|.|.|.|.|.|.|.|.|.|.|.|.|.|.|.|.|.|.",
"|.|.|.|.|.|.|.|.|.|.|.|.|.|.|.|.|.|.|.|.|.|.|.y   .   A p %.-.  | #X|.|.|.|.|.|.|.|.|.|.|.|.|.|.|.|.|.|.|.|.|.",
"|.|.|.|.|.|.|.|.|.|.|.|.|.|.|.|.|.|.|.|.].#XT # o   h ..# : 4 . T +X|.|.|.|.|.|.|.|.|.|.|.|.|.|.|.|.|.|.|.|.|.",
"|.|.|.|.|.|. X|.|.|.|.|.|.|.|.|.|.|.|.|.|.@XF.#.(   : @.<.<.*.. ) #X].|.|.|.|.|.|.|.|.|.|.|.|.|.|.|.|.|.|.|.|.",
"|.|. X|.|.|.|.|.|.|.|.|. X|.|.|.|.|.|.|.|.'.#X] 2 = ; f 1.<.<.@ / #X|.|.|.|.|.|.|.|.|.|.|.|.|.|.|.|.|.|.|.|.|.",
"|.|.|.|.|.|.|.|.|.|.|.|.|.|.|.|.|.|.|.|.|.|.OXt a : ; : ( g g   / #X'.|.|.|.|.|.|.|.|.|.|.|.|.|. X|.|.|.|.|.|.",
"|.|.|.|.|.|.|.|.|.|.|.|.|.|.|.|.|.|.|.|.|.].OXt 1   4 i     = i T @X|.|.|.|.|.|.|. X|.|.|.|.|.|.|.|.|.|.|.|.|.",
"|.|.|.|.|.|.|.|.|.|.|.|.|.|.|.|.|.|.|.|.|.|.#Xy     u *.' 2.( E (.|.|.|.|.|.|.|.|.|.|.|.|.|.|.|.|.|.|.|.|.|.|.",
"|.|.|.|.|.|.|.|.|.|.|.|.|.|.|.|.|.|.|.|.|.`.(.E @   i ..a $.4.s | #X|.|.|.|.|.|.|.|.|.|.|.|.|.|.|.|.|.|.|.|.|.",
"|.|.|.|.|.|.|.|.|.|.|.|.|.|.|.|.|.|. X].$X{ p #...o = y.L 7 &.3 T #X|.|.|.|.|.|.|.|.|.|.|.|.|.|.|.|.|.|.|.|.|.",
"|.|.|.|.|.|.|.|.|.|.|.|.|.|.|.|.|.|.|.|.OXW.=   % %   2 F A # ..G.OX].|.|.|.|.|.|.|.|.|.|.|.|.|.|.|.|.|.|. X|.",
"|.|.|.|.|.|.|.|.|.|.|.|.|.|.|.|.|.|.|.|.|.#XW.F.o     : g g u y $X'.|.|.|.|.|.|.|.|.|.|.|.|.|.|.|.|.|.|.|.|.|.",
"|.|.|.|.|. X|.|.|.|. X|.|.|.|.|.|.|.|.|.|.].:X#XT.i f.@.1.1.$.f OX|.|.|.|.|.|.|.|.|.|.|.|.|.|.|.|.|.|.|.|.|.|.",
"|.|.|.|.|.|.|.|.|.|.|.|.|.|.|.|.|.|.|.|.|.|.}.OX(.@ g 4 @ 4 ( (.|.|.|.|.|.|.|.|.|.|.|.|.|.|.|.|.|.|.|.|.|.|.|."
};
