/* XPM */
static char *player27[] = {
/* columns rows colors chars-per-pixel */
"55 55 226 2 ",
"   c #020101",
".  c #0B0302",
"X  c #040A04",
"o  c #0A0904",
"O  c #04040A",
"+  c #0D0D0C",
"@  c #08090D",
"#  c #140B0B",
"$  c #1A0B0A",
"%  c #190602",
"&  c #0E150E",
"*  c #1A1308",
"=  c #090D14",
"-  c #050514",
";  c #120C13",
":  c #0C1413",
">  c #0C151B",
",  c #1E1D1C",
"<  c #171816",
"1  c #220D0A",
"2  c #28150A",
"3  c #371903",
"4  c #281917",
"5  c #3E0D00",
"6  c #1C211A",
"7  c #26281E",
"8  c #36291B",
"9  c #33240F",
"0  c #100220",
"q  c #0E1125",
"w  c #151D22",
"e  c #1E1F37",
"r  c #241F2B",
"t  c #1C2423",
"y  c #192A2A",
"u  c #14232B",
"i  c #172938",
"p  c #1A323C",
"a  c #262726",
"s  c #3A2725",
"d  c #24322E",
"f  c #37362A",
"g  c #252836",
"h  c #2B3132",
"j  c #27373C",
"k  c #343938",
"l  c #451503",
"z  c #481903",
"x  c #59190B",
"c  c #4C280E",
"v  c #582303",
"b  c #572D13",
"n  c #57311D",
"m  c #6A350C",
"M  c #6A3D1C",
"N  c #733B14",
"B  c #542B24",
"V  c #463229",
"C  c #4A3E36",
"Z  c #553D35",
"A  c #4E2E2E",
"S  c #653C25",
"D  c #723E20",
"F  c #3D473D",
"G  c #75411C",
"H  c #4E412E",
"J  c #5D542B",
"K  c #4A4538",
"L  c #574B38",
"P  c #58583C",
"I  c #554C24",
"U  c #6B452F",
"Y  c #784627",
"T  c #7A543A",
"R  c #6F4F35",
"E  c #5D683C",
"W  c #68612D",
"Q  c #1E3F57",
"!  c #1A3342",
"~  c #253E52",
"^  c #333759",
"/  c #34304F",
"(  c #1D3E60",
")  c #332D67",
"_  c #1D4157",
"`  c #394848",
"'  c #36524B",
"]  c #244659",
"[  c #274657",
"{  c #394658",
"}  c #244967",
"|  c #29546E",
" . c #2A5773",
".. c #315D75",
"X. c #364C67",
"o. c #484B48",
"O. c #564B48",
"+. c #545345",
"@. c #4D5756",
"#. c #664C46",
"$. c #67544C",
"%. c #685A54",
"&. c #785852",
"*. c #56635B",
"=. c #4E635E",
"-. c #64644E",
";. c #666B5B",
":. c #756E51",
">. c #575767",
",. c #4A5377",
"<. c #645965",
"1. c #4C6362",
"2. c #546A76",
"3. c #536A6A",
"4. c #636566",
"5. c #7A7968",
"6. c #6C6F72",
"7. c #844719",
"8. c #89512C",
"9. c #865636",
"0. c #8D5329",
"q. c #99653E",
"w. c #95602E",
"e. c #A46D3A",
"r. c #AE7538",
"t. c #8B5B44",
"y. c #995A44",
"u. c #976646",
"i. c #8A7B44",
"p. c #8F6953",
"a. c #98795B",
"s. c #916B46",
"d. c #A67845",
"f. c #A67350",
"g. c #B77E55",
"h. c #AE7148",
"j. c #807E6D",
"k. c #76817A",
"l. c #92945D",
"z. c #948852",
"x. c #B3824E",
"c. c #B88756",
"v. c #998762",
"b. c #978D74",
"n. c #9B9A74",
"m. c #969465",
"M. c #B19567",
"N. c #97A17C",
"B. c #B2A97A",
"V. c #C29257",
"C. c #C28865",
"Z. c #CA996D",
"A. c #D09973",
"S. c #D9AD6A",
"D. c #E5B579",
"F. c #CAC87B",
"G. c #366989",
"H. c #357398",
"J. c #406989",
"K. c #52718C",
"L. c #707190",
"P. c #797EA6",
"I. c #877F87",
"U. c #3F82A8",
"Y. c #6C8C93",
"T. c #4683A8",
"R. c #5586A8",
"E. c #468EB6",
"W. c #5396BD",
"Q. c #4691B7",
"!. c #7D86B9",
"~. c #4B98C5",
"^. c #589AC3",
"/. c #4CA1D3",
"(. c #54ACDD",
"). c #58A7D5",
"_. c #71B2CE",
"`. c #55AEE2",
"'. c #56B4E5",
"]. c #59B6ED",
"[. c #5BB8EF",
"{. c #58B2E4",
"}. c #54B6F1",
"|. c #55B9F5",
" X c #5CBCF4",
".X c #5CBFF9",
"XX c #57BDF8",
"oX c #64BCEE",
"OX c #61BDF3",
"+X c #71BCE7",
"@X c #5DC2FC",
"#X c #5ECAFF",
"$X c #7FCAEF",
"%X c #60C5FE",
"&X c #63CBFF",
"*X c #6BCCFF",
"=X c #63C2F6",
"-X c #76CAF9",
";X c #6BD4FF",
":X c #69D4FF",
">X c #77D4FF",
",X c #9D9A8E",
"<X c #A19399",
"1X c #B1B190",
"2X c #9E96A9",
"3X c #9AAFAD",
"4X c #CCBD95",
"5X c #A2C1BE",
"6X c #C4C297",
"7X c #D3C79C",
"8X c #CAC78B",
"9X c #DCDCB7",
"0X c #C1C3B0",
"qX c #DEE1B7",
"wX c #FFF1AE",
"eX c #EDE9B5",
"rX c #FBF7BD",
"tX c #969BC7",
"yX c #89AEC1",
"uX c #8DD3F3",
"iX c #8DCFEE",
"pX c #C3C3C6",
"aX c #D2CFC2",
"sX c #FCFAC7",
"dX c #FBFAD6",
"fX c #CAD2E5",
/* pixels */
" X X X X X X X X X X X X X X X X X X X X X X X X X X X X X X X X X X X X X X X X X X X X X X X.X X X X X X X X",
" X X X X X X X X X X X X X@X X X X X X X X X X X X X X X X X X X X X X X X X X X X X X X X X X X X X X X X X X",
" X X X X X X X X X X X X X X X X X X X X X X XOX X X[. X X X X X X X X X X X X X X X X X X X X X X X X X X X X",
" X X X X X X X X X X X X X X X X X X X X X XOXOX@X@X@X#XXX X X X X X X X X X X X X X X X X X X X X X X X X X X",
" X X X X X X X X X X X X X X X X X X X X XOX=XuX6.>.<.*.yX*X|. X X X X X X X X X X X X X X X X X X X X X X X X",
" X X X X X X X X X X X X X X X X X X X X X-X2.R C.g.0.h.f.$.(.@X X X X X X X X X X X X X X X X X X X X X X X X",
" X X X X X X X X X X X X X X X.X X X X X XL.c.G G r.w.w.e.Z.L ). XOX X X X X X X X X X X X X X X X X X X X X X",
" X X X X X X X X X X X X X X X X X X X&XR.r.c.T 9.x.q.9.d.t.v H %XOX X X X X X X X X X X X X X X X X X X X X X",
" X X X X X X X X X X X X X X X X X X@X'.6.7.q.Z.D.q.d.w.A.T 7.C &X]. X X X X X X X X X X X X X X.X X X X X X X",
" X X X X X X X X X X X X X X X X X[.@XW.b u.S.q.c.g.c.y.m M h.p.T.@X X X X X X X X X X X X X X X X X X X X X X",
" X X X X X X X X X X X X X X X X X X X@X,.f.d.l t.S.G A.N p.Y N ~ &X}. X X X X X.X X X X X X X X X X X X X X X",
" X X X X X X X X X X.X X X X X X X X X#XR.l 3 U U M.v 0.9.Y C.5 ] &X[. X X X X X X X X X X X X X X X X X X X X",
" X X X X X X X X X X X X X X X X X X X}.uX5.* 4 f f.l v n c u.v ~ @X X X X X X X X X X X X X X X X X X X X X X",
" X.X X X X X X X X X X X X X X X X X X].>X..v.L.<Xc l 9.Z % N b K.*X X X X X X X X X X X X X X X X X X X X X X",
" X X X X X X X X X X X X X X X X X X X@X/./ 4X9X7XD x &.f   l L '.G.)..X X X X X X X X X X X X X X X X X X X X",
" X X X X X X X X X X X X X X X X X X[.%X~.F Z.rX4Xu.3 .   r 3 4 2.9 H.*X X X X X X X X X X X X X X X X X X X X",
" X X X X X X X X X X X X X X X X X X X[.&X(.+.S.C.2 8 ,Xn.8 $   2 3.`. X X X X X X X X X X X X X X X X X X X X",
" X X X X X X X X X X X X X X X X X X[.@X'.&X] 3 r ,XeXdXsX7X= h $.| :X}. X X X X X X X X X X X X X X X X X@X X",
" X X X X X X@X X X X X X X X X X X X X X=X@X[ o   4.sXeXrXrX< - 1 K.*X X X X X X X X X X X X X X X X X X X X X",
" X X X X X X X X X X X X X X X X X X X X[.>X[ / *.B.W 4XsXsX+.  _ &X]. X X X X X X X X X X X.X X X X X X X X X",
" X X X X X X X X X X X X X X X X X X X X@X^.a X 8Xl.2 b.dXn.l.  ] %X[. X X X X X X X X X X X X X X X X X X X X",
" X X X X X X X X X X X X X X X X X X X[.:XJ.P B.W 4.* I M.:.:.  Q &X[. X X X X X X X X X X X X X X X X X X X X",
" X X X X X X X X X X X X X X X X X X X[.&XJ.V m.z.a 4XF.8XeX6X, Q.%X X X X X X X X X X X X X X X X X X X X X X",
" X X X X X X X X X X X X X X X X X X X X X'.i a -.* n.9X9X+.* p &X X X X X X X X X X X X X X X X X X X X X X X",
" X X X X X X X X@X X X X X X X X X X X X}.;X[   >.& o & / / o u '. X X X X X X X X X X X X X X X X X X X X X X",
" X X X X X X X X X X X X X X X X X X X XoX>X_   k.h   q ^ !.,.  ] *X X X X X X X X X X X X X X X X X X X X X X",
" X X X X X X X X X X X X X X X X X X=X|.$X_.' # v.l.F = X.,.tX  Q *X X X X X X X X X X X X X X X X X X X X X X",
" X X X X X X X X X X X X X X X X X X X[.&X..i.f 5.dXL i K.!.L.> T..X X X X X X X X X X X X X X X X X X X X X X",
" X X X X X X X X X X X X X X X X X X X].&X .@.h -.o.  *.4.e - ! &X X X X X X X X X X X X X X X X X X X X X X X",
"@X X X X X X X X X X X X X X X X X X X X:X,.. ;   w o.* b.5.  e @X[. X X X X X X X X X X@X X X X X X X X X X X",
" X X X X X X X X X X X X X X X X X X X].*X| i.V ; )   <.,Xf   w ]. X X X X X X X X X X X X X X X X X X X X X X",
" X X X X X X X X X X X X X X X X X X X].>X| i.C O.) 7 < 5.N.:   } *X X X X X X X X X X X X X X X X X X X X X X",
" X X X X X X X X X X X X X X X X X X=X|.uXR.+.8 E < J <.^ e q e Q &X]. X X X X X X X X X X X X X X X X X X X X",
" X X X X X X X X X X X X X X X X X X X X}.>X{   K.7 T a.<./ / e Q %X X X X X X X X X X.X X X X X X X X X X X X",
" X X X X X X X X X X X X X X X X X X X X[.*X[   g # v.wXL o { g Q &X]. X X X X X X X X X X X X X X X X X X X X",
" X X X X X X X X X X X X X X X X X X X X[.&X_   < 4.  L J , P.g Q &X X X X X X X X X X X X X X X X X X X X X X",
" X X X X X X X X X X X X X@X X X X X X X].&X[   # < >.L.2X,Xn.y '..X X X X X X X X X X X X X X X X X X X X X X",
" X X X X X X X X X X X X X X X X X X X X X+XO.1 s A pXfXpX0X< _ %XOX X X X X X X X X X X X X X X X X X X X X X",
" X X X X X X X X X X X X X X X X X X X[.#X2.v 2 V 9.L 1XK   >  XOX|.|.|. X X X X X X X X X X X X X X X X X X X",
" X X X X X X X X X X X X X X X X X X X@X).#.m $ # d.9.2 9 9 t  X|.iXiX|. X X X X X X X X X X X X X X X X X X X",
" X X X X X X X X X X X X X X X X X X[.&XK.x M ; O S g.p.B 2 & Y.uX$XiX|. X X X X X X X X X X X X X X X X X X X",
" X X X X X X X X X X X X X X X X X X.X).K m D 1     n A 1 L 1 h -X[.|. X X X X X X X X X X X X X X X X X X X X",
" X X X X X X X X X X X X X X X X X X%XE.b f.U V O     C a $.%.o } *X X X X X X X.X X X X X X X X X X X X X X X",
" X X X X X X X X X X X X X X X X X[.%X~.V 9.2   X X & a < < 6 o _ :X X X X X X X X X X X X X X X X X X X X X X",
" X X X X X X@X X X X X X X X X X X X X*XW.7 a a y > < =.3.3.*.& p (. X X X X X X X X X X X X X X X X@X X X X X",
" X X X X X X X X X X X X X X X X X X X[.@XQ.h k < =   d 1.=.=.y o  .&X]. X X X X X X X X X X X X X X X X X X X",
" X X X X X X X X X X X X X X X X X X X X].&XQ.=   .   @.5X3X` o p /..X X X X X X.X X X X X X X X X X X X X X X",
" X X X X X X X X X X X X X X X X X X X X X].*Xj C #   ' 3.k O   : U.@X X X X X X X X X X X X X X X X X X X X X",
" X X X X X X X X X X X X X X X X X X X X X].%Xg &.$.  d ' ` *.h i `. X X X X X X X X X X X X X X X X X X X X X",
" X X X X X X X X X X X X X X X X X X X X X%X{.y . #   X < K ;.a   ..&X]. X X X X X X X X X X X X X X X X X X X",
" X X X X X X X X X X X X X X X X X X X X@X(.p & 6 +     $.L # C = T.%X X X X X X X X X X X X X X X X X X X X X",
" X X X X X X X X X X X X X X X X X X X X&X..  X &   O o s L $ . i /.%X[. X X X X X X X X X X X X X X X X X X X",
" X X X X X X X X X X X X X X X X[.@X@X X@XW.G.G.@   O   y : < t o  .&X]. X X X X X X X X X X X X X X X X X X X",
"@X X X X X X X X X X X X X X X X X[.[.[. X@X&X&XT.  F L.j t u ; ! (.@X X X X X X X X X X X X X X X X X X X X X",
" X X X X X X X X X X X X X X X X X X@X[.[.@X[.[.*XH.& d + X   y {.%X X X X X X X X X X X X X X X X X X X X X X"
};
