/* XPM */
static char *player14[] = {
/* columns rows colors chars-per-pixel */
"55 55 244 2 ",
"   c #020202",
".  c #0A0302",
"X  c #050904",
"o  c #04020B",
"O  c #0B0C0B",
"+  c #070B09",
"@  c #120D0B",
"#  c #1B0905",
"$  c #0B130E",
"%  c #14130B",
"&  c #080917",
"*  c #110C12",
"=  c #0E151B",
"-  c #0C191D",
";  c #0B1513",
":  c #151311",
">  c #13161B",
",  c #151B19",
"<  c #191915",
"1  c #220E08",
"2  c #3D180B",
"3  c #231A14",
"4  c #281A1A",
"5  c #2E1811",
"6  c #1A241B",
"7  c #2D2517",
"8  c #35270F",
"9  c #070C24",
"0  c #091223",
"q  c #161C29",
"w  c #15172E",
"e  c #231C23",
"r  c #1C242B",
"t  c #192426",
"y  c #192835",
"u  c #1A343B",
"i  c #292726",
"p  c #28312D",
"a  c #393626",
"s  c #252936",
"d  c #293536",
"f  c #353837",
"g  c #362A29",
"h  c #4B1C16",
"j  c #482C1C",
"k  c #582917",
"l  c #583A1B",
"z  c #4F290A",
"x  c #653318",
"c  c #723E1C",
"v  c #6A360C",
"b  c #482C24",
"n  c #463935",
"m  c #50392A",
"M  c #683C26",
"N  c #723C26",
"B  c #6A3F3A",
"V  c #3E4038",
"C  c #6A421C",
"Z  c #7D4A1D",
"A  c #464529",
"S  c #47433C",
"D  c #5A463A",
"F  c #5C5536",
"G  c #534D2B",
"H  c #694A2D",
"J  c #784626",
"K  c #72522B",
"L  c #774833",
"P  c #65553A",
"I  c #6E5534",
"U  c #736B38",
"Y  c #1B3F56",
"T  c #1D2F52",
"R  c #263444",
"E  c #3A3C4B",
"W  c #2B3A59",
"Q  c #333754",
"!  c #2A2C4D",
"~  c #303E69",
"^  c #443C4C",
"/  c #3B4455",
"(  c #334A4D",
")  c #3A4262",
"_  c #3E546C",
"`  c #305470",
"'  c #396176",
"]  c #484A45",
"[  c #575A47",
"{  c #544B54",
"}  c #495957",
"|  c #585457",
" . c #4C4D4D",
".. c #775C43",
"X. c #69564C",
"o. c #48655B",
"O. c #52655B",
"+. c #686447",
"@. c #686659",
"#. c #796B55",
"$. c #434D68",
"%. c #48597D",
"&. c #565578",
"*. c #505168",
"=. c #5C6869",
"-. c #496978",
";. c #556779",
":. c #576D72",
">. c #666B69",
",. c #627A78",
"<. c #74746C",
"1. c #80491E",
"2. c #885428",
"3. c #97592A",
"4. c #875537",
"5. c #89532D",
"6. c #89643C",
"7. c #946338",
"8. c #A36B38",
"9. c #825440",
"0. c #846348",
"q. c #847548",
"w. c #94754B",
"e. c #AC7852",
"r. c #847866",
"t. c #917965",
"y. c #5E847E",
"u. c #948B50",
"i. c #A68459",
"p. c #B28853",
"a. c #878669",
"s. c #999777",
"d. c #958D6C",
"f. c #B98868",
"g. c #A3986D",
"h. c #B1AB72",
"j. c #C99B59",
"k. c #C38C5B",
"l. c #C89565",
"z. c #CF9B7A",
"x. c #D2A76F",
"c. c #E4B675",
"v. c #E7AD7D",
"b. c #FDE57E",
"n. c #3F5284",
"m. c #387699",
"M. c #2F658C",
"N. c #387DA8",
"B. c #337DB1",
"V. c #4B5B85",
"C. c #505B86",
"Z. c #5B5F92",
"A. c #615D84",
"S. c #566887",
"D. c #4C7381",
"F. c #586B90",
"G. c #567693",
"H. c #44748E",
"J. c #686A89",
"K. c #676D95",
"L. c #697699",
"P. c #74798B",
"I. c #6B7BA6",
"U. c #787DA9",
"Y. c #6E77B3",
"T. c #467BA6",
"R. c #3685B2",
"E. c #5D8C84",
"W. c #6F8788",
"Q. c #76A39B",
"!. c #4687A9",
"~. c #468CB6",
"^. c #4792BB",
"/. c #5492B7",
"(. c #6499B9",
"). c #7784A9",
"_. c #6FA3BA",
"`. c #4998C8",
"'. c #4C9FD0",
"]. c #509FCE",
"[. c #619FC6",
"{. c #4FA6D6",
"}. c #54A8D7",
"|. c #5CA0C4",
" X c #6EB0D2",
".X c #56B4EB",
"XX c #59B6ED",
"oX c #5AB5E9",
"OX c #56B9F4",
"+X c #5CBCF4",
"@X c #5CBFF9",
"#X c #55BBF8",
"$X c #55B0E8",
"%X c #61BEF3",
"&X c #65B9F8",
"*X c #5EC2FC",
"=X c #5CC4FC",
"-X c #61C4FD",
";X c #63CAFF",
":X c #6CC7F8",
">X c #77CCF9",
",X c #6CD1FF",
"<X c #74D0FE",
"1X c #79CAEF",
"2X c #939790",
"3X c #AEAC91",
"4X c #8E91A5",
"5X c #8694B8",
"6X c #929BB9",
"7X c #868AB6",
"8X c #8CB4A9",
"9X c #95B2AD",
"0X c #B3B1B2",
"qX c #C4BB85",
"wX c #EBBB92",
"eX c #BBC08E",
"rX c #BFC6A9",
"tX c #CCC387",
"yX c #CAC599",
"uX c #D6CF99",
"iX c #FEDC98",
"pX c #FADC87",
"aX c #FFE58D",
"sX c #D7D6B0",
"dX c #E8DAB0",
"fX c #FCE6A7",
"gX c #E8E8B9",
"hX c #F6EAB7",
"jX c #FAF3BB",
"kX c #E9E8AD",
"lX c #9CABD4",
"zX c #90AFCE",
"xX c #A3AFD4",
"cX c #ABB6E7",
"vX c #919DC4",
"bX c #8BD3F4",
"nX c #9AE9FF",
"mX c #A9D0D8",
"MX c #CECDCD",
"NX c #F9E8C9",
"BX c #FDF9C7",
"VX c #FFFFD4",
"CX c #FCFDDB",
"ZX c #EEE5C9",
/* pixels */
"+X+X+X+X+X+X+X+X+X+X+X+X+X+X+X+X+X+X+X+X+X+X+X+X+X+X+X+X+X+X+X+X+X+X+X+X+X+X+X+X+X+X+X+X+X+X+X+X+X+X+X+X+X+X+X",
"+X+X+X+X+X+X+X+X+X+X+X+X+X+X+X+X+X+X+X+X+X+X+X+X+X+X+X+XXX+X+XXX+X+X+X+X+X+X+X+X+X+X+X+X+X+X+X+X+X+X+X+X+X+X+X",
"+X+X+X+X+X+X+X+X+X+X+X+X+X+X+X+X+X+X+X+X+X+X+X+X+X+XXX*X=X=X;X=XOX+X+X+X+X+X+X+X+X+X+X+X+X+X+X+X+X+X+X+X+X+X+X",
"+X+X+X+X+X+X+X+X+X+X+X+X+X+X+X+X+X+X+X+X+X+X+X+X+XOX,X(.:.:.-.W.<X+X+X+X+X+X+X+X+X+X+X+X+X+X+X+X+X+X+X+X+X+X+X",
"+X+X+X+X+X+X+X+X+X+X+X+X+X+X+X+X+X+X+X+X+X+X+X+X-X X| ..3.e.e.7.@.!.-XXX+X+X+X+X+X+X+X+X+X+X+X+X+X@X+X+X+X+X+X",
"+X+X+X+X+X+X+X+X+X+X+X+X+X+X+X*X+X+X+X+X+X+X+X#XzXL v 1.c l.j.1.v x (.-X+X+X+X+X+X+X+X+X+X+X+X+X+X+X+X+X+X+X+X",
"+X+X+X+X+X+X+X+X+X+X+X+X+X+X+XXX+XXX*XXX+XXX+X@X] 2.v.4.N 1.k.x.l.2.h }.*XXX+X+X+X+X+X+X+X+X+X+X+X+X+X+X+X+X+X",
"+X+X+X+X+X+X+X+X+X+X+X+X+X+X*X=X=X;X%X1X:X1X*X_...c.e.4.e.N x N 1.z.1.-.>X-X+X+X+X+X+X+X+X+X+X+X+X+X+X+X+X+X+X",
"+X+X+X+X+X+X+X+X+X+X+X+X+X+X-X^.T.m.bXbX+XOX=XV p.5.l.x.3.e.1.7.1.1.j.w.P.&X+X+X+X+X+X+X+X+X+X+X+X+X+X+X+X+X+X",
"+X+X+X+X+X+X+X+X+X+X+X+X+XXX;Xn.#.{ _ &XOX>X,Xy v j.l.4.c.x.l.4.c.7.3.0.-.XX+X+X+X+X+X+X+X+X+X+X+X+X+X+X+X+X+X",
"+X+X+X+X+X+X+X+X+X+X+X+X+X+X+X&X=.i s.vXbX[.3XG f.p.k z.j.k l.x w.wX4.  oX-XXX+X+X+X+X+X+X+X+X+X+X+X+X+X+X+X+X",
"+X+X+X+X+X+X+X+X+X+X+X+X+X+X+X+X}.0 ] 3X( 2X+.2 t.h k 7.J x p.J J x i.b `.-X+X+X+X+X+X+X+X+X+X+X+X+X+X+X+X+X+X",
"+X+X+X+X+X+X+X+X+X+X+X+X+X+XOXbXbXmXs , 2X| <.<.2 4.z k 5.c f.4.2.z c ..d .X%X+X+X+X+X+X+X+X+X+X+X+X+X+X+X+X+X",
"+X+X+X+X+X+X+X+X+X+X+X@X+X+X+X+X+X;Xm.S 4Xg m 2X#.L x z l J l.M K H m # > oX@X+X+X+X+X+X+X+X+X+X+X+X+X+X+X+X+X",
"+X+X+X+X+X+X+X+X+X+X+X+X+X+X+X+X,Xm.A a.f h.fX..P.< L n w t.#.n a o o | ,.#X#X+X+X+X+X+X+X+X+X+X+X+X+X+X+X+X+X",
"+X+X+X@X+X+X+X+X+X+X+X+X+X+X+X-XM.] s., F BXgXiX..9 | { V.&.! $.) )   2XsX_.@X+X+X+X+X+X+X+X+X+X+X+X+X+X+X+X+X",
"+X+X+X+X+X+X+X+X+X+X+X+X+X+X+X-X^.f n ,.  i.CXgXaXq.q 0 0 & w & y > a g.yXh.9X>X#X&X+X+X+X+X+X+X+X+X+X+X+X+X+X",
"+X+X+X+X+X+X+X+X+X+X+X+X+X+X+X+X;X`.`. Xs.<.i.VXhXaXU 9 Q d T W i   A dXVXhXtX9X:XOX+X+X+X+X+X+X+X+X+X+X+X+X+X",
"+X+X+X+X+X+X+X+X+X+X+X+X+X+X+X+X+X:XoX[ kXjXU g.BXjXt.  r.qXf 2XyXyXj 3XCXhXuXu.!.-X+X+X+X+X+X+X+X+X+X+X+X+X+X",
"+X+X+X+X+X+X+X+X+X+X+X+X+X+X+X+X+X-X`.a kXZXBXP p.u.7 n E , g.g 6X/ A sXBXhXBX+.M.-X+X+X+X+X+X+X+X+X+X+X+X+X+X",
"+X+X+X+X+X+X+X+X+X+X+X+X+X+X+X+X+X-X}.6 yXVXjXdX[ X G eXa.{ +.i cXT d.jXhXVXhXA H.,XoX+X+X+X+X+X+X+X+X+X+X+X+X",
"+X+X+X+X+X+X+X+X+X+X+X+X+X+X+X+X+X.XH.#.q.u.kXa.@.| X G qXh.1 R 4X .>.X.dXg.u.#.<.}.-X+X+X+X+X+X+X+X+X+X+X+X+X",
"+X+X+X+X+X+X+X+X+X+X+X+X+X+X+X+X%X.Xr uXuXh.gXp   E X +.c.h.K m q s i . yXh.tXZXS R.;X+X+X+X+X+X+X+X+X+X+X+X+X",
"+X+X+X+X+X+X+X+X+X+X+X+X+X+X+X+X+X@X~.< S  .f X o   X , [ u.h.h.+.  X X i  .S 3 ' -XXX+X+X+X+X+X+X+X+X+X+X+X*X",
"+X@X+X+X+X+X+X+X+X+X+X+X+X+X+X+X+X&X$Xy s &.= ; O i $ X X a.tXU A - >   o $.$.; /.@X+X+X+X+X+X+X+X+X+X+X+X+X+X",
"+X+X+X+X+X+X+X+X+X+X+X+X+X+X+X+X+X$XC.5XV.Q s MXi X G #.P % a X   & e # + d $.).K.`.-X+X+X+X+X+X+X+X+X+X+X+X+X",
"+X+X+X+X+X+X+X+X+X+X+X+X+X+X+X+X+XXX_ lX5XV.$.MXs   < +.n > & + 8 0.x.e.: E ).cX&.`.-X+X+X+X+X+X+X+X+X+X+X+X+X",
"+X+X+X+X+X+X+X+X+X+X+X+X+X+X+X+X+XXXs q P.P.0 >.O * R & ! Q ~ ( ..x.fXiX0.; &.Q > `.-X+X+X+X+X+X+X+X+X+X+X+X+X",
"+X+X+X+X+X+X+X+X+X+X+X+X+X+X+X+X@X.X= +.d.5     + Q V.K.W ! W C.J.0.dXjXpXq.  a 5 R.;X+X+X+X+X+X+X+X+X+X+X+X+X",
"+X+X+X+X+X+X+X+X+X+X+X+X+X+X+X+X+X&X=.g y.[   o > *.V.I.S.S.S.n.L.^ t.dXjXiXq.+ F [.*X%X+X+X+X+X+X+X+X+X+X+X+X",
"+X+X+X+X+X+X+X+X+X+X+X+X+X+X+X+X@XXXd E ^ 7 @ . 9 C.W ' K.L.K.V.~ V.! I hXNXpXs.7 /.=XXX+X+X+X+X+X+X+X+X+X+X+X",
"+X+X+X+X+X+X+X+X+X+X+X+X+X+X+X+X+XXX- > Q ;.d.7 o Z.-.S.L.J.K.G.F.F.i . z.hXfXaXD B.;X+X+X+X@X+X+X+X+X+X+X+X+X",
"+X@X+X+X+X+X+X+X+X+X+X+X+X+X+X+X+X+X` *.A.& g.m w F.F.K.U.7XU.L.;.J./ + x.C w.aXH B.;X+X+X+X+X+X+X+X+X+X+X+X+X",
"+X+X+X+X+X+X+X+X+X+X+X+X+X&X%X+X+X*X{.o S #.I ^ F.D.L.U.lXxXxX5X).J.Y./ D #...I 4 R.=X+X+X+X+X+X+X+X+X+X+X+X+X",
"+X+X+X+X+X+X+X+X+X+X+X+X+X+X#X+X+X+XXX' l p.8 { K.;.J.7XxXlXxXlXI.K.J.;.+ >.zXM.y !.;X+X+X+X+X+X+X+X+X+X+X+X+X",
"+X+X+X+X+X+X+X+X@X+X+X+X+X+X+X+X+X+X@X1X(.|.u y.sXP.I.Y.vX7XlX).L.K.0X0Xy R.=X,X}.}.@X+X+X+X+X+X+X+X+X+X+X+X+X",
"+X+X+X+X+X+X+X+X+X+X+X+X+X+X+X+X+X+X+XOXbXnXY * E MXrX2XL.lX2X<.3XgX@.: > &X+XXX-X%X+X+X+X+X+X+X+X+X+X+X+X+X+X",
"+X+X+X+X+X+X+X+X+X+X+X+X+X+X+X+X+X+X+X+X+X:X`   1 l # +.h.g.2Xd.1 m 5   u XX@X+X+X+X+X+X+X+X+X+X+X+X+X+X+X+X+X",
"+X+X+X+X+X+X+X+X+X+X+X+X+X+X+X+X+X+X+X+X#X+X-X-.x L N M #   @ 2 c 1...4 {.-X+X+X+X+X+X+X+X+X+X+X+X+X+X+X+X+X+X",
"+X+X+X+X+X+X+X+X+X+X+X+X+X+X+X+X+X+X+X+XXX:X+X:Xn 5.5.N j # 1 z 2.8.w.< '.&X+X+X+X+X+X+X+X+X+X+X+X+X+X+X+X+X+X",
"+X+X+X+X+X+X+X+X+X+X+X+X+X+X+X+X+X+X+X+X+X+X#XOX> J w.3.j   . J J J b . {.*X+X+X+X+X+X+X+X+X+X+X+X+X+X+X+X+X+X",
"+X+X+X+X+X+X+X+X+X+X+X+X+X+X+X+X+X+X+X+X+X+X=XD.  7 M 3 .     3 m x j @ {.=XXX+X+X+X+X+X+X+X+X+X+X+X+X+X+X+X+X",
"+X+X+X+X+X+X+X+X+X+X+X+X+X+X+X+X+X+X+X+X+X+X+Xy 1 B h b   +     # k k . ] *X+X+X+X+X+X+X+X+X+X+X+X+X+X+X+X+X+X",
"+X+X+X+X+X+X+X+X+X+X+X+X+X+X+X+X+X+X+X+XXX;X( + ( $ @ $ ] ,   + i B D i O '.*X+X+X+X+X+X+X+X+X+X+X+X+X+X+X+X+X",
"+X+X+X+X+X+X+X+X+X+X+X+X+X+X+X+X+X+X+X+X+X;XR ( Q.Q.Q.y.>.< * } % < $ ( d V =XOX+X+X+X+X+X+X+X+X+X+X+X+X+X+X+X",
"+X+X+X+X+X+X+X+X+X+X+X+X+X+X+X+X+X+X+X+X+X=X!.} ,.y.E.O.p O + ,.9X8X8X8Xo.u =XOX+X+X+X+X+X+X+X+X+X+X+X+X+X+X+X",
"+X+X+X+X+X+X+X+X+X+X+X+X+X+X+X+X+X+X+X+X+X+X=X[.O   .   i :   p o.o.o.O.>.!.@X+X+X+X+X+X+X+X+X+X+X+X+X+X+X+X+X",
"+X+X+X+X+X+X+X+X+X+X+X+X+X*X+X+X+X+X+X+X+X+XOX=X- X t $ , O O f   .     |.-X+X+X+X+X+X+X+X+X+X+X+X+X+X+X+X+X+X",
"+X+X+X+X+X+X+X+X+X+X+X+X+X+X+X+X+X+X+X+X+X+X*X( X.. 6 $       * $ t % @ ].+X+X+X+X+X+X+X+X+X+X+X+X+X+X+X+X+X+X",
"+X+X+X+X+X+X+X+X+X+X+X+X+X+X+X+X+X+X+X+X+X+X&Xy D O X           + , X | p $X+X+X+X+X+X+X+X+X+X+X+X+X+X+X+X+X+X",
"+X+X+X+X+X+X+X+X+X+X+X+X+X+X+X+X+X+X+X+X+X+X;Xu   , , o         X X   n q .X@X+X+X+X+X+X+X+X+X+X+X+X+X+X+X+X+X",
"+X+X+X+X+X+X+X+X+X+X+X+X+X+X+X+X+X+X+X+X+X*X~.- $ d ; +         X ; f % ; +X+X+X+X+X+X+X+X+X+X+X+X+X+X+X+X+X+X",
"+X+X+X+X+X+X+X+X+X+X+X+X+X+X+X+X+X+X+X+X.X;XY . p =.p   .       + + } d % G.*X+X+X+X+X+X+X+X+X+X+X+X+X+X+X+X+X",
"+X+X*X+X+X+X+X+X+X+X+X+X+X+X+X+X+X+X+X+X#X-X'.t X 6 ,     M.>     6 =.p @ y *X+X+X+X+X+X+X+X+X+X+X+X+X+X+X*X+X",
"+X+X+X+X+X+X+X+X+X+X+X+X+X+X+X+X+X+X+X+X+X+X=X}.`.`.`.].`.+X}.R.  O , +   y *XXX+X+X+X+X+X+X#X+X+X+X+X+X+X+X+X"
};
