/* XPM */
static char *player19[] = {
/* columns rows colors chars-per-pixel */
"55 55 238 2 ",
"   c #010102",
".  c #0B0404",
"X  c #03040B",
"o  c #050909",
"O  c #0A0B0C",
"+  c #090805",
"@  c #150A05",
"#  c #191208",
"$  c #050315",
"%  c #090A15",
"&  c #130D15",
"*  c #0D1617",
"=  c #121112",
"-  c #181A19",
";  c #0B100B",
":  c #28170A",
">  c #261B16",
",  c #341B17",
"<  c #361100",
"1  c #1D211D",
"2  c #3D360E",
"3  c #2D281B",
"4  c #37241A",
"5  c #3C371D",
"6  c #0D1727",
"7  c #161C27",
"8  c #151A3A",
"9  c #0D132E",
"0  c #251C30",
"q  c #182225",
"w  c #182935",
"e  c #122936",
"r  c #292727",
"t  c #352A29",
"y  c #2B322E",
"u  c #35332B",
"i  c #262637",
"p  c #293736",
"a  c #363737",
"s  c #342D33",
"d  c #461904",
"f  c #581901",
"g  c #431108",
"h  c #432408",
"j  c #482815",
"k  c #522E13",
"l  c #683716",
"z  c #6F340F",
"x  c #432C23",
"c  c #453F32",
"v  c #523A2D",
"b  c #6E3B26",
"n  c #3B403A",
"m  c #494712",
"M  c #724C1B",
"N  c #4A4736",
"B  c #564737",
"V  c #565337",
"C  c #6C442A",
"Z  c #7A4A2C",
"A  c #694836",
"S  c #784A37",
"D  c #775738",
"F  c #665631",
"G  c #5E622F",
"H  c #6C6732",
"J  c #1E1D48",
"K  c #211F40",
"L  c #193748",
"P  c #19355B",
"I  c #272945",
"U  c #273B4C",
"Y  c #353747",
"T  c #223D52",
"R  c #2D3B56",
"E  c #373A58",
"W  c #343E64",
"Q  c #2B3B6A",
"!  c #443865",
"~  c #3E4642",
"^  c #214459",
"/  c #3A425A",
"(  c #1E4B67",
")  c #384869",
"_  c #29536B",
"`  c #32566D",
"'  c #2C5A74",
"]  c #395775",
"[  c #30496E",
"{  c #386079",
"}  c #484A47",
"|  c #575546",
" . c #454758",
".. c #555859",
"X. c #4E5250",
"o. c #675848",
"O. c #615D51",
"+. c #785A45",
"@. c #586358",
"#. c #696446",
"$. c #6A6855",
"%. c #777453",
"&. c #444966",
"*. c #495B6B",
"=. c #475778",
"-. c #555D7A",
";. c #575C6A",
":. c #635A6B",
">. c #596B68",
",. c #566877",
"<. c #47687B",
"1. c #657474",
"2. c #767C74",
"3. c #6D6C68",
"4. c #80491E",
"5. c #885226",
"6. c #875939",
"7. c #885331",
"8. c #97643B",
"9. c #9E793A",
"0. c #A9713E",
"q. c #975D41",
"w. c #845340",
"e. c #8B694C",
"r. c #966D47",
"t. c #976454",
"y. c #8E7158",
"u. c #A66B44",
"i. c #A87549",
"p. c #B07B56",
"a. c #857F66",
"s. c #8F6960",
"d. c #7A825D",
"f. c #708177",
"g. c #8E844B",
"h. c #9A8755",
"j. c #8E8B58",
"k. c #B28D58",
"l. c #BFA05F",
"z. c #9F9269",
"x. c #938B74",
"c. c #A69C79",
"v. c #AF9266",
"b. c #B5AA70",
"n. c #C3895E",
"m. c #C89559",
"M. c #D1964E",
"N. c #C8936A",
"B. c #D6AC72",
"V. c #EDC27A",
"C. c #376D8C",
"Z. c #397396",
"A. c #396E91",
"S. c #4B5B86",
"D. c #545F89",
"F. c #596686",
"G. c #5C6896",
"H. c #487996",
"J. c #577C92",
"K. c #68778A",
"L. c #676C97",
"P. c #647495",
"I. c #767999",
"U. c #666C8B",
"Y. c #7074B0",
"T. c #3E82AA",
"R. c #3D89B6",
"E. c #618394",
"W. c #749187",
"Q. c #4382A6",
"!. c #438CB8",
"~. c #4992BC",
"^. c #598BAC",
"/. c #7C87A8",
"(. c #6B8EAD",
"). c #4B9AC8",
"_. c #4994C2",
"`. c #6A9CC4",
"'. c #55AADB",
"]. c #4FA2D2",
"[. c #6FABCD",
"{. c #54ADE1",
"}. c #59B7EE",
"|. c #5BB9EF",
" X c #57B3E7",
".X c #5CBCF4",
"XX c #5CBFF9",
"oX c #56BAF4",
"OX c #6BB9E6",
"+X c #5EC3FC",
"@X c #5DC6FB",
"#X c #61C5FE",
"$X c #63CAFF",
"%X c #68CBFE",
"&X c #65C2F7",
"*X c #74C9F8",
"=X c #6DD3FF",
"-X c #68D6FF",
";X c #73D1FF",
":X c #9A9A8A",
">X c #9CAE9D",
",X c #B0A881",
"<X c #B8B992",
"1X c #ADAA8E",
"2X c #8C93AC",
"3X c #8998B7",
"4X c #93A4B4",
"5X c #A4AAA9",
"6X c #B3BEB7",
"7X c #C2B785",
"8X c #D0BD91",
"9X c #E8B489",
"0X c #D2CB92",
"qX c #FEDB8E",
"wX c #FFCC93",
"eX c #EFD88F",
"rX c #FFE78C",
"tX c #FFE797",
"yX c #C7CBA3",
"uX c #C5C5B7",
"iX c #E2DEA5",
"pX c #F9E9AA",
"aX c #F3E7B4",
"sX c #FFF9B9",
"dX c #9B9FDD",
"fX c #98A3CB",
"gX c #9BADD7",
"hX c #ABBDDE",
"jX c #989DE1",
"kX c #8CE1FF",
"lX c #D5DACB",
"zX c #D0C7C6",
"xX c #DBE1CA",
"cX c #FFFEC7",
"vX c #FFF3C1",
"bX c #E9E7D5",
"nX c #FFF9D6",
"mX c #F2E8C2",
/* pixels */
".X.X.X.X.X.X.X.X.X.X.X.X.X.X.X.X.X.X.X.X.X.X.X.X.X.X.X|..X.X.X.X.X.X.X.X.X.X.X.X.X.X.X.X.X.X.X.X.X.X.X.X.X.X.X",
".X.X.X.X.X.X.X.X.X.X.X.X.X.X.X.X.X.X.X.X.X.X.X.X|..X%X%X+X@X.X.X.X.X.X.X.X.X.X.X.X.X.X.X.X.X.X.X.XXX.X.X.X.X.X",
".X.X.X.X.X.X.X.X.X.X.X.X.X.X.X.X.X.X.X.X.X.X.X|.+XOXE.P.H.E.&X@X.X.X.X.X.X.X.X.X.X.X.X.X.X.X.X.X.X.X.X.X.X.X.X",
".X.X.X.X.X.X.X.X.X.X.X.X.X.X.X.X.X.X.X.X.X.X.X%XJ.3.7.8.8.7.>.^.XX.X.X.X.XXX.X.X.X.X.X.X.X.X.X.X.X.X.X.X.X.X.X",
".X.XXX.X.X.X.X.X.X.X.X.X.X.X.X.X.X.X.X.X.X|.&X1.z r.q.p.m.5.z l ^.XX.X.X.X.X.X.X.X.X.X.X.X.X.X.X.X.X.X.X.X.X.X",
".X.X.X.X.X.X.X.X.X.X.X.X.X.X.X.X.X.X.X.X|.$XJ.f n.8.z M i.B.N.6.d H.%X}..X.X.X.X.X.X.XXX.X.X.X.X.X.X.X.X.X.X.X",
".X.X.X.X.X.X.X.X.X.X.X.X.X.X+X#X#X|..X.X.X.X} 5.n.M u.t.b 7.4.N.7.>.*X.X.X.X.X.X.X.X.X.X.X.X.X.X.X.X.X.X.X.X.X",
".X.X.X.X.X.X.X.X.X.X.X.X.XXX'.T.T.@X+X}.%X<.d z r.B.q.N.p.6.7.4.p.i.4X&XoX.X.X.X.X.X.X.X.X.X.X.X.X.XXX.X.X.X.X",
".X.X.X.X.X.X.X.X.XXX.X.X|.$XA.@ 1 ' }.|.;X` b m.V.u.n.M.z 0.V.u.z 7.b _.+X.X.X.X.X.X.X.X.X.X.X.X.X.X.X.X.X.X.X",
".X.X.X.X.X.X.X.X.X.X.X.X.X$XA.+ 5XX.{.oX;X<.S k.i.8.N.r.r.D 8.9Xv.@ P '.XX.X.X.X.X.X.X.X.X.X.X.X.X.X.X.X.X.X.X",
".X.X.X.X.X.X.X.X.X.X.X.X.X.X Xe s 6X*.;X_.> < b t.l f w.D d C z v.x Z.=X}..X.X.X.X.X.X.X.X.X.X.X.X.X.X.X.X.X.X",
".X.X.X.X.X.X.X.X.X.X.X.X.X.X&X*Xe t 1XY a F h l z g b 5.f z u.f z e.a _.#X.X.X.X.X.X.X.X.X.X+X.X.X.X.X.X.X.X.X",
".X.X.X.X.X.X.X.X.X.X.X.X.XXX.X&X.X6 3 5XN 2.| v j g h h d k A C +.: @ R.+X.X.X.X.X.X.X.X.X.X.X.X.X.X.X.X.X.X.X",
".X.X.XXX.X.X.X.X.X.X.X.X.X.X.X}.;Xw = a a + + . & t t i i i * =   y X.[.#X.X.X.X.X.X.X.X.X.X.X.X.X.X.X.X.X.X.X",
".X.X.X.X.X.X.X.X.X.X.X.X.X.X.X@X(.| &.Y o G e.@ 9 &.L.L.L.L.) R   $.bX6X*X.X.X.X.X.X.X.X.X.X.X.X.X.X.X.X.X.X.X",
".X.X.X.X.X.X.X.X.X.X.X.X.X.X#X!.~ u X + G 0XtXy.J 8 6 * 6 * 8 9 3 H <Xc.>X.X.X.X.X.X.X.X.X.X.X.X.X.X.X.X.X.X.X",
".X.X.X.XXX.X.X.X.X.X.X.X.X.X$X_ # :X..  #.sXpXrXh.+ i J 0 I 7   > <XcXaXyX&XoX+X.X.X.X.X.X.X.X.X.X.X.X.X.X.X.X",
".X.X.X.X.XXX.X.X.X.X.X.X.X.XXX'.~.f.7X,X$.y.vXvXeXj } uX} %.<XyX#.< 0XcX0X,..X.X.X.X.X.X.X.X.X.X.X.X.X.X.X.X.X",
".X.X.X.X.X.X.X.X.X.X.X.X.X.X.XXX#Xp 7X0Xz.V y.aXsXb.0 a a.} I.I.t G b.cXg.q @X.X.X.X.X.X.X.X.X.X.X.X.X.X.X.X.X",
".X.X.X.X.X.X.X.X.X.X.X.X.X.X.X.X$Xw j.c.H F } c l.z.t r %.y 2X-.} cXc.c.G q $X.X.X.X.X.X.X.X.X.X.X.X.X.X.X.X.X",
".X.X.X.X.X.X.X.X.X.X.X.X.X.X.XXX!.@.c.B.x.j.%...$ 2 b.yXN + 4X;...j.#.2 m ..~.+X|..X.X.X.X.X.X.X.X.X.X.X.X.X.X",
".X.X.X.X.X.X.X.X.X.X.X.X.X.X}.$XL c.c.a.x.:X%.;.* m B.7XH t Y 7  .  1XiX0Xb.L %X|..X.X.X.X.X.X.X.X.X.X.X.X.X.X",
".X.X.X.X.X.X.X.X.X.X.X.X.X.X|.$X^ # o       a -   * #.g.v.b.%.X     3 O.| y ).+X.X.X.X.X.X.X.X.X.X.X.X.X.X.X.X",
".XXX.X.X.X.X.X.X.X.X.X.X.X.X.X.X'.7 w E e $   r 9 X o G 0Xh.H & r     i ) U.Q.@X.X.X.X.X.X.X.X.X.X.X.X.X.X.X+X",
".X.X.X.X.X.X.X.X.X.X.X.X.X.X.X.X+X] &.gXU.  + % c G G t k V 2 4 B t 3 9 S.2X{ @X.X.X.X.X.X.X.X.X.X.X.X.X.X.X.X",
".X.X.X.X.X.X.X.X.X.XXX.X.X.X.X.XXX=.fXhXI.7   $ @ G $.$ * o 4 r.v.+.@ ..2XY ] +X.X.X.X.X.X.X.X.X.X.XXX.X.X.X.X",
".X.X.X.X.XXX.X.X.X.X.X.X.X.X.X.XoX] U.;./ E   X s $ J ) Q I B B.qXl.O s 2.3 L #X|..X.X.X.X+X.X.X.X.X.X.X.X.X.X",
".X.X.X.X.X.X.X.X.X.X.X.X.X.X.X.X%XR     - 7   7 / G.Q L U *.O.B.qXpXl.@ X B >.+X|..X.X.X.X.X.X.X.X.X.X.X.X.X.X",
".X.X.X.X.X.X.X.X.X.X.X.X.X.X|.#XH.  > W.    X I =./.-.S.D.[ /.o.8XvXtXb.+ - (..X.X.X.X.X.X.X.X.X.X.X.X.X.X.X.X",
".X.X.X.X.X.X.X.X.X.X.X.X.X.X|.#XL s ..a     7 U W D.L.I.Y.G.-.! $.0XnXtXB.Y [ %X|..X.X.X.X.X.X.XXX.X.X.X.X.X.X",
".X.X.X.X.X.X.X.X.X.X.X.X.X.X}.$XT & I s X   i W S.G.L.K.K.L.F.G. .  :XvXrXl.U }..X.X.XXX.X.X.X.X.X.X.X.X.X.X.X",
".X.X.X.X.X.X.X.X.X.X.X.X.X.X.X$XL  . ., A & I W S.F.E.4XgX(.Y.F.&.$   %.9XrX9.<.kX}..X.X.X.X.X.X.X.X.X.X.X.X.X",
".X.X.X.X.X.X.X.X.X.XXX.X.X.X|.#XC.Y * e.wXD 6 ) F.Y.gXdXfXjXjX(.K.&.O o S i.B.z.[.#X.X.X.X.X.X.X.X.X.X.X.X.X.X",
"XX.X.X.X.X.X.X.X.X.X.X.X.X.X.X.X%Xe # wXM.3 9 P ,.zXuXlXbXmXlXfXS.S.i   ( [ s.A Z.$X.X.X.X.X.X.X.X.X.X.X.X.X.X",
".X.X.X.X.X.X.X.X.X.X.X.X.X.X.X.X.XQ.x r.l   >.5X:XV B | $.V %.lXuXlXN ( =X XZ.`.OX.X.X.X.X.X.X.X.X.X.X.X.X.X.X",
".X.X.X.X.X.X.X.X.X.X.X.X.X.X.X.X|.%X[.`.1.X t c u           o c N B # _.#X.X#X+X.X.X.X.X.X.X.X.X.X.X.X.X.X.X.X",
".X.X.X.X.X.X.X.X.X.X.X.X.X.X.X.X.X.X.X-XT.% O     X o X o X         o _.#X.X.X|..X.X.X.X.X.X.X.XXX.X.X.X.X.X.X",
".X.X.X.X.X.X.X.X.X.X.X.X.X.X.X.X.X.X.X.XoX'.L   X           : C D , A.$X}..X.X.X.X.X.X.X.X.X.X.X.X.X.X.X.X.X.X",
".X.X.X.X.X.XXX.X.X.X.X.X.X.X.X.X.X.X.X|.#X'   X X       X > S q.i.j A.#X}..X.X.X.X.X.X.X.X.X.X.X.X.X.X.X.X.X.X",
".X.X.X.X.X.X.X.X.X.X.X.X.X.X.X.X.X.X.X.X$X'   o       X X , S b D < Z.#X.X.X.X.X.X.X.X.X.X.X.X.X.X.X.X.X.X.X.X",
".X.X.X.X.XXX.X.X.X.X.X.X.X.X.X.X.X.X.X|.#X'   o Y a       : l z C : A.$X.X.X.X.X.X.X.X.X.X.X.X.X.X.XXX.X.X.X.X",
".X.X.X.X.X.X.X.X.X.X.X.X.X.X.X.X.X.X.X.X+X{.e   1 -   . : N # # # + Z.#X|..X.X.X.X.X.X.X.X.X.X.X.X.X.X.X.X.X.X",
".X.X.X.X.X.X.X.X.X.X.X.X.X.X.X.X.X.X.X+X}.-X^   o       , - } X...1 C.%X.X.X.X.X.X.X.X.X.X.X.X+X.X.X.X.X.X.X.X",
".X.X.X.X.X.X.X.X.X.X.X.X.X.X.X.X.X.X.X.X|.#X_ o - o     ; N @.>.>.f.y !.+X|..X.X.X.X.X.X.X.X.X.X.X.X.X.X.X.X.X",
".X.X.X.X.X.X.X.X.X.X.X.X.X.X.X.X.X.X.X.X.X|.#Xw . +       O - ~ n W...R.#X.X.X.X.X.X.X.X.X.X.X.X.X.X.X.X.X.X.X",
".X.X.X.X.X.X.X.X.X.X.X.X.X.X.X.X.X.X.X.X.X.X+XC._ ^     r *       * # ~.+X.X.X.X.X.X.X.X.X.X.X.X.X.X.X.X.X.X.X",
".X.X.X.X.X.X.X.X.X.X.XXX.X.X.X.X.X.X.X.X.X.X.X@X%X|.^   r ; y } r   _ |..X.X.X.X.X.X.X.X.X.X.X.X.X.X.X.X.X.X.X",
"XX.X.X.X.X.X.X.X.X.X.X.X.X.X.X.X.X.X.X.X.X.X.X.X|.+X+XT   o @.1.~   Q.-X.X.X.X.X.X.X.X.X.X.X.X.X.X.X.X.X.X.X.X",
".X.X.X.X.X.X.X.X.X.X.X.X.X.X.X.X.X.X.X.X.X.X.XOX{.'.#XZ.  } > + t t.x ~.%X.X.X.X.X.X.X.X.X.X.X.X.X.X.X.X.X.X.X",
".X.X.X.X.X.X.X.X.X.X.X.X.X.X.X.X.XXX.X.X.X.X#Xw o o T  XL + +   @ v V ).XX.X.X.X.X.X.X.X.X.X.X.X.X.X.X.X.X.X+X",
".X.X.X.X.X.X.X.X.X.X.X.X.X.X.X.X.X.X.X.X.X.XXX_           O - p u @ { ;X.X.X.X.X.X.X.X.X.X.X.X.X.X.X.X.X.X.X.X",
".X.X.X.X.X.X.X.X.X.X.X.X.X.X.X.X.X.X.X.X.X.X.X#X{ _ _ ' q   q 1.X.* : ` |..X.X.X.X.X.X.X.X.X.X.X.X.X.X.X.X.X.X",
".X.X.X.X.X.X.X.X.X.XXX.X.X.X.X.X.X.X.X.X.X.X.X}.@X$X#X-X^   q r q * 3 . ].XX.X.X.X.X.X.X.X.X.X+X.X.X.X.X.X.X.X",
".X.X.X.X.X.X.XXX.X.X.X.X.X.X.X.X.X.X.X.X.X.X.X.X.X|.|..X].7       X   C.XX.X.X.X.X.X.X.X.X.X.X.X.X.X.X.X.X.X.X",
".X.X.X.X.X.X.X.X.X.X.X.X.X.X.X.X.X.X.X.X.X.X.X.X.X.X.X.X+X'.).].).).).XXXX.X.X.X.X.X.X.X.X.X.X.X.X.X.X.X.X.X.X"
};
