/* XPM */
static char *player35[] = {
/* columns rows colors chars-per-pixel */
"55 55 225 2 ",
"   c #010101",
".  c #0C0201",
"X  c #0C0807",
"o  c #02030B",
"O  c #06090A",
"+  c #0B0C0D",
"@  c #0A070B",
"#  c #140805",
"$  c #0D110C",
"%  c #191408",
"&  c #0A0C11",
"*  c #06091B",
"=  c #160716",
"-  c #09141B",
";  c #0B1718",
":  c #141313",
">  c #1C1514",
",  c #13151E",
"<  c #151B1D",
"1  c #1B1C17",
"2  c #230D0D",
"3  c #271708",
"4  c #321A0B",
"5  c #241E1B",
"6  c #221516",
"7  c #361610",
"8  c #19211C",
"9  c #272518",
"0  c #372915",
"q  c #0D1429",
"w  c #171B2B",
"e  c #16162B",
"r  c #1E2221",
"t  c #1D292B",
"y  c #192C35",
"u  c #2A2925",
"i  c #322B25",
"p  c #382D27",
"a  c #27322A",
"s  c #39352C",
"d  c #262639",
"f  c #393834",
"g  c #2B3330",
"h  c #4D1A02",
"j  c #571F06",
"k  c #522200",
"l  c #462A15",
"z  c #573A19",
"x  c #592B15",
"c  c #693719",
"v  c #64340A",
"b  c #483729",
"n  c #4E3834",
"m  c #53342B",
"M  c #6B3B26",
"N  c #364539",
"B  c #50431C",
"V  c #7C4A1C",
"C  c #4A4837",
"Z  c #554334",
"A  c #575537",
"S  c #7A4627",
"D  c #7A512F",
"F  c #67543C",
"G  c #7A583A",
"H  c #6E4931",
"J  c #5B693E",
"K  c #6C623C",
"L  c #1A2942",
"P  c #272444",
"I  c #283147",
"U  c #373A4A",
"Y  c #313557",
"T  c #373B60",
"R  c #403F50",
"E  c #3C5553",
"W  c #2F444F",
"Q  c #39416A",
"!  c #2D5D79",
"~  c #2E526E",
"^  c #38647A",
"/  c #494746",
"(  c #594C44",
")  c #565B4D",
"_  c #474B56",
"`  c #495659",
"'  c #545959",
"]  c #4A5150",
"[  c #635D46",
"{  c #715C43",
"}  c #65555A",
"|  c #5A645E",
" . c #4E6355",
".. c #666453",
"X. c #736D59",
"o. c #7B7154",
"O. c #74674C",
"+. c #475A66",
"@. c #535265",
"#. c #585B78",
"$. c #404F71",
"%. c #4D6266",
"&. c #5C6C6B",
"*. c #596965",
"=. c #5B6279",
"-. c #567174",
";. c #57716C",
":. c #6F7071",
">. c #844B27",
",. c #88552E",
"<. c #945B2F",
"1. c #855434",
"2. c #945D32",
"3. c #884F38",
"4. c #886537",
"5. c #97673E",
"6. c #925F4C",
"7. c #8D6549",
"8. c #906B4C",
"9. c #A36B46",
"0. c #B37C46",
"q. c #A87652",
"w. c #B17955",
"e. c #A87A45",
"r. c #897864",
"t. c #987D66",
"y. c #8A6E6A",
"u. c #788C5B",
"i. c #6F897B",
"p. c #8B8A5D",
"a. c #9B915F",
"s. c #AB855D",
"d. c #B5855A",
"f. c #8B856A",
"g. c #9C9369",
"h. c #8A8E79",
"j. c #968A75",
"k. c #9A9677",
"l. c #A78969",
"z. c #BD8961",
"x. c #A79667",
"c. c #A59B7D",
"v. c #A4A377",
"b. c #B8B575",
"n. c #C29155",
"m. c #CB9968",
"M. c #CA9776",
"N. c #CA916B",
"B. c #DCB671",
"V. c #387497",
"C. c #326C8F",
"Z. c #3A76A3",
"A. c #555B84",
"S. c #517989",
"D. c #437692",
"F. c #527592",
"G. c #757796",
"H. c #506DA1",
"J. c #7076A4",
"K. c #807E80",
"L. c #3D88B4",
"P. c #788E93",
"I. c #5787A3",
"U. c #478AB5",
"Y. c #4D8BAB",
"T. c #6E9DAE",
"R. c #6AA2BC",
"E. c #3E90C5",
"W. c #499ACA",
"Q. c #529CC8",
"!. c #478EC3",
"~. c #4DA5D5",
"^. c #54A6D4",
"/. c #54ADDE",
"(. c #5AAAD9",
"). c #6DB4D5",
"_. c #54ADE0",
"`. c #59AEEE",
"'. c #59B6ED",
"]. c #5AB8EF",
"[. c #57B5EA",
"{. c #54B9F4",
"}. c #5CBCF4",
"|. c #52BBFA",
" X c #5DBFF8",
".X c #53B7F1",
"XX c #67B6E8",
"oX c #65BEF2",
"OX c #71BFE9",
"+X c #5DC2FC",
"@X c #61C3FC",
"#X c #63CAFF",
"$X c #6ACDFF",
"%X c #67D3FF",
"&X c #7ED0FD",
"*X c #76CAF6",
"=X c #8F9091",
"-X c #A09B85",
";X c #A5A688",
":X c #B4B28D",
">X c #868BAB",
",X c #8D97B1",
"<X c #8FACAC",
"1X c #C1B989",
"2X c #F2BD8C",
"3X c #CDC191",
"4X c #E6DB9C",
"5X c #E6C989",
"6X c #D2CBA6",
"7X c #CFCEB8",
"8X c #E2DCA6",
"9X c #EAE8B3",
"0X c #FBF6B9",
"qX c #F2F0A9",
"wX c #9499C1",
"eX c #89A6D9",
"rX c #85D3FD",
"tX c #88CBEB",
"yX c #A3D6E4",
"uX c #A0E0F6",
"iX c #CDD0CC",
"pX c #FFFAC1",
"aX c #FFFED7",
"sX c #F3EBCB",
"dX c #C5F0FA",
/* pixels */
"}.}.}.}.}.}.}.}.}.}.}.}.}.}.}.}.}.}.}.}.}.}.}.}.}.}.}.}.}.}.}.}.}.}.}.}.}.}.}.}.}.}.}.}.}.}.}.}.}.}.}.}.}.}.}.",
"}.}.}.}.}.}.}.}.}.}.}.}.}.}.}.}.}.}.}.}.}.}.}.}.}.}.}.}.}.}.}.}.}.}.}.}.}.}.}.}.}.}.}.}.}.}.}.}.}.}.}.}.}.}.}.",
"}.}.}.}.}.}.}.}.}.}.}.}.}.}.}.}.}.}.}.}.}.}.}.}.}.}.}.}.}.}.}.].}.}.}.}.}.}.}.}.}.}.}.}.}.}.}.}.}.}.}.}.}.}.}.",
"}.}.}.}.}.}.}.}.}.}.}.}.}.}.}.}.}.}.}.}.}.}.}.}.}.}.}.}.+X+X+X@X@X].}.}.}.}.}.}.}.}.}.}.}.}.}.}.}.}.}.}.}.}.}.",
"}.}.}.}.}.}.}.}.}.}.}.}.}.}.}.}.}.}.}.}.}.}.}.}.].oX}.rX=X` *.' =X&X}.}.}.}.}.}.}.}.}.}.}.}.}.}.}.}.}.}.}.}.}.",
"}.}.}.}.}.}.}.}.}.}.}.}.}.}.}.}.}.}. X}.}.}.}.}.].$X<XF s.9.<.N.l.n I.#X.X}.}.}.}.}.}.}.}.}.}.}. X}.}.}.}.}.}.",
"}.}.}.}.}.}.}.}.}.}.}.}.}.}.}.}.}.}.}.}.}.}.}.}.oXY.1.M.<.<.<.9.v 2.l.T.&X}.}.}.}.}.}.}.}.}.}.}.}.}.}.}.}.}.}.",
"}.}.}.}.}.}.}.}.}.}.}.}. X}.}.}.}.}.}.}.}.}.}.+X(.h c 6.q.V d.9.3.D m.M.:X@X}.}.}.}.}.}. X}.}.}.}.}.}.}.}.}.}.",
"}.}.}.}.}.}.}.}.}.}.}.}.}.}.}.}.}.}.}.}.}.}.}. X_.x S 5.M.,.e.9.2Xd.>.N.l.I.}.}.}.}.}.}.}.}.}.}.}.}.}.}.}.}.}.",
"}.}.}.}.}.}.}.}. X}.}.}.}.}.}.}.}.}.}.}.}.}.}.}.S.q.1.V v w.w.n.0.q.B.>.q.P.{.}.}.}. X}.}.}.}.}.}.}.}.}.}.}.}.",
"}.}.}.}.}.}.}.}.}.}.}.}.}.}.}.}.}.}.}.}.}.}. X[.i >.,.1.,.N.S B.v h M.D P.$X'.}.}.}.}.}.}.}.}.}.}.}.}.}.}.}.}.",
"}.}.}.}.}.}.}.}.}.}.}.}.}.}.}.}.}.}.}.}.}.}.}.].= c d.c 7.S M.D z M 3 b XX}.}.}.}.}.}.}.}.}.}.}.}.}.}.}.}.}.}.",
"}.}.}.}.}.}.}.}.}.}.}.}.}.}.}.}.}.}.}.}.}.}.}.'.6 c 3.l x j d.n 6 4 4 U. X}.}.}.}.}.}.}.}.}.}.}.}.}.}.}.}.}.}.",
"}.}.}.}.}.}.}.}.}.}.}.}.}.}.}.}.}.}.}.}.}.}.}.}.@.c c # { V k { >X-X{ U.$X}.}.}.}.}.}.}.}.}.}.}.}.}.}.}.}.}.}.",
"}.}.}.}.}.}.}.}.}.}.}.}.}.}.}.}.}.}.}.}.}.}.}. X).7 2   F M k 4.7XiXl.j.oX}.}.}.}.}.}.}.}.}.}.}.}.}.}.}.}.}.}.",
"}.}.}.}.}.}.}.}.}.}.}.}.}.}.}.}.}.}.}.}.}.}.}.}.*Xr.2 %   = l w.5X0X9.+.].}.}.}.}.}.}.}.}.}.}.}.}.}.}.}.}.}.}.",
"}.}.}.}.}.}.}.}.}.}.}.}.}.}.}.}.}.}.}.}.}.}.}..XrXiXB t.v.j.2 l B.d.%.}.+X}.}.}.}.}.}.}.}.}.}.}.}.+X}.}.}.}.}.",
"}.}.}.}.}.}.}.}.}.}.}.}.}.}.}.}.}.}.}.}.}.}.}. XXX[ v.0XpX0X7XA.4 7 D.#X}.}.}.}.}.}.}.}.}.}.}.}.}.}.}.}.}.}.}.",
"}.}.}.}.}.}.}.}.}.}.}.}.}.}.}.}.}.}.}.}.}.}.}.@XW.u 8X0X9Xx.6XU o p [ R.oX}.}.}.}.}.}.}.}.}.}.}.}.}.}.}.}.}.}.",
"].+X}.}.}.}.}.}.}.}.}.}.}.}.}.}.}.}.}.}.}.}.].@X~.a 9XaXx.7Xu.g._ y v.g.^. X}.}.}.}.}.}.}.}.}.}.}.}.}.}.}.}.}.",
"}.}.}.}.}.}.}.}.}.}.}.}.}.}.}.}.}.}. X}.}.}.}. XC.9 c.0Xb.h.[ 3X:X. [ A ^.+X}.}.}.}.}.}.}.}.}.}.}.}.}.}.}.}.}.",
"}.}.}.}.}.}.}.}.}.}.].+X}.}.}.}.}.}.}.}.}.}.}.[.t r.o.a.p.p 0 p.b.) s C ^. X].}.}.}.}.}.}.}.}.}.}.}.}.}.}.}.}.",
"}.}.}.}.}.}.}.}.}.}.}.}.}.}.}.}.}.}.}.}.}.}.}.[.a 6X8X6X1Xb.$ 1 b.C i f ^.+X}.}.}.}.}.}.}.}.}.}.}.}.}.}.}.}.}.",
"}.}.}.}.}.}.}.}.}.}.}.}.}.}.}.].}.}.}.}.}.}. X'.< 8 ..8X4Xp.8 k...1   C.oX}.}.}.}.}.}.}.}.}.}.}.}.}.}.}.}.}.}.",
"}.}.}.}.}.}.}.}.}.}.}.}.}.}.}.+XoX].+X].].+X].+Xq g U , > & @.R U @._ L.$X}.}.}.}.}.}.}.}.}.}.}.}.}.}.}.}.}.}.",
"}.}.}.}.}.}.}.}.}.}.}.}.}.}.}.}.].+X].].+X].+XW.q #.J.P @   o ( J Y d L.#X].}.}.}.}.}.}.}.}.}.}.}.}.}.}.}.}.}.",
"}.}.}.}.}.}.}.}.}.}.}.}.}.}.}.}.+X].].+X].].#Xw , ,X$.T o A o.k.J   9 S.}.}.}.}.}.}.}.}.}.}.}.}.}.}.}.}.}.}.}.",
"}.}.}.}.}.}.}.}.}.}.}.}.}.}.}.}.+X].+X].].+X).8 & ,XJ.H.P ..;XsX(   j.C W.@X}.}.}.}.}.}.}.}.}.}.}.}.}.}.}.}.}.",
"}.}.}.}.}.}.}.}.}.}.}.}.}.}.}.}.].].+X].+X|.i.# O q :.:.o   q ..C s -Xr W.@X}.}.}.}.}.}.}.}.}.}.}.}.}.}.}.}.}.",
"}.}.}.}.}.}.].+X}.}.}.}.}.].+X}.+X].+X].*XdX] j.9 X.h.>   @.#.    9 0 . /.+X}.}.}.}.}.}.}.}.}.}.}.}.}.}.}.}.}.",
"}.}.}.}.}.}.oX}.}.}.}.}.}.}.].}.].+X].].+X<XK 6Xi i f...  T Q * q   r.n W.+X}.}.}.}.}.}.}.}.}.}.}.}.}.}.}.}.}.",
"}.}.}.}.}.}.}.}.}.}.}.}.}.}.oX].+X].@X].#XD.x.9X9 =XK.1 9 P L w `   l.n W.@X}.}.}.}.}.}.}.}.}.}.}.}.}.}.}.}.}.",
"}.}.}.}.}.}.}.}.}.}.}.}.}.}.}.}.}.}.}..XrX) c.aX8 e T :.x.i   u |   Z ] _.+X}.}.}.}.}.}.}.}.}.}.}.}.}.}.}.}.}.",
"}.}.}.}.}.}.}.}.}.}.}.}.}.}.}.}.}.}.}.+XT.4.4Xv.@ $.#.o x.} * d =.  y [.+X}.}.}.}.}.}.}.}.}.}.}.}.}.}.}.}.}.}.",
"}.}.}.}.}.}.}.}.}.}.}.}.+X}.}.}.}.}.}.$XI.y.pX9   3 C s.H U Y , d   Y.#X'.}.}.}.}.}.}.}.}.}.}.}.}.}.}.}.}.}.}.",
"}.}.}.}.}.}.}.}.}.}.}.}.}.}.}.}.}.}.|.OXO.k.8X} & 3 A G # H.Q w o   V.@X'.}.}.}.}.}.}.}.}.}.}.}.}.}.}.}.}.}.}.",
"}.}.}.}.}.}.}.}.}.}.}.}.}.}.}.}.}.}.#XZ.B 0X{ U.Q.u v.>XP.wXeXI .   Z.#X}.}.}.}.}.}.}.}.}.}.}.}.}.}.}.}.}.}.}.",
"}.}.}.}.}.}.}.}.}.}.}.}.}.}.}.}.}.].#XU.] 1XG.'.{.; / 7XiXiX>XU :   V.#X}.}.}.}.}.}.}.}.}.}.}.}.}.}.}.}.}.}.}.",
"}.}.}.}.}.}.}.}.}.}.}.}.}.}.}.}.}.}. XXX+.T XX}.&XQ.. . :.;Xm o.5   D.#X'.}.}.}.}.}.}.}.}.}.}.}.}.}.}.}.}.}.}.",
"}.}.}.}.}.}.}.}.}.}.}.}.}.}.}.}.}. X}.oX(.(.+XyXuX!.= l 2 7 e.1.+ # V.#X}.}.}.}.}.}.}.}.}.}.}.}.}.}.}.}.}.}.}.",
"}.}.}.}.}.}.}.}.}.}.}.}.}.}.}.}.}.}.}.}.+X}.}.tX#XE.3 z H 0.D l 4 W /.+X}.}.}.}.}.}.}.}.}.}.}.}.}.}.}.}.}.}.}.",
"}.}.}.}.}.}.}.}.}.}.}.}.}.}.}.}.}.}.}.}.}.}.}..X].+.  l H 8.3 : 3 ! %X].}.}.}.}.}.}.}.}.}.}.}.}.}.}.}.}.}.}.}.",
"}.}.}.}.}.}.}.}.}.}.}.}.}.}.}.}.}.}.}.}.}.}.].@XQ.. n n 2 b X X   ^ #X'.}.}.}.}.}.}.}.}.}.}.}.}.}.}.}.}.}.}.}.",
"}.}.}.}.}.}.}.}.}.}.}.}.}.}.}.}.}.}.}.}.}.}.+X'.< 2 6.p f i O     ~ }.}.}.}.}.}.}.}.}.}.}.}.}.}.}.}.}.}.}.}.}.",
"}.}.}.}.}.}.}.}.}.}.}.}.}.}.}.}.}.}.}.}.}.}.+X'.; 1 9 w 1 ' u   < $ C.#X}.}.}.}.}.}.}.}.}.}.}.}.}.}.}.}.}.}.}.",
"}.}.}.}.}.}.}.}.}.}.}.}.}.}.}.}.}.}.}.}.}.}.}.'.q t -.&.&.W   & ' +.!.@X}.}.}.}.}.}.}.}.}.}.}.}.}.}.}.}.}.}.}.",
"}.}.}.}.}.}.}.}.}.}.}.}.}.}.}.}.}.}.}.}.}.].+X'.; t -.%.&.< g : 5 V.%X}.}.}.}.}.}.}.}.}.}.}.}.}.}.}.}.}.}.}.}.",
"}.}.}.}.}.}.}.}.}.}.}.}.}.}.}.}.}.}.}.}.}.}.}.'.; $ a a a + : < 9 ~ #X].}.}.}.}.}.}.}.}.}.}.}.}.}.}.}.}.}.}.}.",
"}.}.}.}.}.}.}.}.}.}.}.}.}.}.}.}.}.}.}.}.}.}.+X'.y f @ X O / @ + . ! #X'.+X+X].+X}.}.}.}.}.}.}.}.}.}.}.}.}.}.}.",
"+X}.}.}.}.}.}.}.}.}.}.}.}.}.}.}.}.}.}.}.}.}.}.}.U.g *.*.] ` ;     ! %X+X].].].].}.}.}.}.}.}.}.}.}.}.}.}.}.}.}.",
"}.}.}.}.}.}.}.}.}.}.}.}.}.}.}.}.}.}.}.}.}.}.}.].; N  .g u ) : O 1 ^ Q./.@X].+X].}.}.}.}.}.}.}.}.}.}.}.}.}.}.}.",
"}.}.}.}.}.}.}.}.}.}.}.}.}.}.}.}.}.}.}.}.}.}.}.].< s N b r.Z   < ` E $ L.#X].].+X}.}.}.}.}.}.}.}.}.}.}.}.}.}.}.",
"}.}.}.}.}.}.}.}.}.}.}.}.}.}.}.}.}.}.}.}.}.}.}.}.V.p : n s X   $ O   W [.}.].].@X}.}.}.}.}.}.}.}.}.}.}.}.}.}.}.",
"}.}.}.}.}.}.}.}.}.}.}.}.}.}.}.}.}.}.}.}.}.}.}.+X/.: / f N ;     y U./.@X].+X}.].}.}.}.}.}.}.}.}.}.}.}.}.+X}.}.",
"}.}.}.}.}.}.}.}.}.}.}.}.}.}.}.}.}.}.}.}.}.}.}.+X~.8 ;.*.&.| P.a tX$X+X].}.}.}.}.}.}.}.}.}.}.}.}.}.}.}.}.}.}.}."
};
