/* XPM */
static char *player17[] = {
/* columns rows colors chars-per-pixel */
"55 55 239 2 ",
"   c #010101",
".  c #0B0302",
"X  c #0D0A05",
"o  c #03030B",
"O  c #080A0A",
"+  c #130A04",
"@  c #160906",
"#  c #09120E",
"$  c #12120B",
"%  c #0A0A12",
"&  c #070816",
"*  c #120E17",
"=  c #0B1515",
"-  c #181917",
";  c #260D03",
":  c #2A1908",
">  c #311508",
",  c #281B14",
"<  c #381A19",
"1  c #3A0E00",
"2  c #16221C",
"3  c #14200C",
"4  c #382908",
"5  c #262819",
"6  c #3A291A",
"7  c #3F3D15",
"8  c #2C3112",
"9  c #090C23",
"0  c #091228",
"q  c #191826",
"w  c #161834",
"e  c #221B28",
"r  c #182426",
"t  c #182737",
"y  c #19303D",
"u  c #282B29",
"i  c #2A302A",
"p  c #393629",
"a  c #272637",
"s  c #253535",
"d  c #383637",
"f  c #372A2F",
"g  c #460E00",
"h  c #4A2206",
"j  c #55280A",
"k  c #482817",
"l  c #543212",
"z  c #612B08",
"x  c #69340E",
"c  c #693819",
"v  c #622D19",
"b  c #483429",
"n  c #573725",
"m  c #463C35",
"M  c #4F3029",
"N  c #6A3D2B",
"B  c #2A4038",
"V  c #52471F",
"C  c #78471C",
"Z  c #79501E",
"A  c #474738",
"S  c #53483C",
"D  c #534A2A",
"F  c #614623",
"G  c #734423",
"H  c #754728",
"J  c #664837",
"K  c #744A35",
"L  c #655739",
"P  c #7B5528",
"I  c #6F6932",
"U  c #6E721B",
"Y  c #19364B",
"T  c #1A3E52",
"R  c #1B2D40",
"E  c #292844",
"W  c #2D314A",
"Q  c #373747",
"!  c #2C3558",
"~  c #333B5B",
"^  c #232F5E",
"/  c #353E61",
"(  c #2D3464",
")  c #151743",
"_  c #1E4155",
"`  c #3B4847",
"'  c #264254",
"]  c #38445B",
"[  c #3B5455",
"{  c #1D4A65",
"}  c #244C64",
"|  c #2D4463",
" . c #275169",
".. c #2B5A75",
"X. c #334F70",
"o. c #35657B",
"O. c #44524E",
"+. c #5A5649",
"@. c #4A5859",
"#. c #504E50",
"$. c #684941",
"%. c #615C58",
"&. c #6A584D",
"*. c #54635E",
"=. c #56604D",
"-. c #676657",
";. c #736955",
":. c #6C715D",
">. c #767759",
",. c #6F6443",
"<. c #464967",
"1. c #4A5765",
"2. c #444B73",
"3. c #485377",
"4. c #55596A",
"5. c #596969",
"6. c #4A6779",
"7. c #596A74",
"8. c #666968",
"9. c #7A7866",
"0. c #6B6F72",
"q. c #854E2B",
"w. c #865429",
"e. c #814A33",
"r. c #8C5A38",
"t. c #955B35",
"y. c #935724",
"u. c #96643B",
"i. c #886338",
"p. c #865F4F",
"a. c #84664D",
"s. c #966547",
"d. c #877358",
"f. c #A67756",
"g. c #B17D58",
"h. c #AA7448",
"j. c #887764",
"k. c #6C807F",
"l. c #918A55",
"z. c #AA8749",
"x. c #B78658",
"c. c #A69F5C",
"v. c #928F70",
"b. c #A19B64",
"n. c #A59E74",
"m. c #B7986A",
"M. c #A9A476",
"N. c #B6A97B",
"B. c #C4975E",
"V. c #C59467",
"C. c #C7936B",
"Z. c #DFB37A",
"A. c #CFAB71",
"S. c #F5B57B",
"D. c #E7C268",
"F. c #2C6386",
"G. c #376987",
"H. c #397597",
"J. c #347CA9",
"K. c #545B83",
"L. c #4A5683",
"P. c #586588",
"I. c #577288",
"U. c #59689A",
"Y. c #47668B",
"T. c #646D88",
"R. c #626B9A",
"E. c #667497",
"W. c #697D8C",
"Q. c #3F8AB6",
"!. c #3980AE",
"~. c #6E849C",
"^. c #458DB8",
"/. c #498AB1",
"(. c #7982A6",
"). c #6F90B1",
"_. c #4997C3",
"`. c #4EA2D4",
"'. c #51A5D6",
"]. c #4FA1CD",
"[. c #65AED6",
"{. c #54AEE3",
"}. c #5AB6EB",
"|. c #5BB9EF",
" X c #56B3E9",
".X c #5CBCF4",
"XX c #5BBFF8",
"oX c #55BAF8",
"OX c #69BFF0",
"+X c #5EC2FC",
"@X c #5EC5FB",
"#X c #61C5FE",
"$X c #64CAFF",
"%X c #67C2F6",
"&X c #76CBFA",
"*X c #67D2FF",
"=X c #7CD3FF",
"-X c #70E2FF",
";X c #878692",
":X c #9AA798",
">X c #A8A794",
",X c #B4AD87",
"<X c #8E94AB",
"1X c #8490BC",
"2X c #8E8EB7",
"3X c #95A8AA",
"4X c #B2B7B0",
"5X c #A29488",
"6X c #C6BE88",
"7X c #D1B98D",
"8X c #E2B289",
"9X c #BBC197",
"0X c #BDC2B9",
"qX c #C8C49B",
"wX c #D6CA95",
"eX c #D1CD92",
"rX c #FFDE94",
"tX c #F2CB89",
"yX c #FFEB94",
"uX c #DCD7A4",
"iX c #CFD2B2",
"pX c #F9DAA1",
"aX c #E1DCB5",
"sX c #FFE9AC",
"dX c #F8EDB6",
"fX c #F9F2BB",
"gX c #EBF3B0",
"hX c #8F95C9",
"jX c #96ABC6",
"kX c #A5ADCF",
"lX c #B7BFF9",
"zX c #A0C1C8",
"xX c #85D6FF",
"cX c #98D2ED",
"vX c #A5D7ED",
"bX c #A5E0F5",
"nX c #C1C2DE",
"mX c #FBF9C7",
"MX c #F2ECD0",
/* pixels */
".X.X.X.X.X.X.X.X.X.X.X.X.X.X.X.X.X.X.X.X.X.X.X.X.X.X.X.X.X.X.X.X.X.X.X.X.X.X.X.X.X.X.X.X.X.X.X.X.X.X.X.X.X.X.X",
".X.X.X.X.X.X.X.X.X.X.X.XXX.X.X.X.X.X.X.X.X.X.X.X.X.X.X.X|..X|..X.X.X.X.X.X.X.X.X.X.X.X.X.X.X.X.X.X.X.X.X.X.X.X",
".X.X.X.X.X.X.X.X.X.X.X.X.X.X.X.X.X.X.X.X.X.X.X.X.X|.+X@X@X@X@XoX.X.X.X.X.X.X.X.X.X.X.X.X.X.X.X.X.X.X.X.X.X.X.X",
".X.X.X.X.X.X.X.X.X.X.X.X.X.X.X.X.X.X.X.X.X.X.X.X.X$X[.5.7.7.I.bX@X.X.XoX.X.X.X.X.X.X.X.X.X.X.X.X.X.X.X.X.X.X.X",
".X.X.X.X.X.X.X.X.X.X.X.X.X.X.X.X.X.XXX.X.X.X|.@X}.4.p.y.h.t.y.a.~.@XoX|..X.X.X.X.X.X.X.X.X.X.X.X.X.X.X.X.X.X.X",
".X.X.X.X.X.X.X.X.X.X.X.X.X.X.X.X.X.X.X.X.X.X|.vX&.c c c V.V.w.x v ~.@X.X.X.X.X.X.X.X.X.X.X.X.X.X.X.X.X.X+X.X.X",
".X.X.X.X.X.X.X.X.X.X.X.X.X.X.X.X.X.X.X.X.X|.xX&.x g.z c N x.A.C.s.g /.@X|..X.X.X.X.X.X.X.X.X.X.X.X.X.X.X.X.X.X",
".X.X.X.X.X.X.X.X.X.X.X.X.X.X.X.X.X.X.X.X.XXXkXa.u.c t.g.q.z N q.C.t.0.XX.X.X.X.X.X.X.X.X.X.X.X.X.X.X.X.X.X.X.X",
".X.X.X.X.X.X.X.X.X.X.X.X.X.X.X.X.X|.|..X|.@X' h.s.g.A.t.h.w.r.q.G h.f.3XXXXX.X.X.X.X.X.X.X.X.X.X.X.X.X.X.X.XXX",
"XX.X.X.X.X.X.X.X.X.X.X.X.X.X.X.X@X$X@X.X|.xXO.h u.tXt.A.Z.B.q.8Xg.c K n [.XX.X.X.X.X.X.XXX.X.X.X.X.X.X.X.X.X.X",
".X.X.X.X.X.X.X.X.X.X.X.X.X.X.X#XG.t } @X|.=X@.1 Z.s.t.8Xh V.C w.8Xh.. ...X.X.X.X.X.X.X.X.X.X.X.X.X.X.X.X.X.X.X",
".X.X.X.X.X.X.X.X.X.X.X.X.X.X|.$XY v.- _ @X+X@.h s.j w.P v g.q.Z z h.M ^.$X|..X.X.X.X.X.X.X.X.X.X.X.X.X.X.X.X.X",
".X.X.X.X.X.X.X.X.X.X.X.X.X.X.X$X .- >X` {.).5Xn j j j e.c g.t.t.j c ;.f `.XX.X.X.X.X.X.X.X.X.X.X.X.X.X.X.X.X.X",
".X.X.X.X.X.X.XXX.X.X.X.X.X.X.X.X#XT , ;Xf :Xd   K N k v c C.H P S $.1 @ `.#X.X.X.X.X.X.X.X.X.X.X.X.X.X.X.X.X.X",
".X.X.X.X.X.X.X.X.X.XXX.X.X.X.X.XoX+X .q 4X+.  % @ F N w 0.d.m p & o T .. XoX.X.X.X.X.X.X.X.X.X.X.X.X.X.X.X.X.X",
".X.X.X.X.X.X.X.X.X.X.X.X.X.X.X.X.XbXo.-.8.m f.$ & <.#.L.T.E 3.( 1.  o.3X).&X.X.X@X.X.X.X.X.X.X.X.X.X.X.X.X.X.X",
".X.X.X.X.X.X.X.X.X.X.X.X.X.X.X.X@X5.I :.A aXyXc.- f 0 0 # w 9 t 2 5 b.wXA.3XoX.X.X.X.X.X.X.X.X.X.X.X.X.X.X.X.X",
".X.X.X.XXX.X.X.X.X.X.X.X.X.X.X@X .A v.% S sXgXyXm.  = W W E W E   d 6XmXgXaXcX.X.X.X.X.X.X.X.X.X.X.X.X.X.XXX.X",
".X.X.X.X.X.X.X.X.X.X.X.X.X.X|.@X} X O   o ;.dXMXpXD.l =.9Xd v.9XwX$.> eXmX,X5.$X.X.X.X.X.X.X.X.X.X.X.X.X.X.X.X",
".X.X.X.X.X.X.X.X.X.X.X.X.X.X.X.X#X_ X p L b.z.dXMXA.I a e b.i 2X3.V l.eXmXL Y $X.X.X.X.X.X.X.X.X.X.X.X.X.X.X.X",
".X.X.X.X.X.X.X.X.X.X.X.X.X.X.X.X.X@X5 b.l.V S j.uXX     q :.4.1X~ >.l.d.b.7 _ *X|..X.X.X.X.X.X.X.X.X.X.X.X.X.X",
".X.X.X.X.X.X.X.X.X.X.X.X.X.X.X.X.XH.k.4 I M.0.%.+.$ D k.` * <X<.8.>.n.N.eX,X8.Q.@X.X.X.X.X.X.X.X.X.X.X.X.X.X.X",
".X.X.X.X.X.X.X.X.X.X.X.X.X.X.X.X.Xt >XuXM.-.9.#.O % 8 5XM.j.d - W f 9.-.+.v.j.{ $X|..X.X.X.X.X.X.X.X.X.X.X.X.X",
".X.X.X.X.X.X.X.X.X.X.X.X.X.X.X.X%X_.r S 8   i $ o o = +.A.c.p .           o . ..$X|..X.X.X.X.X.X.X.X.X.X.X.X.X",
".X.X.X.X.X.X.X.X.X.X.X.X.X.X.X.XXXY.;X<.a . o a q . . ,.6XM.I L - + O W <.q Y .X.X.X.X.X.X.X.X.X.X.X.X.X.X.X.X",
".X.X.X.X.X.X.X.X.X.X.X.X.X.X.X.XXX2.1X2.w o o O 7 U I - 8 d.qXA.%.5 5 (.kX<.G.#X.X.X.X.X.X.X.X.X.X.X.X.X.X.X.X",
".X.X.X.X.X.X.X.X.X.X.X.X.X.X.X.XXX| 3.E.K.E   o * S -.9 9 >.M.i   9 % T.lXhXo.+X.X.X.XXX.X.X.X.XXX.X.X.X.X.X.X",
".XXX.X.X.X.X.X.X.X.X.X.X.X.X.X.XXXy 8.0.7.9   & ! 0 ) ] ] r 3   , M j #.4.2.Y.#X.X.X.X.X.X.X.X.X.X.X.X.X.X.X.X",
".X.X.X.X.X.X.X.X.X.X.X.X.X.X.X.XXXt p :.A p   w ! 3.R.^ ! / a   6 A.S.A.$   X.$XOXOX.X.X.X.X.X.X.X.X.X.X.X.X.X",
".X.X.X.X.X.X.X.X.X.X.X.X.X.X.X.X#Xt   - $ -   W ! 2.(.L.U.X.] 3.m C.dXpXm.2 f H.%X.X.X.X.X.X.X.X.X.XXX.X.X.X.X",
".X.XXX.X.X.X.X.X.X.X.X.X.X.X.X.X@Xr k n 6   a / ] P.P.P.W.T.L.L.1.&.wXmXyXB.# ..$X}..X.X.X.X.X.X.X.X.X.X.X.X.X",
".X.X.X.X.X.X.X.X.X.X.X.X.X.X.X.X+X] h x.f.  E ] 3.I.E.E.T.E.R.U./ e &.eXmXrXx.X.&X#X.X.X.X.X.X.X.X.X.X.X.X.X.X",
".X.X.X.X.X.X.X.X.X.X.X.X.X.X.X.X.X%X@.u.N   a / K.P.E.U.).E.R.R.<.*   l pXMXrX7XI.'..X.X.X.X.X.X.X.X.X.X.X.X.X",
".X.X.X.X.X.X.X.X.X.X.X.X.X.X.X.X.X@X|.X...s t | K.E.E.1XkX2X2XT.E.3.- X L dXtXrXL !.$X.X.X.X.X.X.X.X.X.X.X.X.X",
".X.X.X.X.X.X.X.X.X.X.X.X.X.X.X.X.X.X|.$X-Xo.q ~ P.E.1XjXjXjX2XE.U.U.a @ j.F w.tXD J.$X|..X.X.X.X.X.X.XXX.X.X.X",
".X.X.X.X.X.X.X.X.X.XXX.X.X.X.X.X.X.X|.#X^.o ;.>XX.U.(.3XhXkXkXMXiX>Xw 6 i.] ..f.J J.$X.X.X.X.X.X.X.X.X.X.X.X.X",
".X.X.X.X.X.X.X.X.X.X.X.X.X.X.X.X.X.X|.$XF.S ;., f 4X4XnXhX4XqXn., v.#.H.[.}.&XI.% _.$X.X.X.X.X.X.X.X.X.X.X.X.X",
".X.XXX.X.X.X.X.X.X.X.X%X.X.X.X.X.X.X.X@X/.* : l M n aXqXeXp @ > j M . _.$XXX.X.X{..X.X.X.X.X.X.X.X.X.X.X.X.X.X",
".X.X.X.X.X.X.X.X.X.X.X.X.X.X.X.X.X.X.X|.*XF.  N q.q.g @ . @ k K N H ; Q.#X.X.X.XXX.X.X.X.X.X.X.X.X.X.X.X.X.X.X",
".X.X.X.X.X.X.X.X.X.X.X.X.X.X.X.X.X.X.X|.$X..  J f.t.G : X @ < s.s.C ` {.XX.X.X.X.X.X.X.X.X.X.X.X.X.X.X.X.X.X.X",
".X.XXX.X.X.X.X.X.X.X.XXX.X.X.X.X.X.X+X|.@X].r k P c J @   : Z y.f.< y  X%X.X.X.X.X.X.X.X.X.X.X.X.X.X.X.X.X.X.X",
".X.X.X.X.X.X.X.X.X.X.X.X.X.X.X.X.X.X.X.X|.$X' 4 N v v >   X 6 J n m   t  X.X.X.X.X.X.X.X.X.X.X.X.X.X.X.X.X.X.X",
".X.X.X.X.X.X.X.X.X.X.X.X.X.X.X.X.X.X.X.X|.$X' . - @ 6 k + # O $ . - %   '.XX.X.X.X.X.X.X.X.X.X.X.X.X.X.X.X.X.X",
".X.X.X.X.X.X.X.X.X.X.X.X.X.X.X.X.X.X.X.X.X XY ` *.*.` , ; = 2 u r [ u   '.#X.X.X.X.X.X.X.X.X.X.X.X.X.X.X.X.X.X",
".X.X.X.X.X.X.X.XXX.X.X.X.X.X.X.X|.oX.X|.$X..+.~.5.5.@.d @   - [ O.1.- t {.XX.X.X.X.XXX.X.X.X.X.X.X.X.X.X.X.X.X",
".X.X.X.X.X.X.X.X.X.X.X.X.X.X.X.X+X|..X|.$X..:.=.i i O O   a % O X $   _.$X|..X.X.X.X.X.X.X.X.X.X.X.X.X.X.X.X.X",
".X.X.X.X.X.X.X.X.X.X.X.X.X.X.X.X|.|.@X X@Xo.$ O       u 2 u %   X     ^.#X|..X.X.X.X.X.X.X.X.X.X.X@X.X.X.X.X.X",
".X.X.X.X.X.X.X.X.X.X.X.X.X.X.X.X@X|.|.@X@X Xy   ` #.i # =   . = - #   ^.$X.X.X.X.X.X.X.X.X.X.X.X.X.X.X.X.X.X.X",
".X.X.X.X.X.X.X.X.X.X.X.X.X.X.X.X.X.X.X.XOX$X~ + 1.7.A .     - 2 r 2   ^.$X.X.X.X.X.X.X.X.X.X.X.X.X.X.X.X.X.X.X",
".X.X.X.XXX.X.X.X.X.X.X.X.X.X.X.X.X.X.X|.$X..K ;.$   6 d   X = i 7.` O ^.#X|..X.X.X.X.X.X.X.X.X.X.X.X.X.X.X.X.X",
".X.X.X.X.X.X.X.X.X.X.X.X.X.XXXXX.X.X.X.X$Xo.k <     X X       $ B 5   ^.@X|..X.X.X.X.X.X.X.X.X.X.X.X.X.XXX.X.X",
".X.X.X.X.X.X.X.X.X.X.X.X.X.XOX.X.X.X.X|.*XG.  - B B = X   _ ..}  . .} '.+X.X.X.X.X.X.X.X.X.X.X.X.X.X.X.X.X.X.X",
".X.X.X.X.X.X.X.X.X.X.X.X.X.X.X.X.X.X.X+X_.s - r 7.5.&     _.*X$X$X$X$X@X.X.X.X.X.X.X.X.X.X.X.X.X.X.X.X.X.X.X.X",
".X.X.X.X.X.X.X.X.X.X.X.X.X.XXX.X.X.X}.$XH.. e % - , *   ..}.|.|.|..X}..X.X.X.X.X.X.X.X.X.X.X.X.X.X.X.X.X.X.X.X",
".X.X.X.X.X.X.X.X.X.X.X.X.X.X.X.X.X.X.X|.@X}   O   o   } $X.X.X.X.X.X.X.X.X.X.X.X.X.X.X.X.X.X.X.X.X.X.X.X.X.X.X"
};
