/* XPM */
static char *player7[] = {
/* columns rows colors chars-per-pixel */
"55 55 243 2 ",
"   c #010101",
".  c #0B0102",
"X  c #060A05",
"o  c #02020B",
"O  c #090A09",
"+  c #160805",
"@  c #12110C",
"#  c #1B1506",
"$  c #030312",
"%  c #0C0A13",
"&  c #0B0C1A",
"*  c #170D13",
"=  c #0B1518",
"-  c #181917",
";  c #0B100B",
":  c #270B08",
">  c #27140B",
",  c #361804",
"<  c #231B14",
"1  c #331913",
"2  c #1A211B",
"3  c #0E201A",
"4  c #27241B",
"5  c #382E19",
"6  c #393410",
"7  c #161727",
"8  c #11142B",
"9  c #281D22",
"0  c #1B2526",
"q  c #1B2736",
"w  c #1D313A",
"e  c #282424",
"r  c #362C27",
"t  c #383529",
"y  c #2C2B3D",
"u  c #252537",
"i  c #2B3432",
"p  c #2A3438",
"a  c #393434",
"s  c #353836",
"d  c #2A302E",
"f  c #451A0E",
"g  c #482A19",
"h  c #532E0F",
"j  c #652D09",
"k  c #68381A",
"l  c #642E17",
"z  c #4A3A29",
"x  c #563927",
"c  c #443A33",
"v  c #553637",
"b  c #4C2826",
"n  c #623D2A",
"m  c #3E4139",
"M  c #45451D",
"N  c #714716",
"B  c #4A4438",
"V  c #594237",
"C  c #595736",
"Z  c #514C30",
"A  c #6C4B29",
"S  c #7A4D2A",
"D  c #695828",
"F  c #694A35",
"G  c #7A5739",
"H  c #754B34",
"J  c #6A6937",
"K  c #7A6531",
"L  c #1C3B4D",
"P  c #1B3448",
"I  c #1D3E53",
"U  c #1B2946",
"Y  c #292845",
"T  c #383A4D",
"R  c #33385A",
"E  c #3E3667",
"W  c #4C3D4D",
"Q  c #403F77",
"!  c #3B4946",
"~  c #22465A",
"^  c #3A4655",
"/  c #314850",
"(  c #3F675D",
")  c #2B5876",
"_  c #374D6C",
"`  c #366079",
"'  c #1C4966",
"]  c #474946",
"[  c #564949",
"{  c #494A57",
"}  c #4A595A",
"|  c #575A57",
" . c #54544B",
".. c #655D55",
"X. c #725847",
"o. c #56645B",
"O. c #4C675F",
"+. c #666A4B",
"@. c #766749",
"#. c #636354",
"$. c #767356",
"%. c #454D68",
"&. c #495569",
"*. c #585B65",
"=. c #49557B",
"-. c #545778",
";. c #4C4B6D",
":. c #466767",
">. c #5A6B68",
",. c #5A7C75",
"<. c #4E6873",
"1. c #68666B",
"2. c #67726C",
"3. c #787767",
"4. c #676B75",
"5. c #667779",
"6. c #786D65",
"7. c #844B16",
"8. c #884727",
"9. c #8A4B35",
"0. c #895636",
"q. c #915531",
"w. c #926135",
"e. c #A36C3B",
"r. c #A07339",
"t. c #8B5E48",
"y. c #915F42",
"u. c #986950",
"i. c #897956",
"p. c #9A7551",
"a. c #8F6D49",
"s. c #A96746",
"d. c #B17D55",
"f. c #A47749",
"g. c #897D73",
"h. c #AD7766",
"j. c #718573",
"k. c #B88835",
"l. c #8D8853",
"z. c #B78859",
"x. c #B38348",
"c. c #878772",
"v. c #908964",
"b. c #AB9B66",
"n. c #AC8F76",
"m. c #96A477",
"M. c #A9A27C",
"N. c #BBA771",
"B. c #B8B071",
"V. c #C6A15E",
"C. c #E4A45F",
"Z. c #CA9968",
"A. c #E39F73",
"S. c #CEAE7A",
"D. c #E9BB76",
"F. c #F0B06B",
"G. c #C8955E",
"H. c #EEC669",
"J. c #36688A",
"K. c #356D97",
"L. c #397599",
"P. c #2E6B93",
"I. c #3A79A4",
"U. c #595D86",
"Y. c #4F5C87",
"T. c #5C6384",
"R. c #577B95",
"E. c #53708C",
"W. c #6B7098",
"Q. c #74768E",
"!. c #6B71A3",
"~. c #4B7BA2",
"^. c #937F87",
"/. c #3D85B0",
"(. c #5A849F",
"). c #68879C",
"_. c #6E8C89",
"`. c #4585AB",
"'. c #488CB9",
"]. c #4891BD",
"[. c #5D95AE",
"{. c #7D81B2",
"}. c #77A2AA",
"|. c #4A99C7",
" X c #5F9FDD",
".X c #799AC1",
"XX c #51A2CD",
"oX c #4EA7DA",
"OX c #52A3D3",
"+X c #52AADC",
"@X c #72AACB",
"#X c #56AFE5",
"$X c #5AB6ED",
"%X c #5AB8EF",
"&X c #57B4E9",
"*X c #5CBCF4",
"=X c #5DBFF8",
"-X c #56B9F2",
";X c #62BEF3",
":X c #6EBEEB",
">X c #5EC3FC",
",X c #5EC5FC",
"<X c #61C5FD",
"1X c #63CAFF",
"2X c #6CCCFD",
"3X c #67C2F5",
"4X c #68D2FF",
"5X c #75C6F1",
"6X c #919092",
"7X c #83A39B",
"8X c #9BA193",
"9X c #B5AD89",
"0X c #B6A896",
"qX c #B5B794",
"wX c #AEAC87",
"eX c #868AAC",
"rX c #8998BA",
"tX c #9AA9BC",
"yX c #8EADA9",
"uX c #B2B6AF",
"iX c #D9AE87",
"pX c #CBB58A",
"aX c #D9BBA0",
"sX c #B8C2A7",
"dX c #E8C896",
"fX c #FBD79A",
"gX c #EECB88",
"hX c #FDE393",
"jX c #D2CDAD",
"kX c #E6DFA3",
"lX c #F0EAB1",
"zX c #97AFD7",
"xX c #A3ACD7",
"cX c #ADB7C4",
"vX c #97A2D8",
"bX c #8BD5F6",
"nX c #A9CFDC",
"mX c #D7D3C6",
"MX c #DCE2CB",
"NX c #FCFACB",
"BX c #F1F4D6",
"VX c #DDF5E1",
"CX c #E2EAEE",
/* pixels */
"*X*X*X*X*X*X*X*X*X*X*X*X*X*X*X*X*X*X*X*X*X*X*X*X*X%X*X%X*X*X*X*X*X*X*X*X*X*X*X*X*X*X*X*X*X*X*X*X*X*X*X*X*X*X*X",
"*X*X*X*X*X*X*X*X*X*X*X*X*X=X*X*X*X*X*X*X*X*X*X*X*X1X,X2X1X-X%X*X*X*X*X*X*X*X*X*X*X*X*X*X*X*X*X*X*X*X>X*X*X*X*X",
"*X*X*X*X*X*X*X*X*X*X*X*X*X*X*X*X*X*X*X*X*X*X>X,X3X(.R.).R.5X,X*X*X*X*X*X*X%X*X*X*X*X*X*X*X*X*X*X*X*X*X*X*X*X*X",
"*X*X*X*X*X*X*X*X*X*X*X*X*X*X*X*X*X*X*X*X*X%X,X(.>.y.0.k q.1.(.<X*X*X*X*X*X>X*X*X;X*X*X*X*X*X*X*X*X*X*X*X*X*X*X",
"=X*X*X*X*X*X*X*X*X*X*X*X*X;X*X*X*X*X*X*X*X>X(.l j q.G.e.8.k j 5.,X%X*X*X*X*X*X*X*X*X*X*X*X*X*X*X*X*X*X*X*X*X*X",
"*X*X*X*X*X*X*X*X*X*X*X*X=X*X*X*X*X*X*X$X,X(., w.Z.A.d.A j f.Z.j E.1X%X*X*X*X*X*X*X*X*X*X*X*X*X*X*X*X*X*X*X*X*X",
"*X*X*X*X*X*X*X*X*X*X*X*X*X*X*X*X*X*X*X>X<X{ G Z.7.8.l t.r.7.Z.Z. .:X*X*X*X*X*X>X<X>X*X*X*X*X*X*X*X*X*X*X*X*X*X",
"*X*X*X*X*X*X*X*X*X*X*X*X*X*X*X*X*X*X=X%X4.s.n.N 8.0.S w.r.F.t.p.e.<.2X%X*X*X&X X'.+X>X%X*X*X*X*X*X*X*X*X*X*X*X",
"*X*X*X*X*X*X*X*X*X*X*X*X*X*X*X*X*X*X<XoX| d.9.f.A.G Z.H.n.s.A.f., ) 1X;X%X-XR.^.[ `.1X*X*X*X*X*X*X;X*X*X*X*X*X",
"*X*X*X*X*X*X*X*X*X*X*X>X*X*X*X*X*X*X$X2X`.+ x.D.y.q.z.k gXs.N iXH 2.@X#XbX}.6Xd W.*X*X*X*X*X*X*X*X*X*X*X*X*X>X",
"*X*X*X*X*X*X*X*X*X*X*X*X*X*X*X*X*X*X$X2XK.x k.j # S q.f K Z + k 9., c.).>.sXr q &X>X*X*X*X*X*X*X*X*X*X*X*X*X*X",
"*X*X*X*X*X*X*X*X*X*X*X*X*X*X*X*X*X*X<X|.a w.l 1 Q.[ d.z.W W.x u.+ g.1.c.*.4 Y 5X2X-X*X*X*X*X*X*X*X*X*X*X*X*X*X",
"*X*X*X*X=X*X*X*X*X*X*X*X*X*X*X*X*X%X<X/.+ , ..0.jXwXgXhXn.jXw.i.>.6X. } wXt nX5X;X*X*X*X%X*X*X*X*X*X*X*X*X*X*X",
"*X*X*X*X*X*X*X*X*X*X*X*X*X*X*X*X*X*X2XoXI 3   n D.fXdXdXfXH.H 6.6Xa.a.  { j.m oX,X%X*X*X>X*X*X*X*X*X*X*X*X*X*X",
"*X*X*X*X*X*X*X*X*X*X*X*X*X*X*X*X;X*X5X}.zX(   r n fXiXiXhXD W 6.c S.V.X.X C l.T XX>X%X*X*X*X*X*X*X*X*X*X*X*X*X",
"*X*X*X*X*X*X*X*X*X*X*X*X*X*X*X*X-XbX}.N.pXi.# ;.;.X.dXfXy.^ =.@ @.9XB.b.4 1.g ! |.<X*X*X*X*X*X*X*X*X*X*X*X*X*X",
"*X*X*X*X*X*X*X*X*X*X*X*X*X*X*X-X2XqXdXlXNXqX> $ Y.%.A x ] Y.& ; b.NXlXjXg.MXP.|.1X%X*X*X*X*X*X*X*X*X*X*X*X*X*X",
"*X*X*X*X*X*X*X*X*X*X*X*X*X*X*X,XE.M.jXM.J b.9XqXi u x A U Y B.0XM.J m.jXqX>.4X,X%X>X*X*X*X*X*X*X*X>X*X*X*X*X*X",
"*X*X*X*X*X*X*X*X*X*X*X*X*X*X$X<XL b.M.VXqXK B wXwXo V X.  6XaXc J m.CXM.B.p -X%X*X*X*X*X*X*X*X*X*X*X*X*X*X*X*X",
"*X*X=X*X*X*X*X*X*X*X*X*X*X*X*X4XL i.@.8XuXNX .$ u 0X4 < 0XB & t NXsXuX+.l.d ,X*X3X*X*X*X*X*X*X*X*X*X*X*X*X*X*X",
"*X*X*X*X*X*X*X*X*X*X*X*X*X*X>X|.<.D h 6 +.l.o.{ 7 mX#.B MXs / | i.6.6 6 D #.'.>X5X3X%X*X*X*X*X*X*X*X*X*X*X*X*X",
"*X*X*X*X*X*X*X*X*X*X*X*X*X$X2X' g.lXpXkXM.  { u Q.6X@ - Q.Q.y {   c.lXB.kXM.P 1X%X%X>X*X*X*X*X*X*X*X*X*X*X*X*X",
"*X*X*X*X*X*X*X*X*X*X*X*X*X*X=XOXs B #.| e o X 8 { a T.Q.y { 7 o O -  .#. .i |.,X*X*X*X*X*X*X*X*X*X*X*X*X*X*X*X",
"*X*X*X*X*X*X*X*X*X*X=X*X*X*X*X2X=.X } y     7 >.a - ] c Z t -.y X   0 &.& ~ ,X*X*X*X*X*X*X*X*X*X*X*X*X*X*X*X*X",
"*X*X*X*X*X*X*X*X*X*X*X*X*X*X1XL.!.!.T.7 4 5 o & 9 l.C m l.d = $ O Y Y =.W.!.Y.,X*X*X*X*X*X*X*X*X*X*X*X*X*X*X*X",
"*X*X*X*X*X*X*X*X*X*X*X*X*X*X1X~.U.W.T y # D 7 & t l.B B l.C -   1.uXY u W.eXJ.,X-X*X*X*X*X*X*X*X*X*X*X*X*X*X*X",
"*X*X=X*X*X*X*X*X*X*X*X*X*X*X#XL z +.O o t | 8 4.{ y jXkX] R Q.o { 4.   .#.7 ) <X3X;X*X*X*X*X>X*X*X*X*X*X*X*X;X",
"*X*X*X*X*X*X*X*X*X*X*X*X$X1XJ.t sX6X; & Q 8 0 &.xXE 4 t Y xXT.q & u   2.jX#.I <X5X:X*X*X*X*X*X*X*X*X*X*X*X*X*X",
"*X*X*X*X*X*X*X*X*X*X*X*X*X1XJ.r Q.&   o 7 % ^ _ !.T     u W._ Y.u O     -.] L 1X-X*X*X*X*X*X*X*X*X*X*X*X*X*X*X",
"*X*X*X*X*X*X*X*X*X*X*X*X%X1XL.8 u F q.q.v   ^ Y.-.o p W   ;._ %.9 G G G y e I 1X%X*X*X*X*X*X*X*X*X*X*X*X*X*X*X",
"*X*X*X*X*X*X*X*X*X*X*X*X*X<XJ.O % t.C.F.i.  T vX_   T ;.  R rX^ z gXC.x.* o L 1X%X*X*X*X*X*X*X*X*X*X*X*X*X*X*X",
"*X*X*X*X=X*X*X*X*X*X*X*X,X].. X   t.F.H.X.  %.vXT.  q y   =.zX-.b iXD.z.* $ ` <X*X*X*X*X*X*X*X*X*X*X*X*X*X*X*X",
"*X*X*X*X*X*X>X*X*X*X*X*X<XI.5 $.1 v p.F   ^ tXzXT.X o   $ %.xXeX  r p.X.# 0 1X%X*X*X*X*X*X*X*X*X*X*X*X*X*X*X*X",
"*X*X*X*X*X*X*X*X*X*X*X*X<X|. .p.2.= X 3...U.uXzXU.  o o   ;.xXrX*.3.e   h E.<X3X3X;X*X*X*X*X*X*X*X*X*X*X*X*X*X",
"*X*X*X*X*X*X*X*X*X*X*X*X*X$X XI.oX/.* C c.mXcXzX-.% + : + ;.rXuXNXqX@ ) [.,X3X;X;X3X*X*X*X*X*X*X*X*X*X*X*X*X*X",
"*X*X*X*X*X*X*X*X*X*X*X*X*X*X>X1X>X,XXX) @ t 0XBX8X+ % + . c.BXjXt + ) 2X>X*X*X*X*X-X*X*X*X*X*X*X*X*X*X*X*X*X*X",
"*X*X*X*X*X*X*X*X*X*X*X*X*X*X*X%X%X%X4XXX% . x z - : * : # > t B   o `.<X$X*X*X*X*X*X*X*X*X*X*X*X*X*X*X*X*X*X*X",
"*X*X*X*X*X*X*X*X*X*X*X*X*X*X*X*X*X%X%X<XK.f n k h 1 + o 1 n l N g J.<X*X*X*X*X*X*X*X*X*X*X*X*X*X*X*X*X*X*X*X*X",
"*X*X*X*X*X*X*X*X*X*X*X*X*X*X*X*X%X>X$X1XK.g h.r.D , : > g 9.9.7.O.2X*X*X*X*X*X*X*X*X*X*X*X*X*X*X*X*X*X>X*X*X*X",
"*X=X*X*X*X*X*X*X*X*X*X*X*X*X*X*X%X>X$X,X~.. S f x H   . A w.f.f ~ 1X%X*X*X*X*X*X*X*X*X*X*X*X*X*X*X*X*X*X*X*X*X",
"*X*X=X;X*X*X*X*X*X*X*X*X*X*X*X*X%X%X%X4XL.1 b z C r . o @ g A + 0 [.>X*X*X*X*X*X*X*X*X*X*X*X*X*X*X*X*X*X*X*X*X",
"*X*X*X*X*X*X*X*X*X*X*X*X*X*X*X*X>X%X<X|./ ! ; < t i   X   v 4 B . ` 1X%X*X*X*X*X*X*X*X*X*X*X*X*X*X*X*X*X*X*X*X",
"*X*X*X*X*X*X*X*X*X*X*X*X=X*X*X*X>X$X1X].- } ] { } ]   i e - ; s m   `.<X*X*X*X*X*X*X*X*X*X*X*X*X*X*X*X*X*X*X*X",
"*X*X*X*X*X*X*X*X*X*X*X*X*X*X*X*X%X%X>XL.| } X ! >.>.  a _.] 3 i ,.m P.1X%X*X*X*X*X*X*X*X*X*X*X=X*X*X*X*X*X*X*X",
"*X*X*X*X*X*X*X*X*X*X*X*X*X*X*X*X*X,XoX/ 8X5.3 j.yX>.  - _.,.; O.7X:./.,X*X*X*X*X*X*X*X*X*X*X*X*X*X*X*X*X*X*X*X",
"*X*X*X*X*X*X*X*X*X*X*X*X*X*X*X*X*X%X<X|.  X ; O.,.2   e * ( 0 j.:.`.1X>X*X*X*X*X*X*X*X*X*X*X*X*X*X*X*X*X*X*X*X",
"*X*X*X*X*X*X*X*X*X*X*X*X*X*X*X*X*X*X>X&X~ - m d d e   2 -   o X ~ 4X%X*X*X*X*X*X*X*X*X*X*X*X*X*X*X*X*X*X*X*X*X",
"*X*X*X*X=X*X*X*X*X*X*X*X*X*X*X*X*X*X&X1X~.o } 2.a c     v 9   e V L.,X*X*X*X*X*X>X*X*X*X*X*X*X*X*X*X*X*X*X*X*X",
"*X*X*X*X*X*X*X*X=X*X*X*X*X*X*X*X*X*X<X].b u.1 . X.t.X   F @.> t.F _ 1X%X*X*X*X*X*X*X*X*X>X%X*X*X*X*X*X*X*X*X*X",
"*X*X*X=X*X*X*X*X*X*X*X*X*X*X*X*X*X*X<X|.[ x O @ > V   o * 9  .#   ) 4X$X*X*X*X*X*X*X*X*X*X*X*X*X*X*X*X*X*X*X*X",
"*X*X*X*X*X*X*X*X*X*X*X*X*X*X*X*X*X*X*X*X) X / :.2 - o X ! >.:.}.O.~ &X>X*X*X*X*X*X*X*X*X*X*X*X*X*X*X*X*X*X*X*X",
"*X*X*X*X*X*X*X*X*X*X*X*X*X*X*X*X*X*X<X].| yX}.7X5.i X   - O.,.yXyX] `.,X%X*X*X*X*X*X*X*X*X*X*X*X*X*X;X*X*X*X*X",
"*X=X*X*X*X*X*X*X*X*X*X*X*X*X*X*X,X&X,X]. .yX}.7Xi   q L.J.0 2 @ - > `.,X*X*X*X*X*X*X*X*X%X%X*X*X*X*X*X*X*X*X*X",
"*X*X*X*X*X*X*X*X*X*X*X*X*X*X*X*X-X3X,X&X) ; @ ; ; /.XX1X4X].`././.I.OX>X*X*X*X*X*X*X*X*X>X>X*X%X*X>X*X*X*X*X*X",
"*X*X*X*X*X*X*X*X*X*X*X*X*X*X*X*X-X3X&X,X3X|.|.|.XX1X,X%X-X,X,X,X1X1X>X%X*X*X*X*X*X*X*X*X%X*X%X>X*X*X*X*X*X*X*X"
};
