/* XPM */
static char *player8[] = {
/* columns rows colors chars-per-pixel */
"55 55 242 2 ",
"   c #010101",
".  c #0D0301",
"X  c #03040A",
"o  c #050A0B",
"O  c #0C0C0D",
"+  c #0B0A06",
"@  c #180906",
"#  c #181509",
"$  c #000114",
"%  c #080814",
"&  c #140E16",
"*  c #0B1518",
"=  c #141612",
"-  c #191915",
";  c #16191B",
":  c #191817",
">  c #370807",
",  c #251A06",
"<  c #27151A",
"1  c #351C15",
"2  c #301400",
"3  c #1B201B",
"4  c #2A261A",
"5  c #352819",
"6  c #35341D",
"7  c #2C2F14",
"8  c #080926",
"9  c #0E1622",
"0  c #161828",
"q  c #1C1D35",
"w  c #261E22",
"e  c #3A1B3B",
"r  c #17242A",
"t  c #182837",
"y  c #18313C",
"u  c #262827",
"i  c #362C25",
"p  c #2A322E",
"a  c #343229",
"s  c #242937",
"d  c #273532",
"f  c #353736",
"g  c #322D36",
"h  c #47190E",
"j  c #5B3B16",
"k  c #482D12",
"l  c #67330A",
"z  c #6D3815",
"x  c #483C34",
"c  c #593D37",
"v  c #543626",
"b  c #783923",
"n  c #3C4139",
"m  c #374126",
"M  c #474529",
"N  c #514E2D",
"B  c #5C4538",
"V  c #4B5336",
"C  c #4D4C32",
"Z  c #664629",
"A  c #774728",
"S  c #675B25",
"D  c #684734",
"F  c #7A5737",
"G  c #6E5434",
"H  c #716737",
"J  c #6F470C",
"K  c #1C1D41",
"L  c #0F0E42",
"P  c #1B384A",
"I  c #193A55",
"U  c #292945",
"Y  c #2B3449",
"T  c #343748",
"R  c #2A3A51",
"E  c #322B43",
"W  c #453A44",
"Q  c #483851",
"!  c #394744",
"~  c #2D4156",
"^  c #3B4656",
"/  c #274D64",
"(  c #3B4468",
")  c #3C4973",
"_  c #2B5772",
"`  c #375B75",
"'  c #345669",
"]  c #2E617E",
"[  c #494749",
"{  c #55544B",
"}  c #4A535B",
"|  c #575458",
" . c #4C4954",
".. c #625B53",
"X. c #714F43",
"o. c #5E6352",
"O. c #6B614A",
"+. c #6A695A",
"@. c #7B7C59",
"#. c #756542",
"$. c #444966",
"%. c #46586B",
"&. c #585869",
"*. c #434C72",
"=. c #475476",
"-. c #575B79",
";. c #605B75",
":. c #4C6567",
">. c #5A6965",
",. c #586C74",
"<. c #4E6D77",
"1. c #696862",
"2. c #6D7364",
"3. c #78756A",
"4. c #627476",
"5. c #6F7074",
"6. c #874728",
"7. c #8A522B",
"8. c #855838",
"9. c #975C32",
"0. c #93572A",
"q. c #98663B",
"w. c #86693D",
"e. c #A6663D",
"r. c #885945",
"t. c #8D5544",
"y. c #876B47",
"u. c #956845",
"i. c #9A7248",
"p. c #837756",
"a. c #886F53",
"s. c #A97948",
"d. c #AB7756",
"f. c #B67856",
"g. c #A36840",
"h. c #897D64",
"j. c #817A7B",
"k. c #7F8658",
"l. c #88843A",
"z. c #958A5D",
"x. c #B68355",
"c. c #B28343",
"v. c #908968",
"b. c #8B8577",
"n. c #98977C",
"m. c #948E6A",
"M. c #BA8964",
"N. c #AD936B",
"B. c #9DA47F",
"V. c #AAA372",
"C. c #B6A575",
"Z. c #C89358",
"A. c #CFAE56",
"S. c #C18A64",
"D. c #D09466",
"F. c #D8A467",
"G. c #D7A475",
"H. c #CBAE74",
"J. c #E9B56B",
"K. c #F0B376",
"L. c #DFC479",
"P. c #3E5C82",
"I. c #376989",
"U. c #3A7799",
"Y. c #2C6990",
"T. c #3D7DA1",
"R. c #555988",
"E. c #49758C",
"W. c #57708B",
"Q. c #6D6F85",
"!. c #727492",
"~. c #6B7388",
"^. c #4E78AC",
"/. c #707DA6",
"(. c #5D838E",
"). c #6A8789",
"_. c #7B8B8E",
"`. c #4289B5",
"'. c #4791BC",
"]. c #4D87A9",
"[. c #6F96B0",
"{. c #74A0B6",
"}. c #4999C9",
"|. c #5B9DCB",
" X c #53AADB",
".X c #4FA0CD",
"XX c #53ADE3",
"oX c #55B0E5",
"OX c #5AB7ED",
"+X c #5BB9EF",
"@X c #56B4E9",
"#X c #56BAF4",
"$X c #5CBCF4",
"%X c #5CBEF9",
"&X c #54B6F1",
"*X c #60BCE9",
"=X c #63BEF2",
"-X c #76BEE9",
";X c #6FADC4",
":X c #5EC3FC",
">X c #5CC6FC",
",X c #61C6FE",
"<X c #64CBFF",
"1X c #69CBFF",
"2X c #65C3F6",
"3X c #74C5F2",
"4X c #6DD5FF",
"5X c #77DBFF",
"6X c #898880",
"7X c #949393",
"8X c #90948F",
"9X c #99A497",
"0X c #A6A685",
"qX c #B4B994",
"wX c #AFAB93",
"eX c #8C95A9",
"rX c #ABB3AD",
"tX c #A0A09F",
"yX c #CDB58A",
"uX c #CEC489",
"iX c #CDC99A",
"pX c #DACE95",
"aX c #E7C991",
"sX c #F5DD96",
"dX c #F6CC8E",
"fX c #FEE896",
"gX c #D5D9A5",
"hX c #CBC9A4",
"jX c #E8D6A9",
"kX c #E8E5AE",
"lX c #FAF2B7",
"zX c #90A8CC",
"xX c #8EBFE1",
"cX c #A1AECE",
"vX c #B2CFD5",
"bX c #83D4FF",
"nX c #8FC9E8",
"mX c #B1E1F3",
"MX c #FCF8C6",
"NX c #D8F9F7",
"BX c #C5EEF6",
"VX c #E7FEED",
/* pixels */
"$X$X$X$X$X$X$X$X$X$X$X$X$X$X$X$X$X$X:X$X$X$X$X$X$X$X$X$X$X$X$X$X$X$X$X$X$X$X$X$X$X$X$X$X$X$X$X$X$X$X$X$X$X$X$X",
"$X$X$X$X$X$X$X$X$X$X$X$X$X$X$X$X$X$X$X$X$X$X$X$X$X+X+X+X+X2X$X$X$X$X$X$X$X$X$X$X$X$X$X$X$X$X$X$X$X$X$X$X$X$X$X",
"$X$X$X$X$X$X$X$X$X$X$X$X$X$X$X$X$X$X$X$X$X$X$X$X$X>X>X>X>X+X+X$X#X$X$X$X$X$X$X$X$X$X$X$X$X$X$X$X$X$X$X$X$X$X$X",
"$X$X$X$X$X$X$X$X$X$X$X$X$X$X$X$X$X$X$X$X$X$X$X>X$X,.4.W.,.-X<X$X%X=X$X$X$X$X$X$X$X$X$X$X$X$X$X$X$X$X$X$X$X$X$X",
"$X$X$X$X$X$X$X$X$X$X$X$X$X$X$X$X$X$X$X$X$X$X>XW...e.9.b 9.a.,.2X%X=X$X$X$X$X$X$X$X$X$X$X$X$X$X$X$X$X$X$X$X$X$X",
"$X$X$X$X$X$X$X$X$X$X$X$X$X$X$X$X$X$X$X$X$X2X).l l 9.Z.u.b z l +.3X+X$X$X$X$X$X$X$X$X$X$X$X$X$X$X$X$X$X$X$X$X$X",
"$X$X$X$X$X$X$X$X$X$X$X$X$X$X$X$X$X$X$X+X>XE.h e.F.G.s.A z s.G.l ,.4X+X#X$X$X%X%X,X2X$X$X$X$X$X$X$X$X$X$X$X$X$X",
"$X$X$X$X$X$X$X$X$X$X$X$X$X$X$X$X$X$X$X2X+X[ e.M.b 6.k r.s.7.N.D.t.xX=X=X$X=X=X|.`.XX%X$X$X$X$X$X$X$X$X$X%X$X$X",
"$X$X$X$X$X$X$X%X$X$X$X$X$X$X$X$X$X$X%XXX1.f.S.j 0.8.9.7.0.K.i.u.u.` 5XOX&X%X^.6X[ `.>X+X$X$X$X$X$X$X$X$X$X$X$X",
"$X$X$X$X$X$X$X$X$X$X$X$X$X$X$X$X$X$X:XXX&.a.0.c.F.r.H.M.A 8.A.f.> 2.zXnXBX{.7X7 7X3X#X$X$X$X$X$X$X$X$X$X$X$X$X",
"$X$X%X$X$X$X$X$X$X$X$X$X$X$X$X$X$X$X+X1XT.. M.dX6.8.d.q.fXZ J F.q., b.tX1.qXa Y -X%X$X$X$X$X$X$X$X$X$X$X$X$X$X",
"$X$X$X$X$X$X$X$X$X$X$X$X$X$X$X$X$X$X#X>XE.@ x.8.< G 6.b 6 < h 7.A.e 6Xa 6Xi t &X:X$X$X$X$X$X$X$X$X$X$X$X$X$X$X",
"$X$X$X$X$X$X$X$X$X$X$X$X$X$X$X$X$X$X+X%X{.l s.c 6X{ S.Z.Q q < v + T j.k.u g BX3XmX3X&X$X$X$X$X$X$X$X$X$X$X$X$X",
"$X$X$X$X$X$X$X$X$X$X$X$X:X$X$X$X$X$X$X>X[.2 M.e.gXtXjXsXwXjXF 8.{ # g Q.5.[ vXBXnX&X$X$X$X$X$X$X$X$X$X$X$X$X$X",
"$X$X$X$X$X$X$X$X$X$X$X$X$X$X$X$X&X>X$X;X4.2 X.A A.fXaXyXfXK.F 3.wXw.. t ^ E Y }.$X$X$X$X$X$X$X$X$X$X$X$X$X$X$X",
"$X$X$X$X$X$X$X$X$X$X$X$X$X$X$X$X+X3XeXC.yXz.5 e W dXaXyXdXZ O 1.@.aXv.x * _ # _ <X+X$X$X$X$X$X$X$X$X$X$X$X%X$X",
"$X$X$X$X$X$X$X$X$X$X$X$X$X$X$X=X#XmXsXlXMXC.7 ^ $.F K.aXF ! o | kXy.gXgX@.+XU..X:XOX+X:X$X$X$X$X$X$X$X$X$X$X$X",
"$X$X$X$X$X$X$X$X$X$X$X$X$X$X$X$X>X4.iXn.H V.wXhX;.% j v $.*.r yXS V H C.yX<.>X:X+X:X+X+X$X$X$X$X$X$X$X$X$X$X$X",
"$X$X$X$X$X$X$X$X$X$X$X$X$X$X$X$X:Xt @.VXrX#.M wXn.p N.j R q # w.#.rXk.H.yXr :X:X:X+X:X+X$X$X$X$X$X$X$X$X$X$X$X",
"$X$X$X$X$X$X$X$X$X$X$X$X$X$X$X$X<Xt C 9XqXlX{ $ a 7X% 4 !.q O MXV.7 @.C.v.y >X+X+X+X:X+X+X:X$X$X$X$X$X$X$X$X$X",
"$X$X$X$X$X$X$X$X$X$X$X$X$X$X$X%X'.o.k 6 #.z.&.) u wX  n.+.   .3.+.v.z.V.z.p '.:X+X:X$X$X$X$X$X$X$X$X$X$X$X$X$X",
"$X$X$X$X$X$X$X$X$X$X$X$X$X$X$X1XP V.iXjXV.  } s Q.8XO [ 2.Q.&.- p.b.b.v.m.G P <X+X+X$X$X$X$X$X$X$X$X$X$X$X$X$X",
"$X$X$X$X$X$X$X$X$X$X$X$X$X#X=X2X}.d { | u o o 9  .Y R.Q.g }   - n         n }.:X$X$X$X$X$X$X$X$X$X$X$X$X$X$X$X",
"$X$X$X%X$X$X$X$X$X$X$X$X$X$X$X2X^.~.( s     q -.f - V N M T R.s     T W.* ~ >X+X$X$X$X$X$X$X$X$X$X$X$X$X$X$X$X",
"$X$X$X$X$X$X$X$X$X$X$X$X$X$X$X:XR.eXR.8 4 6 $ 8 4 l.N M m.a % O X q ( ) ( XX$X$X$X$X$X$X$X$X$X$X$X$X$X$X$X$X$X",
"$X$X$X$X$X$X$X$X$X$X$X$X$X$X$X>X_ T eX$.# S - 9 N z.[ x v.V :   0 *.) eX=.&X$X$X$X$X$X$X$X$X$X$X$X$X$X$X$X$X$X",
"$X$X$X$X$X$X$X$X$X$X$X$X$X+X+X<XI 4 1.x a | 0 [ % < gXkX[ E !.X o R zXzX=.+X#X$X$X$X$X$X$X$X$X$X$X$X$X$X$X$X$X",
"$X$X$X$X$X$X$X$X$X$X$X$X$X:X=X<X:.N +.# { 0   X     u a s cXW.0 X ;  .g U +X:X$X$X$X$X$X$X$X$X$X$X$X$X$X$X$X$X",
"$X$X$X$X$X$X$X$X$X$X$X$X+X2X2X>X[.[ | + @   ; K q q     t /.) U   { rX< o &X$X$X$X$X$X$X$X$X$X$X$X$X$X$X$X$X$X",
"$X$X$X$X$X$X$X$X$X$X$X$X$X&XbXW.9 t R o $ q eXgXqX$.K X % =.( U   r j.rXs oX2X$X$X$X$X$X$X$X$X$X$X$X$X$X$X$X$X",
"$X$X$X$X$X$X$X$X$X$X$X+X+X>X].. U R.( ; E 8X3.4 W jXrX8   R R & @ @ f f * OX$X$X$X$X$X$X$X$X$X$X$X$X$X$X$X$X$X",
"$X$X%X$X$X$X$X$X$X$X$X:X+X1XY.k x ( C 8 7Xj.k i.G G wXu   $.w a.s.f.i s R +X:X$X$X$X$X$X$X$X$X$X$X$X$X$X:X$X$X",
"$X$X$X$X$X$X$X$X$X$X$X$X$X1XY.y.H   p.%.n.#.8.Z.S.c +.n.  $.u yXK.D.k    X2X#X$X$X$X$X$X$X$X$X$X$X$X$X$X$X$X:X",
"$X$X$X$X$X$X$X$X$X$X$X$X$X1XU., %.I.I | 0X5 yXK.J.t.x {   $.9 u.K.F.5    X:X$X$X$X$X$X$X$X$X$X$X$X$X$X$X$X$X$X",
"$X$X$X$X$X$X$X$X$X$X$X$X%X=X XY. X4X&XrXn.k f.F.J.u.  . . $.% + v x 1 <.$X$X$X$X$X$X$X$X$X$X$X$X$X$X$X$X$X$X$X",
"$X$X$X$X$X$X$X$X$X$X$X$X#X+X$X,X>X&X&XNXwXc f.s.d.F . $   9XiXqXO.X <.bX#X$X$X$X$X$X$X$X$X$X$X$X$X$X$X$X$X$X$X",
"$X$X$X$X$X$X$X$X%X$X$X$X$X$X$X+X$X$X>X|.#   B d.u.- X $ X u i 4 : % `.:XOX$X$X$X$X$X$X$X$X$X$X$X$X$X$X$X$X$X$X",
"$X$X$X$X$X$X$X$X$X$X$X$X$X$X$X$X$X+X>X`.+ ! ; D X.u }   +   @ &   ` <XOX$X$X$X$X$X$X$X$X$X$X$X$X$X$X$X$X$X$X$X",
"$X$X$X$X$X$X%X$X$X$X$X$X$X$X$X$X$X$X>X.X' 9Xd X   f ).+ @ 1 F y.a `.2X+X$X$X$X$X$X$X$X%X$X$X$X$X$X$X$X$X$X$X$X",
"$X$X$X$X$X$X$X$X$X$X$X$X$X$X$X$X$X$X$X<XT.X u n g O - @ @ D m.z 9 }.:X$X$X$X$X$X$X$X$X$X$X$X$X$X$X%X$X$X$X$X$X",
"$X$X$X$X$X$X$X$X$X$X$X$X$X$X$X$X$X$X+X<XT.  w p r & i . . Z B Z @ (.>X+X$X$X$X$X$X$X$X$X$X$X$X$X$X$X$X$X$X$X$X",
"$X%X$X$X$X$X$X$X$X$X$X$X$X$X$X$X$X+X>X}.f X.[ M x a.X.w u # . a { {.%X+X$X$X$X$X$X$X$X$X$X$X$X$X$X$X$X$X$X$X$X",
"$X$X$X$X$X$X$X$X$X$X$X$X$X$X$X$X$X$X$X+XE.4 = = : < + O X f f ! +.].>X$X$X$X$X$X$X$X$X$X$X$X$X$X$X$X$X$X$X$X$X",
"$X$X$X$X$X$X$X$X$X$X$X$X$X$X$X$X+X:X+X2X2XI O y *         : = f _.nX%X=X$X$X$X$X$X$X$X$X$X$X$X$X$X$X$X$X$X$X$X",
"$X$X$X$X$X$X$X$X$X$X$X$X$X$X$X$X+X+X:X&X/ = :.:.d   0 r     ; 1.P 1X$X$X$X$X$X$X$X$X$X$X$X$X$X$X$X$X$X$X$X$X$X",
"$X$X$X$X$X$X$X$X$X$X$X$X$X$X$X$X:X+X>X'.  n )._.>.  ` U.  X   o U.<X$X$X$X$X$X$X$X$X$X$X$X$X$X$X$X$X$X$X$X$X$X",
"$X$X$X$X$X$X$X$X$X$X$X$X$X$X$X$XOXOX<X'.  d vXNX>.  ' I.  X   y 1X$X$X$X$X$X$X$X$X$X$X$X$X$X$X$X$X$X$X$X$X$X$X",
"$X$X$X$X$X$X$X$X$X$X%X$X$X$X$X$X:X:X>X'.  O ,.eX3 * oX]   X   t :X+X$X$X$X$X$X$X$X$X$X$X$X$X$X%X$X$X$X$X$X$X$X",
"$X$X$X$X$X$X$X$X$X$X$X$X$X$X$X$X$X$X$X%XI.  X     P 4X]   o   r $X:X$X$X$X$X$X$X$X$X$X$X$X$X$X$X$X$X$X$X$X$X$X",
"$X$X$X$X$X$X$X$X$X$X$X$X$X$X$X$X$X$X$X<XT.* r 9 P oX,XI.  + o   P oX$X$X$X$X$X$X$X$X$X$X$X$X$X$X$X$X$X$X$X$X$X",
"$X$X$X$X=X$X$X$X$X$X$X$X$X$X$X$X$X$X%X$X$X:X:X:X$X$X$X,XI.X     o U.<X$X$X$X$X$X$X$X$X$X$X$X$X$X$X$X$X$X$X$X$X",
"$X$X$X$X%X$X$X$X$X$X$X$X$X$X$X$X$X$X$X$X$X$X$X$X$X$X$X$X<XI./ / U.1X$X$X$X$X$X$X$X$X$X$X$X$X$X$X$X$X$X$X$X$X$X",
"$X$X$X$X$X$X$X$X$X$X$X$X$X$X$X$X$X$X$X$X$X$X$X$X$X$X$X$X+X>X<X<X:X$X$X$X$X$X$X$X$X$X$X$X$X$X$X$X$X$X$X$X$X$X$X",
"$X$X$X$X$X$X$X$X$X$X$X$X%X$X$X$X$X$X$X$X$X$X$X$X$X$X$X$X$X$X+XOX+X$X$X$X$X$X$X$X$X$X$X$X$X$X$X$X$X$X$X$X$X:X$X",
"$X$X$X$X$X$X$X$X$X$X$X$X$X$X$X$X$X$X$X$X$X$X$X$X$X$X$X$X$X$X$X$X$X$X$X$X$X$X$X$X$X$X$X$X$X$X$X$X$X$X$X$X$X$X$X"
};
