/* XPM */
static char *player0[] = {
/* columns rows colors chars-per-pixel */
"55 55 241 2 ",
"   c #010101",
".  c #0A0302",
"X  c #0C0D0C",
"o  c #070708",
"O  c #150906",
"+  c #13120D",
"@  c #1A1509",
"#  c #080815",
"$  c #120C14",
"%  c #0A1314",
"&  c #0B151A",
"*  c #1C1912",
"=  c #1B1C1B",
"-  c #151818",
";  c #240B06",
":  c #231606",
">  c #351707",
",  c #271A15",
"<  c #35170E",
"1  c #1B211C",
"2  c #2A271A",
"3  c #3D2716",
"4  c #363513",
"5  c #141927",
"6  c #11112E",
"7  c #291E2E",
"8  c #1B2528",
"9  c #182B35",
"0  c #132C3D",
"q  c #242425",
"w  c #272A2A",
"e  c #3A2B25",
"r  c #373628",
"t  c #232331",
"y  c #28293C",
"u  c #253537",
"i  c #373837",
"p  c #303032",
"a  c #481E11",
"s  c #521D01",
"d  c #582605",
"f  c #47291C",
"g  c #46351B",
"h  c #55320F",
"j  c #6C3612",
"k  c #473727",
"l  c #583827",
"z  c #4B3838",
"x  c #563C35",
"c  c #492A29",
"v  c #643E2B",
"b  c #3B443B",
"n  c #4A4A14",
"m  c #7C411C",
"M  c #6F501D",
"N  c #484938",
"B  c #53483B",
"V  c #52502D",
"C  c #7C5529",
"Z  c #685939",
"A  c #6F4A32",
"S  c #6A6C2C",
"D  c #1A2442",
"F  c #1C3748",
"G  c #1E3953",
"H  c #272949",
"J  c #273646",
"K  c #373946",
"L  c #283D51",
"P  c #31355A",
"I  c #402B5B",
"U  c #47396C",
"Y  c #394847",
"T  c #264457",
"R  c #3D4957",
"E  c #3E505D",
"W  c #194661",
"Q  c #2C4B63",
"!  c #394563",
"~  c #394772",
"^  c #295773",
"/  c #335E73",
"(  c #24536E",
")  c #31617C",
"_  c #494848",
"`  c #48524A",
"'  c #464957",
"]  c #504757",
"[  c #4A5857",
"{  c #53575C",
"}  c #574C44",
"|  c #645547",
" . c #71564A",
".. c #57645B",
"X. c #59634D",
"o. c #6A6952",
"O. c #746A54",
"+. c #75745A",
"@. c #776C49",
"#. c #454C66",
"$. c #47576B",
"%. c #555667",
"&. c #585877",
"*. c #495174",
"=. c #625E62",
"-. c #615877",
";. c #466567",
":. c #576867",
">. c #596979",
",. c #5D7379",
"<. c #536E73",
"1. c #757368",
"2. c #697C7A",
"3. c #6A6C6F",
"4. c #975A36",
"5. c #8B522F",
"6. c #9A6738",
"7. c #9A7438",
"8. c #876433",
"9. c #A96632",
"0. c #8B6649",
"q. c #986947",
"w. c #8E7051",
"e. c #A6754D",
"r. c #A77756",
"t. c #A76A52",
"y. c #987B69",
"u. c #897463",
"i. c #73887C",
"p. c #8F8A4F",
"a. c #AA8355",
"s. c #B68C4F",
"d. c #868867",
"f. c #979979",
"g. c #948F6E",
"h. c #A2997A",
"j. c #B19865",
"k. c #AEA779",
"l. c #CA9256",
"z. c #C79769",
"x. c #C19671",
"c. c #D4AC74",
"v. c #E1B572",
"b. c #DEC067",
"n. c #FDC874",
"m. c #1E5B81",
"M. c #334580",
"N. c #2B6484",
"B. c #36759A",
"V. c #376C90",
"C. c #397CA5",
"Z. c #595D81",
"A. c #454F84",
"S. c #605F84",
"D. c #4D6281",
"F. c #566784",
"G. c #5D6795",
"H. c #517395",
"J. c #647386",
"K. c #677497",
"L. c #717799",
"P. c #6B6D90",
"I. c #4378A2",
"U. c #6D7BA3",
"Y. c #3F81A5",
"T. c #3F88B3",
"R. c #738985",
"E. c #718C93",
"W. c #4284A9",
"Q. c #4389B2",
"!. c #468EBA",
"~. c #4790B8",
"^. c #7390B2",
"/. c #4C9CCB",
"(. c #4A99C5",
"). c #4C9FD0",
"_. c #7399C0",
"`. c #54A2CA",
"'. c #4FA8DD",
"]. c #54A8D7",
"[. c #55ADE1",
"{. c #5BB8EF",
"}. c #59B4E7",
"|. c #56B7F0",
" X c #5CBCF4",
".X c #5DBFF8",
"XX c #56B9F4",
"oX c #67BBEB",
"OX c #63BEF2",
"+X c #75B4D4",
"@X c #5EC2FB",
"#X c #5EC9FF",
"$X c #5BC1FA",
"%X c #62C5FD",
"&X c #63CAFF",
"*X c #6ACDFE",
"=X c #67C2F6",
"-X c #77C8F5",
";X c #6AD6FF",
":X c #64D1FF",
">X c #75D3FF",
",X c #979683",
"<X c #8B8F90",
"1X c #A29885",
"2X c #AAAA94",
"3X c #B1B08D",
"4X c #8485A7",
"5X c #8C91B2",
"6X c #8CABA6",
"7X c #9CA7B9",
"8X c #B2AEA5",
"9X c #99A38C",
"0X c #CCB58B",
"qX c #E2BA8B",
"wX c #CFBEBA",
"eX c #CFC894",
"rX c #F3D38B",
"tX c #F5E490",
"yX c #CACABA",
"uX c #D1CDA9",
"iX c #E6D8A5",
"pX c #E4DCB7",
"aX c #F1DCAB",
"sX c #E9E4AA",
"dX c #E9EAB4",
"fX c #F1E2B5",
"gX c #FFF3B8",
"hX c #8E98CD",
"jX c #9BA6CB",
"kX c #9AAADA",
"lX c #A7AECC",
"zX c #A8B7D7",
"xX c #A4AFD2",
"cX c #9BADE2",
"vX c #A8D0D5",
"bX c #85D7FC",
"nX c #95D4EF",
"mX c #D2D2CF",
"MX c #D9E0CB",
"NX c #FCFEFF",
"BX c #EAF4F7",
/* pixels */
" X X X X X X X X X X X X X X X X X X X X X X X X X X X X X X X X X X X X X X X X X X X X X X X X X X X X X X X",
" X X X X X X X X X X X X X X X X X X X X X X X X X X{.{.{. X{. X X X X X X X X X X X X X X X X X X X X X X X X",
" X X X X X X X X X X X X X X X X X X X X X X X X X X&X&X#X#X@X X X X X X X X X X X X X X X X X X X X X X X X X",
" X X X X X X X X$X X X X X X X X X X X X X X X X%X}.>.,.,.<.K.$XXXOX X X X X X X X X X X X X X X X X X X X X X",
" X X X X X X X X X X X X X X X X X X X X X XOX=X>.| t.5.m 4.j J.%X X X X.XOX X X X X X X X X X X X X X X X X X",
" X X X X X X X X X X X X X X X X X X X X X X-X=.h j 6.z.8.j j j 2.=XXX XXXXX X X X X X X X X X X X X X X X X X",
" X X X X X X X X X X X X X X X X X X X X X&X:.s e.c.e.j 5.j z.z.d E.>X{.OXOX XXX X X X X X X X X X X X X X X X",
" X X X X X X X X X X X X X X X.X X X X X X[.} t.l.j A f 4.e.5.z.l.:.oXOXOXnX.XbX%X%X X X X X X X X X X X X X X",
" X.X X X X X X X X X X X X X X X X X X X&X*.4.s.j q.C 9.6.7.v.q.t.5.H.*X}.=XvX_.B.'..X X X X X X X X X X X X X",
" X X X X X X X X X X X X X X X X X X X@X/.w.t.C s.4.8.l.qXs.9.c.e.; B.;X#X-XL.<XB C.&X X X X X X X X X X X X X",
" X X X X X X X X X X X X X X X X X X X@XH.d f z.r.s 6.r.l rX0.m q.O u G F G 4X2XX Q.&X X X X X X X X X X X X X",
" X X X X X X X X X X X X X X X X X X XXX-XR 5.t.a $ 4.r.; , q < x @ X O._ p 2X# / %X X X X X X X X X X X X X X",
" X X X X X X X X X X X X X X X X X X X{.:XN.h d k 4Xc s.z.U U.f < e 2 + 3X,.o ) %X X X X X X X X X X X X X X X",
" X X X X X X X.X X X X X X X X X X X X X>XJ.O > 5.MX1XaXgX0XyX5.I o.1.  %.,X0 [.=X X X X X X X X X X X X X X X",
" X X X X X X X X X X X X X X X X X X X|.nX^.y O V b.rXqXiXtXz.A B 2 x.0.  %.w.Y ].$X X X X X X X X.X X X X X X",
" X X X X X X X X X.X X X X X X X X X X X$X].N O I 8.n.0Xv.n.z %.` n s.c.o.. V : V.&X X X X X X X X X X X X X X",
" X X X X X X X X X X X X X X X X X X.X+X:.@.S @ #.: 7.rX0Xv %.M.+ Z M 8.k.1 B.B.].$X{.$X X X X X X X$X X X X X",
" X X X X X X X X X X X X X X X X X=XvXf.0XiXp.: % K { h a U ! # + @.sX0Xp.X.:X:X$X$X XoX X X X X X X X X X X X",
" X X X X X X X X X X X X X X X XXXvXk.dXsXiXuX3XuXb 6  .B 0 b sXd.f.dXsXtXg.+X=X=X X X X X X X X X X X X X X X",
" X X X X X X X X X X X X X X X X$X` 3XeXk.V S e f.i.o V k 6 ,Xg.g S X.9XeXj.;.nXnX|.$X X X X X X X X X X X X X",
" X X X X X X X X X X X X X X X{.#Xu 9Xf.NX8XuX_ 6 i uXw r yX7 5 B h.yXBXf.g.L *X|.{. X X X X X X X X X X X X X",
" X X X X X X X X X X X X X X X%XY.1.p.V =.3Xf.+ 7 p yXr N yX7 t r eXf...V p.3.T.%X|. X X X X X X X X X X X X X",
" X.X X X X X X X X X X X X X X&XF eXp.h @.+.o &.P.<X3.t = <X4X&.2X1XO.S n j.2XW :X{. X X X X X X X X X X X X X",
" X X X X X X X X X X X X X XXX%XG @.sXeXdXo.  J K i q L.S.q K K i   g.fXeXiXZ ^ >X{. X X X X X X X X X X X X X",
" X X X X X X X X X X X X X X X X}.u @ w 7 #   H S.H r N ` n R >.6 . % 2 w * Q  X X X X X X X X X X X X X X X X",
" X X X X X X X X X X X X X X X X@X( 6 D.y X o 9 H i p.r V p.2 H D     L $.D '.&X X X X X X X X X X X X X X X X",
" X X X X X X X X X X X X X X X X`.D.! K.t 2 N # t n 1.o.o.+.b q   N I H K.P F.'..X X X X X X X X X X X X X X X",
" X X X X X X X X X X X X X.X|.>XD.5XU.! 6 2 _ % L.#.I uXeXp &.P.  ` 3.D ~ ^.^.A.&X X X X X X X X X X X XOX X X",
" X X X X X X X X X X X X X XXX*XH.G.xXP.P p q w F.kXH , * P xX$.w   D F.P.lXZ.I.&X{. X X.X X X X X X X X.X X X",
" X X X X X X.X X X X X X XOXoX>XQ # R g.# .   #.~ K.8     H L.~ #.  X = ,XK o ^ &XXX X X X X X X X X X X X X X",
" X X X X X X X X X X X X X XOXOXT } 2Xw - =   ~ A.'   ' J o $.M.G.y     N 2Xn / &X{. X X X X X X X X X X X X X",
" X X X X X X X X X X X X XOX*X^ k i _ 1._ 3.  *.kXK   #.K   #.hXG.R   # f.p r E.@X X X X X X X X X X X X X X X",
" X X X X.X X X X X X X X X X&X^ O _ K 7 r O & G.kX#.. t 5   ,.jXG.F.t = p I , / >XXX X X X X X X X X X X X X X",
" X X X X X X X X X X X X X X&X^ 4 - H &.g.Z #.zXjX*.    .   K lXjXU.z a.U K 5 <.>X|. X X X X X X X X X X X X X",
" X X X X X X X X X X X X X{.&X( 4 7 -.- | 0.&.zX7X#.o o . o X 7XzX^.g.z.v y * ( *XXX X X X X X X X X X X X X X",
" X X X X X X X X X X X X X{.&X/ . $ $ q +.. ,XmXcX#.O O @ o - jXxXzX%.< x.V 9 [.OX X X X X X X X X X X X X X X",
".X X X X X X X X X X X X X X X}.`.'.!.5 2   O 8XMXd.. $ O #   _ pXpXB   c.e.Q &XOX X X X X X X X X X X X X X X",
" X X X X X X X X X X X X X X X=X=X$X%X.XC.% X v f X ; ; ; O ; , x 3 z t O.E OX X X X X X X X X X X X X X X X X",
" X X X X X X X X X X X X X X X X X X X X;X) f a.q.V > $ , f 5.5.j i.NXbX( oX X X X X X X X X X X X$X X X X X X",
" X X X X X X X X X X X X X X X X X X{. X].9 a l 3 q.; # O  .9.t.> m.bX=X#X$X X X X X X X X X X X X X X X X X X",
" X X X X X X X X X X X X X X X X X X{.:XB., k l Z 2   o   + f k 3 & /.$XoX X X X X X X X X X X X X X X X X X X",
" X X X X X X X X X X X X X X X X X X@X/.Y b X , r u   . o   O c e e & ].%X X X X X X X X X X X XOX X X X X X X",
" X X X X X.X X X X X X X X X X X X{.#X!.1 .._ ` [ R       Y @ * o _ , C.%X X X X X X X X X X X X X X X X X X X",
" X X X X X X X X X X X X X X X X X X XV.i i   R <.:.  o   ] R.Y 8 { R.8 /.%X X X X X X X X X X X X X X X X X X",
" X X X X X X X X X X X X X X X X X.X'.J ` w   i.6X:.  o   i E.6X..& R./ '.$X X X X X X X X X X X X X X X X X X",
" X X X X X X X X X X X.X X X X X X{.&X(.  o   [ i.1   0 9   % 2.[     `.%XXX X X X X X.X X X X X X X X X X X X",
" X X X X X X X X X X X X X X X X X X%XQ.+ Y b w % 2 8 }.Q   X 3 .   r [ [..X X X X X X X X X X X X X X X X X X",
" X X X X X X X X X X X X X X X X X X%X!.  ` 3.i }   T :X/.5 O g.c e y.< ).%X X X X X X X X X X X X X X X X X X",
" X X X X X X X X X X X X X.X X X X$X].c w.r O A u.. L @X@XG   @ i b * X [.$X{.$X X X X X X X X X X X X X X X X",
" X X X X X X X X X X X X X X X X X@X].g B   . $ | . T ;X#X/.% 1 [ ..Y 1 T.:X{.{. X X X X X X X X X X X X X X X",
" X.X X X X X X X X X X X X X X X X XC.* & u - . .   F !.Q.8   & w ..R.6XY Q.$X X X X X X X X X X X X X X X X X",
" X X X X X X X X X X X X X X X X X XY ,.6XE.u %               o - q ..i.r 9 %X{. X X X X X X X X X X X X X X X",
" X X X X X X X X X X X X X X X X$X}.Y ,.6XR.8                     F B.N.V.Y.$X$X X X$X X X X X{. X X X X X X X",
" X X.X X X X X X X X X X X X X X{.$XY.1 % 1 X     5 ~.Q.Q.Q.Q.Q.Y.].:X&X#X#X$X{. X X X X X X X$X X X X X X X$X",
" X X X X X X X X X X X X X X X X$X$X$X(.(.(./.).(.].&X&X&X%X%X%X:X@X{.{.{.{.{. X X X X X X X$X{. X X X X X X X"
};
