/* XPM */
static char *player33[] = {
/* columns rows colors chars-per-pixel */
"55 55 232 2 ",
"   c #010101",
".  c #0B0403",
"X  c #02040A",
"o  c #05090A",
"O  c #0B0C0C",
"+  c #090906",
"@  c #1A0200",
"#  c #1B0903",
"$  c #120E0B",
"%  c #160607",
"&  c #0D130E",
"*  c #090917",
"=  c #130C1A",
"-  c #0C181D",
";  c #0B1518",
":  c #121214",
">  c #15181A",
",  c #15150A",
"<  c #230A01",
"1  c #271506",
"2  c #381A0A",
"3  c #271915",
"4  c #391D15",
"5  c #3E0800",
"6  c #1C201B",
"7  c #352106",
"8  c #2A221B",
"9  c #090D23",
"0  c #0D1822",
"q  c #141825",
"w  c #181B31",
"e  c #211823",
"r  c #182427",
"t  c #192D38",
"y  c #162635",
"u  c #1C313C",
"i  c #272B29",
"p  c #27322B",
"a  c #3A312C",
"s  c #24273A",
"d  c #2A3732",
"f  c #383736",
"g  c #372D28",
"h  c #481C02",
"j  c #511900",
"k  c #47250B",
"l  c #5B2C0D",
"z  c #562809",
"x  c #4C2817",
"c  c #592B13",
"v  c #5D361C",
"b  c #483916",
"n  c #68340F",
"m  c #6A3919",
"M  c #703A15",
"N  c #612F14",
"B  c #473427",
"V  c #543E31",
"C  c #753C28",
"Z  c #693024",
"A  c #36453E",
"S  c #58421D",
"D  c #76451A",
"F  c #714512",
"G  c #594928",
"H  c #49453A",
"J  c #5E5535",
"K  c #7C4B2A",
"L  c #78512C",
"P  c #624637",
"I  c #754B33",
"U  c #7C6E3C",
"Y  c #1D3C4E",
"T  c #1D3645",
"R  c #1E3E55",
"E  c #29324A",
"W  c #253A4B",
"Q  c #27355C",
"!  c #313D5D",
"~  c #363754",
"^  c #2A3962",
"/  c #333A64",
"(  c #323C70",
")  c #4D3D40",
"_  c #1E4055",
"`  c #3A4444",
"'  c #244356",
"]  c #244459",
"[  c #3B4A5D",
"{  c #244A62",
"}  c #394467",
"|  c #2B536A",
" . c #354571",
".. c #2C5B74",
"X. c #2F556F",
"o. c #2F617E",
"O. c #3F6177",
"+. c #434647",
"@. c #575249",
"#. c #6D5549",
"$. c #556258",
"%. c #6A6844",
"&. c #6D6553",
"*. c #7A7557",
"=. c #786553",
"-. c #434668",
";. c #4A5A7A",
":. c #4E576B",
">. c #586767",
",. c #54687B",
"<. c #426060",
"1. c #7A7B6A",
"2. c #63697C",
"3. c #68736C",
"4. c #88561D",
"5. c #814C29",
"6. c #85552C",
"7. c #895837",
"8. c #8F5233",
"9. c #996738",
"0. c #93622F",
"q. c #A06F38",
"w. c #8C5F45",
"e. c #A65D45",
"r. c #976647",
"t. c #836B55",
"y. c #8E734F",
"u. c #A46F4D",
"i. c #A5734A",
"p. c #AF7957",
"a. c #A27162",
"s. c #938954",
"d. c #BC885A",
"f. c #B09558",
"g. c #868264",
"h. c #958966",
"j. c #938C75",
"k. c #BC957B",
"l. c #AE956B",
"z. c #98A578",
"x. c #ACA46C",
"c. c #B7AC75",
"v. c #C7965C",
"b. c #D1A35A",
"n. c #C89866",
"m. c #CB9D7A",
"M. c #D5AA70",
"N. c #C9A260",
"B. c #EAB673",
"V. c #C5C47E",
"C. c #255581",
"Z. c #2B6489",
"A. c #356C8B",
"S. c #356886",
"D. c #3B799C",
"F. c #387BA6",
"G. c #4F5980",
"H. c #556C84",
"J. c #656F8F",
"K. c #457FA1",
"L. c #777EA9",
"P. c #3E84AE",
"I. c #798781",
"U. c #4185AD",
"Y. c #4487AA",
"T. c #418DB9",
"R. c #448AB4",
"E. c #4992BC",
"W. c #4590BA",
"Q. c #5F98BA",
"!. c #5C8FAD",
"~. c #649BBA",
"^. c #7593B0",
"/. c #4D9CCA",
"(. c #4595C4",
"). c #589EC6",
"_. c #55A0C9",
"`. c #54A9DA",
"'. c #4FA9DD",
"]. c #6AAAD2",
"[. c #5AB6ED",
"{. c #5BB8EE",
"}. c #58B2E4",
"|. c #55B9F4",
" X c #5CBCF4",
".X c #5CBFF9",
"XX c #53B8F4",
"oX c #55AEE1",
"OX c #62BDF2",
"+X c #68BFF1",
"@X c #66BBEC",
"#X c #5EC2FC",
"$X c #5EC8FF",
"%X c #6DC1EF",
"&X c #63C1F5",
"*X c #61C5FE",
"=X c #6BC6F9",
"-X c #63CBFF",
";X c #6ACDFF",
":X c #69C2F5",
">X c #76C9F7",
",X c #67D1FF",
"<X c #68D4FF",
"1X c #77D5FF",
"2X c #71E2FF",
"3X c #878E8D",
"4X c #A49B85",
"5X c #9EAA98",
"6X c #BEB386",
"7X c #B0A299",
"8X c #B6A88B",
"9X c #8A8EB0",
"0X c #A9B5BC",
"qX c #D7B585",
"wX c #E5B481",
"eX c #D3C897",
"rX c #F8D093",
"tX c #DCD2A4",
"yX c #D7D1B5",
"uX c #ECD4A2",
"iX c #F5F0B4",
"pX c #96BAC7",
"aX c #97D2EB",
"sX c #82D6FD",
"dX c #8BCEF0",
"fX c #AFE5FA",
"gX c #D8DFC7",
"hX c #DAEFDA",
"jX c #FCF5C7",
"kX c #FFFFDB",
"lX c #E9EDD1",
"zX c #E8F5E7",
/* pixels */
" X X X X X X X X X X X X X X X X X X X X{.{.#X X X X X X X X X X X X X X X X X X X X X X X X X X X X X X X X X",
" X X X X X X X X X X X X X X X X X X X X#X|.{.{. X X X X X X X X X X X X X X X X X X X X X X X X X X X X X X X",
" X X X X X X X X.X X X X.X X X X X X X XXXXX#X$X|.{.#X X X X X X X X X X X X X X X.X X X X X X X X X X X X X X",
" X X X X X X X X X X X X X X X X X X X X#XfX^.,.>X#XXX{. X X{.#X.X X X X X X X X X X X X.X X X X X X X X X X X",
" X.X X X X X X X X X X X X X X X X X|.*X~.r.7.p.t.I.fX:X:X X X X X X X X X X X X X X X X X X X X X X X X X X X",
" X X X X X X X X X X X X X X X X X|.OXpXt.p.5.i.m n.m.a Q.$X{. X X X X X X X X X X X X X X X X X X X X X X.X X",
" X X X X X X X X X X X X X X X XOX.XdXk.l 8.d.D 0.9.8.5 H.#X{. X X X X X X X X X X X X X X X X X X X X X X X X",
" X X X X X X X X X X X X XOXOX X*XpXqX7.4.u.n.q.wXd.m 7.l ).$X X X X X X X X X X X X X X X X X X X X X X X X X",
" X X X X X X X X X X X X XOX+X#XE.l.0.i.eXM.B.rXv.F 5.d.v ;. X.X X X X X X X X X X X X X X X X X X X X X X X X",
" X X X X X X X X X X X X X X=X~.i.v.6.M.9.m.q.6.6.7.C p.c @ }.#X X X X X X X X X X X X X X X X X X X X X.XOX X",
" X X X X X X X X X X X.X X X;X>.b.9.m wXC 6.v.n.rXM.n d.7.# [  X X X X X X X X X X X X X X X X X.X X X X X X X",
" X X X X X X X X X X X X X X+X[.3.n j 7.8Xz M q.M.K l l S x ^.*X[. X X X X X X X X X X X X X X X X X X X X X X",
" X X X X X.X X X X X X X X X X=X{.$.G 4 4 = x c I L % B c k ).'.*X X X X X X.X X X X X X X X X X X X X X X X X",
" X X X X X X X X X X X X X&X|.aXdX#X(.G h.J.=.z m t.  % 2 k # ` /.OX X X X X X X X X X X X X X X X X X X X X X",
" X X X X X X X X X X X X X X X X X.X@Xl.gXgXl.u.N $ X . 7 2 3 &.S.1X:X X X X X X X X X X X X X X X X X X X X X",
" X X X X X X X X X X X X X X X X X X+XzXjXjXrXI <   8 g.s.v @.t -X X X X X X X X X X X X X X#X X X X X X X X X",
" X X X X X X X X X X X X X X X X X.X|.OXhXiXm.3   > qXgXtXc.@.Q. X X X X X X X X X X X X X X X X X X X X X X X",
" X X.X X X X X X X X X X X X X X X X X#XY.b 4 ,.8 7XkXiXtXeXh.{  X X X X X X X X X X X X X X X X X X X X X X X",
" X X X X X X X X X X X X X X X X X X X X#X{ . ; p z.=.iXjXtX6Xt $X X X X X X X X X X X X X X X X X X X X X X X",
" X X X X X X X X X X X X X X X X X X X[.,X..f +.G lX3X&.kXtXx.t &X X X X X X X X X X X X X X X X X#X X X X X X",
" X X X X X X X X X X X X X XXX X X X{. X*Xo.  yXx.z.<.*.kXtXc.u -X{. X{. X X X X X X X X X X X X X X X X X X X",
" X X X X X X X X X X X X|.>XaXXX#XOX$XOX1X..U V.lXM.%.J f.s.*.: P.#X{.#X X X X X X X X.X X X X X X X X X X X X",
" X X X X X X X X X X X X|.%XdX].3Xj.| -X).* &.f H 6XiXeXx.x.j.  _ *X X X X X X X X X X X X X X X X X X X X X X",
" X X X X X X X X.X X X X X*XF.#.M.d.& t 0     o ~ $.*.g.s.H p   ' *X X X X X X X X X X X X X X X X X X X X X X",
" X X X.X X X X X X X X X X-XA.L B.B } 3 b X   -.J.:.W q .   * q _ *X X X X X X X X X X X X X X X X X X X X X X",
" X X X X X X X X X X X X X-XZ.L b.3 / @.z.a $.;.G.^  .w   9 ! s R -X X X X X X X X X X X X X X X X X X X X X X",
" X X X X X X X X X X X X X=XQ.a S e -.+.t.%.1.(  .Q s > * ~ ( s _ *X{. X X X X X X X X X X X X X X X X X X X X",
" X X X X X X X X X X X X|.%XsXT.X.q 3 + , i +.^ ^ w     > s w = R *X X X X X X X X X X X X X X X X X X X X X X",
" X X X X X X X X X X X X X X[.#X-XY.D...  = = > 9 X .           { -X X X X X X X X X X X X X X X X X X X X X X",
" X.X X X X X X X X X X X X X X X{.*X-X{.).' =.a X `   q E E E y X D.*X X X X X X X X X X X X X X X X X X X X X",
" X X X X X X X X X X X X X X X X X X#X&X2XX.t.a $ 3.- ! / ! ~ } = { $X X X X X#X X X X X X X X X#X X X X X X X",
" X X X X X X X X X X X X X X X X X=X_.E._.|     % s ! ^ ^ ^ Q ! E   D.*X{. X X X X X X X X X X X X X X X X X X",
" X X X X X X X X X X X X X X XOX X!.x c 1 . X X   * } G.( ^ ^ ^ / : K.-X[. X X X X X X X X X X X X X X X X X X",
" X X X X X X X X X X X X X X X X.XV 5.u.m 2 .     * ;.9X-.E / ^ / q T }. X X X X X X X X X X X X X X X X X X X",
" X X X X X X X X X X.X X X X X X.X1.i.u.N j 2 +   = } H.J.,.( Q -.~   E.*X X X X X X X X X X X X X X X X X X X",
" X X X X X X X X X X X X X X X XOXj.5.M N c k %   * q G.9XL.,.Q 0X1.  E.*X X X X X X X X X X X X X X X X X X X",
" X X X X.X X X X X X X X X X X X@XH l C a.P @ . X X   3.0X9X9X5X4X*   T.*X X X X X X X X X X X X X X#X X X X X",
" X X X X X X X X X X X X X X X*X'     3 #.# .           g.tXyX7XO 1 # T.*X{. X X X X X X X X X X X X X X X X X",
" X X X X X X X X X X X X#X X X*XY 6 p 6       T ' ' t   % 2 j j k z @ T.*X X X X X X X X X X X X X X X X X X X",
" X X X X X X X X X X X X X X{.*X_ ` <.>.p X   /.-X<XY.  7 x m 6.K Z @ T.*X X X X X X X.X X X X X X X X X X X X",
" X X X X X X X X X X X X X X{.*XY 6 - i i &   E. X*XD.  $ 2 M p.w.c % W.*X X X X X X X X X X X X X X X X X X X",
" X X X X X X X X X X X X X X X-X_   X         E.*X X[.'   2 l u.0.m # P.*X{. X X X X X X X X X X X X X X X X X",
" X X X X X X X X X X X X X X{.*X]     r A     /.*X[.-XA.. % 2 5.8.m 1 P.*X X X X X X X X X X.X X X X X X X X X",
" X X X X X X#X X X X X X X X X X{.y . p f     K..X X[.$XR   % K r.m # (.*X{. X X X X X X X X X X X X X X X X X",
" X X X X X X X X X X X X X X X#X,Xy           + `.&X X$XA.X . B P 1   S.*X#X X X X X X X X X X X X X X X X X X",
" X X X X X X X X X X X X X X#XW.A.-   &   X   X '.#X X X1XA..     - >   o. X X X X X X X X X X X X X X X X X X",
" X X X X X X X X X X X X X{.-X..  I.3XO     { D.}. X X X X#X0   o - 0 & ; {.#X X X X X X X X X X X X X X X X X",
" X X X X X X X X X X X X X{.-X..  A A   T E.}.-X X X X X.X[.r f   i d 6 0 {. X X X X X X X X X X X X X X X#X X",
" X X X X X X X X X X X X X X XoX/.(.W./.'.*X X{. X#X{. X#X{.0 3 & + @.8 . ' &X{. X X X X X X X X X X X X X X X",
" X X X X X X#X X X X X X X X X X#X-X,X-X-X*X*X*X{.{.{.{.{.[.] r   a a +   y #X{. X X X X X X X X X X X X X X X",
" X X X X X X X X X X X X X X X X*XE.P.P.P.U.U.Y.#X-X-X*X-X-XT.Z.          y #X X X X X X X X X X X X X X X X X",
" X X X X X X X X X X X X X X X#XR.;             o.A.A.A.A.A.p 6 p d :   & y #X X X X X X X X X X X X X X X X X",
" X X X X X X X X X X X X X X{.-X_                           ` 3.<.` r o & t -X{.#X X X X X X X X X X X X X{. X",
" X X X X X X X X X X X X X X X#X/.P.Y.E.|   X         o o o - d p ; > O     S.*X{. X X X X X X{. X X X X X#X X",
" X X X X X X X X X X X X X X X X#X-X*X-X{././././././.`.Y   O     O o       Y *X{. X X{. X#X|.#X X X X X X X X"
};
