/* XPM */
static char *player34[] = {
/* columns rows colors chars-per-pixel */
"55 55 228 2 ",
"   c #010201",
".  c #0A0302",
"X  c #0A0A04",
"o  c #02030B",
"O  c #0B0B0B",
"+  c #070808",
"@  c #130302",
"#  c #170806",
"$  c #0E1608",
"%  c #181309",
"&  c #090A15",
"*  c #110916",
"=  c #0C1418",
"-  c #0B1315",
";  c #121513",
":  c #1A1A14",
">  c #121C1D",
",  c #181717",
"<  c #230D03",
"1  c #280E07",
"2  c #281408",
"3  c #311709",
"4  c #2A1C16",
"5  c #331A13",
"6  c #3C0B00",
"7  c #19221F",
"8  c #3A2404",
"9  c #27241B",
"0  c #362316",
"q  c #0A0721",
"w  c #0D1624",
"e  c #141A27",
"r  c #1A1E37",
"t  c #180E22",
"y  c #201D38",
"u  c #16222B",
"i  c #162B3B",
"p  c #152636",
"a  c #1C323B",
"s  c #262625",
"d  c #3B2C25",
"f  c #3A3621",
"g  c #262838",
"h  c #2D3535",
"j  c #343833",
"k  c #373A38",
"l  c #322736",
"z  c #520D00",
"x  c #481706",
"c  c #4A1E15",
"v  c #4C1200",
"b  c #4B230B",
"n  c #45240B",
"m  c #56280A",
"M  c #432212",
"N  c #472618",
"B  c #522F16",
"V  c #6B3411",
"C  c #663616",
"Z  c #793B16",
"A  c #612A04",
"S  c #5A3722",
"D  c #463B36",
"F  c #4A3029",
"G  c #6A3A26",
"H  c #35403A",
"J  c #5D4919",
"K  c #794218",
"L  c #4A443B",
"P  c #574A39",
"I  c #535437",
"U  c #784527",
"Y  c #795739",
"T  c #6E502B",
"R  c #726A24",
"E  c #1A3443",
"W  c #1D3C4C",
"Q  c #17234A",
"!  c #272B46",
"~  c #213A4C",
"^  c #293447",
"/  c #373A4B",
"(  c #263453",
")  c #32345A",
"_  c #2E3C66",
"`  c #323767",
"'  c #333D77",
"]  c #4A3B47",
"[  c #1E4152",
"{  c #21455A",
"}  c #264556",
"|  c #38454D",
" . c #1D4160",
".. c #244B65",
"X. c #36476A",
"o. c #29566D",
"O. c #2E5E7A",
"+. c #2A5773",
"@. c #325E77",
"#. c #354A6A",
"$. c #30617E",
"%. c #534C44",
"&. c #475655",
"*. c #58585A",
"=. c #504B4B",
"-. c #665747",
";. c #695E50",
":. c #6B6941",
">. c #746249",
",. c #6B6B5B",
"<. c #7A7452",
"1. c #48516B",
"2. c #4D5979",
"3. c #4A4F70",
"4. c #546C78",
"5. c #4E6870",
"6. c #777A68",
"7. c #716666",
"8. c #803F13",
"9. c #894D28",
"0. c #845228",
"q. c #8B5D3A",
"w. c #97643A",
"e. c #8B6030",
"r. c #A26739",
"t. c #AC7E3F",
"y. c #825B50",
"u. c #9A6648",
"i. c #8C7354",
"p. c #A76E47",
"a. c #A1785B",
"s. c #AB744C",
"d. c #817467",
"f. c #90894D",
"g. c #B6855A",
"h. c #B18750",
"j. c #9A8667",
"k. c #958974",
"l. c #929168",
"z. c #BA9E7A",
"x. c #A5967A",
"c. c #B0A972",
"v. c #C38D57",
"b. c #C58B67",
"n. c #CA9A6A",
"m. c #D9A875",
"M. c #CFA263",
"N. c #356C8C",
"B. c #386D91",
"V. c #387495",
"C. c #397599",
"Z. c #2F688D",
"A. c #3C7CA0",
"S. c #535C86",
"D. c #4F5981",
"F. c #576687",
"G. c #4C7795",
"H. c #4E7283",
"J. c #70718F",
"K. c #417EA4",
"L. c #737EA3",
"P. c #826D83",
"I. c #3E83AB",
"U. c #3E86B1",
"Y. c #72809E",
"T. c #4085AB",
"R. c #448BB4",
"E. c #4587B1",
"W. c #4591BD",
"Q. c #5793B9",
"!. c #7785AA",
"~. c #7889BD",
"^. c #7390AC",
"/. c #75A3B8",
"(. c #4D9CCA",
"). c #4B97C3",
"_. c #4D9BCB",
"`. c #51A4D5",
"'. c #57ACDE",
"]. c #4FA1D1",
"[. c #5AB6EC",
"{. c #5BB8EF",
"}. c #5BB4E5",
"|. c #57B9F3",
" X c #5CBCF4",
".X c #5BBEF8",
"XX c #5AAEE0",
"oX c #62BEF3",
"OX c #61BAE8",
"+X c #66ACD1",
"@X c #5EC0F7",
"#X c #5EC2FC",
"$X c #5ECAFF",
"%X c #62C5FD",
"&X c #63CBFF",
"*X c #6AC9FD",
"=X c #69C2F3",
"-X c #73CCFD",
";X c #7BC9F4",
":X c #66D3FF",
">X c #75D3FF",
",X c #79D6FF",
"<X c #989A93",
"1X c #99A78B",
"2X c #B5AA94",
"3X c #B0AB8B",
"4X c #9CA1A0",
"5X c #9EB3BE",
"6X c #C1BB92",
"7X c #E4B180",
"8X c #D2C998",
"9X c #C8C292",
"0X c #F9D699",
"qX c #F2C989",
"wX c #D9D6A5",
"eX c #D4CDAA",
"rX c #E4D9A5",
"tX c #ECE7BB",
"yX c #FBF6BD",
"uX c #EEE6B1",
"iX c #96D3F2",
"pX c #94D0E9",
"aX c #BFE5EF",
"sX c #FFFDCC",
"dX c #FFFDD6",
"fX c #EBEAD0",
"gX c #C9E1E7",
"hX c #FFFFEB",
/* pixels */
" X X X X X X X X X X.X X X X X X X X X X X X X X X X X X X X X X X X X X.X X X X X X X X X.X X X X X X X X X X",
" X X X X X X X X X XoX X X X X X X X.X X X X X X X X X X X X X X X X X X X X X X X X X X X X X X X X X X X X X",
" X X X X X X X X X X X X X X X X X X X X X X X X X X X X X X X X XoX X X X X X X X X X X X X X XoX X X X X X.X",
" X X X X X X X X X X X X X X X X X X X XoXoX X X X X X X X X X X X X X X X X X X X X X X X X X X X X X X X X X",
" X.X X X X X X X X X X X X X X X X X X X X X.X X.X|..X.X X.X.X X X X X X X X X X X X X X X X X X X X X X X X X",
" X X X X X X X X X X X X X X X X X X X{.iX<X-.2XP 7.iX[.oXoX X X X X X X X X X X X X X X X X X X X X X X X X X",
" X X X X X X X X X X X X X X X X X X-X/.i.b.9.r.8.b.a.c G.'.{. X X X X X X X X X X X X X X X X X X X X X X X X",
" X X X X X X X X X X X X X X X X X*XfXg.b U b.9.r.s.u.z G c `.oX X X X X X X X X X.X X X X X X X X X X X X X X",
" X X X X X X X X X.X X X X X X X|./.z.w.r.h.M.h.qX0Xh.q.a.k.oX X X X X X X X X X X X X X X X X X X X.X X X X X",
" X X X X X X X X XoX X X X X X X.X2XU V M.m.m.0Xg.q.K s.M ,.H..X X X X X X X X X X X X X X X X X X X X X X X X",
" X X X X X X X X X X X X X X X X.X1XA 9.v.Z K 0.q.u.G g.a.a.p.4.%X|. X X X X X X X X X X X X X X X X X X X X X",
" X X X X X X X X X X X X X X X XoXP V n.h.m.m.M.r.m.V p.w.S -.5X X X X X X X X X X X X X X X X.X X X X X X X X",
" X X.X X X X X X X X X.X X X X|.-X7.x Y a.J C T b.C B m V c +X&X X X X X X X X X X X X X X X X X X X X X X X X",
" X X X X X X X X X X X X X X X XiXoX*.x 0 $ F m U i.@ N m c T.U.%X X X X X X X X X XoX.X X X X X X X X X X XoX",
" X X X X X X X X X X X X X X X X|.#X_.P x.Y.7.m V y.    3 0 1 =.T.%X X.X X X X X X X X X X X X X X X X X X X X",
" X X X X X X X X X X X X X X X X X#X'.2XfXfXn.u.B @   # 8 8 # *.C.%X X X X X X X X X X X X X X X X X X X X X.X",
" X X X X X X X X X X X X X X X X X X@XaXdXsXqXU   7 k.l.c.T -.a &X|. X X X X X X X X X X X X X X X X X X X X X",
" X X X X X.X X X X X X X X X X X X X|.|.gXrXg.5 O 1XtXuX8Xz.%.Q.oX|. X X X X X X X X X X X X X X X X X X X X X",
" X X X X X X X X X X X X X X X X X X X$XT.0 < J.2XI 8XyXwX8X$ [ %X{. X X X X X X X X X X X X X X X X X X X X X",
" X X X X X X X X X X X X X X X X X X X|.*Xo.t w c.l.%.dXsXwXf u %X X X X X X X X X X X X X X X X X X X X X X X",
" XoX.X X X X X X X X X X X X.X XoX|. X[.*X+.h *.R k.%.sXtXwX6Xa %X X X X X X X X.XoX X X X X X X X X X X X X.X",
" X X X X X X X X X.X X X X X X=XoX XoX[.&XO.o wX9X>.<.hXtXrX-.p =X X X X X X X X X X X X X X X X X X X X X X X",
" X X X X X X X X X X X X X X X XoX%X#XoX>Xo.i.c.wXJ R f.i.I   i *XoX X X X X X X X X X X X X X.X X X.X X X X X",
" X X X X X X X X X X X X X X X=X|.} E *X/.o -.d wXrX8X9X9Xs r & @.>X|. X X X X X X X X X X X X X X X X X X X X",
" X X X X X X X X X X X X X|.*X4., d.: & :     o J.6.,.7.Y : ) p W &X|. X X X X X X X X X X X X X X X X X X X X",
" X X X X X X X X X X X X X X&X..>.j ] L s + - 1.F.#.^ =   w ` ! [ &X X X X X X X X X X X X.X X X X X X X X X X",
" X X X X X X.X X X X X X X{.*Xo.T 4 4 l.s ,./ 4.D.' !     ! ' r [ &X|. X X X X X X X X X X X X X X X X X X@X X",
" X X X X X X X X X X X X X{.&X+.2 % j $ k 6./ ^ p p =   w ) ' g W *X X X X X X X X X X X X X X X X X X X X X X",
" X X X X X X X X X X X X X X.X).V.> :     $ ) q     o o ; e e O { &X|. X X X X X X X X X X X X X X X X X X X X",
" X X X X X X X X X X X X X X X%X&X(.W.V.  + * O o q o     o o   ~ -XOX X X X X X X X X X X X X X X X X X X X X",
" X X X X X X X X X X X X X X X X[.%X%X X[.[ f.f o &.  u ) ( ) ! o B.&X X X X X X.X X X X XoX X X X.X X X X X X",
" X.X X X X X X X X X X X X X X X X|. X{.,XV.Y s s *.e ) ` _ _ X.p #.oX X X X X X X X X X X X X X X X X X X X X",
" X X X X X X X X X X X X X X X X X X X X|.#XZ.+ g ` ` ^ Q ( ( ( } = C.*X X X X X X X X X X X X X X X X X X X X",
" X X X X X X X.X X X X X X X X X X X X X%XpX>Xp   | X.S.D.D.D.S.2.* C.&X[.|. X X X X X X X X X X X X X X X X X",
" X X X X X X X X X X X X X X X X X X X|.=XpX>Xp . L 2.4XL.4XL.~.~.l B.$X#X%X X X X X X X X X X X X X X.X X X X",
" X X X X X X X X X X X X X X X X X X X X=X@XH.O X D D.L.L.L.L.L.F.. C.&XE } $X XoX|. X X X X X X X X X X X X X",
"oX X X X X X X X X X X X X.X X X X X X X[.&X*.@   L 4X2.^.Y.L.] 0   A....   { %XoX|. X X X X X X X X X X X X X",
" X X X X X X X X X X X X X X X X X X X X|.pXY 3 O   6.4X+.Y./ v m % +   > >   { #XoX X X X X X X X X X X X X X",
" X X.X X X X X X X X X XoX X X X X X|.[.$X5.v N O   D 2X3.Q 5 Z Z 2       7 =   #.[. X X X X X X X X X X X X X",
" X X X X X X X X X.X X X X X X X X X@X|.$X4.z b . o   %.*.* B t.u.5       e h >   R.%X X.X X X X X X X X X X@X",
" X X X X X X X X X X X X X X X X X X X[.$X4.z c X   o * < n G p.w.2 l 4   O | &.; R.$X|. X X X X X X X X X X X",
"@X X X X X X X X X X X X X X X X X X X$XQ.B v x . o   O 5 n Z p.q.@ -.N L O + *.s U.*X X X X X X X X X X X X X",
" X X X X X X X X X X X X X X X X X X[.$XG.v C b . o   + * 3 C Z C , # @ 0 %.  h s U.&X{. X X X X X X X X X X X",
" X X X X X X X X X X X X X X X X X X@X:XI.@ S b # o   +.*X[ 3 b c 1 5 % @ p e     R.$X|. X X X X X X X X X X X",
" X X X X X X X X X X X X X X X X X|.E.E.o.  5 0 2 ; E C.&X X} < 1 % 0 O 5.$X).E W (.%X X X X X X X X X X X@X X",
" X X X X X X X X X X X X X.X X X|.[.- .   ; # .   i :X%X X X@X[       ~  X X X%X%X X X X X X X X X X X X X X X",
" X X X X X X X X X X X X X X X%X&X&XC.;   j s   O T.oX X X X@X}.N.V.B.[.=X X X{.|. X X X X X X X X X X X X X X",
" X X X X X X X X X X X X X*XE.i E E ~   X : -   w @X X X X X|.;X&X&X&X XoX X X X X X X X X X X X X X X X X X X",
" X X X X X X X X X X.X X X%XV.  ; $ X   j H   + W.@X X X X X XoX|.{.{. X X X X X X X X X X X X X X X X X X X X",
" X X X X X X X X X X X X X%XI.u &.5.7   h H   + '.@X[.{.{.|.{.[.{.{.{.{.[. X|.[.{. X X X X X X X X X X X X X X",
" X.X X X X X X X X X X X X X X*XW j &.;       }  X&X&X&X&X&X&X&X&X&X&X&X&X&X:X&X&X%X X X X X X X X X X X X X X",
" X X X X X X X X X X X X X X X:XI.- X $       @.N.N.N.N.N.N.N.N.N.B.B.N.N.N.O.O.o.].%X{. X X X X X X X X X X X",
" X X X X X X X X X X X X{.$XW.} O.=                                       - $.O.+.`.%X X X X X X X X X X X X X",
" X X X X X X X X X X X X{.*XC.                    o o     o   u W.R.R.R.E.).:X&X&X@X X X X X X X X X X X X X X",
" X X.X X X X X X X X X X|. X@X..                W.].(.(.(.(.(.`.&X%X&X%X%X$X[.|. X X X X X X|. X X X X X X X X"
};
