/* XPM */
static char *player25[] = {
/* columns rows colors chars-per-pixel */
"55 55 237 2 ",
"   c #010101",
".  c #0A0402",
"X  c #050907",
"o  c #0E0A04",
"O  c #04040D",
"+  c #060A0C",
"@  c #0E0C0D",
"#  c #0A070D",
"$  c #130904",
"%  c #180F0A",
"&  c #091104",
"*  c #171507",
"=  c #0A0B11",
"-  c #070615",
";  c #0A121A",
":  c #0C1719",
">  c #151412",
",  c #1B1214",
"<  c #141912",
"1  c #13151A",
"2  c #131B1C",
"3  c #1B1C1C",
"4  c #1D0D1C",
"5  c #230C06",
"6  c #3F0E00",
"7  c #271409",
"8  c #341B09",
"9  c #3B160F",
"0  c #231D1C",
"q  c #271914",
"w  c #351F1C",
"e  c #1B221B",
"r  c #252001",
"t  c #342505",
"y  c #28261A",
"u  c #3A2814",
"i  c #393A1A",
"p  c #110F20",
"a  c #161727",
"s  c #0E152C",
"d  c #16252B",
"f  c #182A37",
"g  c #162B31",
"h  c #292727",
"j  c #382924",
"k  c #383427",
"l  c #2A2839",
"z  c #283532",
"x  c #353938",
"c  c #253529",
"v  c #461703",
"b  c #401F1C",
"n  c #5C1A0C",
"m  c #4B290D",
"M  c #552302",
"N  c #49251A",
"B  c #562918",
"V  c #42301F",
"C  c #57311E",
"Z  c #602D1E",
"A  c #6B3819",
"S  c #6F3A12",
"D  c #473927",
"F  c #4B3E3A",
"G  c #443736",
"H  c #523C2C",
"J  c #643C27",
"K  c #723E20",
"L  c #653A30",
"P  c #79421D",
"I  c #6A4315",
"U  c #464438",
"Y  c #58483A",
"T  c #504F35",
"R  c #6A452D",
"E  c #774827",
"W  c #6A4D33",
"Q  c #795336",
"!  c #655D3C",
"~  c #6C693A",
"^  c #19364B",
"/  c #1D3D50",
"(  c #2B3545",
")  c #353A49",
"_  c #263F53",
"`  c #343D58",
"'  c #2D2B4C",
"]  c #303969",
"[  c #1F4054",
"{  c #3B4748",
"}  c #214455",
"|  c #244458",
" . c #324759",
".. c #264962",
"X. c #384669",
"o. c #3A5B68",
"O. c #2C5A76",
"+. c #295775",
"@. c #315D76",
"#. c #29516A",
"$. c #31607A",
"%. c #464842",
"&. c #5A584B",
"*. c #4A4D5B",
"=. c #485657",
"-. c #595757",
";. c #4B524C",
":. c #655A48",
">. c #72554F",
",. c #596B57",
"<. c #786948",
"1. c #686D5A",
"2. c #6F6E53",
"3. c #455769",
"4. c #5A5C60",
"5. c #4B4E6F",
"6. c #566A6F",
"7. c #666762",
"8. c #736F60",
"9. c #696A79",
"0. c #677375",
"q. c #7D766B",
"w. c #844719",
"e. c #864824",
"r. c #89512C",
"t. c #885535",
"y. c #925932",
"u. c #905729",
"i. c #99673C",
"p. c #95602E",
"a. c #A46D3A",
"s. c #AE7538",
"d. c #955A42",
"f. c #8B5B45",
"g. c #866245",
"h. c #966547",
"j. c #8E6859",
"k. c #987B51",
"l. c #A37642",
"z. c #A67250",
"x. c #B57D54",
"c. c #AE7148",
"v. c #857866",
"b. c #7E815A",
"n. c #7A8169",
"m. c #98885B",
"M. c #8B8C55",
"N. c #B3824E",
"B. c #B58656",
"V. c #888969",
"C. c #9E996C",
"Z. c #928E6D",
"A. c #A69B75",
"S. c #B5936B",
"D. c #9AA078",
"F. c #B7AE6D",
"G. c #C29257",
"H. c #C28A63",
"J. c #CA996D",
"K. c #D09973",
"L. c #D0AB6B",
"P. c #E5B579",
"I. c #336E98",
"U. c #357396",
"Y. c #2E6689",
"T. c #3C73A1",
"R. c #505689",
"E. c #4F6184",
"W. c #576790",
"Q. c #777A98",
"!. c #6E6F8A",
"~. c #3C81A8",
"^. c #3F85B0",
"/. c #518499",
"(. c #738389",
"). c #5488A7",
"_. c #4A94BD",
"`. c #4790BA",
"'. c #4C8FB5",
"]. c #738EA8",
"[. c #4C9AC9",
"{. c #549DC6",
"}. c #489ED0",
"|. c #4DA0D1",
" X c #4FA8DC",
".X c #55A7D6",
"XX c #59A4C9",
"oX c #75ABC3",
"OX c #56AEE1",
"+X c #5AB6ED",
"@X c #5AB8EF",
"#X c #58B3E6",
"$X c #5CBCF4",
"%X c #5DBFF8",
"&X c #55B9F4",
"*X c #4DB2F0",
"=X c #60BDF3",
"-X c #5DC2FC",
";X c #5ECAFF",
":X c #64C2F5",
">X c #62C5FD",
",X c #63CAFF",
"<X c #6ACAFE",
"1X c #6AC4F8",
"2X c #6AD4FF",
"3X c #69D5FF",
"4X c #73CAF4",
"5X c #8B8B8E",
"6X c #A39994",
"7X c #AAAA86",
"8X c #A6AC94",
"9X c #AFBB90",
"0X c #B5B08C",
"qX c #8992A8",
"wX c #91A3A6",
"eX c #AAB2AD",
"rX c #C5BD89",
"tX c #D4BD8C",
"yX c #C3BDA3",
"uX c #CACB99",
"iX c #D8CC96",
"pX c #E4DEBB",
"aX c #EBEAB4",
"sX c #8794C4",
"dX c #8F97D9",
"fX c #91ADCD",
"gX c #A1ACDC",
"hX c #93C7D3",
"jX c #BEC7DC",
"kX c #8FD1EE",
"lX c #87D2F9",
"zX c #96D2EF",
"xX c #AAE6F8",
"cX c #FEFAC7",
"vX c #F4EDC9",
"bX c #C0CAEC",
"nX c #CECED8",
/* pixels */
"$X$X$X$X$X$X$X$X$X$X$X$X$X$X$X$X%X$X$X$X$X$X$X$X$X$X$X$X$X$X$X$X$X$X$X$X$X$X$X$X$X$X$X$X$X$X$X$X$X$X$X$X$X$X$X",
"$X$X$X$X$X$X$X$X$X$X$X$X$X$X$X$X$X$X$X$X$X$X$X$X$X$X$X$X$X$X$X$X$X$X$X$X$X$X$X$X$X$X$X$X$X$X$X$X$X$X$X$X$X$X$X",
"$X$X$X$X$X$X$X$X$X$X$X$X$X$X$X$X$X$X$X$X$X$X$X$X$X$X$X$X$X$X$X$X$X$X$X$X$X$X$X$X$X$X$X$X$X$X$X$X$X$X%X$X$X$X$X",
"$X$X$X$X$X$X$X$X$X$X$X$X$X$X$X$X$X$X$X$X$X$X$X&X-X-X-X-X&X$X$X$X$X$X$X$X$X$X$X$X$X$X$X$X$X$X$X$X$X$X$X$X$X$X$X",
"$X$X$X$X$X$X$X$X$X$X$X$X$X$X$X$X$X$X$X$X$X=X1XzX9.4.7.-.fX<X&X$X$X$X$X$X$X$X$X$X$X$X$X$X$X$X$X$X$X$X$X$X$X$X$X",
"$X$X$X$X$X$X$X$X$X$X$X$X$X$X$X$X$X$X$X$X$X<X6.W H.x.r.c.l.:..X-X$X$X$X$X$X$X$X$X$X$X$X$X$X$X$X$X$X$X$X$X$X$X$X",
"$X$X$X$X$X$X$X$X$X$X$X$X$X$X$X$X$X$X$X$X$XQ.B.E P a.y.u.a.J.Y .X$X=X$X$X$X$X$X$X$X$X$X%X$X$X$X$X$X$X$X$X$X$X$X",
"$X$X$X$X$X$X$X$X$X$X%X$X$X$X$X$X$X$X$X;X).s.B.r.t.N.l.t.l.g.M Y %X$X$X$X$X$X$X$X$X$X$X$X$X$X$X$X$X%X$X$X$X$X$X",
"$X$X$X$X$X$X$X$X$X$X$X$X$X$X$X$X$X$X:X#X0.w.i.J.P.h.l.y.K.Q P F ;X&X$X$X$X$X$X$X$X$X$X$X$X$X$X$X$X$X$X$X$X$X$X",
"$X$X$X$X%X$X$X$X$X$X$X$X$X$X$X$X$X$X>X_.Z h.L.i.G.N.G.d.S A a.j.).:X$X$X$X$X$X$X$X$X$X$X$X$X$X$X$X$X$X$X$X$X$X",
"$X$X$X$X$X$X$X$X$X$X$X$X$X$X$X$X$X$X$X-X5.z.l.6 f.L.w.K.K h.e.K | ,X@X@X$X$X$X$X$X$X-X@X$X$X$X$X$X$X$X$X$X$X$X",
"$X$X%X$X$X$X$X$X$X$X$X$X$X$X$X$X$X$X$X;X).v 8 R J S.v p.Q E H.v } ,X@X:X$X$X$X$X$X$X$X$X$X$X$X$X$X$X$X$X$X$X$X",
"$X$X$X$X$X$X$X$X$X$X$X$X$X$X$X$X$X$X$X&XkXn.* q G k.v M C m i.M [ ,X+X@X$X$X$X$X$X$X$X$X$X$X$X$X$X$X$X$X$X$X%X",
"$X$X$X$X$X$X$X$X$X$X$X$X$X$X$X$X$X$X$X+X3XO.m.Q.6Xm v t.H 5 A A ].;X@X-X-X$X$X$X$X$X$X$X$X$X$X$X$X$X$X$X$X$X$X",
"$X$X$X$X$X$X$X$X$X$X$X$X$X$X$X$X$X$X$X%X|.%.tXnXyXI n >.k   9 L 5XXX-X$X@X$X$X$X$X$X$X$X$X$X$X$X$X$X$X$X$X$X$X",
"$X$X$X$X$X$X$X$X$X$X$X$X$X%X$X$X$X$X@X>X}.D J.cXL.a.9 o   . 5 b u #.,X@X$X$X$X$X$X$X$X$X$X$X$X$X$X$X$X$X$X$X$X",
"$X$X$X$X$X$X$X$X$X$X$X%X$X$X$X$X$X$X$X$X-XhX<.J.S.b O -.6XM.q k u +.,X+X-X@X$X$X$X$X$X$X@X$X$X$X$X$X$X$X$X$X$X",
"$X$X$X$X$X$X$X$X$X$X$X$X$X$X$X$X$X$X$X$X*XxX7.8 7 a wXaXaXcXuX! f @X-X+X-X@X$X$X$X$X$X$X-X$X$X$X$X$X$X$X$X$X$X",
"$X$X$X$X$X$X%X$X$X$X$X$X$X$X$X$X$X$X$X1X].~ ;.0 . O V.F.0XcXaXC.| 3X@X$X@X:X@X$X$X$X$X$X$X$X$X$X$X$X$X$X$X$X$X",
"$X$X$X$X$X$X$X$X$X$X$X$X$X$X$X$X$X$X>XoX9XF.& *.q 1.m.7XeXiXcXF.s OX-X$X-X+X$X$X$X$X$X$X$X$X$X$X$X$X$X$X$X$X$X",
"$X$X$X$X$X$X$X$X$X$X$X$X$X$X$X$X$X$X%XhX0X%.  4 A.uXM.n.=.uXvX&.8 3. X$X$X$X$X$X-X@X$X$X$X$X$X$X$X$X$X$X$X$X$X",
"$X$X$X$X$X$X$X$X$X$X$X$X$X$X$X$X$X@X-XXX. %.T D.S.Y 2.* * <.C.! uX2.Y.,X$X$X$X$X$X$X$X$X$X$X$X$X$X$X$X$X$X$X$X",
"$X$X$X$X$X$X$X$X$X$X$X$X$X$X$X$X$X@X>X`.  x i k.Z.<   &.iXrXiXaXA.3.OX$X$X$X$X$X$X$X$X$X$X$X$X$X$X$X$X$X$X$X$X",
"%X$X$X$X$X$X$X$X$X$X$X$X$X$X$X$X$X$X$X=X@.  O l :.&.1.y rXpXyXk $ @.3X+X$X$X$X$X$X$X$X$X$X$X$X$X$X$X$X$X$X$X$X",
"$X$X$X$X$X$X$X$X$X$X$X$X$X$X$X$X@X-X@X,XU.G x O =.z 4.  > 3 *.1 ^ -X$X$X$X$X$X$X$X$X$X$X$X$X$X$X$X$X$X$X$X$X$X",
"$X$X$X$X$X$X$X$X$X$X$X$X$X$X$X$X-X@X@X,XU.' ' O Z.2.  O s ] ]. .^ #X$X$X$X$X$X$X$X$X$X$X$X$X$X$X$X$X$X$X$X$X$X",
"$X$X$X$X$X$X$X$X$X$X$X$X$X$X$X$X@X@X-X-Xo.& - O V.C.C.k p X.R.qX  @.,X@X$X$X$X$X$X$X$X$X$X$X$X$X$X$X$X$X$X$X$X",
"$X$X$X$X$X$X$X$X$X$X$X$X$X$X$X$X$X:X@X| . &   X 2.v.D.x ) W.qX!.  ;.4X$X$X$X$X$X$X$X$X$X$X$X$X$X$X$X$X-X$X$X$X",
"$X$X$X$X$X$X$X$X$X$X$X$X$X$X$X$X@X>X|.@ 1.U   + 8.&.- f h l X.(.X * ).,X$X$X$X$X$X$X%X$X$X$X$X$X$X$X$X$X$X$X$X",
"$X$X$X$X$X$X$X$X$X$X$X$X$X$X$X$X$X-X.X@ j 0   X   s R.] R.a . :.D.7 U.,X$X$X$X$X$X$X$X$X$X$X$X$X$X$X$X$X$X$X$X",
"$X$X$X$X$X$X$X$X$X$X$X$X$X$X$X$X@X>X[.F Z.O O O - 1 X.W.)   > D.T , U.,X@X$X$X$X$X$X$X$X$X$X$X$X$X$X$X$X$X$X$X",
"$X$X$X$X$X%X$X$X$X$X$X$X$X$X$X$X$X>X}.y A.Y   = -.p ] ] ( 0 q ) 9XD I.,X$X$X$X$X$X$X$X$X$X$X$X$X$X$X$X$X$X$X$X",
"$X$X$X$X$X$X$X$X$X$X$X$X$X$X$X$X$X$XOX| d     @ 7.> ` ^ # v.v.5.l @ U.<X@X$X$X$X$X$X$X$X$X$X$X$X$X$X$X$X$X$X$X",
"$X$X$X$X$X$X$X$X$X$X$X$X$X$X$X$X$X$X&X2XXXO.d O !.;  .] - F.0 ' W.@ U.,X@X$X$X$X$X$X$X$X$X$X$X$X$X$X$X$X$X$X$X",
"$X$X$X$X$X$X$X$X$X%X$X$X$X$X$X$X$X$X$X$X=X3X|   h a 5.].) t m.v.h o U.,X@X$X$X$X-X$X$X$X$X$X$X$X$X$X$X$X$X$X$X",
"$X$X$X$X$X$X$X$X$X$X$X$X$X$X$X$X$X$X$X$X&X>X}     a Q.gXdXa u g.t ..@X:X$X$X$X$X$X$X$X$X$X$X$X$X$X$X$X$X$X$X$X",
"$X$X$X$X$X$X$X$X$X$X$X$X$X$X$X$X$X$X$X$X@X,X[     l gXoXsXQ.9., ) 1X$X$X$X$X$X$X$X$X$X$X$X$X$X$X$X$X$X$X$X$X$X",
"$X$X$X$X$X$X$X$X$X$X$X%X$X$X$X$X$X$X$X$X$X,X}   . h jXbXeXeX8X,.6.xX*X-X$X$X$X$X$X$X$X$X$X$X$X$X$X$X$X$X$X$X$X",
"$X$X$X$X$X$X$X$X$X$X$X$X$X$X$X$X$X$X$X$X@X>X} 7 W H 5X8X7X8X> 3.4X@X$X$X$X$X$X$X$X$X$X$X$X$X$X$X$X-X$X$X$X$X$X",
"$X$X%X$X$X$X$X$X$X$X$X$X$X$X$X$X$X$X$X$X+X3X[ Q z.W 5 o .   ; 4XzX$X$X$X$X$X$X$X$X$X$X$X$X$X$X$X$X$X$X$X$X$X$X",
"$X$X$X$X$X$X$X$X$X$X$X$X$X$X$X$X$X$X$X$X-X~.G h.e.A J , O . @ /.4X:X&X$X$X$X$X$X$X$X$X$X$X$X$X$X$X$X$X$X$X$X$X",
"$X$X$X$X$X$X$X%X$X$X$X$X$X$X$X$X$X$X$X@X,X+.R N.y.Z $ . O . . =.>X=X$X$X$X$X$X$X$X$X$X$X$X$X$X$X$X$X$X$X$X$X$X",
"$X$X$X$X$X$X$X$X$X$X$X$X$X$X$X$X$X$X$X>X~.q t.h.e.N h G   y & . #.>X$X$X$X$X$X$X$X$X$X$X$X$X$X$X$X$X$X$X$X$X$X",
"$X$X$X$X$X$X$X$X$X$X$X$X$X$X$X$X$X$X@X<XU.5 R I n b < 0 X k @   | ,X@X$X$X$X$X$X$X$X$X$X$X$X$X$X$X$X$X$X$X$X$X",
"$X$X$X$X$X$X$X$X$X$X$X$X$X%X$X$X$X$X$X-X_.: q N y z 9.{ X y <   f .X-X$X$X$X$X$X$X$X$X$X$X$X$X$X$X$X$X$X$X$X$X",
"$X$X$X$X$X$X$X$X$X$X$X$X$X$X$X$X$X$X$X$X>X_.: . { { { d X * e e   O.,X@X$X$X$X$X$X$X$X$X$X$X$X$X$X$X$X$X$X$X$X",
"$X$X$X$X$X$X$X$X$X$X$X$X$X$X$X$X$X$X$X$X$X<X_.; = f < %.x { : +   O.,X@X$X$X$X$X$X$X$X$X$X$X$X$X$X$X$X$X$X$X$X",
"$X$X$X$X$X$X$X$X$X$X$X$X$X$X$X$X$X$X$X$X$X@X2X_.: 7.Y e =.x   : . O.,X@X$X$X$X$X$X$X$X$X$X$X-X$X$X$X$X$X$X$X$X",
"$X$X$X$X$X$X$X$X$X$X$X$X$X$X$X$X$X$X$X$X$X$X&X:X: u j.>.j F , y . O.,X@X$X$X$X$X$X$X$X$X$X$X$X$X$X$X$X$X$X$X$X",
"$X$X$X$X$X$X$X$X$X$X$X$X$X$X$X$X$X$X$X$X$X$X>X|.+ X 3 q . o . 3 . O.<X@X$X$X$X$X$X$X$X$X$X$X$X$X$X$X$X$X$X$X-X",
"%X$X$X$X$X$X$X$X$X$X$X$X$X$X$X$X$X$X$X$X@X-X|.a z z ,.c 2 X X   : `.-X@X$X$X$X$X$X$X$X$X$X$X$X$X$X$X$X$X$X$X$X",
"$X$X$X$X$X$X$X$X$X$X$X$X%X$X$X$X$X$X$X$X@X,X[   wX0.f e : = e   g |.-X$X$X$X$X$X$X$X$X$X$X$X$X$X$X$X$X$X$X$X$X",
"$X$X$X$X$X$X$X$X$X$X$X$X$X$X$X$X$X$X$X$X@X-X'.; @ , # @ X # @ X   @.,X@X$X$X$X$X$X$X$X$X$X$X$X$X$X$X$X$X$X$X$X",
"%X$X$X$X$X$X$X$X$X$X$X$X$X$X$X$X$X$X$X$X-X@X,X_.'.Y.> #       o f  X-X$X$X$X$X$X$X$X$X$X$X$X$X$X$X$X$X$X$X$X$X",
"$X$X$X$X$X$X$X$X$X$X$X$X$X$X$X$X$X$X$X$X$X$X@X-X3XXXX     .   d #X<X$X$X$X$X$X$X$X$X$X$X$X$X$X$X$X$X$X$X$X$X$X"
};
