/* XPM */
static char *player39[] = {
/* columns rows colors chars-per-pixel */
"55 55 230 2 ",
"   c #010101",
".  c #0B0201",
"X  c #0A0A04",
"o  c #03030B",
"O  c #090A0C",
"+  c #060808",
"@  c #130904",
"#  c #150708",
"$  c #0A120B",
"%  c #1A1606",
"&  c #020211",
"*  c #0C0D17",
"=  c #180D1A",
"-  c #0C1412",
";  c #0A1617",
":  c #131413",
">  c #1C1B12",
",  c #1A1C1C",
"<  c #141815",
"1  c #270B07",
"2  c #2C1309",
"3  c #20150C",
"4  c #221D1C",
"5  c #241816",
"6  c #3C1A10",
"7  c #3B1103",
"8  c #1B2016",
"9  c #1D200D",
"0  c #2B241C",
"q  c #282618",
"w  c #322B1C",
"e  c #3A251E",
"r  c #37200D",
"t  c #090923",
"y  c #0C1523",
"u  c #181B27",
"i  c #130E28",
"p  c #20162A",
"a  c #162427",
"s  c #152B36",
"d  c #182835",
"f  c #272827",
"g  c #332925",
"h  c #39342B",
"j  c #272A35",
"k  c #2D3437",
"l  c #373A3A",
"z  c #2E2F33",
"x  c #481901",
"c  c #491F1D",
"v  c #492007",
"b  c #552608",
"n  c #462818",
"m  c #552918",
"M  c #5A361B",
"N  c #653514",
"B  c #6B3416",
"V  c #773C18",
"C  c #652F0F",
"Z  c #593D28",
"A  c #423E39",
"S  c #593D37",
"D  c #4E3324",
"F  c #643D22",
"G  c #37443D",
"H  c #544A24",
"J  c #494334",
"K  c #584A3D",
"L  c #53522B",
"P  c #6C4429",
"I  c #7E4D29",
"U  c #7B5839",
"Y  c #6A5134",
"T  c #75633B",
"R  c #1D3F53",
"E  c #183648",
"W  c #252C46",
"Q  c #2B3745",
"!  c #2E3155",
"~  c #363C6A",
"^  c #2E3465",
"/  c #1F4154",
"(  c #384546",
")  c #22465A",
"_  c #3B4763",
"`  c #29546A",
"'  c #3B677C",
"]  c #464B44",
"[  c #4D4A46",
"{  c #514946",
"}  c #575549",
"|  c #474557",
" . c #445357",
".. c #54594C",
"X. c #695547",
"o. c #755648",
"O. c #675B50",
"+. c #5A604D",
"@. c #5B6259",
"#. c #4F6255",
"$. c #78764D",
"%. c #686955",
"&. c #726B54",
"*. c #717156",
"=. c #79664D",
"-. c #464A64",
";. c #575975",
":. c #495273",
">. c #635565",
",. c #596466",
"<. c #5B6D7A",
"1. c #517476",
"2. c #636467",
"3. c #626671",
"4. c #73726E",
"5. c #81471E",
"6. c #834728",
"7. c #86532A",
"8. c #875634",
"9. c #935A36",
"0. c #965928",
"q. c #98673B",
"w. c #A2683B",
"e. c #8A5D42",
"r. c #8C654C",
"t. c #9A6444",
"y. c #996646",
"u. c #837454",
"i. c #A7744B",
"p. c #B27C54",
"a. c #B67E57",
"s. c #B17445",
"d. c #927B65",
"f. c #827C63",
"g. c #A97F64",
"h. c #7E8059",
"j. c #AC8639",
"k. c #8F8950",
"l. c #B7825C",
"z. c #A69E5D",
"x. c #8D8F71",
"c. c #B68865",
"v. c #B2986E",
"b. c #A39360",
"n. c #9EA479",
"m. c #AEAE6F",
"M. c #C4955F",
"N. c #C99566",
"B. c #CE9972",
"V. c #D0A97B",
"C. c #395381",
"Z. c #366D8D",
"A. c #3C779D",
"S. c #3B769A",
"D. c #3D7EA9",
"F. c #535E83",
"G. c #497798",
"H. c #5C7189",
"J. c #757894",
"K. c #686A8E",
"L. c #507EA2",
"P. c #747AAB",
"I. c #3E81A9",
"U. c #3581B1",
"Y. c #68878B",
"T. c #738891",
"R. c #438AB6",
"E. c #5490B2",
"W. c #738EA7",
"Q. c #4A9BC9",
"!. c #5399C4",
"~. c #55AADA",
"^. c #56A6D5",
"/. c #4FA2D2",
"(. c #62ADCB",
"). c #5AB6EC",
"_. c #5AB5E8",
"`. c #56B9F3",
"'. c #5CBCF4",
"]. c #5BBEF8",
"[. c #54B9F5",
"{. c #5BAFEE",
"}. c #62BBED",
"|. c #6BBDE9",
" X c #62BEF2",
".X c #75BBE1",
"XX c #5EC1F5",
"oX c #5EC2FC",
"OX c #62C1F7",
"+X c #61C5FD",
"@X c #63CAFF",
"#X c #6BCCFD",
"$X c #6EC2F0",
"%X c #76CBF7",
"&X c #77D2FD",
"*X c #73CDF5",
"=X c #808286",
"-X c #929784",
";X c #AC9E94",
":X c #9CA28D",
">X c #ABA682",
",X c #B9B588",
"<X c #AAA494",
"1X c #BCB796",
"2X c #8992AA",
"3X c #9DB9B0",
"4X c #BABAA6",
"5X c #D1B592",
"6X c #EFBF8A",
"7X c #C2BEA5",
"8X c #CDC899",
"9X c #DBCF98",
"0X c #D8D1B0",
"qX c #E2DAA4",
"wX c #F4ECBA",
"eX c #FFFFBD",
"rX c #EFC592",
"tX c #919EC3",
"yX c #98A4CE",
"uX c #A6A8CF",
"iX c #94C1CF",
"pX c #83C7E9",
"aX c #90D2F9",
"sX c #C0CDC4",
"dX c #DCEFC5",
"fX c #FEFAC4",
"gX c #FFFECA",
"hX c #FFFFDD",
"jX c #E0EAC0",
"kX c #D7DFED",
/* pixels */
"'.'.'.'.'.'.'.'.'.'.'.'.'.'.'.'.'.'.'.'.'.'.'.'.'.'.'.'.'.'.'.'.'.'.'.'.'.'.'.'.'.'.'.'.'.'.'.'.'.'.'.'.'.'.'.",
"'.'.'.'.'.'.'.'.'.'.'.'.'.'.'.'.'.'.'.'.'.'.'.'.'.'.'.'.'.'.'.'.'.'.'.'.'.'.'.'.'.'.'.'.'.'.'.'.'.'.'.'.'.'.'.",
"'.'.'.'.'.'.'.'.'.'.'.'.'.'.'.'.'.'.'.'.'.'.'.'.'.'.'.'.'.'.'.'.'.'.'.'.'.'.'.'.'.'.'.'.'.'.'.'.'.'.'.'.'.'.'.",
"'.'.'.'.'.'.'.'.'.'.'.'.'.'.].'.'.'.'.'.'.'.'.'.'.'. X'. X'.'.'.'.'.'.'.'.'.'.'.'.'.'.'.'.'.'.'.'.'.'.'.'.'.'.",
"'.'.'.'.'.'.'.'.'.'.'.'.'.'.'.'.'.'.'.'.'.'.'.'.'. X'. X].'.'. X'.'.'.'.'.'.'.'.'.'.'.'.'.'.'.'.'.'.'.'.'.'.'.",
"'.'.'.'.'.'.'.'.'.'.'.'.'.'.'.'.'.'.'.'.'.'.'.'.'.]. X.X=X} X.X.T.|.'.'.'.'.'.'.'.'.'.'.'.'.'.'.'.'.'.'.'.'.'.",
"'.'.'.'.'.'.'.'.'.'.'.'.'.'.'.'.'.'.'.'.'.'.'.'.'.+XW.U a.s.0.N.p.N H.+X X'.'.'.'.'.'.'.'.'.'.'.'.'.'.'.'.'.'.",
"'.'.'.'.'.'.'.'.'.'.'.'.'.'.'.'.'.'.'.'.'.'.'.'. XT.8.B.6.8.t.t.b y.l.<X$X'.'.'.'.'.'.'.'.'.'.'.'.'.'.'.'.'.'.",
"'.'.'.'.'.'.'.'.'.'.'.'.'.'.'.'.'.'.'.'.'.'.'.].^.x B 9.l.6.l.i.q.7.N.U ^.oX'.'.'.'.'.'.'.'.'.'.'.'.'.'.'.'.'.",
"'.'.'.'.'.'.'.'.'.'.'.'.'.'.'.'.'.'.'.'.'.'.'.].pXF 8.9.c.7.i.q.6XM.0.I Y.'.'.'.'.'.'.'.'.'.'.'.'.'.'.'.'.'.'.",
"'.'.'.'.'.'.'.'.'.'.'.'.'.'.'.'.'.'.'.'.'.'.'.`.3.g.0.V C s.s.B.w.q.5X7.Z ).'.'.'.'.'.'.'.'.'.'.'.'.'.'.'.'.'.",
"'.'.'.'.'.'.'.'.'.'.'.'.'.'.'.'.'.'.'.'.'.'.'.).f F 9.9.t.M.5.5XB x a.P E.+X'.'.'.'.'.'.'.'.'.'.'.'.'.'.'.'.'.",
"'.'.'.'.'.'.'.'.'.'.'.'.'.'.'.'.'.'.'.'.'.'.'.'.* F l.B 9.N N c.m S 1 h _.oX'.'.'.'.'.'.'.'.'.'.'.'.'.'.'.'.'.",
"'.'.'.'.'.'.'.'.'.'.'.'.'.'.'.'.'.'.'.'.'.'.'.{.4 P 6.x m x b d.p g 2 E.+X'.'.'.'.'.'.'.'.'.'.'.'.'.'.'.'.'.'.",
"'.'.'.'.'.'.'.'.'.'.'.'.'.'.'.'.'.'.'.'.'.'.'.'.4.B M   t.5.x K tX;XU U.#X'.'.'.'.'.'.'.'.'.'.'.'.'.'.'.'.'.'.",
"'.'.'.'.'.'.'.'.'.].'.'.'.'.'.'.'.'.'.'.'.'.'.]..X6 1 & A B m q.qXjXv.2.|.'.'.'.'.'.'.'.'.'.'.'.'.'.'.'.'.'.'.",
"'.'.'.'.'.'.'.'.'.'.'.'.'.'.'.'.'.'.'.'.'.'.'.'.`.G.@     # c s.rXfXr.<.XX'.'.'.'.'.'.'.'.'.'.'.'.'.'.'.'.'.'.",
"'.'.'.'.'.'.'.'.'.'.'.'.'.'.'.'.'.'.'.'.'.'.'.`.pXJ J >X8Xl # n B.i.' OXXX'.'.'.'.'.'.'.'.'.'.'.'.'.'.'.'.'.'.",
"'.'.'.'.'.'.'.'.'.'.'.'.'.'.'.'.'.'.'.'.'.'.`.).} b.wXgXwXjXJ.o 2 7 Y.}.).XXXX'.'.'.'.'.'.'.'.'.'.'.'.'.'.'.'.",
"'.'.'.'.'.'.'.'.'.'.'.'.'.'.'.'.'.'.'.'.'.'.'.XXa 9XgXwXx.7XO.  * l Y u.E.XX'.'.'.'.'.'.'.'.'.'.'.'.'.'.'.'.'.",
"'.'.'.'.'.'.'.'.'.'.'.'.'.'.'.'.'.'.'.'.'.'.$XS.4 0XhXm.0Xd.z...j W % 0X:X}.'.'.'.'.'.'.'.'.'.'.'.'.'.'.'.'.'.",
"'.'.'.'.'.'.'.'.'.'.'.'.'.'.'.'.'.'.'.'.'.+XR.} w &.fXk.] *.z.8Xk.    ..:X X'.'.'.'.'.'.'.'.'.'.'.'.'.'.'.'.'.",
"'.'.'.'.'.'.'.'.'.'.'.'.'.'.'.'.'.'.'.'.).@XE <X1Xu.k.H q 0 } J ,Xk.&.f : }.].'.'.'.'.'.'.'.'.'.'.'.'.'.'.'.'.",
"'.'.'.'.'.'.'.'.'.'.'.'.'.'.'.'.'.'.'.'.'.].~.Q 1XqXqXqX9Xg   k >XK 0 : ; ).'.'.'.'.'.'.'.'.'.'.'.'.'.'.'.'.'.",
"'.'.'.'.'.'.'.'.'.'.'.'.'.'.'.'.'.'.'.'.'.).@XE . A 4X7Xk., -X_ %.i   o Q. X).'.'.'.'.'.'.'.'.'.'.'.'.'.'.'.'.",
"'.'.'.'.'.'.'.'.'.'.'.'.'.'.'.'.'.'.'.'.'.'.'.XXy l | * + + -.q ]   ,.j Q.+X'.'.'.'.'.'.'.'.'.].'.'.'.'.'.'.'.",
"'.'.'.'.'.'.'.'.'.'.'.'.'.'.'.'.'.'.'.'.'.'.oXU.y H.J.^ *   < m.*.  Q u ~.'.'.'.'.'.'.'.'.'.'.'.'.'.'.'.'.'.'.",
"'.'.'.'.'.'.'.'.'.'.'.'.'.'.'.'.'.'.'.'.'.'.aXa i tX_ ~ * *.,Xx.{   . > Z.+X'.'.'.'.'.'.'.'.'.'.'.'.'.'.'. X].",
"'.].'.'.'.'.'.'.'.'.'.'.'.'.'.'.'.'.'.'. X[.iXw O P.P.K.j | *.:X%.  o - o ` ].'.'.'.'.'.'.'.'.'.'.'.'.'.'.'.'.",
"'.'.'.'.'.'.'.'.'.'.'.'.'.'.'.'.'.'.'.'.`.aX@.  j =Xu d j i u } h     4.-.a +X'.'.'.'.'.'.'.'.'.'.'.'.'.'.'.'.",
"'.'.'.'.'.'.'.'.'.'.'.'.'.'.'.'.'.'.'.'.'.&XQ Z m.A   Q :.-.:.    .   < 5 d +X'.'.'.'.'.'.'.'.'.'.'.'.'.'.'.'.",
"'.'.'.'.'.'.'.'.'.'.'.'.'.'.'.'.'.'.'.'.#X3Xq 0 &.x.  t _ F.! t *   . e V.Q ].'.'.'.'.'.'.'.'.'.'.'.'.'.'.'.'.",
"'.'.'.'.'.'.'.'.'.'.'.'.'.'.'.'.'.'.'.'.oXG.. %.n.0 h q ! ~ ! d }   o =.T a +X'.'.'.'.'.'.'.'.'.'.'.'.'.'.'.'.",
"'.'.'.'.'.'.'.'.'.'.'.'.'.'.'.'.'.'.'.`.$X#.  d ! ;.k.T & ^ W a +.  o   / S.OX X'.'.'.'.'.'.'.'.'.].'.'.'.'.'.",
"'.'.'.'.'.'.'.'.'.'.'.'.'.'.'.'.'.'.).oXW.j.G a K.t L $.i ;.W j <.  ` L.XX#X'.'.'.'.'.'.'.'.'.'.'.'.'.'.'.'.'.",
"'.'.'.'.'.'.'.'.'.'.'.'.'.'.].'.'.'.'.@XZ.h.@.X z v.r.@ K.P._ - u   I.@X).).'.'.'.'.'.'.'.'.'.'.'.'.'.'.'.'.'.",
"'.'.'.'.'.'.'.'.'.'.'.'.'.'.'.'.'.'.'.|.+.,X3.+ H H = -.uXuX3.X     S.oX'.'.'.'.'.'.'.'.'.'.'.'.'.'.'.'.'.'.'.",
"'.'.'.'.'.'.'.'.'.'.'.'.'.'.'.'.'.'.@XU.M fXX.D.a ] W.W.2XyX2X@ X   D.@X'.'.'.'.'.'.'.'.'.'.'.'.'.'.'.'.'.'.'.",
"'.'.'.'.'.'.'.'.'.'.'.'.'.'.'.'.'.'.@XR.[ <XJ._.' *.n.4XuXkXuX# e . G.oX).'.'.'.'.'.'.'.'.'.'.'.'.'.'.'.'.'.'.",
"'.'.'.'.'.'.'.'.'.'.'.'.'.'.'.'.'.'.XX$XC.>.pX X'.Q h n.x.x.>.S U x G.oX'.'.'.'.'.'.'.'.'.'.'.'.'.'.'.'.'.'.'.",
"'.'.'.'.'.'.'.'.'.'.'.'.'.'.'.'.'.'.'.XX{.aX%XpX#X(.      % r 8.j.V L.+X).'.'.'.'.'.'.'.'.'.'.'.'.'.'.'.'.'.'.",
"'.'.'.'.'.'.'.'.'.'.'.'.'.'.'.'.'.'.'.'.).`.[.%X$X .  O O 1 H M 9.t.K ^.+X'.'.'.'.'.'.'.'.'.'.'.'.'.'.'.'.'.'.",
"'.'.'.'.'.].'.'.'.'.'.'.'.'.'.'.'.'.'.'.'.'.'.].^.g   O   # 1 P 9.a.B W.+X'.'.'.'.'.'.'.'.'.'.'.'.'.'.'.'.'.'.",
"'.'.'.'.'.'.'.'.'.'.'.'.'.'.'.'.'.'.'.'.'.'.'.).u   3 q . { 5 N 6.w.6.Z ~.].).'.'.'.'.'.'.'.'.'.'.'.'.'.'.'.'.",
"'.'.'.'.'.'.'.'.'.'.'.'.'.'.'.'.'.'.'.'.'.'.XXOX;   q 9 8 f 8 0 m V M 2 ^.+X'.'.'.'.'.'.'.'.'.'.'.'.'.'.'.'.'.",
"'.'.'.'.'.'.'.'.'.'.'.'.'.'.'.'.'.'.'.'.'.'.XXA.O < 9 9 $ #.<.k g e # R ).].'.'.'.'.'.'.'.'.'.'.'.'.'.'.'.'.'.",
"'.'.'.'.'.'.'.'.'.'.'.'.'.'.'.'.'.'.'.'.'.'.oXs   z 9 X   j Q ( z   ) }.%X'.'.'.'.'.'.'.'.'.'.'.'.'.'.'.'.'.'.",
"'.'.'.'.'.'.'.'.'.'.'.'.'.XX'.'.'.'.'.'.'.'.+Xs     a  .] ( - l   R  X'. X X'.'.'.'.'.'.'.'.'.'.'.'.'.'.'.'.'.",
"'.'.'.'.'.'.'.'.'.'.'.'.'.'.'.'.'.'.'.'.'.'.+Xs $ - @ { l 5 =.o.s OX X'.'.'.'.'.'.'.'.'.'.'.'.'.'.'.'.'.'.'.'.",
"'.'.'.'.'.'.'.'.'.'.'.'.'.'.'.'.'.'.'.'.'.'.oXs < $ g h z r.o.. ) &X).'.'.'.'.'.'.'.'.'.'.'.'.'.'.'.'.'.'.'.'.",
"'.'.'.'.'.'.'.'.'.'.'.'.'.'.'.'.'.'.'.'.'.'.oXd @ -     + 8 ,   s _.oX'.'.'.'.'.'.'.'.'.'.'.'.'.'.'.'.'.'.'.'.",
"'.'.'.'.'.'.'.'.'.'.'.'.'.'.'.'.].'.'.'.'.).'.E.O   + - , G ,.( l s ~.XX'.'.'.'.'.'.'.'.'.'.'.'.'.'.'.'.'.'.'.",
"'.'.'.'.'.'.'.'.'.'.'.'.].'.'.'.'.'.'.'.'.'. XZ.+ + , - ; < k T.1.  A.@X).'.'.'.'.'.'.'.'.'.'.'.'.'.'.'.'.'.'.",
"'.'.'.'.'.'.'.'.'.'.'.'. X'.'.'.'.'.'.'.'.).+Xs   + O o X $ X 4 @ / ).'.'.'.'.'.'.'.'.'.'.'.'.'.'.'.'.'.'.'.'.",
"'.'.'.'.'.'.'.'.'.'.'.'.'.'.'.'.'.'.'.'.'.'.]./.; O   o . 2 g !.!._.oX'.'.'.'.'.'.'.'.'.'.'.'.'.XX'.'.'.'.'.'."
};
