/* XPM */
static char *player5[] = {
/* columns rows colors chars-per-pixel */
"55 55 238 2 ",
"   c #010101",
".  c #0B0202",
"X  c #050906",
"o  c #02030B",
"O  c #0A030B",
"+  c #050A0B",
"@  c #0A0C0C",
"#  c #0C0A06",
"$  c #1B0B09",
"%  c #1A140D",
"&  c #14130A",
"*  c #050A16",
"=  c #140E16",
"-  c #0D1412",
";  c #091717",
":  c #131514",
">  c #12151B",
",  c #171B1A",
"<  c #270A05",
"1  c #251309",
"2  c #261A17",
"3  c #351A14",
"4  c #1F281A",
"5  c #292719",
"6  c #36261B",
"7  c #2C2C0E",
"8  c #0A1423",
"9  c #171827",
"0  c #0B0A2A",
"q  c #22192E",
"w  c #1B2322",
"e  c #19252A",
"r  c #192938",
"t  c #1C3037",
"y  c #0E2C3C",
"u  c #222426",
"i  c #252B2C",
"p  c #282828",
"a  c #352B28",
"s  c #343529",
"d  c #282837",
"f  c #2B3436",
"g  c #353837",
"h  c #22332F",
"j  c #45190A",
"k  c #56310A",
"l  c #56351B",
"z  c #4B2A15",
"x  c #69361A",
"c  c #743715",
"v  c #672705",
"b  c #542F28",
"n  c #473A29",
"m  c #573525",
"M  c #4D3B38",
"N  c #633929",
"B  c #773F2A",
"V  c #3A443D",
"C  c #50441E",
"Z  c #4B4714",
"A  c #74481F",
"S  c #68521D",
"D  c #484838",
"F  c #574735",
"G  c #514D2F",
"H  c #614A27",
"J  c #654739",
"K  c #774D32",
"L  c #775333",
"P  c #68663A",
"I  c #756C30",
"U  c #6D751C",
"Y  c #1B394C",
"T  c #1F3E53",
"R  c #1E274E",
"E  c #2A2C48",
"W  c #293848",
"Q  c #343946",
"!  c #343450",
"~  c #383C62",
"^  c #433F5E",
"/  c #394645",
"(  c #244656",
")  c #374D4F",
"_  c #394867",
"`  c #2A5975",
"'  c #30536F",
"]  c #38627B",
"[  c #464948",
"{  c #524744",
"}  c #47554D",
"|  c #575747",
" . c #475751",
".. c #555B57",
"X. c #4C475A",
"o. c #6A5A46",
"O. c #6D5D50",
"+. c #47625D",
"@. c #686A49",
"#. c #696558",
"$. c #77725B",
"%. c #7A714F",
"&. c #484C6A",
"*. c #495168",
"=. c #585868",
"-. c #464B76",
";. c #4F537A",
":. c #6B4E64",
">. c #576866",
",. c #476879",
"<. c #576778",
"1. c #58766E",
"2. c #79786A",
"3. c #677876",
"4. c #7A797A",
"5. c #65696C",
"6. c #86491F",
"7. c #854F24",
"8. c #885528",
"9. c #915835",
"0. c #8A5633",
"q. c #99663A",
"w. c #8D6F32",
"e. c #A26E3E",
"r. c #9A6946",
"t. c #817D5B",
"y. c #91714D",
"u. c #AB7548",
"i. c #A46E56",
"p. c #AF784D",
"a. c #847666",
"s. c #857D76",
"d. c #79805E",
"f. c #B58732",
"g. c #939059",
"h. c #AE8153",
"j. c #B08A4F",
"k. c #8E8B6C",
"l. c #AB8D6A",
"z. c #9AA26A",
"x. c #B0AA78",
"c. c #C2985C",
"v. c #C48E5E",
"b. c #D29865",
"n. c #C49366",
"m. c #CAA578",
"M. c #D6AB7B",
"N. c #ECAC76",
"B. c #F3C47D",
"V. c #366686",
"C. c #39759C",
"Z. c #2A6891",
"A. c #3A7CA5",
"S. c #475688",
"D. c #615180",
"F. c #546184",
"G. c #4E748A",
"H. c #5C6794",
"J. c #52708A",
"K. c #617A85",
"L. c #72768D",
"P. c #5D6DA2",
"I. c #7C7FA5",
"U. c #8278B2",
"Y. c #3E82AE",
"T. c #578A98",
"R. c #748E8C",
"E. c #4587AE",
"W. c #448BB6",
"Q. c #4893BB",
"!. c #5995B2",
"~. c #7C98A6",
"^. c #4B9AC8",
"/. c #468FC0",
"(. c #59A0C9",
"). c #4DA2D4",
"_. c #54ABDC",
"`. c #58A8D7",
"'. c #6CB0D4",
"]. c #6FABCA",
"[. c #56ADE1",
"{. c #5AB6EB",
"}. c #54B9F4",
"|. c #5CBCF4",
" X c #5BBEF9",
".X c #56B7F1",
"XX c #4FB7F7",
"oX c #66BBEC",
"OX c #62BEF3",
"+X c #72BAE2",
"@X c #5DC3FE",
"#X c #5ECAFF",
"$X c #61C5FD",
"%X c #64CAFF",
"&X c #69CBFF",
"*X c #69C3F5",
"=X c #77CAF6",
"-X c #69D4FF",
";X c #78D3FF",
":X c #74C4EF",
">X c #84888B",
",X c #9C9788",
"<X c #909192",
"1X c #A59D81",
"2X c #94A59C",
"3X c #B1AD91",
"4X c #9689AC",
"5X c #91A3A4",
"6X c #ACB4B8",
"7X c #D5B290",
"8X c #E5BA83",
"9X c #D99184",
"0X c #ABC3BB",
"qX c #C7C08D",
"wX c #CBC595",
"eX c #D5C993",
"rX c #D2C58B",
"tX c #E5CA99",
"yX c #E6D196",
"uX c #EFCE8E",
"iX c #FFE885",
"pX c #D5CEA6",
"aX c #DED1A1",
"sX c #E5DFB2",
"dX c #E4D3AA",
"fX c #DFE3B5",
"gX c #F8EBA8",
"hX c #EAE7B2",
"jX c #90A1C7",
"kX c #A4A8D6",
"lX c #A4A7D8",
"zX c #ABC9C4",
"xX c #8AD0F0",
"cX c #BEE4E6",
"vX c #ADDAE6",
"bX c #CDCBC7",
"nX c #F0F5F4",
"mX c #C4C7E9",
/* pixels */
"|.|.|.|.|.|.|.|.|.|. X|.|.|.|.|.|.|.|.|.|.|.|.|.|.|.|.|.|.|.|.|.|.|.|.|.|.|.|.|.|.|.|.|.|.|.|.|.|.|.|.|.|.|.|.",
"|.|.|.|.|.|.|.|.|.|.|.|.|.|.|.|.|.|.|.|.|.|.|.|.|.|.|.|.|.|.|.|.|.|.|.|.|.|.|.|.|.|.|.|.|.|.|.|.|.|.|.|.|.|.|.",
"|.|.|.|.|.|.|.|.|.|.|.|.|.|.OX|.|.|.|.|.|.|.|.|.|.|.|.|.|.|.|.|.|.|.|.|.|.|.|.|.|.|.|.|.|.|.|.|.|.|.|.|.|.|.|.",
"|.|.|.|.|.|.|.|.|.|.|.|.|.|.|.|.|.|.|.|.|.|.|.|.|.|.}.@X@X$X@X}.|.|.|.|.|.|.|.|.|.|.|.|.|.|.|.|.|.|.|.|.|.|.|.",
"|.|.|.|.|.|.|.|.|.|.|.|.|.|.|.|.|.|.|.|.|.|.|.|.OXOX]...>...3.xXOX|.|.|.|.|.|.|.|.|.|.|.|.|.|.|.|.|.|.|.|.|.|.",
"|.|.|.|.|.|.|.|.|.|.|.|.|.|.|.|.|.|.|.|.|.|.|.@X[.| 7.u.9.7.9.K K.%X|.|.|.|.|.|.|.|.|.|.|.|.OX X|.|.|.|.|. X|.",
"|.|.|.|.|.|.|.|.|.|.|.|.|.|.|.|.|.|.|.|.|.|.|.`.{ N 7.u.b.6.c 8.l <.OX|.|.|.|.|.|.|.|.|.|.|.|.|.|.|.|.|.|.|.|.",
"|.|.|.|.|.|.|.|.|.|.|.|.|.|.|.|.|.|.|. X*XoX%XM v l.c.b.0.8.N n.m.v T.%X{.OX|.|.|.|.|.|.|.|.|.|.|.|.|.|.|.|.|.",
"|.|.|.|.|.|.|.|.|.|.|.|.|.|.|.|.|.|.|.|.oX&X!.J v.u.k B k q.u.9.v.v.=.|.*X}.|.|.|.|.|.|.|.|.|.|.|.|.|.|.|.|.|.",
"|.|.|.|.|.|.|.|.|.|.|. X|.|.|.|.|.|.|.|.@X^.z p.r.c u.K p.i.u.N.r.r.u...{.@X|.|.@X|.|.|.|.|.|.|.|.|.|.|.|.|.|.",
"|.|.|.|.|.|.|.|.|.|.|.|.|.|.|.|.|.|.|.{.%X,.j K 9.N.p.u.j.N.v.9.M.q.j G.{.|.@X(.K.[.@X{.|.|.|.|.|.|.|.|.|.|.|.",
" X|.|.|.|.|.|.|.|.|.|.OX X|.|.|.|.|.|.|.@XG.< j 8Xp.k e.w.H B.A N M.H W.%X@X(.3.d /.#X|.|.|.|.|.|.|.|.|.|.|.|.",
"|.|.|.|.|.|.|.|.|.|.|.|.|.|.|.|.|.|.|.|.|.$XW u.p.3 M K 0.a O.3 1 m k $ ^.A.2.2.Z.$X|.|.|.|.|.|.|.|.|.|.|.|.|.",
"|.|.|.|.|.|.|.|.|.|.|.|.|.|.|.|.|.|.|.|.{.%XT y.x M 4X:.8Xj.D.4XL y.. a o #.2.K.;X|.|.|.|.|.|.|.|.|.|.|.|.|.|.",
"|.|.|.|.|.|.|.|.|.|.|.|.|.|.|.|.|.|.|.|.{.-X( $ < r.sXm.gXeX3XdXA a.d d [ 4.C.;X:X.X|.|.|.|.|.|.|.|.|.OX|.|.|.",
"|.|.|.|.|.|.|.|.|.|.|.|.|.|.|.|.|.|.|.|..X$XW.* O o.N.gXm.uXiXf.} <Xa.% d W W.OX.X|.|.|.|.|.|.|.|.|.|. X|.|.|.",
"|.|.|.|.|.|.|.|.|.|.|.|.|.|.|.|.|.|.|.}.xXzX~.@.*   L uXeXuX9Xz <.i @.y.X = T %X.X@X{.@X|.|.|.|.|.|.|.|.|.|.|.",
"|.|.|.|.|.|.|.|.|.|.|.|.|.|.|.|.|.OX@X'.3XeXyXyXP 9 ^ w.8X9Xb F.R 7 x.gX$.  ( @XvX=X.X{.|.|.|.|.|.|.|.|.|.|.|.",
"|.|.|.|.|.|.|.|.|.|.|.|.|.|.|.|.|. X'.1XaXhXhXdXP s J.W l m ; T 4 H qXgXgX0X{.XXcXxX}.@X|.|.|.|.|.|.|.|.|.|.|.",
"|.|.|.|.|.|.|.|.|.|.|.|.|.|.|.|.@X{.D qXeXrXx.k.G qX>Xa H l.. g fX3X%.@.3X} @X*X*X{.@X{.|.|.|.|.|.|.|.|.|.|.|.",
"|.|.|.|.|.|.|.|.|.|.|.|.|.|.|.|.|.[.h eXeXg.0XnXg.P a 4.! 0 . =.| n I bX$.e @X*X|.|.|.|.|.|.|.|.|.|.|.|.|.|. X",
"|.|.@X|.|.|.|.|.|.|.|.|.|.|.|.|.|.@Xw l.x.P ..5.hXwX  d bXg % kX0 $.3X| Z e %X.X|.|.|.|.|.|.|.|.|.|.|.|.|.|.|.",
"|.|.|.|.|.|.|.|.|.|.|.|.|.|.|.|.@X] k.I S S Z d.G { &.  z.s & 3X-.k.Z 2.@.k.V.@X{.|.|.|.|.|.|.|.|.|.|.|.|.|.|.",
"|.|.|.|.|.|.|.|.|.|.|.|.|.|.|.|.@Xe 1XsXqXeXqX@.$.@ &.,XP &.W R.r w   3XfXt.Y #X|.*X|.|.|.|.|.|.|.|.|.|.|.|.|.",
"|.|.|.|.|.|.|.|.|.|.|.|.|.|.|.|.|._.> 2 g p 2 O u 9 - 5 9 U.~ u 9 o o : u f [.@X|.|.|.|.|.|.|.|.|.|.|.|.|.|.|.",
"|.|.|.|.|.|.|.|.|.|.|.|.|.|.|.|.@X|.8 q H.R   o d <.M U s P 5 ^ =.0 d 0 *.4XS.$X|.|.|.|.|.|.|.|.|.|.|.|.|.|.|.",
"|.|.|.|.|.|.|.|.|.|.|.|.|.|.|.|.|.{.> _ S._ ! *     C g.4 F g.4 o   r _ S.I.V.$X|.|.|.|.|.|.|.|.|.|.|.|.|.|.|.",
"|.|.|.|.|.|.|.|.|.|.|.|.|.|.|.|.|.}.` Q H.W q O o r U.3X$.s.| s f   8 ! 5Xe ' OXOX|.|.|.|.|.|.|.|.|.|. X|.|.|.",
"|.|.|.|.|.|.|.|.|.|.|.|.|.|.|.|.|.@X_.= d   2.a   8 _ L.eX,Xf L.F.  o d G s Y %X.X|.|.|.|.|.|.|.|.|.|.|.OX|.|.",
"|.|.|.|.|.|.|.|.|.|.|.|.|.OX*X|.{.%X).* 5 C F V @ . = * & # *.jX-.d   : <XM R.*XOX|.|.|.|.|.|.|.|.|.|.|.|.|.|.",
"|.|.|.|.|.|.|.|.|.|.|.|.|.|.|.|.$X_.e   g { . ' u b.y.  o * _ H._ !     ! ^ K.;X:X}.|.|.|.|.|.|.|.|.|.|.|.|.|.",
"|.|.|.|.|.|.|.|.|.|.|.|.|.|.{.@X`.p L F % 5 O _ 2 N.i.  =.d &.S.F.Q   . ;.9 ' %X:X|.|.|.|.|.|. X|.|.|.|.|.|.|.",
"|.|.|.|.|.|.|.|.|.|.|.|.|.|..X%XY L uXl.2 | & ) 5 N.g.  =.i *.J.jXE   X W =.,.$X.X|.|.|.|.|.|.|.|.|.|.|.|.|.|.",
"|.|.|.|.|.|.|.|.|.|.|.|.|.*X*X@X) w.j.D ].>X  a 2 o.{ > q > _ P.jX;.# . @.Q A. X:XOX|.|.|.|.|.|.|.|.|.|.|.|.|.",
"|.|.|.|.|.|.|.|.|.|.|.|.|.|.:X|.(.T.T.A.-X'     X W L.!     1XbXnXbX=.= n t %X.X*XOX|.|.|.|.|.|.|.|.OX|.|.|.|.",
"|.|.|.|.|.|.|.|.|.|.|.|.|.|.}.|. X@X@X*X&X` d ;.-.kXI.* o a.F D p ,X6X= Z.^.|.|.|.|.|.|.|.|.|.|.|.|.|.|.|.|.|.",
"|.|.|.|.|.|.|.|.|.|.|.|.|.|.|.|.|.|.{.{.&X` d kXlXmXL.  O s #     O 4.g ).-X|.|.|.|.|.|.|.|.|.|.|.|.|.|.|.|.|.",
"|.|.|.|.|.|.|.|.|.|.|.|.|.|.|.|.|.|.|..X;X,.  z.dXdX2.  . . # $ $ $ # X ).*X|.|.|.|.|.|.|.|.|.|.|. X|.|.|.|.|.",
"|.|.|.|.@X|.|.|.|.|.|.|.|.|.|.|.|.|.|.|.$XA.* 6 k < 1 = . 2 < m x c 1 y oX*X|.|.|.|.|.|.|.|.|.|.|.|.|.|.|.|.|.",
"|.|.|.|.|.|.|.|.|.|.|.|.|.|.|.|.|.|.|.|.|.%XE.s K 9.7.1     l 0.K 7.< Q.$X{.|.|.|.|.|.|.|.|.|.|.|.|.|.|.|.|.|.",
"|.|.|.|.|.|.|.|.|.|.|.|.|.|.|.|.|.|.|.|.{.%XY.- K u.8.m . D 5 b N a . W.$X|.|.|.|.|.|.|.|.|.|.|.|.|.|.|.|.|.|.",
"|.|.|.|.|.|.|.|.|.|.|.|.|.|.|.|.|.|.|.|.%XC.X X J m J %   5 :   & o   Q.$X{.|.|.|.|.|.|.|.|.|.|.|.|.|.|.|.|.|.",
"|.|.|.|. X|.|.|.|.|.|.|.|.|.|.|.|.|.|.{.&X` p h , $ - + @ + ) r , e : E.$X|.|.|.|.|.|.|.|.|.|.|.|.|.|.|.|.|.|.",
"|.|.|.|.|.|.|.|.|.|.|.|.|.|.|.|.|.|.|..X%X' / / p u / >.i ; d.V , 5.p   _. X|.|. X|.|.|.|.|.|.|.|.|.|.|.|.|.|.",
"|.|.|.|.|.|.|.|.|.|.|.|.|.|.|.|.|.|.|.|.@XA.1.2X[ > R.1.X 3.<X    w  .: ).@X.X|.|.|. X|.|.|.|.|.|.|.|.|.|.|.|.",
"|.|.|.|.OX|.|.|.|.|.|.|.|.|.|.|.|.|.|.|.{.-X( ..3.f } - :  .- , V    .,.[. X|.|.|.|.OX|.|.|.|.|.|. X|.|.|.|.|.",
"|.|.|.|.|.|.|.|.|.|.|.|. X|.|.|.|.|.|.|.|.$X(   X ;   w > u @ - w X . ^.$X|.|.|.|.|.|.|.|.|.|.|.|.|.|.|.|.|.|.",
"|.|.|.|.|.|.|.|.|.|.|.|.|.|.|.|.|.|.|.|.|.%XT s +./ 9 @   , @ / [ p   Q.$X|.|.|.|.|.|.|.|.|.|.|.|.|.|.|.|.|.|.",
"|.|.|.|.|.|. X|.|.|.|.|.|.|.|.|.|.|.|.|.|.$X( R.zX+.; + X G 6 ..>.V   E.@X{.OX|.|.|.|.|.|.|.|.|.|.|. X|.|.|.|.",
"|.|.|.|.|.|.|.|.|.|.|.|.|.|.|.|.|.|.|.|.|.$X,.D  .s ; e   y.O.    a a.3 `.$X|.|.|.|.|.|.|.|.|.|.|.|.|.|.|.|.|.",
"|.|.|.|.|.|.|.|.|.|.|.|.|.|.|.|.|.|.|.|.|.#XV.t Y r C.V.  F 1 , * + n #.+X@X|.|.|.|.|.|.|.|.|.|.|.|.|.|.|.|.|.",
"|.|.|.|.|.|.|.|.|.|.|.|.|.|.|.|.|.|.|. X|.}.#X-X%X%X%XW.8   o 1.zX0X[ ] }.|.|.|.|.|.|.|.|.|.|.|.|.|.|.|.|.|.|.",
"|.|.|.|.|.|.|.|.|.|.|.|.|.|.|.|.|.|.|.|.|.|.|.{.{.|..X-X(   [ 5X3.>.5X/ ^.$X|.|.|.|.|.|.|.|.|.|.|.|.|.|.|.|.|.",
"|.|.|.|.|.|.|.|.|.|.|.|.|.|.|.|.|.|.|.|.|.|.|.|.|.|.|.|.^.e f g     t t `.@X|.|.|.|.|.|.|.|.|.|.|.|.|.|.|.|.|.",
"|.OX|.|.|.|.|.|.|.|.|.|. X|.|.|.|.|.|.|.|.|.|.|.|.|.|.|.@X+X,   X #     `.*X|.|.|.|.|.|.|.|.|.|.|.|.|.|.|.|.|."
};
