/* XPM */
static char *player36[] = {
/* columns rows colors chars-per-pixel */
"55 55 225 2 ",
"   c #010101",
".  c #0C0301",
"X  c #0C0806",
"o  c #02020B",
"O  c #0B0D0D",
"+  c #06090C",
"@  c #140805",
"#  c #0C120D",
"$  c #191408",
"%  c #090B11",
"&  c #06091B",
"*  c #160716",
"=  c #091419",
"-  c #0B1819",
";  c #141313",
":  c #1C1512",
">  c #13151D",
",  c #151B1C",
"<  c #1C1F1D",
"1  c #1A1A11",
"2  c #230C0E",
"3  c #271708",
"4  c #321A0B",
"5  c #231E1A",
"6  c #221516",
"7  c #361610",
"8  c #1D211B",
"9  c #272518",
"0  c #35291B",
"q  c #36260B",
"w  c #0D1429",
"e  c #171B2B",
"r  c #16162B",
"t  c #1C2624",
"y  c #1B2E38",
"u  c #0D2231",
"i  c #282A26",
"p  c #322B25",
"a  c #382D27",
"s  c #29322D",
"d  c #38352B",
"f  c #262639",
"g  c #383935",
"h  c #283134",
"j  c #4D1A02",
"k  c #571F06",
"l  c #522200",
"z  c #462A15",
"x  c #573A19",
"c  c #592B15",
"v  c #693719",
"b  c #64340A",
"n  c #483826",
"m  c #4B3832",
"M  c #543D36",
"N  c #4F2D25",
"B  c #6B3B26",
"V  c #32473E",
"C  c #50431C",
"Z  c #7C4A1C",
"A  c #4A4837",
"S  c #554434",
"D  c #575537",
"F  c #7A4627",
"G  c #7A512F",
"H  c #67543C",
"J  c #7A583A",
"K  c #6E4931",
"L  c #5B693E",
"P  c #6C623C",
"I  c #1A2942",
"U  c #1A3041",
"Y  c #272444",
"T  c #2A3149",
"R  c #373A4A",
"E  c #313557",
"W  c #373B60",
"Q  c #403F50",
"!  c #3B4343",
"~  c #334E52",
"^  c #39416A",
"/  c #315D78",
"(  c #2C516F",
")  c #33607A",
"_  c #4B4946",
"`  c #544D44",
"'  c #474B56",
"]  c #46555B",
"[  c #545959",
"{  c #50554E",
"}  c #635D46",
"|  c #715C43",
" . c #6A5657",
".. c #59635C",
"X. c #666455",
"o. c #736D59",
"O. c #7B7154",
"+. c #74674C",
"@. c #475A68",
"#. c #535265",
"$. c #404F71",
"%. c #585B78",
"&. c #5D6D6E",
"*. c #576863",
"=. c #5B6279",
"-. c #4E6C6D",
";. c #62696B",
":. c #757270",
">. c #844B27",
",. c #88552E",
"<. c #945B2F",
"1. c #855434",
"2. c #945D32",
"3. c #884F38",
"4. c #886537",
"5. c #97673E",
"6. c #925F4C",
"7. c #8D6649",
"8. c #916A52",
"9. c #A36B46",
"0. c #A87A45",
"q. c #B37C46",
"w. c #A87652",
"e. c #B17955",
"r. c #897864",
"t. c #987D66",
"y. c #867371",
"u. c #788C5B",
"i. c #6F897B",
"p. c #8B8A5D",
"a. c #9B915F",
"s. c #AB855D",
"d. c #B5855A",
"f. c #8B856A",
"g. c #9C9369",
"h. c #8A8E79",
"j. c #968A75",
"k. c #9A9677",
"l. c #A78969",
"z. c #BD8961",
"x. c #A79667",
"c. c #A59B7D",
"v. c #A4A377",
"b. c #B8B575",
"n. c #C29155",
"m. c #CB9968",
"M. c #CA9776",
"N. c #CA916B",
"B. c #DCB671",
"V. c #387497",
"C. c #326C8F",
"Z. c #3A76A3",
"A. c #555B84",
"S. c #517989",
"D. c #447692",
"F. c #527592",
"G. c #757796",
"H. c #506DA1",
"J. c #7076A4",
"K. c #807E80",
"L. c #3D88B4",
"P. c #778D95",
"I. c #5787A3",
"U. c #478AB5",
"Y. c #4D8BAB",
"T. c #6E9DAE",
"R. c #6AA2BC",
"E. c #3E90C5",
"W. c #499ACA",
"Q. c #529CC8",
"!. c #478EC3",
"~. c #4DA4D5",
"^. c #54A6D4",
"/. c #54ADDE",
"(. c #5AAAD9",
"). c #6DB4D5",
"_. c #54ADE0",
"`. c #59AEEE",
"'. c #59B6ED",
"]. c #5AB8EF",
"[. c #57B4E9",
"{. c #54B9F4",
"}. c #5CBCF4",
"|. c #52BBFA",
" X c #5DBFF8",
".X c #53B7F1",
"XX c #67B6E8",
"oX c #65BEF2",
"OX c #71BFE9",
"+X c #5DC2FC",
"@X c #61C3FC",
"#X c #63CAFF",
"$X c #6ACCFF",
"%X c #67D3FF",
"&X c #7ED0FD",
"*X c #76CAF6",
"=X c #8C9090",
"-X c #A09B85",
";X c #A5A688",
":X c #B4B28D",
">X c #868BAB",
",X c #8D97B1",
"<X c #8FACAC",
"1X c #C1B989",
"2X c #F2BD8C",
"3X c #CDC191",
"4X c #E6DB9C",
"5X c #E6C989",
"6X c #D2CBA6",
"7X c #CFCEB8",
"8X c #E2DCA6",
"9X c #EAE8B3",
"0X c #FBF6B9",
"qX c #F2F0A9",
"wX c #9499C1",
"eX c #89A6D9",
"rX c #85D3FD",
"tX c #89CDEC",
"yX c #A3D6E4",
"uX c #A0E0F6",
"iX c #CDD0CC",
"pX c #FFFAC1",
"aX c #FFFED7",
"sX c #F3EBCB",
"dX c #C5F0FA",
/* pixels */
"}.}.}.}.}.}.}.}.}.}.}.}.}.}.}.}.}.}.}.}.}.}.}.}.}.}.}.}.}.}.}.}.}.}.}.}.}.}.}.}.}.}.}.}.}.}.}.}.}.}.}.}.}.}.}.",
"}.}.}.}.}.}.}.}.}.}.}.}.}.}.}.}.}.}.}.}.}.}.}.}.}.}.}.}.}.}.}.}.}.}.}.}.}.}.}.}.}.}.}.}.}.}.}.}.}.}.}.}.}.}.}.",
"}.}.}.}.}.}.}.}.}.}.}.}.}.}.}.}.}.}.}.}.}.}.}.}.}.}.}.}.}.}.}.].}. X}.}.}.}.}.}.}.}.}.}.}.}.}.}.}.}.}.}.}.}.}.",
"}.}.}.}.}.}.}.}.}.}.}.}.}.}.}.}.}.}.}.}.}.}.}.}.}.}.}.}.+X+X+X@XoX}.}.}.}.}.}.}.}.}.}.}.}.}.}.}.}.}.}.}.}.}.}.",
"}.}.}.}.}.}.}.}.}.}.}.}.}.}.}.}.}.}.}.}.}.}.}.}.}.}.}.rX=X[ *.[ P.&X@X{.}.}.}.}.}.}. X}.}.}.}.}.}.}.}.}.}.}.}.",
"}.}.}.}.}.}.}.}.}.}.}.}.}.}.}.}.}.}. X}.}.}.}.}.].$X<XH s.9.<.N.e.S I.$X.X}.}.}.}.}.}.}.}.}.}.}.}.}.}. X}.}.}.",
"}.}.}.}.}.}.}.}.}.}.}.}.}.}.}.}.}.}.}.}.}.}.}.}.oXI.1.M.,.<.<.9.b 2.l.T.&X}.}.}.}.}.}.}.}.}.}.}.}.}.}.}.}.}.}.",
"}.}.}.}.}.}.}.}.}.}.}.}. X}.}.}.}.}.}.}.}.}.}.+X_.j v 6.e.Z d.9.3.G m.M.:X+X}.}.}.}.}.}.}.}.}.}.}.}.}.}.}.}.}.",
"}.}.}.}.}.}.}.}.}.}.}.}.}.}.}.}.}.}.}.}.}.}.}.+X_.c F 5.M.,.0.9.2Xd.,.m.l.I.}.}.}.}.}.}.}.}.}.}.}.}.}.}.}.}.}.",
"}.}.}.}.}.}.}.}. X}.}.}.}.}.}.}.}.}.}.}.}.}.}.}.S.w.,.Z b e.e.n.0.w.m.>.w.=X}.}.}.}.}.}.}.}.}.}.}.}.}.}.}.}.}.",
"}.}.}.}.}.}.}.}.}.}.}.}.}.}.}.}.}.}.}.}.}.}. X[.p >.,.J <.N.>.B.b j M.G P.%X}.}.}.}.}.}.}.}.}.}.}.}.}.}.}.}.}.",
"}.}.}.}.}.}.}.}.}.}.}.}.}.}.}.}.}.}.}.}.}.}.}.'.* v d.v 7.F m.K x B 7 n XX{.}.}.}.}.}.}.}.}.}.}.}.}.}.}.}.}.}.",
"}.}.}.}.}.}.}.}.}.}.}.}.}.}.}.}.}.}.}.}.}.}.}.'.2 B 3.z N k d.m : 4 3 U. X}.}.}.}.}.}.}.}.}.}.}.}.}.}.}.}.}.}.",
"}.}.}.}.}.}.}.}.}.}.}.}.}.}.}.}.}.}.}.}.}.}.}.}.] v v . J Z j | >X-X| U.$X}.}.}.}.}.}.}.}.}.}.}.}.}.}.}.}.}.}.",
"}.}.}.}.}.}.}.}.}.}.}.}.}.}.}.}.}.}.}.}.}.}.}. XXX7 6   H B l 4.7XiXl.t.oX}.}.}.}.}.}.}.}.}.}.}.}.}.}.}.}.}.}.",
"}.}.}.}.}.}.}.}.}.}.}.}.}.}.}.}.}.}.}.}.}.}.}.}.tXr.3 @   * c e.5X0Xw.@.}.}.}.}.}.}.}.}.}.}.}.}.}.}.}.}.}.}.}.",
"}.}.}.}.}.}.}.}.}.}.}.}.}.}.}.}.}.}.}.}.}.}.}..XrXiXC t.v.j.2 z B.e.*.}.}.}.}.}.}.}.}.}.}. X}.}.}.}.}.}.}.}.}.",
"}.+X}.}.}.}.}.}.}.}.}.}.}.}.}.}.}.}.}.}.}.}.}. XXX} v.0X0X0X7XA.q 7 Z.#X}.}.}.}.}.}.}.}.}.}.}.}.}.}.}.}.}.}.}.",
"}.}.}.}.}.}.}.}.}.}.}.}.}.}.}.}.}.}.}.}.}.}.}.@XW.i 8X0X0Xg.6XR   a } R.oX}.}.}.}.}.}.}.}.}.}.}.}.}.}.}.}.}.}.",
"}.}.}.}.}.}.}.}.}.}.}.}.}.}.}.}.}.}.}.}.}.}.].+X~.s 9XaXx.7Xu.x.' y v.g.^. X}.}.}.}.}.}.}.}.}.}.}.}.}.}.}.}.}.",
"}.}.}.}.}.}.}.}.}.}.}.}.}.}.}.}.}.}.}.}.}.}.}. XC.9 c.0Xb.h.L 3X:X  } D ^. X}.}.}.}.}.}.}.}.}.}.}.}.}.}.}.}.}.",
"}.}.}.}.}.}.}.}.}.}.}.}.}.}.}.}.}.}.}.}.}.}. X[.t r.O.a.f.0 0 p.b.} d _ ^. X}.}.}.}.}.}.}.}.}.}.}.}.}.}.}.}.}.",
"}.}.}.}.}.}.}.}.}.}.}.}.}.}.}.}.}.}.}.}.}.}. X[.s 6X8X6X:Xb.X 1 b.A a d ^.+X}.}.}.}.}.}.}.}.}.}.}.}.}.}.}.}.}.",
"}.}.}.}.}.}.}.}.}.}.}.}.}.}.}.}.}.}.}.}.}.}.}.'.t 1 X.8X4Xf.9 k.X.1   C. X}.}.}.}.}.}.}.}.}.}.}.}.}.}.}.}.}.}.",
"}.}.}.}.}.}.}.}.}.}.}.+X].oX}.}.@X].].+X+X].+X#Xw h T > : O #.Q R %.Q L.$X}.}.}.}.}.}.}.}.}.}.}.}.}.}.}.}.}.}.",
"}.}.}.}.}.}.}.}.}.}.}.}.}.}.}.}.].+X].].].].+XU.w %.J.T O   o ` L T f U.@X}.}.}.}.}.}.}.}.}.}.}.}.}.}.}.}.}.}.",
"}.}.}.}.}.}.}.}.}.}.}.}.}.}.}.}.].+X].+X+X].+Xu > ,X$.W o D O.k.L   9 S.oX}.}.}.}.}.}.}.}.}.}.}.}.}.}.}.}.}.}.",
"}.}.}.}.}.}.}.}.}.}.}.}.}.}.}.}.}.].].oX+X].)., % ,XJ.H.Y X.;XsX`   f.D W.@X}.}.}.}.}.}.}.}.}.}.}.}.}.}.}.}.}.",
"}.}.}.}.}.}.}.}.}.}.}.}.}.}.}.}.}.}.}.}.].+Xi.$ o w X.G.o   = X.A d -Xe W.@X].}.}.}.}.}.}.}.}.}.}.}.}.}.}.}.+X",
"}.}.}.}.}.}.}.}.}.}.}.}.}.}.}.}.}.oX}.{.*XdX' j.9 O.h.$   #.A.    9 0 . ^.+X}.}.}.}.}.}.}.}.}.}.}.}.}.}.}.}.}.",
"}.}.}.}.}.}.}.}.}.}.}.}.}.}.}.}.].+X}.].@X<XP 6Xp p h.X.  W ^ & w   r.M W.@X}.}.}.}.}.}.}.}.}.}.}.}.}.}.}.}.}.",
"}.}.}.}.}.}.}.}.}.}.}.}.}.}.}.}.}.].+X].#XD.k.qX9 =Xy.5 9 Y I e '   l.A W.#X}.}.}.}.}.}.}.}.}.}.}.}.}.}.}.}.}.",
"}.}.}.}.}.}.}.}.}.}.}.}.}.}.}.}.}.}.}.{.rX{ v.aX8 r E =.x.i   i ..  S { /.+X}.}.}.}.}.}.}.}.}.}.}.}.}.}.}.}.}.",
"}.}.}.}.}.}.}.}.}.}.+X}.}.}.}.}.}.}.}. XT.4.4Xc.O $.=.o x. .& f =.  y [.+X}.}.}.}.}.}.}.}.}.}.}.}.}.}.}.}.}.}.",
"}.}.}.}.}.}.}.}.}.}.}.}.}.}.}.}.}.}.'.$XI.y.pX9   3 S s.K R E w f   Y.#X].}.}.}.}.}.}.}.}.}.}.}.}.}.}.}.}.}.}.",
"}.}.}.}.}.}.}.}.}.}.}.}.}.}.}.}.}.}.}.OX+.k.8X .% 3 H J @ F.^ e o   V.@X].}.}.}.}.}.}.}.}.}.}.}.}.}.}.}.}.}.}.",
"}.}.}.}.}.}.}.}.}.}.}.}.}.}.}.}.}.}.@XL.C 0X| U.Q.i v.>XP.wXeXT .   Z.#X}.}.}.}.}.}.}.}.}.}.}.}.}.}.}.}.}.}.}.",
"}.}.}.}.}.}.}.}.}.}.}.}.}.}.}.}.}.].#XL._ 3XG.`.+X- ` 7XiXiX>XR *   V.%X{.}.}.}.}.}.}.}.}.}.}.}.}.}.}.}.}.}.}.",
"}.}.}.}.}.}.}.}.}.}.}.}.}.}.}.}.}.}. XOX@.E XX}.*XQ.  . :.;XN 7.9   D.+X].+X].}.}.}.}.}.}.}.}.}.}.}.}.}.}.}.}.",
"}.}.}.}.}.}.}.}.}.}.}.}.}.}.}.}.}.}.}.@X(.(.+XyXuXU.* z 2 7 0.| O @ V.#X].}.}.}.}.}.}.}.}.}.}.}.}.}.}.}.}.}.}.",
"}.}.}.}.}.}.}.}.}.}.}.}.}.}.}.}.+X].+X@X].+X}.tX#XE.3 x K d.G z 3 ~ ^.+X}.}.}.}.}.}.}.}.}.}.}.}.}.}.}.}.}.}.}.",
"}.}.}.}.}.}.}.}.}.}.}.}.}.}.}.}.].].].].}.].}..X}.]   z K 7.3 ; 4 / %X].}.}.}.}.}.}.}.}.}.}.}.}.}.}.}.}.}.}.}.",
"}.}.}.}.}.}.}.}.}.}.}.}.}.}.}.}.].+X].+X}.}.].@XQ.. m m @ N @ X   ) #X].}.}.}.}.}.}.}.}.}.}.}.}.+X}.}.}.}.}.}.",
"}.}.}.}.}.}.}.}.}.}.}.}.}.}.}.}.oX].+X].}.}.@X].> 2 r.a m p   +   ( }.}.}.}.}.}.}.}.}.}.}.}.}.}.}.}.}.}.}.}.}.",
"}.}.}.}.}.}.}.}.}.}.}.}.}.}.}.}.'.].+X].+X].+X'.- 1 9 < e [ 8   , @ V.#X}.}.}.}.}.}.}.}.}.}.}.}.}.}.}.}.}.}.}.",
"}.+X}.}.}.}.}.}.}.}.}.}.}.}.}.}.oX+X].+X'.'.+X'.- t &.*.&.!   % [ @.!.+X}.}.}.}.}.}.}.}.}.}.}.}.}.}.}.}.}.}.}.",
"}.}.}.}.}.}.}.}.}.}.}.}.}.}.}.}.+X].].+X+X].+X[.- t -.*.&., s # 8 D.%X.X}.}.}.}.}.}.}.}.}.}.}.}.}.}.}.}.}.}.}.",
"}.}.}.}.}.}.}.}.}.}.}.}.}.}.}.}.].].+X].].+X+X.X- # h s s # ; , 9 ( #X].}.}.}.}.}.}.}.}.}.}.}.}.}.}.}.}.}.}.}.",
"}.}.}.}.}.}.}.}.}.}.}.}.}.}.}.}.}.}.}.}.}.}.+X'.y h O + + ! O O . / #X].}.}.}.}.}.}.}.}.}.}.}.}.}.}.}.}.}.}.}.",
"}.}.}.}.}.}.}.}.}.}.}.}.}.}.}.}.}.}.}.}.}.}.}.}.U.s ..*.{ ..#     / %X}.}.}.}.}.}.}.}.}.}.}.}.}.}.}.}.}.}.}.}.",
"}.}.}.}.}.}.}.}.}.}.}.}.}.}.}.}.}.}.}.}.}.}.+X'., _ X.g 9 :.: + < -.Q.[.+X}.}.}.}.}.}.}.}.}.}.}.}.}.}.}.}.}.}.",
"}.}.}.}.}.}.}.}.}.}.}.}.}.}.}.}.}.}.}.}.}.}.}.'.w m ` N 8.+.. , ~ ~ # U.#X].}.}.}.}.}.}.}.}.}.}.}.}.}.}.}.}.}.",
"}.}.}.}.}.}.}.}.}.}.}.}.}.}.}.}.}.}.}.}.}.}.}.}.D.p 1 A a X   O o   ~ [.}.}.}.}.}.}.}.}.}.}.}.}.}.}.}.}.}.}.}.",
"}.}.}.}.}.}.}.}.}.}.}.}.}.}.}.}.}.}.}.}.}.}.}.@X/.; _ h V -     U U./.+X].}.}.}.}.}.}.}.}.}.}.}.}.}.}.}.}.}.}.",
"}.}.}.}.}.}.}.}.}.}.}.}.}.}.}.}.}.}.}.}.}.}.].@X~., &.&.;...=Xy _.#X+X].}.}.}.}.}.}.}.}.}.}.+X}.}.}.}.}.}.}.}."
};
