/* XPM */
static char *player4[] = {
/* columns rows colors chars-per-pixel */
"55 55 242 2 ",
"   c #010101",
".  c #0B0202",
"X  c #0D0904",
"o  c #02030B",
"O  c #0A0B0C",
"+  c #040906",
"@  c #150906",
"#  c #18130A",
"$  c #080A16",
"%  c #150C16",
"&  c #0A131A",
"*  c #091411",
"=  c #161B14",
"-  c #171817",
";  c #0E110C",
":  c #250604",
">  c #26140D",
",  c #381907",
"<  c #221B1B",
"1  c #241C18",
"2  c #2E0E10",
"3  c #162018",
"4  c #0F201C",
"5  c #262519",
"6  c #3A2219",
"7  c #3A371B",
"8  c #2E280E",
"9  c #040A21",
"0  c #161827",
"q  c #131A31",
"w  c #201E31",
"e  c #182626",
"r  c #162A36",
"t  c #1D3038",
"y  c #23252D",
"u  c #272828",
"i  c #362D24",
"p  c #2B322A",
"a  c #37362B",
"s  c #262B36",
"d  c #2B3334",
"f  c #283538",
"g  c #343737",
"h  c #302E31",
"j  c #4A1A08",
"k  c #562C1D",
"l  c #4D2C10",
"z  c #69340C",
"x  c #673419",
"c  c #773914",
"v  c #682D07",
"b  c #453628",
"n  c #583C28",
"m  c #513D34",
"M  c #513126",
"N  c #613726",
"B  c #6E3D30",
"V  c #34443B",
"C  c #784119",
"Z  c #494727",
"A  c #565626",
"S  c #46463A",
"D  c #5E493B",
"F  c #595A3A",
"G  c #574E2A",
"H  c #69462A",
"J  c #774A28",
"K  c #64552A",
"L  c #7E552B",
"P  c #79553A",
"I  c #6C4D36",
"U  c #746C39",
"Y  c #7C7B26",
"T  c #4B4712",
"R  c #193348",
"E  c #272C46",
"W  c #393946",
"Q  c #363A55",
"!  c #2A3653",
"~  c #3A3D67",
"^  c #473C6D",
"/  c #1D455D",
"(  c #394A48",
")  c #234558",
"_  c #3A4258",
"`  c #344D4A",
"'  c #244B6A",
"]  c #3C4968",
"[  c #35556B",
"{  c #384876",
"}  c #2A5775",
"|  c #38597B",
" . c #26536D",
".. c #316179",
"X. c #45484B",
"o. c #584B47",
"O. c #5E594E",
"+. c #4C4956",
"@. c #485655",
"#. c #575857",
"$. c #44514F",
"%. c #66584A",
"&. c #6A544B",
"*. c #49615B",
"=. c #5A655B",
"-. c #676948",
";. c #766B54",
":. c #464765",
">. c #4A576D",
",. c #434776",
"<. c #475676",
"1. c #565879",
"2. c #5A5468",
"3. c #586766",
"4. c #59756D",
"5. c #586A77",
"6. c #4B6B73",
"7. c #61686B",
"8. c #777869",
"9. c #656875",
"0. c #637676",
"q. c #767669",
"w. c #854824",
"e. c #85502D",
"r. c #8B5D39",
"t. c #90553F",
"y. c #8A663D",
"u. c #966338",
"i. c #99703C",
"p. c #AB6D39",
"a. c #977A4A",
"s. c #996553",
"d. c #8D6D4C",
"f. c #A97748",
"g. c #AB714B",
"h. c #9E7662",
"j. c #A57E66",
"k. c #8B5846",
"l. c #788179",
"z. c #968A5B",
"x. c #91915D",
"c. c #B8934C",
"v. c #8E837C",
"b. c #938977",
"n. c #939069",
"m. c #B69669",
"M. c #9FA679",
"N. c #B5AA75",
"B. c #C49757",
"V. c #CC8B58",
"C. c #CB9A66",
"Z. c #D19B67",
"A. c #D3AE70",
"S. c #EABC70",
"D. c #DCC279",
"F. c #3E5F82",
"G. c #386C88",
"H. c #316D91",
"J. c #387497",
"K. c #2A6382",
"L. c #3D7CA1",
"P. c #595C82",
"I. c #605C85",
"U. c #466988",
"Y. c #576989",
"T. c #467698",
"R. c #52778E",
"E. c #6E7690",
"W. c #5F5CA1",
"Q. c #7177A4",
"!. c #3E84AD",
"~. c #3F8AB8",
"^. c #748887",
"/. c #708B8D",
"(. c #438BB5",
"). c #4692BD",
"_. c #4182A5",
"`. c #7F8DB9",
"'. c #77AABD",
"]. c #4D98C5",
"[. c #4F9ECF",
"{. c #52A9DC",
"}. c #55A6D8",
"|. c #53A6D6",
" X c #59B6ED",
".X c #5BB8EF",
"XX c #58B3E9",
"oX c #55B9F4",
"OX c #5CBCF4",
"+X c #5CBFF8",
"@X c #54AFE5",
"#X c #62B6E7",
"$X c #62BEF2",
"%X c #5EC1F7",
"&X c #5DC2FC",
"*X c #5EC9FF",
"=X c #74C4ED",
"-X c #61C5FD",
";X c #64CBFF",
":X c #69C4F6",
">X c #78CEFA",
",X c #6AD3FF",
"<X c #74D1FF",
"1X c #969A85",
"2X c #8C8A93",
"3X c #B29B9E",
"4X c #9AA389",
"5X c #8BA59F",
"6X c #BDB289",
"7X c #ACAD97",
"8X c #979FB5",
"9X c #8589AD",
"0X c #8AA9A6",
"qX c #8FA3BA",
"wX c #A5ABAF",
"eX c #CBB08C",
"rX c #E9B388",
"tX c #BEC086",
"yX c #BCC5B4",
"uX c #C9C28E",
"iX c #D9D39B",
"pX c #D3C690",
"aX c #F2D193",
"sX c #FFE496",
"dX c #CCD0AC",
"fX c #F1ECB5",
"gX c #F5D3AC",
"hX c #929DC3",
"jX c #9693DA",
"kX c #9CAAD7",
"lX c #AFB6CB",
"zX c #A8D0CE",
"xX c #B3D8D0",
"cX c #83CBEC",
"vX c #8CD7F5",
"bX c #AEDCE2",
"nX c #9AE3FF",
"mX c #E7DEC3",
"MX c #E5E6C8",
"NX c #FDF5CC",
"BX c #F0FFFC",
"VX c #DCD2C3",
/* pixels */
"OXOXOXOXOXOXOXOXOXOXOXOXOXOXOXOXOXOXOXOXOXOXOXOXOXOXOXOXOXOXOXOXOXOXOXOXOXOXOXOXOXOXOXOXOXOXOXOXOXOXOXOXOXOXOX",
"OXOXOXOXOXOXOXOXOXOX+XOXOXOXOXOXOXOXOXOXOXOXOXOXOXOX X XOX.XOXOXOXOXOXOXOXOXOXOXOXOXOXOXOXOXOXOXOXOXOXOXOXOXOX",
"OXOXOXOXOXOXOXOXOXOXOXOXOXOXOXOXOXOXOXOXOXOXOXOX.XOX*X<X*X*XOXOXOXOXOXOXOXOXOXOXOXOXOXOXOXOXOXOXOXOXOXOXOXOXOX",
"OXOXOXOXOXOXOXOXOXOXOXOXOXOXOXOXOXOXOXOXOXOXOX.X*X#X5.b.0.5.$X&XOXOXOXOXOXOXOXOXOXOXOXOXOXOXOXOXOXOXOXOXOXOXOX",
"OXOXOXOXOXOXOXOXOXOXOXOXOXOXOXOXOXOXOXOXOXOXOX:X5.%.g.e.C r.O.R.:XOX$XOXOXOXOXOXOXOXOXOXOXOXOXOXOXOXOXOXOXOXOX",
"OXOXOXOXOXOXOXOXOXOXOXOXOXOXOXOXOXOXOXOXOXOX$X7.v c u.C.r.C c z Y.-XOXOXOXOXOXOXOXOXOXOXOXOXOXOXOX+XOXOXOXOXOX",
"OXOXOXOXOXOXOXOXOXOXOXOXOXOX+XOXOXOXOXOX.X;X>.j f.Z.Z.s.J v V.Z.v R.*X.XOXOXOXOXOXOXOXOXOXOXOXOXOXOXOXOXOXOXOX",
"OXOXOXOXOXOXOXOXOXOXOXOXOXOXOXOXOXOX%XOX;X#Xm a.m.c w.k y.g.t.B.B.7.#XOXOXOXOX+X*X%XOXOXOXOXOXOXOXOXOXOXOXOXOX",
"OXOXOXOXOXOXOXOXOXOXOXOXOXOXOXOXOXOXOX%X{.&.V.g.v u.I y.c.p.rXs.a.L G.;X XOX+X#XL.{.+XOXOXOXOXOXOXOXOXOXOXOXOX",
"+XOXOXOXOXOXOXOXOXOXOXOXOXOXOXOXOXOXOX%X[.&.g.w.B.C.u.Z.B.c.p.A.f.: J.*X X+X XE.< !.;XOXOXOXOXOXOXOXOXOXOXOXOX",
"OXOXOXOXOXOXOXOXOXOXOXOXOXOXOXOXOXOXOXoX<XU.@ Z.Z.B p.p.j m.c.B rXJ T.;X+X@XE.W }  X%XOXOXOXOXOXOXOXOXOXOXOXOX",
"OXOXOXOXOXOXOXOXOXOXOXOXOXOXOXOXOXOXOXoXnXq.I i.j < I e.M % s.2 x C 3 ].{.3.2X/ $X$XOXOXOXOXOXOXOXOXOXOXOXOXOX",
"OXOXOXOXOXOXOXOXOXOXOXOXOXOXOXOXOXOXOXOX..m P v l `.o.c.c.^ /.w.a.. o.q - 1X[ +X+XOXOXOXOXOXOXOXOXOXOXOXOXOXOX",
"OXOXOXOXOXOXOX+XOXOXOXOXOXOXOXOXOXOX*X[.& > > r.y.VXm.sXaX3XdXe.d.0 E Q O r ;XOX+XOXOXOXOXOXOXOXOXOXOXOX+XOXOX",
"OXOXOXOXOXOXOXOXOX+XOXOXOXOXOXOXOXOXOX&X].' 4   I S.sXD.aXsXA.H 2Xv.# s Y.Q (.;X XOXOXOXOXOXOXOXOXOXOXOXOXOXOX",
"OXOXOXOXOXOXOXOXOXOXOXOXOXOXOXOXOXOXOX&X#X'.3.X   &.gXD.eXD.M 2.$.A d.a s h g (.-XOXOXOXOXOXOXOXOXOXOXOXOXOXOX",
"OXOXOX+XOXOXOXOXOXOXOXOXOXOXOXOXOX$X#X0X7XuXpXU = +.&.aXrXK >.,.= x.iXpX=.G.@ } ;XOXOXOXOXOXOXOXOXOXOXOXOXOXOX",
"OXOXOXOXOXOXOXOXOXOXOXOXOXOXOXOXOXcX4XeXfXfXfXz.= | +.k N % Q 9 7 eXfXfXMX$X(.@X%XOXOXOXOXOXOXOXOXOXOXOXOXOXOX",
"OXOXOXOXOXOXOXOXOXOXOXOXOXOXOXOX&X*.6XiXeXx.G N.1Xf 0 n m.# h dXN.z.F M.6X@.;X%XOXOXOXOXOXOXOXOXOXOXOXOXOXOXOX",
"OXOXOXOXOXOXOXOXOXOXOXOXOXOXOXOX%Xt eXN.M.BXM.U i 8.f 0 @ s 1Xb.7 Y yXBXq.y %XOXOXOXOXOXOXOXOXOXOX+XOXOXOXOXOX",
"OXOXOXOXOXOXOXOXOXOXOXOXOXOXOXOX*Xr z.a.O./.dXNX= $ wX9.  wXs % O.NX4Xl.Z r ;XOXOXOXOXOXOXOXOXOXOXOXOXOXOXOXOX",
"OXOXOXOXOXOXOXOXOXOXOXOXOXOXOX%XL.8.U K l I %.O.1.  ;.h.  7Xy ~ 9.F q.Z T q.L.&XOXOXOXOXOXOXOXOXOXOXOXOXOXOXOX",
"OXOXOXOXOXOXOXOXOXOXOXOXOXOXOX;XR M.fXuXdXfX6X; Q 9Xq.+.0 2Xl.E W   M.fXiXb.R ;X XOXOXOXOXOXOXOXOXOXOXOXOXOXOX",
"OXOXOXOXOXOXOXOXOXOXOXOXOXOXOXOX{.e p S S p h - o W < E.I.< W 0   o = S a t }.+XOXOXOXOXOXOXOXOXOXOXOXOXOXOXOX",
"OXOXOXOX+XOXOXOXOXOXOXOXOXOXOXOX-X| $ <.E     y 9.Q A Z F 5 ( P.q   o E >.Q.T.&XOXOXOXOXOXOXOXOXOXOXOXOXOXOXOX",
"OXOXOXOXOXOXOXOXOXOXOXOXOXOXOXOX.X X{ P.~ E o +   a x.7 S x.5   + o E { <.9XF.&XOXOXOXOXOXOXOXOXOXOXOXOXOXOXOX",
"OXOXOXOXOXOXOXOXOXOXOXOXOXOXOXOX$X X<.hX<.<.q o y Z h.O.#.d.Z e $   % 5.8Xh [ *XOXOXOXOXOXOXOXOXOXOXOXOXOX+XOX",
"OXOXOXOXOXOXOXOXOXOXOXOXOXOXOXOX+X X] 8XqXY.y   Q.:.W dXuXs P.E.    1 g #.7 ! ;XOXOXOXOXOXOXOXOXOXOXOXOXOXOXOX",
"OXOXOXOXOXOXOXOXOXOXOXOXOXOXOXOXOX Xr w W s & 0 1.kXs 1 = Q kX<.s   7 # l.Z 4.&X=X$XOX$XOXOX+XOXOXOXOXOXOXOXOX",
"+XOXOXOXOXOXOXOXOXOXOXOXOXOXOXoX+X Xq o o.%.  ! ' E.y   o ! Q.{ ]   X X V _ /.&X:X$XOXOXOXOXOXOXOXOXOXOXOXOXOX",
"OXOXOXOXOXOXOXOXOXOXOXOXOXOXOX+X=Xg $ :.X.u O _ <.]   +.f _ 6.| :.    $ ,.- { &XbXcXoXOXOXOXOXOXOXOXOXOXOXOXOX",
"OXOXOXOXOXOXOXOXOXOXOXOXOXOXoX@X` G % 0 ! 5.n.i `._   :.Q _ >.8X~   y # Q 2.U.&X$XOXOXOXOXOXOXOXOXOXOXOXOXOXOX",
"OXOXOXOXOXOXOXOXOXOXOXOXOX.X;X .8 A.&.+.U.9 z.m 9X<.  u e Q W.jXP.o D -.F W U.vX=XoXOXOXOXOXOXOXOXOXOXOXOXOXOX",
"OXOXOXOXOXOXOXOXOXOXOXOX+XOX<X' H S.P $ X.B C.b 9X>.  .   v.dXMXxX1.$ F -.r >XbX>XoXOXOXOXOXOXOXOXOXOXOXOXOXOX",
"OXOXOXOXOXOXOXOXOXOXOXOXOX.X<XT.;.o.[   D sXy.O 9X>..   %.=.-.F 1XlXw   } (.OXOXoXOXOXOXOXOXOXOXOXOXOXOXOX+XOX",
"OXOXOXOXOXOXOXOXOXOXOXOXOXOXOX#X}.~.%XT.n y.> 9.lX>.    n =     @ v.S K.,X-XOXOXOXOXOXOXOXOXOXOXOXOXOXOXOXOXOX",
"OXOXOXOXOXOXOXOXOXOXOXOXOXOXOXOX%X*XOX;XU.  ;.MXMX4X  +   + @ @ X - + ].*X XOXOXOXOXOXOXOXOXOXOXOXOXOXOXOXOXOX",
"OXOXOXOXOXOXOXOXOXOXOXOXOXOXOXOXOXOX.X*X~.o M H , > ;   2 > k x N 2 $ ].+XOXOXOXOXOXOXOXOXOXOXOXOXOXOXOXOXOXOX",
"OXOXOXOXOXOXOXOXOXOXOXOXOXOXOXOXOXOXOX X<X6., C z H u @ @ 2 z w.P j J.;X XOXOXOXOXOXOXOXOXOXOXOXOXOXOXOX+XOXOX",
"OXOXOXOXOX+XOXOXOXOXOXOXOXOXOXOXOXOXOXOX>X'.i t.s.k.: @ @ 1 L u.z.l H.;XOXOXOXOXOXOXOXOXOXOXOXOXOXOXOXOXOXOXOX",
"OXOXOXOXOXOXOXOXOXOXOXOXOXOXOXOXOXOXOX.X*X).* n f.P C . b i M x l . J.;XOXOXOXOXOXOXOXOXOXOXOXOXOXOXOXOXOXOXOX",
"OXOXOXOXOXOXOXOXOXOXOXOXOXOXOXOXOXOXOX*X(.a > D k &.> X < ( + - s   L.;X.XOXOXOXOXOXOXOXOXOXOXOXOXOXOXOXOXOXOX",
"OXOXOXOXOXOXOXOXOXOX+XOXOXOXOXOXOXOX.X;XH.u 3.u X - u u u 4.*.*.9.u J.%XOXOXOXOXOXOXOXOXOXOXOXOXOXOXOXOXOXOXOX",
"OXOXOXOXOX+XOXOXOXOXOXOXOXOXOXOXOX%X X;XH.g 0.V 4 X./.f d 3.#.$.#.d   ].&XOXOXOXOXOXOXOXOXOXOXOXOXOXOXOXOXOXOX",
"OXOXOXOXOXOXOXOXOXOXOXOXOXOXOXOX.X%X.X*X~.6.5X*.* 0.l.* 3.4.O   g ^.# (.-X XOXOXOXOXOXOXOXOXOXOXOXOXOXOXOXOXOX",
"OXOXOXOXOXOXOXOXOXOXOXOXOXOXOXOX%X.XOX X,X} V /.e *.* = ( 0X0.; f /...|.-XOXOXOXOXOXOXOXOX+XOXOX+XOXOXOXOXOXOX",
"OXOXOXOXOXOXOXOXOXOXOX+XOXOXOXOX%XoX%XXX,X..    O   4 3 < #.#.  O   _.,XOXOXOXOXOXOXOXOXOXOXOXOXOXOXOXOXOXOXOX",
"OXOXOXOXOXOXOXOXOXOXOXOXOXOXOXOX.X%XoX%X*X..  - e -     - + f $.g   J.;XOXOXOXOXOXOXOXOXOXOXOXOXOXOXOXOXOXOXOX",
"OXOXOXOXOXOXOXOXOXOXOXOX+XOXOXOXOXOXOX X;X} p 4.` e *   S 6 @.4.` X J.%XOXOXOXOXOXOXOXOX+XOXOXOXOXOXOXOXOXOXOX",
"OXOXOXOXOXOXOXOXOXOXOXOXOXOXOXOXOXOXOX.X;X} l.xX4.4 ;   &.d.@   - h.l ~.-XOXOXOXOXOXOXOXOXOXOXOXOXOXOXOXOXOXOX",
"OXOXOXOXOXOXOXOXOXOXOXOXOXOXOXOXOXOXOXOX*XR.i g p = r   m 1 - u ; 6 2.[.OXOXOXOXOXOXOXOXOXOXOXOXOXOXOXOXOXOXOX",
"OXOXOX+XOXOXOXOXOXOXOXOXOXOXOXOXOXOXOXOX;X_.)  ./ J.|.e     @.3.X.# [ %X%XOXOXOXOXOXOXOXOXOXOXOXOXOXOXOX+XOXOX",
"OXOXOXOXOXOXOXOXOXOXOXOXOXOXOXOXOXOXOXOXOX%X;X;X;X%X;XG.  f 0XzXzXxX=.) XX+XOXOXOXOXOXOXOXOXOXOXOXOXOXOXOXOXOX",
"+XOXOXOXOXOXOXOXOXOXOXOXOXOXOXOXOXOXOXOXOXOX.XOX.X.X%X{.r X.@.$.@.( #.3 [.&XOXOXOXOXOXOXOXOXOXOXOXOXOXOXOXOXOX",
"OXOXOXOXOXOXOXOXOXOXOXOXOXOXOXOXOXOXOXOXOXOXOXOXOXOXOX*X Xt           _.+XOXOXOXOXOXOXOXOXOXOXOXOXOXOXOXOXOXOX"
};
