/* XPM */
static char *player32[] = {
/* columns rows colors chars-per-pixel */
"55 55 233 2 ",
"   c #010102",
".  c #0C0101",
"X  c #0A0A05",
"o  c #02030B",
"O  c #050B0B",
"+  c #0A0B0B",
"@  c #060708",
"#  c #140403",
"$  c #120D0C",
"%  c #1B0A06",
"&  c #0B100E",
"*  c #18130C",
"=  c #0B0C14",
"-  c #070917",
";  c #170D18",
":  c #0C1313",
">  c #0A161B",
",  c #121514",
"<  c #141C1B",
"1  c #161916",
"2  c #220C09",
"3  c #260900",
"4  c #330D02",
"5  c #25120A",
"6  c #361807",
"7  c #281A16",
"8  c #321F12",
"9  c #18211D",
"0  c #372506",
"q  c #2E271C",
"w  c #392218",
"e  c #3A3818",
"r  c #0D1225",
"t  c #111C25",
"y  c #161827",
"u  c #161C35",
"i  c #0C0E22",
"p  c #192128",
"a  c #142934",
"s  c #152835",
"d  c #18313D",
"f  c #252829",
"g  c #382B28",
"h  c #2A312D",
"j  c #232434",
"k  c #2F3633",
"l  c #363A38",
"z  c #4B0D00",
"x  c #4A1B06",
"c  c #541B01",
"v  c #471E14",
"b  c #49260C",
"n  c #56260B",
"m  c #472519",
"M  c #572615",
"N  c #46301D",
"B  c #672C0C",
"V  c #622A13",
"C  c #6D3415",
"Z  c #6A361B",
"A  c #723B19",
"S  c #49382C",
"D  c #593B2C",
"F  c #493936",
"G  c #492E2A",
"H  c #653925",
"J  c #723E28",
"K  c #36413F",
"L  c #4A491C",
"P  c #76431C",
"I  c #7A431A",
"U  c #744310",
"Y  c #66450E",
"T  c #474327",
"R  c #5B4926",
"E  c #58493B",
"W  c #674828",
"Q  c #7A4827",
"!  c #785338",
"~  c #1B3545",
"^  c #213C4E",
"/  c #2A364A",
"(  c #2D3A5A",
")  c #343757",
"_  c #313146",
"`  c #303969",
"'  c #3A4341",
"]  c #3D4844",
"[  c #234559",
"{  c #254C62",
"}  c #2A546B",
"|  c #2C5A75",
" . c #35446E",
".. c #34637C",
"X. c #2F627E",
"o. c #4A4B42",
"O. c #5C5240",
"+. c #494A59",
"@. c #4B5355",
"#. c #59565A",
"$. c #564E50",
"%. c #745544",
"&. c #605043",
"*. c #6B6647",
"=. c #7A7856",
"-. c #6F6B55",
";. c #4A5869",
":. c #49526F",
">. c #576568",
",. c #5C6C70",
"<. c #676669",
"1. c #7A7668",
"2. c #6C7876",
"3. c #634E6D",
"4. c #8C532E",
"5. c #8A5633",
"6. c #925938",
"7. c #884F31",
"8. c #966438",
"9. c #897039",
"0. c #A26C38",
"q. c #AE7F3F",
"w. c #835C41",
"e. c #8B6546",
"r. c #966449",
"t. c #837847",
"y. c #886B55",
"u. c #8F7355",
"i. c #A8744D",
"p. c #AA7654",
"a. c #B77E51",
"s. c #857C70",
"d. c #8A8249",
"f. c #B9874A",
"g. c #BA825C",
"h. c #868468",
"j. c #928E76",
"k. c #979774",
"l. c #8D8D6F",
"z. c #B8896A",
"x. c #A59569",
"c. c #A79278",
"v. c #A4A575",
"b. c #C18C5D",
"n. c #C69B6B",
"m. c #C69876",
"M. c #C1876A",
"N. c #D5A46B",
"B. c #D6B175",
"V. c #E4B579",
"C. c #F0B278",
"Z. c #356B8B",
"A. c #336584",
"S. c #346E91",
"D. c #397596",
"F. c #316C8E",
"G. c #4F5D84",
"H. c #535B86",
"J. c #587E96",
"K. c #487A94",
"L. c #6A7094",
"P. c #62678F",
"I. c #7379AB",
"U. c #6C72A6",
"Y. c #3E8AB6",
"T. c #3F81A6",
"R. c #59839B",
"E. c #778494",
"W. c #6E8597",
"Q. c #4082A8",
"!. c #4785A9",
"~. c #448BB5",
"^. c #478DB7",
"/. c #4792BD",
"(. c #5B97BA",
"). c #7885AA",
"_. c #7A87B3",
"`. c #7C90AD",
"'. c #4D9DCC",
"]. c #4996C2",
"[. c #559CC5",
"{. c #5DA3CA",
"}. c #4EA1D2",
"|. c #54A8D9",
" X c #53A9D3",
".X c #6CADD1",
"XX c #5AB7EC",
"oX c #5BB8EF",
"OX c #55B2E6",
"+X c #56B9F3",
"@X c #5CBCF4",
"#X c #5CBFF8",
"$X c #56B6F0",
"%X c #4EBAFD",
"&X c #64BEF3",
"*X c #69BCEB",
"=X c #5EC2FB",
"-X c #5CC5FC",
";X c #61C5FD",
":X c #63CAFF",
">X c #69C7F9",
",X c #79CAF6",
"<X c #65D1FF",
"1X c #68D2FF",
"2X c #74D3FF",
"3X c #75C4ED",
"4X c #AAA587",
"5X c #B6B28D",
"6X c #919FBA",
"7X c #98A6A8",
"8X c #BCB9A8",
"9X c #A8B8AF",
"0X c #D1B68C",
"qX c #C8BAAC",
"wX c #D3CB98",
"eX c #F4D097",
"rX c #FBE09B",
"tX c #E5DBB8",
"yX c #E9DAAA",
"uX c #EBE2B4",
"iX c #FAF7B8",
"pX c #F7E4BF",
"aX c #ADBEC8",
"sX c #AEC5CC",
"dX c #88D3F8",
"fX c #9CD5ED",
"gX c #A8DFFB",
"hX c #8EE2FE",
"jX c #FCF9C8",
"kX c #FAF9D9",
"lX c #F0EFC1",
"zX c #CCDFE0",
"xX c #EAF3E6",
/* pixels */
"@X@X@X@X@X@X@X@X@X@X@X@X@X@X@X@X@X@X@X&X@X@X@X@X@X@X@X@X@X@X@X@X@X@X@X@X@X@X@X@X@X#X@X@X@X@X@X@X@X@X@X@X@X@X@X",
"@X@X@X@X@X@X@X@X@X@X@X@X@X@X@X@X@X@X@X#X@X@X@X@X@X@X@X@X@X@X@X@X@X@X@X@X@X@X@X@X@X@X@X@X@X@X@X@X#X@X@X@X@X@X@X",
"@X@X@X@X@X@X@X@X@X@X@X@X@X@X@X@X@X@X@X@X@XoXoX@X@X@X@X@X@X@X@X@X@X@X@X@X@X@X@X@X@X@X@X@X@X@X@X&X@X@X@X@X@X@X@X",
"@X@X@X@X@X@X@X@X@X#X@X@X@X@X@X@X@X@X@X@X@X=X;X@X@X@X@X@X@X@X@X@X@X@X@X@X@X@X@X@X@X@X@X@X@X@X@X@X@X@X@X@X@X@X@X",
"@X#X@X@X@X@X@X@X@X@X@X@X@X@X@X@X@X@X&X@X;X(.#.*X>XoX@X@X@X@X@X@X@X@X@X@X@X@X@X@X@X@X@X@X@X@X@X@X@X@X@X@X@X@X@X",
"@X@X@X@X@X@X@X@X@X@X@X@X@X@X@X@X@X+X>XaX&.! a.e.-.zX*XXX@X@X@X@X@X@X@X#X@X@X@X@X@X@X@X@X@X@X@X@X@X@X@X@X@X@X@X",
"@X@X@X@X@X@X@X@X@X@X@X@X@X@X$X@X$X;X.Xw.b.4.0.A b.m.b K.<X;X@X@X@X@X@X@X@X@X@X@X@X@X@X@X@X@X#X@X@X@X@X@X@X@X@X",
"@X@X@X@X@X@X@X@X@X@X@X@X@X@X&X$XgXxXm.n J M.7.6.r.w.z @.[.(.oX@X@X@X@X@X@X@X@X@X@X@X@X@X@X@X@X@X@X@X@X#X@X@X@X",
"@X@X@X@X@X@X@X@X@X#X@X@X@X@X@X;XaXB.4.4.i.N.q.V.n.C 8.P x 3 }.&XoX@X@X@X@X@X@X@X@X@X@X@X@X@X@X@X@X@X@X@X@X@X@X",
"@X@X@X@X@X@X@X@X@X@X@X@X@X@X@X%X7X8.f.N.V.N.rXb.A I i.4.V 4X2X#X@X@X@X@X@X@X@X@X@X@X@X@X@X#X@X@X@X@X@X@X@X@X@X",
"@X@X@X@X@X@X@X@X@X@X@X@X@X@X+XdXqXC 0.C.8.C 4.4.i.J z.7.3 $.;.| ;X@X@X@X@X@X@X@X@X@X@X@X@X@X@X@X@X@X@X@X@X@X@X",
"@X@X@X@X@X@X@X@X@X@X@X@X@X@X$XdX-.x I eX0XB.N.0.N.Y 0.6.m X , ].@X@X@X@X@X@X@X@X@X@X@X@X@X@X@X@X@X@X@X@X@X@X@X",
"@X@X#X@X@X@X@X@X@X@X@X@X@X@X@X;X2.x n D D W 7.M.W b n A n (.;X&X@X@X@X@X@X@X@X@X@X@X@X@X@X@X@X@X@X@X@X@X@X@X@X",
"@X@X@X@X@X@X@X@X@X@X@X@X@X@X@X@X>X,.w g - G B C u.2 v M x E.].;X@X@X@X@X@X@X@X@X@X@X@X@X@X@X@X@X@X@X@X@X@X@X@X",
"@X@X@X@X@X@X@X@X@X@X@X@X@X@X#X@X#XOXl 5X1.s.M C 8.; o 5 b % F K.;X@X@X@X@X@X@X@X@X#X@X@X@X@X@X@X@X@X@X@X@X@X@X",
"@X@X@X@X@X@X@X@X@X@X@X@X@X@X@X@X#XXX4XtXtX0Xu.Z .   X 0 b % #.S.#X@X@X@X@X@X@X@X@X@X@X@X@X@X@X@X@X#X@X@X@X@X@X",
"@X@X@X@X@X@X@X@X@X@X@X@X@X@X@X@X@X&XxXkXjXrX%.# s.4Xd.9.R # > >X@X@X@X@X@X@X@X@X@X@X@X@X@X@X&X@X@X@X=X@X@X@X@X",
"@X@X@X@X@X@X@X@X@X@X@X@X@X@X@X@X@X@X*XfXtXn.w k.kXkXiXwXd.T p OX#X@X@X@X@X@X@X@X@X@X@X@X@X@X#X@X@X@X@X@X@X@X@X",
"@X@X#X@X@X@X@X@X@X@X@X@X@X@X@X@X@X+X-X~.0 3 #.xXiXiXjXuXwX=.l./ XX#X+X#X@X@X@X@X@X@X@X@X@X@X@X@X@X@X@X@X@X@X@X",
"@X@X@X@X@X@X@X@X@X@X@X@X@X@X@X@X@X>X|.*.L r = j.iXpXiXjXwXd.5X. s XX;X@X@X@X@X@X@X@X@X@X@X@X@X@X@X@X@X@X@X@X@X",
"@X@X@X@X@X@X@X@X@X@X@X@X@X@X@X@X@X>X|.k.4Xt <.* =.yXiXwXx.wXh.1 o ~ |.&X@X@X@X@X@X@X@X@X@X@X@X@X@X@X@X@X@X@X@X",
"@X@X@X@X@X@X@X@X@X@X@X@X@X@X@X@X+X#X}.S E   8Xo.  *.t.x.yX=.O :.)   D.:X@X@X@X@X@X@X@X@X@X@X@X@X@X@X@X@X@X@X@X",
"@X@X@X@X@X@X@X@X@X#X@X@X@X@X@X@X@X&XOX&.F *.5X*   h qXyXh.  : 6X).1 D.:XXX@X@X@X@X@X#X@X@X@X@X@X@X@X@X@X@X@X@X",
"@X@X@X@X@X@X@X@X@X@X@X@X@X@X@X@X@XXX~ q 7 e v.v.* X l.j.  o i P.L.j S.;X@X@X@X@X@X@X@X@X@X@X@X@X@X@X@X@X@X@X@X",
"@X@X@X@X@X@X@X@X@X@X@X@X@X@X@X@X@X$Xy j o - o.1.;   + @   . . f k g $ ].-XoX@X@X@X@X@X@X@X@X@X@X@X@X@X@X@X@X@X",
"@X@X@X@X@X@X@X@X@X@X@X@X@X@X@X@X:X/.= u   +._ *.<.o.h o r o $ l.4X4Xq Y.;XoX@X@X@X@X@X@X@X@X@X@X@X@X@X@X@X@X@X",
"@X#X@X&X@X@X@X@X@X@X@X@X@X@X@X@X(.g D g 1 e . 1.lX8X-.r  .u = O.*.*.* ~.;X@X@X@X@X@X@X@X@X@X@X@X@X@X@X@X@X@X@X",
"@X@X@X@X@X@X@X@X@X@X@X@X@X@X@X:X^ ! eXz.7 T   *.=.  - ~ ( / : 1.k.h.7 ~.;X@X@X@X@X@X@X@X@X@X@X@X@X@X@X@X@X@X@X",
"@X@X@X@X@X@X@X@X@X@X@X@X@X@X@X>X^ ! n.y.  u 2.y.o u ;.( ` ) +   * D D {.-X@X@X@X#X@X@X@X@X#X@X@X@X@X@X@X@X@X@X",
"@X@X@X@X@X#X@X@X@X@X@X@X@X@X@X;X[ % 7 %   ; F $   y ` ( ( y $ %.p.C.z.sX-X@X@X@X@X@X@X@X@X@X@X@X@X@X@X@X@X@X@X",
"@X@X@X@X@X@X@X@X@X@X@X@X@X@X@X@XXXs o > o =.W   +.+ > r i   % e.M.C.a.sX;X+X@X@X@X@X@X@X@X@X@X@X@X@X@X@X@X#X@X",
"@X@X@X@X@X@X@X@X@X@X@X@X@X@X@X@X;X@XXX;XF.W H O <.y / ) y : . * y.z.z.sX#X@X@X@X@X@X@X@X@X@X@X@X@X@X@X@X@X&X@X",
"@X@X@X@X@X@X@X@X@X@X@X@X@X@X@X@X@X@X@X;X~.^ ;._ ) ) ` / / ) i       R.2X$X;X@X@X@X@X@X@X@X@X@X@X@X@X@X@X@X@X@X",
"@X@X#X@X@X@X@X@X@X@X@X@X@X#X@X@X@X@X@X+XdXhXhXE g  .G.G.H.G.:.u   a '.=X$X@X@X@X@X@X@X@X@X@X@X@X@X@X@X@X@X@X@X",
"@X@X@X@X@X@X@X@X@X@X@X@X@X@X@X@X@X@X@X@X3XdXE.B 8 +.)._.)._.).;.  ..<X#X-X;X@X@X@X@X@X@X@X@X@X@X@X@X@X@X@X@X@X",
"@X@X@X@X@X@X@X@X@X@X@X@X@X@X@X@X@X@X@X@X$X%X+.z b g G.).W.I.U.7X=...2X{ p [ -X@XoX@X@X@X@X@X@X@X@X@X@X@X@X@X@X",
"@X@X@X@X@X@X@X@X@X@X#X@X@X@X@X@X@X@X@XXX:XJ.M r.Z w g <._.U.7X9X* .....     [ -X;X@X@X@X@X@X@X@X@X@X@X@X@X@X@X",
"@X@X@X@X@X@X@X#X@X@X@X@X@X@X@X@X@X@X@X+X3Xy.Q p.C n z #.6X7X5X$ o O . , @ @   { }.OX&X@X@X@X@X@X@X=X@X@X@X@X@X",
"@X@X@X@X@X@X@X@X@X@X@X@X@X@X@X@X@X@X@X;XJ.c r.8.C c 6 3.P.l.1   % +     @ @   @   ~.:X$X@X@X@X@X@X@X@X@X@X@X@X",
"@X@X@X@X@X@X@X@X@X@X@X@X@X@X@X@X@X@X@X-XJ.c 6.Q B n 4 f y   . 6 b 7     9 l O O   ^.;X@X@X@X@X@X@X@X@X@X@X@X@X",
"@X@X@X@X@X@X@X@X@X@X@X@X@X@X@X@X@X@X@X:XR.B u.I V v #     - # x M 5     O k ' 1   ^.;X@X@X@X@X@X@X@X@X@X@X@X@X",
"@X@X@X@X@X@X@X@X@X@X@X@X@X@X@X@X@X$X;X{.g Q a.A n w   { '.t . m b 4 + < :   k l   ~.:X@X@X@X@X@X@X@X@X@X@X@X@X",
"@X@X@X@X@X@X@X@X@X@X@X@X@X@X@X@X@XXX1X{.4 Q i.A x . ^ =X:X|.t # w v * , 9   + <   ^.;X$X@X@X@X@X@X@X@X@X@X@X@X",
"@X@X@X@X@X@X@X@X@X@X@X@X@X#X@X@X@X=X}.S.% M D n v   [ :XXX;X|.f   * * : <   X.Z.  ^.;X@X@X@X@X@X@X@X@X@X@X@X@X",
"@X@X@X@X@X@X@X@X@X@X@X@X@X@X@X@X=X~.p 1 @ . % 6 8 / A.-X@XoX;X|.^ t   @ X a :XQ.d '.;X@X@X@X@X@X@X@X@X@X@X@X@X",
"@X@X@X@X@X@X@X@X@X@X@X@X@X@X@X@X@Xa ] ' O @ o   > -X:X$X@X@X$X@X1X/.} >   A.@X=X;X@X@X@X@X@X@X@X@X@X@X@X@X@X@X",
"#X@X@X@X@X@X@X@X@X@X@X@X@X@X&X;X:XT.O   f h     Z.@X@X@X@X@X@X@XXX;X1XQ.D.;X@X@X@X@X@X@X@X@X@X@X@X@X@X@X@X@X@X",
"@X@X@X@X@X@X@X@X@X@X@X@X@X;X^.a d  Xt   9 &   + OX=X@X@X@X@X@X@X@X@XoX;X:XoX@X@X@X@X@X@X@X@X@X@X@X@X@X@X@X=X@X",
"@X@X@X@X@X@X@X@X@X@X@XoX;X].O + X : O h K O   T.@X@X@X@X@X@X@X@X@X@X@XoXoX@X@X@X@X@X@X@X@X@X@X@X@X@X@X@X@X@X@X",
"@X@X@X@X@X@X@X@X@X@X@X@X;X~.  K >.9   f K 9 O ].-XoX$X@XoXoXoX@XoXoXoX@X$X@XoXoX@X@X@X@X@X@X@X@X@X@X@X@X@X@X@X",
"@X@X@X@X@X@X@X@X@X@X@X@X;X}.t @ K @.9   & , d OX<X:X:X:X:X:X:X:X:X:X:X:X:X:X<X<X;X@X@X@X@X@X@X@X@X@X@X@X@X@X@X",
"@X@X@X@X@X@X@X@X@X@X@X@X@X;X Xa X < 9 9 :   } D.A.Z.Z.Z.Z.Z.Z.Z.Z.Z.Z.S.Z.| ..} ].;X@X@X@X@X@X@X@X@X@X@X@X@X@X",
"@X@X@X@X@X#X@X@X@X@X@X@X;X'.} d   & & 1 X                               O | ..| [.=X$X@X@X@X@X@X@X@X@X@X@X@X@X",
"@X@X@X@X@X@X@X@X@X@X@X$X;X~.  @       @ @ @ @ O       o     : ~.~.~.~.~./.1X:X:X=X@X@X@X@X@X@X@X@X@X@X@X@X@X@X",
"@X@X@X@X@X@X@X@X@X@X@X@X@X=XA.  @ .           !.}.'.'.'.'.'.}.-X:X;X:X;X:X&X$XoX@X@X@X@X@X@X@X@X@X@X@X@X@X@X@X"
};
