/* XPM */
static char *player37[] = {
/* columns rows colors chars-per-pixel */
"55 55 228 2 ",
"   c #010101",
".  c #0B0202",
"X  c #020903",
"o  c #03020B",
"O  c #050B0B",
"+  c #0B0B0B",
"@  c #080804",
"#  c #130301",
"$  c #190C09",
"%  c #17140B",
"&  c #070418",
"*  c #140E14",
"=  c #0C1313",
"-  c #0D191C",
";  c #0F111A",
":  c #121314",
">  c #141C1C",
",  c #191617",
"<  c #250802",
"1  c #2B160B",
"2  c #3D1903",
"3  c #231C13",
"4  c #281A16",
"5  c #371D18",
"6  c #1C211A",
"7  c #35200C",
"8  c #2D291B",
"9  c #252319",
"0  c #2A210E",
"q  c #191C23",
"w  c #161C2D",
"e  c #0D1B24",
"r  c #221822",
"t  c #261D36",
"y  c #1C262A",
"u  c #172836",
"i  c #242423",
"p  c #2B2B23",
"a  c #272727",
"s  c #293229",
"d  c #37332C",
"f  c #2C2C3C",
"g  c #272836",
"h  c #273235",
"j  c #383936",
"k  c #382E2D",
"l  c #481C06",
"z  c #461F12",
"x  c #552509",
"c  c #522B16",
"v  c #403318",
"b  c #513119",
"n  c #67320D",
"m  c #673617",
"M  c #6C3414",
"N  c #462A25",
"B  c #5F2E2F",
"V  c #4A3428",
"C  c #543A25",
"Z  c #493B33",
"A  c #553D34",
"S  c #633722",
"D  c #3A4530",
"F  c #75401E",
"G  c #73601E",
"H  c #4B422B",
"J  c #53482B",
"K  c #494938",
"L  c #5C4D3D",
"P  c #544835",
"I  c #59513E",
"U  c #6C4226",
"Y  c #684B2B",
"T  c #7D4D2A",
"R  c #755738",
"E  c #6B5632",
"W  c #7D6F32",
"Q  c #19374A",
"!  c #192F40",
"~  c #272546",
"^  c #2B3E49",
"/  c #243857",
"(  c #363A5C",
")  c #383B60",
"_  c #40346A",
"`  c #32494C",
"'  c #2A4355",
"]  c #2F5372",
"[  c #38657E",
"{  c #434642",
"}  c #484A47",
"|  c #454556",
" . c #585855",
".. c #555248",
"X. c #665848",
"o. c #665E52",
"O. c #4A6357",
"+. c #646549",
"@. c #6D6C56",
"#. c #756B5A",
"$. c #747A4E",
"%. c #464D69",
"&. c #475965",
"*. c #55556C",
"=. c #615D78",
"-. c #566A68",
";. c #4A6879",
":. c #546B6F",
">. c #636966",
",. c #686775",
"<. c #65756E",
"1. c #81471E",
"2. c #87532A",
"3. c #875534",
"4. c #935A36",
"5. c #915225",
"6. c #886639",
"7. c #9A6A3B",
"8. c #996339",
"9. c #8A7435",
"0. c #A36D3C",
"q. c #885D41",
"w. c #9A6444",
"e. c #906E4B",
"r. c #886958",
"t. c #8A664A",
"y. c #A6754A",
"u. c #B77448",
"i. c #B57D56",
"p. c #AE6F43",
"a. c #8C7369",
"s. c #A97F64",
"d. c #928B56",
"f. c #A5835A",
"g. c #B8825C",
"h. c #868265",
"j. c #878277",
"k. c #988B77",
"l. c #97936A",
"z. c #B68865",
"x. c #AA9074",
"c. c #9DA87A",
"v. c #B1A976",
"b. c #ACA572",
"n. c #C4955F",
"m. c #C99968",
"M. c #D2976D",
"N. c #DFAA7A",
"B. c #FFD17F",
"V. c #E9CC77",
"C. c #397597",
"Z. c #35698B",
"A. c #3D7CA3",
"S. c #337FB2",
"D. c #557190",
"F. c #717999",
"G. c #6A7491",
"H. c #407DA3",
"J. c #3A82AB",
"K. c #3D8AB8",
"L. c #77929E",
"P. c #738489",
"I. c #4284AC",
"U. c #458CB6",
"Y. c #4991BB",
"T. c #5B93B2",
"R. c #609DA7",
"E. c #76A7B2",
"W. c #4B95C0",
"Q. c #4C9DCD",
"!. c #539AC8",
"~. c #4A9FD3",
"^. c #4DA3D6",
"/. c #56AADA",
"(. c #75ABC5",
"). c #62A9D4",
"_. c #5AB6ED",
"`. c #5BBAEE",
"'. c #59B2E7",
"]. c #55B9F4",
"[. c #5CBCF4",
"{. c #5BBEF8",
"}. c #57BEFF",
"|. c #55AEE1",
" X c #67B9E7",
".X c #64BEF2",
"XX c #5DC1FB",
"oX c #5EC4F9",
"OX c #63C0F6",
"+X c #61C5FE",
"@X c #64CAFF",
"#X c #69CFFF",
"$X c #6CC3F5",
"%X c #71C8F8",
"&X c #79C9F0",
"*X c #8D8E84",
"=X c #A89F8D",
"-X c #8FA18C",
";X c #A6A588",
":X c #B8B989",
">X c #A7A293",
",X c #B2A68E",
"<X c #9599A1",
"1X c #91A1BF",
"2X c #D2B68F",
"3X c #EFBF8A",
"4X c #9BC1B8",
"5X c #CFC996",
"6X c #E1D892",
"7X c #EAE696",
"8X c #DBCCA6",
"9X c #D2CDAC",
"0X c #E4D7B4",
"qX c #EEE8BA",
"wX c #FDF8BA",
"eX c #EAE2A7",
"rX c #939CC9",
"tX c #BBBAC5",
"yX c #89C0DD",
"uX c #BED7C6",
"iX c #83C7EB",
"pX c #8FD8FF",
"aX c #D2EADC",
"sX c #E5E5C8",
"dX c #FCF9C6",
"fX c #FFFFD2",
"gX c #E3DEE6",
"hX c #CBC8CC",
/* pixels */
"[.[.[.[.[.[.[.[.[.[.[.[.[.[.[.{..X[.[.[.[.[.[.[.[.[.[.[.[.[.[.[.[.[.[.[.[.[.[.[.[.[.[.[.[.[.[.[.[.{.[.[.[.[.[.",
"[.[.[.[.[.[.[.[.[.[.[.[.[.[.[.[.{.[.[.[.[.[.[.[.[.[.[.[.[.[.[.[.[.[.[.[.[.[.[.[.[.[.[.[.[.[.[.[.[.[.[.[.[.[.[.",
"[.[.[.[.[.[.[.[.[.[.[.[.[.[.[.[.[.[.[.[.[.[.[.[.[.[.[.[.[.[.[.[.[.[.[.[.[.[.[.[.[.[.[.[.[.[.[.[.[.[.[.[.[.[.[.",
"[.[.[.[.[.[.[.[.[.[.[.[.[.[.[.[.[.[.[.[.[.[.[.[.[.[.[.[..X[.[.[.[.[.[.[.[.[.[.[.[.[.[.[.[.[.[.[.[.[.[.[.[.[.[.",
"[.[.[.[.[.[.[.[.[.[.[.[.[.[.[.[.[.[.[.[.[.[.[.[.[.[.[..X{..X{..X[.{.[..X[.[.[.[.[.[.[.[.[.[.[.[.[.[.[.[.[.[.[.",
"[.[.[.[.[.[.[.[.[.[.[.[.[.[.[.[.[.[.[.[.[.[.[.[.[.{..XiXP.L X.X.P.$X[.].[.[.[.[.[.[.[.[.[.[.[.[.[.[.[.[.[.[.[.",
"[.[.[.[.[.[.[.[.[.[.[.[.[.[.[.[.[.[.[.[.[.[.[.[.{..XL.X.i.p.5.M.u.m D.+XoX[.[.[.[.[.[.[.[.[.[.[.[.[.[.[.[.[.[.",
"[.[.[.[.[.[.[.[.[.[.[.[.[.[.[.[.[.[.[.[.[.[.[.[..XP.T M.5.3.w.w.x 7.g.,X.X[.[.[.[.[.[.[.[.[.[.[.[.[.[.[.[.[.[.",
"[.[.[.[.[.[.[.[.[.[.[.[.[.[.[.[.[.[.[.[.[.[.].XX/.z M 4.g.T g.y.7.2.n.3./.XX_.[.[.[.[.[.[.[.[.[.[.[.[.[.[.[.[.",
"[.[.[.[.[.[.[.[.[.[.[.[.[.{.[.[.[.[.[.[.[.[.[.XXyXS 4.w.z.2.y.7.3Xn.5.T P.{.[.[.[.[.[.[.[.[.[.[.[.[.[.[.[.[.[.",
"[.[.[.[.[.[.[.{.[.[.[.[.[.[.[.[.[.[.[.[.[.[.[._.-.z.2.M n u.p.M.7.8.N.2.Z _.{.[.[.[.[.[.[.[.[.[.[.[.[.[.[.[.[.",
"[.[.[.[.[.[.[.[.[.[.[.[.[.[.[.[.[.[.[.[.[.[.{._.r U 4.4.w.n.1.2Xm l z.Y T.XX[.[.[.[.[.[.[.[.[.[.[.[.[.[.[.[.[.",
"[.[.[.[.[.[.[.[.[.[.[.[.[.[.[.[.[.[.[.[.[.[.[._.; S i.n q.n M z.c A < N '.{.[.[.[.[.[.[.[.[.[.[.{.[.[.[.[.[.[.",
"[.[.[.[.[.[.[.[.[.[.[.[.[.[.[.[.[.[.[.[.[.[.{._.4 Y T l c l x a.r 8 5 Y.+X.X[.[.[.[.[.[.[.[.[.[.[.[.[.[.[.[.[.",
"[.[.[.[.[.[.[.[.[.[.[.[.[.[.[.[.[.[.[.[.[.[.{.].,.M b o q.1.2 L rX=XR K.@X[.[.[.[.[.[.[.[.[.[.[.[.[.[.[.[.[.[.",
"[.[.[.[.[.[.[.[.[.[.[.[.[.[.[.[.[.[.[.[.[.[.[.XX Xl 1   A S x 7.8XqXx.>.iX$X[.[.[.[.[.[.[.[.[.[.[.[.[.[.[.[.[.",
"[.[.[.[.[.[.[.[.[.[.[.[.[.[.[.[.[.[.[.[.[.[.[.[._.D.1 3   # z u.V.wXr.a.iX+X[.[.[.[.[.[.[.[.[.[.[.[..X{.[.[.[.",
"[.[.[.[.[.[.[.[.[.[.[.[.[.[.[.[.[.[.[.[.[.[.[.[.oXQ.@ X.9X;X4 N m.y.;.#XOX[.[.[.[.[.[.[.[.[.[.[.[.[.{.[.[.[.[.",
"[.[.[.[.[.[.[.[.[.[.[.[.[.[.[.[.[.[.[.[.[.[.[.[.@XJ.K dXdXfXsXD.1 < J.oX[.[.[.[.[.[.[.[.[.[.[.[.[.[.[.[.[.[.[.",
"[.[.[.[.[.[.[.[.[.[.[.[.[.[.[.[.[.[.[.[.[.[.[._.@XK.I dXqX0X8Xd * : C.@X`.[.[.[.[.[.[.[.[.[.[.[.[.[.[.[.[.[.[.",
"[.[.[.[.[.[.[.[.[.[.[.[.[.[.[.[.[.[.[.[.[.[.[.[.].[ k.fXdXl.G c.@.t J.@X_.[.[.[.[.[.[.[.[.[.[.[.[.[.[.[.[.[.[.",
"[.[.[.[.[.[.[.[.[.[.[.[.[.[.[.[.[.[.[.[.[.[.[.+X^.9 h.;XwXP 0 5Xd.  ! ^.oX[.[.[.[.[.[.[.[.[.[.[.[.[.[.[.[.[.[.",
"[.[.[.[.[.{.[.[.[.[.[.[.[.[.[.[.[.[.[.[.[.[.[.oX^.8 l.h.d.v V I W 5XH W.+X[.[.[.[.[.[.[.[.[.[.[.[.[.[.[.[.[.[.",
"[.[.[.[.[.[.[.[.[.[.[.[.[.[.[.{.[.[.[.[.[.[.[.+XQ.s 0X8X6XeXb.8 v.+.4 W.XX[.[.[.[.[.[.[.[.[.[.[.[.[.[.[.[.[.[.",
"[.[.[.[.[.[.[.[.[.[.[.[.[.[.[.[.[.[.[.[.[.[.oXXX|.+ o #.5X:XX.3 +.& Z.oX[.[.[.[.[.[.[.[.[.{.[.[.[.[.[.[.[.[.[.",
"[.[.[.[.[.[.[.[.[.[.[.[.[.[.[.[.[.[.[.[.[.[.[.XXU.  t %.w O o ~ |   H.@X_.[.[.[.[.[.[.[.[.[.[.[.[.[.[.[.[.[.[.",
"[.[.[.[.[.[.[.[.[.[.[.[.[.[.[.[.[.[.[.[.[.[.%X(.O - F.D./ &    .$.  J.#X_.[.[.[.[.[.[.[.[.[.[.[.[.[.[.[.[.[.[.",
"[.[.[.[.[.[.[.[.[.[.[.[.[.[.[.[.[.[.[.[.{._.@Xl.. f 1X] ( = h.v.P % -.'.oX[.[.[.[.[.[.[.[.[.[.[.[.[.[.[.[.[.[.",
"[.[.[.[.[.[.[.[.[.[.[.[.[.[.[.[.[.[.[.[..X%XE.L X.q F.F.D.w @.dXL +.I I.+X[.[.[.[.[.[.[.[.[.[.[.[.[.[.[.[.[.[.",
"[.[.[.[.[.[.[.[.[.[.[.[.[.[.[.[.[.[.[.[.`.+X<.1 2X* ; a a.~   K a ) f U.@X[.[.[.[.[.[.[.[.[.[.[.[.[.[.[.[.[.[.",
"[.[.[.[.[.[.[.[.[.[.[.[.[.[.[.[.[.[.[.[.`.@X' f.eXo % l.#.* &..   , @ U.+X[.[.[.[.[.[.[.[.[.[.[.[.[.[.[.[.[.[.",
"[.[.[.[.[.[.[.[.[.[.[.[.[.[.[.[.[.[.[.[.{.R.W 0Xk.  , K =Xp   ( & 9.E J.+X[.[.[.[.[.[.[.[.[.[.[.[.[.[.[.[.[.[.",
"[.[.[.[.[.[.[.[.[.[.[.[.[.[.[.[.[.[.[._.#X<.k.wX3 o f ;X} k Z | ) 6.Y J.+X[.[.[.[.[.[.[.[.[.[.[.[.[.[.[.[.[.[.",
"[.[.[.[.[.[.[.[.[.[.[.[.[.[.[.[.[.[.[.].&XO.;XfX9 ~ ; g %...p s  .4 -.^.{.`.[.[.[.[.[.[.[.[.[.[.[.[.[.[.[.[.[.",
"[.[.[.[.[.[.[.[.[.[.[.[.[.[.[.[.[.[.[.XXR.9.7Xh.* / ~ f a.f.R f :.  J.oX[.[.[.[.[.[.[.[.[.[.[.[.[.[.[.[.[.[.[.",
"oX[.[.[.[.[.[.[.[.[.[.[.[.[.[.[.[.[.[.#XZ.a.dX4 & ( ^   i.6XH = 4   J.oX[.[.[.[.[.[.[.[.[.]..X[.[.[.[.[.[.[.[.",
"[.[.[.[.[.[.[.[.[.[.[.[.[.[.[.[.[.[.]. Xo.b.8X,.q *.G.r  .8 : >.o   C.@X[.[.[.[.[.[.[.[.[.[.[.[.[.[.[.[.[.[.[.",
"[.[.[.[.[.[.[.[.[.[.[.[.[.[.[.[.[.[.+XJ.K wXX.!.uX8 >XtX<XL.%.* $ . H.+X`.[.[.[.[.[.[.[.[.[.[.[.[.[.[.[.[.[.[.",
"[.[.[.[.[.[.[.[.[.[.[.[.[.[.[.[.[.[.+XU.} ,XP._.aXj j :X9XgX-Xv N < :.].].{.[.[.[.[.[.[.[.[.[.[.[.[.{.[.[.[.[.",
"[.[.[.[.[.[.[.[.[.[.[.[.[.[.[.[.[..X[.$X&.' `.].pXhXo # o.a.B t.% 5 x E.%X.X[.[.[.[.[.[.[.[.[.[.[.[.[.[.[.[.[.",
"[.[.[.[.[.[.[.[.[.[.[.[.[.[.[.[.[.[.[.{. X X$X`.@XE.< 7 4 c u.3.. 5 S o. X].[.[.[.[.[.[.[.[.[.[.[.[.[.[.[.[.[.",
"[.[.[.[.[.[.[.[.[.[.[.[.[.[.[.[.[.[.[.[.[.]..XOX.X&.# 5 b y.e.3   5 S l ).+X[.[.[.[.[.[.[.[.[.[.[.[.[.[.[.[.[.",
"[.[.[.[.[.[.[.[.[.[.[.[.[.[.[.[.[.[.[.[.[.[.[.{.Q.. Z P < C 3   o z M m } .X[.[.[.[.[.[.[.[.[.[.[.[.[.[.[.[.[.",
"[.[.[.[.[.[.[.[.[.[.[.[.[.[.[.[.[.[.[.[.[.[.[._.- % #.d j r     % V T y.N '.{.[.[.[..X{.[.[.[.[.[.[.[.[.[.[.[.",
"[.[.[.[.[.[.[.[.[.[.[.[.[.[.[.[.[.[.[.[.[.[.oXoX- : 6 6 y d + O +   v S ' [..X[.{.[.[.[.[.[.[.[.[.[.[.[.[.[.[.",
"{.[.[.[.[.[.[.[.[.[.[.[.[.[.[.[.[.[.[.[.[.[.oXC.= s >.-.<.D = > a ^ 5 ^ ]..X[.[.[.[.[.[.[.[.[.[.[.[.[.[.[.[.[.",
"[.[.[.[.[.[.[.[.[.[.[.[.[.[.[.[.[.[.[.[.[.[.oXu = h -.O.O.%   + > s ] '.{.[.[.[.[.[.[.[.[.[.[.[.[.[.[.[.[.[.[.",
"[.[.[.[.[.[.[.[.[.[.[.[.[.[.[.{.[.[.[.[.[.[.oXY.: X O.4X1Xh   @   Q `.oX[..X[.[.[.[.[.[.[.[.[.[.[.[.[.[.[.[.[.",
"[.[.[.[.[.[.[.[.[.[.[.[.[.[.[.[.[.[.[.[.[.[.+X]   O - s :.y   N C ] #X`.oX[.[.[.[.[.[.[.[.[.[.[.[.[.[.[.[.[.[.",
"[.[.[.[.[.[.[.[.[.[.[.[.[.[.[.[.[.[.[.[.[.[.XXY.- { >.{ } ; . #.b [ @X`.].[.[.[.[.[.[.[.[.[.[.[.[.[.[.[.[.[.[.",
"[.[.[.[.[.[.[.[.[.[.[.[.[.[.[.[.[.[.[.[.[.[.XXu   d K k $ o . +   ' `.oX].[.[.[.[.[.[.[.[.[.[.[.[.[.[.[.[.[.[.",
"[.[.[.[.[.[.[.[.[.[.[.[.[.[.[.[.[.[.[.[.[.[.[.C.: j + #.V   o : i + Q _.oX`.[.[.[.[.[.[.[.[.[.[.[.[.[.[.[.[.[.",
"[.[.[.[.[.[.[.[.[.[.[.[.[.[.[.[.[.[.[.[.[.[.{.Z.= @ 9 Z $   X o O X   Y.@X_.{.[.[.[.[.[.[.[.[.[.[.[.[.[.[.[.[.",
"[.[.[.[.[.[.[.[.[.[.[.[.[.[.[.[.[.[.[.[.[.[.XXu % y = i 6   O   ! Y.I.|.[.[.[.[.[.[.[.[.[.[.[.[.[.[.[.[.[.[.[.",
"[.[.[.[.oX[.[.[.[.[.[.[.[.[.[.[.[.[.[.[.[.[.oX^.- : y u ` -X% e '.@X+XoX[.[.[.[.[.[.[.[.[.[.[.[.[.{.[.[.[.[.[."
};
