/* XPM */
static char *player40[] = {
/* columns rows colors chars-per-pixel */
"55 55 229 2 ",
"   c #020102",
".  c #0B0302",
"X  c #030902",
"o  c #0D0A04",
"O  c #03050A",
"+  c #050A0C",
"@  c #0B0B0C",
"#  c #08060B",
"$  c #170C07",
"%  c #0C110D",
"&  c #18150D",
"*  c #040212",
"=  c #0B0D13",
"-  c #070B16",
";  c #150D16",
":  c #0D131C",
">  c #081517",
",  c #141413",
"<  c #161D1C",
"1  c #181819",
"2  c #270801",
"3  c #241106",
"4  c #271B18",
"5  c #381B14",
"6  c #341000",
"7  c #1D221F",
"8  c #07221D",
"9  c #2B251A",
"0  c #33291B",
"q  c #37371C",
"w  c #2F2B0B",
"e  c #0C0C25",
"r  c #051B28",
"t  c #171A27",
"y  c #191A38",
"u  c #241B23",
"i  c #182529",
"p  c #172839",
"a  c #292929",
"s  c #352C26",
"d  c #262939",
"f  c #283430",
"g  c #373735",
"h  c #3C3725",
"j  c #481804",
"k  c #531B06",
"l  c #491D11",
"z  c #4B2107",
"x  c #52230C",
"c  c #452619",
"v  c #582B1B",
"b  c #4E3012",
"n  c #5C3318",
"m  c #5D330C",
"M  c #6A3814",
"N  c #723E18",
"B  c #622C12",
"V  c #573828",
"C  c #47382D",
"Z  c #652F22",
"A  c #6D3926",
"S  c #384437",
"D  c #794318",
"F  c #5B4A38",
"G  c #585739",
"H  c #494E2B",
"J  c #67472C",
"K  c #774927",
"L  c #79583A",
"P  c #6B502D",
"I  c #6C6D35",
"U  c #193649",
"Y  c #1B3243",
"T  c #283648",
"R  c #323843",
"E  c #252853",
"W  c #2E3550",
"Q  c #393D61",
"!  c #493941",
"~  c #354544",
"^  c #264659",
"/  c #374A58",
"(  c #3B4567",
")  c #2A5169",
"_  c #2F546E",
"`  c #32617D",
"'  c #4C4D45",
"]  c #575847",
"[  c #444958",
"{  c #485457",
"}  c #565857",
"|  c #594F5C",
" . c #6A5745",
".. c #7A5A49",
"X. c #6F4754",
"o. c #5F6254",
"O. c #6B6749",
"+. c #78734D",
"@. c #7A6659",
"#. c #75765B",
"$. c #6D6B55",
"%. c #4C526D",
"&. c #645766",
"*. c #5A7175",
"=. c #6A6965",
"-. c #6C756D",
";. c #6D7074",
":. c #89542A",
">. c #8A5833",
",. c #97633A",
"<. c #8B6B39",
"1. c #A56D30",
"2. c #966340",
"3. c #9E6743",
"4. c #996851",
"5. c #8C6F54",
"6. c #A46D47",
"7. c #A87549",
"8. c #B47B58",
"9. c #817867",
"0. c #8C5A50",
"q. c #7D8038",
"w. c #7B8779",
"e. c #B58458",
"r. c #BB9156",
"t. c #A98E57",
"y. c #95936C",
"u. c #868874",
"i. c #979B74",
"p. c #8F8968",
"a. c #AD8B68",
"s. c #AAA976",
"d. c #95884E",
"f. c #C9995A",
"g. c #C18E69",
"h. c #C89864",
"j. c #C89773",
"k. c #D39B6E",
"l. c #D0A46B",
"z. c #366A87",
"x. c #377597",
"c. c #3D7BA1",
"v. c #404783",
"b. c #556288",
"n. c #477B97",
"m. c #587C95",
"M. c #636789",
"N. c #66789A",
"B. c #7F7D8F",
"V. c #5E69A1",
"C. c #3A87B4",
"Z. c #4E8492",
"A. c #4785A8",
"S. c #438DB7",
"D. c #4691BB",
"F. c #5096BE",
"G. c #6C94A8",
"H. c #639CBC",
"J. c #748FB0",
"K. c #6D8A94",
"L. c #4D9DCC",
"P. c #4A98C9",
"I. c #539CC6",
"U. c #4EA0CF",
"Y. c #4EA2D1",
"T. c #4EA9DF",
"R. c #53AADC",
"E. c #55A9D9",
"W. c #59A1CD",
"Q. c #6AAACC",
"!. c #53ACE0",
"~. c #5BB4E5",
"^. c #5AB7ED",
"/. c #5BB9EC",
"(. c #54B2E9",
"). c #55B9F4",
"_. c #5CBCF4",
"`. c #5CBFF9",
"'. c #54BAF6",
"]. c #4EB3EF",
"[. c #63B5E5",
"{. c #68BBE8",
"}. c #65BDF1",
"|. c #5EC2FC",
" X c #5CC2FB",
".X c #62C5FD",
"XX c #63CAFF",
"oX c #66C3F7",
"OX c #7BCCF7",
"+X c #65D0FF",
"@X c #6AD3FF",
"#X c #7CCDF5",
"$X c #95958C",
"%X c #83969F",
"&X c #959198",
"*X c #A2A285",
"=X c #B4AF92",
"-X c #989CBC",
";X c #8792B2",
":X c #95B2BF",
">X c #B3BBB6",
",X c #A9B3AA",
"<X c #C39C81",
"1X c #CFB18A",
"2X c #CBBDA6",
"3X c #F1BC8E",
"4X c #C8C495",
"5X c #D1CE93",
"6X c #ECC085",
"7X c #C8C9AA",
"8X c #DBD5AD",
"9X c #CACBBB",
"0X c #D3D7B6",
"qX c #E6D9AC",
"wX c #EEE5B5",
"eX c #FBF6B6",
"rX c #F7F1AD",
"tX c #95A6C7",
"yX c #A2B5D9",
"uX c #A1C9CF",
"iX c #84D6FE",
"pX c #90D3F5",
"aX c #A8EBFF",
"sX c #D6D8D7",
"dX c #DFE4DF",
"fX c #FDF4CB",
"gX c #E0D5E1",
"hX c #D8EFF9",
"jX c #F5FDF2",
/* pixels */
"_._._._._._._._._._._._._._._._._._._._._._._._._._._._._._._._._._._._._._._._._._._._._._._._._._._._._._._.",
"_._._._._._._._._._._._._._._._._._._._._._._._._._._._._._._._._._._._._._._._._._._._._._._._._._._._._._._.",
"_._._._._._._._._._._._._._._._._._._._._._._._._._._._._._._._._._._._._._._._._._._._._._._._._._._._._._._.",
"_._._._._._._._._._._._._._._._._._._._._._._./._._._._._._._._._._._._._._._._._._._._._._._._.`._._._._._._.",
"_._._._._._._._._._._._._._._._._._._._._._._. X_.).}.). X_._._._._._._._.)._._._._._._._._._._._._._._._._._.",
"_._._._._._._._._._._._._._._._._._._._._._./. X`.`.[.pX[.[.oX X_.}._._._.`._._._._._._.`.}._._._._._._._._._.",
"_._._._._._._._.`._._._._._._._.`._._._._.`._.oXE.J. .>.....H.R.XX}._._._._._._._._._._._._._._._._._._._._._.",
"_._._._._._._._._._._._._._._._._._._._._.}. XtX,.,.e.>.8.h.D F Q.iX].}._._._._._._._._._._._._._._._._._._._.",
"_._._._._._._._._._._._._._._._._._._._.}.}.I.C g.1.K ,.1.A A h.+.P..X_.`._._._._._._._.`._._._._._._._._._._.",
"_._._._._._._._._._._._._._._._._._._._._..X[ j K e.4.>.e.7.6.>.j.5.W.`._._._._._._._._._._._._.`._._._._._._.",
"_._._._._._._._._._._._._._._._._._._._.).OX0.>.:.e.>.8.,.l.l.8.,.1.Z. X^._._._._._._._._._._._._._._._._._._.",
"_._._._._._._._._._._._._._._._._._._._..Xn.4.6.D m <.7.r.g.N f.e.k G. X}._._._._._._._._._._._._._._._._._._.",
"_._._._._._._._._._._._._._._._._._._._.XX_ k D e.K j.N f.0.k K 5.z H. X_._._._._._._._._._._._._._._._._._._.",
"_._._._._._._._._._._._._._._._._._._.^.XX` 6 M a.K A j v l J 2 z %X.X_._._._._._._._._._._._._._._._._._._._.",
"_._._._._._._._._._.`._._._._._._._._._.XX_ j K P c v j B ! i C @.hX}._._._._._._._._._._._._._._._._._._._._.",
"_._._.`._._._._._._._._._._._._._._._._._.Q.J :.2 s 8.j B >X%Xs.o.aX]._._._._._._._._._._._._._._._._._._._._.",
"_._.`._._._._._._._._._._._._._._._._._.(.+X{ 2   & C k k j.wX8X>.G. X_._._._._._._._._._._._._._._._._._._.`.",
"_._._._._._._._._.`._._._._._._._._._._. X#XsXF 0 # . & N h.eXg.0.dXOX)._._._._._._._._._._._._._._._._._._._.",
"_._._._._._._._._._._._._._._._._._._._. X*.d.7XwX*X@ o i @.e.X.jXhX/._._._._._._._._._._._._._._._._._._._._.",
"_._._._._._._._._._._._._._._._._._./..XZ.P qXeXeX1X=.G -.y 2 H 8XuX X}._._._._._._._._._._._._._._._._._._._.",
"_._._._._._._._._._._._._._._._._._./.+Xx. .fXrX7X+.p.&X& a : H t.w.E. X_._._._._._._._._._._._._._._._._._._.",
"_._._._._._._._._._._._._._._._._._..X/.r o.jXeXi.sX+.sXo.G e o 2X=XZ.+X/._._._._._._.`._._._._._._._._._._._.",
"_._._._._._._._._._._._._._._._._._.T./ O.0 *XqXq ' G +.5XI w X 9 q n..X_._._._._._._._._._._._._._._._._._._.",
"_._._._._._._._._._._._._._._._._..XP.g 0Xs.a.<.H 9 a 1 G $.4X| g O.A..X_._._._._._._._._._._._._._._._._._._.",
"_._._._._._._._._._._._._._._._._.|.E.  H 2XqXrXfXp.e d 9.&.I 1 @ $ x..X/._._._._._._._.`._._._._._._._._._.`.",
"_._._._._._._._._._._._._._._._._.`.R.i . # $.s.y.h e -.I | y.o O   C.XX/._._._._._._._._._._._._._._._._._._.",
"_._._._._._._._._._._._._._._._._.^..XP.  y %.Y e   : y q &.q @ E d ) _. X_._._._._._._._._._._._._._._._._._.",
"_._._._._._._._._._._._._._._._._._..XS.t ( N.W t #   1 i.=.O * E ( , ^ /._._._._._._._._._._._._._._._._._._.",
"_._._._._._.`._._._._._._._._._._._.|.S.*.tXQ Q # o I 4Xp.9 o &   T t   !.|._._._._._._._._._._._._._._._._._.",
"_._._._._._._._._._._._._._._._._._.|.I.W v.M.R   @ a O.s.G o 1   = O =./ ^._._._._._._._._._._._._._._._._._.",
"_._._._._._._._._._._._._._._._.^..X!.- , *X}   * #     7 , 7 #.    , g < E.`._._._._._._._._._._._._._._._._.",
"_._._._._._._._._._._._._._._._._..XY.@ $.9X'   t d - i #   O o . @ -.&Xg p .X_._._._._._._._._._._._._._._._.",
"_._._._._._._._._._._._._._._._.)..XY.a $X0 q % W E E b.p : @   O d u a C p  X_._._._._._._._._._._._._._._._.",
"_._._._._._._._._._._._._._._._._.).n.g ] u.. t %.v.W T e &.1   O   n 3X1Xd  X_._._._._._._._._._._._._._._._.",
"_._._._._._._._._._._._._._._._.}.(.a 1X<X' ; Q b.b.%.%.: | ,   U / b V C A._._._._._._._._._._._._._._._._._.",
"_._._._._._._._._._._._._._._._.`.(.s j.6XL # W ;XJ.b.b.t ( : r !.{.C.C.C..X_._._._._._._._._._._._._._._._._.",
"_._._._._._._._._._._._._._._._._. XI.s 4 ; * [ tXyX;XV.E *   g pX X.XXX.X_._._._._._._._._._._._._._._._._._.",
"_._._._._.`._._._.`._._._._._._._._.}.&XR   %.;X-XtXtXN.M.a   g #X)./._._._._._._._._._._._._._._._._._._._._.",
"_._._._._._._._._._._._._._._._._._.[.m.%.> G i.*X,XsX>XB.4 6 S  X}._._._._._._._._._._._._._._._._._._.`._._.",
"_._._._._._._._._._._._._._._._._./. X[.E.W.:   = ;.y.u.a $ j O.@X)._._._._._._._._._._._._._._._._._._._._._.",
"_._._._._._._._._._._._._._._._._._._._._.XX^   @     . 3 j Z K K.OX_._._._._._._._._._._._._._._._._._._._._.",
"_._._.`._._._._._._._._._._._._._._._._.^.XX^ . # X $ c x k A x { XX_._._._._._._._._._._._._._._._._._._._._.",
"_._._._._._._._._._._._._._._._._._._._._.@X^ 5 & . 0 k z m 2.B { XX^._._._._._._._._._._._._._._._._._._._._.",
"_._._._._._._._._._._._._._._._._._._.|.~.U.T c V . . 3 b M ,.:.' }._._._._._._._._._._._._._._._._._._._._._.",
"_._._._._._._._._._._._._._._._._._._.^.)   X c V .   . $ n D ,.l U /. X_._._._._._._._._._._._._._._._._._._.",
"_._._._._._._._._._._._._._._._._._..XS.. i O . 4 # + O   5 v 0 4   U ^. X_._._._._._._._._._._._._._._._._.`.",
"_._._._._._._._._._._._._._._._._.^..XD.  > > % ;         . $   1 / g ^ (.}._._._._._._._._._._._._._._._._._.",
"_._._._._._._._._._.`.`.}._._._._._.XXD.  # 8 = . i S.F.T   O   f -.S . R..X_._._._._._._._._._._._._._._._._.",
"_._._._._._._._._._._._._._._._._.`.L.< &   O = i R..X|.^.p   + % +   x.T.T. X_._._._._._._._._._._._._._._._.",
"_._._._._._._._._._._._._._._._.`.^.r s ] 0 $ # Y..X/._. X/.p . & 9 o > f { {.'._._._._._._._._._._._._._._._.",
"_._._._._._._._._._._._._._._._._.(.a C 0 y.s   ~.XX/.^.{.oXR.  4 @.9 7 ,X-.U XX/._._._._._._._._._._._._._._.",
"_._._._._._._._._._._._._._._._.`.^.> , 9 $.' a ` C.XX.XXX+X~.+ @ $ < ~ f + x..X_._._._._._._._._._._._._._._.",
"_._._._._._._._._._._._._._._._._._.` o < i ~ ~   - _ ) ) ) ^ + i : % O + S.@X/._._._._._._._._._._._._._._._.",
"_._._._._._._._.`._._._._._._._./. X|.z.O - O O O O           X + X     @ T ` |./. X_._._._._._._._._._._._._.",
"_._._._._._._._._._._._._._._._._._._. XP.L.U.L.P.U.U.Y.Y.Y.U.L.P.U.L.L.I.S.U. X/._._._._._./. X_._._._._._._."
};
