/* XPM */
static char *player28[] = {
/* columns rows colors chars-per-pixel */
"55 55 227 2 ",
"   c #020101",
".  c #0A0402",
"X  c #03040A",
"o  c #050A0B",
"O  c #0B0B0B",
"+  c #0A0904",
"@  c #120A05",
"#  c #130E0B",
"$  c #160001",
"%  c #08140C",
"&  c #16150E",
"*  c #0A0C11",
"=  c #050914",
"-  c #100F11",
";  c #0C1213",
":  c #0B141B",
">  c #0D1B16",
",  c #151718",
"<  c #280902",
"1  c #300F00",
"2  c #221306",
"3  c #321A09",
"4  c #221C13",
"5  c #291917",
"6  c #301C14",
"7  c #1C231A",
"8  c #2A241D",
"9  c #26221A",
"0  c #382318",
"q  c #2D270A",
"w  c #0C1621",
"e  c #101C28",
"r  c #151726",
"t  c #0D0A22",
"y  c #231A24",
"u  c #1A2529",
"i  c #112432",
"p  c #152A35",
"a  c #152C3B",
"s  c #1A2D35",
"d  c #23242A",
"f  c #2B2B29",
"g  c #242A28",
"h  c #362A28",
"j  c #3B3528",
"k  c #2C2A37",
"l  c #322F30",
"z  c #2B3835",
"x  c #393835",
"c  c #451300",
"v  c #471C06",
"b  c #401E10",
"n  c #4C2409",
"m  c #542506",
"M  c #472917",
"N  c #572717",
"B  c #573419",
"V  c #67310C",
"C  c #693B1C",
"Z  c #763B13",
"A  c #433B2C",
"S  c #403121",
"D  c #543F30",
"F  c #513D2F",
"G  c #6A3A2B",
"H  c #374230",
"J  c #4A4428",
"K  c #585436",
"L  c #5C4337",
"P  c #664228",
"I  c #794B2B",
"U  c #784426",
"Y  c #694F39",
"T  c #6D703C",
"R  c #6C6638",
"E  c #1E3E51",
"W  c #193445",
"Q  c #232941",
"!  c #363A4A",
"~  c #2D3C51",
"^  c #2C3755",
"/  c #2F374D",
"(  c #393E6C",
")  c #394749",
"_  c #234154",
"`  c #29465A",
"'  c #2C4852",
"]  c #1A526D",
"[  c #264D64",
"{  c #295269",
"}  c #2A5877",
"|  c #3A6575",
" . c #444443",
".. c #464C48",
"X. c #46544B",
"o. c #4A5B57",
"O. c #565B57",
"+. c #53475A",
"@. c #664D41",
"#. c #68584B",
"$. c #725851",
"%. c #51605E",
"&. c #4F6359",
"*. c #6A6444",
"=. c #716C5B",
"-. c #404164",
";. c #434C77",
":. c #4B5677",
">. c #50546D",
",. c #506A73",
"<. c #666770",
"1. c #814D29",
"2. c #895528",
"3. c #804F33",
"4. c #8A5836",
"5. c #995F3F",
"6. c #96542E",
"7. c #97663C",
"8. c #8D6B38",
"9. c #905C40",
"0. c #886C4A",
"q. c #996642",
"w. c #847B58",
"e. c #977453",
"r. c #836C4F",
"t. c #A66C48",
"y. c #A77849",
"u. c #A07052",
"i. c #B67D51",
"p. c #B27C4F",
"a. c #917361",
"s. c #838451",
"d. c #8D814C",
"f. c #B38A55",
"g. c #A1A15C",
"h. c #928765",
"j. c #919163",
"k. c #B88766",
"l. c #A78A65",
"z. c #B6AC75",
"x. c #C19257",
"c. c #C48A63",
"v. c #C79567",
"b. c #CA9775",
"n. c #D2A16E",
"m. c #D2AE74",
"M. c #E2B672",
"N. c #DDC179",
"B. c #326585",
"V. c #356B8B",
"C. c #397397",
"Z. c #467789",
"A. c #507E95",
"S. c #4C6A8E",
"D. c #717087",
"F. c #696A96",
"G. c #6C7DA2",
"H. c #5A8A9D",
"J. c #759187",
"K. c #4185AC",
"L. c #458BB2",
"P. c #488FB8",
"I. c #4994BB",
"U. c #7787A8",
"Y. c #7290A2",
"T. c #6596B5",
"R. c #4C9BCA",
"E. c #4898C5",
"W. c #529CC7",
"Q. c #55A1CA",
"!. c #4FA3D4",
"~. c #51A4D3",
"^. c #6CACD2",
"/. c #56B5ED",
"(. c #5AB6EC",
"). c #5AB8EF",
"_. c #5CB4E4",
"`. c #55B7F1",
"'. c #57B9F3",
"]. c #5CBCF4",
"[. c #5CBFF8",
"{. c #56BDFA",
"}. c #4AA6E0",
"|. c #61BAEE",
" X c #6EBFED",
".X c #61BDF3",
"XX c #5EC3FC",
"oX c #5FC9FF",
"OX c #5DC1F7",
"+X c #62C5FE",
"@X c #63CAFF",
"#X c #69C2F5",
"$X c #73C6F2",
"%X c #72CAF9",
"&X c #69D4FF",
"*X c #66D1FF",
"=X c #7CDAFF",
"-X c #77D4FF",
";X c #8A8889",
":X c #A99993",
">X c #8CA19B",
",X c #A3A188",
"<X c #AEAD92",
"1X c #889DAA",
"2X c #838DB6",
"3X c #96A6BB",
"4X c #A9B7B2",
"5X c #C3BE8A",
"6X c #D2B98E",
"7X c #CFC691",
"8X c #FFCF8A",
"9X c #DDD9B6",
"0X c #DCD2AB",
"qX c #E6DDB2",
"wX c #FEF1BC",
"eX c #8996C4",
"rX c #92ACC3",
"tX c #A9B4CC",
"yX c #B3BBE9",
"uX c #8CC5DD",
"iX c #88CFF4",
"pX c #FEFCC3",
"aX c #FCFAC7",
"sX c #FFFDD8",
"dX c #DDFEFF",
"fX c #FFFFF1",
"gX c #E3F0EB",
/* pixels */
"].].].].].].].].].].].].].].].].].].].].].].].].].[.].].].].].].].].].].].].].].].].].].].].].].].].].].].].].",
"].].].].].].].].].].].].].].].].].].].].].].].].].].].].].].].].].].].].].].].].].].].].[.].].].].].].].].].].",
"].].].].].].].].].].].].].].].].].].].].].].].[.].].].].].].].].].].].].].].].].].].].].].].].].].].].].].].].",
"].].].].].].].].].].].].[.].].].].].].].].].].[.].].].].].].].].].].].].].].].].].].].].].].].].].].].].].].].",
"].].].].].].].].].].].].].].].].].].].].].]..X.X].].[.].[.).).].].].].].].].].].].].].].].].].].].].].].].].].",
"].].].].].].].].].].].].].].].].].].].].'.[.|.uX=.#.#.@.4X X'.].].].].].].].].].].].].].].].].].].].].].].].].",
"].].].].].].].].].].].].].].].].].]..X'.#X$XO.P c.c.6.i.y.Y rXXX].].].].].].].].].].].].].].].].].].].].].].].",
"].].].].].].].].].].].].].].].].].].].XXuXl.k.1.V t.5.2.q.v.P 3X[.].].].].].].].].].].].].].].].].].].].].].].",
"].].].].].].].].].].].].].].].].].].{._.<.v.y.4.9.f.q.4.f.2.m A XX].].].].].].].].].].].].].].].].].].[.].].].",
"].].].].].].].].].].].].].].].].].).oXT.7.y.5.n.M.9.p.2.c.2.4. .oX].].].].].].].].].].].].].].].].].].].].].].",
"].].].].].].].].].].].].].].].].].].XXtXm 7.m.2.c.c.i.q.V Z q.a.Z.XX).].].].].].].].].].].].].].].].].].].].].",
"].].].].].].].].].].].].].].].[.].).[.^.v y.q.c 4.n.Z b.U t.1.B ~ @X).].].].].].[.].].].].].].].].].].].].].].",
"].].].].].].].].].].].].].].].].].].].+XH.3 < Y M G v I 1.c.U < ~ oX).].].].].].].].].].].].].].].].].].].].].",
"].].].].].].].[.].].].].].].].].].].].).oX| q y k B v n m 3.G n ' @X].].].].].].].].].].].].].].].].].].].].].",
"].].].].].].].].].].].].].].].].].].].).*X} k.;XtXG c 0.D $ 4.C Y.@X`.].].].].].].].].].].].].].].].].].].].].",
"].].].].].].].].].].].].].].].].].].].+XE.A M.qX6XN v L 0   < $.tXK.&X].].].].].].].].].].].].].].].].].].].].",
"].].].].].].].].].].].].].].].].].].].].}. .x.pXm.U 1 .   7 j :X$.#.P.XX'.].].].].].].].].].].].].].].[.].].].",
"].].].].OX].].].].].].].[.].].].].].].].#X)...y.0.Y 7X,Xj.J 4 h 5 # C.oX].].].].].].].].].].].].].].].].].].].",
"].].].].].].].].].].].].].].].].].].].].|.&X' $ x 0XwXwXpXz.q f $.] XX].].].].].].].].].].].].].].].].].].].].",
"].].].].].].].].].].].].].].].].].].].].#X|.%.& 9Xj.g.sXwXm.&   ' -X#X].].].].].].].].].].].].].].].].].].].].",
"].].].].].].].].].].].].].].].].].].].].XXJ.2   z.s.z.aXsXs.  o C.iX$X].].].].].].].].].].].].].].].].].].].].",
"].].].].].].].].].].].].].].].].].].].).*X,.. X + K sXpX5Xj   a @X`.].].].].].].].].].].].].].].].].].].].].].",
"].].].].].].].].].].].].].].].].].].].).oXH.. o =.J e.d.T w.j p [.].].].].].].].].].].].].].].].].].].].].].].",
"].].].].].].].].].].].].].].].].].].].).oXV.  X <X7X7X7XqX9Xq i +X].].].].].].].].].].].].].].].].].].].].].].",
"].].].].].].].].].].].].].].].].].].].].'.$X) . K R *.R #.8   ~ +X].].].].].].].].].].].].].].].].].].].].].].",
"].].].].].].[.].].].].].].].].].].].].].].@X_ +.&   = O -   ; (.].].].].].].].].].].].].].].].].].].].].].].].",
"].].].].].].].].].].].].].].].].].].].].].+XC.Q   w ( <.>.r r ).XX].].].].].].].].].].].].].].].].].].].].].].",
"].].].].].].].].].].].].].].].].].].].].]..XP.: o ~ B.U./ O e ).].].].].].].].].].].].].].].].].].].].].].].].",
"].].].].].].].].].].].].].].].].].].].].).@X_   r G.:.! r + ; ].].].].].].].].].].].].[.].].].].].].].].].].].",
"].].].].].].]..X].].].].].].].].].].].].).@X`   & =.r . * . : (.].].].].].].].].].].].].].].].].].].].].].].].",
"].].].].].].].].].].].].].].].].].].].].].%XU.y T J <XA X X w ].].].].].].].].].].].].].].].].].].].].].].].].",
"].].].].].].].].].].].].].].].].].].].]./.&X{   <Xj.#.j r ! w R.XX].].].].].].].].].].].].].].].].].[.].].].].",
"].].[.].].].].].].].].].].].].].].].].].$X^.k 9 l ,XK X ^ ;.t p +X].].].].].].].].].].].].].].].].].].].].].].",
"].].].].].].].].].].].].].].].].].].].`.-XS.  H F.r o Q ;.F.` Q +X.X].].].].].].].].].].].].].].].].].].].].].",
"].].].].].].].].].].[.].].].].].].].].).oX} B r.! >.: ;.G.2X:.W +X].].].].].].].].].].].].].].].].].].].].].].",
"].].].].].].].].].].].].].].].].].].]./.=X,.8.8Xl., z ^ 2XyX>.i .X).].].].].].].].].].].].].].].].].].].].].].",
"].].].].].].].].].].].].].].].].].].].].).#X_ @ d . 5 D.rX3X<.Q +X].].].].].].].].].].].].].].].].].].OX].].].",
"].].].].].].].].].].].].].].].].].].].].).oX}   .    .1XtXtX;Xa .X].].].].].].].[.].].].].].].].].].].].].].].",
"].].].].].].].].].].].].].].].].].].].].OXuX-Xa     X.gX4X<XO i +X].].].].].].].].].].].].].].].].].].].].].].",
"].].].].].].].].].].].].].].].].].].].{.#XfX1Xy .   k ;Xh . < a @X'.].].].].].].].].].].].].].].].].].].].].].",
"].].].].].].].].].].].].].].].].].].].]./.dX#.M S X 4 B L B B h C.%X].].].].].].].].].].].].].].].].].].].].].",
"].].[.].].].].].].].].[.].].].].].].].].XXA.M C C 3 6 e.8.G P M ~ @X(.].].].].].].].].].].].].].].].].].].].].",
"].].].].].].].].].].].].].].].].].].].].@X[ 3 C C N   0 b M 2 # X } +X].].].].].].].].].].].].].].].].].].].].",
"].].].].].].].].].].].].].].].].].].].[.B.X o O h O   . 5 - O ..o * B.].].].].].].].].].].].].].].].].].].].].",
"].].].].].].].].].].].].].].].].].].XXI.  g u     : s   o > z %.z u . E.@X].].].].].].].].].].].].].].].].].].",
"]..X].].].].].].].].].].].].].].].(.XXQ.  f g ;   W L.  > % X.o.,...% ` (.[.].].].].].].].].].].].].].].].].].",
"].].].].].].].].].].].].].].].].].@X]._   . O O o K.~.C.s   >X4XJ.> + { (..X].].].].].].].].].].].].].].].].].",
"].].].].].].].].].].].].].].].].OX{ i       ;   : OX#X@X~.e z ..g g , I.@X).].].[.].].].].].].].].].].].].].].",
"].].].].].].[.].].].].].].].].+X` l X., 8 r.5 X R.].).(.XX!.i g > o.o.u R.XX].].].].].].].].].].].].].].].].].",
"].].].].].].].].].[.].].].].].+X{ . &.) 9 4 . X E.@X+X@X+X@XP.O & 4 L 8 w ].].].].].].].].].].].].].].].].].].",
"].].].].].].].].].].].].].].].].XX{   + + % u o o K.K.K.K.K.;   8 h.h ! u /.].].].].].].].].].].].].].].].].].",
"].].].].].].].].].].].].].].].].].OX} { } s   . X           X f  .O.8 & : /.[.].].].].].].].].].].].].].].OX].",
"].].].].].].].].].].].].].].].]..X).@X@X&XQ.B.V.o           * ) ) p , @ B.].].].].].].].].].].].].].].].].].].",
"].].].].].].].].].].].].].].].].].OX).).(.OX@X@XP.K.L.L.L.K.:   o = + V.+X].].].].].].].].].].].].].].].].].].",
"].].].].].].].].].].].].].].].].].].OX).).OX).).+X@X+X@X+X+X~.R.R.Q.W.).].].].].].].].].].].OX].].].].].].].]."
};
