/* XPM */
static char *player42[] = {
/* columns rows colors chars-per-pixel */
"55 55 238 2 ",
"   c #010101",
".  c #0C0201",
"X  c #0A0905",
"o  c #03030B",
"O  c #090A0A",
"+  c #180905",
"@  c #18160D",
"#  c #0B0C19",
"$  c #090515",
"%  c #0B1317",
"&  c #131513",
"*  c #1D1A17",
"=  c #14191A",
"-  c #1B1E1C",
";  c #171713",
":  c #240603",
">  c #281508",
",  c #231E1C",
"<  c #241B18",
"1  c #3A1A12",
"2  c #2E2708",
"3  c #28281D",
"4  c #332618",
"5  c #382D04",
"6  c #0E1120",
"7  c #131D22",
"8  c #1B1A2C",
"9  c #141733",
"0  c #110E2B",
"q  c #231C2E",
"w  c #1B2324",
"e  c #1F262C",
"r  c #172736",
"t  c #0E2537",
"y  c #232324",
"u  c #282B29",
"i  c #352C24",
"p  c #3B3929",
"a  c #222E33",
"s  c #29383A",
"d  c #363737",
"f  c #2C362B",
"g  c #4C1000",
"h  c #4B1E17",
"j  c #651F04",
"k  c #572609",
"l  c #53300F",
"z  c #472B19",
"x  c #562D13",
"c  c #493618",
"v  c #5C3A1B",
"b  c #4E240C",
"n  c #6B381A",
"m  c #70391A",
"M  c #652915",
"N  c #433226",
"B  c #453A28",
"V  c #4A3D34",
"C  c #52362B",
"Z  c #743B26",
"A  c #673927",
"S  c #3E421F",
"D  c #39403A",
"F  c #2F4036",
"G  c #78431B",
"H  c #68421D",
"J  c #474528",
"K  c #484839",
"L  c #564832",
"P  c #5A5538",
"I  c #544D26",
"U  c #68492B",
"Y  c #774627",
"T  c #6F5436",
"R  c #6D6735",
"E  c #1E3E50",
"W  c #1B394A",
"Q  c #352A46",
"!  c #373746",
"~  c #2D3350",
"^  c #353E71",
"/  c #4D3E44",
"(  c #3B4A44",
")  c #3A4244",
"_  c #244456",
"`  c #304759",
"'  c #1D436A",
"]  c #264767",
"[  c #2B5A75",
"{  c #325C76",
"}  c #29496E",
"|  c #366479",
" . c #2D6075",
".. c #444646",
"X. c #574A46",
"o. c #57554F",
"O. c #4C4A55",
"+. c #4D5E5A",
"@. c #475552",
"#. c #535350",
"$. c #685845",
"%. c #645E5B",
"&. c #5C6858",
"*. c #536554",
"=. c #67624C",
"-. c #746D4A",
";. c #6A6754",
":. c #7B6C5F",
">. c #454867",
",. c #475564",
"<. c #555A66",
"1. c #4E5576",
"2. c #645D62",
"3. c #596565",
"4. c #596D79",
"5. c #526A73",
"6. c #656965",
"7. c #787263",
"8. c #647674",
"9. c #797A77",
"0. c #63796B",
"q. c #84482C",
"w. c #8E5A2C",
"e. c #8C5B32",
"r. c #825834",
"t. c #935839",
"y. c #996E37",
"u. c #A7743F",
"i. c #A46A3F",
"p. c #8D5B48",
"a. c #946345",
"s. c #9C6A46",
"d. c #857C49",
"f. c #916F51",
"g. c #906F55",
"h. c #A26D45",
"j. c #AC7646",
"k. c #A77755",
"l. c #967961",
"z. c #8E726D",
"x. c #97884E",
"c. c #99925D",
"v. c #AE8150",
"b. c #B68554",
"n. c #B6A554",
"m. c #8B8A7C",
"M. c #958A78",
"N. c #928867",
"B. c #A59963",
"V. c #B68D68",
"C. c #9DA07A",
"Z. c #ADA971",
"A. c #C59358",
"S. c #C7895F",
"D. c #C4926A",
"F. c #C99570",
"G. c #D2A26D",
"H. c #DAAD79",
"J. c #E1BE7C",
"K. c #346A89",
"L. c #356F97",
"P. c #377799",
"I. c #296791",
"U. c #3479A1",
"Y. c #554E87",
"T. c #52728D",
"R. c #717B93",
"E. c #7479A8",
"W. c #3B8EBE",
"Q. c #5D8495",
"!. c #4A91BC",
"~. c #4985A3",
"^. c #648FA7",
"/. c #7885B2",
"(. c #5BA7BB",
"). c #499AC8",
"_. c #509FCC",
"`. c #6C9BC0",
"'. c #55A5D7",
"]. c #4DA3D4",
"[. c #69AACA",
"{. c #76B1CE",
"}. c #61ABD4",
"|. c #6EB3D8",
" X c #7CBBD5",
".X c #4FB3EF",
"XX c #59B6EC",
"oX c #5BB8EF",
"OX c #59B4E9",
"+X c #55B6F1",
"@X c #5CBCF4",
"#X c #56BDFB",
"$X c #5BBEF9",
"%X c #57BAF4",
"&X c #53AFE6",
"*X c #62B5E6",
"=X c #61BDF2",
"-X c #5DC2FD",
";X c #5BC4FA",
":X c #7AC4EA",
">X c #62C5FD",
",X c #63CAFF",
"<X c #6AC5F8",
"1X c #75CAF8",
"2X c #6AD3FF",
"3X c #7BD8FF",
"4X c #9C9684",
"5X c #979699",
"6X c #B5B297",
"7X c #B0B38C",
"8X c #959CB8",
"9X c #8E97AD",
"0X c #90ABAF",
"qX c #CAB696",
"wX c #EAB88E",
"eX c #B6C48F",
"rX c #C7C48A",
"tX c #D7CB89",
"yX c #F3DE9E",
"uX c #CDD0AC",
"iX c #E6DDBA",
"pX c #EDE4BB",
"aX c #FCF7BD",
"sX c #FAEDAD",
"dX c #86B4CC",
"fX c #A8ACCE",
"gX c #ABB8CB",
"hX c #88D6F8",
"jX c #94D0E6",
"kX c #B1DDE8",
"lX c #B0E6F3",
"zX c #CDD2CB",
"xX c #FCF8C8",
"cX c #FFFFD3",
"vX c #FEF7D5",
"bX c #E8EBDA",
"nX c #F9FFFF",
"mX c #E9F6ED",
/* pixels */
"@X@X@X@X@X@X@X@X@X@X@X@X@X@X@X@X@X@X@X@X@X@X@X@X@X@X@X@X@X@X@X@X;X@X@X@X@X@X@X@X@X@X@X@X@X@X@X@X@X@X@X@X@X@X@X",
"@X@X@X@X@X@X@X@X@X@X@X@X@X@X@X@X@X@X@X@X@X@X@X@X@X@X@X@X@X@XoX%X;X;X+XoX@X@X@X@X@X@X@X@X@X@X@X@X@X@X@X@X@X@X@X",
"@X@X@X@X@X@X@X@X@X@X@X@X@X@X@X@X@X@X-X@X@X@X@X@X=X@X@X@X;X<X,X:XT.{.hX;X@XoX@X@X@X@X@X@X@X@X@X@X@X@X@X@X@X@X@X",
"@X@X@X@X@X@X@X@X@X@X@X@X@X@X@X@X@X@X@X@X@X@X@X@X@X@X%X1X^.{ 5.M.s.g.M.4.;X@X@X@X@X@X@X@X@X@X@X@X@X@X@X@X@X@X@X",
"@X@X@X@X@X@X@X@X@X@X@X@X@X@X@X@X@X@X@X@X@X@X@X@X@X@X-X^.b p.j.G k.G k.Y o.:X%X@X@X@X@X@X@X@X@X@X@X@X@X@X@X@X@X",
"@X@X@X@X@X@X@X@X@X@X@X@X@X@X@X@X@X@X@X@X@X@X@X@X@XoX,X1.g k.i.w.w.D.t.m j.9.#X%X@X@X@X@X@X@X@X@X@X@X@X@X@X@X@X",
"@X@X@X@X@X@X@X@X@X@X@X@X@X$X@X@X@X@X@X@X@X@X@X@X@X@XOX8.m Z D.k.G k.q.G h.qXjX-XoX@X@X@X@X@X@X@X@X@X@X@X@X@X@X",
"@X@X@X@X@X@X@X@X@X@X@X@X@X@X@X@X@X@X@X@X@X@X@X@XoX,XW.n A.q.q.Y D.s.A.H.a.u.V. X,X@X@X@X@X@X@X@X@X@X@X@X@X@X@X",
"@X@X@X@X@X@X@X@X@X@X@X@X@X@X@X@X@X@X@X@X@X@X@X@X;XOX` x u.m t.e.j.u.G.j.H.r.G.l.}.$X=X@X@X@X@X@X@X@X@X@X@X@X@X",
"@X@X@X@X@X@X@X@X@X@X@X@X@X@X@X@X@X@X@X@X@X@X@XoX-X!.+ h.S.m k.e.b.S.T j G.k t.V.dX#X@X@X@X@X@X@X@X@X@X@X@X@X@X",
"@X@X@X@X@X@X@X@X@X@X@X@X@X@X@X@X@X@X@X@X@X@X@X@X,X!.1 Y k n k G wXA A C z k j R.hX@X@X@X@X@X@X@X@X@X@X@X@X@X@X",
"@X@X@X@X@X@X@X@X@X@X@X@X@X@X@X@X@X@X@X@X@X@X@X@X=X<XM.k x > T x Z 1 > # < n %.XX%X%X@X@X@X@X@X@X@X@X@X@X@X@X@X",
"@X@X@X@X@X@X@X@X@X$X@X@X@X@X@X@X@X@X@X@X@X@X@X@XXX2X5X: o + v.M b :.K 4XV dXoX>X=X@X@X@X@X@X@X@X@X@X;X@X@X@X@X",
"@X@X@X@X@X@X@X@X@X@X@X@X@X@X@X@X@X@X@X@X@X@X@X@X@X@X| > o   : Z w.Z.uXuXl.XX<X@X=X@X@X@X@X$X@X@X@X@X@X@X@X@X@X",
"@X@X@X@X@X@X@X@X@X@X@X@X@X@X@X@X@X@X@X@X@X@X@XoX>X!.5 R P *...: y.yXxXxXkX=X@X@X@X@X@X@X@X@X@X@X@X@X@X@X@X@X@X",
"@X$X@X@X@X@X@X@X@X@X@X@X@X@X@X@X@X@X@X@X@X@X@X@X>X).L rXiXxXsX2.4 J.vXkXoX$X@X@X@X@X@X@X@X@X@X@X@X@X@X@X@X@X@X",
"@X@X@X@X@X@X@X@X@X@X@X@X@X@X@X@X@X@X@X@X@X@X@X@XXXt S xXvXsXaXbX,.x U }.#X@X@X@X@X@X@X@X@X@X@X@X@X@X@X@X@X@X@X",
"@X@X@X@X@X@X$X@X@X@X@X@X$X@X@X@X@X@X@X@X@X@X@X-X_., qXxXxXpX=.eX9 o 2 &.*X$X@X@X@X@X@X@X@X@X@X@X@X@X@X@X@X@X@X",
"@X@X@X@X@X@X@X@X@X@X@X@X@X@X@X@X@X@X@X@X@X@X@XOXa L =.pXxXD zXZ.! Q C.B.[.$X@X@X@X@X@X@X@X@X@X@X@X=X@X@X@X@X@X",
"@X@X@X@X@X@X@X@X@X@X@X@X@X@X@X@X@X@X@X@X@X@X=X&Xu uXqXB.Z.f 5XuX6X  7.=.'.-X@X@X@X@X@X@X@X@X@X@X@X$X@X@X@X@X@X",
"@X@X@X@X@X@X@X@X@X@X@X@X@X@X@X@X@X@X@X@X@X@X=X;Xe -.7XtXx.c.  - rXI 4 S '.$X@X@X@X@X@X@X@X@X@X@X@X@X@X@X@X@X@X",
"@X@X@X=X@X@X@X@X@X@X@X@X@X@X@X@X@X@X@X@X@X@X;XL.r o = 6XcXZ.< ;.Z.o.B J '.-XoX@X@X@X@X@X@X@X@X@X@X@X@X@X@X@X@X",
"@X@X@X@X@X@X@X@X@X@X@X@X@X@X@X@X@X@X@X@X@X@X>Xt ~ E.6 * / <.q 7XR   ' P.OX@X@X@X@X@X@X@X@X@X@X@X@X@X@X@X@X@X@X",
"@X@X$X@X@X@X@X@X@X@X@X@X@X@X@X@X@X@X@X@X@X,X .O /.Y.,.&   0 s p ) ..P.2X@X@X@X@X@X@X@X@X@X@X@X@X@X@X@X@X@X@X@X",
"@X@X@X@X@X@X@X@X@X@X@X@X@X@X@X@X@X@X@X%X@X,XE   8XE.~ # o @ d.7XQ >.> [.;X%X@X@X@X@X@X@X@X@X@X@X@X@X@X@X@X@X@X",
"@X@X@X@X@X@X@X@X@X@X@X@X@X@X@X@X@X@X@X@X+X;X]   ~ 1.T.!   4XcXM.$ , 5 0X>X%X@X@X@X@X@X@X@X@X@X@X@X@X@X@X@X@X@X",
"@X@X@X@X@X@X@X@X@X@X@X@X@X@X@X@X@X@X@X%X:XjXW . =.S ..e o O M.o.. J &.|.-X@X@X@X@X@X@X@X@X@X@X@X@X@X@X@X@X@X@X",
"@X@X@X@X@X@X@X@X@X@X@X$X@X@X@X@X@X@X%X+X3X7X2   7.L y   } 8 X m.6.# U.2X@X@X@X@X@X@X@X@X@X$X@X@X@X@X@X@X$X@X@X",
"@X@X$X@X@X@X@X@X@X@X@X@X@X@X@X@X@X@X@X@X;X| X . K N.;.  q %   ; o.O P.,X@X@X@X@X@X@X@X@X@X@X@X@X@X@X@X@X@X@X@X",
"@X@X@X@X@X@X@X@X@X@X@X@X@X@X@X@X@X@X=X#X{.-.@ q i K #.2.3 o / o J T I.<X@X@X@X@X@X@X@X@X@X@X@X@X@X@X@X@X@X@X@X",
"@X@X@X@X@X@X@X@X@X@X@X@X@X@X@X@X@X@X@X-X~.c.D Q 9 } } ~ L f =.o T T I.2XoX@X@X@X@X@X@X@X@X@X@X@X@X@X@X@X@X@X@X",
"@X@X@X@X@X@X@X@X@X@X@X@X@X@X@X@X@X@X%X1X| m.&.>.q O.V N < 4.-   X.z.U.>X@X@X@X@X@X@X@X@X@X@X@X@X@X@X@X@X@X@X@X",
"@X@X@X@X@X@X@X@X@X@X@X@X@X@X@X@X@X@X$X|.-.tX%.1./ z n.f.O.{ $ $ 5XnX<XoX@X@X@X@X@X@X@X@X@X@X@X@X@X@X@X$X@X@X@X",
"@X@X@X@X@X@X@X@X@X@X@X@X@X@X@X@X@X@X>XW.$.aXJ Q.9X2.q Q W %   ! nXmX1X%X@X@X@X@X@X@X@X@X@X@X@X@X@X@X@X@X@X@X@X",
"@X@X@X@X@X@X@X$X@X@X@X@X@X@X@X@X@X%X=X0.g.sX$.( uX9X/.fX1.#   a hX=XoX@X@X@X@X@X@X@X@X@X@X@X@X@X@X@X@X@X@X@X@X",
"@X@X@X@X@X@X@X@X@X@X@X@X@X@X@X@X@X=X'.B pXN.4X! K zXfXgXO.    t #XoX@X@X@X@X@X@X@X@X@X@X@X@X@X@X@X@X@X@X@X@X@X",
"@X@X@X@X@X@X@X@X@X@X@X@X@X@X@X@X@X=X).d iX9.'.F   ;.4X/ $..   r >X@X@X@X@X@X@X@X@X@X@X@X@X@X@X@X@X@X@X@X@X@X@X",
"@X@X@X@X@X@X@X@X@X@X@X@X@X@X@X@X@X@X@X1.s [.>Xt : z v p.U . . r >X@X@X@X@X@X@X@X@X@X@X@X@X@X@X@X@X@X@X@X@X@X@X",
"@X@X@X@X@X@X@X@X@X@X@X@X@X=X@X@X@X@X$X*X`.=X>Xa x h w.h.T 1 y | =X@X@X@X@X@X@X@X@X@X@X@X@X@X$X@X@X@X@X@X@X@X@X",
"@X@X@X@X@X@X@X@X@X@X@X@X@X$X@X@X@X@X=X$X=X#X(., > Y h.U + i w $X$X@X@X@X@X@X@X@X@X@X@X@X@X@X@X@X@X@X@X@X@X@X@X",
"@X@X@X@X@X@X@X@X@X@X@X@X@X@X@X@X@X@X@X@X.XlX&.  C > z p   & = OX$X@X@X@X@X@X@X@X@X@X@X@X@X@X@X@X@X@X$X@X@X@X@X",
"@X@X@X@X@X@X@X@X@X@X@X@X$X@X@X@X@X@X@X@X;XQ.+ X.l., K   o   % XX@X@X@X@X@X@X@X@X@X@X@X@X@X@X@X@X@X@X@X@X@X@X@X",
"@X@X@X@X@X@X@X@X@X@X@X@X@X@X@X@X@X@X@XXX;X[ X 3 * X D D     & W >X@X@X@X@X@X@X@X@X@X@X@X@X@X@X@X@X@X@X@X@X@X@X",
"@X@X@X@X@X@X@X@X@X@X@X@X@X@X@X@X@X@X@X@X-X|   @.+.+.<.u   u #._ $X@X@X@X=X$X@X@X@X@X@X@X@X@X@X@X@X@X@X@X@X@X@X",
"@X@X@X@X@X@X$X@X@X@X@X@X@X@X@X@X@X@X@XXX,X[ X +.0.8.) % & y @.$X@X@X@X@X@X@X@X@X@X@X@X@X@X$X@X@X@X@X@X@X@X@X@X",
"@X@X@X@X@X@X@X@X@X@X@X@X@X@X@X@X@X@X@X@X,X .  d ) ( y - - ; 7 XX@X@X@X@X@X@X@X@X@X@X@X@X@X@X@X@X@X@X@X@X@X@X@X",
"@X@X@X@X@X@X@X@X@X@X@X@X@X@X@X@X@X@X@XoX2X[ < ;     - w   y 7 OX@X@X@X@X@X@X@X@X@X@X@X@X@X@X@X@X@X@X@X@X@X@X@X",
"@X@X@X@X@X@X@X@X@X@X@X@X@X@X@X@X@X@X@X%X;X'.` d @.( +.s     % @X=X@X@X@X@X@X@X@X@X@X@X@X@X@X@X@X@X@X@X@X@X@X@X",
"@X@X@X@X@X@X@X@X@X@X@X@X@X@X@X@X@X@X@XXX>XL.a 3.<...D d   O 7 OXoX#X@X@X@X@X@X@X@X@X@X@X@X@X@X@X@X@X@X@X@X@X@X",
"@X@X@X@X@X@X@X@X@X@X@X@X@X@X@X@X@X@X@X@X2X{ + X.4 N l.B   D 3.D E ,XXX@X@X@X@X@X@X@X@X@X@X@X@X@X@X@X@X@X@X@X@X",
"@X$X=X@X@X@X@X@X@X@X@X@X@X$X@X@X@X@X@X@X2XT.K < L $.C . & = X X K.>X@X@X@X@X@X@X@X@X@X@X@X@X@X@X@X@X@X@X@X@X@X",
"@X@X@X@X@X@X@X@X@X@X@X@X@X@X@X@X@X@X@X@X%X,X_ & r y &       _ K.>X@X@X@X@X@X@X@X@X@X@X@X@X@X@X@X@X@X@X@X@X@X@X",
"@X@X@X@X@X@X@X@X@X@X@X@X@X@X@X@X@X@X@X@X%X,XW ..8.0.+.6.f ] ,X,X@X@X@X@X@X@X@X@X@X@X@X@X@X@X@X@X@X@X@X@X@X@X@X",
"@X@X@X@X@X@X@X@X@X@X@X@X@X@X@X@X@X@X@X@X@X@X_.) p ; 3 *.@ ).>XoX@X@X@X@X@X@X@X@X@X@X@X@X@X@X@X@X@X@X@X@X@X$X@X",
"@X@X$X@X@X@X@X@X@X@X@X@X@X@X@X@X@X@X@X@X@X;X-X}._.).).).).OX@X@X@X@X@X@X@X@X@X@X@X@X@X@X@X@X@X@X@X@X@X@X@X@X@X"
};
