/* XPM */
static char *player41[] = {
/* columns rows colors chars-per-pixel */
"55 55 232 2 ",
"   c #010101",
".  c #0B0202",
"X  c #0B0B04",
"o  c #0B0C09",
"O  c #04020B",
"+  c #160705",
"@  c #17150B",
"#  c #070814",
"$  c #0A121A",
"%  c #0E1616",
"&  c #141411",
"*  c #1D1514",
"=  c #181A19",
"-  c #10100F",
";  c #2A1205",
":  c #251C18",
">  c #341406",
",  c #18251A",
"<  c #2A241C",
"1  c #26241A",
"2  c #342616",
"3  c #382F16",
"4  c #000020",
"5  c #0A1729",
"6  c #151A26",
"7  c #1B1B36",
"8  c #281F27",
"9  c #1C2322",
"0  c #192837",
"q  c #282828",
"w  c #322A27",
"e  c #3A382C",
"r  c #282B35",
"t  c #2E3639",
"y  c #393838",
"u  c #2C302A",
"i  c #471703",
"p  c #5F1B0C",
"a  c #5A2607",
"s  c #432318",
"d  c #562A18",
"f  c #4C361C",
"g  c #673617",
"h  c #6C3714",
"j  c #502F20",
"k  c #473A2B",
"l  c #493F3A",
"z  c #452E27",
"x  c #39403A",
"c  c #2F4036",
"v  c #534D18",
"b  c #69451C",
"n  c #444328",
"m  c #514829",
"M  c #474536",
"N  c #534938",
"B  c #4F503E",
"V  c #575639",
"C  c #6C4828",
"Z  c #7A4728",
"A  c #764937",
"S  c #7E5638",
"D  c #645139",
"F  c #6F6933",
"G  c #1C3748",
"H  c #1C3D50",
"J  c #282E48",
"K  c #383A43",
"L  c #2F345A",
"P  c #3F3766",
"I  c #362961",
"U  c #453B42",
"Y  c #703D41",
"T  c #2A4448",
"R  c #3A4544",
"E  c #274558",
"W  c #384355",
"Q  c #35565A",
"!  c #1D4D6B",
"~  c #26526B",
"^  c #2D5A75",
"/  c #295877",
"(  c #345E77",
")  c #2A526C",
"_  c #3C6277",
"`  c #464C49",
"'  c #564745",
"]  c #475A48",
"[  c #555546",
"{  c #474D58",
"}  c #4A5958",
"|  c #565956",
" . c #6A5A48",
".. c #5D6158",
"X. c #516B5E",
"o. c #6B6748",
"O. c #786A45",
"+. c #7A7647",
"@. c #676758",
"#. c #7B755C",
"$. c #796F5E",
"%. c #565C64",
"&. c #4C5375",
"*. c #6E5F75",
"=. c #5A6563",
"-. c #4B7277",
";. c #576D73",
":. c #686766",
">. c #696A76",
",. c #776D7D",
"<. c #657776",
"1. c #72756C",
"2. c #834924",
"3. c #885428",
"4. c #975D2F",
"5. c #8C5935",
"6. c #854C35",
"7. c #9C693B",
"8. c #A2723C",
"9. c #A26A3E",
"0. c #865A47",
"q. c #97694A",
"w. c #9C7747",
"e. c #877759",
"r. c #98765A",
"t. c #A46C43",
"y. c #A36A48",
"u. c #A9794C",
"i. c #A97856",
"p. c #B17B54",
"a. c #BA7F50",
"s. c #B07042",
"d. c #83786A",
"f. c #8A7B6F",
"g. c #A09232",
"h. c #8B855D",
"j. c #988A57",
"k. c #938F53",
"l. c #AE864B",
"z. c #B88E5A",
"x. c #98A05E",
"c. c #868662",
"v. c #978569",
"b. c #948F6F",
"n. c #AB916F",
"m. c #ADA573",
"M. c #B8B671",
"N. c #AEA976",
"B. c #C99C5B",
"V. c #CA976B",
"C. c #D4A165",
"Z. c #C1A072",
"A. c #CBC97D",
"S. c #376B86",
"D. c #377299",
"F. c #565B97",
"G. c #635881",
"H. c #586982",
"J. c #55768A",
"K. c #447796",
"L. c #51748E",
"P. c #6B728C",
"I. c #578796",
"U. c #66849A",
"Y. c #638388",
"T. c #558AA5",
"R. c #4D8FB1",
"E. c #7A89B2",
"W. c #67A3BB",
"Q. c #4899C5",
"!. c #4899C7",
"~. c #559ACA",
"^. c #58ACDA",
"/. c #5FA6C1",
"(. c #6BACCE",
"). c #59B6EC",
"_. c #5BB8EF",
"`. c #5CB3E6",
"'. c #4EB5F3",
"]. c #57B9F3",
"[. c #5CBCF4",
"{. c #5CBEF9",
"}. c #54B7F1",
"|. c #62BBED",
" X c #62BDF2",
".X c #5DC2FD",
"XX c #5CC9FF",
"oX c #57C0FF",
"OX c #6EC0EF",
"+X c #78C5ED",
"@X c #61C5FE",
"#X c #64CBFF",
"$X c #6CCCFE",
"%X c #68C2F4",
"&X c #75C9F7",
"*X c #68D2FF",
"=X c #79D7FF",
"-X c #8F9F8E",
";X c #999694",
":X c #A9AB86",
">X c #AFAB8D",
",X c #8F99B5",
"<X c #9AA4A1",
"1X c #B7B6B2",
"2X c #C4B78B",
"3X c #C2BBA2",
"4X c #CBC086",
"5X c #D3CC93",
"6X c #F6CF9E",
"7X c #E2E29D",
"8X c #D2D0A5",
"9X c #E6D4B0",
"0X c #EAE4B0",
"qX c #FCEBBD",
"wX c #FFF2BF",
"eX c #98A5D5",
"rX c #A8B3D1",
"tX c #8AC2D8",
"yX c #84C8EA",
"uX c #87D2F4",
"iX c #93D8F8",
"pX c #A7DBF4",
"aX c #B0F0FC",
"sX c #B1D1D2",
"dX c #CFD8CE",
"fX c #DBE8D8",
"gX c #FFFECD",
"hX c #FFFEC2",
"jX c #FFFFD6",
"kX c #EFECCF",
"lX c #CCEDE8",
"zX c #FFFFEB",
/* pixels */
"[.[.[.[.[.[.[.[.[.[.[.[.[.[.[.[.[.[.[.[.[.[.[.[.[. X[._._.[.[.[.[.[.[.[.[.[.[.[.[.[.[.[.{.[.[.[.[.[.[.[.[.[.[.",
"[.[.[.[.[.[.[.[.[.[.[.[.[.[.[.[.[.[.[.[.[.[.[.[.[.]..X$X#X.X}.[.[.[.[.[.[.[.[.[.[.[.[.[.[.[.[.[.[.[.[.[.[.[.[.",
"[.[.[.[.[.[.[.[.[.[.[.[.[.[.[.[.[.[.[.[.[.[.[.}..XyXL.U.J.I.iX@X X[.[.[.[.[.[.[.[.[.[.[.[.[.[.[.[.[.[.[.[.[.[.",
"[.[.[.[.[.[.[.[.[.[.[.[.[.[.[.[.[..X[.[.[.[.].&XJ.f.t.2.y.l.r.L..X_.[.[.[.[.[.[.[.[.{.[.[.[.[.[.[.[.[.[.[.[.[.",
"[.[.[.[.[.[.[.[.[.[.[.[.[.[.[.[.[.[.[.[.[.].&Xf.p.u.t.4.s.y.h q.L.@X X[.[.[.[.[.[.[.[.[.[.[.[.[.[.[.[.[.[.[. X",
"[.[.[.[.[.[.[.[.[.[.[.[.[.[.[.[.[.[.[.[.[..X;.a y.7.2.7.z.h Z z.Z.;X$X{.[.[.[.[.[.[.[.[.[.[.[.[.[.[.[.[.[.[.[.",
"[.[.[.[.[.[.[.[.[.[.[.[.[.[.[.[.[.[.[.[._.*XQ a 2.V.y.0.y.B.V.2.V.B.Y.[.[.[.[.[.[.[.[.[.[.[.[.[.[.[.[.[.[.{.[.",
"[.[.[.[.[.[.[.[.[.[.[.[.[.[.[.[.[.[.[.[. X^.@.p.2.6.2.V.t.C.l.C.0.l.e.(..X[.[.[.[.[.[.[.[.[.[.[.[.[.[.[.[.[.[.",
"[.[.[.[.[.[.[.[.[.{.[.[.[.[.[.[.[.[.[._.#X) 5.Z 5.g z.6.B.l.i w.V.j (.@X[.[.[.[.[.[.[.[.[.[.[.[.[.[.[.[.[.[.[.",
"[.[.[.[.[.[.[.[.[.[.[.[.[.[.[.[.[.[.[._.#X/ ; 8.y.Z u.4.z.b Y j a ;.*X_.[.[.[.[.[.[.[.[.[.[.[.[.[.[.[.[.[.[.[.",
"[.[.[.[.[.[.[.[.[.[.[.[.[.[.[.[.[.[.[._.#X^ > p.g g i u.t.+ q + y ^.[.[.[.[.[.[.[.[.[.[.[.[.[.[.[.[.[.[.[.[.[.",
"[.[.{.[.[.[.[.[.[.[.[.[.[.[.[.[.[.[.[.]..XH.d Z i 2 A g g ,.{ w.E =X|.[.[.[.[.[.[.[.[.[.[.[.[.[.[.[.[.[.[.[.[.",
"[.[.[.[.[.[.[.[.[.[.[.[.[.[.[.[.[.[.[.[.'.iXq.i . w r.p a 3X1X5X[ _. X].[.[.[.[.[.[.[.[.[.[.[.[.[.[.[.[.[.[.[.",
"[.[.[.[.[.[.[.[.[.[.[.[.[.[.[..X[.[.[.[.%XiXP.@ X   . i 5.M.qX9XZ I..X[.[..X[.[.[.[.[.[.[.[.[.[.[.[.[.[.[.[.[.",
"[.[.[.[.[.[.[.[.[.[.[.[.[.[.[.[.[.[.[.[.+XyXXXV v V @.1 > z.6X7.U.=X_.[.[.[.[.[.[.[.[.[.[.[.[.[.[.[.[.[.[.[.[.",
"[.[.[.[.[.[.[.[.[.[.[.[.[.[.[.[.[.[.[.[.[..XR.F 2XkXjX3X>.' C r *XOX%X[.[.[.[.[.[.[.[.[.[.[.[.[.[.[.[.{.[.[.[.",
".X_._..X[.[.[.[..X_._..X.X_._._.[.[.[.[._.#XT j.gXgX4XA.-X4 o x R..X[.[.[.[.[.[.[.[.[.[.[.[.[.[.[.[.[.[.[.[.[.",
"_..X_._.[.[.[.[._._..X_._._..X.X[.[.[.[._.#XH n.jX7X>XN.x.y P V M.I.#X_.[.[.[.[.[.[.[.[.[.[.[.[. X[.[.[.[.[.[.",
"_..X.X_.[.[.[.[._..X.X_._..X.X_.[.[.[.[.[.%XG d.jX5X-X<XF 7Xq w m.-.$X_.[.[.[.[.[.[.[.[.[.[.[.[.[.[.[.[.{.[.[.",
"_._._._..X[.[._._._.].}.%X_._._.[.[.[.].#X) k N n.N.o.@ x.5Xe.* 2 S.#X_.[.[.[.[.[.[.[.[.[.[.[.[.[.[.[.[.[.[.[.",
".X.X_.%X_._..X.X.X_.]..X_._..X.X[.[.[._.#X! c.qXN.k.n.N . +.N.u F -.#X[.[.[.[.[.[.[.[.[.[.[.[.[.[.[.[.[.[.[.[.",
"_._.]._..X[._._._.%X[._..X}._._.[.[.[._.*X( 3 o.0XhX0Xk M x.M   5 R.$X].[.[.[.[.[.[.[.[.[.[.[.[.[.[.[.[.[.[.[.",
".X_..X_.[.[.[.[.[.[.[.[._.%X.X].[.[.[._.$X_ O 7 K M 3 y %.%.J ` E =X].[.[.[.[.[.[.[.[.[.[.[..X[.[.[.[.[.[.[.[.",
"_._..X].[.[.[.[.[.[.[.[..X_._._.[.[.[.[.#X/ 7 E.L 5   - 7 V r G.H #X[.[.[.[.[.[.[.[.[.[.[.[.[.[.[.{.[.[.[.[.[.",
"_..X.X_.%X.X_.[..X_._.%X}.]._..X[.[._.XXR.  P.J.&.$ & q v N.1 . T uX]. X[.[.[.[.[.[.[.[.[.[.[.[.[.[.[.[.[.[.[.",
"[._._._._.].[.[._._..X_._..X_..X[.[.].&XJ.  P.,XF.K x 8XkXd.. x +.-.$X].[.[.[.[.[.[.[.[.[.[.[.[.[.[.[.[.[.[.[.",
"[._..X.X[.[.[.[._..X.X_._.%X}._.[._.oXsXm   0 W ,XK   O >.:X@ 1.+.! *X_.[.[.[.[.[.[.[.[.[.[.[.[.[.[.[.[.[.[.[.",
".X_._._.[.[.[.[._..X_._..X_..X_..X].oXW.m x , c.B   & &.7   - ... ^ #X_.[.[.[.[.[.[.[.[.[.[.[.[.[.[.[.[.[.[.[.",
"[.[.[._.[.[.[.[._._..X.X.X_._._.].&XlXX.c.b.- @.c.  7 F.8 O   q D ) #X_.[.[.[.[.[.{.[.[.[.[.[.[.[.[.[.[.[.[.[.",
"[.[.[..X[.[.[.[..X_._._._._..X.X_.%XtXo.9X,.M N.B O 5 P $ e . M j.! *X].[.[.[.[.[.[.[.[.[.[.[.[.[.[.[.[.[.[.[.",
"[.[.[.[.[.[.[.[._..X_..X%X}.%X}.%X%XR.x zX#.- M &.e.V O O @.& w 0._ #X].[.[.[.[.[.[.[.[.[.[.[.[.{.[.[.[.[.[.[.",
"[.[.[.[.[.[.[.[._..X_._._..X_..X'.pXh.k.hX[ 7 G.I n m.# # >.=   >.aX'.%X[.[.[.[.[.[.[.[.[.[.[.[.[.[.[.[.[.[.[.",
"[.[.[.[.[.[.[._._..X[.[.[.[.[.[.{. X' 9Xb.  & y D o.o.L 6 K o G $X X[.[.[.[.[.[.[.[.[.[.[.[.[.[.[.[.[.[.[.[.[.",
"[.[.[.[.[.[.[..X[._.[.[.[.[..X_.[.W.N qXn.# & 2 g.m r &.7 O   U lX'.[.[.[.[.[.[.[.[.[.[.[.[.[.[.[.[.[.[.[.[.[.",
"[.[.[.[.[.[.[.[.[.[.[.[.[.[._._.{.` m.3X%.~.5 c.:.&.P.eX&.5   r uX].[.[.[.[.[.[.[.[.[.[.[.[.[.[.[.[.[.[.[.[.[.",
"[.[.[.[.[.[.[.[.[.[.[.[.[.[._..X{.J 9X>X( aX| 9 dXfXrXrX;.#   0 {.[.[.[.[.[.[.[.[.[.[.[.[.[.{.[.[.[.[.[.[.[.[.",
"[.[..X_._..X[.[.[.[.]._.[.[.[._.{.H.t U.].yXlXu + [ fX$.' N   0 @X[.[.[.[.[.[.[.[.[.[.[.[.[.[.[.[.[.[.[.[.[.[.",
"[.[.[.[.[._.[.[.[._..X%X[.[._..X[._.L. X{.}.{.0 + 2 ; C p.2 . 0 @X_.[.[.[.[.[.[.[.[.[.[.[.[.[.[.{.[.[.[.[.[.[.",
"[.[.[.[.[.[.[.[.[.[..X_._._.[..X[.[. X[. X[.#XJ d s 5.7.0.2 : (  X[.[.[.[.[.[.[.[.[.[.[.[.[.[.[.[.[.[.[.[.[.[.",
"[.[.[.[.[.[.[.[.[.[._._..X.X_._.[.[.{.[. X&X/.= ; C 8.A . 3 6  X{.[.[.[.[.[.[.[.{.[.[.[.[.[.[.[.[.[.[.[.[.[.[.",
"[.[._..X[.[.[.[.[.[.[.[.[.[.[.[.[.[..X[.|.=XQ . l ; j z   @ % ).{.[.[.[.[.[.[.[.[.[.[.[.[.[.[.[.[.[.[.[.[.[.[.",
"[.[.[._.[.[.[.[.[.[.[.[.[.[.[.[.[.[._._.XXD.. ' e.: B       $ _. X[.[.[.[.[.[.[.[.[.[.[.[.[.[.[.[.[.[.[.[.[.[.",
"[.[..X_.[.[.[.[.[.[.[.[.[.[..X_.[.[.[.).#X^ . q * o x x   X - G @X].[.[.[.[.[.[.[.[.[.[.[.[.[.[.[.[.[.[.[.[.[.",
"[.[.[.[.[.[.[.[.[.[.[.[.[.[.[.[.[.[.[.].#X^   ] X.} } r   u | H  X[.[.[.[.[.[.[.[.[.[.[.[.[.[.[.[.[.[.[.[.[.[.",
"[.[.[.[.[.[.[.[.[.[.[.[.[.[.[.[.[.[.[._.#X/   X.;.<.R - - q } [.{.[.[.[.[.[.[.[.[.[.[.[.[.{.[.[.[.[.[.[.[.[.[.",
"[.[.[.[.[.[.[.[.[.[.[.[.[.[.[.[.[.[.[._.#X(   c x ` q 6 = & 6 ).{.[.[.[.[.{.[.[.[.[.[.[.[.[.[.[.{.[.[.[.[.[.[.",
"[.[.[.[._.[..X[.[.[.[.[.[.[.[.[.[.[.[.].#X/ : =     = 9   q , ).[.[.[.[.[.[.[.[.[.[.[.[.[.[.[.[.[.[.[.[.[.[.[.",
"[.[.[.[..X_._.[.[.[.[.[.[.[.[.[.[.[.[.[.[.^.T y { R X.t     $ ].{.[.[.[.[.[.[.[.[.[.[.[.[.[.[.[.[.[.[.[.[.[.[.",
"[.[.[.[.[.[.[.[.[.[.[.[.[.[.[.[.[.[.[.].#XD.r =.=.` K t   o 6 `._.[.[.[.[.[.[.[.[.[.[.[.[.[.[.[.[.[.[.{.[.[.[.",
"_..X[.[.[.[.[.[.[.[.[.[.[.[.[.[.[.[.[._.#X^ + B : e $.<   x =.x H #X_.[.[.[.[.[.[.[.[.[.[.[.[.[.[.[.[.[.[.[.[.",
"_._..X[..X_..X_.[.[.[.[..X[.[.[.[.[.[._.$XD.M = m  .k   - = X   S.@X[.[.[.[.[.[.[.[.[.[.[. X[.[.[.[.[.[.[.[.[.",
".X_._.[._._..X_.[.[.[.[._.[.[.[.[.[.[.[.[.*XE * r q * X     E D.@X].[.[.[.[.[.[.[.[.[.[.[.[.[.[.[.[.[.[.[.[.[.",
"_..X.X_.[.[.[.[.[.[.[.[._._._..X[.[.[.[.[.#XG ` <.<.] ;.t ~ #X#X].[.[.[.[.[.[.[.[.[.[.[.[.[.[.[.[.[.[.[.[.[.[.",
"_._._._.[.[.[.[.[.[.[.[..X.X_._.[.[.[.[.[..X!.c , , u ] & R.@X).[.[.[.[.[.[.[.[.[.[.[.[.[.[.[.[.[.[.[.[.[.[.[.",
".X_.[..X[.[.[.[.[.[.[._._.%X.X_.[.[.[.[.[.[.XX^.!.!.!.!.Q.`..X[.[.[.[.[.[.[.[.[.[.[.[.[.[.[.[.[.[.[.[.[.[.[.[."
};
