/* XPM */
static char *player22[] = {
/* columns rows colors chars-per-pixel */
"55 55 233 2 ",
"   c #010101",
".  c #0A0202",
"X  c #030904",
"o  c #03030A",
"O  c #04090C",
"+  c #0B0C0B",
"@  c #0A0608",
"#  c #130402",
"$  c #170B08",
"%  c #19130A",
"&  c #030313",
"*  c #080914",
"=  c #160D1E",
"-  c #0C1617",
";  c #131413",
":  c #181818",
">  c #0E100F",
",  c #270C00",
"<  c #261A08",
"1  c #371B0E",
"2  c #221D1B",
"3  c #261A14",
"4  c #3A1515",
"5  c #2B271A",
"6  c #392316",
"7  c #382E11",
"8  c #100E26",
"9  c #0E1625",
"0  c #151A26",
"q  c #181932",
"w  c #0D1132",
"e  c #261D34",
"r  c #192329",
"t  c #192936",
"y  c #18313F",
"u  c #252623",
"i  c #292727",
"p  c #37362D",
"a  c #272938",
"s  c #363638",
"d  c #491705",
"f  c #551C07",
"g  c #5A2407",
"h  c #462819",
"j  c #582D18",
"k  c #44361B",
"l  c #56351C",
"z  c #4B380F",
"x  c #633105",
"c  c #6B3617",
"v  c #743A14",
"b  c #622C15",
"n  c #45362B",
"m  c #573928",
"M  c #473C34",
"N  c #553E34",
"B  c #472E24",
"V  c #663922",
"C  c #76421E",
"Z  c #6A601D",
"A  c #49483D",
"S  c #554738",
"D  c #555537",
"F  c #524829",
"G  c #7E492B",
"H  c #67573B",
"J  c #785436",
"K  c #6A482F",
"L  c #736C32",
"P  c #1E3C4D",
"I  c #1D2F52",
"U  c #252C47",
"Y  c #273A46",
"T  c #333649",
"R  c #2D3657",
"E  c #373B55",
"W  c #1F2865",
"Q  c #2E3467",
"!  c #353B66",
"~  c #333872",
"^  c #423E54",
"/  c #1E4259",
"(  c #1F4152",
")  c #394446",
"_  c #214154",
"`  c #21475B",
"'  c #2A4559",
"]  c #3A4B55",
"[  c #1F516C",
"{  c #254F6A",
"}  c #29546D",
"|  c #2E5D79",
" . c #2B5B78",
".. c #36506C",
"X. c #2F627C",
"o. c #35667B",
"O. c #464B47",
"+. c #5C4C43",
"@. c #585548",
"#. c #475658",
"$. c #525155",
"%. c #675646",
"&. c #765C45",
"*. c #66574D",
"=. c #766A49",
"-. c #686555",
";. c #767655",
":. c #786B50",
">. c #474A69",
",. c #465766",
"<. c #454972",
"1. c #4D5779",
"2. c #476377",
"3. c #56656C",
"4. c #797967",
"5. c #677071",
"6. c #845918",
"7. c #855228",
"8. c #8C5B33",
"9. c #915B3B",
"0. c #824825",
"q. c #986738",
"w. c #A36F39",
"e. c #925D40",
"r. c #867B59",
"t. c #9C7355",
"y. c #976B43",
"u. c #A7764C",
"i. c #B37B53",
"p. c #AC7852",
"a. c #867E63",
"s. c #B07B66",
"d. c #7A8278",
"f. c #87824A",
"g. c #BA8857",
"h. c #B59157",
"j. c #898678",
"k. c #908E6D",
"l. c #AE946A",
"z. c #A7A47A",
"x. c #B3AE6D",
"c. c #C78C54",
"v. c #C79665",
"b. c #C79877",
"n. c #D9B371",
"m. c #D1A86C",
"M. c #E9BA6E",
"N. c #E7C278",
"B. c #235E86",
"V. c #356C8D",
"C. c #377091",
"Z. c #397698",
"A. c #2F698D",
"S. c #3A7DA7",
"D. c #377CB3",
"F. c #505C8C",
"G. c #605984",
"H. c #4C6089",
"J. c #596789",
"K. c #5A7983",
"L. c #486F90",
"P. c #677399",
"I. c #6D718A",
"U. c #3C89B6",
"Y. c #3C85AE",
"T. c #7A8287",
"R. c #4383A8",
"E. c #438BB4",
"W. c #468EB9",
"Q. c #4891BB",
"!. c #5286A6",
"~. c #7A85AC",
"^. c #4B9AC7",
"/. c #6399C0",
"(. c #4EA4D8",
"). c #53A9D6",
"_. c #51A0CE",
"`. c #68B1DC",
"'. c #57AFE2",
"]. c #5AB7ED",
"[. c #5AB8EF",
"{. c #56B3E9",
"}. c #5CBCF4",
"|. c #5CBFF8",
" X c #57BBF5",
".X c #4FAEE9",
"XX c #62B9EB",
"oX c #62BEF3",
"OX c #73B9E0",
"+X c #5EC1FB",
"@X c #5DC4FB",
"#X c #61C6FE",
"$X c #63CAFF",
"%X c #67C7FB",
"&X c #67D2FF",
"*X c #6BD7FF",
"=X c #79C9F4",
"-X c #828585",
";X c #948F82",
":X c #95959F",
">X c #A09F8D",
",X c #A8A684",
"<X c #AEAD97",
"1X c #8988AB",
"2X c #848FB7",
"3X c #86AABD",
"4X c #B1B0B4",
"5X c #CBB995",
"6X c #E7BF9A",
"7X c #CCB9A6",
"8X c #CCC897",
"9X c #D4C98E",
"0X c #F6D192",
"qX c #FFE488",
"wX c #FCE89F",
"eX c #CAC4A5",
"rX c #D3C4A6",
"tX c #FFDAA7",
"yX c #E6DBB1",
"uX c #F7E9A7",
"iX c #FDF4A7",
"pX c #FDEDBD",
"aX c #FAEEB2",
"sX c #FDF7B8",
"dX c #E7E1A2",
"fX c #919ECD",
"gX c #97A5C7",
"hX c #9CADD6",
"jX c #A9B3D7",
"kX c #8BD1F5",
"lX c #B4CBD1",
"zX c #CCC7DE",
"xX c #FFFDCB",
/* pixels */
"}.}.}.}.}.}.}.}.}.}.}.}.}.}.}.}.}.}.}.}.}.}.}.}.}.}.}.}.}.}.}.}.}.}.}.}.}.}.}.}.}.}.}.}.}.}.}.}.}.}.}.}.}.}.|.",
"}.}.}.}.}.}.}.}.}.}.}.}.}.}.}.}.}.}.}.}.}.}.}.}.}.}.}.}.}.}.}.}.}.}.}.}.}.}.}.}.}.}.}.}.}.}.}.}.}.}.}.}.}.}.}.",
"}.}.}.}.}.}.}.}.}.}.}.}.}.}.}.}.}.}.}.|.}.}.}.}.}.}.}.}.}.}.}.}.}.}.}.}.}.}.}.}.}.}.}.|.}.}.}.}.}.}.}.}.}.}.}.",
"}.}.}.}.}.}.}.}.}.}.}.}.}.}.}.}.}.}.}.}.}.}.}.}.}.}.}.}.}.}.}.}.}.}.}.}.}.}.}.}.}.}.}.}.}.}.}.}.}.}.}.}.}.}.}.",
"}.}.}.}.}.}.}.}.}.}.}.}.}.}.}.}.}.}.}.}.}.}.}.}.}.}.}.XX}. X X X}.}.}.}.}.}.}.}.}.}.}.}.}.}.}.}.}.}.}.}.}.}.}.",
"}.}.}.}.}.}.}.}.}.}.}.}.}.}.}.}.}.}.}.}.}.|.}.}.oX3X+.%.%.*.lXkX X}.}.}.}.}.}.}.}.}.}.}.}.}.}.}.}.}.}.oX}.}.}.",
"}.}.}.}.}.}.}.}.}.}.}.}.}.}.}.}.}.}.oX}.}.oX+X`.+.9.c.c.9.8.V :.=XoX}.}.}.}.}.}.}.}.}.}.}.}.}.|.}.}.}.}.}.}.}.",
"}.}.}.}.}.}.}.}.}.}.}.}.}.}.}.}.}.}.}.}.}.=X`.N G v.u.w.v.u.9.b &.OX[.}.}.}.}.}.}.}.}.}.}.}.}.}.}.}.}.}.}.}.}.",
"}.}.}.}.}.}.}.}.}.}.}.}.}.}.}.}.}.}.}.}.@X&X#.G 9.f 0.7.e.v.g.g.d H.$X].}.}.}.}.}.}.}.}.}.}.}.+X}.}.}.}.}.}.}.",
"|.}.}.}.}.}.}.}.}.}.}.}.}.}.}.}.}.}.}.}.@X~.=.u.c p.s.0.g G x u.i.r.`.@X}.}.}.}.}.}.}.}.}.}.}.}.}.}.}.}.}.}.}.",
"}.}.}.}.}.}.}.}.}.}.}.}.}.}.}.}.}.|.+XoX$X} 6.7.v.n.9.v.u.7.p.v 7.y.7X..(.#X}.}.}.}.}.}.}.}.}.}.|.}.}.}.}.}.}.",
"}.}.}.}.}.}.}.}.}.}.}.}.}.}.}.[.+XP Y '.&X ., y.M.7.M.c.b.9.v.n.7.l 5 L.}.oX}.}.}.}.}.}.}.}.}.}.}.}.}.}.|.}.}.",
"}.}.}.}.}.}.}.}.}.}.}.}.}.}.}.}.+Xy j.,..XK.4 m.y.8.0Xv s.G x g.9XN  .$X}.}.}.}.}.}.}.}.}.}.}.}.}.}.}.}.}.}.}.",
"}.}.}.}.}.}.}.}.|.}.}.}.}.oX}.}.+X` 5 j.s ,Xp m 4 t.g.f y.u.f d C < Z.#X[.}.}.}.}.}.}.}.}.}.}.}.}.}.}.}.}.}.}.",
"}.}.}.}.}.}.}.}.}.}.}.}.}.}.#X}.+X@X{ 0 4X@.  o 1 h 4 h # J g b H # Z.*X[.oX%X[.}.}.}.}.}.}.}.}.}.}.}.}.}.}.}.",
"}.}.}.}.}.}.}.|.}.}.}.}.}.}.}.}. XkXo.-.5.p u.3   i O.O.<.^ $ 6 S   ( o.].}.}.}.}.}.}.}.}.}.}.}.}.}.}.}.}.}.}.",
"}.}.}.}.}.}.}.}.}.}.}.}.}.}.}.}.@X3.H ;.M yXsXl.% W H.2.H.F.a r   6 <   / +X#X[.}.}.}.}.}.}.}.}.}.}.}.}.}.}.}.",
"}.}.}.}.}.}.}.}.}.}.}.}.|.}.[.#X{ A j.* S aXuXqXb.8 w Y U W ..1.w u * & % 5.} +X[.}.}.}.}.}.}.}.}.}.}.}.}.}.}.",
"}.}.}.}.}.}.}.}.}.}.}.}.}.}.].#X` . > X   . <XxXuXv.u t 8 8 o r U & T 5.,Xx.D | $X}.}.}.}.}.}.}.}.}.}.}.}.}.}.",
"}.}.}.}.}.}.}.}.}.}.}.}.}.}.}.}.+X{ % p A ; :.sXsXwX=.8 a i 9 T 8 e T.8XdX9Xk.[ *X[.}.}.}.}.}.}.}.}.}.}.}.}.}.",
"}.}.}.}.}.}.}.}.}.}.}.}.}.}.}.}.$XE.D 9XxXz.. =.aX4.    u 8 Q U > d.j.d.k.5XrX#.(.#X}.}.}.}.}.}.}.}.}.}.}.}.}.",
"}.}.}.}.}.}.}.}.}.}.}.}.}.}.}.+XR.> D f.9XdX=.@ d.> S 4.) * Q U D 5X2   . X z.r.B.%X[.}.}.}.}.}.}.}.}.}.}.}.}.",
"}.}.}.}.}.}.}.}.}.}.}.}.}.}.[.$X(   2 H r.r.L % G.; i ,Xx.d.u & @.4.  E ,.a +.-.B.$X[.}.}.}.}.}.}.}.+X}.}.}.}.",
"+X}.}.}.}.}.}.}.}.}.}.}.}.|.[.$X( . ,XL Z 7 # I.a   - F n.h.7 o % : a 2XhX~.-X*.A.$X}.}.}.}.}.}.}.}.}.}.}.}.}.",
"}.}.}.}.}.}.}.}.}.}.}.}.}.}.[.$XP . k.8X8XD o :   p ;.S 5Xx.L s     E fXhXfX$. .+X}.}.}.}.}.}.}.}.}.}.}.}.}.}.",
"}.}.}.}.}.}.}.}.}.}.}.}.}.}.}.#X .e T a q o X     p 9XD F ;.k.+ o & >.I.gXJ.L.$X}.}.}.}.}.}.}.}.}.}.}.}.}.}.}.",
"}.}.}.}.}.}.}.}.}.}.}.}.}.+X}.[.#Xt $.>.U o o o   2 j.k.i @.: # 7 u U ] ,.s ' _.#X[.}.}.}.}.}.}.}.}.}.}.}.}.}.",
"}.}.}.}.}.}.}.}.}.}.}.}.}.}.}.}.|.V.} _   & o 9 t : o 8 q +   3 l.G h 1 @.! : } $X].}.}.}.}.}.}.}.}.}.}.}.}.}.",
"}.}.}.}.}.}.}.}.}.}.}.}.}.}.}.|.}.#X*X^.  : U Q ..Q I ! ! P 9 3 t.c.M.n.%.R r ..*X[.oX}.}.}.}.}.}.}.}.}.}.}.}.",
"}.}.}.}.}.}.}.}.}.}.}.}.}.}.}.}.}.[.#XW.  t ~ R 1.J.P.J.J.J.~.a h m.iXtXl.  ] XXoXoX}.}.}.}.}.}.}.}.}.}.}.}.}.",
"}.}.}.}.}.}.}.}.}.}.}.}.}.}.}.}.}.[.#XW.o 0 <.1X:X1XhXfXgXP.F.~ a n 7XsXwXg.E oXoX}.}.}.}.}.}.}.}.}.}.}.}.}.}.",
"}.}.}.}.}.}.}.}.}.}.}.}.}.}.}.}.}.[.%XE.& <.<X8X8X<X<XzXzX4X-XI.U q N 9XsXwXl.T !.].}.}.}.}.+X}.}.}.}.}.}.}.}.",
"}.}.}.}.}.}.}.}.}.}.}.}.}.}.}.}.}.[.#XU.: >XM o o   5 z.,Xz.k.d.T.,.& z 9XxXtX0Xi E.#X}.}.}.}.}.}.}.}.}.}.}.}.",
"+X}.}.}.}.}.}.}.}.}.}.}.}.}.}.}.}.}.$XS.%.r.  X o X & o       : 4.:.u   m.pX9XN.H D.$X[.}.}.}.}.+X}.}.}.}.}.}.",
"}.}.}.}.}.}.}.}.+X}.}.}.}.}.}.}.}.}.#XU.% S 6 h # o & @ X O @ *   a.-.o @.pXM.M.V R.$X}.}.}.}.}.}.}.}.}.}.}.}.",
"}.}.}.}.}.}.}.}.}.}.}.}.}.}.}.}.}.}.#XW.  6 v V $       X   . X   % V.^.& H 0XtXN D.$X[.}.}.}.}.}.}.}.}.}.}.}.",
"}.}.}.}.}.}.}.}.}.}.}.}.}.}.}.}.}.}.#XE.$ m x c B o o o   . #     .. X$X_.A &.S ; W.#X}.}.}.}.}.}.}.}.}.}.}.}.",
"}.}.}.}.}.}.}.}.}.}.}.}.}.}.}.}.}.].#XE., 7.v v m . o o   k m   P $X}.[.|.}.XX{.{.}.}.}.}.}.}.}.}.}.}.}.}.}.}.",
"}.}.}.}.}.}.}.}.}.}.}.}.}.}.}.}.}.}.#XU.6 i.p.G l #       j V   / $X[.}.}.}.}.oX|.}.}.}.}.}.}.}.}.}.}.}.}.}.}.",
"}.}.}.}.}.}.}.}.}.}.}.}.}.}.}.}.}.}.#XU.h y.m 7 3 # . o   j V   / $X}.}.}.}.}.}.}.}.}.}.}.}.}.}.}.}.}.}.}.}.}.",
"}.}.}.}.}.}.}.}.}.}.}.}.}.}.}.}.}.[.$XW., K s - O         j c   R &XoX}.}.}.}.}.}.}.}.}.}.}.}.}.}.}.}.}.}.}.}.",
"}.}.}.}.}.}.}.}.}.}.}.}.}.}.}.}.}.}.@XQ.5 3.O.- - : : .   n N   / %X[.}.}.}.}.}.}.}.}.}.}.}.}.}.}.}.}.}.}.}.}.",
"}.}.}.}.}.}.}.}.}.+X}.}.}.}.}.}.}.}.#XW.p ] O   #.@.$.u   @ %   _ $X[.}.}.}.}.}.}.}.}.}.}.}.}.}.}.}.}.}.}.}.}.",
"}.}.}.}.}.}.}.}.}.}.}.}.}.}.}.}.}.[.#XQ.p ) X - O.> X .   + ; X P $X}.}.}.|.}.}.}.}.}.}.}.}.}.}.}.}.}.}.}.}.}.",
"}.}.}.}.+X}.}.}.}.}.}.}.}.}.}.}.}.[.@XW.p ] o O.>         #.5.) / &X X@X}.}.}.}.}.}.}.}.}.}.}.}.}.}.}.+X}.}.}.",
"}.}.}.}.}.}.}.}.}.}.}.}.}.}.}.}.}.}.+X'.] 5 + @.>       o i ) u 0 ^.+X[.}.}.}.}.}.}.}.}.}.}.}.}.}.}.}.}.}.}.}.",
"}.}.}.}.}.}.}.}.}.}.}.}.}.}.}.}.}.}.}.@X).Z.y O.>             o    .$X].}.}.}.}.}.}.}.}.}.}.}.}.}.}.}.}.}.}.}.",
"}.}.}.}.}.}.}.}.}.}.}.}.}.}.}.}.}.}.}. X@X&X).3.+           . @   X.$X[.}.}.}.}.}.|.}.}.}.}.oX}.}.}.}.}.}.}.}.",
"}.}.}.}.}.}.}.}.}.}.}.}.}.}.}.}.}.}.}.}.}.].+XK.X             X   | $X[.}.}.}.}.}.}.}.}.}.}.}.}.}.}.}.}.}.}.}.",
"}.}.}.+X}.}.}.}.}.}.}.}.}.}.}.}.}.}.}.}.}.oX$XoXP r P *       o    .$X[.}.}.}.|.}.}.}.}.}.}.}.}.}.}.}.}.}.}.}.",
"}.}.}.}.}.}.}.}.}.}.}.}.}.}.}.}.}.}.}.[.$X).Y.E.E.E.^.`   o   X O Z.$X}.}.}.}.}.}.}.}.}.}.}.}.}.}.}.}.}.}.}.}.",
"}.}.}.}.}.}.}.}.}.}.}.}.}.}.}.}.}.}.}.#X_.r                   O S.%X}.}.}.}.}.}.}.}.}.}.}.}.}.}.}.}.}.}.}.}.}.",
"}.}.}.}.}.}.}.}.}.}.}.+X}.}.}.}.}.}.}.+X^.X.C.C.C.C.C.C.V.V.A.R.$X}.}.}.}.}.}.}.}.}.}.|.}.}.}.}.}.}.}.}.}.}.}.",
"}.}.}.}.}.}.}.}.}.}.}.}.}.}.}.}.}.}.}.}.+X$X$X$X$X$X$X@X$X$X%X@X[.}.}.}.}.}.}.}.}.}.}.}.}.}.}.}.}.}.}.}.}.}.}.",
"}.}.}.}.}.}.}.}.}.}.}.}.}.}.}.}.}.}.}.}.|.[.[.[.[.[.[.[.[.}.[.}.}.}.}.}.}.}.}.}.}.}.}.}.}.}.}.}.}.}.}.}.}.}.}."
};
