/* XPM */
static char *player6[] = {
/* columns rows colors chars-per-pixel */
"55 55 237 2 ",
"   c #010102",
".  c #0A0402",
"X  c #0B0A04",
"o  c #02030C",
"O  c #080A09",
"+  c #170907",
"@  c #19150D",
"#  c #060619",
"$  c #0D1517",
"%  c #141413",
"&  c #181819",
"*  c #0F120D",
"=  c #260606",
"-  c #27150A",
";  c #271A18",
":  c #351A14",
">  c #321007",
",  c #1D221F",
"<  c #3A2C0A",
"1  c #272718",
"2  c #342917",
"3  c #333112",
"4  c #0B1626",
"5  c #141828",
"6  c #161B33",
"7  c #0A0E2A",
"8  c #221E37",
"9  c #192525",
"0  c #1E333B",
"q  c #272829",
"w  c #362D28",
"e  c #373629",
"r  c #262937",
"t  c #293337",
"y  c #343335",
"u  c #35393A",
"i  c #283130",
"p  c #461807",
"a  c #492604",
"s  c #5E3107",
"d  c #472A1B",
"f  c #532E0E",
"g  c #642B05",
"h  c #663517",
"j  c #463C2A",
"k  c #57392A",
"l  c #483C38",
"z  c #4D3127",
"x  c #653D28",
"c  c #39433B",
"v  c #4A491B",
"b  c #7A431A",
"n  c #6D401F",
"m  c #49432D",
"M  c #564728",
"N  c #58522B",
"B  c #464337",
"V  c #52553C",
"C  c #534632",
"Z  c #694927",
"A  c #7B4A2B",
"S  c #78592B",
"D  c #64593A",
"F  c #75583A",
"G  c #6B5331",
"H  c #72662F",
"J  c #1A374A",
"K  c #1B2E48",
"L  c #262946",
"P  c #3B2F41",
"I  c #2A3746",
"U  c #383A48",
"Y  c #2A3A55",
"T  c #363C5C",
"R  c #3D3B6A",
"E  c #413A45",
"W  c #403D63",
"Q  c #394647",
"!  c #384656",
"~  c #3A5859",
"^  c #324C52",
"/  c #1D4B69",
"(  c #274D66",
")  c #3C4767",
"_  c #28536B",
"`  c #265774",
"'  c #3A5171",
"]  c #30617B",
"[  c #474645",
"{  c #585349",
"}  c #464C59",
"|  c #495451",
" . c #545B59",
".. c #544B4E",
"X. c #675E50",
"o. c #6E514A",
"O. c #52645A",
"+. c #65605B",
"@. c #6F6D4B",
"#. c #484966",
"$. c #495765",
"%. c #535962",
"&. c #4A5576",
"*. c #4F5678",
"=. c #605B62",
"-. c #5B6668",
";. c #556475",
":. c #567071",
">. c #587469",
",. c #676C67",
"<. c #75786A",
"1. c #6A7978",
"2. c #707573",
"3. c #8A5737",
"4. c #8C572F",
"5. c #9A6837",
"6. c #8F662F",
"7. c #A05D2B",
"8. c #87554A",
"9. c #8B6447",
"0. c #9A765A",
"q. c #8A734E",
"w. c #A46B49",
"e. c #A77745",
"r. c #AD774D",
"t. c #8C786E",
"y. c #69827B",
"u. c #BB8A3E",
"i. c #8A865A",
"p. c #8D864F",
"a. c #A78357",
"s. c #AE8C55",
"d. c #8E8465",
"f. c #978769",
"g. c #999865",
"h. c #908E78",
"j. c #B5956C",
"k. c #A49B73",
"l. c #A8916F",
"z. c #B7AD74",
"x. c #C28D55",
"c. c #C99866",
"v. c #D09A6E",
"b. c #DBAC78",
"n. c #DEAD69",
"m. c #E6B773",
"M. c #376989",
"N. c #376E93",
"B. c #387296",
"V. c #276287",
"C. c #3678A3",
"Z. c #4D5C86",
"A. c #5C5E88",
"S. c #5A6486",
"D. c #5B6E93",
"F. c #4D758D",
"G. c #636A99",
"H. c #777995",
"J. c #6B778F",
"K. c #4375A3",
"L. c #7078A9",
"P. c #817297",
"I. c #3E83A9",
"U. c #3785B1",
"Y. c #5A849B",
"T. c #6B8797",
"R. c #748E8E",
"E. c #75A597",
"W. c #4084AC",
"Q. c #468CB7",
"!. c #4691BD",
"~. c #5885A4",
"^. c #7290AA",
"/. c #4998C7",
"(. c #519ECE",
"). c #56A9DA",
"_. c #4DA2D4",
"`. c #53AEE2",
"'. c #59B6ED",
"]. c #5AB8EF",
"[. c #56B2E7",
"{. c #56B9F4",
"}. c #5CBCF4",
"|. c #5DBFF8",
" X c #55BFFD",
".X c #4EA8E1",
"XX c #66BBEB",
"oX c #62BEF3",
"OX c #68BFF1",
"+X c #63ACD4",
"@X c #5DC3FD",
"#X c #5EC5F7",
"$X c #61C5FE",
"%X c #63CAFF",
"&X c #6BCDFF",
"*X c #67C2F4",
"=X c #68D3FF",
"-X c #74C8F1",
";X c #9B9E84",
":X c #8E8D8B",
">X c #A8918B",
",X c #97A395",
"<X c #9DA18B",
"1X c #A6A489",
"2X c #A7AA94",
"3X c #B3B18C",
"4X c #8C93AB",
"5X c #91AEB3",
"6X c #B5B8A3",
"7X c #BABFB7",
"8X c #AAAEA6",
"9X c #CBB086",
"0X c #C5BDA7",
"qX c #CEC991",
"wX c #F3D091",
"eX c #F2E199",
"rX c #DED5BC",
"tX c #E6DAAB",
"yX c #F1EDB0",
"uX c #8B96C3",
"iX c #9DA7CC",
"pX c #98A8D3",
"aX c #9AB5C7",
"sX c #A4B2D6",
"dX c #ABB2ED",
"fX c #92DCFF",
"gX c #88CFEF",
"hX c #9DE3FE",
"jX c #A5C9C9",
"kX c #D8DBD8",
"lX c #D3CECA",
"zX c #F2F0C6",
"xX c #F0EECC",
"cX c #FEFFFF",
"vX c #F7FCFF",
"bX c #EBF1E9",
"nX c #CCCFE5",
/* pixels */
"}.}.}.}.}.}.}.}.}.}.}.}.}.}.}.}.}.}.}.}.}.}.}.}.}.}.}.}.].}.}.}.}.}.}.}.}.}.}.}.}.}.}.}.}.}.}.}.}.}.}.}.}.}.}.",
"}.}.}.}.}.}.}.}.}.}.}.}.}.}.}.|.}.}.}.}.}.}.}.}.}.@X@X%X%X@X}.}.}.}.}.}.}.}.}.}.}.}.}.}.}.}.}.}.}.}.}.}.}.}.}.",
"}.}.}.}.}.}.}.}.}.}.}.}.}.}.}.}.}.}.}.}.}.}.#X@X*XT.K.R.T.T.*X}.}.}.}.}.}.}.}.}.}.}.}.}.}.}.}.}.|.}.}.}.}.}.}.",
"}.}.}.}.}.}.}.}.}.}.}.}.}.}.}.}.}.}.}.}.}.{.@X~.-.9.4.h 3.h F.$X}.}.}.}.}.}.}.}.}.}.}.}.}.}.}.}.}.}.}.}.}.}.}.",
"}.}.}.|.}.}.}.}.}.|.}.}.}.}.}.}.}.}.}.}.}.@XT.h g 7.x.w.A Z g J.&X].oX}.}.}.}.}.}.}.}.}.}.}.}.}.}.}.}.}.}.}.}.",
"}.}.}.}.}.}.}.}.}.}.}.}.}.}.}.}.}.}.}.].@XY.> 3.v.c.h A g r.c.g J.$X].}.}.}.}.].}.}.}.}.}.}.}.}.}.}.}.}.}.}.}.",
"}.}.}.}.}.}.}.}.}.}.}.}.}.}.}.}.}.}.}.}.*XO.4.v.4.h f 8.e.4.c.c.o.*XoX].}.}.|.$X#X}.}.}.}.}.}.}.}.}.}.}.}.}.}.",
"}.}.}.}.}.}.}.}.}.}.}.}.}.}.}.}.}.}.}.%XK.b v.h 4.8.4.5.5.n.9.w.7.-.&X[.oXoX+XQ.).#X}.}.}.}.}.}.}.}.}.}.}.}.|.",
"}.}.}.}.}.}.}.}.}.}.}.}.|.}.}.}.}.}.}.[.2.r.o.w.r.4.c.m.u.w.n.r.a ` =X%X%XY.H.V V.%X}.}.}.}.}.}.}.}.}.}.}.}.}.",
"}.}.}.}.}.|.}.}.}.}.}.}.}.}.}.}.}.}.$XQ.d x e.c.g 4.s.x wXw.F r.. I ` _ _ 2.7Xy F.&X}.}.}.}.}.}.}.}.}.}.}.}.}.",
"}.}.}.}.}.}.}.}.}.}.}.}.}.}.}.}.}.}.}.oX( k u.g + V c.= 2 d - o.= = { ..& 6Xw I XX}.}.}.}.}.}.}.}.}.}.}.}.}.}.",
"}.}.}.}.}.}.}.}.}.}.}.}.}.}.}.}.}.}.}.%XC.< h p P.P w.s.t D.z : ; : 4 2X,.& U gX@X].}.}.}.}.}.}.}.}.}.|.}.}.}.",
"}.}.}.}.}.}.}.}.}.}.}.}.}.}.}.}.}.}.].@XT.> : k tXl.qXyX>XlX8.Z ..d.o | <XP jX@X'.}.}.}.}.}.}.}.}.}.}.}.}.}.}.",
"}.}.}.}.}.}.}.}.}.}.}.}.}.}.}.}.}.}.}.$XQ.2 % v m.wXwXtXeXm.8.C 2 0.9.  } d.^ .X-X*X{.}.}.}.}.}.}.}.}.}.}.}.|.",
"}.|.}.}.}.}.}.}.}.}.}.}.}.}.}.}.}.}.}.%X*X~ . q 3.wXb.9XwXS E <.w j.m.8.X N < / hX-X{.}.}.}.}.}.}.}.}.}.}.}.}.",
"}.}.}.}.}.}.}.}.}.}.|.}.}.}.}.}.].{.XXY.<.H ; #.: 5.wXwX3.! Z.X M G S 9X, ` ` Q.@X}.}.}.}.}.}.}.}.}.}.}.}.}.}.",
"}.}.}.}.}.}.}.}.#X}.}.}.}.}.}.}.{.gX,Xj.qXi.1 # K X.x f u Z.7 . D qXz.a.V #X%X#X}.}.}.}.}.}.}.}.}.}.}.}.}.}.}.",
"}.}.}.}.}.}.}.}.}.}.}.}.}.}.}.}.-X,XeXyXyXeXz.3XU K k G 0 L 6Xd.g.zXyXyXg.gX{.}.}.}.}.}.}.}.}.}.}.}.}.}.|.}.}.",
"}.|.}.}.}.}.}.}.}.}.}.}.}.}.].$X:.k.qXk.V @.u z.<X# C F   f.qXe @.N g.qX9XO.{.}.oXoX}.}.}.}.}.}.}.}.}.}.}.}.}.",
"}.}.oX}.}.}.}.}.}.}.}.}.}.}.].%XJ k.k.bX8Xb.X.# r 2Xw & 8XE % e k.2XvXk.z.0 @X#X}.}.}.}.}.}.}.}.}.}.}.}.}.}.}.",
"}.}.}.}.}.}.}.}.}.}.}.}.}.}.#X/.;.f.H 1.8X3X1 L q rXX.m lXy q & z.6XR.D p. .!.*X}.}.}.}.}.}.}.}.}.}.}.}.}.}.}.",
"}.}.}.}.}.}.}.}.}.}.}.}.}.].&X/ 1Xg.< j q.3 U S.H.:X& 5 <.4X%.:XqX+.Z a q.0XJ %X].}.}.}.}.}.}.}.}.}.}.}.}.}.}.",
"}.}.}.}.}.}.}.}.}.}.}.}.}.}.%X( @.yXqXyX;X  U } [ e S.G.i | } #.% <.zXqXyXd.J %X}.}.}.}.}.}.}.}.}.}.}.}.}.}.}.",
"}.}.}.}.}.}.}.}.}.}.}.}.}.}.}.`.I 2 B e @ o 7 &.u & ..E m u &.6   % e B e t +X}.}.}.}.}.}.}.}.}.}.|.}.}.}.}.}.",
"}.}.|.}.}.}.}.}.}.}.}.}.}.}.}.=XM.# #.8 o . L T q p.V m s.e Y I o . 6 #.7 /.@X}.}.}.}.}.}.}.}.}.}.}.}.}.}.}.}.",
"}.}.}.}.}.}.}.}.}.}.}.}.}.}.}.`.*.T L.U - l # 5 v p.[ B d.v % # 8 y L L.R Z.`.}.}.|.}.}.}.}.}.}.}.}.}.}.}.}.}.",
"}.}.}.}.}.}.}.}.}.}.}.}.}.}.$XM.R.L.) 4 & %.& S.) P qXtX[ I L.  B R.6 ! G.4XM.@X}.}.}.}.}.}.}.}.}.}.}.}.}.}.}.",
"}.}.}.}.}.}.}.}.}.}.}.}.}.}.@XK.G.dXD.#.q w 7 *.pXR q e L iXS.r   6 ;.;.dXH.Z.@X}.}.}.}.}.}.}.}.}.}.}.}.}.}.}.",
"}.}.}.}.}.}.}.}.}.}.}.}.{.-XhXV.7 Q <X6 X X ) ' H.I o   L J.' &.  % 5 4X| # ( @XXXoX}.}.}.}.}.}.}.}.}.}.}.}.}.",
"}.}.}.}.}.}.}.}.}.}.}.}.].].fX_ d 1Xm   O   ! &.*.o t [   &.) Z.I     w 1XC Y &X}.oX}.}.}.}.}.}.}.}.}.}.|.}.}.",
"}.}.}.}.}.}.}.}.}.}.}.}.].$XC.j C u h.u :X  Q uX)   U #.. Y ^.G.#.    h.{ 2 T. X}.}.}.}.|.}.}.}.}.}.}.}.}.}.}.",
"}.}.}.}.|.}.}.}.}.}.}.}.}.%XB.. E ) 8 i @ o $.iXS.  q L   &.pXD.S.t . q ! r | fX'.}.}.}.}.}.}.}.}.}.}.}.}.}.}.",
"}.}.}.}.}.}.}.}.}.}.}.}.}.&XN.3 1 6 ;.i.H I sXsX;.o o o   I pXpXH.P @.=.L 4 ^ fX}.{.}.}.}.}.}.}.}.}.}.}.}.}.}.",
"}.}.}.}.}.}.}.}.}.}.}.}.}.%XN.< 1 &.K C 0.! dXpX;.o   . . o uXsX4Xt.9Xx I r J @X}.}.}.}.}.}.}.}.}.}.|.}.}.}.}.",
"}.}.}.}.}.}.|.}.}.}.}.}.].%XK.. X % % t.- 2.nXpX;.# % @ + . 5XiX5X2.d r.n $ /.*X}.}.}.}.}.}.}.}.}.}.}.}.}.}.}.",
"}.}.}.}.}.}.}.}.}.}.}.}.}.oX[.W.!.I.& q   @ 3XxX;Xo + + + o y kXbX2.. j.c.r @X}.}.}.}.}.}.}.}.}.}.}.}.}.}.}.}.",
"|.}.}.}.}.}.}.}.}.}.}.}.oX}.|.$X$X$X).C.X o k k ; + @ > + O + G z w # 0.{ _.}.}.}.}.}.}.}.}.}.}.}.}.}.}.}.}.}.",
"}.}.}.}.}.}.}.}.}.}.}.}.}.}.}.].}.].#X=XB.d 0.6.h - = - : o.G 4.} oXoX( 5X$X}.}.}.}.}.}.}.}.}.}.}.}.}.}.}.}.}.",
"}.}.}.}.}.}.}.}.}.}.}.}.}.}.}.}.}.}.}.'.( > Z a q.2 o + A 4.e.a T =X].@X@X}.}.}.}.}.}.}.}.}.}.}.}.}.}.}.|.}.}.",
"}.}.}.}.}.}.}.}.}.}.}.}.}.}.}.}.}.].%X!.@ j d { l   . . - k h d 4 (.@X].}.}.}.}.}.}.}.}.}.}.}.}.}.}.}.}.}.}.}.",
"}.}.}.}.}.}.}.}.}.}.}.}.}.}.}.}.}.|.[.~ c @ ; B t O   .     l z d 4 /.@X}.}.}.}.}.}.}.}.}.}.}.}.}.}.}.}.}.}.}.",
"}.}.}.}.}.}.}.}.}.}.}.}.}.}.}.}.].@X_.5  .[ Q Q  .O o   y & ; O B ; B.=X}.}.}.}.}.}.}.}.}.}.}.}.}.}.}.}.}.}.}.",
"}.}.}.}.}.}.}.|.}.}.|.}.}.}.}.}.}.#X/.q [ X ^ :.O.  O   B >.c , | >.i U.$X}.}.}.}.}.#X}.}.}.}.}.}.}.}.}.}.}.}.",
"}.}.}.}.}.}.}.}.}.}.}.}.}.}.}.}.{.{.I | u   $.E.R.O o   t E.E.-.$ E.%.Q.$X].}.}.}.}.}.}.}.}.}.}.}.}.|.}.}.}.}.",
"}.}.|.}.}.}.}.}.}.}.}.}.}.}.}.}.}.#X).  O   $.,Xi   1 t o o T.1.o   I.%X].}.}.}.|.}.}.}.}.}.}.}.}.}.}.}.}.}.}.",
"}.}.}.}.}.}.}.}.}.}.}.}.}.}.}.}.}.@X_.* i i q * i * sX:X. + ; .   > } `.}.}.}.}.}.}.}.}.}.}.}.}.}.}.}.}.}.}.}.",
"}.}.}.}.}.}.}.}.}.}.|.}.}.}.}.}.{.@X`.X B 1.l l   u cXrXe . t.B * 0.d U.%X}.}.}.}.}.}.}.}.}.}.}.}.}.}.}.}.}.}.",
"}.}.}.}.}.}.}.}.}.}.}.}.}.}.}.}.}.'.! o.B & k 0.+ y vXcX%.. 1 e j 2 X /.@X}.}.}.}.}.}.}.}.}.}.}.}.}.}.}.}.}.}.",
"}.}.}.}.}.}.}.}.}.}.}.}.}.|.}.}.}.}.w o.@   + X.. y cXcXbXq O | -.^ * I.=X].}.}.}.}.}.}.}.}.}.}.}.}.}.}.}.}.}.",
"}.}.}.}.}.}.}.|.}.}.}.}.}.}.}.}.}.(.9 * q % . O   y kXkX .  $ i O.y.R.Q !.#X}.}.}.}.}.}.}.}.}.}.}.}.}.}.}.}.}.",
"}.}.}.}.}.}.}.}.}.}.}.}.}.}.}.}.|.~ $.E.y.I $ . .         O O $ 9 -.,XV $ '.#X}.}.}.}.}.}.}.}.}.}.}.}.}.}.}.}.",
"}.}.}.}.}.}.}.}.}.}.}.}.}.}.}.}.|.~ >.5X5Xc o                   9 ] _ ` ] '.}.}.}.}.}.}.}.}.}.}.}.}.}.}.}.}.}.",
"}.}.}.}.}.}.}.}.}.}.}.}.}.}.}.}.#XK.9 % & *     O N.N.N.M.N.N.M.Q.=X%X%X@X}.}.}.}.}.}.}.}.#X}.}.}.}.#X}.}.}.}.",
"}.}.}.}.}.}.}.}.}.}.}.}.}.}.}.}.}.#XQ.I.I.U.Q.W.!.%X%X%X@X%X@X%X$X].].].}.}.}.}.}.}.}.}.}.}.}.}.}.}.}.}.}.}.}.",
"}.|.}.}.}.}.}.}.}.}.}.}.}.}.}.}.}.}.$X%X%X%X%X%X%X].].].}.].].].].}.}.}.}.}.}.}.}.}.}.}.}.}.}.}.}.}.}.}.}.}.}."
};
