/* XPM */
static char *player21[] = {
/* columns rows colors chars-per-pixel */
"55 55 237 2 ",
"   c #010101",
".  c #0C0302",
"X  c #040409",
"o  c #05090B",
"O  c #0D0A0A",
"+  c #080906",
"@  c #170A05",
"#  c #14130B",
"$  c #1B1308",
"%  c #0A0B14",
"&  c #080916",
"*  c #120B18",
"=  c #0B1216",
"-  c #131413",
";  c #1A1B15",
":  c #161919",
">  c #09150F",
",  c #361D0B",
"<  c #261D19",
"1  c #2D0C0A",
"2  c #332A09",
"3  c #27261A",
"4  c #38251B",
"5  c #3A3615",
"6  c #0E1126",
"7  c #0D1926",
"8  c #171928",
"9  c #181A3A",
"0  c #0A0E24",
"q  c #281F2A",
"w  c #192529",
"e  c #192934",
"r  c #1B303C",
"t  c #212323",
"y  c #282928",
"u  c #3C3628",
"i  c #262637",
"p  c #273439",
"a  c #373A37",
"s  c #312F3E",
"d  c #4A1B01",
"f  c #561A08",
"g  c #4C1E1A",
"h  c #400D01",
"j  c #45270C",
"k  c #552A0B",
"l  c #5A3318",
"z  c #4C2714",
"x  c #642705",
"c  c #67360D",
"v  c #642D12",
"b  c #6D3815",
"n  c #443929",
"m  c #5E3E25",
"M  c #403C39",
"N  c #6E3D2B",
"B  c #3C412B",
"V  c #3D4435",
"C  c #6C4116",
"Z  c #7A471E",
"A  c #444025",
"S  c #5B4121",
"D  c #494836",
"F  c #574C36",
"G  c #535133",
"H  c #7A4824",
"J  c #674A35",
"K  c #784833",
"L  c #665737",
"P  c #795536",
"I  c #6C5325",
"U  c #6C643A",
"Y  c #1B2747",
"T  c #1B3A4B",
"R  c #193D55",
"E  c #263746",
"W  c #363B48",
"Q  c #283A57",
"!  c #353B58",
"~  c #252A41",
"^  c #373C67",
"/  c #293264",
"(  c #1D4052",
")  c #224456",
"_  c #244859",
"`  c #38495D",
"'  c #334446",
"]  c #1E4965",
"[  c #264D64",
"{  c #384866",
"}  c #2B5A74",
"|  c #2D5473",
" . c #3C5474",
".. c #2C506E",
"X. c #2F607D",
"o. c #3A617B",
"O. c #484744",
"+. c #5B594B",
"@. c #4E5450",
"#. c #685846",
"$. c #605B59",
"%. c #7B574B",
"&. c #586154",
"*. c #646449",
"=. c #776644",
"-. c #696556",
";. c #736A58",
":. c #7B7756",
">. c #45556E",
",. c #595667",
"<. c #444E77",
"1. c #485679",
"2. c #525478",
"3. c #635E73",
"4. c #5A6767",
"5. c #5D6975",
"6. c #41687B",
"7. c #7B7862",
"8. c #6F7472",
"9. c #804A22",
"0. c #8D5B35",
"q. c #915D39",
"w. c #8B5A29",
"e. c #97663C",
"r. c #8B6E3F",
"t. c #A7773E",
"y. c #A7652E",
"u. c #844A46",
"i. c #97775A",
"p. c #8D6D4D",
"a. c #A16A44",
"s. c #AC7A4A",
"d. c #AB7B54",
"f. c #A87D66",
"g. c #998E53",
"h. c #AB8449",
"j. c #B28D56",
"k. c #888769",
"l. c #9A9566",
"z. c #9B8D71",
"x. c #AA9068",
"c. c #AEA672",
"v. c #B3A773",
"b. c #C28A5C",
"n. c #CB9863",
"m. c #D39170",
"M. c #CAA66B",
"N. c #D8AA77",
"B. c #D2AC75",
"V. c #D7AE65",
"C. c #3C5F89",
"Z. c #346A88",
"A. c #3B789B",
"S. c #387CA5",
"D. c #535D8C",
"F. c #456385",
"G. c #586889",
"H. c #567485",
"J. c #5A6893",
"K. c #5C7B94",
"L. c #467389",
"P. c #656783",
"I. c #747984",
"U. c #656D98",
"Y. c #657397",
"T. c #737899",
"R. c #6B7488",
"E. c #437AA2",
"W. c #6870A2",
"Q. c #727CA8",
"!. c #3780AF",
"~. c #578098",
"^. c #708088",
"/. c #4385AA",
"(. c #468CB4",
"). c #4692BC",
"_. c #5B8CAA",
"`. c #7787A7",
"'. c #4C9DCC",
"]. c #4B98C6",
"[. c #5690C1",
"{. c #4DA3D6",
"}. c #54A6D3",
"|. c #51A0CE",
" X c #71B2CF",
".X c #54AFE4",
"XX c #59B4E5",
"oX c #59B5EB",
"OX c #5BB8EF",
"+X c #55B3EA",
"@X c #5CBCF4",
"#X c #5CBFF8",
"$X c #55B7F2",
"%X c #63BEF0",
"&X c #67BEEA",
"*X c #5DC2FC",
"=X c #5EC8FF",
"-X c #61C5FE",
";X c #64CBFF",
":X c #6ACDFF",
">X c #6BC4F7",
",X c #67D3FF",
"<X c #77C9F6",
"1X c #9D9A88",
"2X c #8D9195",
"3X c #ADAA8A",
"4X c #8E95B2",
"5X c #8F92B7",
"6X c #8FA9AC",
"7X c #99A6BD",
"8X c #AFB0A2",
"9X c #98A797",
"0X c #C7B787",
"qX c #CAB492",
"wX c #E6B487",
"eX c #C6C385",
"rX c #CEC791",
"tX c #EECF94",
"yX c #FFE39B",
"uX c #FFE493",
"iX c #C3C1B3",
"pX c #CCD3B5",
"aX c #C6C6AB",
"sX c #EAD5A5",
"dX c #FDF3AC",
"fX c #F8EAB9",
"gX c #FEF5BA",
"hX c #F5E4A8",
"jX c #8C90C4",
"kX c #9AC2D5",
"lX c #84CEF3",
"zX c #BAC4F8",
"xX c #9DE1FA",
"cX c #CFD3C7",
"vX c #E9E7CC",
"bX c #FEF9CA",
"nX c #EBE8CF",
/* pixels */
"@X@X@X@X@X@X@X@X@X@X@X@X@X@X@X@X@X@X@X@X@X@X@X@X@X@X@XOXOXOX@X@X@X@X@X@X@X@X@X@X@X@X@X@X@X@X@X@X@X@X@X@X@X@X@X",
"@X@X@X@X@X@X@X@X@X@X@X@X@X@X@X@X@X@X@X#X@X@X@X@X@XOX*X,X=X=X*XOXOX@X@X@X@X@X@X@X@X@X@X@X@X@X@X@X@X@X@X@X@X@X@X",
"@X@X@X@X@X@X@X@X@X@X@X@X@X@X@X@X@X@X@X@X@X@X@X@XOX,XkXY.~.~._.*X*X@X@X@X@X@X@X@X@X@X@X@X@X@X@X@X@X@X@X@X@X@X@X",
"@X@X@X@X@X@X@X@X@X@X@X@X@X@X@X@X@X@X@X@X@X@X@X#XOXI.i.9.a.0.P 5._.=X@X@X@X@X@X@X*X@X@X@X@X@X@X@X@X@X@X@X*X@X@X",
"#X@X@X@X@X@X@X@X@X@X@X@X@X@X@X@X@X@X@X@X@X@X@X>X4.k b H n.b.9.x l 4XlX@X%X@X@X@X@X@X@X@X@X@X@X@X@X@X@X@X@X@X@X",
"@X@X@X@X@X@X@X@X@X@X@X@X@X@X@X@X@X@X@X@X@X@X>X4.l f.c c Z b.N.wXj.k [.-XOX@X@X@X@X@X@X@X@X@X@X@X@X@X@X@X@X@X@X",
"@X@X@X@X@X@X@X@X@X@X@X@X@X@X@X@X@X@X@X@X@X#XlXJ q.Z Z d.P c 9.w.N.H H.:X@X@X@X@X@X@X@X@X@X@X@X@X@X@X@X@X@X@X@X",
"@X@X@X@X@X@X@X@X@X@X@X@X@X@X@X@X@X@XOX@XOX<X+.s.e.a.N.e.q.H 0.Z 9.d.e.iX<X@X@X@X@X@X@X@X@X@X@X@X@X@X@X@X@X@X@X",
"@X@X@X@X@X@X@X@X@X@X@X@X@X@X@X@X=X,X-XOX&X-XR k 0.tXy.m.N.n.9.wXa.v B.U }.>X@X@X@X@X@X@X@X@X@X@X@X@X@X@X@X@X@X",
"@X@X@X@X@X@X@X@X@X#X@X@X@X@X@X*XS.( o.;X$XxX$.1 N.t.9.N.b M.j.e.B.wXf. .+X-X@X@X@X@X@X@X@X@X@X@X@X@X@X@X@X@X@X",
"@X@X@X@X@X@X@X@X@X@X@X@X@X@X@X;XT 7.: ..*XlX$.d d.k j.d.h N wXN b h.2 ).;XOX@X@X@X*X@X@X@X@X@X@X@X@X@X@X@X@X@X",
"@X@X@X@X@X@X@X@X@X@X@X@X@X@XOX-X) u 9Xp *X[.1XS g d t.b.b x m.m.f f P p {.-X@X@X@X@X@X@X@X@X@X@X@X@X@X@X*X@X@X",
"@X@X#X@X@X@X@X@X@X@X@X@X@X@X@X@X<Xe y 9XY 9XD @ J g k P m.k k i.J #., $ '.-X@X@X@X@X@X@X@X@X@X@X@X@X@X@X@X@X@X",
"@X@X@X@X@X@X@X@X@X@X@X@X@X@X@X@X@XOXT : 8X+.  O o O 8 ~ s i q * o X 8 Q .X*X@X@X@X@X@X@X@X@X@X@X@X@X@X@X@X@X@X",
"@X@X@X@X@X@X@X@X@X@X@X@X@X@X@X@X@X*XZ.#.k.s *.o 0 2.<.Y.J.W.J. .`   L. X X>X@X@X@X@X@X@X@X@X@X@X@X@X@X@X@X@X@X",
"@X@X@X@X@X@X@X@X@X@X@X@X@X#X@X@X-XZ.F 7.B eXdXh.# W 9 6 6 6 0 ~ p 3 g.B.v.6X$X@X@X@X@X@X@X@X@X@X@X@X@X@X@X@X@X",
"@X@X@X@X@X@X@X@X@X@X@X@X@X@X@X-XZ.G l.- F bXnXyXh.  - i 9 y w 8   2 rXgXhXpX>X@X@X@X@X@X@X@X@X@X@X@X@X@X@X@X@X",
"@X@X@X@X@X@X@X@X@X@X@X@X@X@X@X-XT $ ;     g.bXbXhXn.4 +.qXa 2X8XaX+.j sXbXeXH.=X@X@X@X@X@X@X@X@X@X@X@X@X@X@X@X",
"@X@X@X@X@X@X@X@X@X@X@X@X@X@X@X@X$Xe   3 V g.n.dXfXtXp.s a k.V 5XU.5 U eXbX*.E -X@X@X@X@X@X@X@X@X@X@X@X@X@X@X@X",
"@X@X@X@X@X@X@X@X@X@X@X@X@X@X@X@X*X@Xw 3Xl.I B g.sXo X   : 7.O.4XO.7.v.l.c.5 ( ,XOX@X@X@X@X@X@X@X@X@X@X@X@X@X@X",
"#X@X@X@X@X@X@X@X@X@X@X@X@X@X@X%X>X/.$.2 I k.8.,.i.@ B +.W - 7X>.4.7.p.l.0Xx.4.].*X@X@X@X@X@X@X@X@X@X@X@X@X@X@X",
"@X@X@X@X@X@X@X@X@X@X@X@X@X@X@X@X*Xe qXrXc.z.7.,.& + n 3Xl.;.O.q W u z.k.7.3Xk.[ ,XOX@X@X@X@X@X@X@X@X@X@X@X@X@X",
"@X@X@X@X@X@X@X@X@X@X@X@X@X@X@X@X#X(.y *.B   V : X   * F eXx.2 X X X       > @ | ;XOX@X@X@X@X@X@X@X@X@X@X@X@X@X",
"@X@X@X@X@X@X@X@X@X@X@X@X@X@X@X@X@XE.U.^ e .   i %   O *.rXv.U n + + o e ' 8 e XX@X@X@X@X@X@X@X@X@X@X@X@X@X@X@X",
"@X@X@X@X@X@X#X@X@X@X@X@X@X@X@X@X*X .4X>.6 X   o a L L 3 B p.0XrX-.3 t I.7XQ 6.-X@X@X@X@X@X@X@X@X@X@X@X@X@X@X@X",
"@X@X@X@X@X@X@X@X@X@X@X@X@X@X@X@X*X{ 2.Y.D.i   X # *.;.X + :.v.B   t * T.zX5XZ.*X@X@X@X@X@X@X@X@X@X#X@X@X@X@X@X",
"@X@X@X@X@X@X@X@X@X@X@X@X@X@X@X@X#XY 3.5.3.:   X E % 8 ^ ! 8 y + ; 4 2 O.R.2.F.-X@X@X#X@X@X@X#X@X@X@X@X@X@X@X@X",
"@X@X@X@X@X@X@X@X@X@X@X@X@X@X@X@X*Xe V 7.D 3 X 9 / 1.G./ / ^ e   4 j.B.j.# X } ,XOX@X%X@X@X@X@X@X@X@X@X@X@X@X@X",
"@X#X@X@X@X@X@X@X@X@X@X@X@X@X@X@X*Xe   t ; 3   Q Q >.`. .G.! ! >.u M.fXyXh.6 ' /.-X%X@X@X@X@X@X@X@X@X@X@X@X@X@X",
"@X@X@X@X@X@X@X@X@X@X@X@X@X@X@X@X*Xw g k ,   i ! / 1.G.G.T.P.<.D.,.%.sXdXuXl.. } :XOX@X@X@X@X@X@X@X@X@X@X@X@X@X",
"@X@X@X@X@X@X@X@X@X@X@X@X@X@X@X@X#XE j d.i.  i { 1.K.U.U.J.T.G.D.! q ;.sXgXyXp.} ;X@X@X@X@X@X@X@X@X@X@X@X#X@X@X",
"@X@X@X@X@X@X@X@X@X@X@X@X@X@X@X@X@XOXE d.J   e ` 1.U.D.`.Y.Y.Y.G.{ & . J fXfXyXM.K.$X@X@X@X@X@X@X@X@X@X@X@X@X@X",
"@X@X@X@X@X@X@X@X@X@X@X@X@X@X@X@X@X*X+XT ` p i <.J.Y.T.5XjXW.J.D. .^ 9   ;.gXtXuXI S.;X@X@X@X@X@X@X@X@X@X*X@X@X",
"@X@X@X@X@X@X@X@X@X#X@X@X@X@X@X@X@X@XOX;XXXp Q J.G.2XcXnXvXnXiXcXR.Y 6 . =.#.p.tXm S.-X@X@X@X@X@X@X@X@X@X@X@X@X",
"@X@X@X@X%X#X@X@X@X@X@X@X@X@X@X@X@X@X@X-XA.  2XpXpXaX@.-.*.*.-.#.-.8Xa . p.a -.x.#.S.=X@X@X@X@X@X@X@X@X@X@X@X@X",
"@X@X@X@X@X@X@X@X@X@X@X@X@X@X@X@X@X@X@X@XOX) 3 D D u X           # D - X E. X&Xo.O (.*X@X@X@X@X@X@X@X@X@X@X@X@X",
"@X@X@X@X@X@X@X@X@X@X@X@X@X@X@X@X@X@X@XOX,XZ.        X X . X X X     = 7 .X*X@X+X'.@X@X@X@X@X@X@X@X@X@X@X@X@X@X",
"@X@X#X@X@X@X@X@X@X@X@X@X@X@X@X#X@X@X@X@X@X-X( l Z m .         X X   } @X@X@X@X@X*X@X@X@X@X@X@X@X@X@X@X@X@X@X@X",
"@X@X@X@X@X@X@X@X@X@X@X@X@X@X@X@X@X@X@X@XOX-X) b d.e.m @       X X X   ).*X@X@X@X@X@X@X@X@X@X@X@X@X@X@X@X#X@X@X",
"@X@X@X@X@X@X@X@X@X@X@X@X@X@X@X@X@X@X@X@X@X-XQ g u.N K @           X   (.*X@X@X@X@X@X@X@X@X@X@X@X@X@X@X@X@X@X@X",
"@X@X@X@X@X@X@X@X@X@X@X@X@X@X@X@X@X@X@X@X@X-X) j b c v 1     o D y     ).-X@X#X@X@X@X@X@X@X@X@X@X@X@X@X@X@X@X@X",
"@X@X@X@X@X@X@X@X@X@X@X@X@X@X@X@X@X@X@X@X@X-X_ + $ @ 4 n @     w :   } OX@X@X@X@X@X@X@X@X@X@X@X@X@X@X@X@X@X@X@X",
"@X@X@X@X@X@X@X#X@X@X@X@X@X@X@X@X@X@X@X@X@X*XT p @.@.B 3 1       +   S.:X@X@X@X@X@X@X@X@X@X@X@X@X@X@X@X@X@X@X@X",
"@X@X@X@X@X@X@X@X@X@X@X#X@X@X@X@X@X@X@XOX;X} O.8.4.4.@.a @     : : O /.*X@X@X@X@X@X@X@X@X@X@X@X@X@X@X@X@X@X@X@X",
"@X@X@X@X@X@X@X@X@X@X@X@X@X@X@X@X@X@X@XOX,XX.8.5.' V > o       +   o.;XOX@X@X@X@X@X@X@X@X@X@X@X@X@X@X@X%X@X@X@X",
"@X@X#X@X@X@X@X@X@X@X@X@X@X@X@X@X@X@X@XOX:X6.; % +     t :   [ } [ (.-XOX@X@X@X@X@X@X@X@X@X@X@X@X@X@X@X@X@X@X@X",
"@X@X@X@X@X@X@X@X@X@X@X@X@X@X@X@X@X@X@X@X#X}.w   a O.w ; :   +X,X;X*X@X@X@X@X@X@X@X@X@X@X@X@X@X@X@X@X@X@X@X@X@X",
"@X@X@X@X@X@X@X@X@X@X@X@X#X@X@X@X@X@X@X@X$X,X_ X &.8.'     Z.@X#XOX@X@X@X@X@X@X@X@X@X@X@X@X@X@X@X@X@X@X@X@X@X@X",
"@X@X@X@X@X#X@X@X@X@X@X@X@X@X@X@X@X@X@XOX:XZ.m p.; X u n   }.@X}.XXOX@X@X@X@X@X@X@X@X@X@X@X@X@X@X@X@X@X@X@X@X*X",
"@X@X@X@X@X%X@X@X@X@X@X@X@X@X@X@X@X@X@X@X-XL.#.4     O . X.}.7 >   } ;XOX@X@X@X@X@X@X@X@XOX*X@X@X@X@X@X@X@X@X@X",
"@X@X@X@X@X@X@X@X@X@X@X@X@X@X@X@X@X@X@X@X-X&Xe O r r : +         o S.-X@X@X@X@X@X@X@X@X@X@X@X@X@X@X@X@X@X@X@X@X",
"@X@X@X@X@X#X@X@X@X@X@X@X#X@X@X@X@X@X@X#X{.E $ 8 5.4.=   T | ..[ A.;XOX@X@X@X@X@X@X@X@X@X@X@X@X@X@X@X@X@X@X@X@X",
"@X@X@X@X@X@X@X@X@X@X@X@X#X@X@X@X@X@XOX-XA.  3 - y y >   /.,X-X;X-XOX*X@X@X@X@X@X@X@X@X@X@X@X@X@X@X@X@X@X@X@X@X",
"@X@X@X@X@X@X@X@X@X@X@X@X@X@X@X@X@X@X@X@X+X)   X       _ XXOXOXOXOX@X@X@X@X@X@X@X@X@X@X@X@X@X@X@X@X@X@X@X@X@X@X",
"@X@X@X@X@X@X@X@X@X@X@X@X@X@X@X@X@X@X@X@X-XXX].|.|.|.).XX-X*X@X@X@X@X@X@X@X@X@X@X@X@X@X@X@X@X@X@X@X@X@X@X@X@X@X"
};
